<?xml version="1.0" encoding="UTF-8" standalone="no"?>
<!DOCTYPE svg PUBLIC "-//W3C//DTD SVG 1.1//EN"
 "http://www.w3.org/Graphics/SVG/1.1/DTD/svg11.dtd">
<!-- Generated by graphviz version 2.38.0 (20140413.2041)
 -->
<!-- Title: GeekFeminismFamilyTree Pages: 1 -->
<svg width="1996pt" height="860pt"
 viewBox="0.00 0.00 1996.13 860.00" xmlns="http://www.w3.org/2000/svg" xmlns:xlink="http://www.w3.org/1999/xlink">
<g id="graph0" class="graph" transform="scale(1 1) rotate(0) translate(4 856)">
<title>GeekFeminismFamilyTree</title>
<polygon fill="white" stroke="none" points="-4,4 -4,-856 1992.13,-856 1992.13,4 -4,4"/>
<!-- past -->
<g id="node1" class="node"><title>past</title>
<text text-anchor="middle" x="51.1016" y="-829.2" font-family="Times,serif" font-size="16.00">past</text>
</g>
<!-- 2000&#45;2003 -->
<g id="node2" class="node"><title>2000&#45;2003</title>
<text text-anchor="middle" x="51.1016" y="-756.2" font-family="Times,serif" font-size="16.00">2000&#45;2003</text>
</g>
<!-- past&#45;&gt;2000&#45;2003 -->
<g id="edge1" class="edge"><title>past&#45;&gt;2000&#45;2003</title>
<path fill="none" stroke="black" d="M51.1016,-815.813C51.1016,-807.789 51.1016,-798.047 51.1016,-789.069"/>
<polygon fill="black" stroke="black" points="54.6017,-789.029 51.1016,-779.029 47.6017,-789.029 54.6017,-789.029"/>
</g>
<!-- 2004&#45;2006 -->
<g id="node3" class="node"><title>2004&#45;2006</title>
<text text-anchor="middle" x="51.1016" y="-683.2" font-family="Times,serif" font-size="16.00">2004&#45;2006</text>
</g>
<!-- 2000&#45;2003&#45;&gt;2004&#45;2006 -->
<g id="edge2" class="edge"><title>2000&#45;2003&#45;&gt;2004&#45;2006</title>
<path fill="none" stroke="black" d="M51.1016,-742.813C51.1016,-734.789 51.1016,-725.047 51.1016,-716.069"/>
<polygon fill="black" stroke="black" points="54.6017,-716.029 51.1016,-706.029 47.6017,-716.029 54.6017,-716.029"/>
</g>
<!-- 2007 -->
<g id="node4" class="node"><title>2007</title>
<text text-anchor="middle" x="51.1016" y="-610.2" font-family="Times,serif" font-size="16.00">2007</text>
</g>
<!-- 2004&#45;2006&#45;&gt;2007 -->
<g id="edge3" class="edge"><title>2004&#45;2006&#45;&gt;2007</title>
<path fill="none" stroke="black" d="M51.1016,-669.813C51.1016,-661.789 51.1016,-652.047 51.1016,-643.069"/>
<polygon fill="black" stroke="black" points="54.6017,-643.029 51.1016,-633.029 47.6017,-643.029 54.6017,-643.029"/>
</g>
<!-- 2008 -->
<g id="node5" class="node"><title>2008</title>
<text text-anchor="middle" x="51.1016" y="-537.2" font-family="Times,serif" font-size="16.00">2008</text>
</g>
<!-- 2007&#45;&gt;2008 -->
<g id="edge4" class="edge"><title>2007&#45;&gt;2008</title>
<path fill="none" stroke="black" d="M51.1016,-596.813C51.1016,-588.789 51.1016,-579.047 51.1016,-570.069"/>
<polygon fill="black" stroke="black" points="54.6017,-570.029 51.1016,-560.029 47.6017,-570.029 54.6017,-570.029"/>
</g>
<!-- 2009 -->
<g id="node6" class="node"><title>2009</title>
<text text-anchor="middle" x="51.1016" y="-464.2" font-family="Times,serif" font-size="16.00">2009</text>
</g>
<!-- 2008&#45;&gt;2009 -->
<g id="edge5" class="edge"><title>2008&#45;&gt;2009</title>
<path fill="none" stroke="black" d="M51.1016,-523.813C51.1016,-515.789 51.1016,-506.047 51.1016,-497.069"/>
<polygon fill="black" stroke="black" points="54.6017,-497.029 51.1016,-487.029 47.6017,-497.029 54.6017,-497.029"/>
</g>
<!-- 2010 -->
<g id="node7" class="node"><title>2010</title>
<text text-anchor="middle" x="51.1016" y="-391.2" font-family="Times,serif" font-size="16.00">2010</text>
</g>
<!-- 2009&#45;&gt;2010 -->
<g id="edge6" class="edge"><title>2009&#45;&gt;2010</title>
<path fill="none" stroke="black" d="M51.1016,-450.813C51.1016,-442.789 51.1016,-433.047 51.1016,-424.069"/>
<polygon fill="black" stroke="black" points="54.6017,-424.029 51.1016,-414.029 47.6017,-424.029 54.6017,-424.029"/>
</g>
<!-- 2011 -->
<g id="node8" class="node"><title>2011</title>
<text text-anchor="middle" x="51.1016" y="-305.2" font-family="Times,serif" font-size="16.00">2011</text>
</g>
<!-- 2010&#45;&gt;2011 -->
<g id="edge7" class="edge"><title>2010&#45;&gt;2011</title>
<path fill="none" stroke="black" d="M51.1016,-377.595C51.1016,-366.257 51.1016,-351.227 51.1016,-338.315"/>
<polygon fill="black" stroke="black" points="54.6017,-338.095 51.1016,-328.095 47.6017,-338.095 54.6017,-338.095"/>
</g>
<!-- 2012 -->
<g id="node9" class="node"><title>2012</title>
<text text-anchor="middle" x="51.1016" y="-232.2" font-family="Times,serif" font-size="16.00">2012</text>
</g>
<!-- 2011&#45;&gt;2012 -->
<g id="edge8" class="edge"><title>2011&#45;&gt;2012</title>
<path fill="none" stroke="black" d="M51.1016,-291.813C51.1016,-283.789 51.1016,-274.047 51.1016,-265.069"/>
<polygon fill="black" stroke="black" points="54.6017,-265.029 51.1016,-255.029 47.6017,-265.029 54.6017,-265.029"/>
</g>
<!-- 2013 -->
<g id="node10" class="node"><title>2013</title>
<text text-anchor="middle" x="51.1016" y="-159.2" font-family="Times,serif" font-size="16.00">2013</text>
</g>
<!-- 2012&#45;&gt;2013 -->
<g id="edge9" class="edge"><title>2012&#45;&gt;2013</title>
<path fill="none" stroke="black" d="M51.1016,-218.813C51.1016,-210.789 51.1016,-201.047 51.1016,-192.069"/>
<polygon fill="black" stroke="black" points="54.6017,-192.029 51.1016,-182.029 47.6017,-192.029 54.6017,-192.029"/>
</g>
<!-- 2014 -->
<g id="node11" class="node"><title>2014</title>
<text text-anchor="middle" x="51.1016" y="-86.2" font-family="Times,serif" font-size="16.00">2014</text>
</g>
<!-- 2013&#45;&gt;2014 -->
<g id="edge10" class="edge"><title>2013&#45;&gt;2014</title>
<path fill="none" stroke="black" d="M51.1016,-145.813C51.1016,-137.789 51.1016,-128.047 51.1016,-119.069"/>
<polygon fill="black" stroke="black" points="54.6017,-119.029 51.1016,-109.029 47.6017,-119.029 54.6017,-119.029"/>
</g>
<!-- unknowndate -->
<g id="node12" class="node"><title>unknowndate</title>
<text text-anchor="middle" x="51.1016" y="-13.2" font-family="Times,serif" font-size="16.00">unknowndate</text>
</g>
<!-- 2014&#45;&gt;unknowndate -->
<g id="edge11" class="edge"><title>2014&#45;&gt;unknowndate</title>
<path fill="none" stroke="black" d="M51.1016,-72.8129C51.1016,-64.7895 51.1016,-55.0475 51.1016,-46.0691"/>
<polygon fill="black" stroke="black" points="54.6017,-46.0288 51.1016,-36.0288 47.6017,-46.0289 54.6017,-46.0288"/>
</g>
<!-- livejournal -->
<g id="node13" class="node"><title>livejournal</title>
<polygon fill="none" stroke="black" points="277.251,-852 200.952,-852 200.952,-816 277.251,-816 277.251,-852"/>
<text text-anchor="middle" x="239.102" y="-829.8" font-family="Times,serif" font-size="14.00">livejournal</text>
</g>
<!-- dreamwidth -->
<g id="node29" class="node"><title>dreamwidth</title>
<ellipse fill="none" stroke="black" cx="273.102" cy="-542" rx="52.1934" ry="18"/>
<text text-anchor="middle" x="273.102" y="-537.8" font-family="Times,serif" font-size="14.00">dreamwidth</text>
</g>
<!-- livejournal&#45;&gt;dreamwidth -->
<g id="edge52" class="edge"><title>livejournal&#45;&gt;dreamwidth</title>
<path fill="none" stroke="black" d="M246.393,-815.836C251.751,-801.664 258.102,-780.885 258.102,-762 258.102,-762 258.102,-762 258.102,-614 258.102,-599.188 261.265,-583.006 264.687,-569.836"/>
<polygon fill="black" stroke="black" points="268.114,-570.577 267.431,-560.004 261.372,-568.695 268.114,-570.577"/>
</g>
<!-- otw -->
<g id="node30" class="node"><title>otw</title>
<ellipse fill="none" stroke="black" cx="176.102" cy="-542" rx="27" ry="18"/>
<text text-anchor="middle" x="176.102" y="-537.8" font-family="Times,serif" font-size="14.00">otw</text>
</g>
<!-- livejournal&#45;&gt;otw -->
<g id="edge53" class="edge"><title>livejournal&#45;&gt;otw</title>
<path fill="none" stroke="black" d="M219.023,-815.87C205.87,-802.662 191.102,-783.128 191.102,-762 191.102,-762 191.102,-762 191.102,-614 191.102,-599.089 187.895,-582.789 184.447,-569.571"/>
<polygon fill="black" stroke="black" points="187.755,-568.403 181.687,-559.718 181.014,-570.291 187.755,-568.403"/>
</g>
<!-- wiscon -->
<g id="node14" class="node"><title>wiscon</title>
<ellipse fill="none" stroke="black" cx="414.102" cy="-834" rx="35.3216" ry="18"/>
<text text-anchor="middle" x="414.102" y="-829.8" font-family="Times,serif" font-size="14.00">wiscon</text>
</g>
<!-- racefail -->
<g id="node32" class="node"><title>racefail</title>
<polygon fill="none" stroke="black" points="359.102,-487 307.548,-469 359.102,-451 410.655,-469 359.102,-487"/>
<text text-anchor="middle" x="359.102" y="-464.8" font-family="Times,serif" font-size="14.00">racefail</text>
</g>
<!-- wiscon&#45;&gt;racefail -->
<g id="edge51" class="edge"><title>wiscon&#45;&gt;racefail</title>
<path fill="none" stroke="black" d="M396.867,-818.231C383.454,-805.013 367.102,-784.322 367.102,-762 367.102,-762 367.102,-762 367.102,-541 367.102,-526.025 365.322,-509.384 363.442,-495.978"/>
<polygon fill="black" stroke="black" points="366.892,-495.384 361.945,-486.015 359.97,-496.424 366.892,-495.384"/>
</g>
<!-- adacamp -->
<g id="node44" class="node"><title>adacamp</title>
<ellipse fill="none" stroke="black" cx="692.102" cy="-237" rx="41.5593" ry="18"/>
<text text-anchor="middle" x="692.102" y="-232.8" font-family="Times,serif" font-size="14.00">adacamp</text>
</g>
<!-- wiscon&#45;&gt;adacamp -->
<g id="edge29" class="edge"><title>wiscon&#45;&gt;adacamp</title>
<path fill="none" stroke="black" d="M423.553,-816.363C430.633,-802.329 439.102,-781.472 439.102,-762 439.102,-762 439.102,-762 439.102,-309 439.102,-216.07 552.091,-281.706 641.102,-255 644.275,-254.048 647.549,-253.033 650.835,-251.991"/>
<polygon fill="black" stroke="black" points="652.201,-255.227 660.638,-248.819 650.046,-248.567 652.201,-255.227"/>
<text text-anchor="middle" x="475.975" y="-537.8" font-family="Times,serif" font-size="14.00">a11y policies</text>
</g>
<!-- linuxconfau -->
<g id="node15" class="node"><title>linuxconfau</title>
<polygon fill="none" stroke="black" points="931.471,-852 848.732,-852 848.732,-816 931.471,-816 931.471,-852"/>
<text text-anchor="middle" x="890.102" y="-829.8" font-family="Times,serif" font-size="14.00">linuxconfau</text>
</g>
<!-- haecksen -->
<g id="node25" class="node"><title>haecksen</title>
<ellipse fill="none" stroke="black" cx="1096.1" cy="-615" rx="42.5283" ry="18"/>
<text text-anchor="middle" x="1096.1" y="-610.8" font-family="Times,serif" font-size="14.00">haecksen</text>
</g>
<!-- linuxconfau&#45;&gt;haecksen -->
<g id="edge44" class="edge"><title>linuxconfau&#45;&gt;haecksen</title>
<path fill="none" stroke="black" d="M931.54,-824.745C987.589,-811.072 1085.25,-777.774 1126.1,-706 1138.19,-684.756 1134.58,-673.926 1126.1,-651 1124.6,-646.947 1122.4,-643.046 1119.86,-639.414"/>
<polygon fill="black" stroke="black" points="1122.48,-637.085 1113.49,-631.482 1117.02,-641.469 1122.48,-637.085"/>
</g>
<!-- adainitiative -->
<g id="node40" class="node"><title>adainitiative</title>
<ellipse fill="none" stroke="black" cx="661.102" cy="-310" rx="53.6299" ry="18"/>
<text text-anchor="middle" x="661.102" y="-305.8" font-family="Times,serif" font-size="14.00">adainitiative</text>
</g>
<!-- linuxconfau&#45;&gt;adainitiative -->
<g id="edge16" class="edge"><title>linuxconfau&#45;&gt;adainitiative</title>
<path fill="none" stroke="black" d="M848.598,-833.694C803.159,-832.092 731.294,-822.216 690.102,-779 667.185,-754.957 677.678,-739.022 674.102,-706 672.379,-690.093 672.458,-685.915 674.102,-670 678.346,-628.902 693.102,-620.317 693.102,-579 693.102,-579 693.102,-579 693.102,-395 693.102,-374.388 684.584,-352.686 676.337,-336.504"/>
<polygon fill="black" stroke="black" points="679.401,-334.811 671.58,-327.665 673.237,-338.129 679.401,-334.811"/>
</g>
<!-- linuxchix -->
<g id="node16" class="node"><title>linuxchix</title>
<ellipse fill="none" stroke="black" cx="743.102" cy="-761" rx="43.5233" ry="18"/>
<text text-anchor="middle" x="743.102" y="-756.8" font-family="Times,serif" font-size="14.00">linuxchix</text>
</g>
<!-- debianwomen -->
<g id="node21" class="node"><title>debianwomen</title>
<ellipse fill="none" stroke="black" cx="743.102" cy="-688" rx="59.927" ry="18"/>
<text text-anchor="middle" x="743.102" y="-683.8" font-family="Times,serif" font-size="14.00">debianwomen</text>
</g>
<!-- linuxchix&#45;&gt;debianwomen -->
<g id="edge37" class="edge"><title>linuxchix&#45;&gt;debianwomen</title>
<path fill="none" stroke="black" d="M743.102,-742.813C743.102,-734.789 743.102,-725.047 743.102,-716.069"/>
<polygon fill="black" stroke="black" points="746.602,-716.029 743.102,-706.029 739.602,-716.029 746.602,-716.029"/>
</g>
<!-- linuxchix&#45;&gt;haecksen -->
<g id="edge43" class="edge"><title>linuxchix&#45;&gt;haecksen</title>
<path fill="none" stroke="black" d="M786.64,-760.306C874.073,-759.893 1066.16,-753.468 1107.1,-706 1122.05,-688.665 1116.47,-661.981 1108.85,-642.164"/>
<polygon fill="black" stroke="black" points="1112.01,-640.647 1104.91,-632.786 1105.56,-643.361 1112.01,-640.647"/>
</g>
<!-- geekfeminism -->
<g id="node28" class="node"><title>geekfeminism</title>
<ellipse fill="none" stroke="black" cx="599.102" cy="-542" rx="60.4115" ry="18"/>
<text text-anchor="middle" x="599.102" y="-537.8" font-family="Times,serif" font-size="14.00">geekfeminism</text>
</g>
<!-- linuxchix&#45;&gt;geekfeminism -->
<g id="edge12" class="edge"><title>linuxchix&#45;&gt;geekfeminism</title>
<path fill="none" stroke="black" d="M719.639,-745.791C705.056,-736.035 686.743,-721.99 674.102,-706 640.661,-663.703 618.154,-604.084 607.083,-569.905"/>
<polygon fill="black" stroke="black" points="610.357,-568.649 604.015,-560.162 603.68,-570.752 610.357,-568.649"/>
</g>
<!-- gsoc -->
<g id="node17" class="node"><title>gsoc</title>
<polygon fill="none" stroke="black" points="1250.1,-706 1196.1,-706 1196.1,-670 1250.1,-670 1250.1,-706"/>
<text text-anchor="middle" x="1223.1" y="-683.8" font-family="Times,serif" font-size="14.00">gsoc</text>
</g>
<!-- opw -->
<g id="node18" class="node"><title>opw</title>
<ellipse fill="none" stroke="black" cx="1313.1" cy="-688" rx="27" ry="18"/>
<text text-anchor="middle" x="1313.1" y="-683.8" font-family="Times,serif" font-size="14.00">opw</text>
</g>
<!-- gsoc&#45;&gt;opw -->
<g id="edge42" class="edge"><title>gsoc&#45;&gt;opw</title>
<path fill="none" stroke="black" d="M1250.17,-688C1258.77,-688 1267.37,-688 1275.97,-688"/>
<polygon fill="black" stroke="black" points="1276.06,-691.5 1286.06,-688 1276.06,-684.5 1276.06,-691.5"/>
</g>
<!-- rgsoc -->
<g id="node52" class="node"><title>rgsoc</title>
<ellipse fill="none" stroke="black" cx="1583.1" cy="-164" rx="29.2133" ry="18"/>
<text text-anchor="middle" x="1583.1" y="-159.8" font-family="Times,serif" font-size="14.00">rgsoc</text>
</g>
<!-- gsoc&#45;&gt;rgsoc -->
<g id="edge50" class="edge"><title>gsoc&#45;&gt;rgsoc</title>
<path fill="none" stroke="black" d="M1250.35,-677.553C1258.85,-674.843 1268.3,-672.066 1277.1,-670 1352.22,-652.366 1620.1,-693.161 1620.1,-616 1620.1,-616 1620.1,-616 1620.1,-236 1620.1,-218.834 1611.49,-201.706 1602.58,-188.576"/>
<polygon fill="black" stroke="black" points="1605.17,-186.197 1596.46,-180.172 1599.52,-190.317 1605.17,-186.197"/>
</g>
<!-- ubuntuwomen -->
<g id="node19" class="node"><title>ubuntuwomen</title>
<ellipse fill="none" stroke="black" cx="1037.1" cy="-688" rx="60.9133" ry="18"/>
<text text-anchor="middle" x="1037.1" y="-683.8" font-family="Times,serif" font-size="14.00">ubuntuwomen</text>
</g>
<!-- gnomewomen -->
<g id="node20" class="node"><title>gnomewomen</title>
<ellipse fill="none" stroke="black" cx="898.102" cy="-688" rx="60.4202" ry="18"/>
<text text-anchor="middle" x="898.102" y="-683.8" font-family="Times,serif" font-size="14.00">gnomewomen</text>
</g>
<!-- gnomewomen&#45;&gt;opw -->
<g id="edge41" class="edge"><title>gnomewomen&#45;&gt;opw</title>
<path fill="none" stroke="black" d="M925.207,-704.277C939.747,-712.065 958.296,-720.54 976.102,-724.5 1035.54,-737.719 1191.3,-740.304 1250.1,-724.5 1262.98,-721.04 1275.94,-714.235 1286.73,-707.43"/>
<polygon fill="black" stroke="black" points="1288.83,-710.232 1295.23,-701.786 1284.96,-704.4 1288.83,-710.232"/>
</g>
<!-- debianwomen&#45;&gt;ubuntuwomen -->
<g id="edge38" class="edge"><title>debianwomen&#45;&gt;ubuntuwomen</title>
<path fill="none" stroke="black" d="M774.352,-703.346C792.486,-711.393 816.039,-720.407 838.102,-724.5 890.54,-734.227 906.012,-735.952 958.102,-724.5 972.588,-721.315 987.581,-715.205 1000.56,-708.882"/>
<polygon fill="black" stroke="black" points="1002.29,-711.929 1009.62,-704.279 999.123,-705.688 1002.29,-711.929"/>
</g>
<!-- debianwomen&#45;&gt;gnomewomen -->
<g id="edge39" class="edge"><title>debianwomen&#45;&gt;gnomewomen</title>
<path fill="none" stroke="black" d="M803.043,-688C811.137,-688 819.23,-688 827.324,-688"/>
<polygon fill="black" stroke="black" points="827.576,-691.5 837.576,-688 827.576,-684.5 827.576,-691.5"/>
</g>
<!-- girlgeekdinners -->
<g id="node22" class="node"><title>girlgeekdinners</title>
<polygon fill="none" stroke="black" points="1501.68,-706 1398.52,-706 1398.52,-670 1501.68,-670 1501.68,-706"/>
<text text-anchor="middle" x="1450.1" y="-683.8" font-family="Times,serif" font-size="14.00">girlgeekdinners</text>
</g>
<!-- blogher -->
<g id="node23" class="node"><title>blogher</title>
<ellipse fill="none" stroke="black" cx="1565.1" cy="-688" rx="37.2421" ry="18"/>
<text text-anchor="middle" x="1565.1" y="-683.8" font-family="Times,serif" font-size="14.00">blogher</text>
</g>
<!-- speakerswiki -->
<g id="node24" class="node"><title>speakerswiki</title>
<ellipse fill="none" stroke="black" cx="1694.1" cy="-688" rx="56.0528" ry="18"/>
<text text-anchor="middle" x="1694.1" y="-683.8" font-family="Times,serif" font-size="14.00">speakerswiki</text>
</g>
<!-- blogher&#45;&gt;speakerswiki -->
<g id="edge58" class="edge"><title>blogher&#45;&gt;speakerswiki</title>
<path fill="none" stroke="black" d="M1602.39,-688C1610.71,-688 1619.03,-688 1627.35,-688"/>
<polygon fill="black" stroke="black" points="1627.5,-691.5 1637.5,-688 1627.5,-684.5 1627.5,-691.5"/>
</g>
<!-- owoot -->
<g id="node42" class="node"><title>owoot</title>
<ellipse fill="none" stroke="black" cx="1071.1" cy="-310" rx="32.4324" ry="18"/>
<text text-anchor="middle" x="1071.1" y="-305.8" font-family="Times,serif" font-size="14.00">owoot</text>
</g>
<!-- haecksen&#45;&gt;owoot -->
<g id="edge40" class="edge"><title>haecksen&#45;&gt;owoot</title>
<path fill="none" stroke="black" d="M1094.69,-596.841C1090.54,-546.649 1078.43,-399.79 1073.37,-338.434"/>
<polygon fill="black" stroke="black" points="1076.84,-338.024 1072.53,-328.346 1069.87,-338.6 1076.84,-338.024"/>
</g>
<!-- haecksen&#45;&gt;adacamp -->
<g id="edge45" class="edge"><title>haecksen&#45;&gt;adacamp</title>
<path fill="none" stroke="black" d="M1053.52,-614.56C957.234,-614.68 731.102,-608.04 731.102,-543 731.102,-543 731.102,-543 731.102,-432 731.102,-369.7 742.063,-351.655 724.102,-292 721.07,-281.932 715.778,-271.783 710.36,-263.043"/>
<polygon fill="black" stroke="black" points="713.172,-260.948 704.758,-254.509 707.32,-264.789 713.172,-260.948"/>
</g>
<!-- shesgeeky -->
<g id="node26" class="node"><title>shesgeeky</title>
<ellipse fill="none" stroke="black" cx="1694.1" cy="-615" rx="46.4046" ry="18"/>
<text text-anchor="middle" x="1694.1" y="-610.8" font-family="Times,serif" font-size="14.00">shesgeeky</text>
</g>
<!-- shesgeeky&#45;&gt;speakerswiki -->
<g id="edge59" class="edge"><title>shesgeeky&#45;&gt;speakerswiki</title>
<path fill="none" stroke="black" d="M1694.1,-633.029C1694.1,-641.029 1694.1,-650.765 1694.1,-659.753"/>
<polygon fill="black" stroke="black" points="1690.6,-659.813 1694.1,-669.813 1697.6,-659.813 1690.6,-659.813"/>
</g>
<!-- SFF CAHP -->
<g id="node27" class="node"><title>SFF CAHP</title>
<ellipse fill="none" stroke="black" cx="1321.1" cy="-542" rx="50.8253" ry="18"/>
<text text-anchor="middle" x="1321.1" y="-537.8" font-family="Times,serif" font-size="14.00">SFF CAHP</text>
</g>
<!-- backupproject -->
<g id="node36" class="node"><title>backupproject</title>
<ellipse fill="none" stroke="black" cx="1532.1" cy="-469" rx="60.3942" ry="18"/>
<text text-anchor="middle" x="1532.1" y="-464.8" font-family="Times,serif" font-size="14.00">backupproject</text>
</g>
<!-- SFF CAHP&#45;&gt;backupproject -->
<g id="edge22" class="edge"><title>SFF CAHP&#45;&gt;backupproject</title>
<path fill="none" stroke="black" d="M1356.89,-528.956C1391.91,-517.175 1445.45,-499.157 1484.14,-486.14"/>
<polygon fill="black" stroke="black" points="1485.27,-489.452 1493.63,-482.946 1483.03,-482.818 1485.27,-489.452"/>
</g>
<!-- GF/TAI AHP -->
<g id="node41" class="node"><title>GF/TAI AHP</title>
<ellipse fill="none" stroke="black" cx="938.102" cy="-310" rx="57.1338" ry="18"/>
<text text-anchor="middle" x="938.102" y="-305.8" font-family="Times,serif" font-size="14.00">GF/TAI AHP</text>
</g>
<!-- SFF CAHP&#45;&gt;GF/TAI AHP -->
<g id="edge20" class="edge"><title>SFF CAHP&#45;&gt;GF/TAI AHP</title>
<path fill="none" stroke="black" d="M1270.76,-539.364C1220.69,-535.56 1143.53,-523.621 1088.1,-487 1023.35,-444.223 1039.72,-401.127 985.102,-346 980.496,-341.352 975.239,-336.831 969.947,-332.666"/>
<polygon fill="black" stroke="black" points="971.786,-329.669 961.693,-326.446 967.573,-335.259 971.786,-329.669"/>
</g>
<!-- geekfeminism&#45;&gt;adainitiative -->
<g id="edge15" class="edge"><title>geekfeminism&#45;&gt;adainitiative</title>
<path fill="none" stroke="black" d="M603.762,-523.713C614.47,-483.988 640.898,-385.947 653.792,-338.118"/>
<polygon fill="black" stroke="black" points="657.249,-338.741 656.472,-328.174 650.49,-336.919 657.249,-338.741"/>
</g>
<!-- geekfeminism&#45;&gt;GF/TAI AHP -->
<g id="edge18" class="edge"><title>geekfeminism&#45;&gt;GF/TAI AHP</title>
<path fill="none" stroke="black" d="M629.495,-526.239C644.282,-519.338 662.425,-511.279 679.102,-505 808.305,-456.355 894.016,-525.003 976.102,-414 993.587,-390.355 976.193,-357.798 959.611,-335.66"/>
<polygon fill="black" stroke="black" points="962.303,-333.422 953.37,-327.726 956.801,-337.749 962.303,-333.422"/>
</g>
<!-- seattleattic -->
<g id="node50" class="node"><title>seattleattic</title>
<ellipse fill="none" stroke="black" cx="414.102" cy="-164" rx="47.8323" ry="18"/>
<text text-anchor="middle" x="414.102" y="-159.8" font-family="Times,serif" font-size="14.00">seattleattic</text>
</g>
<!-- geekfeminism&#45;&gt;seattleattic -->
<g id="edge32" class="edge"><title>geekfeminism&#45;&gt;seattleattic</title>
<path fill="none" stroke="black" d="M548.422,-532.1C514.903,-522.965 477.102,-504.921 477.102,-470 477.102,-470 477.102,-470 477.102,-352 477.102,-304.661 447.856,-299.981 433.102,-255 426.32,-234.324 421.375,-210.161 418.232,-192.081"/>
<polygon fill="black" stroke="black" points="421.684,-191.5 416.59,-182.21 414.779,-192.649 421.684,-191.5"/>
</g>
<!-- oscon2009 -->
<g id="node31" class="node"><title>oscon2009</title>
<ellipse fill="none" stroke="black" cx="241.102" cy="-469" rx="48.3514" ry="18"/>
<text text-anchor="middle" x="241.102" y="-464.8" font-family="Times,serif" font-size="14.00">oscon2009</text>
</g>
<!-- dreamwidth&#45;&gt;oscon2009 -->
<g id="edge54" class="edge"><title>dreamwidth&#45;&gt;oscon2009</title>
<path fill="none" stroke="black" d="M265.518,-524.174C261.787,-515.896 257.202,-505.723 253.017,-496.438"/>
<polygon fill="black" stroke="black" points="256.153,-494.877 248.853,-487.198 249.771,-497.753 256.153,-494.877"/>
</g>
<!-- otw&#45;&gt;oscon2009 -->
<g id="edge55" class="edge"><title>otw&#45;&gt;oscon2009</title>
<path fill="none" stroke="black" d="M189.57,-526.289C198.187,-516.876 209.562,-504.451 219.431,-493.671"/>
<polygon fill="black" stroke="black" points="222.12,-495.917 226.291,-486.178 216.957,-491.19 222.12,-495.917"/>
</g>
<!-- oscon2009&#45;&gt;geekfeminism -->
<g id="edge56" class="edge"><title>oscon2009&#45;&gt;geekfeminism</title>
<path fill="none" stroke="black" d="M276.497,-481.288C283.609,-483.348 291.061,-485.362 298.102,-487 394.246,-509.37 420.09,-505.755 517.102,-524 525.025,-525.49 533.363,-527.132 541.565,-528.791"/>
<polygon fill="black" stroke="black" points="540.966,-532.241 551.464,-530.813 542.367,-525.382 540.966,-532.241"/>
</g>
<!-- racefail&#45;&gt;geekfeminism -->
<g id="edge13" class="edge"><title>racefail&#45;&gt;geekfeminism</title>
<path fill="none" stroke="black" d="M382.88,-478.85C403.843,-486.503 435.293,-497.624 463.102,-506 489.262,-513.88 518.579,-521.567 543.276,-527.721"/>
<polygon fill="black" stroke="black" points="542.653,-531.173 553.201,-530.174 544.333,-524.377 542.653,-531.173"/>
</g>
<!-- couchdb -->
<g id="node33" class="node"><title>couchdb</title>
<polygon fill="none" stroke="black" points="1154.1,-487 1097.28,-469 1154.1,-451 1210.93,-469 1154.1,-487"/>
<text text-anchor="middle" x="1154.1" y="-464.8" font-family="Times,serif" font-size="14.00">couchdb</text>
</g>
<!-- railsbridge -->
<g id="node34" class="node"><title>railsbridge</title>
<ellipse fill="none" stroke="black" cx="1294.1" cy="-469" rx="47.8496" ry="18"/>
<text text-anchor="middle" x="1294.1" y="-464.8" font-family="Times,serif" font-size="14.00">railsbridge</text>
</g>
<!-- couchdb&#45;&gt;railsbridge -->
<g id="edge46" class="edge"><title>couchdb&#45;&gt;railsbridge</title>
<path fill="none" stroke="black" d="M1210.98,-469C1219.29,-469 1227.6,-469 1235.91,-469"/>
<polygon fill="black" stroke="black" points="1236.04,-472.5 1246.04,-469 1236.04,-465.5 1236.04,-472.5"/>
</g>
<!-- railsgirls -->
<g id="node45" class="node"><title>railsgirls</title>
<ellipse fill="none" stroke="black" cx="1474.1" cy="-237" rx="41.1093" ry="18"/>
<text text-anchor="middle" x="1474.1" y="-232.8" font-family="Times,serif" font-size="14.00">railsgirls</text>
</g>
<!-- railsbridge&#45;&gt;railsgirls -->
<g id="edge48" class="edge"><title>railsbridge&#45;&gt;railsgirls</title>
<path fill="none" stroke="black" d="M1307.05,-451.459C1338.31,-411.509 1418.07,-309.59 1454.92,-262.515"/>
<polygon fill="black" stroke="black" points="1457.87,-264.423 1461.27,-254.391 1452.35,-260.109 1457.87,-264.423"/>
</g>
<!-- pystar -->
<g id="node61" class="node"><title>pystar</title>
<ellipse fill="none" stroke="black" cx="1294.1" cy="-396" rx="31.9393" ry="18"/>
<text text-anchor="middle" x="1294.1" y="-391.8" font-family="Times,serif" font-size="14.00">pystar</text>
</g>
<!-- railsbridge&#45;&gt;pystar -->
<g id="edge47" class="edge"><title>railsbridge&#45;&gt;pystar</title>
<path fill="none" stroke="black" d="M1294.1,-450.813C1294.1,-442.789 1294.1,-433.047 1294.1,-424.069"/>
<polygon fill="black" stroke="black" points="1297.6,-424.029 1294.1,-414.029 1290.6,-424.029 1297.6,-424.029"/>
</g>
<!-- osbp -->
<g id="node35" class="node"><title>osbp</title>
<polygon fill="none" stroke="black" points="1398.1,-487 1360.26,-469 1398.1,-451 1435.94,-469 1398.1,-487"/>
<text text-anchor="middle" x="1398.1" y="-464.8" font-family="Times,serif" font-size="14.00">osbp</text>
</g>
<!-- osbp&#45;&gt;backupproject -->
<g id="edge21" class="edge"><title>osbp&#45;&gt;backupproject</title>
<path fill="none" stroke="black" d="M1436.05,-469C1444.59,-469 1453.13,-469 1461.67,-469"/>
<polygon fill="black" stroke="black" points="1461.69,-472.5 1471.69,-469 1461.69,-465.5 1461.69,-472.5"/>
</g>
<!-- backupribbons -->
<g id="node39" class="node"><title>backupribbons</title>
<ellipse fill="none" stroke="black" cx="1530.1" cy="-396" rx="62.3494" ry="18"/>
<text text-anchor="middle" x="1530.1" y="-391.8" font-family="Times,serif" font-size="14.00">backupribbons</text>
</g>
<!-- backupproject&#45;&gt;backupribbons -->
<g id="edge23" class="edge"><title>backupproject&#45;&gt;backupribbons</title>
<path fill="none" stroke="black" d="M1531.62,-450.813C1531.39,-442.789 1531.12,-433.047 1530.86,-424.069"/>
<polygon fill="black" stroke="black" points="1534.36,-423.926 1530.58,-414.029 1527.36,-424.123 1534.36,-423.926"/>
</g>
<!-- osbridge -->
<g id="node37" class="node"><title>osbridge</title>
<ellipse fill="none" stroke="black" cx="546.102" cy="-469" rx="40.6248" ry="18"/>
<text text-anchor="middle" x="546.102" y="-464.8" font-family="Times,serif" font-size="14.00">osbridge</text>
</g>
<!-- apachecon assault -->
<g id="node38" class="node"><title>apachecon assault</title>
<polygon fill="none" stroke="black" points="863.102,-414 758.648,-396 863.102,-378 967.556,-396 863.102,-414"/>
<text text-anchor="middle" x="863.102" y="-391.8" font-family="Times,serif" font-size="14.00">apachecon assault</text>
</g>
<!-- apachecon assault&#45;&gt;adainitiative -->
<g id="edge14" class="edge"><title>apachecon assault&#45;&gt;adainitiative</title>
<path fill="none" stroke="black" d="M834.16,-382.965C799.866,-368.704 742.445,-344.826 703.224,-328.516"/>
<polygon fill="black" stroke="black" points="704.248,-325.151 693.67,-324.543 701.56,-331.615 704.248,-325.151"/>
</g>
<!-- apachecon assault&#45;&gt;GF/TAI AHP -->
<g id="edge17" class="edge"><title>apachecon assault&#45;&gt;GF/TAI AHP</title>
<path fill="none" stroke="black" d="M876.51,-379.982C887.602,-367.56 903.57,-349.675 916.468,-335.23"/>
<polygon fill="black" stroke="black" points="919.218,-337.405 923.267,-327.615 913.996,-332.743 919.218,-337.405"/>
</g>
<!-- adainitiative&#45;&gt;GF/TAI AHP -->
<g id="edge19" class="edge"><title>adainitiative&#45;&gt;GF/TAI AHP</title>
<path fill="none" stroke="black" d="M714.933,-310C766.801,-310 818.669,-310 870.537,-310"/>
<polygon fill="black" stroke="black" points="870.566,-313.5 880.566,-310 870.566,-306.5 870.566,-313.5"/>
</g>
<!-- adainitiative&#45;&gt;adacamp -->
<g id="edge28" class="edge"><title>adainitiative&#45;&gt;adacamp</title>
<path fill="none" stroke="black" d="M668.606,-291.813C672.185,-283.615 676.548,-273.623 680.538,-264.485"/>
<polygon fill="black" stroke="black" points="683.873,-265.594 684.666,-255.029 677.457,-262.793 683.873,-265.594"/>
</g>
<!-- Skeptic AHPs -->
<g id="node46" class="node"><title>Skeptic AHPs</title>
<ellipse fill="none" stroke="black" cx="1036.1" cy="-237" rx="59.4858" ry="18"/>
<text text-anchor="middle" x="1036.1" y="-232.8" font-family="Times,serif" font-size="14.00">Skeptic AHPs</text>
</g>
<!-- GF/TAI AHP&#45;&gt;Skeptic AHPs -->
<g id="edge25" class="edge"><title>GF/TAI AHP&#45;&gt;Skeptic AHPs</title>
<path fill="none" stroke="black" d="M959.851,-293.243C973.333,-283.476 990.849,-270.785 1005.69,-260.03"/>
<polygon fill="black" stroke="black" points="1008.03,-262.66 1014.07,-253.959 1003.92,-256.991 1008.03,-262.66"/>
</g>
<!-- PyCon AHP -->
<g id="node47" class="node"><title>PyCon AHP</title>
<ellipse fill="none" stroke="black" cx="905.102" cy="-237" rx="53.7149" ry="18"/>
<text text-anchor="middle" x="905.102" y="-232.8" font-family="Times,serif" font-size="14.00">PyCon AHP</text>
</g>
<!-- GF/TAI AHP&#45;&gt;PyCon AHP -->
<g id="edge24" class="edge"><title>GF/TAI AHP&#45;&gt;PyCon AHP</title>
<path fill="none" stroke="black" d="M930.113,-291.813C926.262,-283.528 921.56,-273.41 917.276,-264.193"/>
<polygon fill="black" stroke="black" points="920.405,-262.622 913.016,-255.029 914.057,-265.572 920.405,-262.622"/>
</g>
<!-- Scalzi&#39;s AHP pledge -->
<g id="node54" class="node"><title>Scalzi&#39;s AHP pledge</title>
<ellipse fill="none" stroke="black" cx="827.102" cy="-164" rx="81.7552" ry="18"/>
<text text-anchor="middle" x="827.102" y="-159.8" font-family="Times,serif" font-size="14.00">Scalzi&#39;s AHP pledge</text>
</g>
<!-- GF/TAI AHP&#45;&gt;Scalzi&#39;s AHP pledge -->
<g id="edge27" class="edge"><title>GF/TAI AHP&#45;&gt;Scalzi&#39;s AHP pledge</title>
<path fill="none" stroke="black" d="M896.439,-297.514C874.762,-289.301 849.923,-275.915 835.888,-255 823.618,-236.716 822.156,-211.453 823.341,-192.345"/>
<polygon fill="black" stroke="black" points="826.846,-192.449 824.252,-182.176 819.874,-191.824 826.846,-192.449"/>
<text text-anchor="middle" x="839.208" y="-232.8" font-family="Times,serif" font-size="14.00">?</text>
</g>
<!-- #CoCPledge -->
<g id="node59" class="node"><title>#CoCPledge</title>
<ellipse fill="none" stroke="black" cx="1123.1" cy="-91" rx="54.6334" ry="18"/>
<text text-anchor="middle" x="1123.1" y="-86.8" font-family="Times,serif" font-size="14.00">#CoCPledge</text>
</g>
<!-- GF/TAI AHP&#45;&gt;#CoCPledge -->
<g id="edge26" class="edge"><title>GF/TAI AHP&#45;&gt;#CoCPledge</title>
<path fill="none" stroke="black" d="M985.375,-299.554C1028.88,-289.854 1088.88,-273.582 1104.1,-255 1135.67,-216.447 1132.97,-154.486 1128.09,-119.1"/>
<polygon fill="black" stroke="black" points="1131.52,-118.379 1126.55,-109.027 1124.61,-119.443 1131.52,-118.379"/>
</g>
<!-- blackgirlscode -->
<g id="node43" class="node"><title>blackgirlscode</title>
<ellipse fill="none" stroke="black" cx="1710.1" cy="-310" rx="61.8476" ry="18"/>
<text text-anchor="middle" x="1710.1" y="-305.8" font-family="Times,serif" font-size="14.00">blackgirlscode</text>
</g>
<!-- adacamp&#45;&gt;osbridge -->
<g id="edge30" class="edge"><title>adacamp&#45;&gt;osbridge</title>
<path fill="none" stroke="black" d="M662.463,-249.668C642.323,-258.78 616.162,-273.074 598.102,-292 558.863,-333.119 549.06,-402.394 546.722,-440.618"/>
<polygon fill="black" stroke="black" points="543.209,-440.817 546.227,-450.973 550.201,-441.152 543.209,-440.817"/>
<text text-anchor="middle" x="602.975" y="-348.8" font-family="Times,serif" font-size="14.00">a11y policies</text>
</g>
<!-- doubleunion -->
<g id="node51" class="node"><title>doubleunion</title>
<ellipse fill="none" stroke="black" cx="552.102" cy="-164" rx="54.1403" ry="18"/>
<text text-anchor="middle" x="552.102" y="-159.8" font-family="Times,serif" font-size="14.00">doubleunion</text>
</g>
<!-- adacamp&#45;&gt;doubleunion -->
<g id="edge31" class="edge"><title>adacamp&#45;&gt;doubleunion</title>
<path fill="none" stroke="black" d="M666.097,-222.812C644.735,-211.978 614.181,-196.483 590.081,-184.261"/>
<polygon fill="black" stroke="black" points="591.364,-180.987 580.862,-179.586 588.197,-187.23 591.364,-180.987"/>
</g>
<!-- railsgirls&#45;&gt;rgsoc -->
<g id="edge49" class="edge"><title>railsgirls&#45;&gt;rgsoc</title>
<path fill="none" stroke="black" d="M1496.16,-221.632C1513.16,-210.559 1536.78,-195.172 1555.11,-183.232"/>
<polygon fill="black" stroke="black" points="1557.17,-186.071 1563.63,-177.681 1553.34,-180.206 1557.17,-186.071"/>
</g>
<!-- Feminist Frequency vids -->
<g id="node48" class="node"><title>Feminist Frequency vids</title>
<ellipse fill="none" stroke="black" cx="1746.1" cy="-237" rx="97.6053" ry="18"/>
<text text-anchor="middle" x="1746.1" y="-232.8" font-family="Times,serif" font-size="14.00">Feminist Frequency vids</text>
</g>
<!-- transcodesf -->
<g id="node49" class="node"><title>transcodesf</title>
<ellipse fill="none" stroke="black" cx="1912.1" cy="-237" rx="50.2551" ry="18"/>
<text text-anchor="middle" x="1912.1" y="-232.8" font-family="Times,serif" font-size="14.00">transcodesf</text>
</g>
<!-- seattleattic&#45;&gt;doubleunion -->
<g id="edge36" class="edge"><title>seattleattic&#45;&gt;doubleunion</title>
<path fill="none" stroke="black" d="M462.078,-164C470.495,-164 478.912,-164 487.329,-164"/>
<polygon fill="black" stroke="black" points="487.595,-167.5 497.595,-164 487.595,-160.5 487.595,-167.5"/>
</g>
<!-- callbackwomen -->
<g id="node53" class="node"><title>callbackwomen</title>
<ellipse fill="none" stroke="black" cx="1696.1" cy="-164" rx="65.6976" ry="18"/>
<text text-anchor="middle" x="1696.1" y="-159.8" font-family="Times,serif" font-size="14.00">callbackwomen</text>
</g>
<!-- transh4ck -->
<g id="node55" class="node"><title>transh4ck</title>
<ellipse fill="none" stroke="black" cx="1824.1" cy="-164" rx="44.475" ry="18"/>
<text text-anchor="middle" x="1824.1" y="-159.8" font-family="Times,serif" font-size="14.00">transh4ck</text>
</g>
<!-- transtech -->
<g id="node56" class="node"><title>transtech</title>
<ellipse fill="none" stroke="black" cx="1946.1" cy="-164" rx="42.0524" ry="18"/>
<text text-anchor="middle" x="1946.1" y="-159.8" font-family="Times,serif" font-size="14.00">transtech</text>
</g>
<!-- transh4ck&#45;&gt;transtech -->
<g id="edge57" class="edge"><title>transh4ck&#45;&gt;transtech</title>
<path fill="none" stroke="black" d="M1868.9,-164C1877.19,-164 1885.48,-164 1893.77,-164"/>
<polygon fill="black" stroke="black" points="1893.88,-167.5 1903.88,-164 1893.88,-160.5 1893.88,-167.5"/>
</g>
<!-- females in hackerspaces email -->
<g id="node57" class="node"><title>females in hackerspaces email</title>
<ellipse fill="none" stroke="black" cx="213.102" cy="-164" rx="117.306" ry="18"/>
<text text-anchor="middle" x="213.102" y="-159.8" font-family="Times,serif" font-size="14.00">females in hackerspaces email</text>
</g>
<!-- females in hackerspaces email&#45;&gt;seattleattic -->
<g id="edge33" class="edge"><title>females in hackerspaces email&#45;&gt;seattleattic</title>
<path fill="none" stroke="black" d="M330.875,-164C339.196,-164 347.516,-164 355.837,-164"/>
<polygon fill="black" stroke="black" points="355.986,-167.5 365.986,-164 355.986,-160.5 355.986,-167.5"/>
</g>
<!-- females in hackerspaces email&#45;&gt;doubleunion -->
<g id="edge34" class="edge"><title>females in hackerspaces email&#45;&gt;doubleunion</title>
<path fill="none" stroke="black" d="M260.598,-180.49C310.87,-195.722 392.417,-214.093 462.102,-200.5 479.507,-197.105 497.801,-190.339 513.316,-183.545"/>
<polygon fill="black" stroke="black" points="514.923,-186.659 522.585,-179.341 512.032,-180.284 514.923,-186.659"/>
</g>
<!-- mvc -->
<g id="node58" class="node"><title>mvc</title>
<ellipse fill="none" stroke="black" cx="1223.1" cy="-91" rx="27" ry="18"/>
<text text-anchor="middle" x="1223.1" y="-86.8" font-family="Times,serif" font-size="14.00">mvc</text>
</g>
<!-- mothershiphackermoms -->
<g id="node60" class="node"><title>mothershiphackermoms</title>
<ellipse fill="none" stroke="black" cx="537.102" cy="-237" rx="95.1654" ry="18"/>
<text text-anchor="middle" x="537.102" y="-232.8" font-family="Times,serif" font-size="14.00">mothershiphackermoms</text>
</g>
<!-- mothershiphackermoms&#45;&gt;doubleunion -->
<g id="edge35" class="edge"><title>mothershiphackermoms&#45;&gt;doubleunion</title>
<path fill="none" stroke="black" d="M540.733,-218.813C542.428,-210.789 544.486,-201.047 546.383,-192.069"/>
<polygon fill="black" stroke="black" points="549.861,-192.536 548.504,-182.029 543.012,-191.089 549.861,-192.536"/>
</g>
</g>
</svg>
