<?xml version="1.0" encoding="UTF-8" standalone="no"?>
<!DOCTYPE svg PUBLIC "-//W3C//DTD SVG 1.1//EN"
 "http://www.w3.org/Graphics/SVG/1.1/DTD/svg11.dtd">
<!-- Generated by graphviz version 2.38.0 (20140413.2041)
 -->
<!-- Title: GeekFeminismFamilyTree Pages: 1 -->
<svg width="2467pt" height="860pt"
 viewBox="0.00 0.00 2467.31 860.00" xmlns="http://www.w3.org/2000/svg" xmlns:xlink="http://www.w3.org/1999/xlink">
<g id="graph0" class="graph" transform="scale(1 1) rotate(0) translate(4 856)">
<title>GeekFeminismFamilyTree</title>
<polygon fill="white" stroke="none" points="-4,4 -4,-856 2463.31,-856 2463.31,4 -4,4"/>
<!-- past -->
<g id="node1" class="node"><title>past</title>
<text text-anchor="middle" x="51.1016" y="-829.2" font-family="Times,serif" font-size="16.00">past</text>
</g>
<!-- 2000&#45;2003 -->
<g id="node2" class="node"><title>2000&#45;2003</title>
<text text-anchor="middle" x="51.1016" y="-756.2" font-family="Times,serif" font-size="16.00">2000&#45;2003</text>
</g>
<!-- past&#45;&gt;2000&#45;2003 -->
<g id="edge1" class="edge"><title>past&#45;&gt;2000&#45;2003</title>
<path fill="none" stroke="black" d="M51.1016,-815.813C51.1016,-807.789 51.1016,-798.047 51.1016,-789.069"/>
<polygon fill="black" stroke="black" points="54.6017,-789.029 51.1016,-779.029 47.6017,-789.029 54.6017,-789.029"/>
</g>
<!-- 2004&#45;2006 -->
<g id="node3" class="node"><title>2004&#45;2006</title>
<text text-anchor="middle" x="51.1016" y="-683.2" font-family="Times,serif" font-size="16.00">2004&#45;2006</text>
</g>
<!-- 2000&#45;2003&#45;&gt;2004&#45;2006 -->
<g id="edge2" class="edge"><title>2000&#45;2003&#45;&gt;2004&#45;2006</title>
<path fill="none" stroke="black" d="M51.1016,-742.813C51.1016,-734.789 51.1016,-725.047 51.1016,-716.069"/>
<polygon fill="black" stroke="black" points="54.6017,-716.029 51.1016,-706.029 47.6017,-716.029 54.6017,-716.029"/>
</g>
<!-- 2007 -->
<g id="node4" class="node"><title>2007</title>
<text text-anchor="middle" x="51.1016" y="-610.2" font-family="Times,serif" font-size="16.00">2007</text>
</g>
<!-- 2004&#45;2006&#45;&gt;2007 -->
<g id="edge3" class="edge"><title>2004&#45;2006&#45;&gt;2007</title>
<path fill="none" stroke="black" d="M51.1016,-669.813C51.1016,-661.789 51.1016,-652.047 51.1016,-643.069"/>
<polygon fill="black" stroke="black" points="54.6017,-643.029 51.1016,-633.029 47.6017,-643.029 54.6017,-643.029"/>
</g>
<!-- 2008 -->
<g id="node5" class="node"><title>2008</title>
<text text-anchor="middle" x="51.1016" y="-537.2" font-family="Times,serif" font-size="16.00">2008</text>
</g>
<!-- 2007&#45;&gt;2008 -->
<g id="edge4" class="edge"><title>2007&#45;&gt;2008</title>
<path fill="none" stroke="black" d="M51.1016,-596.813C51.1016,-588.789 51.1016,-579.047 51.1016,-570.069"/>
<polygon fill="black" stroke="black" points="54.6017,-570.029 51.1016,-560.029 47.6017,-570.029 54.6017,-570.029"/>
</g>
<!-- 2009 -->
<g id="node6" class="node"><title>2009</title>
<text text-anchor="middle" x="51.1016" y="-464.2" font-family="Times,serif" font-size="16.00">2009</text>
</g>
<!-- 2008&#45;&gt;2009 -->
<g id="edge5" class="edge"><title>2008&#45;&gt;2009</title>
<path fill="none" stroke="black" d="M51.1016,-523.813C51.1016,-515.789 51.1016,-506.047 51.1016,-497.069"/>
<polygon fill="black" stroke="black" points="54.6017,-497.029 51.1016,-487.029 47.6017,-497.029 54.6017,-497.029"/>
</g>
<!-- 2010 -->
<g id="node7" class="node"><title>2010</title>
<text text-anchor="middle" x="51.1016" y="-391.2" font-family="Times,serif" font-size="16.00">2010</text>
</g>
<!-- 2009&#45;&gt;2010 -->
<g id="edge6" class="edge"><title>2009&#45;&gt;2010</title>
<path fill="none" stroke="black" d="M51.1016,-450.813C51.1016,-442.789 51.1016,-433.047 51.1016,-424.069"/>
<polygon fill="black" stroke="black" points="54.6017,-424.029 51.1016,-414.029 47.6017,-424.029 54.6017,-424.029"/>
</g>
<!-- 2011 -->
<g id="node8" class="node"><title>2011</title>
<text text-anchor="middle" x="51.1016" y="-305.2" font-family="Times,serif" font-size="16.00">2011</text>
</g>
<!-- 2010&#45;&gt;2011 -->
<g id="edge7" class="edge"><title>2010&#45;&gt;2011</title>
<path fill="none" stroke="black" d="M51.1016,-377.595C51.1016,-366.257 51.1016,-351.227 51.1016,-338.315"/>
<polygon fill="black" stroke="black" points="54.6017,-338.095 51.1016,-328.095 47.6017,-338.095 54.6017,-338.095"/>
</g>
<!-- 2012 -->
<g id="node9" class="node"><title>2012</title>
<text text-anchor="middle" x="51.1016" y="-232.2" font-family="Times,serif" font-size="16.00">2012</text>
</g>
<!-- 2011&#45;&gt;2012 -->
<g id="edge8" class="edge"><title>2011&#45;&gt;2012</title>
<path fill="none" stroke="black" d="M51.1016,-291.813C51.1016,-283.789 51.1016,-274.047 51.1016,-265.069"/>
<polygon fill="black" stroke="black" points="54.6017,-265.029 51.1016,-255.029 47.6017,-265.029 54.6017,-265.029"/>
</g>
<!-- 2013 -->
<g id="node10" class="node"><title>2013</title>
<text text-anchor="middle" x="51.1016" y="-159.2" font-family="Times,serif" font-size="16.00">2013</text>
</g>
<!-- 2012&#45;&gt;2013 -->
<g id="edge9" class="edge"><title>2012&#45;&gt;2013</title>
<path fill="none" stroke="black" d="M51.1016,-218.813C51.1016,-210.789 51.1016,-201.047 51.1016,-192.069"/>
<polygon fill="black" stroke="black" points="54.6017,-192.029 51.1016,-182.029 47.6017,-192.029 54.6017,-192.029"/>
</g>
<!-- 2014 -->
<g id="node11" class="node"><title>2014</title>
<text text-anchor="middle" x="51.1016" y="-86.2" font-family="Times,serif" font-size="16.00">2014</text>
</g>
<!-- 2013&#45;&gt;2014 -->
<g id="edge10" class="edge"><title>2013&#45;&gt;2014</title>
<path fill="none" stroke="black" d="M51.1016,-145.813C51.1016,-137.789 51.1016,-128.047 51.1016,-119.069"/>
<polygon fill="black" stroke="black" points="54.6017,-119.029 51.1016,-109.029 47.6017,-119.029 54.6017,-119.029"/>
</g>
<!-- unknowndate -->
<g id="node12" class="node"><title>unknowndate</title>
<text text-anchor="middle" x="51.1016" y="-13.2" font-family="Times,serif" font-size="16.00">unknowndate</text>
</g>
<!-- 2014&#45;&gt;unknowndate -->
<g id="edge11" class="edge"><title>2014&#45;&gt;unknowndate</title>
<path fill="none" stroke="black" d="M51.1016,-72.8129C51.1016,-64.7895 51.1016,-55.0475 51.1016,-46.0691"/>
<polygon fill="black" stroke="black" points="54.6017,-46.0288 51.1016,-36.0288 47.6017,-46.0289 54.6017,-46.0288"/>
</g>
<!-- livejournal -->
<g id="node13" class="node"><title>livejournal</title>
<polygon fill="none" stroke="black" points="223.251,-852 146.952,-852 146.952,-816 223.251,-816 223.251,-852"/>
<text text-anchor="middle" x="185.102" y="-829.8" font-family="Times,serif" font-size="14.00">livejournal</text>
</g>
<!-- dreamwidth -->
<g id="node33" class="node"><title>dreamwidth</title>
<ellipse fill="none" stroke="black" cx="148.102" cy="-542" rx="52.1934" ry="18"/>
<text text-anchor="middle" x="148.102" y="-537.8" font-family="Times,serif" font-size="14.00">dreamwidth</text>
</g>
<!-- livejournal&#45;&gt;dreamwidth -->
<g id="edge55" class="edge"><title>livejournal&#45;&gt;dreamwidth</title>
<path fill="none" stroke="black" d="M177.81,-815.836C172.452,-801.664 166.102,-780.885 166.102,-762 166.102,-762 166.102,-762 166.102,-614 166.102,-599.049 162.305,-582.856 158.199,-569.715"/>
<polygon fill="black" stroke="black" points="161.409,-568.277 154.907,-559.912 154.773,-570.506 161.409,-568.277"/>
</g>
<!-- otw -->
<g id="node34" class="node"><title>otw</title>
<ellipse fill="none" stroke="black" cx="245.102" cy="-542" rx="27" ry="18"/>
<text text-anchor="middle" x="245.102" y="-537.8" font-family="Times,serif" font-size="14.00">otw</text>
</g>
<!-- livejournal&#45;&gt;otw -->
<g id="edge56" class="edge"><title>livejournal&#45;&gt;otw</title>
<path fill="none" stroke="black" d="M201.778,-815.891C213.129,-802.4 226.102,-782.497 226.102,-762 226.102,-762 226.102,-762 226.102,-614 226.102,-598.748 230.244,-582.26 234.66,-569.015"/>
<polygon fill="black" stroke="black" points="237.958,-570.188 238.027,-559.593 231.366,-567.832 237.958,-570.188"/>
</g>
<!-- wiscon -->
<g id="node14" class="node"><title>wiscon</title>
<ellipse fill="none" stroke="black" cx="1156.1" cy="-834" rx="35.3216" ry="18"/>
<text text-anchor="middle" x="1156.1" y="-829.8" font-family="Times,serif" font-size="14.00">wiscon</text>
</g>
<!-- racefail -->
<g id="node36" class="node"><title>racefail</title>
<polygon fill="none" stroke="black" points="906.102,-487 854.548,-469 906.102,-451 957.655,-469 906.102,-487"/>
<text text-anchor="middle" x="906.102" y="-464.8" font-family="Times,serif" font-size="14.00">racefail</text>
</g>
<!-- wiscon&#45;&gt;racefail -->
<g id="edge54" class="edge"><title>wiscon&#45;&gt;racefail</title>
<path fill="none" stroke="black" d="M1156.81,-815.748C1157.73,-774.976 1155.65,-670.571 1115.1,-597 1079.06,-531.597 993.888,-496.116 944.109,-480.313"/>
<polygon fill="black" stroke="black" points="944.938,-476.907 934.352,-477.324 942.888,-483.6 944.938,-476.907"/>
</g>
<!-- adacamp -->
<g id="node48" class="node"><title>adacamp</title>
<ellipse fill="none" stroke="black" cx="876.102" cy="-237" rx="41.5593" ry="18"/>
<text text-anchor="middle" x="876.102" y="-232.8" font-family="Times,serif" font-size="14.00">adacamp</text>
</g>
<!-- wiscon&#45;&gt;adacamp -->
<g id="edge29" class="edge"><title>wiscon&#45;&gt;adacamp</title>
<path fill="none" stroke="black" d="M1163.28,-816.122C1168.67,-801.945 1175.1,-781.013 1175.1,-762 1175.1,-762 1175.1,-762 1175.1,-309 1175.1,-258.692 1012.85,-243.975 927.387,-239.712"/>
<polygon fill="black" stroke="black" points="927.515,-236.214 917.362,-239.242 927.188,-243.206 927.515,-236.214"/>
<text text-anchor="middle" x="1211.97" y="-537.8" font-family="Times,serif" font-size="14.00">a11y policies</text>
</g>
<!-- linuxconfau -->
<g id="node15" class="node"><title>linuxconfau</title>
<polygon fill="none" stroke="black" points="848.471,-852 765.732,-852 765.732,-816 848.471,-816 848.471,-852"/>
<text text-anchor="middle" x="807.102" y="-829.8" font-family="Times,serif" font-size="14.00">linuxconfau</text>
</g>
<!-- haecksen -->
<g id="node28" class="node"><title>haecksen</title>
<ellipse fill="none" stroke="black" cx="1063.1" cy="-615" rx="42.5283" ry="18"/>
<text text-anchor="middle" x="1063.1" y="-610.8" font-family="Times,serif" font-size="14.00">haecksen</text>
</g>
<!-- linuxconfau&#45;&gt;haecksen -->
<g id="edge47" class="edge"><title>linuxconfau&#45;&gt;haecksen</title>
<path fill="none" stroke="black" d="M848.74,-824.443C906.707,-810.277 1010.82,-776.246 1066.1,-706 1081.58,-686.339 1083.13,-675.509 1078.1,-651 1077.5,-648.086 1076.65,-645.115 1075.66,-642.197"/>
<polygon fill="black" stroke="black" points="1078.8,-640.643 1071.86,-632.64 1072.3,-643.226 1078.8,-640.643"/>
</g>
<!-- adainitiative -->
<g id="node44" class="node"><title>adainitiative</title>
<ellipse fill="none" stroke="black" cx="876.102" cy="-310" rx="53.6299" ry="18"/>
<text text-anchor="middle" x="876.102" y="-305.8" font-family="Times,serif" font-size="14.00">adainitiative</text>
</g>
<!-- linuxconfau&#45;&gt;adainitiative -->
<g id="edge16" class="edge"><title>linuxconfau&#45;&gt;adainitiative</title>
<path fill="none" stroke="black" d="M765.564,-830.031C693.307,-823.715 552.102,-805.772 552.102,-762 552.102,-762 552.102,-762 552.102,-651 552.102,-583.57 585.265,-569.422 635.102,-524 661.11,-500.296 680.735,-512.389 705.102,-487 742.267,-448.274 724.277,-420.468 757.102,-378 775.423,-354.297 804.649,-337.67 829.552,-326.908"/>
<polygon fill="black" stroke="black" points="830.945,-330.12 838.853,-323.068 828.274,-323.649 830.945,-330.12"/>
</g>
<!-- linuxchix -->
<g id="node16" class="node"><title>linuxchix</title>
<ellipse fill="none" stroke="black" cx="678.102" cy="-761" rx="43.5233" ry="18"/>
<text text-anchor="middle" x="678.102" y="-756.8" font-family="Times,serif" font-size="14.00">linuxchix</text>
</g>
<!-- debianwomen -->
<g id="node22" class="node"><title>debianwomen</title>
<ellipse fill="none" stroke="black" cx="678.102" cy="-688" rx="59.927" ry="18"/>
<text text-anchor="middle" x="678.102" y="-683.8" font-family="Times,serif" font-size="14.00">debianwomen</text>
</g>
<!-- linuxchix&#45;&gt;debianwomen -->
<g id="edge40" class="edge"><title>linuxchix&#45;&gt;debianwomen</title>
<path fill="none" stroke="black" d="M678.102,-742.813C678.102,-734.789 678.102,-725.047 678.102,-716.069"/>
<polygon fill="black" stroke="black" points="681.602,-716.029 678.102,-706.029 674.602,-716.029 681.602,-716.029"/>
</g>
<!-- linuxchix&#45;&gt;haecksen -->
<g id="edge46" class="edge"><title>linuxchix&#45;&gt;haecksen</title>
<path fill="none" stroke="black" d="M721.786,-759.467C808.11,-757.491 996.172,-748.312 1042.1,-706 1059.21,-690.243 1063.67,-663.476 1064.33,-643.219"/>
<polygon fill="black" stroke="black" points="1067.83,-643.042 1064.37,-633.029 1060.83,-643.016 1067.83,-643.042"/>
</g>
<!-- geekfeminism -->
<g id="node32" class="node"><title>geekfeminism</title>
<ellipse fill="none" stroke="black" cx="704.102" cy="-542" rx="60.4115" ry="18"/>
<text text-anchor="middle" x="704.102" y="-537.8" font-family="Times,serif" font-size="14.00">geekfeminism</text>
</g>
<!-- linuxchix&#45;&gt;geekfeminism -->
<g id="edge12" class="edge"><title>linuxchix&#45;&gt;geekfeminism</title>
<path fill="none" stroke="black" d="M651.057,-746.762C635.693,-737.634 617.83,-723.914 609.102,-706 602.094,-691.616 604.051,-685.182 609.102,-670 622.825,-628.742 655.765,-590.061 678.992,-566.476"/>
<polygon fill="black" stroke="black" points="681.525,-568.894 686.156,-559.365 676.593,-563.926 681.525,-568.894"/>
</g>
<!-- sfruby -->
<g id="node17" class="node"><title>sfruby</title>
<ellipse fill="none" stroke="black" cx="1907.1" cy="-761" rx="32.9081" ry="18"/>
<text text-anchor="middle" x="1907.1" y="-756.8" font-family="Times,serif" font-size="14.00">sfruby</text>
</g>
<!-- railsbridge -->
<g id="node38" class="node"><title>railsbridge</title>
<ellipse fill="none" stroke="black" cx="1902.1" cy="-469" rx="47.8496" ry="18"/>
<text text-anchor="middle" x="1902.1" y="-464.8" font-family="Times,serif" font-size="14.00">railsbridge</text>
</g>
<!-- sfruby&#45;&gt;railsbridge -->
<g id="edge65" class="edge"><title>sfruby&#45;&gt;railsbridge</title>
<path fill="none" stroke="black" d="M1907.1,-742.784C1907.1,-728.405 1907.1,-707.366 1907.1,-689 1907.1,-689 1907.1,-689 1907.1,-541 1907.1,-526.616 1906.07,-510.633 1904.94,-497.479"/>
<polygon fill="black" stroke="black" points="1908.4,-496.829 1903.99,-487.193 1901.42,-497.472 1908.4,-496.829"/>
</g>
<!-- gsoc -->
<g id="node18" class="node"><title>gsoc</title>
<polygon fill="none" stroke="black" points="1999.1,-706 1945.1,-706 1945.1,-670 1999.1,-670 1999.1,-706"/>
<text text-anchor="middle" x="1972.1" y="-683.8" font-family="Times,serif" font-size="14.00">gsoc</text>
</g>
<!-- opw -->
<g id="node19" class="node"><title>opw</title>
<ellipse fill="none" stroke="black" cx="2062.1" cy="-688" rx="27" ry="18"/>
<text text-anchor="middle" x="2062.1" y="-683.8" font-family="Times,serif" font-size="14.00">opw</text>
</g>
<!-- gsoc&#45;&gt;opw -->
<g id="edge45" class="edge"><title>gsoc&#45;&gt;opw</title>
<path fill="none" stroke="black" d="M1999.17,-688C2007.77,-688 2016.37,-688 2024.97,-688"/>
<polygon fill="black" stroke="black" points="2025.06,-691.5 2035.06,-688 2025.06,-684.5 2025.06,-691.5"/>
</g>
<!-- rgsoc -->
<g id="node58" class="node"><title>rgsoc</title>
<ellipse fill="none" stroke="black" cx="1931.1" cy="-164" rx="29.2133" ry="18"/>
<text text-anchor="middle" x="1931.1" y="-159.8" font-family="Times,serif" font-size="14.00">rgsoc</text>
</g>
<!-- gsoc&#45;&gt;rgsoc -->
<g id="edge53" class="edge"><title>gsoc&#45;&gt;rgsoc</title>
<path fill="none" stroke="black" d="M1974.37,-669.818C1976.07,-655.46 1978.1,-634.432 1978.1,-616 1978.1,-616 1978.1,-616 1978.1,-236 1978.1,-217.148 1966.44,-199.458 1954.73,-186.452"/>
<polygon fill="black" stroke="black" points="1957,-183.762 1947.54,-178.99 1951.96,-188.62 1957,-183.762"/>
</g>
<!-- ubuntuwomen -->
<g id="node20" class="node"><title>ubuntuwomen</title>
<ellipse fill="none" stroke="black" cx="834.102" cy="-688" rx="60.9133" ry="18"/>
<text text-anchor="middle" x="834.102" y="-683.8" font-family="Times,serif" font-size="14.00">ubuntuwomen</text>
</g>
<!-- gnomewomen -->
<g id="node21" class="node"><title>gnomewomen</title>
<ellipse fill="none" stroke="black" cx="973.102" cy="-688" rx="60.4202" ry="18"/>
<text text-anchor="middle" x="973.102" y="-683.8" font-family="Times,serif" font-size="14.00">gnomewomen</text>
</g>
<!-- gnomewomen&#45;&gt;opw -->
<g id="edge44" class="edge"><title>gnomewomen&#45;&gt;opw</title>
<path fill="none" stroke="black" d="M1031.92,-692.24C1149.35,-700.469 1421.25,-718.335 1650.1,-724.5 1727.63,-726.588 1924.2,-744.629 1999.1,-724.5 2011.98,-721.04 2024.94,-714.235 2035.73,-707.43"/>
<polygon fill="black" stroke="black" points="2037.83,-710.232 2044.23,-701.786 2033.96,-704.4 2037.83,-710.232"/>
</g>
<!-- debianwomen&#45;&gt;ubuntuwomen -->
<g id="edge41" class="edge"><title>debianwomen&#45;&gt;ubuntuwomen</title>
<path fill="none" stroke="black" d="M737.82,-688C746.198,-688 754.576,-688 762.954,-688"/>
<polygon fill="black" stroke="black" points="763.174,-691.5 773.174,-688 763.174,-684.5 763.174,-691.5"/>
</g>
<!-- debianwomen&#45;&gt;gnomewomen -->
<g id="edge42" class="edge"><title>debianwomen&#45;&gt;gnomewomen</title>
<path fill="none" stroke="black" d="M709.352,-703.346C727.486,-711.393 751.039,-720.407 773.102,-724.5 826.414,-734.389 842.173,-736.271 895.102,-724.5 909.429,-721.314 924.239,-715.203 937.053,-708.88"/>
<polygon fill="black" stroke="black" points="938.707,-711.966 945.997,-704.277 935.503,-705.742 938.707,-711.966"/>
</g>
<!-- girlgeekdinners -->
<g id="node23" class="node"><title>girlgeekdinners</title>
<polygon fill="none" stroke="black" points="2210.68,-706 2107.52,-706 2107.52,-670 2210.68,-670 2210.68,-706"/>
<text text-anchor="middle" x="2159.1" y="-683.8" font-family="Times,serif" font-size="14.00">girlgeekdinners</text>
</g>
<!-- blogher -->
<g id="node24" class="node"><title>blogher</title>
<ellipse fill="none" stroke="black" cx="2266.1" cy="-688" rx="37.2421" ry="18"/>
<text text-anchor="middle" x="2266.1" y="-683.8" font-family="Times,serif" font-size="14.00">blogher</text>
</g>
<!-- speakerswiki -->
<g id="node25" class="node"><title>speakerswiki</title>
<ellipse fill="none" stroke="black" cx="2395.1" cy="-688" rx="56.0528" ry="18"/>
<text text-anchor="middle" x="2395.1" y="-683.8" font-family="Times,serif" font-size="14.00">speakerswiki</text>
</g>
<!-- blogher&#45;&gt;speakerswiki -->
<g id="edge61" class="edge"><title>blogher&#45;&gt;speakerswiki</title>
<path fill="none" stroke="black" d="M2303.39,-688C2311.71,-688 2320.03,-688 2328.35,-688"/>
<polygon fill="black" stroke="black" points="2328.5,-691.5 2338.5,-688 2328.5,-684.5 2328.5,-691.5"/>
</g>
<!-- railsconf2005 -->
<g id="node26" class="node"><title>railsconf2005</title>
<ellipse fill="none" stroke="black" cx="1709.1" cy="-688" rx="58.9668" ry="18"/>
<text text-anchor="middle" x="1709.1" y="-683.8" font-family="Times,serif" font-size="14.00">railsconf2005</text>
</g>
<!-- devchix -->
<g id="node27" class="node"><title>devchix</title>
<ellipse fill="none" stroke="black" cx="1841.1" cy="-688" rx="38.2024" ry="18"/>
<text text-anchor="middle" x="1841.1" y="-683.8" font-family="Times,serif" font-size="14.00">devchix</text>
</g>
<!-- railsconf2005&#45;&gt;devchix -->
<g id="edge63" class="edge"><title>railsconf2005&#45;&gt;devchix</title>
<path fill="none" stroke="black" d="M1767.88,-688C1776.15,-688 1784.42,-688 1792.69,-688"/>
<polygon fill="black" stroke="black" points="1792.78,-691.5 1802.78,-688 1792.78,-684.5 1792.78,-691.5"/>
</g>
<!-- devchix&#45;&gt;railsbridge -->
<g id="edge64" class="edge"><title>devchix&#45;&gt;railsbridge</title>
<path fill="none" stroke="black" d="M1845.89,-669.972C1856.47,-632.339 1881.9,-541.851 1894.61,-496.642"/>
<polygon fill="black" stroke="black" points="1898,-497.523 1897.34,-486.949 1891.26,-495.628 1898,-497.523"/>
</g>
<!-- owoot -->
<g id="node46" class="node"><title>owoot</title>
<ellipse fill="none" stroke="black" cx="1086.1" cy="-310" rx="32.4324" ry="18"/>
<text text-anchor="middle" x="1086.1" y="-305.8" font-family="Times,serif" font-size="14.00">owoot</text>
</g>
<!-- haecksen&#45;&gt;owoot -->
<g id="edge43" class="edge"><title>haecksen&#45;&gt;owoot</title>
<path fill="none" stroke="black" d="M1071.8,-597.276C1078.31,-583.191 1086.1,-562.306 1086.1,-543 1086.1,-543 1086.1,-543 1086.1,-395 1086.1,-375.979 1086.1,-354.535 1086.1,-338.075"/>
<polygon fill="black" stroke="black" points="1089.6,-338.053 1086.1,-328.053 1082.6,-338.053 1089.6,-338.053"/>
</g>
<!-- haecksen&#45;&gt;adacamp -->
<g id="edge48" class="edge"><title>haecksen&#45;&gt;adacamp</title>
<path fill="none" stroke="black" d="M1048.9,-597.737C1038.47,-584.088 1026.1,-563.572 1026.1,-543 1026.1,-543 1026.1,-543 1026.1,-309 1026.1,-264.189 970.735,-247.62 927.277,-241.518"/>
<polygon fill="black" stroke="black" points="927.447,-238.012 917.09,-240.242 926.578,-244.957 927.447,-238.012"/>
</g>
<!-- shesgeeky -->
<g id="node29" class="node"><title>shesgeeky</title>
<ellipse fill="none" stroke="black" cx="2395.1" cy="-615" rx="46.4046" ry="18"/>
<text text-anchor="middle" x="2395.1" y="-610.8" font-family="Times,serif" font-size="14.00">shesgeeky</text>
</g>
<!-- shesgeeky&#45;&gt;speakerswiki -->
<g id="edge62" class="edge"><title>shesgeeky&#45;&gt;speakerswiki</title>
<path fill="none" stroke="black" d="M2395.1,-633.029C2395.1,-641.029 2395.1,-650.765 2395.1,-659.753"/>
<polygon fill="black" stroke="black" points="2391.6,-659.813 2395.1,-669.813 2398.6,-659.813 2391.6,-659.813"/>
</g>
<!-- noisebridge -->
<g id="node30" class="node"><title>noisebridge</title>
<polygon fill="none" stroke="black" points="419.92,-633 338.284,-633 338.284,-597 419.92,-597 419.92,-633"/>
<text text-anchor="middle" x="379.102" y="-610.8" font-family="Times,serif" font-size="14.00">noisebridge</text>
</g>
<!-- anarchafeminist hacker hive -->
<g id="node55" class="node"><title>anarchafeminist hacker hive</title>
<ellipse fill="none" stroke="black" cx="448.102" cy="-237" rx="109.581" ry="18"/>
<text text-anchor="middle" x="448.102" y="-232.8" font-family="Times,serif" font-size="14.00">anarchafeminist hacker hive</text>
</g>
<!-- noisebridge&#45;&gt;anarchafeminist hacker hive -->
<g id="edge33" class="edge"><title>noisebridge&#45;&gt;anarchafeminist hacker hive</title>
<path fill="none" stroke="black" d="M393.136,-596.77C402.873,-583.058 414.102,-562.927 414.102,-543 414.102,-543 414.102,-543 414.102,-309 414.102,-292.944 421.262,-276.671 429.011,-263.763"/>
<polygon fill="black" stroke="black" points="432.179,-265.308 434.664,-255.009 426.299,-261.511 432.179,-265.308"/>
</g>
<!-- doubleunion -->
<g id="node57" class="node"><title>doubleunion</title>
<ellipse fill="none" stroke="black" cx="717.102" cy="-164" rx="54.1403" ry="18"/>
<text text-anchor="middle" x="717.102" y="-159.8" font-family="Times,serif" font-size="14.00">doubleunion</text>
</g>
<!-- noisebridge&#45;&gt;doubleunion -->
<g id="edge34" class="edge"><title>noisebridge&#45;&gt;doubleunion</title>
<path fill="none" stroke="black" d="M347.429,-596.961C329.29,-584.68 310.102,-566.204 310.102,-543 310.102,-543 310.102,-543 310.102,-236 310.102,-224.669 318.778,-223.671 329.102,-219 454.312,-162.344 500.501,-204.358 636.102,-182 645.056,-180.524 654.521,-178.741 663.702,-176.893"/>
<polygon fill="black" stroke="black" points="664.424,-180.318 673.513,-174.874 663.013,-173.462 664.424,-180.318"/>
</g>
<!-- SFF CAHP -->
<g id="node31" class="node"><title>SFF CAHP</title>
<ellipse fill="none" stroke="black" cx="1655.1" cy="-542" rx="50.8253" ry="18"/>
<text text-anchor="middle" x="1655.1" y="-537.8" font-family="Times,serif" font-size="14.00">SFF CAHP</text>
</g>
<!-- backupproject -->
<g id="node40" class="node"><title>backupproject</title>
<ellipse fill="none" stroke="black" cx="1589.1" cy="-469" rx="60.3942" ry="18"/>
<text text-anchor="middle" x="1589.1" y="-464.8" font-family="Times,serif" font-size="14.00">backupproject</text>
</g>
<!-- SFF CAHP&#45;&gt;backupproject -->
<g id="edge22" class="edge"><title>SFF CAHP&#45;&gt;backupproject</title>
<path fill="none" stroke="black" d="M1639.79,-524.533C1631.5,-515.611 1621.09,-504.413 1611.87,-494.489"/>
<polygon fill="black" stroke="black" points="1614.16,-491.812 1604.78,-486.871 1609.03,-496.578 1614.16,-491.812"/>
</g>
<!-- GF/TAI AHP -->
<g id="node45" class="node"><title>GF/TAI AHP</title>
<ellipse fill="none" stroke="black" cx="1260.1" cy="-310" rx="57.1338" ry="18"/>
<text text-anchor="middle" x="1260.1" y="-305.8" font-family="Times,serif" font-size="14.00">GF/TAI AHP</text>
</g>
<!-- SFF CAHP&#45;&gt;GF/TAI AHP -->
<g id="edge20" class="edge"><title>SFF CAHP&#45;&gt;GF/TAI AHP</title>
<path fill="none" stroke="black" d="M1661.87,-524.075C1673.66,-491.544 1693.47,-419.817 1658.1,-378 1616.54,-328.861 1429.71,-315.745 1327.48,-312.255"/>
<polygon fill="black" stroke="black" points="1327.36,-308.75 1317.25,-311.929 1327.13,-315.746 1327.36,-308.75"/>
</g>
<!-- geekfeminism&#45;&gt;adainitiative -->
<g id="edge15" class="edge"><title>geekfeminism&#45;&gt;adainitiative</title>
<path fill="none" stroke="black" d="M715.974,-523.97C722.928,-513.572 731.594,-499.848 738.102,-487 761.633,-440.542 748.919,-418.944 781.102,-378 796.498,-358.412 819.137,-342.135 838.452,-330.531"/>
<polygon fill="black" stroke="black" points="840.445,-333.422 847.338,-325.375 836.932,-327.367 840.445,-333.422"/>
</g>
<!-- geekfeminism&#45;&gt;GF/TAI AHP -->
<g id="edge18" class="edge"><title>geekfeminism&#45;&gt;GF/TAI AHP</title>
<path fill="none" stroke="black" d="M759.625,-534.77C839.431,-523.911 989.16,-496.31 1100.1,-433 1151.07,-403.916 1204.04,-360.468 1234.44,-334.032"/>
<polygon fill="black" stroke="black" points="1236.82,-336.599 1242.03,-327.374 1232.21,-331.336 1236.82,-336.599"/>
</g>
<!-- seattleattic -->
<g id="node56" class="node"><title>seattleattic</title>
<ellipse fill="none" stroke="black" cx="579.102" cy="-164" rx="47.8323" ry="18"/>
<text text-anchor="middle" x="579.102" y="-159.8" font-family="Times,serif" font-size="14.00">seattleattic</text>
</g>
<!-- geekfeminism&#45;&gt;seattleattic -->
<g id="edge37" class="edge"><title>geekfeminism&#45;&gt;seattleattic</title>
<path fill="none" stroke="black" d="M654.743,-531.498C622.408,-522.082 586.102,-503.95 586.102,-470 586.102,-470 586.102,-470 586.102,-236 586.102,-221.582 584.654,-205.596 583.076,-192.449"/>
<polygon fill="black" stroke="black" points="586.5,-191.639 581.748,-182.17 579.558,-192.536 586.5,-191.639"/>
</g>
<!-- oscon2009 -->
<g id="node35" class="node"><title>oscon2009</title>
<ellipse fill="none" stroke="black" cx="234.102" cy="-469" rx="48.3514" ry="18"/>
<text text-anchor="middle" x="234.102" y="-464.8" font-family="Times,serif" font-size="14.00">oscon2009</text>
</g>
<!-- dreamwidth&#45;&gt;oscon2009 -->
<g id="edge57" class="edge"><title>dreamwidth&#45;&gt;oscon2009</title>
<path fill="none" stroke="black" d="M167.616,-524.889C179.243,-515.29 194.174,-502.963 206.94,-492.424"/>
<polygon fill="black" stroke="black" points="209.477,-494.868 214.96,-485.803 205.02,-489.47 209.477,-494.868"/>
</g>
<!-- otw&#45;&gt;oscon2009 -->
<g id="edge58" class="edge"><title>otw&#45;&gt;oscon2009</title>
<path fill="none" stroke="black" d="M242.439,-523.813C241.196,-515.789 239.686,-506.047 238.295,-497.069"/>
<polygon fill="black" stroke="black" points="241.73,-496.375 236.74,-487.029 234.812,-497.447 241.73,-496.375"/>
</g>
<!-- oscon2009&#45;&gt;geekfeminism -->
<g id="edge59" class="edge"><title>oscon2009&#45;&gt;geekfeminism</title>
<path fill="none" stroke="black" d="M278,-476.631C361.854,-489.299 545.043,-516.972 641.634,-531.563"/>
<polygon fill="black" stroke="black" points="641.144,-535.029 651.555,-533.062 642.19,-528.108 641.144,-535.029"/>
</g>
<!-- racefail&#45;&gt;geekfeminism -->
<g id="edge13" class="edge"><title>racefail&#45;&gt;geekfeminism</title>
<path fill="none" stroke="black" d="M881.79,-478.545C849.552,-489.876 791.977,-510.113 751.108,-524.478"/>
<polygon fill="black" stroke="black" points="749.896,-521.194 741.623,-527.812 752.218,-527.798 749.896,-521.194"/>
</g>
<!-- couchdb -->
<g id="node37" class="node"><title>couchdb</title>
<polygon fill="none" stroke="black" points="1762.1,-487 1705.28,-469 1762.1,-451 1818.93,-469 1762.1,-487"/>
<text text-anchor="middle" x="1762.1" y="-464.8" font-family="Times,serif" font-size="14.00">couchdb</text>
</g>
<!-- couchdb&#45;&gt;railsbridge -->
<g id="edge49" class="edge"><title>couchdb&#45;&gt;railsbridge</title>
<path fill="none" stroke="black" d="M1818.98,-469C1827.29,-469 1835.6,-469 1843.91,-469"/>
<polygon fill="black" stroke="black" points="1844.04,-472.5 1854.04,-469 1844.04,-465.5 1844.04,-472.5"/>
</g>
<!-- railsgirls -->
<g id="node49" class="node"><title>railsgirls</title>
<ellipse fill="none" stroke="black" cx="1883.1" cy="-237" rx="41.1093" ry="18"/>
<text text-anchor="middle" x="1883.1" y="-232.8" font-family="Times,serif" font-size="14.00">railsgirls</text>
</g>
<!-- railsbridge&#45;&gt;railsgirls -->
<g id="edge51" class="edge"><title>railsbridge&#45;&gt;railsgirls</title>
<path fill="none" stroke="black" d="M1891.99,-451.165C1886.39,-440.836 1879.99,-427.116 1877.1,-414 1865.69,-362.183 1872.51,-299.737 1878.08,-264.886"/>
<polygon fill="black" stroke="black" points="1881.54,-265.442 1879.75,-254.999 1874.64,-264.277 1881.54,-265.442"/>
</g>
<!-- pystar -->
<g id="node67" class="node"><title>pystar</title>
<ellipse fill="none" stroke="black" cx="1918.1" cy="-396" rx="31.9393" ry="18"/>
<text text-anchor="middle" x="1918.1" y="-391.8" font-family="Times,serif" font-size="14.00">pystar</text>
</g>
<!-- railsbridge&#45;&gt;pystar -->
<g id="edge50" class="edge"><title>railsbridge&#45;&gt;pystar</title>
<path fill="none" stroke="black" d="M1905.97,-450.813C1907.78,-442.789 1909.98,-433.047 1912,-424.069"/>
<polygon fill="black" stroke="black" points="1915.48,-424.554 1914.26,-414.029 1908.65,-423.015 1915.48,-424.554"/>
</g>
<!-- open source boobs project -->
<g id="node39" class="node"><title>open source boobs project</title>
<polygon fill="none" stroke="black" points="1348.1,-487 1202.65,-469 1348.1,-451 1493.56,-469 1348.1,-487"/>
<text text-anchor="middle" x="1348.1" y="-464.8" font-family="Times,serif" font-size="14.00">open source boobs project</text>
</g>
<!-- open source boobs project&#45;&gt;backupproject -->
<g id="edge21" class="edge"><title>open source boobs project&#45;&gt;backupproject</title>
<path fill="none" stroke="black" d="M1493.55,-469C1501.86,-469 1510.18,-469 1518.49,-469"/>
<polygon fill="black" stroke="black" points="1518.63,-472.5 1528.63,-469 1518.63,-465.5 1518.63,-472.5"/>
</g>
<!-- backupribbons -->
<g id="node43" class="node"><title>backupribbons</title>
<ellipse fill="none" stroke="black" cx="1587.1" cy="-396" rx="62.3494" ry="18"/>
<text text-anchor="middle" x="1587.1" y="-391.8" font-family="Times,serif" font-size="14.00">backupribbons</text>
</g>
<!-- backupproject&#45;&gt;backupribbons -->
<g id="edge23" class="edge"><title>backupproject&#45;&gt;backupribbons</title>
<path fill="none" stroke="black" d="M1588.62,-450.813C1588.39,-442.789 1588.12,-433.047 1587.86,-424.069"/>
<polygon fill="black" stroke="black" points="1591.36,-423.926 1587.58,-414.029 1584.36,-424.123 1591.36,-423.926"/>
</g>
<!-- osbridge -->
<g id="node41" class="node"><title>osbridge</title>
<ellipse fill="none" stroke="black" cx="655.102" cy="-469" rx="40.6248" ry="18"/>
<text text-anchor="middle" x="655.102" y="-464.8" font-family="Times,serif" font-size="14.00">osbridge</text>
</g>
<!-- apachecon assault -->
<g id="node42" class="node"><title>apachecon assault</title>
<polygon fill="none" stroke="black" points="894.102,-414 789.648,-396 894.102,-378 998.556,-396 894.102,-414"/>
<text text-anchor="middle" x="894.102" y="-391.8" font-family="Times,serif" font-size="14.00">apachecon assault</text>
</g>
<!-- apachecon assault&#45;&gt;adainitiative -->
<g id="edge14" class="edge"><title>apachecon assault&#45;&gt;adainitiative</title>
<path fill="none" stroke="black" d="M890.545,-378.404C888.088,-366.935 884.762,-351.418 881.922,-338.163"/>
<polygon fill="black" stroke="black" points="885.292,-337.183 879.774,-328.138 878.447,-338.649 885.292,-337.183"/>
</g>
<!-- apachecon assault&#45;&gt;GF/TAI AHP -->
<g id="edge17" class="edge"><title>apachecon assault&#45;&gt;GF/TAI AHP</title>
<path fill="none" stroke="black" d="M936.444,-385.282C1002.94,-370.021 1131.82,-340.441 1205.3,-323.577"/>
<polygon fill="black" stroke="black" points="1206.33,-326.933 1215.29,-321.285 1204.76,-320.11 1206.33,-326.933"/>
</g>
<!-- adainitiative&#45;&gt;GF/TAI AHP -->
<g id="edge19" class="edge"><title>adainitiative&#45;&gt;GF/TAI AHP</title>
<path fill="none" stroke="black" d="M911.215,-323.643C968.3,-343.896 1084.47,-377.072 1180.1,-353 1196.91,-348.769 1214.03,-340.244 1228.1,-331.892"/>
<polygon fill="black" stroke="black" points="1230.2,-334.708 1236.87,-326.475 1226.53,-328.752 1230.2,-334.708"/>
</g>
<!-- adainitiative&#45;&gt;adacamp -->
<g id="edge28" class="edge"><title>adainitiative&#45;&gt;adacamp</title>
<path fill="none" stroke="black" d="M876.102,-291.813C876.102,-283.789 876.102,-274.047 876.102,-265.069"/>
<polygon fill="black" stroke="black" points="879.602,-265.029 876.102,-255.029 872.602,-265.029 879.602,-265.029"/>
</g>
<!-- Skeptic AHPs -->
<g id="node50" class="node"><title>Skeptic AHPs</title>
<ellipse fill="none" stroke="black" cx="1173.1" cy="-237" rx="59.4858" ry="18"/>
<text text-anchor="middle" x="1173.1" y="-232.8" font-family="Times,serif" font-size="14.00">Skeptic AHPs</text>
</g>
<!-- GF/TAI AHP&#45;&gt;Skeptic AHPs -->
<g id="edge25" class="edge"><title>GF/TAI AHP&#45;&gt;Skeptic AHPs</title>
<path fill="none" stroke="black" d="M1240.36,-292.889C1228.68,-283.357 1213.7,-271.136 1200.85,-260.645"/>
<polygon fill="black" stroke="black" points="1202.73,-257.658 1192.77,-254.047 1198.3,-263.082 1202.73,-257.658"/>
</g>
<!-- PyCon AHP -->
<g id="node51" class="node"><title>PyCon AHP</title>
<ellipse fill="none" stroke="black" cx="1342.1" cy="-237" rx="53.7149" ry="18"/>
<text text-anchor="middle" x="1342.1" y="-232.8" font-family="Times,serif" font-size="14.00">PyCon AHP</text>
</g>
<!-- GF/TAI AHP&#45;&gt;PyCon AHP -->
<g id="edge24" class="edge"><title>GF/TAI AHP&#45;&gt;PyCon AHP</title>
<path fill="none" stroke="black" d="M1278.71,-292.889C1289.72,-283.357 1303.83,-271.136 1315.95,-260.645"/>
<polygon fill="black" stroke="black" points="1318.3,-263.239 1323.57,-254.047 1313.72,-257.947 1318.3,-263.239"/>
</g>
<!-- Scalzi&#39;s AHP pledge -->
<g id="node60" class="node"><title>Scalzi&#39;s AHP pledge</title>
<ellipse fill="none" stroke="black" cx="1432.1" cy="-164" rx="81.7552" ry="18"/>
<text text-anchor="middle" x="1432.1" y="-159.8" font-family="Times,serif" font-size="14.00">Scalzi&#39;s AHP pledge</text>
</g>
<!-- GF/TAI AHP&#45;&gt;Scalzi&#39;s AHP pledge -->
<g id="edge27" class="edge"><title>GF/TAI AHP&#45;&gt;Scalzi&#39;s AHP pledge</title>
<path fill="none" stroke="black" d="M1311.09,-301.716C1342.2,-294.73 1380.58,-281.169 1405.1,-255 1421.01,-238.026 1427.57,-212.038 1430.26,-192.344"/>
<polygon fill="black" stroke="black" points="1433.77,-192.473 1431.4,-182.148 1426.81,-191.7 1433.77,-192.473"/>
<text text-anchor="middle" x="1428.21" y="-232.8" font-family="Times,serif" font-size="14.00">?</text>
</g>
<!-- #CoCPledge -->
<g id="node65" class="node"><title>#CoCPledge</title>
<ellipse fill="none" stroke="black" cx="1260.1" cy="-91" rx="54.6334" ry="18"/>
<text text-anchor="middle" x="1260.1" y="-86.8" font-family="Times,serif" font-size="14.00">#CoCPledge</text>
</g>
<!-- GF/TAI AHP&#45;&gt;#CoCPledge -->
<g id="edge26" class="edge"><title>GF/TAI AHP&#45;&gt;#CoCPledge</title>
<path fill="none" stroke="black" d="M1260.1,-291.972C1260.1,-254.511 1260.1,-164.676 1260.1,-119.264"/>
<polygon fill="black" stroke="black" points="1263.6,-119.249 1260.1,-109.249 1256.6,-119.249 1263.6,-119.249"/>
</g>
<!-- blackgirlscode -->
<g id="node47" class="node"><title>blackgirlscode</title>
<ellipse fill="none" stroke="black" cx="2068.1" cy="-310" rx="61.8476" ry="18"/>
<text text-anchor="middle" x="2068.1" y="-305.8" font-family="Times,serif" font-size="14.00">blackgirlscode</text>
</g>
<!-- adacamp&#45;&gt;osbridge -->
<g id="edge30" class="edge"><title>adacamp&#45;&gt;osbridge</title>
<path fill="none" stroke="black" d="M843.593,-248.266C785.159,-267.45 666.306,-310.049 643.355,-346 625.06,-374.659 634.18,-415.072 643.619,-441.401"/>
<polygon fill="black" stroke="black" points="640.483,-442.997 647.331,-451.08 647.018,-440.49 640.483,-442.997"/>
<text text-anchor="middle" x="680.975" y="-348.8" font-family="Times,serif" font-size="14.00">a11y policies</text>
</g>
<!-- adacamp&#45;&gt;doubleunion -->
<g id="edge36" class="edge"><title>adacamp&#45;&gt;doubleunion</title>
<path fill="none" stroke="black" d="M848.042,-223.47C822.891,-212.239 785.703,-195.633 757.379,-182.985"/>
<polygon fill="black" stroke="black" points="758.701,-179.743 748.143,-178.861 755.847,-186.135 758.701,-179.743"/>
</g>
<!-- railsgirls&#45;&gt;rgsoc -->
<g id="edge52" class="edge"><title>railsgirls&#45;&gt;rgsoc</title>
<path fill="none" stroke="black" d="M1894.23,-219.533C1900.32,-210.534 1907.97,-199.22 1914.72,-189.233"/>
<polygon fill="black" stroke="black" points="1917.66,-191.134 1920.36,-180.89 1911.86,-187.214 1917.66,-191.134"/>
</g>
<!-- Feminist Frequency vids -->
<g id="node52" class="node"><title>Feminist Frequency vids</title>
<ellipse fill="none" stroke="black" cx="2104.1" cy="-237" rx="97.6053" ry="18"/>
<text text-anchor="middle" x="2104.1" y="-232.8" font-family="Times,serif" font-size="14.00">Feminist Frequency vids</text>
</g>
<!-- transcodesf -->
<g id="node53" class="node"><title>transcodesf</title>
<ellipse fill="none" stroke="black" cx="2270.1" cy="-237" rx="50.2551" ry="18"/>
<text text-anchor="middle" x="2270.1" y="-232.8" font-family="Times,serif" font-size="14.00">transcodesf</text>
</g>
<!-- libtechwomen -->
<g id="node54" class="node"><title>libtechwomen</title>
<ellipse fill="none" stroke="black" cx="2399.1" cy="-237" rx="60.4115" ry="18"/>
<text text-anchor="middle" x="2399.1" y="-232.8" font-family="Times,serif" font-size="14.00">libtechwomen</text>
</g>
<!-- anarchafeminist hacker hive&#45;&gt;doubleunion -->
<g id="edge35" class="edge"><title>anarchafeminist hacker hive&#45;&gt;doubleunion</title>
<path fill="none" stroke="black" d="M503.512,-221.375C551.227,-208.781 619.538,-190.751 665.967,-178.497"/>
<polygon fill="black" stroke="black" points="667.041,-181.833 675.816,-175.897 665.254,-175.065 667.041,-181.833"/>
</g>
<!-- seattleattic&#45;&gt;doubleunion -->
<g id="edge39" class="edge"><title>seattleattic&#45;&gt;doubleunion</title>
<path fill="none" stroke="black" d="M627.078,-164C635.495,-164 643.912,-164 652.329,-164"/>
<polygon fill="black" stroke="black" points="652.595,-167.5 662.595,-164 652.595,-160.5 652.595,-167.5"/>
</g>
<!-- callbackwomen -->
<g id="node59" class="node"><title>callbackwomen</title>
<ellipse fill="none" stroke="black" cx="2044.1" cy="-164" rx="65.6976" ry="18"/>
<text text-anchor="middle" x="2044.1" y="-159.8" font-family="Times,serif" font-size="14.00">callbackwomen</text>
</g>
<!-- transh4ck -->
<g id="node61" class="node"><title>transh4ck</title>
<ellipse fill="none" stroke="black" cx="2172.1" cy="-164" rx="44.475" ry="18"/>
<text text-anchor="middle" x="2172.1" y="-159.8" font-family="Times,serif" font-size="14.00">transh4ck</text>
</g>
<!-- transtech -->
<g id="node62" class="node"><title>transtech</title>
<ellipse fill="none" stroke="black" cx="2294.1" cy="-164" rx="42.0524" ry="18"/>
<text text-anchor="middle" x="2294.1" y="-159.8" font-family="Times,serif" font-size="14.00">transtech</text>
</g>
<!-- transh4ck&#45;&gt;transtech -->
<g id="edge60" class="edge"><title>transh4ck&#45;&gt;transtech</title>
<path fill="none" stroke="black" d="M2216.9,-164C2225.19,-164 2233.48,-164 2241.77,-164"/>
<polygon fill="black" stroke="black" points="2241.88,-167.5 2251.88,-164 2241.88,-160.5 2241.88,-167.5"/>
</g>
<!-- females in hackerspaces email -->
<g id="node63" class="node"><title>females in hackerspaces email</title>
<polygon fill="none" stroke="black" points="330.102,-182 164.036,-164 330.102,-146 496.167,-164 330.102,-182"/>
<text text-anchor="middle" x="330.102" y="-159.8" font-family="Times,serif" font-size="14.00">females in hackerspaces email</text>
</g>
<!-- females in hackerspaces email&#45;&gt;seattleattic -->
<g id="edge31" class="edge"><title>females in hackerspaces email&#45;&gt;seattleattic</title>
<path fill="none" stroke="black" d="M496.426,-164C504.525,-164 512.624,-164 520.723,-164"/>
<polygon fill="black" stroke="black" points="520.982,-167.5 530.982,-164 520.982,-160.5 520.982,-167.5"/>
</g>
<!-- females in hackerspaces email&#45;&gt;doubleunion -->
<g id="edge32" class="edge"><title>females in hackerspaces email&#45;&gt;doubleunion</title>
<path fill="none" stroke="black" d="M372.202,-177.453C430.028,-194.053 537.105,-218.055 627.102,-200.5 644.507,-197.105 662.801,-190.339 678.316,-183.545"/>
<polygon fill="black" stroke="black" points="679.923,-186.659 687.585,-179.341 677.032,-180.284 679.923,-186.659"/>
</g>
<!-- mvc -->
<g id="node64" class="node"><title>mvc</title>
<ellipse fill="none" stroke="black" cx="1360.1" cy="-91" rx="27" ry="18"/>
<text text-anchor="middle" x="1360.1" y="-86.8" font-family="Times,serif" font-size="14.00">mvc</text>
</g>
<!-- mothershiphackermoms -->
<g id="node66" class="node"><title>mothershiphackermoms</title>
<ellipse fill="none" stroke="black" cx="717.102" cy="-237" rx="95.1654" ry="18"/>
<text text-anchor="middle" x="717.102" y="-232.8" font-family="Times,serif" font-size="14.00">mothershiphackermoms</text>
</g>
<!-- mothershiphackermoms&#45;&gt;doubleunion -->
<g id="edge38" class="edge"><title>mothershiphackermoms&#45;&gt;doubleunion</title>
<path fill="none" stroke="black" d="M717.102,-218.813C717.102,-210.789 717.102,-201.047 717.102,-192.069"/>
<polygon fill="black" stroke="black" points="720.602,-192.029 717.102,-182.029 713.602,-192.029 720.602,-192.029"/>
</g>
</g>
</svg>
