<?xml version="1.0" encoding="UTF-8" standalone="no"?>
<!DOCTYPE svg PUBLIC "-//W3C//DTD SVG 1.1//EN"
 "http://www.w3.org/Graphics/SVG/1.1/DTD/svg11.dtd">
<!-- Generated by graphviz version 2.26.3 (20100126.1600)
 -->
<!-- Title: GeekFeminismFamilyTree Pages: 1 -->
<svg width="2195pt" height="872pt"
 viewBox="0.00 0.00 2195.00 872.00" xmlns="http://www.w3.org/2000/svg" xmlns:xlink="http://www.w3.org/1999/xlink">
<g id="graph1" class="graph" transform="scale(1 1) rotate(0) translate(4 868)">
<title>GeekFeminismFamilyTree</title>
<polygon fill="white" stroke="white" points="-4,5 -4,-868 2192,-868 2192,5 -4,5"/>
<!-- past -->
<g id="node2" class="node"><title>past</title>
<text text-anchor="middle" x="53" y="-840.1" font-family="Times,serif" font-size="16.00">past</text>
</g>
<!-- 2000&#45;2003 -->
<g id="node4" class="node"><title>2000&#45;2003</title>
<text text-anchor="middle" x="53" y="-766.1" font-family="Times,serif" font-size="16.00">2000&#45;2003</text>
</g>
<!-- past&#45;&gt;2000&#45;2003 -->
<g id="edge3" class="edge"><title>past&#45;&gt;2000&#45;2003</title>
<path fill="none" stroke="black" d="M53,-827.708C53,-819.464 53,-809.538 53,-800.362"/>
<polygon fill="black" stroke="black" points="56.5001,-800.082 53,-790.082 49.5001,-800.082 56.5001,-800.082"/>
</g>
<!-- 2004&#45;2006 -->
<g id="node5" class="node"><title>2004&#45;2006</title>
<text text-anchor="middle" x="53" y="-692.1" font-family="Times,serif" font-size="16.00">2004&#45;2006</text>
</g>
<!-- 2000&#45;2003&#45;&gt;2004&#45;2006 -->
<g id="edge4" class="edge"><title>2000&#45;2003&#45;&gt;2004&#45;2006</title>
<path fill="none" stroke="black" d="M53,-753.708C53,-745.464 53,-735.538 53,-726.362"/>
<polygon fill="black" stroke="black" points="56.5001,-726.082 53,-716.082 49.5001,-726.082 56.5001,-726.082"/>
</g>
<!-- 2007 -->
<g id="node6" class="node"><title>2007</title>
<text text-anchor="middle" x="53" y="-618.1" font-family="Times,serif" font-size="16.00">2007</text>
</g>
<!-- 2004&#45;2006&#45;&gt;2007 -->
<g id="edge5" class="edge"><title>2004&#45;2006&#45;&gt;2007</title>
<path fill="none" stroke="black" d="M53,-679.708C53,-671.464 53,-661.538 53,-652.362"/>
<polygon fill="black" stroke="black" points="56.5001,-652.082 53,-642.082 49.5001,-652.082 56.5001,-652.082"/>
</g>
<!-- 2008 -->
<g id="node7" class="node"><title>2008</title>
<text text-anchor="middle" x="53" y="-544.1" font-family="Times,serif" font-size="16.00">2008</text>
</g>
<!-- 2007&#45;&gt;2008 -->
<g id="edge6" class="edge"><title>2007&#45;&gt;2008</title>
<path fill="none" stroke="black" d="M53,-605.708C53,-597.464 53,-587.538 53,-578.362"/>
<polygon fill="black" stroke="black" points="56.5001,-578.082 53,-568.082 49.5001,-578.082 56.5001,-578.082"/>
</g>
<!-- 2009 -->
<g id="node8" class="node"><title>2009</title>
<text text-anchor="middle" x="53" y="-470.1" font-family="Times,serif" font-size="16.00">2009</text>
</g>
<!-- 2008&#45;&gt;2009 -->
<g id="edge7" class="edge"><title>2008&#45;&gt;2009</title>
<path fill="none" stroke="black" d="M53,-531.708C53,-523.464 53,-513.538 53,-504.362"/>
<polygon fill="black" stroke="black" points="56.5001,-504.082 53,-494.082 49.5001,-504.082 56.5001,-504.082"/>
</g>
<!-- 2010 -->
<g id="node9" class="node"><title>2010</title>
<text text-anchor="middle" x="53" y="-396.1" font-family="Times,serif" font-size="16.00">2010</text>
</g>
<!-- 2009&#45;&gt;2010 -->
<g id="edge8" class="edge"><title>2009&#45;&gt;2010</title>
<path fill="none" stroke="black" d="M53,-457.708C53,-449.464 53,-439.538 53,-430.362"/>
<polygon fill="black" stroke="black" points="56.5001,-430.082 53,-420.082 49.5001,-430.082 56.5001,-430.082"/>
</g>
<!-- 2011 -->
<g id="node10" class="node"><title>2011</title>
<text text-anchor="middle" x="53" y="-308.1" font-family="Times,serif" font-size="16.00">2011</text>
</g>
<!-- 2010&#45;&gt;2011 -->
<g id="edge9" class="edge"><title>2010&#45;&gt;2011</title>
<path fill="none" stroke="black" d="M53,-383.766C53,-371.849 53,-356.038 53,-342.482"/>
<polygon fill="black" stroke="black" points="56.5001,-342.21 53,-332.21 49.5001,-342.21 56.5001,-342.21"/>
</g>
<!-- 2012 -->
<g id="node11" class="node"><title>2012</title>
<text text-anchor="middle" x="53" y="-234.1" font-family="Times,serif" font-size="16.00">2012</text>
</g>
<!-- 2011&#45;&gt;2012 -->
<g id="edge10" class="edge"><title>2011&#45;&gt;2012</title>
<path fill="none" stroke="black" d="M53,-295.708C53,-287.464 53,-277.538 53,-268.362"/>
<polygon fill="black" stroke="black" points="56.5001,-268.082 53,-258.082 49.5001,-268.082 56.5001,-268.082"/>
</g>
<!-- 2013 -->
<g id="node12" class="node"><title>2013</title>
<text text-anchor="middle" x="53" y="-160.1" font-family="Times,serif" font-size="16.00">2013</text>
</g>
<!-- 2012&#45;&gt;2013 -->
<g id="edge11" class="edge"><title>2012&#45;&gt;2013</title>
<path fill="none" stroke="black" d="M53,-221.708C53,-213.464 53,-203.538 53,-194.362"/>
<polygon fill="black" stroke="black" points="56.5001,-194.082 53,-184.082 49.5001,-194.082 56.5001,-194.082"/>
</g>
<!-- 2014 -->
<g id="node13" class="node"><title>2014</title>
<text text-anchor="middle" x="53" y="-86.1" font-family="Times,serif" font-size="16.00">2014</text>
</g>
<!-- 2013&#45;&gt;2014 -->
<g id="edge12" class="edge"><title>2013&#45;&gt;2014</title>
<path fill="none" stroke="black" d="M53,-147.708C53,-139.464 53,-129.538 53,-120.362"/>
<polygon fill="black" stroke="black" points="56.5001,-120.082 53,-110.082 49.5001,-120.082 56.5001,-120.082"/>
</g>
<!-- unknowndate -->
<g id="node14" class="node"><title>unknowndate</title>
<text text-anchor="middle" x="53" y="-12.1" font-family="Times,serif" font-size="16.00">unknowndate</text>
</g>
<!-- 2014&#45;&gt;unknowndate -->
<g id="edge13" class="edge"><title>2014&#45;&gt;unknowndate</title>
<path fill="none" stroke="black" d="M53,-73.7079C53,-65.4635 53,-55.5376 53,-46.3622"/>
<polygon fill="black" stroke="black" points="56.5001,-46.0817 53,-36.0817 49.5001,-46.0818 56.5001,-46.0817"/>
</g>
<!-- livejournal -->
<g id="node16" class="node"><title>livejournal</title>
<polygon fill="none" stroke="black" points="243,-864 165,-864 165,-828 243,-828 243,-864"/>
<text text-anchor="middle" x="204" y="-840.9" font-family="Times,serif" font-size="14.00">livejournal</text>
</g>
<!-- dreamwidth -->
<g id="node36" class="node"><title>dreamwidth</title>
<ellipse fill="none" stroke="black" cx="154" cy="-550" rx="55.895" ry="18"/>
<text text-anchor="middle" x="154" y="-544.9" font-family="Times,serif" font-size="14.00">dreamwidth</text>
</g>
<!-- livejournal&#45;&gt;dreamwidth -->
<g id="edge102" class="edge"><title>livejournal&#45;&gt;dreamwidth</title>
<path fill="none" stroke="black" d="M196.6,-827.782C191.265,-813.004 185,-791.498 185,-772 185,-772 185,-772 185,-624 185,-607.364 178.252,-590.143 171.053,-576.505"/>
<polygon fill="black" stroke="black" points="174.038,-574.673 166.074,-567.686 167.943,-578.115 174.038,-574.673"/>
</g>
<!-- otw -->
<g id="node37" class="node"><title>otw</title>
<ellipse fill="none" stroke="black" cx="255" cy="-550" rx="27" ry="18"/>
<text text-anchor="middle" x="255" y="-544.9" font-family="Times,serif" font-size="14.00">otw</text>
</g>
<!-- livejournal&#45;&gt;otw -->
<g id="edge104" class="edge"><title>livejournal&#45;&gt;otw</title>
<path fill="none" stroke="black" d="M218.034,-827.95C227.771,-813.611 239,-792.607 239,-772 239,-772 239,-772 239,-624 239,-608.393 242.442,-591.345 246.133,-577.55"/>
<polygon fill="black" stroke="black" points="249.562,-578.289 248.951,-567.712 242.832,-576.361 249.562,-578.289"/>
</g>
<!-- wiscon -->
<g id="node17" class="node"><title>wiscon</title>
<ellipse fill="none" stroke="black" cx="614" cy="-846" rx="37.194" ry="18"/>
<text text-anchor="middle" x="614" y="-840.9" font-family="Times,serif" font-size="14.00">wiscon</text>
</g>
<!-- racefail -->
<g id="node40" class="node"><title>racefail</title>
<polygon fill="none" stroke="black" points="1136,-494 1080.85,-476 1136,-458 1191.15,-476 1136,-494"/>
<text text-anchor="middle" x="1136" y="-470.9" font-family="Times,serif" font-size="14.00">racefail</text>
</g>
<!-- wiscon&#45;&gt;racefail -->
<g id="edge100" class="edge"><title>wiscon&#45;&gt;racefail</title>
<path fill="none" stroke="black" d="M651.095,-845.29C780.917,-842.32 1207,-828.284 1207,-772 1207,-772 1207,-772 1207,-550 1207,-524.988 1185.62,-505.143 1166.32,-492.326"/>
<polygon fill="black" stroke="black" points="1168.02,-489.262 1157.69,-486.938 1164.32,-495.201 1168.02,-489.262"/>
</g>
<!-- adacamp -->
<g id="node55" class="node"><title>adacamp</title>
<ellipse fill="none" stroke="black" cx="469" cy="-240" rx="43.0456" ry="18"/>
<text text-anchor="middle" x="469" y="-234.9" font-family="Times,serif" font-size="14.00">adacamp</text>
</g>
<!-- wiscon&#45;&gt;adacamp -->
<g id="edge62" class="edge"><title>wiscon&#45;&gt;adacamp</title>
<path fill="none" stroke="black" d="M600.294,-828.788C576.72,-797.393 531,-727.885 531,-661 531,-661 531,-661 531,-314 531,-292.877 515.973,-274.616 500.715,-261.52"/>
<polygon fill="black" stroke="black" points="502.781,-258.69 492.794,-255.154 498.396,-264.146 502.781,-258.69"/>
<text text-anchor="middle" x="570" y="-544.9" font-family="Times,serif" font-size="14.00">a11y policies</text>
</g>
<!-- linuxconfau -->
<g id="node18" class="node"><title>linuxconfau</title>
<polygon fill="none" stroke="black" points="548,-864 464,-864 464,-828 548,-828 548,-864"/>
<text text-anchor="middle" x="506" y="-840.9" font-family="Times,serif" font-size="14.00">linuxconfau</text>
</g>
<!-- haecksen -->
<g id="node31" class="node"><title>haecksen</title>
<ellipse fill="none" stroke="black" cx="459" cy="-624" rx="44.1961" ry="18"/>
<text text-anchor="middle" x="459" y="-618.9" font-family="Times,serif" font-size="14.00">haecksen</text>
</g>
<!-- linuxconfau&#45;&gt;haecksen -->
<g id="edge86" class="edge"><title>linuxconfau&#45;&gt;haecksen</title>
<path fill="none" stroke="black" d="M502.154,-827.833C493.957,-789.116 474.72,-698.253 464.938,-652.046"/>
<polygon fill="black" stroke="black" points="468.329,-651.165 462.833,-642.107 461.481,-652.615 468.329,-651.165"/>
</g>
<!-- adainitiative -->
<g id="node50" class="node"><title>adainitiative</title>
<ellipse fill="none" stroke="black" cx="691" cy="-314" rx="57.1949" ry="18"/>
<text text-anchor="middle" x="691" y="-308.9" font-family="Times,serif" font-size="14.00">adainitiative</text>
</g>
<!-- linuxconfau&#45;&gt;adainitiative -->
<g id="edge36" class="edge"><title>linuxconfau&#45;&gt;adainitiative</title>
<path fill="none" stroke="black" d="M518.799,-827.854C551.762,-779.284 637,-641.288 637,-513 637,-513 637,-513 637,-402 637,-378.124 651.62,-355.269 665.645,-338.838"/>
<polygon fill="black" stroke="black" points="668.33,-341.086 672.416,-331.311 663.126,-336.404 668.33,-341.086"/>
</g>
<!-- linuxchix -->
<g id="node20" class="node"><title>linuxchix</title>
<ellipse fill="none" stroke="black" cx="698" cy="-772" rx="46.1459" ry="18"/>
<text text-anchor="middle" x="698" y="-766.9" font-family="Times,serif" font-size="14.00">linuxchix</text>
</g>
<!-- debianwomen -->
<g id="node26" class="node"><title>debianwomen</title>
<ellipse fill="none" stroke="black" cx="698" cy="-698" rx="63.1928" ry="18"/>
<text text-anchor="middle" x="698" y="-692.9" font-family="Times,serif" font-size="14.00">debianwomen</text>
</g>
<!-- linuxchix&#45;&gt;debianwomen -->
<g id="edge72" class="edge"><title>linuxchix&#45;&gt;debianwomen</title>
<path fill="none" stroke="black" d="M698,-753.708C698,-745.464 698,-735.538 698,-726.362"/>
<polygon fill="black" stroke="black" points="701.5,-726.082 698,-716.082 694.5,-726.082 701.5,-726.082"/>
</g>
<!-- linuxchix&#45;&gt;haecksen -->
<g id="edge84" class="edge"><title>linuxchix&#45;&gt;haecksen</title>
<path fill="none" stroke="black" d="M673.323,-756.719C630.096,-729.951 540.669,-674.573 492.113,-644.505"/>
<polygon fill="black" stroke="black" points="493.887,-641.487 483.543,-639.198 490.202,-647.439 493.887,-641.487"/>
</g>
<!-- geekfeminism -->
<g id="node35" class="node"><title>geekfeminism</title>
<ellipse fill="none" stroke="black" cx="1026" cy="-550" rx="63.8455" ry="18"/>
<text text-anchor="middle" x="1026" y="-544.9" font-family="Times,serif" font-size="14.00">geekfeminism</text>
</g>
<!-- linuxchix&#45;&gt;geekfeminism -->
<g id="edge28" class="edge"><title>linuxchix&#45;&gt;geekfeminism</title>
<path fill="none" stroke="black" d="M743.871,-769.704C853.455,-763.75 1123.36,-746.144 1150,-716 1193.15,-667.178 1113.17,-604.344 1062.69,-571.765"/>
<polygon fill="black" stroke="black" points="1064.27,-568.624 1053.95,-566.234 1060.53,-574.539 1064.27,-568.624"/>
</g>
<!-- gsoc -->
<g id="node22" class="node"><title>gsoc</title>
<polygon fill="none" stroke="black" points="1575,-716 1521,-716 1521,-680 1575,-680 1575,-716"/>
<text text-anchor="middle" x="1548" y="-692.9" font-family="Times,serif" font-size="14.00">gsoc</text>
</g>
<!-- opw -->
<g id="node23" class="node"><title>opw</title>
<ellipse fill="none" stroke="black" cx="1114" cy="-698" rx="27" ry="18"/>
<text text-anchor="middle" x="1114" y="-692.9" font-family="Times,serif" font-size="14.00">opw</text>
</g>
<!-- gsoc&#45;&gt;opw -->
<g id="edge82" class="edge"><title>gsoc&#45;&gt;opw</title>
<path fill="none" stroke="black" d="M1520.98,-698C1397.7,-698 1274.42,-698 1151.14,-698"/>
<polygon fill="black" stroke="black" points="1151.13,-694.5 1141.12,-698 1151.12,-701.5 1151.13,-694.5"/>
</g>
<!-- rgsoc -->
<g id="node64" class="node"><title>rgsoc</title>
<ellipse fill="none" stroke="black" cx="1762" cy="-166" rx="31.1972" ry="18"/>
<text text-anchor="middle" x="1762" y="-160.9" font-family="Times,serif" font-size="14.00">rgsoc</text>
</g>
<!-- gsoc&#45;&gt;rgsoc -->
<g id="edge98" class="edge"><title>gsoc&#45;&gt;rgsoc</title>
<path fill="none" stroke="black" d="M1575.45,-695.794C1640.76,-689.79 1800,-670.395 1800,-624 1800,-624 1800,-624 1800,-240 1800,-222.111 1791.1,-204.209 1781.92,-190.494"/>
<polygon fill="black" stroke="black" points="1784.6,-188.225 1775.93,-182.129 1778.91,-192.298 1784.6,-188.225"/>
</g>
<!-- ubuntuwomen -->
<g id="node24" class="node"><title>ubuntuwomen</title>
<ellipse fill="none" stroke="black" cx="1006" cy="-698" rx="63.0444" ry="18"/>
<text text-anchor="middle" x="1006" y="-692.9" font-family="Times,serif" font-size="14.00">ubuntuwomen</text>
</g>
<!-- gnomewomen -->
<g id="node25" class="node"><title>gnomewomen</title>
<ellipse fill="none" stroke="black" cx="861" cy="-698" rx="63.8455" ry="18"/>
<text text-anchor="middle" x="861" y="-692.9" font-family="Times,serif" font-size="14.00">gnomewomen</text>
</g>
<!-- gnomewomen&#45;&gt;opw -->
<g id="edge80" class="edge"><title>gnomewomen&#45;&gt;opw</title>
<path fill="none" stroke="black" d="M889.194,-714.311C904.556,-722.26 924.219,-730.959 943,-735 997.747,-746.78 1016.28,-753.89 1069,-735 1077.62,-731.91 1085.78,-726.376 1092.71,-720.514"/>
<polygon fill="black" stroke="black" points="1095.24,-722.943 1100.25,-713.608 1090.52,-717.781 1095.24,-722.943"/>
</g>
<!-- debianwomen&#45;&gt;ubuntuwomen -->
<g id="edge74" class="edge"><title>debianwomen&#45;&gt;ubuntuwomen</title>
<path fill="none" stroke="black" d="M730.612,-713.559C749.525,-721.716 774.069,-730.855 797,-735 852.982,-745.119 869.412,-747.095 925,-735 940.097,-731.715 955.751,-725.356 969.227,-718.824"/>
<polygon fill="black" stroke="black" points="970.823,-721.939 978.174,-714.31 967.669,-715.689 970.823,-721.939"/>
</g>
<!-- debianwomen&#45;&gt;gnomewomen -->
<g id="edge76" class="edge"><title>debianwomen&#45;&gt;gnomewomen</title>
<path fill="none" stroke="black" d="M761.035,-698C769.642,-698 778.249,-698 786.856,-698"/>
<polygon fill="black" stroke="black" points="786.96,-701.5 796.96,-698 786.96,-694.5 786.96,-701.5"/>
</g>
<!-- girlgeekdinners -->
<g id="node27" class="node"><title>girlgeekdinners</title>
<polygon fill="none" stroke="black" points="1835,-716 1729,-716 1729,-680 1835,-680 1835,-716"/>
<text text-anchor="middle" x="1782" y="-692.9" font-family="Times,serif" font-size="14.00">girlgeekdinners</text>
</g>
<!-- blogher -->
<g id="node28" class="node"><title>blogher</title>
<ellipse fill="none" stroke="black" cx="1960" cy="-698" rx="39.1446" ry="18"/>
<text text-anchor="middle" x="1960" y="-692.9" font-family="Times,serif" font-size="14.00">blogher</text>
</g>
<!-- speakerswiki -->
<g id="node29" class="node"><title>speakerswiki</title>
<ellipse fill="none" stroke="black" cx="2128" cy="-698" rx="59.1448" ry="18"/>
<text text-anchor="middle" x="2128" y="-692.9" font-family="Times,serif" font-size="14.00">speakerswiki</text>
</g>
<!-- blogher&#45;&gt;speakerswiki -->
<g id="edge114" class="edge"><title>blogher&#45;&gt;speakerswiki</title>
<path fill="none" stroke="black" d="M1999.05,-698C2018.94,-698 2038.84,-698 2058.73,-698"/>
<polygon fill="black" stroke="black" points="2058.81,-701.5 2068.81,-698 2058.81,-694.5 2058.81,-701.5"/>
</g>
<!-- owoot -->
<g id="node52" class="node"><title>owoot</title>
<ellipse fill="none" stroke="black" cx="469" cy="-314" rx="33.9477" ry="18"/>
<text text-anchor="middle" x="469" y="-308.9" font-family="Times,serif" font-size="14.00">owoot</text>
</g>
<!-- haecksen&#45;&gt;owoot -->
<g id="edge78" class="edge"><title>haecksen&#45;&gt;owoot</title>
<path fill="none" stroke="black" d="M462.838,-605.846C465.658,-590.922 469,-569.187 469,-550 469,-550 469,-550 469,-402 469,-382.199 469,-359.891 469,-342.69"/>
<polygon fill="black" stroke="black" points="472.5,-342.202 469,-332.202 465.5,-342.202 472.5,-342.202"/>
</g>
<!-- haecksen&#45;&gt;adacamp -->
<g id="edge88" class="edge"><title>haecksen&#45;&gt;adacamp</title>
<path fill="none" stroke="black" d="M438.747,-607.731C424.146,-594.055 407,-573.082 407,-550 407,-550 407,-550 407,-314 407,-292.877 422.027,-274.616 437.285,-261.52"/>
<polygon fill="black" stroke="black" points="439.604,-264.146 445.206,-255.154 435.219,-258.69 439.604,-264.146"/>
</g>
<!-- shesgeeky -->
<g id="node32" class="node"><title>shesgeeky</title>
<ellipse fill="none" stroke="black" cx="2128" cy="-624" rx="48.8967" ry="18"/>
<text text-anchor="middle" x="2128" y="-618.9" font-family="Times,serif" font-size="14.00">shesgeeky</text>
</g>
<!-- shesgeeky&#45;&gt;speakerswiki -->
<g id="edge116" class="edge"><title>shesgeeky&#45;&gt;speakerswiki</title>
<path fill="none" stroke="black" d="M2128,-642.082C2128,-650.387 2128,-660.431 2128,-669.702"/>
<polygon fill="black" stroke="black" points="2124.5,-669.708 2128,-679.708 2131.5,-669.708 2124.5,-669.708"/>
</g>
<!-- SFF CAHP -->
<g id="node34" class="node"><title>SFF CAHP</title>
<ellipse fill="none" stroke="black" cx="1395" cy="-550" rx="53.9452" ry="18"/>
<text text-anchor="middle" x="1395" y="-544.9" font-family="Times,serif" font-size="14.00">SFF CAHP</text>
</g>
<!-- backupproject -->
<g id="node44" class="node"><title>backupproject</title>
<ellipse fill="none" stroke="black" cx="1710" cy="-476" rx="61.8953" ry="18"/>
<text text-anchor="middle" x="1710" y="-470.9" font-family="Times,serif" font-size="14.00">backupproject</text>
</g>
<!-- SFF CAHP&#45;&gt;backupproject -->
<g id="edge48" class="edge"><title>SFF CAHP&#45;&gt;backupproject</title>
<path fill="none" stroke="black" d="M1439.46,-539.555C1495.05,-526.497 1590.33,-504.113 1651.71,-489.694"/>
<polygon fill="black" stroke="black" points="1652.7,-493.057 1661.63,-487.363 1651.09,-486.243 1652.7,-493.057"/>
</g>
<!-- GF/TAI AHP -->
<g id="node51" class="node"><title>GF/TAI AHP</title>
<ellipse fill="none" stroke="black" cx="1026" cy="-314" rx="61.8953" ry="18"/>
<text text-anchor="middle" x="1026" y="-308.9" font-family="Times,serif" font-size="14.00">GF/TAI AHP</text>
</g>
<!-- SFF CAHP&#45;&gt;GF/TAI AHP -->
<g id="edge44" class="edge"><title>SFF CAHP&#45;&gt;GF/TAI AHP</title>
<path fill="none" stroke="black" d="M1354.71,-537.993C1324.98,-528.276 1284.12,-513.086 1251,-494 1229.83,-481.799 1109.9,-383.365 1054.3,-337.439"/>
<polygon fill="black" stroke="black" points="1056.52,-334.734 1046.59,-331.061 1052.06,-340.13 1056.52,-334.734"/>
</g>
<!-- geekfeminism&#45;&gt;adainitiative -->
<g id="edge34" class="edge"><title>geekfeminism&#45;&gt;adainitiative</title>
<path fill="none" stroke="black" d="M985.368,-536.072C931.846,-516.315 836.713,-476.203 770,-420 743.037,-397.285 719.988,-363.665 705.864,-340.405"/>
<polygon fill="black" stroke="black" points="708.836,-338.554 700.723,-331.74 702.815,-342.126 708.836,-338.554"/>
</g>
<!-- geekfeminism&#45;&gt;GF/TAI AHP -->
<g id="edge40" class="edge"><title>geekfeminism&#45;&gt;GF/TAI AHP</title>
<path fill="none" stroke="black" d="M1026,-531.873C1026,-491.033 1026,-391.562 1026,-342.426"/>
<polygon fill="black" stroke="black" points="1029.5,-342.188 1026,-332.188 1022.5,-342.188 1029.5,-342.188"/>
</g>
<!-- oscon2009 -->
<g id="node39" class="node"><title>oscon2009</title>
<ellipse fill="none" stroke="black" cx="201" cy="-476" rx="51.9954" ry="18"/>
<text text-anchor="middle" x="201" y="-470.9" font-family="Times,serif" font-size="14.00">oscon2009</text>
</g>
<!-- dreamwidth&#45;&gt;oscon2009 -->
<g id="edge106" class="edge"><title>dreamwidth&#45;&gt;oscon2009</title>
<path fill="none" stroke="black" d="M165.377,-532.087C171.035,-523.179 177.984,-512.239 184.237,-502.393"/>
<polygon fill="black" stroke="black" points="187.32,-504.066 189.727,-493.748 181.412,-500.313 187.32,-504.066"/>
</g>
<!-- otw&#45;&gt;oscon2009 -->
<g id="edge108" class="edge"><title>otw&#45;&gt;oscon2009</title>
<path fill="none" stroke="black" d="M243.016,-533.577C236.2,-524.237 227.512,-512.331 219.807,-501.773"/>
<polygon fill="black" stroke="black" points="222.616,-499.684 213.894,-493.669 216.961,-503.81 222.616,-499.684"/>
</g>
<!-- oscon2009&#45;&gt;geekfeminism -->
<g id="edge110" class="edge"><title>oscon2009&#45;&gt;geekfeminism</title>
<path fill="none" stroke="black" d="M238.769,-488.506C246.389,-490.643 254.396,-492.616 262,-494 393.285,-517.897 788.201,-538.74 952.767,-546.632"/>
<polygon fill="black" stroke="black" points="952.64,-550.13 962.796,-547.111 952.974,-543.138 952.64,-550.13"/>
</g>
<!-- racefail&#45;&gt;geekfeminism -->
<g id="edge30" class="edge"><title>racefail&#45;&gt;geekfeminism</title>
<path fill="none" stroke="black" d="M1117.65,-488.344C1101.82,-498.996 1078.55,-514.65 1059.42,-527.519"/>
<polygon fill="black" stroke="black" points="1057.3,-524.722 1050.96,-533.208 1061.21,-530.53 1057.3,-524.722"/>
</g>
<!-- couchdb -->
<g id="node41" class="node"><title>couchdb</title>
<polygon fill="none" stroke="black" points="1319,-494 1259.76,-476 1319,-458 1378.24,-476 1319,-494"/>
<text text-anchor="middle" x="1319" y="-470.9" font-family="Times,serif" font-size="14.00">couchdb</text>
</g>
<!-- railsbridge -->
<g id="node42" class="node"><title>railsbridge</title>
<ellipse fill="none" stroke="black" cx="1465" cy="-476" rx="50.8469" ry="18"/>
<text text-anchor="middle" x="1465" y="-470.9" font-family="Times,serif" font-size="14.00">railsbridge</text>
</g>
<!-- couchdb&#45;&gt;railsbridge -->
<g id="edge90" class="edge"><title>couchdb&#45;&gt;railsbridge</title>
<path fill="none" stroke="black" d="M1378.03,-476C1386.57,-476 1395.12,-476 1403.67,-476"/>
<polygon fill="black" stroke="black" points="1403.7,-479.5 1413.7,-476 1403.7,-472.5 1403.7,-479.5"/>
</g>
<!-- railsgirls -->
<g id="node56" class="node"><title>railsgirls</title>
<ellipse fill="none" stroke="black" cx="1650" cy="-240" rx="44.1961" ry="18"/>
<text text-anchor="middle" x="1650" y="-234.9" font-family="Times,serif" font-size="14.00">railsgirls</text>
</g>
<!-- railsbridge&#45;&gt;railsgirls -->
<g id="edge94" class="edge"><title>railsbridge&#45;&gt;railsgirls</title>
<path fill="none" stroke="black" d="M1478.6,-458.646C1510.88,-417.475 1592.2,-313.733 1630.05,-265.451"/>
<polygon fill="black" stroke="black" points="1632.96,-267.409 1636.38,-257.379 1627.45,-263.09 1632.96,-267.409"/>
</g>
<!-- pystar -->
<g id="node108" class="node"><title>pystar</title>
<ellipse fill="none" stroke="black" cx="1465" cy="-402" rx="31.9972" ry="18"/>
<text text-anchor="middle" x="1465" y="-396.9" font-family="Times,serif" font-size="14.00">pystar</text>
</g>
<!-- railsbridge&#45;&gt;pystar -->
<g id="edge92" class="edge"><title>railsbridge&#45;&gt;pystar</title>
<path fill="none" stroke="black" d="M1465,-457.708C1465,-449.464 1465,-439.538 1465,-430.362"/>
<polygon fill="black" stroke="black" points="1468.5,-430.082 1465,-420.082 1461.5,-430.082 1468.5,-430.082"/>
</g>
<!-- osbp -->
<g id="node43" class="node"><title>osbp</title>
<polygon fill="none" stroke="black" points="1573,-494 1533.98,-476 1573,-458 1612.02,-476 1573,-494"/>
<text text-anchor="middle" x="1573" y="-470.9" font-family="Times,serif" font-size="14.00">osbp</text>
</g>
<!-- osbp&#45;&gt;backupproject -->
<g id="edge46" class="edge"><title>osbp&#45;&gt;backupproject</title>
<path fill="none" stroke="black" d="M1612.07,-476C1620.59,-476 1629.11,-476 1637.64,-476"/>
<polygon fill="black" stroke="black" points="1637.64,-479.5 1647.64,-476 1637.64,-472.5 1637.64,-479.5"/>
</g>
<!-- backupribbons -->
<g id="node48" class="node"><title>backupribbons</title>
<ellipse fill="none" stroke="black" cx="1709" cy="-402" rx="63.1928" ry="18"/>
<text text-anchor="middle" x="1709" y="-396.9" font-family="Times,serif" font-size="14.00">backupribbons</text>
</g>
<!-- backupproject&#45;&gt;backupribbons -->
<g id="edge50" class="edge"><title>backupproject&#45;&gt;backupribbons</title>
<path fill="none" stroke="black" d="M1709.75,-457.708C1709.64,-449.464 1709.51,-439.538 1709.38,-430.362"/>
<polygon fill="black" stroke="black" points="1712.88,-430.033 1709.24,-420.082 1705.88,-430.128 1712.88,-430.033"/>
</g>
<!-- osbridge -->
<g id="node45" class="node"><title>osbridge</title>
<ellipse fill="none" stroke="black" cx="314" cy="-476" rx="43.0456" ry="18"/>
<text text-anchor="middle" x="314" y="-470.9" font-family="Times,serif" font-size="14.00">osbridge</text>
</g>
<!-- apachecon assault -->
<g id="node47" class="node"><title>apachecon assault</title>
<polygon fill="none" stroke="black" points="887,-420 779.039,-402 887,-384 994.961,-402 887,-420"/>
<text text-anchor="middle" x="887" y="-396.9" font-family="Times,serif" font-size="14.00">apachecon assault</text>
</g>
<!-- apachecon assault&#45;&gt;adainitiative -->
<g id="edge32" class="edge"><title>apachecon assault&#45;&gt;adainitiative</title>
<path fill="none" stroke="black" d="M857.657,-388.826C824.578,-373.974 770.527,-349.706 732.986,-332.851"/>
<polygon fill="black" stroke="black" points="734.376,-329.638 723.82,-328.735 731.509,-336.024 734.376,-329.638"/>
</g>
<!-- apachecon assault&#45;&gt;GF/TAI AHP -->
<g id="edge38" class="edge"><title>apachecon assault&#45;&gt;GF/TAI AHP</title>
<path fill="none" stroke="black" d="M909.642,-387.665C931.8,-373.637 965.854,-352.078 991.405,-335.902"/>
<polygon fill="black" stroke="black" points="993.478,-338.732 1000.06,-330.426 989.734,-332.817 993.478,-338.732"/>
</g>
<!-- adainitiative&#45;&gt;GF/TAI AHP -->
<g id="edge42" class="edge"><title>adainitiative&#45;&gt;GF/TAI AHP</title>
<path fill="none" stroke="black" d="M748.251,-314C816.76,-314 885.269,-314 953.778,-314"/>
<polygon fill="black" stroke="black" points="953.886,-317.5 963.886,-314 953.886,-310.5 953.886,-317.5"/>
</g>
<!-- adainitiative&#45;&gt;adacamp -->
<g id="edge60" class="edge"><title>adainitiative&#45;&gt;adacamp</title>
<path fill="none" stroke="black" d="M651.567,-300.856C612.545,-287.848 552.954,-267.985 512.557,-254.519"/>
<polygon fill="black" stroke="black" points="513.572,-251.168 502.978,-251.326 511.358,-257.809 513.572,-251.168"/>
</g>
<!-- Skeptic AHPs -->
<g id="node57" class="node"><title>Skeptic AHPs</title>
<ellipse fill="none" stroke="black" cx="1071" cy="-240" rx="63.1928" ry="18"/>
<text text-anchor="middle" x="1071" y="-234.9" font-family="Times,serif" font-size="14.00">Skeptic AHPs</text>
</g>
<!-- GF/TAI AHP&#45;&gt;Skeptic AHPs -->
<g id="edge54" class="edge"><title>GF/TAI AHP&#45;&gt;Skeptic AHPs</title>
<path fill="none" stroke="black" d="M1036.89,-296.087C1042.31,-287.179 1048.96,-276.239 1054.95,-266.393"/>
<polygon fill="black" stroke="black" points="1058,-268.111 1060.21,-257.748 1052.02,-264.474 1058,-268.111"/>
</g>
<!-- PyCon AHP -->
<g id="node58" class="node"><title>PyCon AHP</title>
<ellipse fill="none" stroke="black" cx="1210" cy="-240" rx="57.8449" ry="18"/>
<text text-anchor="middle" x="1210" y="-234.9" font-family="Times,serif" font-size="14.00">PyCon AHP</text>
</g>
<!-- GF/TAI AHP&#45;&gt;PyCon AHP -->
<g id="edge52" class="edge"><title>GF/TAI AHP&#45;&gt;PyCon AHP</title>
<path fill="none" stroke="black" d="M1062.35,-299.38C1091.78,-287.547 1133.36,-270.821 1164.91,-258.135"/>
<polygon fill="black" stroke="black" points="1166.38,-261.316 1174.35,-254.338 1163.77,-254.822 1166.38,-261.316"/>
</g>
<!-- Scalzi&#39;s AHP pledge -->
<g id="node66" class="node"><title>Scalzi&#39;s AHP pledge</title>
<ellipse fill="none" stroke="black" cx="863" cy="-166" rx="89.0421" ry="18"/>
<text text-anchor="middle" x="863" y="-160.9" font-family="Times,serif" font-size="14.00">Scalzi&#39;s AHP pledge</text>
</g>
<!-- GF/TAI AHP&#45;&gt;Scalzi&#39;s AHP pledge -->
<g id="edge58" class="edge"><title>GF/TAI AHP&#45;&gt;Scalzi&#39;s AHP pledge</title>
<path fill="none" stroke="black" d="M995.885,-298.204C985.96,-292.416 975.134,-285.444 966,-278 934.127,-252.023 902.936,-216.232 883.38,-192.163"/>
<polygon fill="black" stroke="black" points="885.956,-189.781 876.966,-184.174 880.498,-194.163 885.956,-189.781"/>
<text text-anchor="middle" x="945.5" y="-234.9" font-family="Times,serif" font-size="14.00">?</text>
</g>
<!-- #CoCPledge -->
<g id="node71" class="node"><title>#CoCPledge</title>
<ellipse fill="none" stroke="black" cx="980" cy="-92" rx="59.7947" ry="18"/>
<text text-anchor="middle" x="980" y="-86.9" font-family="Times,serif" font-size="14.00">#CoCPledge</text>
</g>
<!-- GF/TAI AHP&#45;&gt;#CoCPledge -->
<g id="edge56" class="edge"><title>GF/TAI AHP&#45;&gt;#CoCPledge</title>
<path fill="none" stroke="black" d="M1015.38,-295.953C1009.59,-285.271 1002.84,-271.271 999,-258 985.42,-211.06 981.485,-154.016 980.382,-120.492"/>
<polygon fill="black" stroke="black" points="983.87,-119.977 980.106,-110.073 976.872,-120.162 983.87,-119.977"/>
</g>
<!-- blackgirlscode -->
<g id="node53" class="node"><title>blackgirlscode</title>
<ellipse fill="none" stroke="black" cx="1894" cy="-314" rx="65.7957" ry="18"/>
<text text-anchor="middle" x="1894" y="-308.9" font-family="Times,serif" font-size="14.00">blackgirlscode</text>
</g>
<!-- adacamp&#45;&gt;osbridge -->
<g id="edge64" class="edge"><title>adacamp&#45;&gt;osbridge</title>
<path fill="none" stroke="black" d="M435.735,-251.694C397.507,-267.259 337.19,-298.921 315,-350 301.364,-381.39 304.021,-421.47 308.149,-447.896"/>
<polygon fill="black" stroke="black" points="304.742,-448.729 309.901,-457.983 311.638,-447.532 304.742,-448.729"/>
<text text-anchor="middle" x="354" y="-352.9" font-family="Times,serif" font-size="14.00">a11y policies</text>
</g>
<!-- doubleunion -->
<g id="node63" class="node"><title>doubleunion</title>
<ellipse fill="none" stroke="black" cx="356" cy="-166" rx="57.8449" ry="18"/>
<text text-anchor="middle" x="356" y="-160.9" font-family="Times,serif" font-size="14.00">doubleunion</text>
</g>
<!-- adacamp&#45;&gt;doubleunion -->
<g id="edge66" class="edge"><title>adacamp&#45;&gt;doubleunion</title>
<path fill="none" stroke="black" d="M445.586,-224.667C429.364,-214.044 407.524,-199.741 389.469,-187.918"/>
<polygon fill="black" stroke="black" points="391.235,-184.89 380.951,-182.34 387.4,-190.746 391.235,-184.89"/>
</g>
<!-- railsgirls&#45;&gt;rgsoc -->
<g id="edge96" class="edge"><title>railsgirls&#45;&gt;rgsoc</title>
<path fill="none" stroke="black" d="M1673.21,-224.667C1690.57,-213.192 1714.44,-197.423 1733.06,-185.123"/>
<polygon fill="black" stroke="black" points="1735.05,-188.004 1741.46,-179.571 1731.19,-182.164 1735.05,-188.004"/>
</g>
<!-- Feminist Frequency vids -->
<g id="node59" class="node"><title>Feminist Frequency vids</title>
<ellipse fill="none" stroke="black" cx="1932" cy="-240" rx="104.14" ry="18"/>
<text text-anchor="middle" x="1932" y="-234.9" font-family="Times,serif" font-size="14.00">Feminist Frequency vids</text>
</g>
<!-- transcodesf -->
<g id="node60" class="node"><title>transcodesf</title>
<ellipse fill="none" stroke="black" cx="2106" cy="-240" rx="52.1439" ry="18"/>
<text text-anchor="middle" x="2106" y="-234.9" font-family="Times,serif" font-size="14.00">transcodesf</text>
</g>
<!-- seattleattic -->
<g id="node62" class="node"><title>seattleattic</title>
<ellipse fill="none" stroke="black" cx="180" cy="-166" rx="50.1936" ry="18"/>
<text text-anchor="middle" x="180" y="-160.9" font-family="Times,serif" font-size="14.00">seattleattic</text>
</g>
<!-- seattleattic&#45;&gt;doubleunion -->
<g id="edge70" class="edge"><title>seattleattic&#45;&gt;doubleunion</title>
<path fill="none" stroke="black" d="M230.188,-166C249.212,-166 268.236,-166 287.26,-166"/>
<polygon fill="black" stroke="black" points="287.517,-169.5 297.517,-166 287.517,-162.5 287.517,-169.5"/>
</g>
<!-- callbackwomen -->
<g id="node65" class="node"><title>callbackwomen</title>
<ellipse fill="none" stroke="black" cx="1880" cy="-166" rx="69.0435" ry="18"/>
<text text-anchor="middle" x="1880" y="-160.9" font-family="Times,serif" font-size="14.00">callbackwomen</text>
</g>
<!-- transh4ck -->
<g id="node67" class="node"><title>transh4ck</title>
<ellipse fill="none" stroke="black" cx="2013" cy="-166" rx="46.1459" ry="18"/>
<text text-anchor="middle" x="2013" y="-160.9" font-family="Times,serif" font-size="14.00">transh4ck</text>
</g>
<!-- transtech -->
<g id="node68" class="node"><title>transtech</title>
<ellipse fill="none" stroke="black" cx="2138" cy="-166" rx="43.0456" ry="18"/>
<text text-anchor="middle" x="2138" y="-160.9" font-family="Times,serif" font-size="14.00">transtech</text>
</g>
<!-- transh4ck&#45;&gt;transtech -->
<g id="edge112" class="edge"><title>transh4ck&#45;&gt;transtech</title>
<path fill="none" stroke="black" d="M2059.39,-166C2067.76,-166 2076.12,-166 2084.49,-166"/>
<polygon fill="black" stroke="black" points="2084.7,-169.5 2094.7,-166 2084.7,-162.5 2084.7,-169.5"/>
</g>
<!-- mvc -->
<g id="node70" class="node"><title>mvc</title>
<ellipse fill="none" stroke="black" cx="1085" cy="-92" rx="27" ry="18"/>
<text text-anchor="middle" x="1085" y="-86.9" font-family="Times,serif" font-size="14.00">mvc</text>
</g>
<!-- mothershiphackermoms -->
<g id="node94" class="node"><title>mothershiphackermoms</title>
<ellipse fill="none" stroke="black" cx="309" cy="-240" rx="98.9415" ry="18"/>
<text text-anchor="middle" x="309" y="-234.9" font-family="Times,serif" font-size="14.00">mothershiphackermoms</text>
</g>
<!-- mothershiphackermoms&#45;&gt;doubleunion -->
<g id="edge68" class="edge"><title>mothershiphackermoms&#45;&gt;doubleunion</title>
<path fill="none" stroke="black" d="M320.377,-222.087C326.035,-213.179 332.984,-202.239 339.237,-192.393"/>
<polygon fill="black" stroke="black" points="342.32,-194.066 344.727,-183.748 336.412,-190.313 342.32,-194.066"/>
</g>
</g>
</svg>
