<?xml version="1.0" encoding="UTF-8" standalone="no"?>
<!DOCTYPE svg PUBLIC "-//W3C//DTD SVG 1.1//EN"
 "http://www.w3.org/Graphics/SVG/1.1/DTD/svg11.dtd">
<!-- Generated by graphviz version 2.34.0 (20140110.0949)
 -->
<!-- Title: G Pages: 1 -->
<svg width="1826pt" height="872pt"
 viewBox="0.00 0.00 1826.00 872.00" xmlns="http://www.w3.org/2000/svg" xmlns:xlink="http://www.w3.org/1999/xlink">
<g id="graph0" class="graph" transform="scale(1 1) rotate(0) translate(4 868)">
<title>G</title>
<polygon fill="white" stroke="white" points="-4,4 -4,-868 1822,-868 1822,4 -4,4"/>
<!-- past -->
<g id="node1" class="node"><title>past</title>
<text text-anchor="middle" x="52" y="-842.2" font-family="Times,serif" font-size="16.00">past</text>
</g>
<!-- 2000&#45;2003 -->
<g id="node2" class="node"><title>2000&#45;2003</title>
<text text-anchor="middle" x="52" y="-768.2" font-family="Times,serif" font-size="16.00">2000&#45;2003</text>
</g>
<!-- past&#45;&gt;2000&#45;2003 -->
<g id="edge1" class="edge"><title>past&#45;&gt;2000&#45;2003</title>
<path fill="none" stroke="black" d="M52,-827.937C52,-819.807 52,-809.876 52,-800.705"/>
<polygon fill="black" stroke="black" points="55.5001,-800.441 52,-790.441 48.5001,-800.441 55.5001,-800.441"/>
</g>
<!-- 2004&#45;2006 -->
<g id="node3" class="node"><title>2004&#45;2006</title>
<text text-anchor="middle" x="52" y="-694.2" font-family="Times,serif" font-size="16.00">2004&#45;2006</text>
</g>
<!-- 2000&#45;2003&#45;&gt;2004&#45;2006 -->
<g id="edge2" class="edge"><title>2000&#45;2003&#45;&gt;2004&#45;2006</title>
<path fill="none" stroke="black" d="M52,-753.937C52,-745.807 52,-735.876 52,-726.705"/>
<polygon fill="black" stroke="black" points="55.5001,-726.441 52,-716.441 48.5001,-726.441 55.5001,-726.441"/>
</g>
<!-- 2007 -->
<g id="node4" class="node"><title>2007</title>
<text text-anchor="middle" x="52" y="-620.2" font-family="Times,serif" font-size="16.00">2007</text>
</g>
<!-- 2004&#45;2006&#45;&gt;2007 -->
<g id="edge3" class="edge"><title>2004&#45;2006&#45;&gt;2007</title>
<path fill="none" stroke="black" d="M52,-679.937C52,-671.807 52,-661.876 52,-652.705"/>
<polygon fill="black" stroke="black" points="55.5001,-652.441 52,-642.441 48.5001,-652.441 55.5001,-652.441"/>
</g>
<!-- 2008 -->
<g id="node5" class="node"><title>2008</title>
<text text-anchor="middle" x="52" y="-546.2" font-family="Times,serif" font-size="16.00">2008</text>
</g>
<!-- 2007&#45;&gt;2008 -->
<g id="edge4" class="edge"><title>2007&#45;&gt;2008</title>
<path fill="none" stroke="black" d="M52,-605.937C52,-597.807 52,-587.876 52,-578.705"/>
<polygon fill="black" stroke="black" points="55.5001,-578.441 52,-568.441 48.5001,-578.441 55.5001,-578.441"/>
</g>
<!-- 2009 -->
<g id="node6" class="node"><title>2009</title>
<text text-anchor="middle" x="52" y="-472.2" font-family="Times,serif" font-size="16.00">2009</text>
</g>
<!-- 2008&#45;&gt;2009 -->
<g id="edge5" class="edge"><title>2008&#45;&gt;2009</title>
<path fill="none" stroke="black" d="M52,-531.937C52,-523.807 52,-513.876 52,-504.705"/>
<polygon fill="black" stroke="black" points="55.5001,-504.441 52,-494.441 48.5001,-504.441 55.5001,-504.441"/>
</g>
<!-- 2010 -->
<g id="node7" class="node"><title>2010</title>
<text text-anchor="middle" x="52" y="-398.2" font-family="Times,serif" font-size="16.00">2010</text>
</g>
<!-- 2009&#45;&gt;2010 -->
<g id="edge6" class="edge"><title>2009&#45;&gt;2010</title>
<path fill="none" stroke="black" d="M52,-457.937C52,-449.807 52,-439.876 52,-430.705"/>
<polygon fill="black" stroke="black" points="55.5001,-430.441 52,-420.441 48.5001,-430.441 55.5001,-430.441"/>
</g>
<!-- 2011 -->
<g id="node8" class="node"><title>2011</title>
<text text-anchor="middle" x="52" y="-310.2" font-family="Times,serif" font-size="16.00">2011</text>
</g>
<!-- 2010&#45;&gt;2011 -->
<g id="edge7" class="edge"><title>2010&#45;&gt;2011</title>
<path fill="none" stroke="black" d="M52,-383.597C52,-371.746 52,-355.817 52,-342.292"/>
<polygon fill="black" stroke="black" points="55.5001,-342.084 52,-332.084 48.5001,-342.084 55.5001,-342.084"/>
</g>
<!-- 2012 -->
<g id="node9" class="node"><title>2012</title>
<text text-anchor="middle" x="52" y="-236.2" font-family="Times,serif" font-size="16.00">2012</text>
</g>
<!-- 2011&#45;&gt;2012 -->
<g id="edge8" class="edge"><title>2011&#45;&gt;2012</title>
<path fill="none" stroke="black" d="M52,-295.937C52,-287.807 52,-277.876 52,-268.705"/>
<polygon fill="black" stroke="black" points="55.5001,-268.441 52,-258.441 48.5001,-268.441 55.5001,-268.441"/>
</g>
<!-- 2013 -->
<g id="node10" class="node"><title>2013</title>
<text text-anchor="middle" x="52" y="-162.2" font-family="Times,serif" font-size="16.00">2013</text>
</g>
<!-- 2012&#45;&gt;2013 -->
<g id="edge9" class="edge"><title>2012&#45;&gt;2013</title>
<path fill="none" stroke="black" d="M52,-221.937C52,-213.807 52,-203.876 52,-194.705"/>
<polygon fill="black" stroke="black" points="55.5001,-194.441 52,-184.441 48.5001,-194.441 55.5001,-194.441"/>
</g>
<!-- 2014 -->
<g id="node11" class="node"><title>2014</title>
<text text-anchor="middle" x="52" y="-88.2" font-family="Times,serif" font-size="16.00">2014</text>
</g>
<!-- 2013&#45;&gt;2014 -->
<g id="edge10" class="edge"><title>2013&#45;&gt;2014</title>
<path fill="none" stroke="black" d="M52,-147.937C52,-139.807 52,-129.876 52,-120.705"/>
<polygon fill="black" stroke="black" points="55.5001,-120.441 52,-110.441 48.5001,-120.441 55.5001,-120.441"/>
</g>
<!-- unknowndate -->
<g id="node12" class="node"><title>unknowndate</title>
<text text-anchor="middle" x="52" y="-14.2" font-family="Times,serif" font-size="16.00">unknowndate</text>
</g>
<!-- 2014&#45;&gt;unknowndate -->
<g id="edge11" class="edge"><title>2014&#45;&gt;unknowndate</title>
<path fill="none" stroke="black" d="M52,-73.937C52,-65.8072 52,-55.8761 52,-46.7047"/>
<polygon fill="black" stroke="black" points="55.5001,-46.4406 52,-36.4407 48.5001,-46.4407 55.5001,-46.4406"/>
</g>
<!-- livejournal -->
<g id="node13" class="node"><title>livejournal</title>
<polygon fill="none" stroke="black" points="236.25,-864 161.75,-864 161.75,-828 236.25,-828 236.25,-864"/>
<text text-anchor="middle" x="199" y="-842.3" font-family="Times,serif" font-size="14.00">livejournal</text>
</g>
<!-- dreamwidth -->
<g id="node25" class="node"><title>dreamwidth</title>
<ellipse fill="none" stroke="black" cx="150" cy="-550" rx="52.9443" ry="18"/>
<text text-anchor="middle" x="150" y="-546.3" font-family="Times,serif" font-size="14.00">dreamwidth</text>
</g>
<!-- livejournal&#45;&gt;dreamwidth -->
<g id="edge47" class="edge"><title>livejournal&#45;&gt;dreamwidth</title>
<path fill="none" stroke="black" d="M191.817,-827.875C186.436,-813.493 180,-792.263 180,-773 180,-773 180,-773 180,-623 180,-606.764 173.419,-589.943 166.422,-576.646"/>
<polygon fill="black" stroke="black" points="169.305,-574.633 161.342,-567.645 163.209,-578.074 169.305,-574.633"/>
</g>
<!-- otw -->
<g id="node26" class="node"><title>otw</title>
<ellipse fill="none" stroke="black" cx="248" cy="-550" rx="27" ry="18"/>
<text text-anchor="middle" x="248" y="-546.3" font-family="Times,serif" font-size="14.00">otw</text>
</g>
<!-- livejournal&#45;&gt;otw -->
<g id="edge48" class="edge"><title>livejournal&#45;&gt;otw</title>
<path fill="none" stroke="black" d="M212.438,-827.723C221.941,-813.763 233,-793.183 233,-773 233,-773 233,-773 233,-623 233,-607.787 236.249,-591.138 239.723,-577.686"/>
<polygon fill="black" stroke="black" points="243.201,-578.242 242.5,-567.671 236.455,-576.372 243.201,-578.242"/>
</g>
<!-- wiscon -->
<g id="node14" class="node"><title>wiscon</title>
<ellipse fill="none" stroke="black" cx="818" cy="-846" rx="35.6194" ry="18"/>
<text text-anchor="middle" x="818" y="-842.3" font-family="Times,serif" font-size="14.00">wiscon</text>
</g>
<!-- racefail -->
<g id="node28" class="node"><title>racefail</title>
<polygon fill="none" stroke="black" points="577,-494 524.911,-476 577,-458 629.089,-476 577,-494"/>
<text text-anchor="middle" x="577" y="-472.3" font-family="Times,serif" font-size="14.00">racefail</text>
</g>
<!-- wiscon&#45;&gt;racefail -->
<g id="edge46" class="edge"><title>wiscon&#45;&gt;racefail</title>
<path fill="none" stroke="black" d="M782.73,-843.633C705.445,-839.678 528,-824.941 528,-773 528,-773 528,-773 528,-549 528,-528.524 541.712,-509.563 554.629,-496.245"/>
<polygon fill="black" stroke="black" points="557.276,-498.553 562.032,-489.086 552.41,-493.521 557.276,-498.553"/>
</g>
<!-- adacamp -->
<g id="node39" class="node"><title>adacamp</title>
<ellipse fill="none" stroke="black" cx="481" cy="-240" rx="42.3701" ry="18"/>
<text text-anchor="middle" x="481" y="-236.3" font-family="Times,serif" font-size="14.00">adacamp</text>
</g>
<!-- wiscon&#45;&gt;adacamp -->
<g id="edge28" class="edge"><title>wiscon&#45;&gt;adacamp</title>
<path fill="none" stroke="black" d="M850.591,-838.685C926.883,-822.233 1107.24,-772.756 1061,-680 1018.17,-594.085 771.376,-498.419 716,-420 682.675,-372.808 718.828,-335.851 677,-296 628.766,-250.046 595.857,-276.988 532,-258 528.869,-257.069 525.641,-256.075 522.4,-255.052"/>
<polygon fill="black" stroke="black" points="523.32,-251.671 512.729,-251.933 521.172,-258.333 523.32,-251.671"/>
<text text-anchor="middle" x="963.5" y="-546.3" font-family="Times,serif" font-size="14.00">a11y policies</text>
</g>
<!-- linuxconfau -->
<g id="node15" class="node"><title>linuxconfau</title>
<polygon fill="none" stroke="black" points="502.25,-864 421.75,-864 421.75,-828 502.25,-828 502.25,-864"/>
<text text-anchor="middle" x="462" y="-842.3" font-family="Times,serif" font-size="14.00">linuxconfau</text>
</g>
<!-- haecksen -->
<g id="node22" class="node"><title>haecksen</title>
<ellipse fill="none" stroke="black" cx="389" cy="-624" rx="42.3456" ry="18"/>
<text text-anchor="middle" x="389" y="-620.3" font-family="Times,serif" font-size="14.00">haecksen</text>
</g>
<!-- linuxconfau&#45;&gt;haecksen -->
<g id="edge39" class="edge"><title>linuxconfau&#45;&gt;haecksen</title>
<path fill="none" stroke="black" d="M456.272,-827.737C443.554,-789.409 412.892,-697.004 397.755,-651.385"/>
<polygon fill="black" stroke="black" points="401.073,-650.27 394.601,-641.881 394.429,-652.474 401.073,-650.27"/>
</g>
<!-- adainitiative -->
<g id="node36" class="node"><title>adainitiative</title>
<ellipse fill="none" stroke="black" cx="615" cy="-314" rx="53.4184" ry="18"/>
<text text-anchor="middle" x="615" y="-310.3" font-family="Times,serif" font-size="14.00">adainitiative</text>
</g>
<!-- linuxconfau&#45;&gt;adainitiative -->
<g id="edge16" class="edge"><title>linuxconfau&#45;&gt;adainitiative</title>
<path fill="none" stroke="black" d="M472.745,-827.967C480.642,-813.813 490,-792.85 490,-773 490,-773 490,-773 490,-586 490,-527.949 493.235,-511.401 516,-458 535.423,-412.438 570.601,-366.553 593.369,-339.466"/>
<polygon fill="black" stroke="black" points="596.18,-341.564 600.006,-331.684 590.854,-337.022 596.18,-341.564"/>
</g>
<!-- linuxchix -->
<g id="node16" class="node"><title>linuxchix</title>
<ellipse fill="none" stroke="black" cx="604" cy="-772" rx="44.2946" ry="18"/>
<text text-anchor="middle" x="604" y="-768.3" font-family="Times,serif" font-size="14.00">linuxchix</text>
</g>
<!-- debianwomen -->
<g id="node21" class="node"><title>debianwomen</title>
<ellipse fill="none" stroke="black" cx="692" cy="-698" rx="60.1672" ry="18"/>
<text text-anchor="middle" x="692" y="-694.3" font-family="Times,serif" font-size="14.00">debianwomen</text>
</g>
<!-- linuxchix&#45;&gt;debianwomen -->
<g id="edge32" class="edge"><title>linuxchix&#45;&gt;debianwomen</title>
<path fill="none" stroke="black" d="M623.095,-755.377C635.151,-745.513 650.927,-732.605 664.341,-721.63"/>
<polygon fill="black" stroke="black" points="666.81,-724.132 672.333,-715.091 662.377,-718.715 666.81,-724.132"/>
</g>
<!-- linuxchix&#45;&gt;haecksen -->
<g id="edge38" class="edge"><title>linuxchix&#45;&gt;haecksen</title>
<path fill="none" stroke="black" d="M582.201,-756.197C543.55,-729.95 462.952,-675.219 419.06,-645.413"/>
<polygon fill="black" stroke="black" points="420.776,-642.347 410.537,-639.625 416.843,-648.138 420.776,-642.347"/>
</g>
<!-- geekfeminism -->
<g id="node24" class="node"><title>geekfeminism</title>
<ellipse fill="none" stroke="black" cx="618" cy="-550" rx="61.6163" ry="18"/>
<text text-anchor="middle" x="618" y="-546.3" font-family="Times,serif" font-size="14.00">geekfeminism</text>
</g>
<!-- linuxchix&#45;&gt;geekfeminism -->
<g id="edge12" class="edge"><title>linuxchix&#45;&gt;geekfeminism</title>
<path fill="none" stroke="black" d="M605.099,-753.737C607.521,-715.664 613.34,-624.231 616.263,-578.301"/>
<polygon fill="black" stroke="black" points="619.764,-578.385 616.907,-568.183 612.778,-577.94 619.764,-578.385"/>
</g>
<!-- gsoc -->
<g id="node17" class="node"><title>gsoc</title>
<polygon fill="none" stroke="black" points="1390,-716 1336,-716 1336,-680 1390,-680 1390,-716"/>
<text text-anchor="middle" x="1363" y="-694.3" font-family="Times,serif" font-size="14.00">gsoc</text>
</g>
<!-- opw -->
<g id="node18" class="node"><title>opw</title>
<ellipse fill="none" stroke="black" cx="1453" cy="-698" rx="27" ry="18"/>
<text text-anchor="middle" x="1453" y="-694.3" font-family="Times,serif" font-size="14.00">opw</text>
</g>
<!-- gsoc&#45;&gt;opw -->
<g id="edge37" class="edge"><title>gsoc&#45;&gt;opw</title>
<path fill="none" stroke="black" d="M1390.07,-698C1398.67,-698 1407.27,-698 1415.87,-698"/>
<polygon fill="black" stroke="black" points="1415.96,-701.5 1425.96,-698 1415.96,-694.5 1415.96,-701.5"/>
</g>
<!-- rgsoc -->
<g id="node45" class="node"><title>rgsoc</title>
<ellipse fill="none" stroke="black" cx="1556" cy="-166" rx="29.3479" ry="18"/>
<text text-anchor="middle" x="1556" y="-162.3" font-family="Times,serif" font-size="14.00">rgsoc</text>
</g>
<!-- gsoc&#45;&gt;rgsoc -->
<g id="edge45" class="edge"><title>gsoc&#45;&gt;rgsoc</title>
<path fill="none" stroke="black" d="M1390.19,-688.428C1398.77,-685.727 1408.28,-682.736 1417,-680 1495.2,-655.473 1593,-706.953 1593,-625 1593,-625 1593,-625 1593,-239 1593,-221.361 1584.11,-203.712 1575.04,-190.302"/>
<polygon fill="black" stroke="black" points="1577.84,-188.202 1569.15,-182.145 1572.17,-192.301 1577.84,-188.202"/>
</g>
<!-- ubuntuwomen -->
<g id="node19" class="node"><title>ubuntuwomen</title>
<ellipse fill="none" stroke="black" cx="991" cy="-698" rx="61.6163" ry="18"/>
<text text-anchor="middle" x="991" y="-694.3" font-family="Times,serif" font-size="14.00">ubuntuwomen</text>
</g>
<!-- gnomewomen -->
<g id="node20" class="node"><title>gnomewomen</title>
<ellipse fill="none" stroke="black" cx="850" cy="-698" rx="61.6163" ry="18"/>
<text text-anchor="middle" x="850" y="-694.3" font-family="Times,serif" font-size="14.00">gnomewomen</text>
</g>
<!-- gnomewomen&#45;&gt;opw -->
<g id="edge36" class="edge"><title>gnomewomen&#45;&gt;opw</title>
<path fill="none" stroke="black" d="M877.089,-714.306C891.869,-722.253 910.817,-730.953 929,-735 1029,-757.257 1291.15,-761.882 1390,-735 1403,-731.464 1416.07,-724.489 1426.9,-717.54"/>
<polygon fill="black" stroke="black" points="1429.09,-720.281 1435.42,-711.784 1425.18,-714.48 1429.09,-720.281"/>
</g>
<!-- debianwomen&#45;&gt;ubuntuwomen -->
<g id="edge33" class="edge"><title>debianwomen&#45;&gt;ubuntuwomen</title>
<path fill="none" stroke="black" d="M723.574,-713.556C741.898,-721.713 765.698,-730.851 788,-735 841.745,-744.999 857.611,-746.748 911,-735 925.792,-731.745 941.104,-725.476 954.324,-719.011"/>
<polygon fill="black" stroke="black" points="956.225,-721.97 963.542,-714.308 953.044,-715.734 956.225,-721.97"/>
</g>
<!-- debianwomen&#45;&gt;gnomewomen -->
<g id="edge34" class="edge"><title>debianwomen&#45;&gt;gnomewomen</title>
<path fill="none" stroke="black" d="M752.484,-698C761.063,-698 769.642,-698 778.22,-698"/>
<polygon fill="black" stroke="black" points="778.291,-701.5 788.291,-698 778.291,-694.5 778.291,-701.5"/>
</g>
<!-- owoot -->
<g id="node38" class="node"><title>owoot</title>
<ellipse fill="none" stroke="black" cx="368" cy="-314" rx="32.2457" ry="18"/>
<text text-anchor="middle" x="368" y="-310.3" font-family="Times,serif" font-size="14.00">owoot</text>
</g>
<!-- haecksen&#45;&gt;owoot -->
<g id="edge35" class="edge"><title>haecksen&#45;&gt;owoot</title>
<path fill="none" stroke="black" d="M377.658,-606.355C369.163,-592.258 359,-571.177 359,-551 359,-551 359,-551 359,-401 359,-381.297 361.366,-359.191 363.671,-342.326"/>
<polygon fill="black" stroke="black" points="367.186,-342.476 365.152,-332.078 360.258,-341.474 367.186,-342.476"/>
</g>
<!-- haecksen&#45;&gt;adacamp -->
<g id="edge40" class="edge"><title>haecksen&#45;&gt;adacamp</title>
<path fill="none" stroke="black" d="M359.299,-610.937C336.181,-599.356 308,-579.411 308,-551 308,-551 308,-551 308,-313 308,-260.195 377.55,-245.407 428.453,-241.655"/>
<polygon fill="black" stroke="black" points="428.912,-245.133 438.679,-241.027 428.484,-238.146 428.912,-245.133"/>
</g>
<!-- SFF CAHP -->
<g id="node23" class="node"><title>SFF CAHP</title>
<ellipse fill="none" stroke="black" cx="1277" cy="-550" rx="51.0191" ry="18"/>
<text text-anchor="middle" x="1277" y="-546.3" font-family="Times,serif" font-size="14.00">SFF CAHP</text>
</g>
<!-- backupproject -->
<g id="node32" class="node"><title>backupproject</title>
<ellipse fill="none" stroke="black" cx="1505" cy="-476" rx="60.1672" ry="18"/>
<text text-anchor="middle" x="1505" y="-472.3" font-family="Times,serif" font-size="14.00">backupproject</text>
</g>
<!-- SFF CAHP&#45;&gt;backupproject -->
<g id="edge22" class="edge"><title>SFF CAHP&#45;&gt;backupproject</title>
<path fill="none" stroke="black" d="M1313.89,-537.352C1352.35,-525.204 1412.88,-506.092 1455.49,-492.636"/>
<polygon fill="black" stroke="black" points="1456.62,-495.949 1465.1,-489.6 1454.51,-489.274 1456.62,-495.949"/>
</g>
<!-- GF/TAI AHP -->
<g id="node37" class="node"><title>GF/TAI AHP</title>
<ellipse fill="none" stroke="black" cx="931" cy="-314" rx="59.2173" ry="18"/>
<text text-anchor="middle" x="931" y="-310.3" font-family="Times,serif" font-size="14.00">GF/TAI AHP</text>
</g>
<!-- SFF CAHP&#45;&gt;GF/TAI AHP -->
<g id="edge20" class="edge"><title>SFF CAHP&#45;&gt;GF/TAI AHP</title>
<path fill="none" stroke="black" d="M1226.6,-546.659C1179.2,-542.222 1108.2,-529.602 1058,-494 995.457,-449.648 1010.13,-410.481 963,-350 960.191,-346.396 957.097,-342.709 953.972,-339.145"/>
<polygon fill="black" stroke="black" points="956.479,-336.7 947.182,-331.619 951.282,-341.389 956.479,-336.7"/>
</g>
<!-- geekfeminism&#45;&gt;adainitiative -->
<g id="edge15" class="edge"><title>geekfeminism&#45;&gt;adainitiative</title>
<path fill="none" stroke="black" d="M625.894,-532.085C630.428,-521.418 635.673,-507.208 638,-494 647.434,-440.449 633.507,-377.241 623.557,-342.08"/>
<polygon fill="black" stroke="black" points="626.805,-340.717 620.627,-332.11 620.089,-342.691 626.805,-340.717"/>
</g>
<!-- geekfeminism&#45;&gt;GF/TAI AHP -->
<g id="edge18" class="edge"><title>geekfeminism&#45;&gt;GF/TAI AHP</title>
<path fill="none" stroke="black" d="M677.098,-544.826C753.364,-535.9 883.325,-507.891 943,-420 958.711,-396.86 951.456,-364.047 943.015,-341.286"/>
<polygon fill="black" stroke="black" points="946.226,-339.889 939.261,-331.905 939.728,-342.49 946.226,-339.889"/>
</g>
<!-- oscon2009 -->
<g id="node27" class="node"><title>oscon2009</title>
<ellipse fill="none" stroke="black" cx="231" cy="-476" rx="48.6179" ry="18"/>
<text text-anchor="middle" x="231" y="-472.3" font-family="Times,serif" font-size="14.00">oscon2009</text>
</g>
<!-- dreamwidth&#45;&gt;oscon2009 -->
<g id="edge49" class="edge"><title>dreamwidth&#45;&gt;oscon2009</title>
<path fill="none" stroke="black" d="M167.977,-533.021C178.988,-523.233 193.256,-510.55 205.431,-499.728"/>
<polygon fill="black" stroke="black" points="207.925,-502.194 213.074,-492.934 203.274,-496.962 207.925,-502.194"/>
</g>
<!-- otw&#45;&gt;oscon2009 -->
<g id="edge50" class="edge"><title>otw&#45;&gt;oscon2009</title>
<path fill="none" stroke="black" d="M243.971,-531.937C241.981,-523.508 239.534,-513.143 237.303,-503.696"/>
<polygon fill="black" stroke="black" points="240.704,-502.869 235,-493.941 233.892,-504.477 240.704,-502.869"/>
</g>
<!-- oscon2009&#45;&gt;geekfeminism -->
<g id="edge51" class="edge"><title>oscon2009&#45;&gt;geekfeminism</title>
<path fill="none" stroke="black" d="M273.291,-484.868C341.971,-497.646 478.018,-522.957 557.109,-537.671"/>
<polygon fill="black" stroke="black" points="556.935,-541.199 567.407,-539.587 558.215,-534.317 556.935,-541.199"/>
</g>
<!-- racefail&#45;&gt;geekfeminism -->
<g id="edge13" class="edge"><title>racefail&#45;&gt;geekfeminism</title>
<path fill="none" stroke="black" d="M585.263,-491.511C590.407,-500.544 597.172,-512.424 603.216,-523.038"/>
<polygon fill="black" stroke="black" points="600.294,-524.979 608.284,-531.937 606.377,-521.515 600.294,-524.979"/>
</g>
<!-- couchdb -->
<g id="node29" class="node"><title>couchdb</title>
<polygon fill="none" stroke="black" points="1124,-494 1067.52,-476 1124,-458 1180.48,-476 1124,-494"/>
<text text-anchor="middle" x="1124" y="-472.3" font-family="Times,serif" font-size="14.00">couchdb</text>
</g>
<!-- railsbridge -->
<g id="node30" class="node"><title>railsbridge</title>
<ellipse fill="none" stroke="black" cx="1265" cy="-476" rx="48.1437" ry="18"/>
<text text-anchor="middle" x="1265" y="-472.3" font-family="Times,serif" font-size="14.00">railsbridge</text>
</g>
<!-- couchdb&#45;&gt;railsbridge -->
<g id="edge41" class="edge"><title>couchdb&#45;&gt;railsbridge</title>
<path fill="none" stroke="black" d="M1180.73,-476C1189.41,-476 1198.08,-476 1206.76,-476"/>
<polygon fill="black" stroke="black" points="1206.94,-479.5 1216.94,-476 1206.94,-472.5 1206.94,-479.5"/>
</g>
<!-- railsgirls -->
<g id="node40" class="node"><title>railsgirls</title>
<ellipse fill="none" stroke="black" cx="1446" cy="-240" rx="41.394" ry="18"/>
<text text-anchor="middle" x="1446" y="-236.3" font-family="Times,serif" font-size="14.00">railsgirls</text>
</g>
<!-- railsbridge&#45;&gt;railsgirls -->
<g id="edge43" class="edge"><title>railsbridge&#45;&gt;railsgirls</title>
<path fill="none" stroke="black" d="M1277.73,-458.546C1309.08,-418.015 1390.15,-313.199 1427.12,-265.403"/>
<polygon fill="black" stroke="black" points="1429.94,-267.488 1433.29,-257.436 1424.4,-263.205 1429.94,-267.488"/>
</g>
<!-- pystar -->
<g id="node49" class="node"><title>pystar</title>
<ellipse fill="none" stroke="black" cx="1265" cy="-402" rx="32.2457" ry="18"/>
<text text-anchor="middle" x="1265" y="-398.3" font-family="Times,serif" font-size="14.00">pystar</text>
</g>
<!-- railsbridge&#45;&gt;pystar -->
<g id="edge42" class="edge"><title>railsbridge&#45;&gt;pystar</title>
<path fill="none" stroke="black" d="M1265,-457.937C1265,-449.807 1265,-439.876 1265,-430.705"/>
<polygon fill="black" stroke="black" points="1268.5,-430.441 1265,-420.441 1261.5,-430.441 1268.5,-430.441"/>
</g>
<!-- osbp -->
<g id="node31" class="node"><title>osbp</title>
<polygon fill="none" stroke="black" points="1370,-494 1331.59,-476 1370,-458 1408.41,-476 1370,-494"/>
<text text-anchor="middle" x="1370" y="-472.3" font-family="Times,serif" font-size="14.00">osbp</text>
</g>
<!-- osbp&#45;&gt;backupproject -->
<g id="edge21" class="edge"><title>osbp&#45;&gt;backupproject</title>
<path fill="none" stroke="black" d="M1408.5,-476C1417.17,-476 1425.84,-476 1434.51,-476"/>
<polygon fill="black" stroke="black" points="1434.69,-479.5 1444.69,-476 1434.69,-472.5 1434.69,-479.5"/>
</g>
<!-- backupribbons -->
<g id="node35" class="node"><title>backupribbons</title>
<ellipse fill="none" stroke="black" cx="1503" cy="-402" rx="62.0922" ry="18"/>
<text text-anchor="middle" x="1503" y="-398.3" font-family="Times,serif" font-size="14.00">backupribbons</text>
</g>
<!-- backupproject&#45;&gt;backupribbons -->
<g id="edge23" class="edge"><title>backupproject&#45;&gt;backupribbons</title>
<path fill="none" stroke="black" d="M1504.53,-457.937C1504.3,-449.807 1504.02,-439.876 1503.77,-430.705"/>
<polygon fill="black" stroke="black" points="1507.26,-430.34 1503.48,-420.441 1500.26,-430.534 1507.26,-430.34"/>
</g>
<!-- osbridge -->
<g id="node33" class="node"><title>osbridge</title>
<ellipse fill="none" stroke="black" cx="428" cy="-476" rx="40.4202" ry="18"/>
<text text-anchor="middle" x="428" y="-472.3" font-family="Times,serif" font-size="14.00">osbridge</text>
</g>
<!-- apachecon assault -->
<g id="node34" class="node"><title>apachecon assault</title>
<polygon fill="none" stroke="black" points="830,-420 725.823,-402 830,-384 934.177,-402 830,-420"/>
<text text-anchor="middle" x="830" y="-398.3" font-family="Times,serif" font-size="14.00">apachecon assault</text>
</g>
<!-- apachecon assault&#45;&gt;adainitiative -->
<g id="edge14" class="edge"><title>apachecon assault&#45;&gt;adainitiative</title>
<path fill="none" stroke="black" d="M800.105,-389.042C763.068,-374.227 699.714,-348.885 657.599,-332.04"/>
<polygon fill="black" stroke="black" points="658.751,-328.731 648.167,-328.267 656.152,-335.23 658.751,-328.731"/>
</g>
<!-- apachecon assault&#45;&gt;GF/TAI AHP -->
<g id="edge17" class="edge"><title>apachecon assault&#45;&gt;GF/TAI AHP</title>
<path fill="none" stroke="black" d="M846.678,-386.799C862.226,-373.56 885.69,-353.58 903.922,-338.056"/>
<polygon fill="black" stroke="black" points="906.539,-340.425 911.884,-331.277 902.001,-335.095 906.539,-340.425"/>
</g>
<!-- adainitiative&#45;&gt;GF/TAI AHP -->
<g id="edge19" class="edge"><title>adainitiative&#45;&gt;GF/TAI AHP</title>
<path fill="none" stroke="black" d="M668.695,-314C732.968,-314 797.24,-314 861.512,-314"/>
<polygon fill="black" stroke="black" points="861.828,-317.5 871.828,-314 861.828,-310.5 861.828,-317.5"/>
</g>
<!-- adainitiative&#45;&gt;adacamp -->
<g id="edge27" class="edge"><title>adainitiative&#45;&gt;adacamp</title>
<path fill="none" stroke="black" d="M587.883,-298.43C566.912,-287.162 537.745,-271.49 515.177,-259.364"/>
<polygon fill="black" stroke="black" points="516.729,-256.224 506.263,-254.574 513.416,-262.391 516.729,-256.224"/>
</g>
<!-- Skeptic AHPs -->
<g id="node41" class="node"><title>Skeptic AHPs</title>
<ellipse fill="none" stroke="black" cx="1016" cy="-240" rx="60.1672" ry="18"/>
<text text-anchor="middle" x="1016" y="-236.3" font-family="Times,serif" font-size="14.00">Skeptic AHPs</text>
</g>
<!-- GF/TAI AHP&#45;&gt;Skeptic AHPs -->
<g id="edge25" class="edge"><title>GF/TAI AHP&#45;&gt;Skeptic AHPs</title>
<path fill="none" stroke="black" d="M950.288,-296.662C961.699,-286.996 976.331,-274.602 988.89,-263.964"/>
<polygon fill="black" stroke="black" points="991.42,-266.407 996.789,-257.273 986.896,-261.066 991.42,-266.407"/>
</g>
<!-- PyCon AHP -->
<g id="node42" class="node"><title>PyCon AHP</title>
<ellipse fill="none" stroke="black" cx="840" cy="-240" rx="54.3924" ry="18"/>
<text text-anchor="middle" x="840" y="-236.3" font-family="Times,serif" font-size="14.00">PyCon AHP</text>
</g>
<!-- GF/TAI AHP&#45;&gt;PyCon AHP -->
<g id="edge24" class="edge"><title>GF/TAI AHP&#45;&gt;PyCon AHP</title>
<path fill="none" stroke="black" d="M910.804,-297.021C898.316,-287.14 882.098,-274.309 868.336,-263.42"/>
<polygon fill="black" stroke="black" points="870.153,-260.395 860.139,-256.934 865.81,-265.884 870.153,-260.395"/>
</g>
<!-- Scalzi&#39;s AHP pledge -->
<g id="node46" class="node"><title>Scalzi&#39;s AHP pledge</title>
<ellipse fill="none" stroke="black" cx="931" cy="-166" rx="83.2892" ry="18"/>
<text text-anchor="middle" x="931" y="-162.3" font-family="Times,serif" font-size="14.00">Scalzi&#39;s AHP pledge</text>
</g>
<!-- GF/TAI AHP&#45;&gt;Scalzi&#39;s AHP pledge -->
<g id="edge26" class="edge"><title>GF/TAI AHP&#45;&gt;Scalzi&#39;s AHP pledge</title>
<path fill="none" stroke="black" d="M931,-295.966C931,-271.045 931,-224.374 931,-194.537"/>
<polygon fill="black" stroke="black" points="934.5,-194.378 931,-184.378 927.5,-194.378 934.5,-194.378"/>
<text text-anchor="middle" x="934.5" y="-236.3" font-family="Times,serif" font-size="14.00">?</text>
</g>
<!-- adacamp&#45;&gt;osbridge -->
<g id="edge29" class="edge"><title>adacamp&#45;&gt;osbridge</title>
<path fill="none" stroke="black" d="M470.272,-257.515C457.55,-278.166 437.054,-315.063 429,-350 421.407,-382.937 422.683,-422.065 424.847,-447.659"/>
<polygon fill="black" stroke="black" points="421.375,-448.118 425.805,-457.742 428.343,-447.456 421.375,-448.118"/>
<text text-anchor="middle" x="465.5" y="-354.3" font-family="Times,serif" font-size="14.00">a11y policies</text>
</g>
<!-- doubleunion -->
<g id="node44" class="node"><title>doubleunion</title>
<ellipse fill="none" stroke="black" cx="593" cy="-166" rx="54.3924" ry="18"/>
<text text-anchor="middle" x="593" y="-162.3" font-family="Times,serif" font-size="14.00">doubleunion</text>
</g>
<!-- adacamp&#45;&gt;doubleunion -->
<g id="edge30" class="edge"><title>adacamp&#45;&gt;doubleunion</title>
<path fill="none" stroke="black" d="M503.396,-224.603C519.744,-214.093 542.155,-199.686 560.475,-187.909"/>
<polygon fill="black" stroke="black" points="562.575,-190.72 569.094,-182.368 558.79,-184.831 562.575,-190.72"/>
</g>
<!-- railsgirls&#45;&gt;rgsoc -->
<g id="edge44" class="edge"><title>railsgirls&#45;&gt;rgsoc</title>
<path fill="none" stroke="black" d="M1468,-224.603C1485.32,-213.266 1509.57,-197.394 1528.22,-185.181"/>
<polygon fill="black" stroke="black" points="1530.17,-188.091 1536.62,-179.686 1526.34,-182.234 1530.17,-188.091"/>
</g>
<!-- Feminist Frequency vids -->
<g id="node43" class="node"><title>Feminist Frequency vids</title>
<ellipse fill="none" stroke="black" cx="1720" cy="-240" rx="98.1881" ry="18"/>
<text text-anchor="middle" x="1720" y="-236.3" font-family="Times,serif" font-size="14.00">Feminist Frequency vids</text>
</g>
<!-- mvc -->
<g id="node47" class="node"><title>mvc</title>
<ellipse fill="none" stroke="black" cx="124" cy="-92" rx="27" ry="18"/>
<text text-anchor="middle" x="124" y="-88.3" font-family="Times,serif" font-size="14.00">mvc</text>
</g>
<!-- mothershiphackermoms -->
<g id="node48" class="node"><title>mothershiphackermoms</title>
<ellipse fill="none" stroke="black" cx="638" cy="-240" rx="96.2631" ry="18"/>
<text text-anchor="middle" x="638" y="-236.3" font-family="Times,serif" font-size="14.00">mothershiphackermoms</text>
</g>
<!-- mothershiphackermoms&#45;&gt;doubleunion -->
<g id="edge31" class="edge"><title>mothershiphackermoms&#45;&gt;doubleunion</title>
<path fill="none" stroke="black" d="M627.336,-221.937C621.844,-213.15 615.036,-202.258 608.935,-192.496"/>
<polygon fill="black" stroke="black" points="611.856,-190.566 603.588,-183.941 605.92,-194.276 611.856,-190.566"/>
</g>
</g>
</svg>
