<?xml version="1.0" encoding="UTF-8" standalone="no"?>
<!DOCTYPE svg PUBLIC "-//W3C//DTD SVG 1.1//EN"
 "http://www.w3.org/Graphics/SVG/1.1/DTD/svg11.dtd">
<!-- Generated by graphviz version 2.34.0 (20140110.0949)
 -->
<!-- Title: G Pages: 1 -->
<svg width="1381pt" height="872pt"
 viewBox="0.00 0.00 1381.00 872.00" xmlns="http://www.w3.org/2000/svg" xmlns:xlink="http://www.w3.org/1999/xlink">
<g id="graph0" class="graph" transform="scale(1 1) rotate(0) translate(4 868)">
<title>G</title>
<polygon fill="white" stroke="white" points="-4,4 -4,-868 1377,-868 1377,4 -4,4"/>
<!-- past -->
<g id="node1" class="node"><title>past</title>
<text text-anchor="middle" x="52" y="-842.2" font-family="Times,serif" font-size="16.00">past</text>
</g>
<!-- 2000&#45;2003 -->
<g id="node2" class="node"><title>2000&#45;2003</title>
<text text-anchor="middle" x="52" y="-768.2" font-family="Times,serif" font-size="16.00">2000&#45;2003</text>
</g>
<!-- past&#45;&gt;2000&#45;2003 -->
<g id="edge1" class="edge"><title>past&#45;&gt;2000&#45;2003</title>
<path fill="none" stroke="black" d="M52,-827.937C52,-819.807 52,-809.876 52,-800.705"/>
<polygon fill="black" stroke="black" points="55.5001,-800.441 52,-790.441 48.5001,-800.441 55.5001,-800.441"/>
</g>
<!-- 2004&#45;2006 -->
<g id="node3" class="node"><title>2004&#45;2006</title>
<text text-anchor="middle" x="52" y="-694.2" font-family="Times,serif" font-size="16.00">2004&#45;2006</text>
</g>
<!-- 2000&#45;2003&#45;&gt;2004&#45;2006 -->
<g id="edge2" class="edge"><title>2000&#45;2003&#45;&gt;2004&#45;2006</title>
<path fill="none" stroke="black" d="M52,-753.937C52,-745.807 52,-735.876 52,-726.705"/>
<polygon fill="black" stroke="black" points="55.5001,-726.441 52,-716.441 48.5001,-726.441 55.5001,-726.441"/>
</g>
<!-- 2007 -->
<g id="node4" class="node"><title>2007</title>
<text text-anchor="middle" x="52" y="-620.2" font-family="Times,serif" font-size="16.00">2007</text>
</g>
<!-- 2004&#45;2006&#45;&gt;2007 -->
<g id="edge3" class="edge"><title>2004&#45;2006&#45;&gt;2007</title>
<path fill="none" stroke="black" d="M52,-679.937C52,-671.807 52,-661.876 52,-652.705"/>
<polygon fill="black" stroke="black" points="55.5001,-652.441 52,-642.441 48.5001,-652.441 55.5001,-652.441"/>
</g>
<!-- 2008 -->
<g id="node5" class="node"><title>2008</title>
<text text-anchor="middle" x="52" y="-546.2" font-family="Times,serif" font-size="16.00">2008</text>
</g>
<!-- 2007&#45;&gt;2008 -->
<g id="edge4" class="edge"><title>2007&#45;&gt;2008</title>
<path fill="none" stroke="black" d="M52,-605.937C52,-597.807 52,-587.876 52,-578.705"/>
<polygon fill="black" stroke="black" points="55.5001,-578.441 52,-568.441 48.5001,-578.441 55.5001,-578.441"/>
</g>
<!-- 2009 -->
<g id="node6" class="node"><title>2009</title>
<text text-anchor="middle" x="52" y="-472.2" font-family="Times,serif" font-size="16.00">2009</text>
</g>
<!-- 2008&#45;&gt;2009 -->
<g id="edge5" class="edge"><title>2008&#45;&gt;2009</title>
<path fill="none" stroke="black" d="M52,-531.937C52,-523.807 52,-513.876 52,-504.705"/>
<polygon fill="black" stroke="black" points="55.5001,-504.441 52,-494.441 48.5001,-504.441 55.5001,-504.441"/>
</g>
<!-- 2010 -->
<g id="node7" class="node"><title>2010</title>
<text text-anchor="middle" x="52" y="-398.2" font-family="Times,serif" font-size="16.00">2010</text>
</g>
<!-- 2009&#45;&gt;2010 -->
<g id="edge6" class="edge"><title>2009&#45;&gt;2010</title>
<path fill="none" stroke="black" d="M52,-457.937C52,-449.807 52,-439.876 52,-430.705"/>
<polygon fill="black" stroke="black" points="55.5001,-430.441 52,-420.441 48.5001,-430.441 55.5001,-430.441"/>
</g>
<!-- 2011 -->
<g id="node8" class="node"><title>2011</title>
<text text-anchor="middle" x="52" y="-310.2" font-family="Times,serif" font-size="16.00">2011</text>
</g>
<!-- 2010&#45;&gt;2011 -->
<g id="edge7" class="edge"><title>2010&#45;&gt;2011</title>
<path fill="none" stroke="black" d="M52,-383.597C52,-371.746 52,-355.817 52,-342.292"/>
<polygon fill="black" stroke="black" points="55.5001,-342.084 52,-332.084 48.5001,-342.084 55.5001,-342.084"/>
</g>
<!-- 2012 -->
<g id="node9" class="node"><title>2012</title>
<text text-anchor="middle" x="52" y="-236.2" font-family="Times,serif" font-size="16.00">2012</text>
</g>
<!-- 2011&#45;&gt;2012 -->
<g id="edge8" class="edge"><title>2011&#45;&gt;2012</title>
<path fill="none" stroke="black" d="M52,-295.937C52,-287.807 52,-277.876 52,-268.705"/>
<polygon fill="black" stroke="black" points="55.5001,-268.441 52,-258.441 48.5001,-268.441 55.5001,-268.441"/>
</g>
<!-- 2013 -->
<g id="node10" class="node"><title>2013</title>
<text text-anchor="middle" x="52" y="-162.2" font-family="Times,serif" font-size="16.00">2013</text>
</g>
<!-- 2012&#45;&gt;2013 -->
<g id="edge9" class="edge"><title>2012&#45;&gt;2013</title>
<path fill="none" stroke="black" d="M52,-221.937C52,-213.807 52,-203.876 52,-194.705"/>
<polygon fill="black" stroke="black" points="55.5001,-194.441 52,-184.441 48.5001,-194.441 55.5001,-194.441"/>
</g>
<!-- 2014 -->
<g id="node11" class="node"><title>2014</title>
<text text-anchor="middle" x="52" y="-88.2" font-family="Times,serif" font-size="16.00">2014</text>
</g>
<!-- 2013&#45;&gt;2014 -->
<g id="edge10" class="edge"><title>2013&#45;&gt;2014</title>
<path fill="none" stroke="black" d="M52,-147.937C52,-139.807 52,-129.876 52,-120.705"/>
<polygon fill="black" stroke="black" points="55.5001,-120.441 52,-110.441 48.5001,-120.441 55.5001,-120.441"/>
</g>
<!-- unknowndate -->
<g id="node12" class="node"><title>unknowndate</title>
<text text-anchor="middle" x="52" y="-14.2" font-family="Times,serif" font-size="16.00">unknowndate</text>
</g>
<!-- 2014&#45;&gt;unknowndate -->
<g id="edge11" class="edge"><title>2014&#45;&gt;unknowndate</title>
<path fill="none" stroke="black" d="M52,-73.937C52,-65.8072 52,-55.8761 52,-46.7047"/>
<polygon fill="black" stroke="black" points="55.5001,-46.4406 52,-36.4407 48.5001,-46.4407 55.5001,-46.4406"/>
</g>
<!-- livejournal -->
<g id="node13" class="node"><title>livejournal</title>
<polygon fill="none" stroke="black" points="218.25,-864 143.75,-864 143.75,-828 218.25,-828 218.25,-864"/>
<text text-anchor="middle" x="181" y="-842.3" font-family="Times,serif" font-size="14.00">livejournal</text>
</g>
<!-- dreamwidth -->
<g id="node25" class="node"><title>dreamwidth</title>
<ellipse fill="none" stroke="black" cx="222" cy="-550" rx="52.9443" ry="18"/>
<text text-anchor="middle" x="222" y="-546.3" font-family="Times,serif" font-size="14.00">dreamwidth</text>
</g>
<!-- livejournal&#45;&gt;dreamwidth -->
<g id="edge45" class="edge"><title>livejournal&#45;&gt;dreamwidth</title>
<path fill="none" stroke="black" d="M190.978,-827.871C198.31,-813.66 207,-792.669 207,-773 207,-773 207,-773 207,-623 207,-607.887 210.206,-591.358 213.654,-577.953"/>
<polygon fill="black" stroke="black" points="217.126,-578.53 216.415,-567.959 210.379,-576.666 217.126,-578.53"/>
</g>
<!-- otw -->
<g id="node26" class="node"><title>otw</title>
<ellipse fill="none" stroke="black" cx="124" cy="-550" rx="27" ry="18"/>
<text text-anchor="middle" x="124" y="-546.3" font-family="Times,serif" font-size="14.00">otw</text>
</g>
<!-- livejournal&#45;&gt;otw -->
<g id="edge46" class="edge"><title>livejournal&#45;&gt;otw</title>
<path fill="none" stroke="black" d="M170.638,-827.918C163.024,-813.735 154,-792.758 154,-773 154,-773 154,-773 154,-623 154,-606.437 147.152,-589.265 139.999,-575.847"/>
<polygon fill="black" stroke="black" points="142.831,-573.748 134.831,-566.802 136.753,-577.221 142.831,-573.748"/>
</g>
<!-- wiscon -->
<g id="node14" class="node"><title>wiscon</title>
<ellipse fill="none" stroke="black" cx="352" cy="-846" rx="35.6194" ry="18"/>
<text text-anchor="middle" x="352" y="-842.3" font-family="Times,serif" font-size="14.00">wiscon</text>
</g>
<!-- racefail -->
<g id="node28" class="node"><title>racefail</title>
<polygon fill="none" stroke="black" points="568,-494 515.911,-476 568,-458 620.089,-476 568,-494"/>
<text text-anchor="middle" x="568" y="-472.3" font-family="Times,serif" font-size="14.00">racefail</text>
</g>
<!-- wiscon&#45;&gt;racefail -->
<g id="edge44" class="edge"><title>wiscon&#45;&gt;racefail</title>
<path fill="none" stroke="black" d="M384.112,-838.371C416.58,-829.569 462,-810.546 462,-773 462,-773 462,-773 462,-549 462,-515.821 497.976,-496.864 528.011,-486.819"/>
<polygon fill="black" stroke="black" points="529.396,-490.054 537.908,-483.747 527.32,-483.369 529.396,-490.054"/>
</g>
<!-- adacamp -->
<g id="node39" class="node"><title>adacamp</title>
<ellipse fill="none" stroke="black" cx="746" cy="-240" rx="42.3701" ry="18"/>
<text text-anchor="middle" x="746" y="-236.3" font-family="Times,serif" font-size="14.00">adacamp</text>
</g>
<!-- wiscon&#45;&gt;adacamp -->
<g id="edge26" class="edge"><title>wiscon&#45;&gt;adacamp</title>
<path fill="none" stroke="black" d="M336.966,-829.561C325.265,-815.868 311,-794.721 311,-773 311,-773 311,-773 311,-313 311,-289.949 337.523,-301.112 360,-296 505.682,-262.869 548.026,-289.82 694,-258 697.648,-257.205 701.402,-256.253 705.144,-255.211"/>
<polygon fill="black" stroke="black" points="706.354,-258.503 714.936,-252.29 704.352,-251.795 706.354,-258.503"/>
<text text-anchor="middle" x="347.5" y="-546.3" font-family="Times,serif" font-size="14.00">a11y policies</text>
</g>
<!-- linuxconfau -->
<g id="node15" class="node"><title>linuxconfau</title>
<polygon fill="none" stroke="black" points="526.25,-864 445.75,-864 445.75,-828 526.25,-828 526.25,-864"/>
<text text-anchor="middle" x="486" y="-842.3" font-family="Times,serif" font-size="14.00">linuxconfau</text>
</g>
<!-- haecksen -->
<g id="node22" class="node"><title>haecksen</title>
<ellipse fill="none" stroke="black" cx="961" cy="-624" rx="42.3456" ry="18"/>
<text text-anchor="middle" x="961" y="-620.3" font-family="Times,serif" font-size="14.00">haecksen</text>
</g>
<!-- linuxconfau&#45;&gt;haecksen -->
<g id="edge37" class="edge"><title>linuxconfau&#45;&gt;haecksen</title>
<path fill="none" stroke="black" d="M526.515,-842.856C631.972,-836.893 908.857,-818.639 938,-790 974.518,-754.112 971.529,-688.958 966.21,-652.174"/>
<polygon fill="black" stroke="black" points="969.644,-651.484 964.602,-642.166 962.733,-652.594 969.644,-651.484"/>
</g>
<!-- adainitiative -->
<g id="node36" class="node"><title>adainitiative</title>
<ellipse fill="none" stroke="black" cx="423" cy="-314" rx="53.4184" ry="18"/>
<text text-anchor="middle" x="423" y="-310.3" font-family="Times,serif" font-size="14.00">adainitiative</text>
</g>
<!-- linuxconfau&#45;&gt;adainitiative -->
<g id="edge16" class="edge"><title>linuxconfau&#45;&gt;adainitiative</title>
<path fill="none" stroke="black" d="M451.6,-827.895C432.275,-815.62 412,-797.019 412,-773 412,-773 412,-773 412,-586 412,-544.059 396.467,-535.583 391,-494 387.87,-470.188 389.445,-464.012 389,-440 388.539,-415.115 385.452,-408.635 389,-384 391.245,-368.41 392.24,-364.227 399,-350 400.533,-346.775 402.345,-343.516 404.277,-340.352"/>
<polygon fill="black" stroke="black" points="407.334,-342.073 409.902,-331.794 401.485,-338.228 407.334,-342.073"/>
</g>
<!-- linuxchix -->
<g id="node16" class="node"><title>linuxchix</title>
<ellipse fill="none" stroke="black" cx="570" cy="-772" rx="44.2946" ry="18"/>
<text text-anchor="middle" x="570" y="-768.3" font-family="Times,serif" font-size="14.00">linuxchix</text>
</g>
<!-- debianwomen -->
<g id="node19" class="node"><title>debianwomen</title>
<ellipse fill="none" stroke="black" cx="710" cy="-772" rx="60.1672" ry="18"/>
<text text-anchor="middle" x="710" y="-768.3" font-family="Times,serif" font-size="14.00">debianwomen</text>
</g>
<!-- linuxchix&#45;&gt;debianwomen -->
<g id="edge30" class="edge"><title>linuxchix&#45;&gt;debianwomen</title>
<path fill="none" stroke="black" d="M614.297,-772C622.625,-772 630.952,-772 639.28,-772"/>
<polygon fill="black" stroke="black" points="639.438,-775.5 649.438,-772 639.438,-768.5 639.438,-775.5"/>
</g>
<!-- linuxchix&#45;&gt;haecksen -->
<g id="edge36" class="edge"><title>linuxchix&#45;&gt;haecksen</title>
<path fill="none" stroke="black" d="M601.336,-759.299C671.806,-732.986 842.704,-669.172 920.827,-640.001"/>
<polygon fill="black" stroke="black" points="922.183,-643.23 930.327,-636.453 919.735,-636.673 922.183,-643.23"/>
</g>
<!-- geekfeminism -->
<g id="node24" class="node"><title>geekfeminism</title>
<ellipse fill="none" stroke="black" cx="568" cy="-550" rx="61.6163" ry="18"/>
<text text-anchor="middle" x="568" y="-546.3" font-family="Times,serif" font-size="14.00">geekfeminism</text>
</g>
<!-- linuxchix&#45;&gt;geekfeminism -->
<g id="edge12" class="edge"><title>linuxchix&#45;&gt;geekfeminism</title>
<path fill="none" stroke="black" d="M569.843,-753.737C569.497,-715.664 568.666,-624.231 568.248,-578.301"/>
<polygon fill="black" stroke="black" points="571.747,-578.151 568.156,-568.183 564.747,-578.214 571.747,-578.151"/>
</g>
<!-- gnomewomen -->
<g id="node17" class="node"><title>gnomewomen</title>
<ellipse fill="none" stroke="black" cx="1048" cy="-772" rx="61.6163" ry="18"/>
<text text-anchor="middle" x="1048" y="-768.3" font-family="Times,serif" font-size="14.00">gnomewomen</text>
</g>
<!-- opw -->
<g id="node21" class="node"><title>opw</title>
<ellipse fill="none" stroke="black" cx="1048" cy="-698" rx="27" ry="18"/>
<text text-anchor="middle" x="1048" y="-694.3" font-family="Times,serif" font-size="14.00">opw</text>
</g>
<!-- gnomewomen&#45;&gt;opw -->
<g id="edge34" class="edge"><title>gnomewomen&#45;&gt;opw</title>
<path fill="none" stroke="black" d="M1048,-753.937C1048,-745.807 1048,-735.876 1048,-726.705"/>
<polygon fill="black" stroke="black" points="1051.5,-726.441 1048,-716.441 1044.5,-726.441 1051.5,-726.441"/>
</g>
<!-- ubuntuwomen -->
<g id="node18" class="node"><title>ubuntuwomen</title>
<ellipse fill="none" stroke="black" cx="868" cy="-772" rx="61.6163" ry="18"/>
<text text-anchor="middle" x="868" y="-768.3" font-family="Times,serif" font-size="14.00">ubuntuwomen</text>
</g>
<!-- debianwomen&#45;&gt;gnomewomen -->
<g id="edge32" class="edge"><title>debianwomen&#45;&gt;gnomewomen</title>
<path fill="none" stroke="black" d="M741.574,-787.556C759.898,-795.713 783.698,-804.851 806,-809 874.601,-821.762 894.687,-823.224 963,-809 979.027,-805.663 995.738,-799.136 1010.06,-792.482"/>
<polygon fill="black" stroke="black" points="1011.61,-795.62 1019.09,-788.122 1008.56,-789.316 1011.61,-795.62"/>
</g>
<!-- debianwomen&#45;&gt;ubuntuwomen -->
<g id="edge31" class="edge"><title>debianwomen&#45;&gt;ubuntuwomen</title>
<path fill="none" stroke="black" d="M770.484,-772C779.063,-772 787.642,-772 796.22,-772"/>
<polygon fill="black" stroke="black" points="796.291,-775.5 806.291,-772 796.291,-768.5 796.291,-775.5"/>
</g>
<!-- gsoc -->
<g id="node20" class="node"><title>gsoc</title>
<polygon fill="none" stroke="black" points="1373,-716 1319,-716 1319,-680 1373,-680 1373,-716"/>
<text text-anchor="middle" x="1346" y="-694.3" font-family="Times,serif" font-size="14.00">gsoc</text>
</g>
<!-- gsoc&#45;&gt;opw -->
<g id="edge35" class="edge"><title>gsoc&#45;&gt;opw</title>
<path fill="none" stroke="black" d="M1318.75,-698C1241.01,-698 1163.27,-698 1085.54,-698"/>
<polygon fill="black" stroke="black" points="1085.06,-694.5 1075.06,-698 1085.06,-701.5 1085.06,-694.5"/>
</g>
<!-- rgsoc -->
<g id="node42" class="node"><title>rgsoc</title>
<ellipse fill="none" stroke="black" cx="1328" cy="-166" rx="29.3479" ry="18"/>
<text text-anchor="middle" x="1328" y="-162.3" font-family="Times,serif" font-size="14.00">rgsoc</text>
</g>
<!-- gsoc&#45;&gt;rgsoc -->
<g id="edge43" class="edge"><title>gsoc&#45;&gt;rgsoc</title>
<path fill="none" stroke="black" d="M1346,-679.834C1346,-665.247 1346,-643.75 1346,-625 1346,-625 1346,-625 1346,-239 1346,-223.496 1342.02,-206.66 1337.81,-193.169"/>
<polygon fill="black" stroke="black" points="1341.09,-191.955 1334.6,-183.582 1334.45,-194.176 1341.09,-191.955"/>
</g>
<!-- owoot -->
<g id="node38" class="node"><title>owoot</title>
<ellipse fill="none" stroke="black" cx="957" cy="-314" rx="32.2457" ry="18"/>
<text text-anchor="middle" x="957" y="-310.3" font-family="Times,serif" font-size="14.00">owoot</text>
</g>
<!-- haecksen&#45;&gt;owoot -->
<g id="edge33" class="edge"><title>haecksen&#45;&gt;owoot</title>
<path fill="none" stroke="black" d="M963.607,-605.879C965.597,-591.32 968,-569.838 968,-551 968,-551 968,-551 968,-401 968,-381.244 965.109,-359.14 962.291,-342.289"/>
<polygon fill="black" stroke="black" points="965.668,-341.289 960.48,-332.051 958.775,-342.507 965.668,-341.289"/>
</g>
<!-- haecksen&#45;&gt;adacamp -->
<g id="edge38" class="edge"><title>haecksen&#45;&gt;adacamp</title>
<path fill="none" stroke="black" d="M982.171,-608.146C998.029,-595.115 1017,-574.595 1017,-551 1017,-551 1017,-551 1017,-313 1017,-268.1 876.288,-250.523 797.652,-244.206"/>
<polygon fill="black" stroke="black" points="797.693,-240.699 787.454,-243.422 797.156,-247.678 797.693,-240.699"/>
</g>
<!-- SFF CAHP -->
<g id="node23" class="node"><title>SFF CAHP</title>
<ellipse fill="none" stroke="black" cx="802" cy="-550" rx="51.0191" ry="18"/>
<text text-anchor="middle" x="802" y="-546.3" font-family="Times,serif" font-size="14.00">SFF CAHP</text>
</g>
<!-- backupproject -->
<g id="node32" class="node"><title>backupproject</title>
<ellipse fill="none" stroke="black" cx="742" cy="-476" rx="60.1672" ry="18"/>
<text text-anchor="middle" x="742" y="-472.3" font-family="Times,serif" font-size="14.00">backupproject</text>
</g>
<!-- SFF CAHP&#45;&gt;backupproject -->
<g id="edge22" class="edge"><title>SFF CAHP&#45;&gt;backupproject</title>
<path fill="none" stroke="black" d="M788.084,-532.301C780.435,-523.123 770.807,-511.568 762.331,-501.397"/>
<polygon fill="black" stroke="black" points="764.931,-499.05 755.841,-493.609 759.554,-503.532 764.931,-499.05"/>
</g>
<!-- GF/TAI AHP -->
<g id="node37" class="node"><title>GF/TAI AHP</title>
<ellipse fill="none" stroke="black" cx="612" cy="-314" rx="59.2173" ry="18"/>
<text text-anchor="middle" x="612" y="-310.3" font-family="Times,serif" font-size="14.00">GF/TAI AHP</text>
</g>
<!-- SFF CAHP&#45;&gt;GF/TAI AHP -->
<g id="edge20" class="edge"><title>SFF CAHP&#45;&gt;GF/TAI AHP</title>
<path fill="none" stroke="black" d="M809.681,-532.132C823.05,-499.974 846.245,-429.089 814,-384 783.774,-341.735 726.062,-325.069 680.04,-318.639"/>
<polygon fill="black" stroke="black" points="680.474,-315.166 670.113,-317.383 679.595,-322.11 680.474,-315.166"/>
</g>
<!-- geekfeminism&#45;&gt;adainitiative -->
<g id="edge15" class="edge"><title>geekfeminism&#45;&gt;adainitiative</title>
<path fill="none" stroke="black" d="M509.821,-544.209C475.422,-538.112 434.179,-524.449 411,-494 377.057,-449.411 396.753,-379.08 411.457,-341.216"/>
<polygon fill="black" stroke="black" points="414.727,-342.467 415.238,-331.884 408.239,-339.838 414.727,-342.467"/>
</g>
<!-- geekfeminism&#45;&gt;GF/TAI AHP -->
<g id="edge18" class="edge"><title>geekfeminism&#45;&gt;GF/TAI AHP</title>
<path fill="none" stroke="black" d="M593.225,-533.398C606.359,-523.79 621.257,-510.213 629,-494 652.793,-444.177 635.594,-377.755 622.688,-341.453"/>
<polygon fill="black" stroke="black" points="625.96,-340.209 619.2,-332.052 619.397,-342.645 625.96,-340.209"/>
</g>
<!-- oscon2009 -->
<g id="node27" class="node"><title>oscon2009</title>
<ellipse fill="none" stroke="black" cx="222" cy="-476" rx="48.6179" ry="18"/>
<text text-anchor="middle" x="222" y="-472.3" font-family="Times,serif" font-size="14.00">oscon2009</text>
</g>
<!-- dreamwidth&#45;&gt;oscon2009 -->
<g id="edge47" class="edge"><title>dreamwidth&#45;&gt;oscon2009</title>
<path fill="none" stroke="black" d="M222,-531.937C222,-523.807 222,-513.876 222,-504.705"/>
<polygon fill="black" stroke="black" points="225.5,-504.441 222,-494.441 218.5,-504.441 225.5,-504.441"/>
</g>
<!-- otw&#45;&gt;oscon2009 -->
<g id="edge48" class="edge"><title>otw&#45;&gt;oscon2009</title>
<path fill="none" stroke="black" d="M141.52,-536.128C155.773,-525.657 176.187,-510.658 192.889,-498.388"/>
<polygon fill="black" stroke="black" points="195.245,-501 201.232,-492.258 191.101,-495.359 195.245,-501"/>
</g>
<!-- oscon2009&#45;&gt;geekfeminism -->
<g id="edge49" class="edge"><title>oscon2009&#45;&gt;geekfeminism</title>
<path fill="none" stroke="black" d="M260.327,-487.096C290.758,-494.941 334.451,-505.826 373,-514 417.168,-523.366 467.312,-532.329 505.69,-538.84"/>
<polygon fill="black" stroke="black" points="505.242,-542.314 515.684,-540.526 506.406,-535.411 505.242,-542.314"/>
</g>
<!-- racefail&#45;&gt;geekfeminism -->
<g id="edge13" class="edge"><title>racefail&#45;&gt;geekfeminism</title>
<path fill="none" stroke="black" d="M568,-494.441C568,-502.625 568,-512.572 568,-521.719"/>
<polygon fill="black" stroke="black" points="564.5,-521.937 568,-531.937 571.5,-521.937 564.5,-521.937"/>
</g>
<!-- couchdb -->
<g id="node29" class="node"><title>couchdb</title>
<polygon fill="none" stroke="black" points="1102,-494 1045.52,-476 1102,-458 1158.48,-476 1102,-494"/>
<text text-anchor="middle" x="1102" y="-472.3" font-family="Times,serif" font-size="14.00">couchdb</text>
</g>
<!-- railsbridge -->
<g id="node30" class="node"><title>railsbridge</title>
<ellipse fill="none" stroke="black" cx="1243" cy="-476" rx="48.1437" ry="18"/>
<text text-anchor="middle" x="1243" y="-472.3" font-family="Times,serif" font-size="14.00">railsbridge</text>
</g>
<!-- couchdb&#45;&gt;railsbridge -->
<g id="edge39" class="edge"><title>couchdb&#45;&gt;railsbridge</title>
<path fill="none" stroke="black" d="M1158.73,-476C1167.41,-476 1176.08,-476 1184.76,-476"/>
<polygon fill="black" stroke="black" points="1184.94,-479.5 1194.94,-476 1184.94,-472.5 1184.94,-479.5"/>
</g>
<!-- railsgirls -->
<g id="node40" class="node"><title>railsgirls</title>
<ellipse fill="none" stroke="black" cx="1276" cy="-240" rx="41.394" ry="18"/>
<text text-anchor="middle" x="1276" y="-236.3" font-family="Times,serif" font-size="14.00">railsgirls</text>
</g>
<!-- railsbridge&#45;&gt;railsgirls -->
<g id="edge41" class="edge"><title>railsbridge&#45;&gt;railsgirls</title>
<path fill="none" stroke="black" d="M1248.06,-457.799C1251.05,-447.024 1254.7,-432.802 1257,-420 1266.58,-366.617 1271.9,-303.349 1274.34,-268.132"/>
<polygon fill="black" stroke="black" points="1277.83,-268.356 1275,-258.145 1270.85,-267.89 1277.83,-268.356"/>
</g>
<!-- pystar -->
<g id="node46" class="node"><title>pystar</title>
<ellipse fill="none" stroke="black" cx="1216" cy="-402" rx="32.2457" ry="18"/>
<text text-anchor="middle" x="1216" y="-398.3" font-family="Times,serif" font-size="14.00">pystar</text>
</g>
<!-- railsbridge&#45;&gt;pystar -->
<g id="edge40" class="edge"><title>railsbridge&#45;&gt;pystar</title>
<path fill="none" stroke="black" d="M1236.6,-457.937C1233.41,-449.419 1229.47,-438.923 1225.9,-429.395"/>
<polygon fill="black" stroke="black" points="1229.14,-428.075 1222.35,-419.941 1222.59,-430.533 1229.14,-428.075"/>
</g>
<!-- osbp -->
<g id="node31" class="node"><title>osbp</title>
<polygon fill="none" stroke="black" points="459,-494 420.594,-476 459,-458 497.406,-476 459,-494"/>
<text text-anchor="middle" x="459" y="-472.3" font-family="Times,serif" font-size="14.00">osbp</text>
</g>
<!-- osbp&#45;&gt;backupproject -->
<g id="edge21" class="edge"><title>osbp&#45;&gt;backupproject</title>
<path fill="none" stroke="black" d="M472.38,-487.915C483.267,-496.763 499.484,-508.11 516,-513 576.514,-530.918 596.242,-525.999 658,-513 673.837,-509.667 690.33,-503.154 704.464,-496.511"/>
<polygon fill="black" stroke="black" points="706.39,-499.465 713.836,-491.927 703.315,-493.176 706.39,-499.465"/>
</g>
<!-- backupribbons -->
<g id="node35" class="node"><title>backupribbons</title>
<ellipse fill="none" stroke="black" cx="743" cy="-402" rx="62.0922" ry="18"/>
<text text-anchor="middle" x="743" y="-398.3" font-family="Times,serif" font-size="14.00">backupribbons</text>
</g>
<!-- backupproject&#45;&gt;backupribbons -->
<g id="edge23" class="edge"><title>backupproject&#45;&gt;backupribbons</title>
<path fill="none" stroke="black" d="M742.237,-457.937C742.35,-449.807 742.488,-439.876 742.615,-430.705"/>
<polygon fill="black" stroke="black" points="746.118,-430.488 742.758,-420.441 739.119,-430.391 746.118,-430.488"/>
</g>
<!-- osbridge -->
<g id="node33" class="node"><title>osbridge</title>
<ellipse fill="none" stroke="black" cx="899" cy="-476" rx="40.4202" ry="18"/>
<text text-anchor="middle" x="899" y="-472.3" font-family="Times,serif" font-size="14.00">osbridge</text>
</g>
<!-- apachecon assault -->
<g id="node34" class="node"><title>apachecon assault</title>
<polygon fill="none" stroke="black" points="520,-420 415.823,-402 520,-384 624.177,-402 520,-420"/>
<text text-anchor="middle" x="520" y="-398.3" font-family="Times,serif" font-size="14.00">apachecon assault</text>
</g>
<!-- apachecon assault&#45;&gt;adainitiative -->
<g id="edge14" class="edge"><title>apachecon assault&#45;&gt;adainitiative</title>
<path fill="none" stroke="black" d="M503.545,-386.411C488.546,-373.113 466.145,-353.252 448.772,-337.849"/>
<polygon fill="black" stroke="black" points="450.993,-335.141 441.188,-331.125 446.349,-340.378 450.993,-335.141"/>
</g>
<!-- apachecon assault&#45;&gt;GF/TAI AHP -->
<g id="edge17" class="edge"><title>apachecon assault&#45;&gt;GF/TAI AHP</title>
<path fill="none" stroke="black" d="M535.607,-386.411C549.616,-373.315 570.435,-353.855 586.802,-338.555"/>
<polygon fill="black" stroke="black" points="589.515,-340.81 594.43,-331.424 584.734,-335.696 589.515,-340.81"/>
</g>
<!-- adainitiative&#45;&gt;GF/TAI AHP -->
<g id="edge19" class="edge"><title>adainitiative&#45;&gt;GF/TAI AHP</title>
<path fill="none" stroke="black" d="M476.525,-314C498.553,-314 520.581,-314 542.609,-314"/>
<polygon fill="black" stroke="black" points="542.73,-317.5 552.73,-314 542.73,-310.5 542.73,-317.5"/>
</g>
<!-- adainitiative&#45;&gt;adacamp -->
<g id="edge25" class="edge"><title>adainitiative&#45;&gt;adacamp</title>
<path fill="none" stroke="black" d="M469.894,-305.184C524.227,-295.737 616.251,-278.525 694,-258 697.409,-257.1 700.923,-256.103 704.44,-255.057"/>
<polygon fill="black" stroke="black" points="705.754,-258.315 714.273,-252.017 703.686,-251.627 705.754,-258.315"/>
</g>
<!-- PyCon AHP -->
<g id="node44" class="node"><title>PyCon AHP</title>
<ellipse fill="none" stroke="black" cx="286" cy="-240" rx="54.3924" ry="18"/>
<text text-anchor="middle" x="286" y="-236.3" font-family="Times,serif" font-size="14.00">PyCon AHP</text>
</g>
<!-- GF/TAI AHP&#45;&gt;PyCon AHP -->
<g id="edge24" class="edge"><title>GF/TAI AHP&#45;&gt;PyCon AHP</title>
<path fill="none" stroke="black" d="M565.638,-302.761C506.109,-289.613 402.992,-266.839 339.99,-252.924"/>
<polygon fill="black" stroke="black" points="340.375,-249.425 329.855,-250.686 338.865,-256.26 340.375,-249.425"/>
</g>
<!-- adacamp&#45;&gt;osbridge -->
<g id="edge27" class="edge"><title>adacamp&#45;&gt;osbridge</title>
<path fill="none" stroke="black" d="M763.743,-256.445C785.674,-276.291 823.026,-312.66 847,-350 867.179,-381.429 882.343,-422.003 890.942,-448.26"/>
<polygon fill="black" stroke="black" points="887.644,-449.439 894.016,-457.904 894.314,-447.313 887.644,-449.439"/>
<text text-anchor="middle" x="892.5" y="-354.3" font-family="Times,serif" font-size="14.00">a11y policies</text>
</g>
<!-- doubleunion -->
<g id="node41" class="node"><title>doubleunion</title>
<ellipse fill="none" stroke="black" cx="629" cy="-166" rx="54.3924" ry="18"/>
<text text-anchor="middle" x="629" y="-162.3" font-family="Times,serif" font-size="14.00">doubleunion</text>
</g>
<!-- adacamp&#45;&gt;doubleunion -->
<g id="edge28" class="edge"><title>adacamp&#45;&gt;doubleunion</title>
<path fill="none" stroke="black" d="M722.885,-224.775C705.559,-214.113 681.601,-199.37 662.224,-187.445"/>
<polygon fill="black" stroke="black" points="664.034,-184.45 653.683,-182.19 660.365,-190.411 664.034,-184.45"/>
</g>
<!-- railsgirls&#45;&gt;rgsoc -->
<g id="edge42" class="edge"><title>railsgirls&#45;&gt;rgsoc</title>
<path fill="none" stroke="black" d="M1287.8,-222.662C1294.54,-213.327 1303.12,-201.447 1310.62,-191.062"/>
<polygon fill="black" stroke="black" points="1313.59,-192.934 1316.6,-182.778 1307.91,-188.836 1313.59,-192.934"/>
</g>
<!-- mvc -->
<g id="node43" class="node"><title>mvc</title>
<ellipse fill="none" stroke="black" cx="124" cy="-92" rx="27" ry="18"/>
<text text-anchor="middle" x="124" y="-88.3" font-family="Times,serif" font-size="14.00">mvc</text>
</g>
<!-- mothershiphackermoms -->
<g id="node45" class="node"><title>mothershiphackermoms</title>
<ellipse fill="none" stroke="black" cx="589" cy="-240" rx="96.2631" ry="18"/>
<text text-anchor="middle" x="589" y="-236.3" font-family="Times,serif" font-size="14.00">mothershiphackermoms</text>
</g>
<!-- mothershiphackermoms&#45;&gt;doubleunion -->
<g id="edge29" class="edge"><title>mothershiphackermoms&#45;&gt;doubleunion</title>
<path fill="none" stroke="black" d="M598.479,-221.937C603.311,-213.239 609.289,-202.48 614.67,-192.795"/>
<polygon fill="black" stroke="black" points="617.792,-194.382 619.589,-183.941 611.673,-190.982 617.792,-194.382"/>
</g>
</g>
</svg>
