<?xml version="1.0" encoding="UTF-8" standalone="no"?>
<!DOCTYPE svg PUBLIC "-//W3C//DTD SVG 1.1//EN"
 "http://www.w3.org/Graphics/SVG/1.1/DTD/svg11.dtd">
<!-- Generated by graphviz version 2.38.0 (20140413.2041)
 -->
<!-- Title: GeekFeminismFamilyTree Pages: 1 -->
<svg width="2098pt" height="860pt"
 viewBox="0.00 0.00 2098.13 860.00" xmlns="http://www.w3.org/2000/svg" xmlns:xlink="http://www.w3.org/1999/xlink">
<g id="graph0" class="graph" transform="scale(1 1) rotate(0) translate(4 856)">
<title>GeekFeminismFamilyTree</title>
<polygon fill="white" stroke="none" points="-4,4 -4,-856 2094.13,-856 2094.13,4 -4,4"/>
<!-- past -->
<g id="node1" class="node"><title>past</title>
<text text-anchor="middle" x="51.1016" y="-829.2" font-family="Times,serif" font-size="16.00">past</text>
</g>
<!-- 2000&#45;2003 -->
<g id="node2" class="node"><title>2000&#45;2003</title>
<text text-anchor="middle" x="51.1016" y="-756.2" font-family="Times,serif" font-size="16.00">2000&#45;2003</text>
</g>
<!-- past&#45;&gt;2000&#45;2003 -->
<g id="edge1" class="edge"><title>past&#45;&gt;2000&#45;2003</title>
<path fill="none" stroke="black" d="M51.1016,-815.813C51.1016,-807.789 51.1016,-798.047 51.1016,-789.069"/>
<polygon fill="black" stroke="black" points="54.6017,-789.029 51.1016,-779.029 47.6017,-789.029 54.6017,-789.029"/>
</g>
<!-- 2004&#45;2006 -->
<g id="node3" class="node"><title>2004&#45;2006</title>
<text text-anchor="middle" x="51.1016" y="-683.2" font-family="Times,serif" font-size="16.00">2004&#45;2006</text>
</g>
<!-- 2000&#45;2003&#45;&gt;2004&#45;2006 -->
<g id="edge2" class="edge"><title>2000&#45;2003&#45;&gt;2004&#45;2006</title>
<path fill="none" stroke="black" d="M51.1016,-742.813C51.1016,-734.789 51.1016,-725.047 51.1016,-716.069"/>
<polygon fill="black" stroke="black" points="54.6017,-716.029 51.1016,-706.029 47.6017,-716.029 54.6017,-716.029"/>
</g>
<!-- 2007 -->
<g id="node4" class="node"><title>2007</title>
<text text-anchor="middle" x="51.1016" y="-610.2" font-family="Times,serif" font-size="16.00">2007</text>
</g>
<!-- 2004&#45;2006&#45;&gt;2007 -->
<g id="edge3" class="edge"><title>2004&#45;2006&#45;&gt;2007</title>
<path fill="none" stroke="black" d="M51.1016,-669.813C51.1016,-661.789 51.1016,-652.047 51.1016,-643.069"/>
<polygon fill="black" stroke="black" points="54.6017,-643.029 51.1016,-633.029 47.6017,-643.029 54.6017,-643.029"/>
</g>
<!-- 2008 -->
<g id="node5" class="node"><title>2008</title>
<text text-anchor="middle" x="51.1016" y="-537.2" font-family="Times,serif" font-size="16.00">2008</text>
</g>
<!-- 2007&#45;&gt;2008 -->
<g id="edge4" class="edge"><title>2007&#45;&gt;2008</title>
<path fill="none" stroke="black" d="M51.1016,-596.813C51.1016,-588.789 51.1016,-579.047 51.1016,-570.069"/>
<polygon fill="black" stroke="black" points="54.6017,-570.029 51.1016,-560.029 47.6017,-570.029 54.6017,-570.029"/>
</g>
<!-- 2009 -->
<g id="node6" class="node"><title>2009</title>
<text text-anchor="middle" x="51.1016" y="-464.2" font-family="Times,serif" font-size="16.00">2009</text>
</g>
<!-- 2008&#45;&gt;2009 -->
<g id="edge5" class="edge"><title>2008&#45;&gt;2009</title>
<path fill="none" stroke="black" d="M51.1016,-523.813C51.1016,-515.789 51.1016,-506.047 51.1016,-497.069"/>
<polygon fill="black" stroke="black" points="54.6017,-497.029 51.1016,-487.029 47.6017,-497.029 54.6017,-497.029"/>
</g>
<!-- 2010 -->
<g id="node7" class="node"><title>2010</title>
<text text-anchor="middle" x="51.1016" y="-391.2" font-family="Times,serif" font-size="16.00">2010</text>
</g>
<!-- 2009&#45;&gt;2010 -->
<g id="edge6" class="edge"><title>2009&#45;&gt;2010</title>
<path fill="none" stroke="black" d="M51.1016,-450.813C51.1016,-442.789 51.1016,-433.047 51.1016,-424.069"/>
<polygon fill="black" stroke="black" points="54.6017,-424.029 51.1016,-414.029 47.6017,-424.029 54.6017,-424.029"/>
</g>
<!-- 2011 -->
<g id="node8" class="node"><title>2011</title>
<text text-anchor="middle" x="51.1016" y="-305.2" font-family="Times,serif" font-size="16.00">2011</text>
</g>
<!-- 2010&#45;&gt;2011 -->
<g id="edge7" class="edge"><title>2010&#45;&gt;2011</title>
<path fill="none" stroke="black" d="M51.1016,-377.595C51.1016,-366.257 51.1016,-351.227 51.1016,-338.315"/>
<polygon fill="black" stroke="black" points="54.6017,-338.095 51.1016,-328.095 47.6017,-338.095 54.6017,-338.095"/>
</g>
<!-- 2012 -->
<g id="node9" class="node"><title>2012</title>
<text text-anchor="middle" x="51.1016" y="-232.2" font-family="Times,serif" font-size="16.00">2012</text>
</g>
<!-- 2011&#45;&gt;2012 -->
<g id="edge8" class="edge"><title>2011&#45;&gt;2012</title>
<path fill="none" stroke="black" d="M51.1016,-291.813C51.1016,-283.789 51.1016,-274.047 51.1016,-265.069"/>
<polygon fill="black" stroke="black" points="54.6017,-265.029 51.1016,-255.029 47.6017,-265.029 54.6017,-265.029"/>
</g>
<!-- 2013 -->
<g id="node10" class="node"><title>2013</title>
<text text-anchor="middle" x="51.1016" y="-159.2" font-family="Times,serif" font-size="16.00">2013</text>
</g>
<!-- 2012&#45;&gt;2013 -->
<g id="edge9" class="edge"><title>2012&#45;&gt;2013</title>
<path fill="none" stroke="black" d="M51.1016,-218.813C51.1016,-210.789 51.1016,-201.047 51.1016,-192.069"/>
<polygon fill="black" stroke="black" points="54.6017,-192.029 51.1016,-182.029 47.6017,-192.029 54.6017,-192.029"/>
</g>
<!-- 2014 -->
<g id="node11" class="node"><title>2014</title>
<text text-anchor="middle" x="51.1016" y="-86.2" font-family="Times,serif" font-size="16.00">2014</text>
</g>
<!-- 2013&#45;&gt;2014 -->
<g id="edge10" class="edge"><title>2013&#45;&gt;2014</title>
<path fill="none" stroke="black" d="M51.1016,-145.813C51.1016,-137.789 51.1016,-128.047 51.1016,-119.069"/>
<polygon fill="black" stroke="black" points="54.6017,-119.029 51.1016,-109.029 47.6017,-119.029 54.6017,-119.029"/>
</g>
<!-- unknowndate -->
<g id="node12" class="node"><title>unknowndate</title>
<text text-anchor="middle" x="51.1016" y="-13.2" font-family="Times,serif" font-size="16.00">unknowndate</text>
</g>
<!-- 2014&#45;&gt;unknowndate -->
<g id="edge11" class="edge"><title>2014&#45;&gt;unknowndate</title>
<path fill="none" stroke="black" d="M51.1016,-72.8129C51.1016,-64.7895 51.1016,-55.0475 51.1016,-46.0691"/>
<polygon fill="black" stroke="black" points="54.6017,-46.0288 51.1016,-36.0288 47.6017,-46.0289 54.6017,-46.0288"/>
</g>
<!-- livejournal -->
<g id="node13" class="node"><title>livejournal</title>
<polygon fill="none" stroke="black" points="331.251,-852 254.952,-852 254.952,-816 331.251,-816 331.251,-852"/>
<text text-anchor="middle" x="293.102" y="-829.8" font-family="Times,serif" font-size="14.00">livejournal</text>
</g>
<!-- dreamwidth -->
<g id="node29" class="node"><title>dreamwidth</title>
<ellipse fill="none" stroke="black" cx="365.102" cy="-542" rx="52.1934" ry="18"/>
<text text-anchor="middle" x="365.102" y="-537.8" font-family="Times,serif" font-size="14.00">dreamwidth</text>
</g>
<!-- livejournal&#45;&gt;dreamwidth -->
<g id="edge52" class="edge"><title>livejournal&#45;&gt;dreamwidth</title>
<path fill="none" stroke="black" d="M313.18,-815.87C326.333,-802.662 341.102,-783.128 341.102,-762 341.102,-762 341.102,-762 341.102,-614 341.102,-598.654 346.195,-582.379 351.689,-569.288"/>
<polygon fill="black" stroke="black" points="354.973,-570.52 355.891,-559.965 348.591,-567.644 354.973,-570.52"/>
</g>
<!-- otw -->
<g id="node30" class="node"><title>otw</title>
<ellipse fill="none" stroke="black" cx="268.102" cy="-542" rx="27" ry="18"/>
<text text-anchor="middle" x="268.102" y="-537.8" font-family="Times,serif" font-size="14.00">otw</text>
</g>
<!-- livejournal&#45;&gt;otw -->
<g id="edge53" class="edge"><title>livejournal&#45;&gt;otw</title>
<path fill="none" stroke="black" d="M288.187,-815.944C284.505,-801.66 280.102,-780.672 280.102,-762 280.102,-762 280.102,-762 280.102,-614 280.102,-599.204 277.536,-582.912 274.778,-569.671"/>
<polygon fill="black" stroke="black" points="278.167,-568.788 272.57,-559.793 271.336,-570.316 278.167,-568.788"/>
</g>
<!-- wiscon -->
<g id="node14" class="node"><title>wiscon</title>
<ellipse fill="none" stroke="black" cx="504.102" cy="-834" rx="35.3216" ry="18"/>
<text text-anchor="middle" x="504.102" y="-829.8" font-family="Times,serif" font-size="14.00">wiscon</text>
</g>
<!-- racefail -->
<g id="node32" class="node"><title>racefail</title>
<polygon fill="none" stroke="black" points="456.102,-487 404.548,-469 456.102,-451 507.655,-469 456.102,-487"/>
<text text-anchor="middle" x="456.102" y="-464.8" font-family="Times,serif" font-size="14.00">racefail</text>
</g>
<!-- wiscon&#45;&gt;racefail -->
<g id="edge51" class="edge"><title>wiscon&#45;&gt;racefail</title>
<path fill="none" stroke="black" d="M491.814,-817.049C482.431,-803.261 471.102,-782.389 471.102,-762 471.102,-762 471.102,-762 471.102,-541 471.102,-525.591 467.678,-508.7 464.102,-495.26"/>
<polygon fill="black" stroke="black" points="467.374,-493.971 461.264,-485.315 460.642,-495.892 467.374,-493.971"/>
</g>
<!-- adacamp -->
<g id="node44" class="node"><title>adacamp</title>
<ellipse fill="none" stroke="black" cx="789.102" cy="-237" rx="41.5593" ry="18"/>
<text text-anchor="middle" x="789.102" y="-232.8" font-family="Times,serif" font-size="14.00">adacamp</text>
</g>
<!-- wiscon&#45;&gt;adacamp -->
<g id="edge29" class="edge"><title>wiscon&#45;&gt;adacamp</title>
<path fill="none" stroke="black" d="M516.017,-816.993C525.115,-803.171 536.102,-782.281 536.102,-762 536.102,-762 536.102,-762 536.102,-309 536.102,-216.07 649.091,-281.706 738.102,-255 741.275,-254.048 744.549,-253.033 747.835,-251.991"/>
<polygon fill="black" stroke="black" points="749.201,-255.227 757.638,-248.819 747.046,-248.567 749.201,-255.227"/>
<text text-anchor="middle" x="572.975" y="-537.8" font-family="Times,serif" font-size="14.00">a11y policies</text>
</g>
<!-- linuxconfau -->
<g id="node15" class="node"><title>linuxconfau</title>
<polygon fill="none" stroke="black" points="1028.47,-852 945.732,-852 945.732,-816 1028.47,-816 1028.47,-852"/>
<text text-anchor="middle" x="987.102" y="-829.8" font-family="Times,serif" font-size="14.00">linuxconfau</text>
</g>
<!-- haecksen -->
<g id="node25" class="node"><title>haecksen</title>
<ellipse fill="none" stroke="black" cx="1178.1" cy="-615" rx="42.5283" ry="18"/>
<text text-anchor="middle" x="1178.1" y="-610.8" font-family="Times,serif" font-size="14.00">haecksen</text>
</g>
<!-- linuxconfau&#45;&gt;haecksen -->
<g id="edge44" class="edge"><title>linuxconfau&#45;&gt;haecksen</title>
<path fill="none" stroke="black" d="M1028.64,-824.842C1084.79,-811.282 1182.41,-778.116 1222.1,-706 1233.94,-684.496 1229.9,-671.946 1217.1,-651 1214.2,-646.245 1210.45,-641.761 1206.43,-637.692"/>
<polygon fill="black" stroke="black" points="1208.74,-635.062 1199.02,-630.845 1203.99,-640.203 1208.74,-635.062"/>
</g>
<!-- adainitiative -->
<g id="node40" class="node"><title>adainitiative</title>
<ellipse fill="none" stroke="black" cx="758.102" cy="-310" rx="53.6299" ry="18"/>
<text text-anchor="middle" x="758.102" y="-305.8" font-family="Times,serif" font-size="14.00">adainitiative</text>
</g>
<!-- linuxconfau&#45;&gt;adainitiative -->
<g id="edge16" class="edge"><title>linuxconfau&#45;&gt;adainitiative</title>
<path fill="none" stroke="black" d="M945.598,-833.694C900.159,-832.092 828.294,-822.216 787.102,-779 764.185,-754.957 774.678,-739.022 771.102,-706 769.379,-690.093 769.458,-685.915 771.102,-670 775.346,-628.902 790.102,-620.317 790.102,-579 790.102,-579 790.102,-579 790.102,-395 790.102,-374.388 781.584,-352.686 773.337,-336.504"/>
<polygon fill="black" stroke="black" points="776.401,-334.811 768.58,-327.665 770.237,-338.129 776.401,-334.811"/>
</g>
<!-- linuxchix -->
<g id="node16" class="node"><title>linuxchix</title>
<ellipse fill="none" stroke="black" cx="840.102" cy="-761" rx="43.5233" ry="18"/>
<text text-anchor="middle" x="840.102" y="-756.8" font-family="Times,serif" font-size="14.00">linuxchix</text>
</g>
<!-- debianwomen -->
<g id="node21" class="node"><title>debianwomen</title>
<ellipse fill="none" stroke="black" cx="840.102" cy="-688" rx="59.927" ry="18"/>
<text text-anchor="middle" x="840.102" y="-683.8" font-family="Times,serif" font-size="14.00">debianwomen</text>
</g>
<!-- linuxchix&#45;&gt;debianwomen -->
<g id="edge37" class="edge"><title>linuxchix&#45;&gt;debianwomen</title>
<path fill="none" stroke="black" d="M840.102,-742.813C840.102,-734.789 840.102,-725.047 840.102,-716.069"/>
<polygon fill="black" stroke="black" points="843.602,-716.029 840.102,-706.029 836.602,-716.029 843.602,-716.029"/>
</g>
<!-- linuxchix&#45;&gt;haecksen -->
<g id="edge43" class="edge"><title>linuxchix&#45;&gt;haecksen</title>
<path fill="none" stroke="black" d="M883.64,-760.306C971.073,-759.893 1163.16,-753.468 1204.1,-706 1219.85,-687.738 1208.63,-660.434 1196.4,-640.692"/>
<polygon fill="black" stroke="black" points="1199.24,-638.63 1190.81,-632.212 1193.39,-642.486 1199.24,-638.63"/>
</g>
<!-- geekfeminism -->
<g id="node28" class="node"><title>geekfeminism</title>
<ellipse fill="none" stroke="black" cx="696.102" cy="-542" rx="60.4115" ry="18"/>
<text text-anchor="middle" x="696.102" y="-537.8" font-family="Times,serif" font-size="14.00">geekfeminism</text>
</g>
<!-- linuxchix&#45;&gt;geekfeminism -->
<g id="edge12" class="edge"><title>linuxchix&#45;&gt;geekfeminism</title>
<path fill="none" stroke="black" d="M816.639,-745.791C802.056,-736.035 783.743,-721.99 771.102,-706 737.661,-663.703 715.154,-604.084 704.083,-569.905"/>
<polygon fill="black" stroke="black" points="707.357,-568.649 701.015,-560.162 700.68,-570.752 707.357,-568.649"/>
</g>
<!-- gsoc -->
<g id="node17" class="node"><title>gsoc</title>
<polygon fill="none" stroke="black" points="1568.1,-706 1514.1,-706 1514.1,-670 1568.1,-670 1568.1,-706"/>
<text text-anchor="middle" x="1541.1" y="-683.8" font-family="Times,serif" font-size="14.00">gsoc</text>
</g>
<!-- opw -->
<g id="node18" class="node"><title>opw</title>
<ellipse fill="none" stroke="black" cx="1631.1" cy="-688" rx="27" ry="18"/>
<text text-anchor="middle" x="1631.1" y="-683.8" font-family="Times,serif" font-size="14.00">opw</text>
</g>
<!-- gsoc&#45;&gt;opw -->
<g id="edge42" class="edge"><title>gsoc&#45;&gt;opw</title>
<path fill="none" stroke="black" d="M1568.17,-688C1576.77,-688 1585.37,-688 1593.97,-688"/>
<polygon fill="black" stroke="black" points="1594.06,-691.5 1604.06,-688 1594.06,-684.5 1594.06,-691.5"/>
</g>
<!-- rgsoc -->
<g id="node52" class="node"><title>rgsoc</title>
<ellipse fill="none" stroke="black" cx="1685.1" cy="-164" rx="29.2133" ry="18"/>
<text text-anchor="middle" x="1685.1" y="-159.8" font-family="Times,serif" font-size="14.00">rgsoc</text>
</g>
<!-- gsoc&#45;&gt;rgsoc -->
<g id="edge50" class="edge"><title>gsoc&#45;&gt;rgsoc</title>
<path fill="none" stroke="black" d="M1568.2,-677.83C1618.69,-660.55 1722.1,-624.164 1722.1,-616 1722.1,-616 1722.1,-616 1722.1,-236 1722.1,-218.834 1713.49,-201.706 1704.58,-188.576"/>
<polygon fill="black" stroke="black" points="1707.17,-186.197 1698.46,-180.172 1701.52,-190.317 1707.17,-186.197"/>
</g>
<!-- ubuntuwomen -->
<g id="node19" class="node"><title>ubuntuwomen</title>
<ellipse fill="none" stroke="black" cx="1134.1" cy="-688" rx="60.9133" ry="18"/>
<text text-anchor="middle" x="1134.1" y="-683.8" font-family="Times,serif" font-size="14.00">ubuntuwomen</text>
</g>
<!-- gnomewomen -->
<g id="node20" class="node"><title>gnomewomen</title>
<ellipse fill="none" stroke="black" cx="995.102" cy="-688" rx="60.4202" ry="18"/>
<text text-anchor="middle" x="995.102" y="-683.8" font-family="Times,serif" font-size="14.00">gnomewomen</text>
</g>
<!-- gnomewomen&#45;&gt;opw -->
<g id="edge41" class="edge"><title>gnomewomen&#45;&gt;opw</title>
<path fill="none" stroke="black" d="M1022.21,-704.277C1036.75,-712.065 1055.3,-720.54 1073.1,-724.5 1126.79,-736.44 1514.99,-738.775 1568.1,-724.5 1580.98,-721.04 1593.94,-714.235 1604.73,-707.43"/>
<polygon fill="black" stroke="black" points="1606.83,-710.232 1613.23,-701.786 1602.96,-704.4 1606.83,-710.232"/>
</g>
<!-- debianwomen&#45;&gt;ubuntuwomen -->
<g id="edge38" class="edge"><title>debianwomen&#45;&gt;ubuntuwomen</title>
<path fill="none" stroke="black" d="M871.352,-703.346C889.486,-711.393 913.039,-720.407 935.102,-724.5 987.54,-734.227 1003.01,-735.952 1055.1,-724.5 1069.59,-721.315 1084.58,-715.205 1097.56,-708.882"/>
<polygon fill="black" stroke="black" points="1099.29,-711.929 1106.62,-704.279 1096.12,-705.688 1099.29,-711.929"/>
</g>
<!-- debianwomen&#45;&gt;gnomewomen -->
<g id="edge39" class="edge"><title>debianwomen&#45;&gt;gnomewomen</title>
<path fill="none" stroke="black" d="M900.043,-688C908.137,-688 916.23,-688 924.324,-688"/>
<polygon fill="black" stroke="black" points="924.576,-691.5 934.576,-688 924.576,-684.5 924.576,-691.5"/>
</g>
<!-- girlgeekdinners -->
<g id="node22" class="node"><title>girlgeekdinners</title>
<polygon fill="none" stroke="black" points="1787.68,-706 1684.52,-706 1684.52,-670 1787.68,-670 1787.68,-706"/>
<text text-anchor="middle" x="1736.1" y="-683.8" font-family="Times,serif" font-size="14.00">girlgeekdinners</text>
</g>
<!-- blogher -->
<g id="node23" class="node"><title>blogher</title>
<ellipse fill="none" stroke="black" cx="1847.1" cy="-688" rx="37.2421" ry="18"/>
<text text-anchor="middle" x="1847.1" y="-683.8" font-family="Times,serif" font-size="14.00">blogher</text>
</g>
<!-- speakerswiki -->
<g id="node24" class="node"><title>speakerswiki</title>
<ellipse fill="none" stroke="black" cx="1976.1" cy="-688" rx="56.0528" ry="18"/>
<text text-anchor="middle" x="1976.1" y="-683.8" font-family="Times,serif" font-size="14.00">speakerswiki</text>
</g>
<!-- blogher&#45;&gt;speakerswiki -->
<g id="edge58" class="edge"><title>blogher&#45;&gt;speakerswiki</title>
<path fill="none" stroke="black" d="M1884.39,-688C1892.71,-688 1901.03,-688 1909.35,-688"/>
<polygon fill="black" stroke="black" points="1909.5,-691.5 1919.5,-688 1909.5,-684.5 1909.5,-691.5"/>
</g>
<!-- owoot -->
<g id="node42" class="node"><title>owoot</title>
<ellipse fill="none" stroke="black" cx="1168.1" cy="-310" rx="32.4324" ry="18"/>
<text text-anchor="middle" x="1168.1" y="-305.8" font-family="Times,serif" font-size="14.00">owoot</text>
</g>
<!-- haecksen&#45;&gt;owoot -->
<g id="edge40" class="edge"><title>haecksen&#45;&gt;owoot</title>
<path fill="none" stroke="black" d="M1177.54,-596.841C1175.88,-546.649 1171.03,-399.79 1169.01,-338.434"/>
<polygon fill="black" stroke="black" points="1172.5,-338.225 1168.67,-328.346 1165.51,-338.456 1172.5,-338.225"/>
</g>
<!-- haecksen&#45;&gt;adacamp -->
<g id="edge45" class="edge"><title>haecksen&#45;&gt;adacamp</title>
<path fill="none" stroke="black" d="M1135.53,-614.197C1042.26,-613.482 828.102,-605.079 828.102,-543 828.102,-543 828.102,-543 828.102,-432 828.102,-369.7 839.063,-351.655 821.102,-292 818.07,-281.932 812.778,-271.783 807.36,-263.043"/>
<polygon fill="black" stroke="black" points="810.172,-260.948 801.758,-254.509 804.32,-264.789 810.172,-260.948"/>
</g>
<!-- shesgeeky -->
<g id="node26" class="node"><title>shesgeeky</title>
<ellipse fill="none" stroke="black" cx="1976.1" cy="-615" rx="46.4046" ry="18"/>
<text text-anchor="middle" x="1976.1" y="-610.8" font-family="Times,serif" font-size="14.00">shesgeeky</text>
</g>
<!-- shesgeeky&#45;&gt;speakerswiki -->
<g id="edge59" class="edge"><title>shesgeeky&#45;&gt;speakerswiki</title>
<path fill="none" stroke="black" d="M1976.1,-633.029C1976.1,-641.029 1976.1,-650.765 1976.1,-659.753"/>
<polygon fill="black" stroke="black" points="1972.6,-659.813 1976.1,-669.813 1979.6,-659.813 1972.6,-659.813"/>
</g>
<!-- SFF CAHP -->
<g id="node27" class="node"><title>SFF CAHP</title>
<ellipse fill="none" stroke="black" cx="1318.1" cy="-542" rx="50.8253" ry="18"/>
<text text-anchor="middle" x="1318.1" y="-537.8" font-family="Times,serif" font-size="14.00">SFF CAHP</text>
</g>
<!-- backupproject -->
<g id="node36" class="node"><title>backupproject</title>
<ellipse fill="none" stroke="black" cx="1634.1" cy="-469" rx="60.3942" ry="18"/>
<text text-anchor="middle" x="1634.1" y="-464.8" font-family="Times,serif" font-size="14.00">backupproject</text>
</g>
<!-- SFF CAHP&#45;&gt;backupproject -->
<g id="edge22" class="edge"><title>SFF CAHP&#45;&gt;backupproject</title>
<path fill="none" stroke="black" d="M1359.74,-531.645C1415.54,-519.107 1514.8,-496.806 1577.39,-482.742"/>
<polygon fill="black" stroke="black" points="1578.5,-486.08 1587.49,-480.473 1576.96,-479.251 1578.5,-486.08"/>
</g>
<!-- GF/TAI AHP -->
<g id="node41" class="node"><title>GF/TAI AHP</title>
<ellipse fill="none" stroke="black" cx="1035.1" cy="-310" rx="57.1338" ry="18"/>
<text text-anchor="middle" x="1035.1" y="-305.8" font-family="Times,serif" font-size="14.00">GF/TAI AHP</text>
</g>
<!-- SFF CAHP&#45;&gt;GF/TAI AHP -->
<g id="edge20" class="edge"><title>SFF CAHP&#45;&gt;GF/TAI AHP</title>
<path fill="none" stroke="black" d="M1277.59,-531.088C1250.44,-522.84 1215.2,-508.856 1190.1,-487 1135.09,-439.101 1159.68,-395.495 1106.1,-346 1098.68,-339.146 1089.67,-333.343 1080.59,-328.552"/>
<polygon fill="black" stroke="black" points="1082.07,-325.376 1071.55,-324.097 1078.97,-331.656 1082.07,-325.376"/>
</g>
<!-- geekfeminism&#45;&gt;adainitiative -->
<g id="edge15" class="edge"><title>geekfeminism&#45;&gt;adainitiative</title>
<path fill="none" stroke="black" d="M700.762,-523.713C711.47,-483.988 737.898,-385.947 750.792,-338.118"/>
<polygon fill="black" stroke="black" points="754.249,-338.741 753.472,-328.174 747.49,-336.919 754.249,-338.741"/>
</g>
<!-- geekfeminism&#45;&gt;GF/TAI AHP -->
<g id="edge18" class="edge"><title>geekfeminism&#45;&gt;GF/TAI AHP</title>
<path fill="none" stroke="black" d="M726.495,-526.239C741.282,-519.338 759.425,-511.279 776.102,-505 905.305,-456.355 991.016,-525.003 1073.1,-414 1090.59,-390.355 1073.19,-357.798 1056.61,-335.66"/>
<polygon fill="black" stroke="black" points="1059.3,-333.422 1050.37,-327.726 1053.8,-337.749 1059.3,-333.422"/>
</g>
<!-- seattleattic -->
<g id="node50" class="node"><title>seattleattic</title>
<ellipse fill="none" stroke="black" cx="511.102" cy="-164" rx="47.8323" ry="18"/>
<text text-anchor="middle" x="511.102" y="-159.8" font-family="Times,serif" font-size="14.00">seattleattic</text>
</g>
<!-- geekfeminism&#45;&gt;seattleattic -->
<g id="edge34" class="edge"><title>geekfeminism&#45;&gt;seattleattic</title>
<path fill="none" stroke="black" d="M645.422,-532.1C611.903,-522.965 574.102,-504.921 574.102,-470 574.102,-470 574.102,-470 574.102,-352 574.102,-304.661 544.856,-299.981 530.102,-255 523.32,-234.324 518.375,-210.161 515.232,-192.081"/>
<polygon fill="black" stroke="black" points="518.684,-191.5 513.59,-182.21 511.779,-192.649 518.684,-191.5"/>
</g>
<!-- oscon2009 -->
<g id="node31" class="node"><title>oscon2009</title>
<ellipse fill="none" stroke="black" cx="338.102" cy="-469" rx="48.3514" ry="18"/>
<text text-anchor="middle" x="338.102" y="-464.8" font-family="Times,serif" font-size="14.00">oscon2009</text>
</g>
<!-- dreamwidth&#45;&gt;oscon2009 -->
<g id="edge54" class="edge"><title>dreamwidth&#45;&gt;oscon2009</title>
<path fill="none" stroke="black" d="M358.566,-523.813C355.448,-515.615 351.648,-505.623 348.173,-496.485"/>
<polygon fill="black" stroke="black" points="351.403,-495.132 344.577,-487.029 344.86,-497.62 351.403,-495.132"/>
</g>
<!-- otw&#45;&gt;oscon2009 -->
<g id="edge55" class="edge"><title>otw&#45;&gt;oscon2009</title>
<path fill="none" stroke="black" d="M282.267,-526.632C291.615,-517.15 304.081,-504.506 314.862,-493.571"/>
<polygon fill="black" stroke="black" points="317.47,-495.912 321.998,-486.333 312.485,-490.997 317.47,-495.912"/>
</g>
<!-- oscon2009&#45;&gt;geekfeminism -->
<g id="edge56" class="edge"><title>oscon2009&#45;&gt;geekfeminism</title>
<path fill="none" stroke="black" d="M373.497,-481.288C380.609,-483.348 388.061,-485.362 395.102,-487 491.246,-509.37 517.09,-505.755 614.102,-524 622.025,-525.49 630.363,-527.132 638.565,-528.791"/>
<polygon fill="black" stroke="black" points="637.966,-532.241 648.464,-530.813 639.367,-525.382 637.966,-532.241"/>
</g>
<!-- racefail&#45;&gt;geekfeminism -->
<g id="edge13" class="edge"><title>racefail&#45;&gt;geekfeminism</title>
<path fill="none" stroke="black" d="M479.88,-478.85C500.843,-486.503 532.293,-497.624 560.102,-506 586.262,-513.88 615.579,-521.567 640.276,-527.721"/>
<polygon fill="black" stroke="black" points="639.653,-531.173 650.201,-530.174 641.333,-524.377 639.653,-531.173"/>
</g>
<!-- couchdb -->
<g id="node33" class="node"><title>couchdb</title>
<polygon fill="none" stroke="black" points="1256.1,-487 1199.28,-469 1256.1,-451 1312.93,-469 1256.1,-487"/>
<text text-anchor="middle" x="1256.1" y="-464.8" font-family="Times,serif" font-size="14.00">couchdb</text>
</g>
<!-- railsbridge -->
<g id="node34" class="node"><title>railsbridge</title>
<ellipse fill="none" stroke="black" cx="1396.1" cy="-469" rx="47.8496" ry="18"/>
<text text-anchor="middle" x="1396.1" y="-464.8" font-family="Times,serif" font-size="14.00">railsbridge</text>
</g>
<!-- couchdb&#45;&gt;railsbridge -->
<g id="edge46" class="edge"><title>couchdb&#45;&gt;railsbridge</title>
<path fill="none" stroke="black" d="M1312.98,-469C1321.29,-469 1329.6,-469 1337.91,-469"/>
<polygon fill="black" stroke="black" points="1338.04,-472.5 1348.04,-469 1338.04,-465.5 1338.04,-472.5"/>
</g>
<!-- railsgirls -->
<g id="node45" class="node"><title>railsgirls</title>
<ellipse fill="none" stroke="black" cx="1576.1" cy="-237" rx="41.1093" ry="18"/>
<text text-anchor="middle" x="1576.1" y="-232.8" font-family="Times,serif" font-size="14.00">railsgirls</text>
</g>
<!-- railsbridge&#45;&gt;railsgirls -->
<g id="edge48" class="edge"><title>railsbridge&#45;&gt;railsgirls</title>
<path fill="none" stroke="black" d="M1409.05,-451.459C1440.31,-411.509 1520.07,-309.59 1556.92,-262.515"/>
<polygon fill="black" stroke="black" points="1559.87,-264.423 1563.27,-254.391 1554.35,-260.109 1559.87,-264.423"/>
</g>
<!-- pystar -->
<g id="node61" class="node"><title>pystar</title>
<ellipse fill="none" stroke="black" cx="1396.1" cy="-396" rx="31.9393" ry="18"/>
<text text-anchor="middle" x="1396.1" y="-391.8" font-family="Times,serif" font-size="14.00">pystar</text>
</g>
<!-- railsbridge&#45;&gt;pystar -->
<g id="edge47" class="edge"><title>railsbridge&#45;&gt;pystar</title>
<path fill="none" stroke="black" d="M1396.1,-450.813C1396.1,-442.789 1396.1,-433.047 1396.1,-424.069"/>
<polygon fill="black" stroke="black" points="1399.6,-424.029 1396.1,-414.029 1392.6,-424.029 1399.6,-424.029"/>
</g>
<!-- osbp -->
<g id="node35" class="node"><title>osbp</title>
<polygon fill="none" stroke="black" points="1500.1,-487 1462.26,-469 1500.1,-451 1537.94,-469 1500.1,-487"/>
<text text-anchor="middle" x="1500.1" y="-464.8" font-family="Times,serif" font-size="14.00">osbp</text>
</g>
<!-- osbp&#45;&gt;backupproject -->
<g id="edge21" class="edge"><title>osbp&#45;&gt;backupproject</title>
<path fill="none" stroke="black" d="M1538.05,-469C1546.59,-469 1555.13,-469 1563.67,-469"/>
<polygon fill="black" stroke="black" points="1563.69,-472.5 1573.69,-469 1563.69,-465.5 1563.69,-472.5"/>
</g>
<!-- backupribbons -->
<g id="node39" class="node"><title>backupribbons</title>
<ellipse fill="none" stroke="black" cx="1632.1" cy="-396" rx="62.3494" ry="18"/>
<text text-anchor="middle" x="1632.1" y="-391.8" font-family="Times,serif" font-size="14.00">backupribbons</text>
</g>
<!-- backupproject&#45;&gt;backupribbons -->
<g id="edge23" class="edge"><title>backupproject&#45;&gt;backupribbons</title>
<path fill="none" stroke="black" d="M1633.62,-450.813C1633.39,-442.789 1633.12,-433.047 1632.86,-424.069"/>
<polygon fill="black" stroke="black" points="1636.36,-423.926 1632.58,-414.029 1629.36,-424.123 1636.36,-423.926"/>
</g>
<!-- osbridge -->
<g id="node37" class="node"><title>osbridge</title>
<ellipse fill="none" stroke="black" cx="643.102" cy="-469" rx="40.6248" ry="18"/>
<text text-anchor="middle" x="643.102" y="-464.8" font-family="Times,serif" font-size="14.00">osbridge</text>
</g>
<!-- apachecon assault -->
<g id="node38" class="node"><title>apachecon assault</title>
<polygon fill="none" stroke="black" points="960.102,-414 855.648,-396 960.102,-378 1064.56,-396 960.102,-414"/>
<text text-anchor="middle" x="960.102" y="-391.8" font-family="Times,serif" font-size="14.00">apachecon assault</text>
</g>
<!-- apachecon assault&#45;&gt;adainitiative -->
<g id="edge14" class="edge"><title>apachecon assault&#45;&gt;adainitiative</title>
<path fill="none" stroke="black" d="M931.16,-382.965C896.866,-368.704 839.445,-344.826 800.224,-328.516"/>
<polygon fill="black" stroke="black" points="801.248,-325.151 790.67,-324.543 798.56,-331.615 801.248,-325.151"/>
</g>
<!-- apachecon assault&#45;&gt;GF/TAI AHP -->
<g id="edge17" class="edge"><title>apachecon assault&#45;&gt;GF/TAI AHP</title>
<path fill="none" stroke="black" d="M973.51,-379.982C984.602,-367.56 1000.57,-349.675 1013.47,-335.23"/>
<polygon fill="black" stroke="black" points="1016.22,-337.405 1020.27,-327.615 1011,-332.743 1016.22,-337.405"/>
</g>
<!-- adainitiative&#45;&gt;GF/TAI AHP -->
<g id="edge19" class="edge"><title>adainitiative&#45;&gt;GF/TAI AHP</title>
<path fill="none" stroke="black" d="M811.933,-310C863.801,-310 915.669,-310 967.537,-310"/>
<polygon fill="black" stroke="black" points="967.566,-313.5 977.566,-310 967.566,-306.5 967.566,-313.5"/>
</g>
<!-- adainitiative&#45;&gt;adacamp -->
<g id="edge28" class="edge"><title>adainitiative&#45;&gt;adacamp</title>
<path fill="none" stroke="black" d="M765.606,-291.813C769.185,-283.615 773.548,-273.623 777.538,-264.485"/>
<polygon fill="black" stroke="black" points="780.873,-265.594 781.666,-255.029 774.457,-262.793 780.873,-265.594"/>
</g>
<!-- Skeptic AHPs -->
<g id="node46" class="node"><title>Skeptic AHPs</title>
<ellipse fill="none" stroke="black" cx="1082.1" cy="-237" rx="59.4858" ry="18"/>
<text text-anchor="middle" x="1082.1" y="-232.8" font-family="Times,serif" font-size="14.00">Skeptic AHPs</text>
</g>
<!-- GF/TAI AHP&#45;&gt;Skeptic AHPs -->
<g id="edge25" class="edge"><title>GF/TAI AHP&#45;&gt;Skeptic AHPs</title>
<path fill="none" stroke="black" d="M1046.24,-292.174C1051.98,-283.509 1059.09,-272.768 1065.46,-263.141"/>
<polygon fill="black" stroke="black" points="1068.44,-264.976 1071.04,-254.705 1062.6,-261.112 1068.44,-264.976"/>
</g>
<!-- PyCon AHP -->
<g id="node47" class="node"><title>PyCon AHP</title>
<ellipse fill="none" stroke="black" cx="951.102" cy="-237" rx="53.7149" ry="18"/>
<text text-anchor="middle" x="951.102" y="-232.8" font-family="Times,serif" font-size="14.00">PyCon AHP</text>
</g>
<!-- GF/TAI AHP&#45;&gt;PyCon AHP -->
<g id="edge24" class="edge"><title>GF/TAI AHP&#45;&gt;PyCon AHP</title>
<path fill="none" stroke="black" d="M1016.04,-292.889C1004.76,-283.357 990.304,-271.136 977.893,-260.645"/>
<polygon fill="black" stroke="black" points="979.984,-257.83 970.087,-254.047 975.465,-263.176 979.984,-257.83"/>
</g>
<!-- Scalzi&#39;s AHP pledge -->
<g id="node54" class="node"><title>Scalzi&#39;s AHP pledge</title>
<ellipse fill="none" stroke="black" cx="873.102" cy="-164" rx="81.7552" ry="18"/>
<text text-anchor="middle" x="873.102" y="-159.8" font-family="Times,serif" font-size="14.00">Scalzi&#39;s AHP pledge</text>
</g>
<!-- GF/TAI AHP&#45;&gt;Scalzi&#39;s AHP pledge -->
<g id="edge27" class="edge"><title>GF/TAI AHP&#45;&gt;Scalzi&#39;s AHP pledge</title>
<path fill="none" stroke="black" d="M980.511,-304.299C946.694,-298.348 905.371,-284.97 881.888,-255 868.162,-237.483 866.943,-211.771 868.588,-192.31"/>
<polygon fill="black" stroke="black" points="872.082,-192.565 869.736,-182.233 865.127,-191.773 872.082,-192.565"/>
<text text-anchor="middle" x="885.208" y="-232.8" font-family="Times,serif" font-size="14.00">?</text>
</g>
<!-- #CoCPledge -->
<g id="node59" class="node"><title>#CoCPledge</title>
<ellipse fill="none" stroke="black" cx="1169.1" cy="-91" rx="54.6334" ry="18"/>
<text text-anchor="middle" x="1169.1" y="-86.8" font-family="Times,serif" font-size="14.00">#CoCPledge</text>
</g>
<!-- GF/TAI AHP&#45;&gt;#CoCPledge -->
<g id="edge26" class="edge"><title>GF/TAI AHP&#45;&gt;#CoCPledge</title>
<path fill="none" stroke="black" d="M1080.81,-299.002C1105.31,-291.202 1133.74,-277.735 1150.1,-255 1179.06,-214.767 1177.43,-153.924 1173.42,-119.074"/>
<polygon fill="black" stroke="black" points="1176.89,-118.61 1172.12,-109.145 1169.94,-119.513 1176.89,-118.61"/>
</g>
<!-- blackgirlscode -->
<g id="node43" class="node"><title>blackgirlscode</title>
<ellipse fill="none" stroke="black" cx="1812.1" cy="-310" rx="61.8476" ry="18"/>
<text text-anchor="middle" x="1812.1" y="-305.8" font-family="Times,serif" font-size="14.00">blackgirlscode</text>
</g>
<!-- adacamp&#45;&gt;osbridge -->
<g id="edge30" class="edge"><title>adacamp&#45;&gt;osbridge</title>
<path fill="none" stroke="black" d="M759.463,-249.668C739.323,-258.78 713.162,-273.074 695.102,-292 655.863,-333.119 646.06,-402.394 643.722,-440.618"/>
<polygon fill="black" stroke="black" points="640.209,-440.817 643.227,-450.973 647.201,-441.152 640.209,-440.817"/>
<text text-anchor="middle" x="699.975" y="-348.8" font-family="Times,serif" font-size="14.00">a11y policies</text>
</g>
<!-- doubleunion -->
<g id="node51" class="node"><title>doubleunion</title>
<ellipse fill="none" stroke="black" cx="649.102" cy="-164" rx="54.1403" ry="18"/>
<text text-anchor="middle" x="649.102" y="-159.8" font-family="Times,serif" font-size="14.00">doubleunion</text>
</g>
<!-- adacamp&#45;&gt;doubleunion -->
<g id="edge33" class="edge"><title>adacamp&#45;&gt;doubleunion</title>
<path fill="none" stroke="black" d="M763.097,-222.812C741.735,-211.978 711.181,-196.483 687.081,-184.261"/>
<polygon fill="black" stroke="black" points="688.364,-180.987 677.862,-179.586 685.197,-187.23 688.364,-180.987"/>
</g>
<!-- railsgirls&#45;&gt;rgsoc -->
<g id="edge49" class="edge"><title>railsgirls&#45;&gt;rgsoc</title>
<path fill="none" stroke="black" d="M1598.16,-221.632C1615.16,-210.559 1638.78,-195.172 1657.11,-183.232"/>
<polygon fill="black" stroke="black" points="1659.17,-186.071 1665.63,-177.681 1655.34,-180.206 1659.17,-186.071"/>
</g>
<!-- Feminist Frequency vids -->
<g id="node48" class="node"><title>Feminist Frequency vids</title>
<ellipse fill="none" stroke="black" cx="1848.1" cy="-237" rx="97.6053" ry="18"/>
<text text-anchor="middle" x="1848.1" y="-232.8" font-family="Times,serif" font-size="14.00">Feminist Frequency vids</text>
</g>
<!-- transcodesf -->
<g id="node49" class="node"><title>transcodesf</title>
<ellipse fill="none" stroke="black" cx="2014.1" cy="-237" rx="50.2551" ry="18"/>
<text text-anchor="middle" x="2014.1" y="-232.8" font-family="Times,serif" font-size="14.00">transcodesf</text>
</g>
<!-- seattleattic&#45;&gt;doubleunion -->
<g id="edge36" class="edge"><title>seattleattic&#45;&gt;doubleunion</title>
<path fill="none" stroke="black" d="M559.078,-164C567.495,-164 575.912,-164 584.329,-164"/>
<polygon fill="black" stroke="black" points="584.595,-167.5 594.595,-164 584.595,-160.5 584.595,-167.5"/>
</g>
<!-- callbackwomen -->
<g id="node53" class="node"><title>callbackwomen</title>
<ellipse fill="none" stroke="black" cx="1798.1" cy="-164" rx="65.6976" ry="18"/>
<text text-anchor="middle" x="1798.1" y="-159.8" font-family="Times,serif" font-size="14.00">callbackwomen</text>
</g>
<!-- transh4ck -->
<g id="node55" class="node"><title>transh4ck</title>
<ellipse fill="none" stroke="black" cx="1926.1" cy="-164" rx="44.475" ry="18"/>
<text text-anchor="middle" x="1926.1" y="-159.8" font-family="Times,serif" font-size="14.00">transh4ck</text>
</g>
<!-- transtech -->
<g id="node56" class="node"><title>transtech</title>
<ellipse fill="none" stroke="black" cx="2048.1" cy="-164" rx="42.0524" ry="18"/>
<text text-anchor="middle" x="2048.1" y="-159.8" font-family="Times,serif" font-size="14.00">transtech</text>
</g>
<!-- transh4ck&#45;&gt;transtech -->
<g id="edge57" class="edge"><title>transh4ck&#45;&gt;transtech</title>
<path fill="none" stroke="black" d="M1970.9,-164C1979.19,-164 1987.48,-164 1995.77,-164"/>
<polygon fill="black" stroke="black" points="1995.88,-167.5 2005.88,-164 1995.88,-160.5 1995.88,-167.5"/>
</g>
<!-- females in hackerspaces email -->
<g id="node57" class="node"><title>females in hackerspaces email</title>
<polygon fill="none" stroke="black" points="262.102,-182 96.0359,-164 262.102,-146 428.167,-164 262.102,-182"/>
<text text-anchor="middle" x="262.102" y="-159.8" font-family="Times,serif" font-size="14.00">females in hackerspaces email</text>
</g>
<!-- females in hackerspaces email&#45;&gt;seattleattic -->
<g id="edge31" class="edge"><title>females in hackerspaces email&#45;&gt;seattleattic</title>
<path fill="none" stroke="black" d="M428.426,-164C436.525,-164 444.624,-164 452.723,-164"/>
<polygon fill="black" stroke="black" points="452.982,-167.5 462.982,-164 452.982,-160.5 452.982,-167.5"/>
</g>
<!-- females in hackerspaces email&#45;&gt;doubleunion -->
<g id="edge32" class="edge"><title>females in hackerspaces email&#45;&gt;doubleunion</title>
<path fill="none" stroke="black" d="M304.202,-177.453C362.028,-194.053 469.105,-218.055 559.102,-200.5 576.507,-197.105 594.801,-190.339 610.316,-183.545"/>
<polygon fill="black" stroke="black" points="611.923,-186.659 619.585,-179.341 609.032,-180.284 611.923,-186.659"/>
</g>
<!-- mvc -->
<g id="node58" class="node"><title>mvc</title>
<ellipse fill="none" stroke="black" cx="1269.1" cy="-91" rx="27" ry="18"/>
<text text-anchor="middle" x="1269.1" y="-86.8" font-family="Times,serif" font-size="14.00">mvc</text>
</g>
<!-- mothershiphackermoms -->
<g id="node60" class="node"><title>mothershiphackermoms</title>
<ellipse fill="none" stroke="black" cx="634.102" cy="-237" rx="95.1654" ry="18"/>
<text text-anchor="middle" x="634.102" y="-232.8" font-family="Times,serif" font-size="14.00">mothershiphackermoms</text>
</g>
<!-- mothershiphackermoms&#45;&gt;doubleunion -->
<g id="edge35" class="edge"><title>mothershiphackermoms&#45;&gt;doubleunion</title>
<path fill="none" stroke="black" d="M637.733,-218.813C639.428,-210.789 641.486,-201.047 643.383,-192.069"/>
<polygon fill="black" stroke="black" points="646.861,-192.536 645.504,-182.029 640.012,-191.089 646.861,-192.536"/>
</g>
</g>
</svg>
