<?xml version="1.0" encoding="UTF-8" standalone="no"?>
<!DOCTYPE svg PUBLIC "-//W3C//DTD SVG 1.1//EN"
 "http://www.w3.org/Graphics/SVG/1.1/DTD/svg11.dtd">
<!-- Generated by graphviz version 2.34.0 (20140110.0949)
 -->
<!-- Title: G Pages: 1 -->
<svg width="1571pt" height="872pt"
 viewBox="0.00 0.00 1571.00 872.00" xmlns="http://www.w3.org/2000/svg" xmlns:xlink="http://www.w3.org/1999/xlink">
<g id="graph0" class="graph" transform="scale(1 1) rotate(0) translate(4 868)">
<title>G</title>
<polygon fill="white" stroke="white" points="-4,4 -4,-868 1567,-868 1567,4 -4,4"/>
<!-- past -->
<g id="node1" class="node"><title>past</title>
<text text-anchor="middle" x="52" y="-842.2" font-family="Times,serif" font-size="16.00">past</text>
</g>
<!-- 2000&#45;2003 -->
<g id="node2" class="node"><title>2000&#45;2003</title>
<text text-anchor="middle" x="52" y="-768.2" font-family="Times,serif" font-size="16.00">2000&#45;2003</text>
</g>
<!-- past&#45;&gt;2000&#45;2003 -->
<g id="edge1" class="edge"><title>past&#45;&gt;2000&#45;2003</title>
<path fill="none" stroke="black" d="M52,-827.937C52,-819.807 52,-809.876 52,-800.705"/>
<polygon fill="black" stroke="black" points="55.5001,-800.441 52,-790.441 48.5001,-800.441 55.5001,-800.441"/>
</g>
<!-- 2004&#45;2006 -->
<g id="node3" class="node"><title>2004&#45;2006</title>
<text text-anchor="middle" x="52" y="-694.2" font-family="Times,serif" font-size="16.00">2004&#45;2006</text>
</g>
<!-- 2000&#45;2003&#45;&gt;2004&#45;2006 -->
<g id="edge2" class="edge"><title>2000&#45;2003&#45;&gt;2004&#45;2006</title>
<path fill="none" stroke="black" d="M52,-753.937C52,-745.807 52,-735.876 52,-726.705"/>
<polygon fill="black" stroke="black" points="55.5001,-726.441 52,-716.441 48.5001,-726.441 55.5001,-726.441"/>
</g>
<!-- 2007 -->
<g id="node4" class="node"><title>2007</title>
<text text-anchor="middle" x="52" y="-620.2" font-family="Times,serif" font-size="16.00">2007</text>
</g>
<!-- 2004&#45;2006&#45;&gt;2007 -->
<g id="edge3" class="edge"><title>2004&#45;2006&#45;&gt;2007</title>
<path fill="none" stroke="black" d="M52,-679.937C52,-671.807 52,-661.876 52,-652.705"/>
<polygon fill="black" stroke="black" points="55.5001,-652.441 52,-642.441 48.5001,-652.441 55.5001,-652.441"/>
</g>
<!-- 2008 -->
<g id="node5" class="node"><title>2008</title>
<text text-anchor="middle" x="52" y="-546.2" font-family="Times,serif" font-size="16.00">2008</text>
</g>
<!-- 2007&#45;&gt;2008 -->
<g id="edge4" class="edge"><title>2007&#45;&gt;2008</title>
<path fill="none" stroke="black" d="M52,-605.937C52,-597.807 52,-587.876 52,-578.705"/>
<polygon fill="black" stroke="black" points="55.5001,-578.441 52,-568.441 48.5001,-578.441 55.5001,-578.441"/>
</g>
<!-- 2009 -->
<g id="node6" class="node"><title>2009</title>
<text text-anchor="middle" x="52" y="-472.2" font-family="Times,serif" font-size="16.00">2009</text>
</g>
<!-- 2008&#45;&gt;2009 -->
<g id="edge5" class="edge"><title>2008&#45;&gt;2009</title>
<path fill="none" stroke="black" d="M52,-531.937C52,-523.807 52,-513.876 52,-504.705"/>
<polygon fill="black" stroke="black" points="55.5001,-504.441 52,-494.441 48.5001,-504.441 55.5001,-504.441"/>
</g>
<!-- 2010 -->
<g id="node7" class="node"><title>2010</title>
<text text-anchor="middle" x="52" y="-398.2" font-family="Times,serif" font-size="16.00">2010</text>
</g>
<!-- 2009&#45;&gt;2010 -->
<g id="edge6" class="edge"><title>2009&#45;&gt;2010</title>
<path fill="none" stroke="black" d="M52,-457.937C52,-449.807 52,-439.876 52,-430.705"/>
<polygon fill="black" stroke="black" points="55.5001,-430.441 52,-420.441 48.5001,-430.441 55.5001,-430.441"/>
</g>
<!-- 2011 -->
<g id="node8" class="node"><title>2011</title>
<text text-anchor="middle" x="52" y="-310.2" font-family="Times,serif" font-size="16.00">2011</text>
</g>
<!-- 2010&#45;&gt;2011 -->
<g id="edge7" class="edge"><title>2010&#45;&gt;2011</title>
<path fill="none" stroke="black" d="M52,-383.597C52,-371.746 52,-355.817 52,-342.292"/>
<polygon fill="black" stroke="black" points="55.5001,-342.084 52,-332.084 48.5001,-342.084 55.5001,-342.084"/>
</g>
<!-- 2012 -->
<g id="node9" class="node"><title>2012</title>
<text text-anchor="middle" x="52" y="-236.2" font-family="Times,serif" font-size="16.00">2012</text>
</g>
<!-- 2011&#45;&gt;2012 -->
<g id="edge8" class="edge"><title>2011&#45;&gt;2012</title>
<path fill="none" stroke="black" d="M52,-295.937C52,-287.807 52,-277.876 52,-268.705"/>
<polygon fill="black" stroke="black" points="55.5001,-268.441 52,-258.441 48.5001,-268.441 55.5001,-268.441"/>
</g>
<!-- 2013 -->
<g id="node10" class="node"><title>2013</title>
<text text-anchor="middle" x="52" y="-162.2" font-family="Times,serif" font-size="16.00">2013</text>
</g>
<!-- 2012&#45;&gt;2013 -->
<g id="edge9" class="edge"><title>2012&#45;&gt;2013</title>
<path fill="none" stroke="black" d="M52,-221.937C52,-213.807 52,-203.876 52,-194.705"/>
<polygon fill="black" stroke="black" points="55.5001,-194.441 52,-184.441 48.5001,-194.441 55.5001,-194.441"/>
</g>
<!-- 2014 -->
<g id="node11" class="node"><title>2014</title>
<text text-anchor="middle" x="52" y="-88.2" font-family="Times,serif" font-size="16.00">2014</text>
</g>
<!-- 2013&#45;&gt;2014 -->
<g id="edge10" class="edge"><title>2013&#45;&gt;2014</title>
<path fill="none" stroke="black" d="M52,-147.937C52,-139.807 52,-129.876 52,-120.705"/>
<polygon fill="black" stroke="black" points="55.5001,-120.441 52,-110.441 48.5001,-120.441 55.5001,-120.441"/>
</g>
<!-- unknowndate -->
<g id="node12" class="node"><title>unknowndate</title>
<text text-anchor="middle" x="52" y="-14.2" font-family="Times,serif" font-size="16.00">unknowndate</text>
</g>
<!-- 2014&#45;&gt;unknowndate -->
<g id="edge11" class="edge"><title>2014&#45;&gt;unknowndate</title>
<path fill="none" stroke="black" d="M52,-73.937C52,-65.8072 52,-55.8761 52,-46.7047"/>
<polygon fill="black" stroke="black" points="55.5001,-46.4406 52,-36.4407 48.5001,-46.4407 55.5001,-46.4406"/>
</g>
<!-- livejournal -->
<g id="node13" class="node"><title>livejournal</title>
<polygon fill="none" stroke="black" points="236.25,-864 161.75,-864 161.75,-828 236.25,-828 236.25,-864"/>
<text text-anchor="middle" x="199" y="-842.3" font-family="Times,serif" font-size="14.00">livejournal</text>
</g>
<!-- dreamwidth -->
<g id="node25" class="node"><title>dreamwidth</title>
<ellipse fill="none" stroke="black" cx="150" cy="-550" rx="52.9443" ry="18"/>
<text text-anchor="middle" x="150" y="-546.3" font-family="Times,serif" font-size="14.00">dreamwidth</text>
</g>
<!-- livejournal&#45;&gt;dreamwidth -->
<g id="edge44" class="edge"><title>livejournal&#45;&gt;dreamwidth</title>
<path fill="none" stroke="black" d="M191.817,-827.875C186.436,-813.493 180,-792.263 180,-773 180,-773 180,-773 180,-623 180,-606.764 173.419,-589.943 166.422,-576.646"/>
<polygon fill="black" stroke="black" points="169.305,-574.633 161.342,-567.645 163.209,-578.074 169.305,-574.633"/>
</g>
<!-- otw -->
<g id="node26" class="node"><title>otw</title>
<ellipse fill="none" stroke="black" cx="248" cy="-550" rx="27" ry="18"/>
<text text-anchor="middle" x="248" y="-546.3" font-family="Times,serif" font-size="14.00">otw</text>
</g>
<!-- livejournal&#45;&gt;otw -->
<g id="edge45" class="edge"><title>livejournal&#45;&gt;otw</title>
<path fill="none" stroke="black" d="M212.438,-827.723C221.941,-813.763 233,-793.183 233,-773 233,-773 233,-773 233,-623 233,-607.787 236.249,-591.138 239.723,-577.686"/>
<polygon fill="black" stroke="black" points="243.201,-578.242 242.5,-567.671 236.455,-576.372 243.201,-578.242"/>
</g>
<!-- wiscon -->
<g id="node14" class="node"><title>wiscon</title>
<ellipse fill="none" stroke="black" cx="915" cy="-846" rx="35.6194" ry="18"/>
<text text-anchor="middle" x="915" y="-842.3" font-family="Times,serif" font-size="14.00">wiscon</text>
</g>
<!-- racefail -->
<g id="node28" class="node"><title>racefail</title>
<polygon fill="none" stroke="black" points="838,-494 785.911,-476 838,-458 890.089,-476 838,-494"/>
<text text-anchor="middle" x="838" y="-472.3" font-family="Times,serif" font-size="14.00">racefail</text>
</g>
<!-- wiscon&#45;&gt;racefail -->
<g id="edge43" class="edge"><title>wiscon&#45;&gt;racefail</title>
<path fill="none" stroke="black" d="M906.063,-828.355C899.24,-814.086 891,-792.764 891,-773 891,-773 891,-773 891,-549 891,-527.653 875.703,-508.462 861.546,-495.272"/>
<polygon fill="black" stroke="black" points="863.733,-492.535 853.902,-488.586 859.124,-497.804 863.733,-492.535"/>
</g>
<!-- adacamp -->
<g id="node38" class="node"><title>adacamp</title>
<ellipse fill="none" stroke="black" cx="592" cy="-240" rx="42.3701" ry="18"/>
<text text-anchor="middle" x="592" y="-236.3" font-family="Times,serif" font-size="14.00">adacamp</text>
</g>
<!-- wiscon&#45;&gt;adacamp -->
<g id="edge25" class="edge"><title>wiscon&#45;&gt;adacamp</title>
<path fill="none" stroke="black" d="M950.141,-842.742C1051.97,-835.735 1340,-812.429 1340,-773 1340,-773 1340,-773 1340,-313 1340,-237.308 735.71,-270.148 661,-258 652.862,-256.677 644.271,-254.886 636.018,-252.962"/>
<polygon fill="black" stroke="black" points="636.715,-249.529 626.171,-250.571 635.063,-256.332 636.715,-249.529"/>
<text text-anchor="middle" x="1376.5" y="-546.3" font-family="Times,serif" font-size="14.00">a11y policies</text>
</g>
<!-- linuxconfau -->
<g id="node15" class="node"><title>linuxconfau</title>
<polygon fill="none" stroke="black" points="642.25,-864 561.75,-864 561.75,-828 642.25,-828 642.25,-864"/>
<text text-anchor="middle" x="602" y="-842.3" font-family="Times,serif" font-size="14.00">linuxconfau</text>
</g>
<!-- haecksen -->
<g id="node22" class="node"><title>haecksen</title>
<ellipse fill="none" stroke="black" cx="758" cy="-624" rx="42.3456" ry="18"/>
<text text-anchor="middle" x="758" y="-620.3" font-family="Times,serif" font-size="14.00">haecksen</text>
</g>
<!-- linuxconfau&#45;&gt;haecksen -->
<g id="edge36" class="edge"><title>linuxconfau&#45;&gt;haecksen</title>
<path fill="none" stroke="black" d="M642.655,-840.947C700.921,-834.204 803.638,-818.517 826,-790 860.338,-746.211 813.025,-682.652 781.728,-648.615"/>
<polygon fill="black" stroke="black" points="783.97,-645.891 774.56,-641.023 778.881,-650.697 783.97,-645.891"/>
</g>
<!-- adainitiative -->
<g id="node35" class="node"><title>adainitiative</title>
<ellipse fill="none" stroke="black" cx="537" cy="-314" rx="53.4184" ry="18"/>
<text text-anchor="middle" x="537" y="-310.3" font-family="Times,serif" font-size="14.00">adainitiative</text>
</g>
<!-- linuxconfau&#45;&gt;adainitiative -->
<g id="edge16" class="edge"><title>linuxconfau&#45;&gt;adainitiative</title>
<path fill="none" stroke="black" d="M561.649,-840.177C498.136,-831.448 382,-810.375 382,-773 382,-773 382,-773 382,-512 382,-433.503 458.949,-367.823 504.412,-335.867"/>
<polygon fill="black" stroke="black" points="506.523,-338.664 512.781,-330.115 502.558,-332.895 506.523,-338.664"/>
</g>
<!-- linuxchix -->
<g id="node16" class="node"><title>linuxchix</title>
<ellipse fill="none" stroke="black" cx="458" cy="-772" rx="44.2946" ry="18"/>
<text text-anchor="middle" x="458" y="-768.3" font-family="Times,serif" font-size="14.00">linuxchix</text>
</g>
<!-- debianwomen -->
<g id="node19" class="node"><title>debianwomen</title>
<ellipse fill="none" stroke="black" cx="598" cy="-772" rx="60.1672" ry="18"/>
<text text-anchor="middle" x="598" y="-768.3" font-family="Times,serif" font-size="14.00">debianwomen</text>
</g>
<!-- linuxchix&#45;&gt;debianwomen -->
<g id="edge29" class="edge"><title>linuxchix&#45;&gt;debianwomen</title>
<path fill="none" stroke="black" d="M502.297,-772C510.625,-772 518.952,-772 527.28,-772"/>
<polygon fill="black" stroke="black" points="527.438,-775.5 537.438,-772 527.438,-768.5 527.438,-775.5"/>
</g>
<!-- linuxchix&#45;&gt;haecksen -->
<g id="edge35" class="edge"><title>linuxchix&#45;&gt;haecksen</title>
<path fill="none" stroke="black" d="M485.152,-757.786C539.368,-731.401 661.041,-672.187 721.9,-642.569"/>
<polygon fill="black" stroke="black" points="723.665,-645.602 731.125,-638.079 720.602,-639.308 723.665,-645.602"/>
</g>
<!-- geekfeminism -->
<g id="node24" class="node"><title>geekfeminism</title>
<ellipse fill="none" stroke="black" cx="510" cy="-550" rx="61.6163" ry="18"/>
<text text-anchor="middle" x="510" y="-546.3" font-family="Times,serif" font-size="14.00">geekfeminism</text>
</g>
<!-- linuxchix&#45;&gt;geekfeminism -->
<g id="edge12" class="edge"><title>linuxchix&#45;&gt;geekfeminism</title>
<path fill="none" stroke="black" d="M462.08,-753.737C471.099,-715.583 492.782,-623.845 503.616,-578.011"/>
<polygon fill="black" stroke="black" points="507.044,-578.72 505.939,-568.183 500.232,-577.11 507.044,-578.72"/>
</g>
<!-- owoot -->
<g id="node37" class="node"><title>owoot</title>
<ellipse fill="none" stroke="black" cx="394" cy="-314" rx="32.2457" ry="18"/>
<text text-anchor="middle" x="394" y="-310.3" font-family="Times,serif" font-size="14.00">owoot</text>
</g>
<!-- linuxchix&#45;&gt;owoot -->
<g id="edge32" class="edge"><title>linuxchix&#45;&gt;owoot</title>
<path fill="none" stroke="black" d="M443.634,-754.817C432.873,-740.995 420,-720.06 420,-699 420,-699 420,-699 420,-512 420,-450.93 407.567,-380.119 399.897,-342.241"/>
<polygon fill="black" stroke="black" points="403.237,-341.11 397.781,-332.028 396.382,-342.53 403.237,-341.11"/>
</g>
<!-- gnomewomen -->
<g id="node17" class="node"><title>gnomewomen</title>
<ellipse fill="none" stroke="black" cx="1456" cy="-772" rx="61.6163" ry="18"/>
<text text-anchor="middle" x="1456" y="-768.3" font-family="Times,serif" font-size="14.00">gnomewomen</text>
</g>
<!-- opw -->
<g id="node21" class="node"><title>opw</title>
<ellipse fill="none" stroke="black" cx="1536" cy="-698" rx="27" ry="18"/>
<text text-anchor="middle" x="1536" y="-694.3" font-family="Times,serif" font-size="14.00">opw</text>
</g>
<!-- gnomewomen&#45;&gt;opw -->
<g id="edge33" class="edge"><title>gnomewomen&#45;&gt;opw</title>
<path fill="none" stroke="black" d="M1474.15,-754.662C1485.65,-744.315 1500.62,-730.843 1512.95,-719.744"/>
<polygon fill="black" stroke="black" points="1515.52,-722.142 1520.61,-712.85 1510.84,-716.938 1515.52,-722.142"/>
</g>
<!-- ubuntuwomen -->
<g id="node18" class="node"><title>ubuntuwomen</title>
<ellipse fill="none" stroke="black" cx="756" cy="-772" rx="61.6163" ry="18"/>
<text text-anchor="middle" x="756" y="-768.3" font-family="Times,serif" font-size="14.00">ubuntuwomen</text>
</g>
<!-- debianwomen&#45;&gt;gnomewomen -->
<g id="edge31" class="edge"><title>debianwomen&#45;&gt;gnomewomen</title>
<path fill="none" stroke="black" d="M629.574,-787.556C647.898,-795.713 671.698,-804.851 694,-809 836.226,-835.46 1202.2,-832.173 1345,-809 1367.4,-805.365 1391.39,-797.856 1411.31,-790.547"/>
<polygon fill="black" stroke="black" points="1412.62,-793.794 1420.74,-786.992 1410.15,-787.244 1412.62,-793.794"/>
</g>
<!-- debianwomen&#45;&gt;ubuntuwomen -->
<g id="edge30" class="edge"><title>debianwomen&#45;&gt;ubuntuwomen</title>
<path fill="none" stroke="black" d="M658.484,-772C667.063,-772 675.642,-772 684.22,-772"/>
<polygon fill="black" stroke="black" points="684.291,-775.5 694.291,-772 684.291,-768.5 684.291,-775.5"/>
</g>
<!-- gsoc -->
<g id="node20" class="node"><title>gsoc</title>
<polygon fill="none" stroke="black" points="1473,-716 1419,-716 1419,-680 1473,-680 1473,-716"/>
<text text-anchor="middle" x="1446" y="-694.3" font-family="Times,serif" font-size="14.00">gsoc</text>
</g>
<!-- gsoc&#45;&gt;opw -->
<g id="edge34" class="edge"><title>gsoc&#45;&gt;opw</title>
<path fill="none" stroke="black" d="M1473.07,-698C1481.67,-698 1490.27,-698 1498.87,-698"/>
<polygon fill="black" stroke="black" points="1498.96,-701.5 1508.96,-698 1498.96,-694.5 1498.96,-701.5"/>
</g>
<!-- rgsoc -->
<g id="node41" class="node"><title>rgsoc</title>
<ellipse fill="none" stroke="black" cx="1474" cy="-166" rx="29.3479" ry="18"/>
<text text-anchor="middle" x="1474" y="-162.3" font-family="Times,serif" font-size="14.00">rgsoc</text>
</g>
<!-- gsoc&#45;&gt;rgsoc -->
<g id="edge42" class="edge"><title>gsoc&#45;&gt;rgsoc</title>
<path fill="none" stroke="black" d="M1467.75,-679.908C1482,-666.653 1498,-646.895 1498,-625 1498,-625 1498,-625 1498,-239 1498,-222.99 1492.59,-205.958 1486.91,-192.48"/>
<polygon fill="black" stroke="black" points="1490.1,-191.038 1482.8,-183.36 1483.72,-193.915 1490.1,-191.038"/>
</g>
<!-- haecksen&#45;&gt;adacamp -->
<g id="edge37" class="edge"><title>haecksen&#45;&gt;adacamp</title>
<path fill="none" stroke="black" d="M759.61,-605.607C762.487,-575.467 768.969,-511.612 777,-458 783.16,-416.878 790.206,-407.408 794,-366 794.649,-358.919 794.066,-357.111 794,-350 793.778,-325.997 807.738,-314.947 793,-296 790.546,-292.845 695.64,-267.822 637.133,-252.636"/>
<polygon fill="black" stroke="black" points="637.927,-249.227 627.369,-250.106 636.171,-256.003 637.927,-249.227"/>
</g>
<!-- SFF CAHP -->
<g id="node23" class="node"><title>SFF CAHP</title>
<ellipse fill="none" stroke="black" cx="995" cy="-550" rx="51.0191" ry="18"/>
<text text-anchor="middle" x="995" y="-546.3" font-family="Times,serif" font-size="14.00">SFF CAHP</text>
</g>
<!-- backupproject -->
<g id="node32" class="node"><title>backupproject</title>
<ellipse fill="none" stroke="black" cx="1120" cy="-476" rx="60.1672" ry="18"/>
<text text-anchor="middle" x="1120" y="-472.3" font-family="Times,serif" font-size="14.00">backupproject</text>
</g>
<!-- SFF CAHP&#45;&gt;backupproject -->
<g id="edge22" class="edge"><title>SFF CAHP&#45;&gt;backupproject</title>
<path fill="none" stroke="black" d="M1020.6,-534.256C1039.14,-523.576 1064.43,-509.008 1084.86,-497.239"/>
<polygon fill="black" stroke="black" points="1086.66,-500.245 1093.58,-492.221 1083.16,-494.179 1086.66,-500.245"/>
</g>
<!-- GF/TAI AHP -->
<g id="node36" class="node"><title>GF/TAI AHP</title>
<ellipse fill="none" stroke="black" cx="725" cy="-314" rx="59.2173" ry="18"/>
<text text-anchor="middle" x="725" y="-310.3" font-family="Times,serif" font-size="14.00">GF/TAI AHP</text>
</g>
<!-- SFF CAHP&#45;&gt;GF/TAI AHP -->
<g id="edge20" class="edge"><title>SFF CAHP&#45;&gt;GF/TAI AHP</title>
<path fill="none" stroke="black" d="M978.056,-532.925C950.766,-507.035 900.006,-458.888 899,-458 848.934,-413.797 788.217,-364.919 753.35,-337.284"/>
<polygon fill="black" stroke="black" points="755.496,-334.519 745.482,-331.06 751.154,-340.009 755.496,-334.519"/>
</g>
<!-- geekfeminism&#45;&gt;adainitiative -->
<g id="edge15" class="edge"><title>geekfeminism&#45;&gt;adainitiative</title>
<path fill="none" stroke="black" d="M503.082,-531.711C491.897,-501.194 472.668,-436.076 489,-384 494.145,-367.596 504.72,-351.677 514.638,-339.271"/>
<polygon fill="black" stroke="black" points="517.591,-341.195 521.324,-331.28 512.223,-336.703 517.591,-341.195"/>
</g>
<!-- geekfeminism&#45;&gt;GF/TAI AHP -->
<g id="edge18" class="edge"><title>geekfeminism&#45;&gt;GF/TAI AHP</title>
<path fill="none" stroke="black" d="M550.184,-536.299C598.642,-518.663 678.272,-481.756 716,-420 730.263,-396.654 730.934,-364.757 729.026,-342.264"/>
<polygon fill="black" stroke="black" points="732.477,-341.625 727.93,-332.056 725.517,-342.372 732.477,-341.625"/>
</g>
<!-- oscon2009 -->
<g id="node27" class="node"><title>oscon2009</title>
<ellipse fill="none" stroke="black" cx="198" cy="-476" rx="48.6179" ry="18"/>
<text text-anchor="middle" x="198" y="-472.3" font-family="Times,serif" font-size="14.00">oscon2009</text>
</g>
<!-- dreamwidth&#45;&gt;oscon2009 -->
<g id="edge46" class="edge"><title>dreamwidth&#45;&gt;oscon2009</title>
<path fill="none" stroke="black" d="M161.133,-532.301C167.13,-523.304 174.65,-512.025 181.331,-502.003"/>
<polygon fill="black" stroke="black" points="184.293,-503.871 186.928,-493.609 178.468,-499.988 184.293,-503.871"/>
</g>
<!-- otw&#45;&gt;oscon2009 -->
<g id="edge47" class="edge"><title>otw&#45;&gt;oscon2009</title>
<path fill="none" stroke="black" d="M237.151,-533.377C230.778,-524.201 222.577,-512.39 215.328,-501.952"/>
<polygon fill="black" stroke="black" points="218.103,-499.812 209.524,-493.595 212.353,-503.805 218.103,-499.812"/>
</g>
<!-- oscon2009&#45;&gt;geekfeminism -->
<g id="edge48" class="edge"><title>oscon2009&#45;&gt;geekfeminism</title>
<path fill="none" stroke="black" d="M234.089,-488.013C241.32,-490.097 248.882,-492.189 256,-494 321.998,-510.795 398.469,-526.905 450.12,-537.299"/>
<polygon fill="black" stroke="black" points="449.616,-540.767 460.109,-539.3 450.991,-533.904 449.616,-540.767"/>
</g>
<!-- racefail&#45;&gt;geekfeminism -->
<g id="edge13" class="edge"><title>racefail&#45;&gt;geekfeminism</title>
<path fill="none" stroke="black" d="M815.654,-486.323C794.845,-494.674 762.793,-506.697 734,-514 681.969,-527.197 621.804,-536.266 576.938,-541.86"/>
<polygon fill="black" stroke="black" points="576.245,-538.419 566.743,-543.105 577.093,-545.367 576.245,-538.419"/>
</g>
<!-- couchdb -->
<g id="node29" class="node"><title>couchdb</title>
<polygon fill="none" stroke="black" points="1255,-494 1198.52,-476 1255,-458 1311.48,-476 1255,-494"/>
<text text-anchor="middle" x="1255" y="-472.3" font-family="Times,serif" font-size="14.00">couchdb</text>
</g>
<!-- railsbridge -->
<g id="node30" class="node"><title>railsbridge</title>
<ellipse fill="none" stroke="black" cx="1416" cy="-476" rx="48.1437" ry="18"/>
<text text-anchor="middle" x="1416" y="-472.3" font-family="Times,serif" font-size="14.00">railsbridge</text>
</g>
<!-- couchdb&#45;&gt;railsbridge -->
<g id="edge38" class="edge"><title>couchdb&#45;&gt;railsbridge</title>
<path fill="none" stroke="black" d="M1311.6,-476C1326.99,-476 1342.38,-476 1357.77,-476"/>
<polygon fill="black" stroke="black" points="1357.88,-479.5 1367.88,-476 1357.88,-472.5 1357.88,-479.5"/>
</g>
<!-- railsgirls -->
<g id="node39" class="node"><title>railsgirls</title>
<ellipse fill="none" stroke="black" cx="1403" cy="-240" rx="41.394" ry="18"/>
<text text-anchor="middle" x="1403" y="-236.3" font-family="Times,serif" font-size="14.00">railsgirls</text>
</g>
<!-- railsbridge&#45;&gt;railsgirls -->
<g id="edge40" class="edge"><title>railsbridge&#45;&gt;railsgirls</title>
<path fill="none" stroke="black" d="M1408.5,-458.045C1404.19,-447.363 1399.21,-433.151 1397,-420 1388.07,-366.782 1394,-303.456 1398.75,-268.183"/>
<polygon fill="black" stroke="black" points="1402.23,-268.572 1400.17,-258.18 1395.3,-267.589 1402.23,-268.572"/>
</g>
<!-- pystar -->
<g id="node45" class="node"><title>pystar</title>
<ellipse fill="none" stroke="black" cx="1438" cy="-402" rx="32.2457" ry="18"/>
<text text-anchor="middle" x="1438" y="-398.3" font-family="Times,serif" font-size="14.00">pystar</text>
</g>
<!-- railsbridge&#45;&gt;pystar -->
<g id="edge39" class="edge"><title>railsbridge&#45;&gt;pystar</title>
<path fill="none" stroke="black" d="M1421.21,-457.937C1423.79,-449.508 1426.96,-439.143 1429.84,-429.696"/>
<polygon fill="black" stroke="black" points="1433.25,-430.527 1432.82,-419.941 1426.55,-428.481 1433.25,-430.527"/>
</g>
<!-- osbp -->
<g id="node31" class="node"><title>osbp</title>
<polygon fill="none" stroke="black" points="985,-494 946.594,-476 985,-458 1023.41,-476 985,-494"/>
<text text-anchor="middle" x="985" y="-472.3" font-family="Times,serif" font-size="14.00">osbp</text>
</g>
<!-- osbp&#45;&gt;backupproject -->
<g id="edge21" class="edge"><title>osbp&#45;&gt;backupproject</title>
<path fill="none" stroke="black" d="M1023.5,-476C1032.17,-476 1040.84,-476 1049.51,-476"/>
<polygon fill="black" stroke="black" points="1049.69,-479.5 1059.69,-476 1049.69,-472.5 1049.69,-479.5"/>
</g>
<!-- osbridge -->
<g id="node33" class="node"><title>osbridge</title>
<ellipse fill="none" stroke="black" cx="306" cy="-476" rx="40.4202" ry="18"/>
<text text-anchor="middle" x="306" y="-472.3" font-family="Times,serif" font-size="14.00">osbridge</text>
</g>
<!-- apachecon assault -->
<g id="node34" class="node"><title>apachecon assault</title>
<polygon fill="none" stroke="black" points="603,-420 498.823,-402 603,-384 707.177,-402 603,-420"/>
<text text-anchor="middle" x="603" y="-398.3" font-family="Times,serif" font-size="14.00">apachecon assault</text>
</g>
<!-- apachecon assault&#45;&gt;adainitiative -->
<g id="edge14" class="edge"><title>apachecon assault&#45;&gt;adainitiative</title>
<path fill="none" stroke="black" d="M591.201,-385.625C581.468,-372.943 567.469,-354.703 556.137,-339.936"/>
<polygon fill="black" stroke="black" points="558.689,-337.513 549.825,-331.711 553.136,-341.775 558.689,-337.513"/>
</g>
<!-- apachecon assault&#45;&gt;GF/TAI AHP -->
<g id="edge17" class="edge"><title>apachecon assault&#45;&gt;GF/TAI AHP</title>
<path fill="none" stroke="black" d="M622.601,-387.183C641.953,-373.542 671.829,-352.482 694.325,-336.624"/>
<polygon fill="black" stroke="black" points="696.391,-339.449 702.548,-330.827 692.358,-333.728 696.391,-339.449"/>
</g>
<!-- adainitiative&#45;&gt;GF/TAI AHP -->
<g id="edge19" class="edge"><title>adainitiative&#45;&gt;GF/TAI AHP</title>
<path fill="none" stroke="black" d="M590.609,-314C612.211,-314 633.814,-314 655.416,-314"/>
<polygon fill="black" stroke="black" points="655.679,-317.5 665.679,-314 655.679,-310.5 655.679,-317.5"/>
</g>
<!-- adainitiative&#45;&gt;adacamp -->
<g id="edge24" class="edge"><title>adainitiative&#45;&gt;adacamp</title>
<path fill="none" stroke="black" d="M549.756,-296.301C556.698,-287.213 565.419,-275.797 573.132,-265.7"/>
<polygon fill="black" stroke="black" points="576.024,-267.68 579.313,-257.609 570.461,-263.431 576.024,-267.68"/>
</g>
<!-- PyCon AHP -->
<g id="node43" class="node"><title>PyCon AHP</title>
<ellipse fill="none" stroke="black" cx="725" cy="-240" rx="54.3924" ry="18"/>
<text text-anchor="middle" x="725" y="-236.3" font-family="Times,serif" font-size="14.00">PyCon AHP</text>
</g>
<!-- GF/TAI AHP&#45;&gt;PyCon AHP -->
<g id="edge23" class="edge"><title>GF/TAI AHP&#45;&gt;PyCon AHP</title>
<path fill="none" stroke="black" d="M725,-295.937C725,-287.807 725,-277.876 725,-268.705"/>
<polygon fill="black" stroke="black" points="728.5,-268.441 725,-258.441 721.5,-268.441 728.5,-268.441"/>
</g>
<!-- adacamp&#45;&gt;osbridge -->
<g id="edge26" class="edge"><title>adacamp&#45;&gt;osbridge</title>
<path fill="none" stroke="black" d="M560.273,-252.016C553.618,-254.145 546.612,-256.254 540,-258 458.002,-279.657 426.052,-252.917 353,-296 325.844,-312.016 318.011,-320.458 307,-350 295.075,-381.992 297.429,-421.872 301.016,-447.862"/>
<polygon fill="black" stroke="black" points="297.558,-448.403 302.535,-457.756 304.477,-447.341 297.558,-448.403"/>
<text text-anchor="middle" x="343.5" y="-354.3" font-family="Times,serif" font-size="14.00">a11y policies</text>
</g>
<!-- doubleunion -->
<g id="node40" class="node"><title>doubleunion</title>
<ellipse fill="none" stroke="black" cx="475" cy="-166" rx="54.3924" ry="18"/>
<text text-anchor="middle" x="475" y="-162.3" font-family="Times,serif" font-size="14.00">doubleunion</text>
</g>
<!-- adacamp&#45;&gt;doubleunion -->
<g id="edge27" class="edge"><title>adacamp&#45;&gt;doubleunion</title>
<path fill="none" stroke="black" d="M568.885,-224.775C551.559,-214.113 527.601,-199.37 508.224,-187.445"/>
<polygon fill="black" stroke="black" points="510.034,-184.45 499.683,-182.19 506.365,-190.411 510.034,-184.45"/>
</g>
<!-- railsgirls&#45;&gt;rgsoc -->
<g id="edge41" class="edge"><title>railsgirls&#45;&gt;rgsoc</title>
<path fill="none" stroke="black" d="M1418.76,-223.021C1428.58,-213.057 1441.37,-200.093 1452.16,-189.146"/>
<polygon fill="black" stroke="black" points="1454.73,-191.529 1459.26,-181.951 1449.74,-186.614 1454.73,-191.529"/>
</g>
<!-- mvc -->
<g id="node42" class="node"><title>mvc</title>
<ellipse fill="none" stroke="black" cx="124" cy="-92" rx="27" ry="18"/>
<text text-anchor="middle" x="124" y="-88.3" font-family="Times,serif" font-size="14.00">mvc</text>
</g>
<!-- mothershiphackermoms -->
<g id="node44" class="node"><title>mothershiphackermoms</title>
<ellipse fill="none" stroke="black" cx="435" cy="-240" rx="96.2631" ry="18"/>
<text text-anchor="middle" x="435" y="-236.3" font-family="Times,serif" font-size="14.00">mothershiphackermoms</text>
</g>
<!-- mothershiphackermoms&#45;&gt;doubleunion -->
<g id="edge28" class="edge"><title>mothershiphackermoms&#45;&gt;doubleunion</title>
<path fill="none" stroke="black" d="M444.479,-221.937C449.311,-213.239 455.289,-202.48 460.67,-192.795"/>
<polygon fill="black" stroke="black" points="463.792,-194.382 465.589,-183.941 457.673,-190.982 463.792,-194.382"/>
</g>
</g>
</svg>
