<!--?xml version="1.0" encoding="UTF-8" standalone="no"?-->

<!-- Generated by graphviz version 2.28.0 (20110507.0327)
 -->
<!-- Title: G Pages: 1 -->
<svg width="1477pt" height="874pt" viewBox="0.00 0.00 1477.00 874.00" xmlns="http://www.w3.org/2000/svg" xmlns:xlink="http://www.w3.org/1999/xlink">
<g id="graph1" class="graph" transform="scale(1 1) rotate(0) translate(4 870)">
<title>G</title>
<polygon fill="white" stroke="white" points="-4,5 -4,-870 1474,-870 1474,5 -4,5"></polygon>
<!-- past -->
<g id="node2" class="node"><title>past</title>
<text text-anchor="middle" x="51" y="-843.2" font-family="Times,serif" font-size="16.00">past</text>
</g>
<!-- 2000&#45;2003 -->
<g id="node4" class="node"><title>2000-2003</title>
<text text-anchor="middle" x="51" y="-769.2" font-family="Times,serif" font-size="16.00">2000-2003</text>
</g>
<!-- past&#45;&gt;2000&#45;2003 -->
<g id="edge3" class="edge"><title>past-&gt;2000-2003</title>
<path fill="none" stroke="black" d="M51,-829.937C51,-821.807 51,-811.876 51,-802.705"></path>
<polygon fill="black" stroke="black" points="54.5001,-802.441 51,-792.441 47.5001,-802.441 54.5001,-802.441"></polygon>
</g>
<!-- 2004&#45;2006 -->
<g id="node5" class="node"><title>2004-2006</title>
<text text-anchor="middle" x="51" y="-695.2" font-family="Times,serif" font-size="16.00">2004-2006</text>
</g>
<!-- 2000&#45;2003&#45;&gt;2004&#45;2006 -->
<g id="edge4" class="edge"><title>2000-2003-&gt;2004-2006</title>
<path fill="none" stroke="black" d="M51,-755.937C51,-747.807 51,-737.876 51,-728.705"></path>
<polygon fill="black" stroke="black" points="54.5001,-728.441 51,-718.441 47.5001,-728.441 54.5001,-728.441"></polygon>
</g>
<!-- 2007 -->
<g id="node6" class="node"><title>2007</title>
<text text-anchor="middle" x="51" y="-621.2" font-family="Times,serif" font-size="16.00">2007</text>
</g>
<!-- 2004&#45;2006&#45;&gt;2007 -->
<g id="edge5" class="edge"><title>2004-2006-&gt;2007</title>
<path fill="none" stroke="black" d="M51,-681.937C51,-673.807 51,-663.876 51,-654.705"></path>
<polygon fill="black" stroke="black" points="54.5001,-654.441 51,-644.441 47.5001,-654.441 54.5001,-654.441"></polygon>
</g>
<!-- 2008 -->
<g id="node7" class="node"><title>2008</title>
<text text-anchor="middle" x="51" y="-547.2" font-family="Times,serif" font-size="16.00">2008</text>
</g>
<!-- 2007&#45;&gt;2008 -->
<g id="edge6" class="edge"><title>2007-&gt;2008</title>
<path fill="none" stroke="black" d="M51,-607.937C51,-599.807 51,-589.876 51,-580.705"></path>
<polygon fill="black" stroke="black" points="54.5001,-580.441 51,-570.441 47.5001,-580.441 54.5001,-580.441"></polygon>
</g>
<!-- 2009 -->
<g id="node8" class="node"><title>2009</title>
<text text-anchor="middle" x="51" y="-473.2" font-family="Times,serif" font-size="16.00">2009</text>
</g>
<!-- 2008&#45;&gt;2009 -->
<g id="edge7" class="edge"><title>2008-&gt;2009</title>
<path fill="none" stroke="black" d="M51,-533.937C51,-525.807 51,-515.876 51,-506.705"></path>
<polygon fill="black" stroke="black" points="54.5001,-506.441 51,-496.441 47.5001,-506.441 54.5001,-506.441"></polygon>
</g>
<!-- 2010 -->
<g id="node9" class="node"><title>2010</title>
<text text-anchor="middle" x="51" y="-399.2" font-family="Times,serif" font-size="16.00">2010</text>
</g>
<!-- 2009&#45;&gt;2010 -->
<g id="edge8" class="edge"><title>2009-&gt;2010</title>
<path fill="none" stroke="black" d="M51,-459.937C51,-451.807 51,-441.876 51,-432.705"></path>
<polygon fill="black" stroke="black" points="54.5001,-432.441 51,-422.441 47.5001,-432.441 54.5001,-432.441"></polygon>
</g>
<!-- 2011 -->
<g id="node10" class="node"><title>2011</title>
<text text-anchor="middle" x="51" y="-309.2" font-family="Times,serif" font-size="16.00">2011</text>
</g>
<!-- 2010&#45;&gt;2011 -->
<g id="edge9" class="edge"><title>2010-&gt;2011</title>
<path fill="none" stroke="black" d="M51,-385.614C51,-373.24 51,-356.369 51,-342.22"></path>
<polygon fill="black" stroke="black" points="54.5001,-342.05 51,-332.05 47.5001,-342.05 54.5001,-342.05"></polygon>
</g>
<!-- 2012 -->
<g id="node11" class="node"><title>2012</title>
<text text-anchor="middle" x="51" y="-235.2" font-family="Times,serif" font-size="16.00">2012</text>
</g>
<!-- 2011&#45;&gt;2012 -->
<g id="edge10" class="edge"><title>2011-&gt;2012</title>
<path fill="none" stroke="black" d="M51,-295.937C51,-287.807 51,-277.876 51,-268.705"></path>
<polygon fill="black" stroke="black" points="54.5001,-268.441 51,-258.441 47.5001,-268.441 54.5001,-268.441"></polygon>
</g>
<!-- 2013 -->
<g id="node12" class="node"><title>2013</title>
<text text-anchor="middle" x="51" y="-161.2" font-family="Times,serif" font-size="16.00">2013</text>
</g>
<!-- 2012&#45;&gt;2013 -->
<g id="edge11" class="edge"><title>2012-&gt;2013</title>
<path fill="none" stroke="black" d="M51,-221.937C51,-213.807 51,-203.876 51,-194.705"></path>
<polygon fill="black" stroke="black" points="54.5001,-194.441 51,-184.441 47.5001,-194.441 54.5001,-194.441"></polygon>
</g>
<!-- 2014 -->
<g id="node13" class="node"><title>2014</title>
<text text-anchor="middle" x="51" y="-87.2" font-family="Times,serif" font-size="16.00">2014</text>
</g>
<!-- 2013&#45;&gt;2014 -->
<g id="edge12" class="edge"><title>2013-&gt;2014</title>
<path fill="none" stroke="black" d="M51,-147.937C51,-139.807 51,-129.876 51,-120.705"></path>
<polygon fill="black" stroke="black" points="54.5001,-120.441 51,-110.441 47.5001,-120.441 54.5001,-120.441"></polygon>
</g>
<!-- unknowndate -->
<g id="node14" class="node"><title>unknowndate</title>
<text text-anchor="middle" x="51" y="-13.2" font-family="Times,serif" font-size="16.00">unknowndate</text>
</g>
<!-- 2014&#45;&gt;unknowndate -->
<g id="edge13" class="edge"><title>2014-&gt;unknowndate</title>
<path fill="none" stroke="black" d="M51,-73.937C51,-65.8072 51,-55.8761 51,-46.7047"></path>
<polygon fill="black" stroke="black" points="54.5001,-46.4406 51,-36.4407 47.5001,-46.4407 54.5001,-46.4406"></polygon>
</g>
<!-- livejournal -->
<g id="node16" class="node"><title>livejournal</title>
<polygon fill="none" stroke="black" points="248.991,-866 173.009,-866 173.009,-830 248.991,-830 248.991,-866"></polygon>
<text text-anchor="middle" x="211" y="-843.8" font-family="Times,serif" font-size="14.00">livejournal</text>
</g>
<!-- dreamwidth -->
<g id="node32" class="node"><title>dreamwidth</title>
<ellipse fill="none" stroke="black" cx="153" cy="-552" rx="57.2417" ry="18"></ellipse>
<text text-anchor="middle" x="153" y="-547.8" font-family="Times,serif" font-size="14.00">dreamwidth</text>
</g>
<!-- livejournal&#45;&gt;dreamwidth -->
<g id="edge89" class="edge"><title>livejournal-&gt;dreamwidth</title>
<path fill="none" stroke="black" d="M198.536,-829.893C189.551,-815.864 179,-795.108 179,-775 179,-775 179,-775 179,-625 179,-609.065 173.297,-592.263 167.233,-578.902"></path>
<polygon fill="black" stroke="black" points="170.349,-577.306 162.829,-569.842 164.053,-580.366 170.349,-577.306"></polygon>
</g>
<!-- otw -->
<g id="node33" class="node"><title>otw</title>
<ellipse fill="none" stroke="black" cx="255" cy="-552" rx="27" ry="18"></ellipse>
<text text-anchor="middle" x="255" y="-547.8" font-family="Times,serif" font-size="14.00">otw</text>
</g>
<!-- livejournal&#45;&gt;otw -->
<g id="edge91" class="edge"><title>livejournal-&gt;otw</title>
<path fill="none" stroke="black" d="M226.019,-829.974C236.64,-816.152 249,-795.636 249,-775 249,-775 249,-775 249,-625 249,-610.154 250.283,-593.645 251.662,-580.184"></path>
<polygon fill="black" stroke="black" points="255.153,-580.455 252.766,-570.133 248.195,-579.691 255.153,-580.455"></polygon>
</g>
<!-- wiscon -->
<g id="node17" class="node"><title>wiscon</title>
<ellipse fill="nonetroke="black" cx="338" cy="-848" rx="38.087" ry="18"></ellipse>
<text text-anchor="middle" x="338" y="-843.8" font-family="Times,serif" font-size="14.00">wiscon</text>
</g>
<!-- racefail -->
<g id="node36" class="node"><title>racefail</title>
<polygon fill="none" stroke="black" points="556,-496 499.689,-478 556,-460 612.311,-478 556,-496"></polygon>
<text text-anchor="middle" x="556" y="-473.8" font-family="Times,serif" font-size="14.00">racefail</text>
</g>
<!-- wiscon&#45;&gt;racefail -->
<g id="edge87" class="edge"><title>wiscon-&gt;racefail</title>
<path fill="none" stroke="black" d="M375.074,-843.383C415.647,-837.142 475,-820.275 475,-775 475,-775 475,-775 475,-662 475,-599.437 515.076,-534.344 538.85,-501.235"></path>
<polygon fill="black" stroke="black" points="541.968,-502.902 545.076,-492.774 536.33,-498.754 541.968,-502.902"></polygon>
</g>
<!-- adacamp -->
<g id="node49" class="node"><title>adacamp</title>
<ellipse fill="none" stroke="black" cx="382" cy="-240" rx="45.0297" ry="18"></ellipse>
<text text-anchor="middle" x="382" y="-235.8" font-family="Times,serif" font-size="14.00">adacamp</text>
</g>
<!-- wiscon&#45;&gt;adacamp -->
<g id="edge53" class="edge"><title>wiscon-&gt;adacamp</title>
<path fill="none" stroke="black" d="M333.904,-829.946C330.777,-815.427 327,-793.968 327,-775 327,-775 327,-775 327,-313 327,-293.539 339.846,-276.072 353.121,-263.217"></path>
<polygon fill="black" stroke="black" points="355.815,-265.5 360.893,-256.201 351.125,-260.304 355.815,-265.5"></polygon>
<text text-anchor="middle" x="364.13" y="-547.8" font-family="Times,serif" font-size="14.00">a11y policies</text>
</g>
<!-- linuxconfau -->
<g id="node18" class="node"><title>linuxconfau</title>
<polygon fill="none" stroke="black" points="597.154,-866 514.846,-866 514.846,-830 597.154,-830 597.154,-866"></polygon>
<text text-anchor="middle" x="556" y="-843.8" font-family="Times,serif" font-size="14.00">linuxconfau</text>
</g>
<!-- haecksen -->
<g id="node28" class="node"><title>haecksen</title>
<ellipse fill="none" stroke="black" cx="611" cy="-626" rx="46.137" ry="18"></ellipse>
<text text-anchor="middle" x="611" y="-621.8" font-family="Times,serif" font-size="14.00">haecksen</text>
</g>
<!-- linuxconfau&#45;&gt;haecksen -->
<g id="edge75" class="edge"><title>linuxconfau-&gt;haecksen</title>
<path fill="none" stroke="black" d="M560.316,-829.737C569.854,-791.583 592.789,-699.845 604.247,-654.011"></path>
<polygon fill="black" stroke="black" points="607.674,-654.733 606.704,-644.183 600.883,-653.035 607.674,-654.733"></polygon>
</g>
<!-- adainitiative -->
<g id="node45" class="node"><title>adainitiative</title>
<ellipse fill="none" stroke="black" cx="490" cy="-314" rx="58.1586" ry="18"></ellipse>
<text text-anchor="middle" x="490" y="-309.8" font-family="Times,serif" font-size="14.00">adainitiative</text>
</g>
<!-- linuxconfau&#45;&gt;adainitiative -->
<g id="edge35" class="edge"><title>linuxconfau-&gt;adainitiative</title>
<path fill="none" stroke="black" d="M538.51,-829.754C526.605,-816.126 513,-795.966 513,-775 513,-775 513,-775 513,-662 513,-587.517 495.123,-570.306 490,-496 486.249,-441.594 487.584,-377.771 488.833,-342.303"></path>
<polygon fill="black" stroke="black" points="492.332,-342.372 489.212,-332.247 485.337,-342.108 492.332,-342.372"></polygon>
</g>
<!-- linuxchix -->
<g id="node20" class="node"><title>linuxchix</title>
<ellipse fill="none" stroke="black" cx="714" cy="-774" rx="47.2748" ry="18"></ellipse>
<text text-anchor="middle" x="714" y="-769.8" font-family="Times,serif" font-size="14.00">linuxchix</text>
</g>
<!-- gnomewomen -->
<g id="node21" class="node"><title>gnomewomen</title>
<ellipse fill="none" stroke="black" cx="1220" cy="-774" rx="65.6214" ry="18"></ellipse>
<text text-anchor="middle" x="1220" y="-769.8" font-family="Times,serif" font-size="14.00">gnomewomen</text>
</g>
<!-- linuxchix&#45;&gt;gnomewomen -->
<g id="edge65" class="edge"><title>linuxchix-&gt;gnomewomen</title>
<path fill="none" stroke="black" d="M744.81,-787.847C765.582,-796.404 793.864,-806.57 820,-811 955.84,-834.027 994.834,-837.7 1130,-811 1147.02,-807.638 1164.87,-801.02 1180.14,-794.299"></path>
<polygon fill="black" stroke="black" points="1181.64,-797.462 1189.28,-790.129 1178.73,-791.093 1181.64,-797.462"></polygon>
</g>
<!-- debianwomen -->
<g id="node23" class="node"><title>debianwomen</title>
<ellipse fill="none" stroke="black" cx="885" cy="-774" rx="65.3096" ry="18"></ellipse>
<text text-anchor="middle" x="885" y="-769.8" font-family="Times,serif" font-size="14.00">debianwomen</text>
</g>
<!-- linuxchix&#45;&gt;debianwomen -->
<g id="edge61" class="edge"><title>linuxchix-&gt;debianwomen</title>
<path fill="none" stroke="black" d="M761.426,-774C777.549,-774 793.672,-774 809.795,-774"></path>
<polygon fill="black" stroke="black" points="809.834,-777.5 819.834,-774 809.834,-770.5 809.834,-777.5"></polygon>
</g>
<!-- linuxchix&#45;&gt;haecksen -->
<g id="edge73" class="edge"><title>linuxchix-&gt;haecksen</title>
<path fill="none" stroke="black" d="M702.385,-756.536C684.38,-731.015 649.618,-681.739 628.542,-651.866"></path>
<polygon fill="black" stroke="black" points="631.355,-649.782 622.731,-643.628 625.636,-653.817 631.355,-649.782"></polygon>
</g>
<!-- geekfeminism -->
<g id="node31" class="node"><title>geekfeminism</title>
<ellipse fill="none" stroke="black" cx="641" cy="-552" rx="65.6156" ry="18"></ellipse>
<text text-anchor="middle" x="641" y="-547.8" font-family="Times,serif" font-size="14.00">geekfeminism</text>
</g>
<!-- linuxchix&#45;&gt;geekfeminism -->
<g id="edge27" class="edge"><title>linuxchix-&gt;geekfeminism</title>
<path fill="none" stroke="black" d="M709.883,-755.875C702.418,-725.61 685.592,-660.872 666,-608 662.467,-598.466 658.025,-588.266 653.869,-579.272"></path>
<polygon fill="black" stroke="black" points="656.961,-577.623 649.528,-570.074 650.631,-580.611 656.961,-577.623"></polygon>
</g>
<!-- owoot -->
<g id="node47" class="node"><title>owoot</title>
<ellipse fill="none" stroke="black" cx="1137" cy="-314" rx="35.2659" ry="18"></ellipse>
<text text-anchor="middle" x="1137" y="-309.8" font-family="Times,serif" font-size="14.00">owoot</text>
</g>
<!-- linuxchix&#45;&gt;owoot -->
<g id="edge67" class="edge"><title>linuxchix-&gt;owoot</title>
<path fill="none" stroke="black" d="M756.006,-765.578C773.067,-762.579 792.971,-759.101 811,-756 883.405,-743.548 1137,-774.468 1137,-701 1137,-701 1137,-701 1137,-403 1137,-382.63 1137,-359.609 1137,-342.222"></path>
<polygon fill="black" stroke="black" points="1140.5,-342.199 1137,-332.199 1133.5,-342.2 1140.5,-342.199"></polygon>
</g>
<!-- opw -->
<g id="node26" class="node"><title>opw</title>
<ellipse fill="none" stroke="black" cx="1414" cy="-700" rx="27.4962" ry="18"></ellipse>
<text text-anchor="middle" x="1414" y="-695.8" font-family="Times,serif" font-size="14.00">opw</text>
</g>
<!-- gnomewomen&#45;&gt;opw -->
<g id="edge69" class="edge"><title>gnomewomen-&gt;opw</title>
<path fill="none" stroke="black" d="M1257.41,-759.118C1293.28,-745.803 1346.92,-725.897 1381.18,-713.182"></path>
<polygon fill="black" stroke="black" points="1382.56,-716.401 1390.72,-709.64 1380.13,-709.838 1382.56,-716.401"></polygon>
</g>
<!-- ubuntuwomen -->
<g id="node22" class="node"><title>ubuntuwomen</title>
<ellipse fill="none" stroke="black" cx="1064" cy="-774" rx="65.9356" ry="18"></ellipse>
<text text-anchor="middle" x="1064" y="-769.8" font-family="Times,serif" font-size="14.00">ubuntuwomen</text>
</g>
<!-- debianwomen&#45;&gt;ubuntuwomen -->
<g id="edge63" class="edge"><title>debianwomen-&gt;ubuntuwomen</title>
<path fill="none" stroke="black" d="M950.377,-774C962.629,-774 974.881,-774 987.132,-774"></path>
<polygon fill="black" stroke="black" points="987.424,-777.5 997.424,-774 987.424,-770.5 987.424,-777.5"></polygon>
</g>
<!-- gsoc -->
<g id="node25" class="node"><title>gsoc</title>
<polygon fill="none" stroke="black" points="1351,-718 1297,-718 1297,-682 1351,-682 1351,-718"></polygon>
<text text-anchor="middle" x="1324" y="-695.8" font-family="Times,serif" font-size="14.00">gsoc</text>
</g>
<!-- gsoc&#45;&gt;opw -->
<g id="edge71" class="edge"><title>gsoc-&gt;opw</title>
<path fill="none" stroke="black" d="M1351.07,-700C1359.46,-700 1367.85,-700 1376.24,-700"></path>
<polygon fill="black" stroke="black" points="1376.47,-703.5 1386.47,-700 1376.47,-696.5 1376.47,-703.5"></polygon>
</g>
<!-- rgsoc -->
<g id="node53" class="node"><title>rgsoc</title>
<ellipse fill="none" stroke="black" cx="1438" cy="-166" rx="31.4266" ry="18"></ellipse>
<text text-anchor="middle" x="1438" y="-161.8" font-family="Times,serif" font-size="14.00">rgsoc</text>
</g>
<!-- gsoc&#45;&gt;rgsoc -->
<g id="edge85" class="edge"><title>gsoc-&gt;rgsoc</title>
<path fill="none" stroke="black" d="M1351.24,-690.31C1390.15,-677.06 1457,-650.828 1457,-627 1457,-627 1457,-627 1457,-239 1457,-223.547 1452.86,-206.828 1448.44,-193.394"></path>
<polygon fill="black" stroke="black" points="1451.7,-192.105 1445.07,-183.836 1445.1,-194.431 1451.7,-192.105"></polygon>
</g>
<!-- SFF CAHP -->
<g id="node30" class="node"><title>SFF CAHP</title>
<ellipse fill="none" stroke="black" cx="884" cy="-552" rx="54.9615" ry="18"></ellipse>
<text text-anchor="middle" x="884" y="-547.8" font-family="Times,serif" font-size="14.00">SFF CAHP</text>
</g>
<!-- backupproject -->
<g id="node40" class="node"><title>backupproject</title>
<ellipse fill="none" stroke="black" cx="1043" cy="-478" rx="65.604" ry="18"></ellipse>
<text text-anchor="middle" x="1043" y="-473.8" font-family="Times,serif" font-size="14.00">backupproject</text>
</g>
<!-- SFF CAHP&#45;&gt;backupproject -->
<g id="edge47" class="edge"><title>SFF CAHP-&gt;backupproject</title>
<path fill="none" stroke="black" d="M915.034,-536.947C939.611,-525.818 974.179,-510.164 1001.19,-497.931"></path>
<polygon fill="black" stroke="black" points="1002.74,-501.074 1010.4,-493.76 999.851,-494.697 1002.74,-501.074"></polygon>
</g>
<!-- GF/TAI AHP -->
<g id="node46" class="node"><title>GF/TAI AHP</title>
<ellipse fill="none" stroke="black" cx="793" cy="-314" rx="63.3071" ry="18"></ellipse>
<text text-anchor="middle" x="793" y="-309.8" font-family="Times,serif" font-size="14.00">GF/TAI AHP</text>
</g>
<!-- SFF CAHP&#45;&gt;GF/TAI AHP -->
<g id="edge43" class="edge"><title>SFF CAHP-&gt;GF/TAI AHP</title>
<path fill="none" stroke="black" d="M872.05,-534.312C864.894,-523.73 856.043,-509.53 850,-496 822.414,-434.236 829.141,-413.918 807,-350 806.036,-347.217 804.978,-344.331 803.89,-341.464"></path>
<polygon fill="black" stroke="black" points="807.074,-339.997 800.16,-331.969 800.558,-342.556 807.074,-339.997"></polygon>
</g>
<!-- geekfeminism&#45;&gt;adainitiative -->
<g id="edge33" class="edge"><title>geekfeminism-&gt;adainitiative</title>
<path fill="none" stroke="black" d="M641.739,-533.86C641.681,-513.874 638.603,-480.915 621,-460 592.248,-425.838 558.828,-454.301 528,-422 507.109,-400.111 497.609,-366.005 493.35,-342.2"></path>
<polygon fill="black" stroke="black" points="496.766,-341.396 491.74,-332.069 489.853,-342.494 496.766,-341.396"></polygon>
</g>
<!-- geekfeminism&#45;&gt;GF/TAI AHP -->
<g id="edge39" class="edge"><title>geekfeminism-&gt;GF/TAI AHP</title>
<path fill="none" stroke="black" d="M664.603,-535.095C694.887,-513.337 746.644,-471.313 773,-422 786.244,-397.221 790.85,-365.135 792.385,-342.586"></path>
<polygon fill="black" stroke="black" points="795.893,-342.525 792.916,-332.357 788.902,-342.162 795.893,-342.525"></polygon>
</g>
<!-- oscon2009 -->
<g id="node35" class="node"><title>oscon2009</title>
<ellipse fill="none" stroke="black" cx="246" cy="-478" rx="52.3185" ry="18"></ellipse>
<text text-anchor="middle" x="246" y="-473.8" font-family="Times,serif" font-size="14.00">oscon2009</text>
</g>
<!-- dreamwidth&#45;&gt;oscon2009 -->
<g id="edge93" class="edge"><title>dreamwidth-&gt;oscon2009</title>
<path fill="none" stroke="black" d="M173.64,-535.021C186.612,-524.978 203.522,-511.886 217.733,-500.884"></path>
<polygon fill="black" stroke="black" points="219.973,-503.576 225.738,-494.687 215.688,-498.041 219.973,-503.576"></polygon>
</g>
<!-- otw&#45;&gt;oscon2009 -->
<g id="edge95" class="edge"><title>otw-&gt;oscon2009</title>
<path fill="none" stroke="black" d="M252.867,-533.937C251.84,-525.719 250.583,-515.66 249.426,-506.406"></path>
<polygon fill="black" stroke="black" points="252.893,-505.929 248.18,-496.441 245.948,-506.798 252.893,-505.929"></polygon>
</g>
<!-- oscon2009&#45;&gt;geekfeminism -->
<g id="edge97" class="edge"><title>oscon2009-&gt;geekfeminism</title>
<path fill="none" stroke="black" d="M291.212,-487.241C361.742,-500.097 498.147,-524.961 578.187,-539.551"></path>
<polygon fill="black" stroke="black" points="577.673,-543.014 588.138,-541.364 578.928,-536.128 577.673,-543.014"></polygon>
</g>
<!-- racefail&#45;&gt;geekfeminism -->
<g id="edge29" class="edge"><title>racefail-&gt;geekfeminism</title>
<path fill="none" stroke="black" d="M570.712,-491.462C582.625,-501.553 599.723,-516.036 614.073,-528.191"></path>
<polygon fill="black" stroke="black" points="611.819,-530.869 621.712,-534.662 616.344,-525.528 611.819,-530.869"></polygon>
</g>
<!-- couchdb -->
<g id="node37" class="node"><title>couchdb</title>
<polygon fill="none" stroke="black" points="1227,-496 1165.69,-478 1227,-460 1288.31,-478 1227,-496"></polygon>
<text text-anchor="middle" x="1227" y="-473.8" font-family="Times,serif" font-size="14.00">couchdb</text>
</g>
<!-- railsbridge -->
<g id="node38" class="node"><title>railsbridge</title>
<ellipse fill="none" stroke="black" cx="1377" cy="-478" rx="51.9984" ry="18"></ellipse>
<text text-anchor="middle" x="1377" y="-473.8" font-family="Times,serif" font-size="14.00">railsbridge</text>
</g>
<!-- couchdb&#45;&gt;railsbridge -->
<g id="edge77" class="edge"><title>couchdb-&gt;railsbridge</title>
<path fill="none" stroke="black" d="M1288.52,-478C1297.22,-478 1305.91,-478 1314.61,-478"></path>
<polygon fill="black" stroke="black" points="1314.81,-481.5 1324.81,-478 1314.81,-474.5 1314.81,-481.5"></polygon>
</g>
<!-- railsgirls -->
<g id="node50" class="node"><title>railsgirls</title>
<ellipse fill="none" stroke="black" cx="1384" cy="-240" rx="44.2429" ry="18"></ellipse>
<text text-anchor="middle" x="1384" y="-235.8" font-family="Times,serif" font-size="14.00">railsgirls</text>
</g>
<!-- railsbridge&#45;&gt;railsgirls -->
<g id="edge81" class="edge"><title>railsbridge-&gt;railsgirls</title>
<path fill="none" stroke="black" d="M1377.51,-459.646C1378.72,-418.972 1381.74,-317.232 1383.19,-268.226"></path>
<polygon fill="black" stroke="black" points="1386.7,-268.16 1383.49,-258.061 1379.7,-267.953 1386.7,-268.16"></polygon>
</g>
<!-- pystar -->
<g id="node86" class="node"><title>pystar</title>
<ellipse fill="none" stroke="black" cx="1321" cy="-404" rx="34.4506" ry="18"></ellipse>
<text text-anchor="middle" x="1321" y="-399.8" font-family="Times,serif" font-size="14.00">pystar</text>
</g>
<!-- railsbridge&#45;&gt;pystar -->
<g id="edge79" class="edge"><title>railsbridge-&gt;pystar</title>
<path fill="none" stroke="black" d="M1364.01,-460.301C1356.84,-451.084 1347.81,-439.47 1339.87,-429.268"></path>
<polygon fill="black" stroke="black" points="1342.43,-426.858 1333.53,-421.113 1336.91,-431.156 1342.43,-426.858"></polygon>
</g>
<!-- osbp -->
<g id="node39" class="node"><title>osbp</title>
<polygon fill="none" stroke="black" points="900,-496 858.892,-478 900,-460 941.108,-478 900,-496"></polygon>
<text text-anchor="middle" x="900" y="-473.8" font-family="Times,serif" font-size="14.00">osbp</text>
</g>
<!-- osbp&#45;&gt;backupproject -->
<g id="edge45" class="edge"><title>osbp-&gt;backupproject</title>
<path fill="none" stroke="black" d="M941.336,-478C949.994,-478 958.652,-478 967.31,-478"></path>
<polygon fill="black" stroke="black" points="967.474,-481.5 977.474,-478 967.474,-474.5 967.474,-481.5"></polygon>
</g>
<!-- osbridge -->
<g id="node41" class="node"><title>osbridge</title>
<ellipse fill="none" stroke="black" cx="399" cy="-478" rx="43.9384" ry="18"></ellipse>
<text text-anchor="middle" x="399" y="-473.8" font-family="Times,serif" font-size="14.00">osbridge</text>
</g>
<!-- apachecon assault -->
<g id="node43" class="node"><title>apachecon assault</title>
<polygon fill="none" stroke="black" points="651,-422 537.778,-404 651,-386 764.222,-404 651,-422"></polygon>
<text text-anchor="middle" x="651" y="-399.8" font-family="Times,serif" font-size="14.00">apachecon assault</text>
</g>
<!-- apachecon assault&#45;&gt;adainitiative -->
<g id="edge31" class="edge"><title>apachecon assault-&gt;adainitiative</title>
<path fill="none" stroke="black" d="M626.897,-389.826C600.344,-375.312 557.341,-351.808 526.618,-335.015"></path>
<polygon fill="black" stroke="black" points="527.963,-331.761 517.51,-330.036 524.606,-337.904 527.963,-331.761"></polygon>
</g>
<!-- apachecon assault&#45;&gt;GF/TAI AHP -->
<g id="edge37" class="edge"><title>apachecon assault-&gt;GF/TAI AHP</title>
<path fill="none" stroke="black" d="M672.876,-389.443C695.802,-375.235 732.131,-352.722 758.84,-336.17"></path>
<polygon fill="black" stroke="black" points="760.839,-339.048 767.495,-330.806 757.152,-333.098 760.839,-339.048"></polygon>
</g>
<!-- adainitiative&#45;&gt;GF/TAI AHP -->
<g id="edge41" class="edge"><title>adainitiative-&gt;GF/TAI AHP</title>
<path fill="none" stroke="black" d="M548.588,-314C605.479,-314 662.371,-314 719.263,-314"></path>
<polygon fill="black" stroke="black" points="719.51,-317.5 729.51,-314 719.51,-310.5 719.51,-317.5"></polygon>
</g>
<!-- adainitiative&#45;&gt;adacamp -->
<g id="edge51" class="edge"><title>adainitiative-&gt;adacamp</title>
<path fill="none" stroke="black" d="M466.566,-297.377C450.822,-286.882 429.911,-272.941 412.822,-261.548"></path>
<polygon fill="black" stroke="black" points="414.543,-258.489 404.281,-255.854 410.661,-264.314 414.543,-258.489"></polygon>
</g>
<!-- PyCon AHP -->
<g id="node69" class="node"><title>PyCon AHP</title>
<ellipse fill="none" stroke="black" cx="793" cy="-240" rx="59.0835" ry="18"></ellipse>
<text text-anchor="middle" x="793" y="-235.8" font-family="Times,serif" font-size="14.00">PyCon AHP</text>
</g>
<!-- GF/TAI AHP&#45;&gt;PyCon AHP -->
<g id="edge49" class="edge"><title>GF/TAI AHP-&gt;PyCon AHP</title>
<path fill="none" stroke="black" d="M793,-295.937C793,-287.807 793,-277.876 793,-268.705"></path>
<polygon fill="black" stroke="black" points="796.5,-268.441 793,-258.441 789.5,-268.441 796.5,-268.441"></polygon>
</g>
<!-- adacamp&#45;&gt;osbridge -->
<g id="edge55" class="edge"><title>adacamp-&gt;osbridge</title>
<path fill="none" stroke="black" d="M381.324,-258.287C380.543,-282.755 379.723,-328.869 382.74,-368 384.901,-396.033 389.939,-427.8 393.839,-449.776"></path>
<polygon fill="black" stroke="black" points="390.414,-450.505 395.644,-459.719 397.301,-449.254 390.414,-450.505"></polygon>
<text text-anchor="middle" x="420.13" y="-354.8" font-family="Times,serif" font-size="14.00">a11y policies</text>
</g>
<!-- doubleunion -->
<g id="node52" class="node"><title>doubleunion</title>
<ellipse fill="none" stroke="black" cx="466" cy="-166" rx="58.9785" ry="18"></ellipse>
<text text-anchor="middle" x="466" y="-161.8" font-family="Times,serif" font-size="14.00">doubleunion</text>
</g>
<!-- adacamp&#45;&gt;doubleunion -->
<g id="edge57" class="edge"><title>adacamp-&gt;doubleunion</title>
<path fill="none" stroke="black" d="M400.227,-223.377C411.735,-213.513 426.794,-200.605 439.598,-189.63"></path>
<polygon fill="black" stroke="black" points="441.912,-192.256 447.227,-183.091 437.357,-186.942 441.912,-192.256"></polygon>
</g>
<!-- railsgirls&#45;&gt;rgsoc -->
<g id="edge83" class="edge"><title>railsgirls-&gt;rgsoc</title>
<path fill="none" stroke="black" d="M1396.25,-222.662C1403.25,-213.327 1412.16,-201.447 1419.95,-191.062"></path>
<polygon fill="black" stroke="black" points="1422.97,-192.878 1426.17,-182.778 1417.37,-188.678 1422.97,-192.878"></polygon>
</g>
<!-- mvc -->
<g id="node55" class="node"><title>mvc</title>
<ellipse fill="none" stroke="black" cx="124" cy="-92" rx="27.4948" ry="18"></ellipse>
<text text-anchor="middle" x="124" y="-87.8" font-family="Times,serif" font-size="14.00">mvc</text>
</g>
<!-- mothershiphackermoms -->
<g id="node74" class="node"><title>mothershiphackermoms</title>
<ellipse fill="none" stroke="black" cx="549" cy="-240" rx="103.242" ry="18"></ellipse>
<text text-anchor="middle" x="549" y="-235.8" font-family="Times,serif" font-size="14.00">mothershiphackermoms</text>
</g>
<!-- mothershiphackermoms&#45;&gt;doubleunion -->
<g id="edge59" class="edge"><title>mothershiphackermoms-&gt;doubleunion</title>
<path fill="none" stroke="black" d="M529.75,-222.301C518.593,-212.623 504.39,-200.303 492.224,-189.748"></path>
<polygon fill="black" stroke="black" points="494.423,-187.022 484.575,-183.113 489.836,-192.31 494.423,-187.022"></polygon>
</g>
</g>
</svg>

