<?xml version="1.0" encoding="UTF-8" standalone="no"?>
<!DOCTYPE svg PUBLIC "-//W3C//DTD SVG 1.1//EN"
 "http://www.w3.org/Graphics/SVG/1.1/DTD/svg11.dtd">
<!-- Generated by graphviz version 2.26.3 (20100126.1600)
 -->
<!-- Title: GeekFeminismFamilyTree Pages: 1 -->
<svg width="2225pt" height="872pt"
 viewBox="0.00 0.00 2225.00 872.00" xmlns="http://www.w3.org/2000/svg" xmlns:xlink="http://www.w3.org/1999/xlink">
<g id="graph1" class="graph" transform="scale(1 1) rotate(0) translate(4 868)">
<title>GeekFeminismFamilyTree</title>
<polygon fill="white" stroke="white" points="-4,5 -4,-868 2222,-868 2222,5 -4,5"/>
<!-- past -->
<g id="node2" class="node"><title>past</title>
<text text-anchor="middle" x="53" y="-840.1" font-family="Times,serif" font-size="16.00">past</text>
</g>
<!-- 2000&#45;2003 -->
<g id="node4" class="node"><title>2000&#45;2003</title>
<text text-anchor="middle" x="53" y="-766.1" font-family="Times,serif" font-size="16.00">2000&#45;2003</text>
</g>
<!-- past&#45;&gt;2000&#45;2003 -->
<g id="edge3" class="edge"><title>past&#45;&gt;2000&#45;2003</title>
<path fill="none" stroke="black" d="M53,-827.708C53,-819.464 53,-809.538 53,-800.362"/>
<polygon fill="black" stroke="black" points="56.5001,-800.082 53,-790.082 49.5001,-800.082 56.5001,-800.082"/>
</g>
<!-- 2004&#45;2006 -->
<g id="node5" class="node"><title>2004&#45;2006</title>
<text text-anchor="middle" x="53" y="-692.1" font-family="Times,serif" font-size="16.00">2004&#45;2006</text>
</g>
<!-- 2000&#45;2003&#45;&gt;2004&#45;2006 -->
<g id="edge4" class="edge"><title>2000&#45;2003&#45;&gt;2004&#45;2006</title>
<path fill="none" stroke="black" d="M53,-753.708C53,-745.464 53,-735.538 53,-726.362"/>
<polygon fill="black" stroke="black" points="56.5001,-726.082 53,-716.082 49.5001,-726.082 56.5001,-726.082"/>
</g>
<!-- 2007 -->
<g id="node6" class="node"><title>2007</title>
<text text-anchor="middle" x="53" y="-618.1" font-family="Times,serif" font-size="16.00">2007</text>
</g>
<!-- 2004&#45;2006&#45;&gt;2007 -->
<g id="edge5" class="edge"><title>2004&#45;2006&#45;&gt;2007</title>
<path fill="none" stroke="black" d="M53,-679.708C53,-671.464 53,-661.538 53,-652.362"/>
<polygon fill="black" stroke="black" points="56.5001,-652.082 53,-642.082 49.5001,-652.082 56.5001,-652.082"/>
</g>
<!-- 2008 -->
<g id="node7" class="node"><title>2008</title>
<text text-anchor="middle" x="53" y="-544.1" font-family="Times,serif" font-size="16.00">2008</text>
</g>
<!-- 2007&#45;&gt;2008 -->
<g id="edge6" class="edge"><title>2007&#45;&gt;2008</title>
<path fill="none" stroke="black" d="M53,-605.708C53,-597.464 53,-587.538 53,-578.362"/>
<polygon fill="black" stroke="black" points="56.5001,-578.082 53,-568.082 49.5001,-578.082 56.5001,-578.082"/>
</g>
<!-- 2009 -->
<g id="node8" class="node"><title>2009</title>
<text text-anchor="middle" x="53" y="-470.1" font-family="Times,serif" font-size="16.00">2009</text>
</g>
<!-- 2008&#45;&gt;2009 -->
<g id="edge7" class="edge"><title>2008&#45;&gt;2009</title>
<path fill="none" stroke="black" d="M53,-531.708C53,-523.464 53,-513.538 53,-504.362"/>
<polygon fill="black" stroke="black" points="56.5001,-504.082 53,-494.082 49.5001,-504.082 56.5001,-504.082"/>
</g>
<!-- 2010 -->
<g id="node9" class="node"><title>2010</title>
<text text-anchor="middle" x="53" y="-396.1" font-family="Times,serif" font-size="16.00">2010</text>
</g>
<!-- 2009&#45;&gt;2010 -->
<g id="edge8" class="edge"><title>2009&#45;&gt;2010</title>
<path fill="none" stroke="black" d="M53,-457.708C53,-449.464 53,-439.538 53,-430.362"/>
<polygon fill="black" stroke="black" points="56.5001,-430.082 53,-420.082 49.5001,-430.082 56.5001,-430.082"/>
</g>
<!-- 2011 -->
<g id="node10" class="node"><title>2011</title>
<text text-anchor="middle" x="53" y="-308.1" font-family="Times,serif" font-size="16.00">2011</text>
</g>
<!-- 2010&#45;&gt;2011 -->
<g id="edge9" class="edge"><title>2010&#45;&gt;2011</title>
<path fill="none" stroke="black" d="M53,-383.766C53,-371.849 53,-356.038 53,-342.482"/>
<polygon fill="black" stroke="black" points="56.5001,-342.21 53,-332.21 49.5001,-342.21 56.5001,-342.21"/>
</g>
<!-- 2012 -->
<g id="node11" class="node"><title>2012</title>
<text text-anchor="middle" x="53" y="-234.1" font-family="Times,serif" font-size="16.00">2012</text>
</g>
<!-- 2011&#45;&gt;2012 -->
<g id="edge10" class="edge"><title>2011&#45;&gt;2012</title>
<path fill="none" stroke="black" d="M53,-295.708C53,-287.464 53,-277.538 53,-268.362"/>
<polygon fill="black" stroke="black" points="56.5001,-268.082 53,-258.082 49.5001,-268.082 56.5001,-268.082"/>
</g>
<!-- 2013 -->
<g id="node12" class="node"><title>2013</title>
<text text-anchor="middle" x="53" y="-160.1" font-family="Times,serif" font-size="16.00">2013</text>
</g>
<!-- 2012&#45;&gt;2013 -->
<g id="edge11" class="edge"><title>2012&#45;&gt;2013</title>
<path fill="none" stroke="black" d="M53,-221.708C53,-213.464 53,-203.538 53,-194.362"/>
<polygon fill="black" stroke="black" points="56.5001,-194.082 53,-184.082 49.5001,-194.082 56.5001,-194.082"/>
</g>
<!-- 2014 -->
<g id="node13" class="node"><title>2014</title>
<text text-anchor="middle" x="53" y="-86.1" font-family="Times,serif" font-size="16.00">2014</text>
</g>
<!-- 2013&#45;&gt;2014 -->
<g id="edge12" class="edge"><title>2013&#45;&gt;2014</title>
<path fill="none" stroke="black" d="M53,-147.708C53,-139.464 53,-129.538 53,-120.362"/>
<polygon fill="black" stroke="black" points="56.5001,-120.082 53,-110.082 49.5001,-120.082 56.5001,-120.082"/>
</g>
<!-- unknowndate -->
<g id="node14" class="node"><title>unknowndate</title>
<text text-anchor="middle" x="53" y="-12.1" font-family="Times,serif" font-size="16.00">unknowndate</text>
</g>
<!-- 2014&#45;&gt;unknowndate -->
<g id="edge13" class="edge"><title>2014&#45;&gt;unknowndate</title>
<path fill="none" stroke="black" d="M53,-73.7079C53,-65.4635 53,-55.5376 53,-46.3622"/>
<polygon fill="black" stroke="black" points="56.5001,-46.0817 53,-36.0817 49.5001,-46.0818 56.5001,-46.0817"/>
</g>
<!-- livejournal -->
<g id="node16" class="node"><title>livejournal</title>
<polygon fill="none" stroke="black" points="276,-864 198,-864 198,-828 276,-828 276,-864"/>
<text text-anchor="middle" x="237" y="-840.9" font-family="Times,serif" font-size="14.00">livejournal</text>
</g>
<!-- dreamwidth -->
<g id="node35" class="node"><title>dreamwidth</title>
<ellipse fill="none" stroke="black" cx="187" cy="-550" rx="55.895" ry="18"/>
<text text-anchor="middle" x="187" y="-544.9" font-family="Times,serif" font-size="14.00">dreamwidth</text>
</g>
<!-- livejournal&#45;&gt;dreamwidth -->
<g id="edge102" class="edge"><title>livejournal&#45;&gt;dreamwidth</title>
<path fill="none" stroke="black" d="M229.6,-827.782C224.265,-813.004 218,-791.498 218,-772 218,-772 218,-772 218,-624 218,-607.364 211.252,-590.143 204.053,-576.505"/>
<polygon fill="black" stroke="black" points="207.038,-574.673 199.074,-567.686 200.943,-578.115 207.038,-574.673"/>
</g>
<!-- otw -->
<g id="node36" class="node"><title>otw</title>
<ellipse fill="none" stroke="black" cx="288" cy="-550" rx="27" ry="18"/>
<text text-anchor="middle" x="288" y="-544.9" font-family="Times,serif" font-size="14.00">otw</text>
</g>
<!-- livejournal&#45;&gt;otw -->
<g id="edge104" class="edge"><title>livejournal&#45;&gt;otw</title>
<path fill="none" stroke="black" d="M251.034,-827.95C260.771,-813.611 272,-792.607 272,-772 272,-772 272,-772 272,-624 272,-608.393 275.442,-591.345 279.133,-577.55"/>
<polygon fill="black" stroke="black" points="282.562,-578.289 281.951,-567.712 275.832,-576.361 282.562,-578.289"/>
</g>
<!-- wiscon -->
<g id="node17" class="node"><title>wiscon</title>
<ellipse fill="none" stroke="black" cx="642" cy="-846" rx="37.194" ry="18"/>
<text text-anchor="middle" x="642" y="-840.9" font-family="Times,serif" font-size="14.00">wiscon</text>
</g>
<!-- racefail -->
<g id="node39" class="node"><title>racefail</title>
<polygon fill="none" stroke="black" points="1172,-494 1116.85,-476 1172,-458 1227.15,-476 1172,-494"/>
<text text-anchor="middle" x="1172" y="-470.9" font-family="Times,serif" font-size="14.00">racefail</text>
</g>
<!-- wiscon&#45;&gt;racefail -->
<g id="edge100" class="edge"><title>wiscon&#45;&gt;racefail</title>
<path fill="none" stroke="black" d="M679.142,-845.351C810.173,-842.579 1243,-829.098 1243,-772 1243,-772 1243,-772 1243,-550 1243,-524.988 1221.62,-505.143 1202.32,-492.326"/>
<polygon fill="black" stroke="black" points="1204.02,-489.262 1193.69,-486.938 1200.32,-495.201 1204.02,-489.262"/>
</g>
<!-- adacamp -->
<g id="node54" class="node"><title>adacamp</title>
<ellipse fill="none" stroke="black" cx="495" cy="-240" rx="43.0456" ry="18"/>
<text text-anchor="middle" x="495" y="-234.9" font-family="Times,serif" font-size="14.00">adacamp</text>
</g>
<!-- wiscon&#45;&gt;adacamp -->
<g id="edge62" class="edge"><title>wiscon&#45;&gt;adacamp</title>
<path fill="none" stroke="black" d="M629.615,-828.581C608.313,-796.859 567,-726.848 567,-661 567,-661 567,-661 567,-314 567,-291.048 548.987,-272.543 530.98,-259.778"/>
<polygon fill="black" stroke="black" points="532.491,-256.58 522.22,-253.979 528.626,-262.417 532.491,-256.58"/>
<text text-anchor="middle" x="606" y="-544.9" font-family="Times,serif" font-size="14.00">a11y policies</text>
</g>
<!-- linuxconfau -->
<g id="node18" class="node"><title>linuxconfau</title>
<polygon fill="none" stroke="black" points="571,-864 487,-864 487,-828 571,-828 571,-864"/>
<text text-anchor="middle" x="529" y="-840.9" font-family="Times,serif" font-size="14.00">linuxconfau</text>
</g>
<!-- haecksen -->
<g id="node30" class="node"><title>haecksen</title>
<ellipse fill="none" stroke="black" cx="495" cy="-624" rx="44.1961" ry="18"/>
<text text-anchor="middle" x="495" y="-618.9" font-family="Times,serif" font-size="14.00">haecksen</text>
</g>
<!-- linuxconfau&#45;&gt;haecksen -->
<g id="edge86" class="edge"><title>linuxconfau&#45;&gt;haecksen</title>
<path fill="none" stroke="black" d="M526.218,-827.833C520.288,-789.116 506.372,-698.253 499.295,-652.046"/>
<polygon fill="black" stroke="black" points="502.747,-651.462 497.773,-642.107 495.827,-652.522 502.747,-651.462"/>
</g>
<!-- adainitiative -->
<g id="node49" class="node"><title>adainitiative</title>
<ellipse fill="none" stroke="black" cx="726" cy="-314" rx="57.1949" ry="18"/>
<text text-anchor="middle" x="726" y="-308.9" font-family="Times,serif" font-size="14.00">adainitiative</text>
</g>
<!-- linuxconfau&#45;&gt;adainitiative -->
<g id="edge36" class="edge"><title>linuxconfau&#45;&gt;adainitiative</title>
<path fill="none" stroke="black" d="M543.334,-827.702C579.757,-779.309 673,-642.752 673,-513 673,-513 673,-513 673,-402 673,-378.244 687.349,-355.384 701.115,-338.92"/>
<polygon fill="black" stroke="black" points="703.777,-341.193 707.76,-331.376 698.524,-336.567 703.777,-341.193"/>
</g>
<!-- linuxchix -->
<g id="node20" class="node"><title>linuxchix</title>
<ellipse fill="none" stroke="black" cx="734" cy="-772" rx="46.1459" ry="18"/>
<text text-anchor="middle" x="734" y="-766.9" font-family="Times,serif" font-size="14.00">linuxchix</text>
</g>
<!-- debianwomen -->
<g id="node26" class="node"><title>debianwomen</title>
<ellipse fill="none" stroke="black" cx="734" cy="-698" rx="63.1928" ry="18"/>
<text text-anchor="middle" x="734" y="-692.9" font-family="Times,serif" font-size="14.00">debianwomen</text>
</g>
<!-- linuxchix&#45;&gt;debianwomen -->
<g id="edge72" class="edge"><title>linuxchix&#45;&gt;debianwomen</title>
<path fill="none" stroke="black" d="M734,-753.708C734,-745.464 734,-735.538 734,-726.362"/>
<polygon fill="black" stroke="black" points="737.5,-726.082 734,-716.082 730.5,-726.082 737.5,-726.082"/>
</g>
<!-- linuxchix&#45;&gt;haecksen -->
<g id="edge84" class="edge"><title>linuxchix&#45;&gt;haecksen</title>
<path fill="none" stroke="black" d="M709.323,-756.719C666.096,-729.951 576.669,-674.573 528.113,-644.505"/>
<polygon fill="black" stroke="black" points="529.887,-641.487 519.543,-639.198 526.202,-647.439 529.887,-641.487"/>
</g>
<!-- geekfeminism -->
<g id="node34" class="node"><title>geekfeminism</title>
<ellipse fill="none" stroke="black" cx="1062" cy="-550" rx="63.8455" ry="18"/>
<text text-anchor="middle" x="1062" y="-544.9" font-family="Times,serif" font-size="14.00">geekfeminism</text>
</g>
<!-- linuxchix&#45;&gt;geekfeminism -->
<g id="edge28" class="edge"><title>linuxchix&#45;&gt;geekfeminism</title>
<path fill="none" stroke="black" d="M779.871,-769.704C889.455,-763.75 1159.36,-746.144 1186,-716 1229.15,-667.178 1149.17,-604.344 1098.69,-571.765"/>
<polygon fill="black" stroke="black" points="1100.27,-568.624 1089.95,-566.234 1096.53,-574.539 1100.27,-568.624"/>
</g>
<!-- gsoc -->
<g id="node22" class="node"><title>gsoc</title>
<polygon fill="none" stroke="black" points="1594,-716 1540,-716 1540,-680 1594,-680 1594,-716"/>
<text text-anchor="middle" x="1567" y="-692.9" font-family="Times,serif" font-size="14.00">gsoc</text>
</g>
<!-- opw -->
<g id="node23" class="node"><title>opw</title>
<ellipse fill="none" stroke="black" cx="1150" cy="-698" rx="27" ry="18"/>
<text text-anchor="middle" x="1150" y="-692.9" font-family="Times,serif" font-size="14.00">opw</text>
</g>
<!-- gsoc&#45;&gt;opw -->
<g id="edge82" class="edge"><title>gsoc&#45;&gt;opw</title>
<path fill="none" stroke="black" d="M1539.98,-698C1422.5,-698 1305.03,-698 1187.56,-698"/>
<polygon fill="black" stroke="black" points="1187.28,-694.5 1177.28,-698 1187.28,-701.5 1187.28,-694.5"/>
</g>
<!-- rgsoc -->
<g id="node63" class="node"><title>rgsoc</title>
<ellipse fill="none" stroke="black" cx="1798" cy="-166" rx="31.1972" ry="18"/>
<text text-anchor="middle" x="1798" y="-160.9" font-family="Times,serif" font-size="14.00">rgsoc</text>
</g>
<!-- gsoc&#45;&gt;rgsoc -->
<g id="edge98" class="edge"><title>gsoc&#45;&gt;rgsoc</title>
<path fill="none" stroke="black" d="M1594.23,-683.58C1597.15,-682.277 1600.11,-681.054 1603,-680 1703.06,-643.504 1836,-730.505 1836,-624 1836,-624 1836,-624 1836,-240 1836,-222.111 1827.1,-204.209 1817.92,-190.494"/>
<polygon fill="black" stroke="black" points="1820.6,-188.225 1811.93,-182.129 1814.91,-192.298 1820.6,-188.225"/>
</g>
<!-- ubuntuwomen -->
<g id="node24" class="node"><title>ubuntuwomen</title>
<ellipse fill="none" stroke="black" cx="1042" cy="-698" rx="63.0444" ry="18"/>
<text text-anchor="middle" x="1042" y="-692.9" font-family="Times,serif" font-size="14.00">ubuntuwomen</text>
</g>
<!-- gnomewomen -->
<g id="node25" class="node"><title>gnomewomen</title>
<ellipse fill="none" stroke="black" cx="897" cy="-698" rx="63.8455" ry="18"/>
<text text-anchor="middle" x="897" y="-692.9" font-family="Times,serif" font-size="14.00">gnomewomen</text>
</g>
<!-- gnomewomen&#45;&gt;opw -->
<g id="edge80" class="edge"><title>gnomewomen&#45;&gt;opw</title>
<path fill="none" stroke="black" d="M925.194,-714.311C940.556,-722.26 960.219,-730.959 979,-735 1033.75,-746.78 1052.28,-753.89 1105,-735 1113.62,-731.91 1121.78,-726.376 1128.71,-720.514"/>
<polygon fill="black" stroke="black" points="1131.24,-722.943 1136.25,-713.608 1126.52,-717.781 1131.24,-722.943"/>
</g>
<!-- debianwomen&#45;&gt;ubuntuwomen -->
<g id="edge74" class="edge"><title>debianwomen&#45;&gt;ubuntuwomen</title>
<path fill="none" stroke="black" d="M766.612,-713.559C785.525,-721.716 810.069,-730.855 833,-735 888.982,-745.119 905.412,-747.095 961,-735 976.097,-731.715 991.751,-725.356 1005.23,-718.824"/>
<polygon fill="black" stroke="black" points="1006.82,-721.939 1014.17,-714.31 1003.67,-715.689 1006.82,-721.939"/>
</g>
<!-- debianwomen&#45;&gt;gnomewomen -->
<g id="edge76" class="edge"><title>debianwomen&#45;&gt;gnomewomen</title>
<path fill="none" stroke="black" d="M797.035,-698C805.642,-698 814.249,-698 822.856,-698"/>
<polygon fill="black" stroke="black" points="822.96,-701.5 832.96,-698 822.96,-694.5 822.96,-701.5"/>
</g>
<!-- girlgeekdinners -->
<g id="node27" class="node"><title>girlgeekdinners</title>
<polygon fill="none" stroke="black" points="1718,-716 1612,-716 1612,-680 1718,-680 1718,-716"/>
<text text-anchor="middle" x="1665" y="-692.9" font-family="Times,serif" font-size="14.00">girlgeekdinners</text>
</g>
<!-- blogher -->
<g id="node28" class="node"><title>blogher</title>
<ellipse fill="none" stroke="black" cx="1775" cy="-698" rx="39.1446" ry="18"/>
<text text-anchor="middle" x="1775" y="-692.9" font-family="Times,serif" font-size="14.00">blogher</text>
</g>
<!-- owoot -->
<g id="node51" class="node"><title>owoot</title>
<ellipse fill="none" stroke="black" cx="505" cy="-314" rx="33.9477" ry="18"/>
<text text-anchor="middle" x="505" y="-308.9" font-family="Times,serif" font-size="14.00">owoot</text>
</g>
<!-- haecksen&#45;&gt;owoot -->
<g id="edge78" class="edge"><title>haecksen&#45;&gt;owoot</title>
<path fill="none" stroke="black" d="M498.838,-605.846C501.658,-590.922 505,-569.187 505,-550 505,-550 505,-550 505,-402 505,-382.199 505,-359.891 505,-342.69"/>
<polygon fill="black" stroke="black" points="508.5,-342.202 505,-332.202 501.5,-342.202 508.5,-342.202"/>
</g>
<!-- haecksen&#45;&gt;adacamp -->
<g id="edge88" class="edge"><title>haecksen&#45;&gt;adacamp</title>
<path fill="none" stroke="black" d="M474.747,-607.731C460.146,-594.055 443,-573.082 443,-550 443,-550 443,-550 443,-314 443,-294.574 455.145,-276.641 467.696,-263.295"/>
<polygon fill="black" stroke="black" points="470.419,-265.523 475.044,-255.991 465.485,-260.558 470.419,-265.523"/>
</g>
<!-- shesgeeky -->
<g id="node31" class="node"><title>shesgeeky</title>
<ellipse fill="none" stroke="black" cx="1913" cy="-624" rx="48.8967" ry="18"/>
<text text-anchor="middle" x="1913" y="-618.9" font-family="Times,serif" font-size="14.00">shesgeeky</text>
</g>
<!-- SFF CAHP -->
<g id="node33" class="node"><title>SFF CAHP</title>
<ellipse fill="none" stroke="black" cx="1431" cy="-550" rx="53.9452" ry="18"/>
<text text-anchor="middle" x="1431" y="-544.9" font-family="Times,serif" font-size="14.00">SFF CAHP</text>
</g>
<!-- backupproject -->
<g id="node43" class="node"><title>backupproject</title>
<ellipse fill="none" stroke="black" cx="1746" cy="-476" rx="61.8953" ry="18"/>
<text text-anchor="middle" x="1746" y="-470.9" font-family="Times,serif" font-size="14.00">backupproject</text>
</g>
<!-- SFF CAHP&#45;&gt;backupproject -->
<g id="edge48" class="edge"><title>SFF CAHP&#45;&gt;backupproject</title>
<path fill="none" stroke="black" d="M1475.46,-539.555C1531.05,-526.497 1626.33,-504.113 1687.71,-489.694"/>
<polygon fill="black" stroke="black" points="1688.7,-493.057 1697.63,-487.363 1687.09,-486.243 1688.7,-493.057"/>
</g>
<!-- GF/TAI AHP -->
<g id="node50" class="node"><title>GF/TAI AHP</title>
<ellipse fill="none" stroke="black" cx="1062" cy="-314" rx="61.8953" ry="18"/>
<text text-anchor="middle" x="1062" y="-308.9" font-family="Times,serif" font-size="14.00">GF/TAI AHP</text>
</g>
<!-- SFF CAHP&#45;&gt;GF/TAI AHP -->
<g id="edge44" class="edge"><title>SFF CAHP&#45;&gt;GF/TAI AHP</title>
<path fill="none" stroke="black" d="M1390.71,-537.993C1360.98,-528.276 1320.12,-513.086 1287,-494 1265.83,-481.799 1145.9,-383.365 1090.3,-337.439"/>
<polygon fill="black" stroke="black" points="1092.52,-334.734 1082.59,-331.061 1088.06,-340.13 1092.52,-334.734"/>
</g>
<!-- geekfeminism&#45;&gt;adainitiative -->
<g id="edge34" class="edge"><title>geekfeminism&#45;&gt;adainitiative</title>
<path fill="none" stroke="black" d="M1021.42,-536.011C967.953,-516.187 872.882,-476.001 806,-420 778.846,-397.264 755.475,-363.648 741.124,-340.395"/>
<polygon fill="black" stroke="black" points="744.061,-338.487 735.898,-331.732 738.067,-342.103 744.061,-338.487"/>
</g>
<!-- geekfeminism&#45;&gt;GF/TAI AHP -->
<g id="edge40" class="edge"><title>geekfeminism&#45;&gt;GF/TAI AHP</title>
<path fill="none" stroke="black" d="M1062,-531.873C1062,-491.033 1062,-391.562 1062,-342.426"/>
<polygon fill="black" stroke="black" points="1065.5,-342.188 1062,-332.188 1058.5,-342.188 1065.5,-342.188"/>
</g>
<!-- oscon2009 -->
<g id="node38" class="node"><title>oscon2009</title>
<ellipse fill="none" stroke="black" cx="237" cy="-476" rx="51.9954" ry="18"/>
<text text-anchor="middle" x="237" y="-470.9" font-family="Times,serif" font-size="14.00">oscon2009</text>
</g>
<!-- dreamwidth&#45;&gt;oscon2009 -->
<g id="edge106" class="edge"><title>dreamwidth&#45;&gt;oscon2009</title>
<path fill="none" stroke="black" d="M199.104,-532.087C205.184,-523.088 212.665,-512.015 219.37,-502.092"/>
<polygon fill="black" stroke="black" points="222.309,-503.994 225.008,-493.748 216.509,-500.075 222.309,-503.994"/>
</g>
<!-- otw&#45;&gt;oscon2009 -->
<g id="edge108" class="edge"><title>otw&#45;&gt;oscon2009</title>
<path fill="none" stroke="black" d="M276.681,-533.577C270.308,-524.329 262.201,-512.567 254.979,-502.087"/>
<polygon fill="black" stroke="black" points="257.734,-499.917 249.177,-493.669 251.97,-503.889 257.734,-499.917"/>
</g>
<!-- oscon2009&#45;&gt;geekfeminism -->
<g id="edge110" class="edge"><title>oscon2009&#45;&gt;geekfeminism</title>
<path fill="none" stroke="black" d="M274.769,-488.506C282.389,-490.643 290.396,-492.616 298,-494 429.285,-517.897 824.201,-538.74 988.767,-546.632"/>
<polygon fill="black" stroke="black" points="988.64,-550.13 998.796,-547.111 988.974,-543.138 988.64,-550.13"/>
</g>
<!-- racefail&#45;&gt;geekfeminism -->
<g id="edge30" class="edge"><title>racefail&#45;&gt;geekfeminism</title>
<path fill="none" stroke="black" d="M1153.65,-488.344C1137.82,-498.996 1114.55,-514.65 1095.42,-527.519"/>
<polygon fill="black" stroke="black" points="1093.3,-524.722 1086.96,-533.208 1097.21,-530.53 1093.3,-524.722"/>
</g>
<!-- couchdb -->
<g id="node40" class="node"><title>couchdb</title>
<polygon fill="none" stroke="black" points="1355,-494 1295.76,-476 1355,-458 1414.24,-476 1355,-494"/>
<text text-anchor="middle" x="1355" y="-470.9" font-family="Times,serif" font-size="14.00">couchdb</text>
</g>
<!-- railsbridge -->
<g id="node41" class="node"><title>railsbridge</title>
<ellipse fill="none" stroke="black" cx="1501" cy="-476" rx="50.8469" ry="18"/>
<text text-anchor="middle" x="1501" y="-470.9" font-family="Times,serif" font-size="14.00">railsbridge</text>
</g>
<!-- couchdb&#45;&gt;railsbridge -->
<g id="edge90" class="edge"><title>couchdb&#45;&gt;railsbridge</title>
<path fill="none" stroke="black" d="M1414.03,-476C1422.57,-476 1431.12,-476 1439.67,-476"/>
<polygon fill="black" stroke="black" points="1439.7,-479.5 1449.7,-476 1439.7,-472.5 1439.7,-479.5"/>
</g>
<!-- railsgirls -->
<g id="node55" class="node"><title>railsgirls</title>
<ellipse fill="none" stroke="black" cx="1686" cy="-240" rx="44.1961" ry="18"/>
<text text-anchor="middle" x="1686" y="-234.9" font-family="Times,serif" font-size="14.00">railsgirls</text>
</g>
<!-- railsbridge&#45;&gt;railsgirls -->
<g id="edge94" class="edge"><title>railsbridge&#45;&gt;railsgirls</title>
<path fill="none" stroke="black" d="M1514.6,-458.646C1546.88,-417.475 1628.2,-313.733 1666.05,-265.451"/>
<polygon fill="black" stroke="black" points="1668.96,-267.409 1672.38,-257.379 1663.45,-263.09 1668.96,-267.409"/>
</g>
<!-- pystar -->
<g id="node107" class="node"><title>pystar</title>
<ellipse fill="none" stroke="black" cx="1501" cy="-402" rx="31.9972" ry="18"/>
<text text-anchor="middle" x="1501" y="-396.9" font-family="Times,serif" font-size="14.00">pystar</text>
</g>
<!-- railsbridge&#45;&gt;pystar -->
<g id="edge92" class="edge"><title>railsbridge&#45;&gt;pystar</title>
<path fill="none" stroke="black" d="M1501,-457.708C1501,-449.464 1501,-439.538 1501,-430.362"/>
<polygon fill="black" stroke="black" points="1504.5,-430.082 1501,-420.082 1497.5,-430.082 1504.5,-430.082"/>
</g>
<!-- osbp -->
<g id="node42" class="node"><title>osbp</title>
<polygon fill="none" stroke="black" points="1609,-494 1569.98,-476 1609,-458 1648.02,-476 1609,-494"/>
<text text-anchor="middle" x="1609" y="-470.9" font-family="Times,serif" font-size="14.00">osbp</text>
</g>
<!-- osbp&#45;&gt;backupproject -->
<g id="edge46" class="edge"><title>osbp&#45;&gt;backupproject</title>
<path fill="none" stroke="black" d="M1648.07,-476C1656.59,-476 1665.11,-476 1673.64,-476"/>
<polygon fill="black" stroke="black" points="1673.64,-479.5 1683.64,-476 1673.64,-472.5 1673.64,-479.5"/>
</g>
<!-- backupribbons -->
<g id="node47" class="node"><title>backupribbons</title>
<ellipse fill="none" stroke="black" cx="1745" cy="-402" rx="63.1928" ry="18"/>
<text text-anchor="middle" x="1745" y="-396.9" font-family="Times,serif" font-size="14.00">backupribbons</text>
</g>
<!-- backupproject&#45;&gt;backupribbons -->
<g id="edge50" class="edge"><title>backupproject&#45;&gt;backupribbons</title>
<path fill="none" stroke="black" d="M1745.75,-457.708C1745.64,-449.464 1745.51,-439.538 1745.38,-430.362"/>
<polygon fill="black" stroke="black" points="1748.88,-430.033 1745.24,-420.082 1741.88,-430.128 1748.88,-430.033"/>
</g>
<!-- osbridge -->
<g id="node44" class="node"><title>osbridge</title>
<ellipse fill="none" stroke="black" cx="350" cy="-476" rx="43.0456" ry="18"/>
<text text-anchor="middle" x="350" y="-470.9" font-family="Times,serif" font-size="14.00">osbridge</text>
</g>
<!-- apachecon assault -->
<g id="node46" class="node"><title>apachecon assault</title>
<polygon fill="none" stroke="black" points="923,-420 815.039,-402 923,-384 1030.96,-402 923,-420"/>
<text text-anchor="middle" x="923" y="-396.9" font-family="Times,serif" font-size="14.00">apachecon assault</text>
</g>
<!-- apachecon assault&#45;&gt;adainitiative -->
<g id="edge32" class="edge"><title>apachecon assault&#45;&gt;adainitiative</title>
<path fill="none" stroke="black" d="M893.507,-388.826C860.26,-373.974 805.932,-349.706 768.2,-332.851"/>
<polygon fill="black" stroke="black" points="769.545,-329.618 758.987,-328.735 766.69,-336.01 769.545,-329.618"/>
</g>
<!-- apachecon assault&#45;&gt;GF/TAI AHP -->
<g id="edge38" class="edge"><title>apachecon assault&#45;&gt;GF/TAI AHP</title>
<path fill="none" stroke="black" d="M945.642,-387.665C967.8,-373.637 1001.85,-352.078 1027.41,-335.902"/>
<polygon fill="black" stroke="black" points="1029.48,-338.732 1036.06,-330.426 1025.73,-332.817 1029.48,-338.732"/>
</g>
<!-- adainitiative&#45;&gt;GF/TAI AHP -->
<g id="edge42" class="edge"><title>adainitiative&#45;&gt;GF/TAI AHP</title>
<path fill="none" stroke="black" d="M783.094,-314C851.975,-314 920.856,-314 989.737,-314"/>
<polygon fill="black" stroke="black" points="989.9,-317.5 999.9,-314 989.9,-310.5 989.9,-317.5"/>
</g>
<!-- adainitiative&#45;&gt;adacamp -->
<g id="edge60" class="edge"><title>adainitiative&#45;&gt;adacamp</title>
<path fill="none" stroke="black" d="M685.763,-301.11C644.836,-287.999 581.577,-267.735 539.257,-254.178"/>
<polygon fill="black" stroke="black" points="540.096,-250.771 529.505,-251.054 537.961,-257.438 540.096,-250.771"/>
</g>
<!-- Skeptic AHPs -->
<g id="node56" class="node"><title>Skeptic AHPs</title>
<ellipse fill="none" stroke="black" cx="1107" cy="-240" rx="63.1928" ry="18"/>
<text text-anchor="middle" x="1107" y="-234.9" font-family="Times,serif" font-size="14.00">Skeptic AHPs</text>
</g>
<!-- GF/TAI AHP&#45;&gt;Skeptic AHPs -->
<g id="edge54" class="edge"><title>GF/TAI AHP&#45;&gt;Skeptic AHPs</title>
<path fill="none" stroke="black" d="M1072.89,-296.087C1078.31,-287.179 1084.96,-276.239 1090.95,-266.393"/>
<polygon fill="black" stroke="black" points="1094,-268.111 1096.21,-257.748 1088.02,-264.474 1094,-268.111"/>
</g>
<!-- PyCon AHP -->
<g id="node57" class="node"><title>PyCon AHP</title>
<ellipse fill="none" stroke="black" cx="1246" cy="-240" rx="57.8449" ry="18"/>
<text text-anchor="middle" x="1246" y="-234.9" font-family="Times,serif" font-size="14.00">PyCon AHP</text>
</g>
<!-- GF/TAI AHP&#45;&gt;PyCon AHP -->
<g id="edge52" class="edge"><title>GF/TAI AHP&#45;&gt;PyCon AHP</title>
<path fill="none" stroke="black" d="M1098.35,-299.38C1127.78,-287.547 1169.36,-270.821 1200.91,-258.135"/>
<polygon fill="black" stroke="black" points="1202.38,-261.316 1210.35,-254.338 1199.77,-254.822 1202.38,-261.316"/>
</g>
<!-- Scalzi&#39;s AHP pledge -->
<g id="node65" class="node"><title>Scalzi&#39;s AHP pledge</title>
<ellipse fill="none" stroke="black" cx="899" cy="-166" rx="89.0421" ry="18"/>
<text text-anchor="middle" x="899" y="-160.9" font-family="Times,serif" font-size="14.00">Scalzi&#39;s AHP pledge</text>
</g>
<!-- GF/TAI AHP&#45;&gt;Scalzi&#39;s AHP pledge -->
<g id="edge58" class="edge"><title>GF/TAI AHP&#45;&gt;Scalzi&#39;s AHP pledge</title>
<path fill="none" stroke="black" d="M1031.89,-298.204C1021.96,-292.416 1011.13,-285.444 1002,-278 970.127,-252.023 938.936,-216.232 919.38,-192.163"/>
<polygon fill="black" stroke="black" points="921.956,-189.781 912.966,-184.174 916.498,-194.163 921.956,-189.781"/>
<text text-anchor="middle" x="981.5" y="-234.9" font-family="Times,serif" font-size="14.00">?</text>
</g>
<!-- #CoCPledge -->
<g id="node70" class="node"><title>#CoCPledge</title>
<ellipse fill="none" stroke="black" cx="1016" cy="-92" rx="59.7947" ry="18"/>
<text text-anchor="middle" x="1016" y="-86.9" font-family="Times,serif" font-size="14.00">#CoCPledge</text>
</g>
<!-- GF/TAI AHP&#45;&gt;#CoCPledge -->
<g id="edge56" class="edge"><title>GF/TAI AHP&#45;&gt;#CoCPledge</title>
<path fill="none" stroke="black" d="M1051.38,-295.953C1045.59,-285.271 1038.84,-271.271 1035,-258 1021.42,-211.06 1017.49,-154.016 1016.38,-120.492"/>
<polygon fill="black" stroke="black" points="1019.87,-119.977 1016.11,-110.073 1012.87,-120.162 1019.87,-119.977"/>
</g>
<!-- blackgirlscode -->
<g id="node52" class="node"><title>blackgirlscode</title>
<ellipse fill="none" stroke="black" cx="1930" cy="-314" rx="65.7957" ry="18"/>
<text text-anchor="middle" x="1930" y="-308.9" font-family="Times,serif" font-size="14.00">blackgirlscode</text>
</g>
<!-- adacamp&#45;&gt;osbridge -->
<g id="edge64" class="edge"><title>adacamp&#45;&gt;osbridge</title>
<path fill="none" stroke="black" d="M463.751,-252.582C428.155,-268.917 372.184,-301.236 351,-350 337.364,-381.39 340.021,-421.47 344.149,-447.896"/>
<polygon fill="black" stroke="black" points="340.742,-448.729 345.901,-457.983 347.638,-447.532 340.742,-448.729"/>
<text text-anchor="middle" x="390" y="-352.9" font-family="Times,serif" font-size="14.00">a11y policies</text>
</g>
<!-- doubleunion -->
<g id="node62" class="node"><title>doubleunion</title>
<ellipse fill="none" stroke="black" cx="356" cy="-166" rx="57.8449" ry="18"/>
<text text-anchor="middle" x="356" y="-160.9" font-family="Times,serif" font-size="14.00">doubleunion</text>
</g>
<!-- adacamp&#45;&gt;doubleunion -->
<g id="edge66" class="edge"><title>adacamp&#45;&gt;doubleunion</title>
<path fill="none" stroke="black" d="M468.199,-225.732C447.306,-214.609 418.006,-199.011 394.588,-186.543"/>
<polygon fill="black" stroke="black" points="396.078,-183.371 385.606,-181.761 392.788,-189.55 396.078,-183.371"/>
</g>
<!-- railsgirls&#45;&gt;rgsoc -->
<g id="edge96" class="edge"><title>railsgirls&#45;&gt;rgsoc</title>
<path fill="none" stroke="black" d="M1709.21,-224.667C1726.57,-213.192 1750.44,-197.423 1769.06,-185.123"/>
<polygon fill="black" stroke="black" points="1771.05,-188.004 1777.46,-179.571 1767.19,-182.164 1771.05,-188.004"/>
</g>
<!-- Feminist Frequency vids -->
<g id="node58" class="node"><title>Feminist Frequency vids</title>
<ellipse fill="none" stroke="black" cx="1968" cy="-240" rx="104.14" ry="18"/>
<text text-anchor="middle" x="1968" y="-234.9" font-family="Times,serif" font-size="14.00">Feminist Frequency vids</text>
</g>
<!-- transcodesf -->
<g id="node59" class="node"><title>transcodesf</title>
<ellipse fill="none" stroke="black" cx="2142" cy="-240" rx="52.1439" ry="18"/>
<text text-anchor="middle" x="2142" y="-234.9" font-family="Times,serif" font-size="14.00">transcodesf</text>
</g>
<!-- seattleattic -->
<g id="node61" class="node"><title>seattleattic</title>
<ellipse fill="none" stroke="black" cx="191" cy="-166" rx="50.1936" ry="18"/>
<text text-anchor="middle" x="191" y="-160.9" font-family="Times,serif" font-size="14.00">seattleattic</text>
</g>
<!-- seattleattic&#45;&gt;doubleunion -->
<g id="edge70" class="edge"><title>seattleattic&#45;&gt;doubleunion</title>
<path fill="none" stroke="black" d="M241.273,-166C256.714,-166 272.154,-166 287.594,-166"/>
<polygon fill="black" stroke="black" points="287.74,-169.5 297.74,-166 287.74,-162.5 287.74,-169.5"/>
</g>
<!-- callbackwomen -->
<g id="node64" class="node"><title>callbackwomen</title>
<ellipse fill="none" stroke="black" cx="1916" cy="-166" rx="69.0435" ry="18"/>
<text text-anchor="middle" x="1916" y="-160.9" font-family="Times,serif" font-size="14.00">callbackwomen</text>
</g>
<!-- transh4ck -->
<g id="node66" class="node"><title>transh4ck</title>
<ellipse fill="none" stroke="black" cx="2049" cy="-166" rx="46.1459" ry="18"/>
<text text-anchor="middle" x="2049" y="-160.9" font-family="Times,serif" font-size="14.00">transh4ck</text>
</g>
<!-- transtech -->
<g id="node67" class="node"><title>transtech</title>
<ellipse fill="none" stroke="black" cx="2174" cy="-166" rx="43.0456" ry="18"/>
<text text-anchor="middle" x="2174" y="-160.9" font-family="Times,serif" font-size="14.00">transtech</text>
</g>
<!-- transh4ck&#45;&gt;transtech -->
<g id="edge112" class="edge"><title>transh4ck&#45;&gt;transtech</title>
<path fill="none" stroke="black" d="M2095.39,-166C2103.76,-166 2112.12,-166 2120.49,-166"/>
<polygon fill="black" stroke="black" points="2120.7,-169.5 2130.7,-166 2120.7,-162.5 2120.7,-169.5"/>
</g>
<!-- mvc -->
<g id="node69" class="node"><title>mvc</title>
<ellipse fill="none" stroke="black" cx="1121" cy="-92" rx="27" ry="18"/>
<text text-anchor="middle" x="1121" y="-86.9" font-family="Times,serif" font-size="14.00">mvc</text>
</g>
<!-- mothershiphackermoms -->
<g id="node93" class="node"><title>mothershiphackermoms</title>
<ellipse fill="none" stroke="black" cx="335" cy="-240" rx="98.9415" ry="18"/>
<text text-anchor="middle" x="335" y="-234.9" font-family="Times,serif" font-size="14.00">mothershiphackermoms</text>
</g>
<!-- mothershiphackermoms&#45;&gt;doubleunion -->
<g id="edge68" class="edge"><title>mothershiphackermoms&#45;&gt;doubleunion</title>
<path fill="none" stroke="black" d="M340.191,-221.708C342.581,-213.284 345.47,-203.105 348.121,-193.765"/>
<polygon fill="black" stroke="black" points="351.506,-194.657 350.869,-184.082 344.772,-192.746 351.506,-194.657"/>
</g>
</g>
</svg>
