<?xml version="1.0" encoding="UTF-8" standalone="no"?>
<!DOCTYPE svg PUBLIC "-//W3C//DTD SVG 1.1//EN"
 "http://www.w3.org/Graphics/SVG/1.1/DTD/svg11.dtd">
<!-- Generated by graphviz version 2.26.3 (20100126.1600)
 -->
<!-- Title: GeekFeminismFamilyTree Pages: 1 -->
<svg width="2454pt" height="924pt"
 viewBox="0.00 0.00 2454.00 924.00" xmlns="http://www.w3.org/2000/svg" xmlns:xlink="http://www.w3.org/1999/xlink">
<g id="graph1" class="graph" transform="scale(1 1) rotate(0) translate(4 920)">
<title>GeekFeminismFamilyTree</title>
<polygon fill="white" stroke="white" points="-4,5 -4,-920 2451,-920 2451,5 -4,5"/>
<!-- past -->
<g id="node2" class="node"><title>past</title>
<text text-anchor="middle" x="62" y="-892.6" font-family="Times Roman,serif" font-size="16.00">past</text>
</g>
<!-- 2000&#45;2003 -->
<g id="node4" class="node"><title>2000&#45;2003</title>
<text text-anchor="middle" x="62" y="-816.6" font-family="Times Roman,serif" font-size="16.00">2000&#45;2003</text>
</g>
<!-- past&#45;&gt;2000&#45;2003 -->
<g id="edge3" class="edge"><title>past&#45;&gt;2000&#45;2003</title>
<path fill="none" stroke="black" d="M62,-878.989C62,-870.157 62,-859.31 62,-849.396"/>
<polygon fill="black" stroke="black" points="65.5001,-849.145 62,-839.145 58.5001,-849.145 65.5001,-849.145"/>
</g>
<!-- 2004&#45;2006 -->
<g id="node5" class="node"><title>2004&#45;2006</title>
<text text-anchor="middle" x="62" y="-740.6" font-family="Times Roman,serif" font-size="16.00">2004&#45;2006</text>
</g>
<!-- 2000&#45;2003&#45;&gt;2004&#45;2006 -->
<g id="edge4" class="edge"><title>2000&#45;2003&#45;&gt;2004&#45;2006</title>
<path fill="none" stroke="black" d="M62,-802.989C62,-794.157 62,-783.31 62,-773.396"/>
<polygon fill="black" stroke="black" points="65.5001,-773.145 62,-763.145 58.5001,-773.145 65.5001,-773.145"/>
</g>
<!-- 2007 -->
<g id="node6" class="node"><title>2007</title>
<text text-anchor="middle" x="62" y="-664.6" font-family="Times Roman,serif" font-size="16.00">2007</text>
</g>
<!-- 2004&#45;2006&#45;&gt;2007 -->
<g id="edge5" class="edge"><title>2004&#45;2006&#45;&gt;2007</title>
<path fill="none" stroke="black" d="M62,-726.989C62,-718.157 62,-707.31 62,-697.396"/>
<polygon fill="black" stroke="black" points="65.5001,-697.145 62,-687.145 58.5001,-697.145 65.5001,-697.145"/>
</g>
<!-- 2008 -->
<g id="node7" class="node"><title>2008</title>
<text text-anchor="middle" x="62" y="-588.6" font-family="Times Roman,serif" font-size="16.00">2008</text>
</g>
<!-- 2007&#45;&gt;2008 -->
<g id="edge6" class="edge"><title>2007&#45;&gt;2008</title>
<path fill="none" stroke="black" d="M62,-650.989C62,-642.157 62,-631.31 62,-621.396"/>
<polygon fill="black" stroke="black" points="65.5001,-621.145 62,-611.145 58.5001,-621.145 65.5001,-621.145"/>
</g>
<!-- 2009 -->
<g id="node8" class="node"><title>2009</title>
<text text-anchor="middle" x="62" y="-505.6" font-family="Times Roman,serif" font-size="16.00">2009</text>
</g>
<!-- 2008&#45;&gt;2009 -->
<g id="edge7" class="edge"><title>2008&#45;&gt;2009</title>
<path fill="none" stroke="black" d="M62,-574.99C62,-564.296 62,-550.499 62,-538.371"/>
<polygon fill="black" stroke="black" points="65.5001,-538.261 62,-528.261 58.5001,-538.261 65.5001,-538.261"/>
</g>
<!-- 2010 -->
<g id="node9" class="node"><title>2010</title>
<text text-anchor="middle" x="62" y="-415.6" font-family="Times Roman,serif" font-size="16.00">2010</text>
</g>
<!-- 2009&#45;&gt;2010 -->
<g id="edge8" class="edge"><title>2009&#45;&gt;2010</title>
<path fill="none" stroke="black" d="M62,-491.787C62,-479.344 62,-462.605 62,-448.421"/>
<polygon fill="black" stroke="black" points="65.5001,-448.186 62,-438.186 58.5001,-448.186 65.5001,-448.186"/>
</g>
<!-- 2011 -->
<g id="node10" class="node"><title>2011</title>
<text text-anchor="middle" x="62" y="-316.6" font-family="Times Roman,serif" font-size="16.00">2011</text>
</g>
<!-- 2010&#45;&gt;2011 -->
<g id="edge9" class="edge"><title>2010&#45;&gt;2011</title>
<path fill="none" stroke="black" d="M62,-401.842C62,-387.189 62,-366.311 62,-349.443"/>
<polygon fill="black" stroke="black" points="65.5001,-349.043 62,-339.043 58.5001,-349.043 65.5001,-349.043"/>
</g>
<!-- 2012 -->
<g id="node11" class="node"><title>2012</title>
<text text-anchor="middle" x="62" y="-240.6" font-family="Times Roman,serif" font-size="16.00">2012</text>
</g>
<!-- 2011&#45;&gt;2012 -->
<g id="edge10" class="edge"><title>2011&#45;&gt;2012</title>
<path fill="none" stroke="black" d="M62,-302.989C62,-294.157 62,-283.31 62,-273.396"/>
<polygon fill="black" stroke="black" points="65.5001,-273.145 62,-263.145 58.5001,-273.145 65.5001,-273.145"/>
</g>
<!-- 2013 -->
<g id="node12" class="node"><title>2013</title>
<text text-anchor="middle" x="62" y="-164.6" font-family="Times Roman,serif" font-size="16.00">2013</text>
</g>
<!-- 2012&#45;&gt;2013 -->
<g id="edge11" class="edge"><title>2012&#45;&gt;2013</title>
<path fill="none" stroke="black" d="M62,-226.989C62,-218.157 62,-207.31 62,-197.396"/>
<polygon fill="black" stroke="black" points="65.5001,-197.145 62,-187.145 58.5001,-197.145 65.5001,-197.145"/>
</g>
<!-- 2014 -->
<g id="node13" class="node"><title>2014</title>
<text text-anchor="middle" x="62" y="-88.6" font-family="Times Roman,serif" font-size="16.00">2014</text>
</g>
<!-- 2013&#45;&gt;2014 -->
<g id="edge12" class="edge"><title>2013&#45;&gt;2014</title>
<path fill="none" stroke="black" d="M62,-150.989C62,-142.157 62,-131.31 62,-121.396"/>
<polygon fill="black" stroke="black" points="65.5001,-121.145 62,-111.145 58.5001,-121.145 65.5001,-121.145"/>
</g>
<!-- unknowndate -->
<g id="node14" class="node"><title>unknowndate</title>
<text text-anchor="middle" x="62" y="-13.6" font-family="Times Roman,serif" font-size="16.00">unknowndate</text>
</g>
<!-- 2014&#45;&gt;unknowndate -->
<g id="edge13" class="edge"><title>2014&#45;&gt;unknowndate</title>
<path fill="none" stroke="black" d="M62,-74.8446C62,-66.3401 62,-56.0076 62,-46.4964"/>
<polygon fill="black" stroke="black" points="65.5001,-46.2481 62,-36.2482 58.5001,-46.2482 65.5001,-46.2481"/>
</g>
<!-- livejournal -->
<g id="node16" class="node"><title>livejournal</title>
<polygon fill="none" stroke="black" points="298,-915 210,-915 210,-879 298,-879 298,-915"/>
<text text-anchor="middle" x="254" y="-893.4" font-family="Times Roman,serif" font-size="14.00">livejournal</text>
</g>
<!-- dreamwidth -->
<g id="node38" class="node"><title>dreamwidth</title>
<ellipse fill="none" stroke="black" cx="178" cy="-593" rx="70.0036" ry="18.3848"/>
<text text-anchor="middle" x="178" y="-589.4" font-family="Times Roman,serif" font-size="14.00">dreamwidth</text>
</g>
<!-- livejournal&#45;&gt;dreamwidth -->
<g id="edge102" class="edge"><title>livejournal&#45;&gt;dreamwidth</title>
<path fill="none" stroke="black" d="M240.757,-878.955C231.211,-864.154 220,-842.248 220,-821 220,-821 220,-821 220,-669 220,-650.898 210.759,-633.057 200.947,-619.214"/>
<polygon fill="black" stroke="black" points="203.666,-617.008 194.841,-611.145 198.085,-621.232 203.666,-617.008"/>
</g>
<!-- otw -->
<g id="node39" class="node"><title>otw</title>
<ellipse fill="none" stroke="black" cx="297" cy="-593" rx="31.1127" ry="18.3848"/>
<text text-anchor="middle" x="297" y="-589.4" font-family="Times Roman,serif" font-size="14.00">otw</text>
</g>
<!-- livejournal&#45;&gt;otw -->
<g id="edge104" class="edge"><title>livejournal&#45;&gt;otw</title>
<path fill="none" stroke="black" d="M260.427,-878.826C265.241,-863.586 271,-841.146 271,-821 271,-821 271,-821 271,-669 271,-652.118 276.815,-634.206 282.944,-620.015"/>
<polygon fill="black" stroke="black" points="286.164,-621.39 287.171,-610.843 279.807,-618.46 286.164,-621.39"/>
</g>
<!-- wiscon -->
<g id="node17" class="node"><title>wiscon</title>
<ellipse fill="none" stroke="black" cx="1312" cy="-897" rx="44.7575" ry="18.3848"/>
<text text-anchor="middle" x="1312" y="-893.4" font-family="Times Roman,serif" font-size="14.00">wiscon</text>
</g>
<!-- racefail -->
<g id="node42" class="node"><title>racefail</title>
<polygon fill="none" stroke="black" points="822,-536 756,-510 822,-484 888,-510 822,-536"/>
<text text-anchor="middle" x="822" y="-506.4" font-family="Times Roman,serif" font-size="14.00">racefail</text>
</g>
<!-- wiscon&#45;&gt;racefail -->
<g id="edge100" class="edge"><title>wiscon&#45;&gt;racefail</title>
<path fill="none" stroke="black" d="M1266.75,-895.77C1166.32,-892.332 928.304,-880.076 860,-840 800.105,-804.858 778,-776.443 778,-707 778,-707 778,-707 778,-593 778,-572.959 788.138,-553.033 798.681,-537.73"/>
<polygon fill="black" stroke="black" points="801.779,-539.425 804.862,-529.289 796.131,-535.289 801.779,-539.425"/>
</g>
<!-- adacamp -->
<g id="node57" class="node"><title>adacamp</title>
<ellipse fill="none" stroke="black" cx="1120" cy="-245" rx="53.9477" ry="18.3848"/>
<text text-anchor="middle" x="1120" y="-241.4" font-family="Times Roman,serif" font-size="14.00">adacamp</text>
</g>
<!-- wiscon&#45;&gt;adacamp -->
<g id="edge62" class="edge"><title>wiscon&#45;&gt;adacamp</title>
<path fill="none" stroke="black" d="M1356.06,-893.145C1429.75,-885.468 1570,-865.068 1570,-821 1570,-821 1570,-821 1570,-321 1570,-301.517 1304.28,-267.099 1181.21,-252.204"/>
<polygon fill="black" stroke="black" points="1181.53,-248.717 1171.18,-250.995 1180.69,-255.667 1181.53,-248.717"/>
<text text-anchor="middle" x="1614.5" y="-589.4" font-family="Times Roman,serif" font-size="14.00">a11y policies</text>
</g>
<!-- linuxconfau -->
<g id="node18" class="node"><title>linuxconfau</title>
<polygon fill="none" stroke="black" points="440,-915 344,-915 344,-879 440,-879 440,-915"/>
<text text-anchor="middle" x="392" y="-893.4" font-family="Times Roman,serif" font-size="14.00">linuxconfau</text>
</g>
<!-- haecksen -->
<g id="node33" class="node"><title>haecksen</title>
<ellipse fill="none" stroke="black" cx="1354" cy="-669" rx="56.7776" ry="18.3848"/>
<text text-anchor="middle" x="1354" y="-665.4" font-family="Times Roman,serif" font-size="14.00">haecksen</text>
</g>
<!-- linuxconfau&#45;&gt;haecksen -->
<g id="edge86" class="edge"><title>linuxconfau&#45;&gt;haecksen</title>
<path fill="none" stroke="black" d="M440.131,-895.012C643.487,-886.112 1424.95,-846.695 1493,-764 1510.33,-742.946 1496.34,-720.099 1473,-706 1454.78,-694.994 1432.99,-686.983 1413.07,-681.291"/>
<polygon fill="black" stroke="black" points="1413.72,-677.842 1403.15,-678.6 1411.89,-684.597 1413.72,-677.842"/>
</g>
<!-- adainitiative -->
<g id="node52" class="node"><title>adainitiative</title>
<ellipse fill="none" stroke="black" cx="416" cy="-321" rx="72.1249" ry="18.3848"/>
<text text-anchor="middle" x="416" y="-317.4" font-family="Times Roman,serif" font-size="14.00">adainitiative</text>
</g>
<!-- linuxconfau&#45;&gt;adainitiative -->
<g id="edge36" class="edge"><title>linuxconfau&#45;&gt;adainitiative</title>
<path fill="none" stroke="black" d="M383.173,-878.727C376.687,-863.616 369,-841.402 369,-821 369,-821 369,-821 369,-420 369,-393.556 382.854,-366.644 395.519,-347.568"/>
<polygon fill="black" stroke="black" points="398.552,-349.335 401.387,-339.127 392.805,-345.34 398.552,-349.335"/>
</g>
<!-- linuxchix -->
<g id="node20" class="node"><title>linuxchix</title>
<ellipse fill="none" stroke="black" cx="924" cy="-821" rx="55.1543" ry="18.3848"/>
<text text-anchor="middle" x="924" y="-817.4" font-family="Times Roman,serif" font-size="14.00">linuxchix</text>
</g>
<!-- debianwomen -->
<g id="node26" class="node"><title>debianwomen</title>
<ellipse fill="none" stroke="black" cx="924" cy="-745" rx="79.9031" ry="18.3848"/>
<text text-anchor="middle" x="924" y="-741.4" font-family="Times Roman,serif" font-size="14.00">debianwomen</text>
</g>
<!-- linuxchix&#45;&gt;debianwomen -->
<g id="edge72" class="edge"><title>linuxchix&#45;&gt;debianwomen</title>
<path fill="none" stroke="black" d="M924,-802.213C924,-793.654 924,-783.33 924,-773.822"/>
<polygon fill="black" stroke="black" points="927.5,-773.57 924,-763.57 920.5,-773.57 927.5,-773.57"/>
</g>
<!-- linuxchix&#45;&gt;haecksen -->
<g id="edge84" class="edge"><title>linuxchix&#45;&gt;haecksen</title>
<path fill="none" stroke="black" d="M977.934,-817.362C1113.42,-807.967 1458.45,-782.345 1475,-764 1486.31,-751.458 1484.05,-740.262 1475,-726 1461.06,-704.026 1436.14,-690.368 1412.52,-681.956"/>
<polygon fill="black" stroke="black" points="1413.46,-678.579 1402.87,-678.769 1411.27,-685.227 1413.46,-678.579"/>
</g>
<!-- geekfeminism -->
<g id="node37" class="node"><title>geekfeminism</title>
<ellipse fill="none" stroke="black" cx="672" cy="-593" rx="77.9889" ry="18.3848"/>
<text text-anchor="middle" x="672" y="-589.4" font-family="Times Roman,serif" font-size="14.00">geekfeminism</text>
</g>
<!-- linuxchix&#45;&gt;geekfeminism -->
<g id="edge28" class="edge"><title>linuxchix&#45;&gt;geekfeminism</title>
<path fill="none" stroke="black" d="M894.044,-805.471C875.81,-795.169 852.701,-780.531 835,-764 811.548,-742.098 813.32,-729.983 792,-706 763.178,-673.578 726.412,-639.93 701.216,-617.877"/>
<polygon fill="black" stroke="black" points="703.311,-615.06 693.467,-611.141 698.718,-620.343 703.311,-615.06"/>
</g>
<!-- gsoc -->
<g id="node22" class="node"><title>gsoc</title>
<polygon fill="none" stroke="black" points="1664,-763 1610,-763 1610,-727 1664,-727 1664,-763"/>
<text text-anchor="middle" x="1637" y="-741.4" font-family="Times Roman,serif" font-size="14.00">gsoc</text>
</g>
<!-- opw -->
<g id="node23" class="node"><title>opw</title>
<ellipse fill="none" stroke="black" cx="1434" cy="-745" rx="32.0265" ry="18.3848"/>
<text text-anchor="middle" x="1434" y="-741.4" font-family="Times Roman,serif" font-size="14.00">opw</text>
</g>
<!-- gsoc&#45;&gt;opw -->
<g id="edge82" class="edge"><title>gsoc&#45;&gt;opw</title>
<path fill="none" stroke="black" d="M1609.97,-745C1565.39,-745 1520.81,-745 1476.23,-745"/>
<polygon fill="black" stroke="black" points="1476.12,-741.5 1466.12,-745 1476.12,-748.5 1476.12,-741.5"/>
</g>
<!-- rgsoc -->
<g id="node66" class="node"><title>rgsoc</title>
<ellipse fill="none" stroke="black" cx="1737" cy="-169" rx="36.7696" ry="18.3848"/>
<text text-anchor="middle" x="1737" y="-165.4" font-family="Times Roman,serif" font-size="14.00">rgsoc</text>
</g>
<!-- gsoc&#45;&gt;rgsoc -->
<g id="edge98" class="edge"><title>gsoc&#45;&gt;rgsoc</title>
<path fill="none" stroke="black" d="M1657.63,-726.851C1671.4,-712.653 1687,-691.585 1687,-669 1687,-669 1687,-669 1687,-245 1687,-225.196 1699,-206.559 1711.24,-192.697"/>
<polygon fill="black" stroke="black" points="1714.07,-194.792 1718.38,-185.114 1708.98,-189.991 1714.07,-194.792"/>
</g>
<!-- ubuntuwomen -->
<g id="node24" class="node"><title>ubuntuwomen</title>
<ellipse fill="none" stroke="black" cx="1301" cy="-745" rx="82.939" ry="18.3848"/>
<text text-anchor="middle" x="1301" y="-741.4" font-family="Times Roman,serif" font-size="14.00">ubuntuwomen</text>
</g>
<!-- gnomewomen -->
<g id="node25" class="node"><title>gnomewomen</title>
<ellipse fill="none" stroke="black" cx="1120" cy="-745" rx="80.1095" ry="18.3848"/>
<text text-anchor="middle" x="1120" y="-741.4" font-family="Times Roman,serif" font-size="14.00">gnomewomen</text>
</g>
<!-- gnomewomen&#45;&gt;opw -->
<g id="edge80" class="edge"><title>gnomewomen&#45;&gt;opw</title>
<path fill="none" stroke="black" d="M1154,-761.77C1172.45,-769.939 1195.94,-778.872 1218,-783 1290.52,-796.568 1314.08,-806.553 1384,-783 1393.41,-779.83 1402.45,-774.107 1410.2,-768.049"/>
<polygon fill="black" stroke="black" points="1412.65,-770.562 1418.05,-761.448 1408.14,-765.204 1412.65,-770.562"/>
</g>
<!-- debianwomen&#45;&gt;ubuntuwomen -->
<g id="edge74" class="edge"><title>debianwomen&#45;&gt;ubuntuwomen</title>
<path fill="none" stroke="black" d="M962.96,-761.189C985.119,-769.52 1013.63,-778.791 1040,-783 1110.22,-794.209 1130.04,-795.726 1200,-783 1219.13,-779.52 1239.35,-772.617 1256.63,-765.638"/>
<polygon fill="black" stroke="black" points="1258.02,-768.851 1265.9,-761.773 1255.32,-762.389 1258.02,-768.851"/>
</g>
<!-- debianwomen&#45;&gt;gnomewomen -->
<g id="edge76" class="edge"><title>debianwomen&#45;&gt;gnomewomen</title>
<path fill="none" stroke="black" d="M1004.01,-745C1012.58,-745 1021.16,-745 1029.74,-745"/>
<polygon fill="black" stroke="black" points="1029.8,-748.5 1039.8,-745 1029.8,-741.5 1029.8,-748.5"/>
</g>
<!-- girlgeekdinners -->
<g id="node27" class="node"><title>girlgeekdinners</title>
<polygon fill="none" stroke="black" points="2148,-763 2026,-763 2026,-727 2148,-727 2148,-763"/>
<text text-anchor="middle" x="2087" y="-741.4" font-family="Times Roman,serif" font-size="14.00">girlgeekdinners</text>
</g>
<!-- blogher -->
<g id="node28" class="node"><title>blogher</title>
<ellipse fill="none" stroke="black" cx="2214" cy="-745" rx="48.0833" ry="18.3848"/>
<text text-anchor="middle" x="2214" y="-741.4" font-family="Times Roman,serif" font-size="14.00">blogher</text>
</g>
<!-- speakerswiki -->
<g id="node29" class="node"><title>speakerswiki</title>
<ellipse fill="none" stroke="black" cx="2372" cy="-745" rx="74.2462" ry="18.3848"/>
<text text-anchor="middle" x="2372" y="-741.4" font-family="Times Roman,serif" font-size="14.00">speakerswiki</text>
</g>
<!-- blogher&#45;&gt;speakerswiki -->
<g id="edge114" class="edge"><title>blogher&#45;&gt;speakerswiki</title>
<path fill="none" stroke="black" d="M2262.14,-745C2270.67,-745 2279.21,-745 2287.74,-745"/>
<polygon fill="black" stroke="black" points="2287.76,-748.5 2297.76,-745 2287.76,-741.5 2287.76,-748.5"/>
</g>
<!-- railsconf2005 -->
<g id="node30" class="node"><title>railsconf2005</title>
<ellipse fill="none" stroke="black" cx="1784" cy="-745" rx="77.7817" ry="18.3848"/>
<text text-anchor="middle" x="1784" y="-741.4" font-family="Times Roman,serif" font-size="14.00">railsconf2005</text>
</g>
<!-- devchix -->
<g id="node31" class="node"><title>devchix</title>
<ellipse fill="none" stroke="black" cx="1959" cy="-745" rx="48.7904" ry="18.3848"/>
<text text-anchor="middle" x="1959" y="-741.4" font-family="Times Roman,serif" font-size="14.00">devchix</text>
</g>
<!-- railsconf2005&#45;&gt;devchix -->
<g id="edge118" class="edge"><title>railsconf2005&#45;&gt;devchix</title>
<path fill="none" stroke="black" d="M1862.27,-745C1874.79,-745 1887.32,-745 1899.84,-745"/>
<polygon fill="black" stroke="black" points="1899.88,-748.5 1909.88,-745 1899.88,-741.5 1899.88,-748.5"/>
</g>
<!-- railsbridge -->
<g id="node44" class="node"><title>railsbridge</title>
<ellipse fill="none" stroke="black" cx="1959" cy="-510" rx="62.2254" ry="18.3848"/>
<text text-anchor="middle" x="1959" y="-506.4" font-family="Times Roman,serif" font-size="14.00">railsbridge</text>
</g>
<!-- devchix&#45;&gt;railsbridge -->
<g id="edge119" class="edge"><title>devchix&#45;&gt;railsbridge</title>
<path fill="none" stroke="black" d="M1959,-726.166C1959,-685.157 1959,-587.559 1959,-538.781"/>
<polygon fill="black" stroke="black" points="1962.5,-538.597 1959,-528.597 1955.5,-538.597 1962.5,-538.597"/>
</g>
<!-- owoot -->
<g id="node54" class="node"><title>owoot</title>
<ellipse fill="none" stroke="black" cx="1224" cy="-321" rx="41.9273" ry="18.3848"/>
<text text-anchor="middle" x="1224" y="-317.4" font-family="Times Roman,serif" font-size="14.00">owoot</text>
</g>
<!-- haecksen&#45;&gt;owoot -->
<g id="edge78" class="edge"><title>haecksen&#45;&gt;owoot</title>
<path fill="none" stroke="black" d="M1303.37,-660.3C1266.86,-650.785 1224,-631.431 1224,-593 1224,-593 1224,-593 1224,-420 1224,-396.362 1224,-369.549 1224,-349.795"/>
<polygon fill="black" stroke="black" points="1227.5,-349.611 1224,-339.611 1220.5,-349.611 1227.5,-349.611"/>
</g>
<!-- haecksen&#45;&gt;adacamp -->
<g id="edge88" class="edge"><title>haecksen&#45;&gt;adacamp</title>
<path fill="none" stroke="black" d="M1297.55,-666.269C1210.14,-660.477 1052,-643.078 1052,-593 1052,-593 1052,-593 1052,-321 1052,-298.938 1068.11,-280.347 1084.65,-267.075"/>
<polygon fill="black" stroke="black" points="1086.85,-269.803 1092.73,-260.995 1082.64,-264.208 1086.85,-269.803"/>
</g>
<!-- shesgeeky -->
<g id="node34" class="node"><title>shesgeeky</title>
<ellipse fill="none" stroke="black" cx="2372" cy="-669" rx="62.2254" ry="18.3848"/>
<text text-anchor="middle" x="2372" y="-665.4" font-family="Times Roman,serif" font-size="14.00">shesgeeky</text>
</g>
<!-- shesgeeky&#45;&gt;speakerswiki -->
<g id="edge116" class="edge"><title>shesgeeky&#45;&gt;speakerswiki</title>
<path fill="none" stroke="black" d="M2372,-687.57C2372,-696.1 2372,-706.415 2372,-715.938"/>
<polygon fill="black" stroke="black" points="2368.5,-716.213 2372,-726.213 2375.5,-716.214 2368.5,-716.213"/>
</g>
<!-- SFF CAHP -->
<g id="node36" class="node"><title>SFF CAHP</title>
<ellipse fill="none" stroke="black" cx="942" cy="-593" rx="60.8112" ry="18.3848"/>
<text text-anchor="middle" x="942" y="-589.4" font-family="Times Roman,serif" font-size="14.00">SFF CAHP</text>
</g>
<!-- backupproject -->
<g id="node46" class="node"><title>backupproject</title>
<ellipse fill="none" stroke="black" cx="1463" cy="-510" rx="79.196" ry="18.3848"/>
<text text-anchor="middle" x="1463" y="-506.4" font-family="Times Roman,serif" font-size="14.00">backupproject</text>
</g>
<!-- SFF CAHP&#45;&gt;backupproject -->
<g id="edge48" class="edge"><title>SFF CAHP&#45;&gt;backupproject</title>
<path fill="none" stroke="black" d="M999.706,-586.995C1080.15,-578.188 1230.38,-560.157 1357,-536 1371.29,-533.274 1386.54,-529.844 1400.9,-526.378"/>
<polygon fill="black" stroke="black" points="1401.79,-529.763 1410.67,-523.981 1400.12,-522.964 1401.79,-529.763"/>
</g>
<!-- GF/TAI AHP -->
<g id="node53" class="node"><title>GF/TAI AHP</title>
<ellipse fill="none" stroke="black" cx="596" cy="-321" rx="67.8823" ry="18.3848"/>
<text text-anchor="middle" x="596" y="-317.4" font-family="Times Roman,serif" font-size="14.00">GF/TAI AHP</text>
</g>
<!-- SFF CAHP&#45;&gt;GF/TAI AHP -->
<g id="edge44" class="edge"><title>SFF CAHP&#45;&gt;GF/TAI AHP</title>
<path fill="none" stroke="black" d="M937.712,-574.406C931.673,-551.31 918.881,-511.59 897,-484 837.222,-408.625 807.433,-400.238 721,-358 701.603,-348.521 679.306,-340.969 658.963,-335.224"/>
<polygon fill="black" stroke="black" points="659.723,-331.803 649.155,-332.548 657.881,-338.557 659.723,-331.803"/>
</g>
<!-- geekfeminism&#45;&gt;adainitiative -->
<g id="edge34" class="edge"><title>geekfeminism&#45;&gt;adainitiative</title>
<path fill="none" stroke="black" d="M622.772,-578.58C565.091,-558.854 471.727,-517.487 427,-446 408.842,-416.979 408.832,-376.487 411.531,-349.542"/>
<polygon fill="black" stroke="black" points="415.009,-349.929 412.713,-339.586 408.058,-349.104 415.009,-349.929"/>
</g>
<!-- geekfeminism&#45;&gt;GF/TAI AHP -->
<g id="edge40" class="edge"><title>geekfeminism&#45;&gt;GF/TAI AHP</title>
<path fill="none" stroke="black" d="M686.582,-574.769C713.914,-538.227 766.979,-454.358 731,-394 714.453,-366.241 683.281,-348.399 655.058,-337.308"/>
<polygon fill="black" stroke="black" points="656.217,-334.005 645.625,-333.801 653.778,-340.566 656.217,-334.005"/>
</g>
<!-- oscon2009 -->
<g id="node41" class="node"><title>oscon2009</title>
<ellipse fill="none" stroke="black" cx="276" cy="-510" rx="65.0538" ry="18.3848"/>
<text text-anchor="middle" x="276" y="-506.4" font-family="Times Roman,serif" font-size="14.00">oscon2009</text>
</g>
<!-- dreamwidth&#45;&gt;oscon2009 -->
<g id="edge106" class="edge"><title>dreamwidth&#45;&gt;oscon2009</title>
<path fill="none" stroke="black" d="M199.265,-574.99C213.358,-563.054 232.017,-547.251 247.406,-534.218"/>
<polygon fill="black" stroke="black" points="249.745,-536.823 255.114,-527.689 245.221,-531.482 249.745,-536.823"/>
</g>
<!-- otw&#45;&gt;oscon2009 -->
<g id="edge108" class="edge"><title>otw&#45;&gt;oscon2009</title>
<path fill="none" stroke="black" d="M292.339,-574.58C289.667,-564.015 286.253,-550.525 283.238,-538.609"/>
<polygon fill="black" stroke="black" points="286.566,-537.492 280.72,-528.656 279.78,-539.209 286.566,-537.492"/>
</g>
<!-- oscon2009&#45;&gt;geekfeminism -->
<g id="edge110" class="edge"><title>oscon2009&#45;&gt;geekfeminism</title>
<path fill="none" stroke="black" d="M313.25,-525.183C339.374,-535.283 375.33,-548.099 408,-556 467.569,-570.406 536.15,-579.809 588.481,-585.529"/>
<polygon fill="black" stroke="black" points="588.407,-589.041 598.723,-586.625 589.152,-582.081 588.407,-589.041"/>
</g>
<!-- racefail&#45;&gt;geekfeminism -->
<g id="edge30" class="edge"><title>racefail&#45;&gt;geekfeminism</title>
<path fill="none" stroke="black" d="M794.339,-525.344C778.202,-534.292 757.452,-545.792 739,-556 730.284,-560.822 720.928,-565.992 712.054,-570.894"/>
<polygon fill="black" stroke="black" points="710.089,-567.98 703.027,-575.878 713.473,-574.108 710.089,-567.98"/>
</g>
<!-- couchdb -->
<g id="node43" class="node"><title>couchdb</title>
<polygon fill="none" stroke="black" points="1788,-536 1715,-510 1788,-484 1861,-510 1788,-536"/>
<text text-anchor="middle" x="1788" y="-506.4" font-family="Times Roman,serif" font-size="14.00">couchdb</text>
</g>
<!-- couchdb&#45;&gt;railsbridge -->
<g id="edge90" class="edge"><title>couchdb&#45;&gt;railsbridge</title>
<path fill="none" stroke="black" d="M1861.14,-510C1869.57,-510 1877.99,-510 1886.42,-510"/>
<polygon fill="black" stroke="black" points="1886.69,-513.5 1896.69,-510 1886.69,-506.5 1886.69,-513.5"/>
</g>
<!-- railsgirls -->
<g id="node58" class="node"><title>railsgirls</title>
<ellipse fill="none" stroke="black" cx="1863" cy="-245" rx="51.8276" ry="18.3848"/>
<text text-anchor="middle" x="1863" y="-241.4" font-family="Times Roman,serif" font-size="14.00">railsgirls</text>
</g>
<!-- railsbridge&#45;&gt;railsgirls -->
<g id="edge94" class="edge"><title>railsbridge&#45;&gt;railsgirls</title>
<path fill="none" stroke="black" d="M1957.77,-491.491C1955.82,-468.232 1951.03,-427.322 1940,-394 1925.14,-349.102 1898.14,-301.197 1880.39,-272.175"/>
<polygon fill="black" stroke="black" points="1883.22,-270.099 1874.97,-263.443 1877.27,-273.787 1883.22,-270.099"/>
</g>
<!-- pystar -->
<g id="node110" class="node"><title>pystar</title>
<ellipse fill="none" stroke="black" cx="1889" cy="-420" rx="41.9273" ry="18.3848"/>
<text text-anchor="middle" x="1889" y="-416.4" font-family="Times Roman,serif" font-size="14.00">pystar</text>
</g>
<!-- railsbridge&#45;&gt;pystar -->
<g id="edge92" class="edge"><title>railsbridge&#45;&gt;pystar</title>
<path fill="none" stroke="black" d="M1944.83,-491.787C1934.55,-478.563 1920.49,-460.485 1909.05,-445.78"/>
<polygon fill="black" stroke="black" points="1911.57,-443.318 1902.67,-437.573 1906.04,-447.616 1911.57,-443.318"/>
</g>
<!-- osbp -->
<g id="node45" class="node"><title>osbp</title>
<polygon fill="none" stroke="black" points="1300,-536 1252,-510 1300,-484 1348,-510 1300,-536"/>
<text text-anchor="middle" x="1300" y="-506.4" font-family="Times Roman,serif" font-size="14.00">osbp</text>
</g>
<!-- osbp&#45;&gt;backupproject -->
<g id="edge46" class="edge"><title>osbp&#45;&gt;backupproject</title>
<path fill="none" stroke="black" d="M1348.07,-510C1356.68,-510 1365.28,-510 1373.89,-510"/>
<polygon fill="black" stroke="black" points="1373.99,-513.5 1383.99,-510 1373.99,-506.5 1373.99,-513.5"/>
</g>
<!-- backupribbons -->
<g id="node50" class="node"><title>backupribbons</title>
<ellipse fill="none" stroke="black" cx="1461" cy="-420" rx="80.8184" ry="18.3848"/>
<text text-anchor="middle" x="1461" y="-416.4" font-family="Times Roman,serif" font-size="14.00">backupribbons</text>
</g>
<!-- backupproject&#45;&gt;backupribbons -->
<g id="edge50" class="edge"><title>backupproject&#45;&gt;backupribbons</title>
<path fill="none" stroke="black" d="M1462.59,-491.352C1462.31,-479.043 1461.95,-462.673 1461.64,-448.718"/>
<polygon fill="black" stroke="black" points="1465.14,-448.544 1461.41,-438.624 1458.14,-448.699 1465.14,-448.544"/>
</g>
<!-- osbridge -->
<g id="node47" class="node"><title>osbridge</title>
<ellipse fill="none" stroke="black" cx="1132" cy="-510" rx="51.8276" ry="18.3848"/>
<text text-anchor="middle" x="1132" y="-506.4" font-family="Times Roman,serif" font-size="14.00">osbridge</text>
</g>
<!-- apachecon assault -->
<g id="node49" class="node"><title>apachecon assault</title>
<polygon fill="none" stroke="black" points="579,-446 436,-420 579,-394 722,-420 579,-446"/>
<text text-anchor="middle" x="579" y="-416.4" font-family="Times Roman,serif" font-size="14.00">apachecon assault</text>
</g>
<!-- apachecon assault&#45;&gt;adainitiative -->
<g id="edge32" class="edge"><title>apachecon assault&#45;&gt;adainitiative</title>
<path fill="none" stroke="black" d="M546.015,-399.966C519.069,-383.6 481.001,-360.479 453.018,-343.483"/>
<polygon fill="black" stroke="black" points="454.678,-340.396 444.314,-338.197 451.044,-346.379 454.678,-340.396"/>
</g>
<!-- apachecon assault&#45;&gt;GF/TAI AHP -->
<g id="edge38" class="edge"><title>apachecon assault&#45;&gt;GF/TAI AHP</title>
<path fill="none" stroke="black" d="M583.334,-394.762C585.686,-381.067 588.603,-364.079 591.044,-349.86"/>
<polygon fill="black" stroke="black" points="594.559,-350.075 592.801,-339.627 587.66,-348.89 594.559,-350.075"/>
</g>
<!-- adainitiative&#45;&gt;GF/TAI AHP -->
<g id="edge42" class="edge"><title>adainitiative&#45;&gt;GF/TAI AHP</title>
<path fill="none" stroke="black" d="M488.07,-321C497.875,-321 507.679,-321 517.484,-321"/>
<polygon fill="black" stroke="black" points="517.701,-324.5 527.701,-321 517.701,-317.5 517.701,-324.5"/>
</g>
<!-- adainitiative&#45;&gt;adacamp -->
<g id="edge60" class="edge"><title>adainitiative&#45;&gt;adacamp</title>
<path fill="none" stroke="black" d="M472.489,-309.403C487.55,-306.634 503.848,-303.927 519,-302 756.793,-271.766 821.24,-307.319 1057,-264 1061.74,-263.13 1066.62,-262.031 1071.48,-260.802"/>
<polygon fill="black" stroke="black" points="1072.61,-264.122 1081.35,-258.13 1070.78,-257.365 1072.61,-264.122"/>
</g>
<!-- Skeptic AHPs -->
<g id="node59" class="node"><title>Skeptic AHPs</title>
<ellipse fill="none" stroke="black" cx="973" cy="-245" rx="75.1594" ry="18.3848"/>
<text text-anchor="middle" x="973" y="-241.4" font-family="Times Roman,serif" font-size="14.00">Skeptic AHPs</text>
</g>
<!-- GF/TAI AHP&#45;&gt;Skeptic AHPs -->
<g id="edge54" class="edge"><title>GF/TAI AHP&#45;&gt;Skeptic AHPs</title>
<path fill="none" stroke="black" d="M652.272,-310.577C711.336,-299.514 806.846,-281.278 889,-264 895.145,-262.708 901.535,-261.328 907.924,-259.924"/>
<polygon fill="black" stroke="black" points="908.921,-263.288 917.927,-257.708 907.407,-256.454 908.921,-263.288"/>
</g>
<!-- PyCon AHP -->
<g id="node60" class="node"><title>PyCon AHP</title>
<ellipse fill="none" stroke="black" cx="333" cy="-245" rx="67.1751" ry="18.3848"/>
<text text-anchor="middle" x="333" y="-241.4" font-family="Times Roman,serif" font-size="14.00">PyCon AHP</text>
</g>
<!-- GF/TAI AHP&#45;&gt;PyCon AHP -->
<g id="edge52" class="edge"><title>GF/TAI AHP&#45;&gt;PyCon AHP</title>
<path fill="none" stroke="black" d="M539.981,-310.37C497.774,-302.12 443.609,-290.952 422,-284 406.324,-278.957 389.662,-272.089 375.045,-265.521"/>
<polygon fill="black" stroke="black" points="376.316,-262.253 365.766,-261.271 373.4,-268.618 376.316,-262.253"/>
</g>
<!-- Scalzi&#39;s AHP pledge -->
<g id="node68" class="node"><title>Scalzi&#39;s AHP pledge</title>
<ellipse fill="none" stroke="black" cx="311" cy="-169" rx="104.86" ry="18.3848"/>
<text text-anchor="middle" x="311" y="-165.4" font-family="Times Roman,serif" font-size="14.00">Scalzi&#39;s AHP pledge</text>
</g>
<!-- GF/TAI AHP&#45;&gt;Scalzi&#39;s AHP pledge -->
<g id="edge58" class="edge"><title>GF/TAI AHP&#45;&gt;Scalzi&#39;s AHP pledge</title>
<path fill="none" stroke="black" d="M564.957,-304.444C513.604,-277.055 410.907,-222.284 353.078,-191.442"/>
<polygon fill="black" stroke="black" points="354.668,-188.323 344.197,-186.705 351.374,-194.499 354.668,-188.323"/>
<text text-anchor="middle" x="491" y="-241.4" font-family="Times Roman,serif" font-size="14.00">?</text>
</g>
<!-- #CoCPledge -->
<g id="node73" class="node"><title>#CoCPledge</title>
<ellipse fill="none" stroke="black" cx="596" cy="-93" rx="72.1249" ry="18.3848"/>
<text text-anchor="middle" x="596" y="-89.4" font-family="Times Roman,serif" font-size="14.00">#CoCPledge</text>
</g>
<!-- GF/TAI AHP&#45;&gt;#CoCPledge -->
<g id="edge56" class="edge"><title>GF/TAI AHP&#45;&gt;#CoCPledge</title>
<path fill="none" stroke="black" d="M596,-302.342C596,-262.579 596,-169.26 596,-121.804"/>
<polygon fill="black" stroke="black" points="599.5,-121.596 596,-111.596 592.5,-121.596 599.5,-121.596"/>
</g>
<!-- blackgirlscode -->
<g id="node55" class="node"><title>blackgirlscode</title>
<ellipse fill="none" stroke="black" cx="2066" cy="-321" rx="79.196" ry="18.3848"/>
<text text-anchor="middle" x="2066" y="-317.4" font-family="Times Roman,serif" font-size="14.00">blackgirlscode</text>
</g>
<!-- adacamp&#45;&gt;osbridge -->
<g id="edge64" class="edge"><title>adacamp&#45;&gt;osbridge</title>
<path fill="none" stroke="black" d="M1119.71,-263.668C1119.41,-289.089 1119.21,-336.011 1121,-376 1122.63,-412.437 1126.37,-454.317 1129.04,-481.42"/>
<polygon fill="black" stroke="black" points="1125.55,-481.783 1130.03,-491.385 1132.52,-481.086 1125.55,-481.783"/>
<text text-anchor="middle" x="1165.5" y="-363.4" font-family="Times Roman,serif" font-size="14.00">a11y policies</text>
</g>
<!-- doubleunion -->
<g id="node65" class="node"><title>doubleunion</title>
<ellipse fill="none" stroke="black" cx="752" cy="-169" rx="70.9184" ry="18.3848"/>
<text text-anchor="middle" x="752" y="-165.4" font-family="Times Roman,serif" font-size="14.00">doubleunion</text>
</g>
<!-- adacamp&#45;&gt;doubleunion -->
<g id="edge66" class="edge"><title>adacamp&#45;&gt;doubleunion</title>
<path fill="none" stroke="black" d="M1080.19,-232.283C1072.53,-230.04 1064.55,-227.838 1057,-226 977.674,-206.686 885.37,-190.262 823.26,-180.076"/>
<polygon fill="black" stroke="black" points="823.608,-176.586 813.175,-178.433 822.482,-183.495 823.608,-176.586"/>
</g>
<!-- railsgirls&#45;&gt;rgsoc -->
<g id="edge96" class="edge"><title>railsgirls&#45;&gt;rgsoc</title>
<path fill="none" stroke="black" d="M1836.28,-228.882C1816.77,-217.116 1790.22,-201.104 1769.49,-188.597"/>
<polygon fill="black" stroke="black" points="1771.08,-185.469 1760.71,-183.301 1767.46,-191.463 1771.08,-185.469"/>
</g>
<!-- Feminist Frequency vids -->
<g id="node61" class="node"><title>Feminist Frequency vids</title>
<ellipse fill="none" stroke="black" cx="2061" cy="-245" rx="127.986" ry="18.3848"/>
<text text-anchor="middle" x="2061" y="-241.4" font-family="Times Roman,serif" font-size="14.00">Feminist Frequency vids</text>
</g>
<!-- transcodesf -->
<g id="node62" class="node"><title>transcodesf</title>
<ellipse fill="none" stroke="black" cx="2274" cy="-245" rx="67.1751" ry="18.3848"/>
<text text-anchor="middle" x="2274" y="-241.4" font-family="Times Roman,serif" font-size="14.00">transcodesf</text>
</g>
<!-- seattleattic -->
<g id="node64" class="node"><title>seattleattic</title>
<ellipse fill="none" stroke="black" cx="501" cy="-169" rx="67.1751" ry="18.3848"/>
<text text-anchor="middle" x="501" y="-165.4" font-family="Times Roman,serif" font-size="14.00">seattleattic</text>
</g>
<!-- seattleattic&#45;&gt;doubleunion -->
<g id="edge70" class="edge"><title>seattleattic&#45;&gt;doubleunion</title>
<path fill="none" stroke="black" d="M568.162,-169C602.367,-169 636.572,-169 670.777,-169"/>
<polygon fill="black" stroke="black" points="670.906,-172.5 680.906,-169 670.906,-165.5 670.906,-172.5"/>
</g>
<!-- callbackwomen -->
<g id="node67" class="node"><title>callbackwomen</title>
<ellipse fill="none" stroke="black" cx="1878" cy="-169" rx="85.7684" ry="18.3848"/>
<text text-anchor="middle" x="1878" y="-165.4" font-family="Times Roman,serif" font-size="14.00">callbackwomen</text>
</g>
<!-- transh4ck -->
<g id="node69" class="node"><title>transh4ck</title>
<ellipse fill="none" stroke="black" cx="2043" cy="-169" rx="60.8112" ry="18.3848"/>
<text text-anchor="middle" x="2043" y="-165.4" font-family="Times Roman,serif" font-size="14.00">transh4ck</text>
</g>
<!-- transtech -->
<g id="node70" class="node"><title>transtech</title>
<ellipse fill="none" stroke="black" cx="2198" cy="-169" rx="58.1882" ry="18.3848"/>
<text text-anchor="middle" x="2198" y="-165.4" font-family="Times Roman,serif" font-size="14.00">transtech</text>
</g>
<!-- transh4ck&#45;&gt;transtech -->
<g id="edge112" class="edge"><title>transh4ck&#45;&gt;transtech</title>
<path fill="none" stroke="black" d="M2104.15,-169C2112.67,-169 2121.19,-169 2129.71,-169"/>
<polygon fill="black" stroke="black" points="2129.71,-172.5 2139.71,-169 2129.71,-165.5 2129.71,-172.5"/>
</g>
<!-- mvc -->
<g id="node72" class="node"><title>mvc</title>
<ellipse fill="none" stroke="black" cx="717" cy="-93" rx="31.1127" ry="18.3848"/>
<text text-anchor="middle" x="717" y="-89.4" font-family="Times Roman,serif" font-size="14.00">mvc</text>
</g>
<!-- mothershiphackermoms -->
<g id="node96" class="node"><title>mothershiphackermoms</title>
<ellipse fill="none" stroke="black" cx="752" cy="-245" rx="127.986" ry="18.3848"/>
<text text-anchor="middle" x="752" y="-241.4" font-family="Times Roman,serif" font-size="14.00">mothershiphackermoms</text>
</g>
<!-- mothershiphackermoms&#45;&gt;doubleunion -->
<g id="edge68" class="edge"><title>mothershiphackermoms&#45;&gt;doubleunion</title>
<path fill="none" stroke="black" d="M752,-226.213C752,-217.654 752,-207.33 752,-197.822"/>
<polygon fill="black" stroke="black" points="755.5,-197.57 752,-187.57 748.5,-197.57 755.5,-197.57"/>
</g>
</g>
</svg>
