<?xml version="1.0" encoding="UTF-8" standalone="no"?>
<!DOCTYPE svg PUBLIC "-//W3C//DTD SVG 1.1//EN"
 "http://www.w3.org/Graphics/SVG/1.1/DTD/svg11.dtd">
<!-- Generated by graphviz version 2.38.0 (20140413.2041)
 -->
<!-- Title: GeekFeminismFamilyTree Pages: 1 -->
<svg width="2279pt" height="860pt"
 viewBox="0.00 0.00 2279.38 860.00" xmlns="http://www.w3.org/2000/svg" xmlns:xlink="http://www.w3.org/1999/xlink">
<g id="graph0" class="graph" transform="scale(1 1) rotate(0) translate(4 856)">
<title>GeekFeminismFamilyTree</title>
<polygon fill="white" stroke="none" points="-4,4 -4,-856 2275.38,-856 2275.38,4 -4,4"/>
<!-- past -->
<g id="node1" class="node"><title>past</title>
<text text-anchor="middle" x="51.1016" y="-829.2" font-family="Times,serif" font-size="16.00">past</text>
</g>
<!-- 2000&#45;2003 -->
<g id="node2" class="node"><title>2000&#45;2003</title>
<text text-anchor="middle" x="51.1016" y="-756.2" font-family="Times,serif" font-size="16.00">2000&#45;2003</text>
</g>
<!-- past&#45;&gt;2000&#45;2003 -->
<g id="edge1" class="edge"><title>past&#45;&gt;2000&#45;2003</title>
<path fill="none" stroke="black" d="M51.1016,-815.813C51.1016,-807.789 51.1016,-798.047 51.1016,-789.069"/>
<polygon fill="black" stroke="black" points="54.6017,-789.029 51.1016,-779.029 47.6017,-789.029 54.6017,-789.029"/>
</g>
<!-- 2004&#45;2006 -->
<g id="node3" class="node"><title>2004&#45;2006</title>
<text text-anchor="middle" x="51.1016" y="-683.2" font-family="Times,serif" font-size="16.00">2004&#45;2006</text>
</g>
<!-- 2000&#45;2003&#45;&gt;2004&#45;2006 -->
<g id="edge2" class="edge"><title>2000&#45;2003&#45;&gt;2004&#45;2006</title>
<path fill="none" stroke="black" d="M51.1016,-742.813C51.1016,-734.789 51.1016,-725.047 51.1016,-716.069"/>
<polygon fill="black" stroke="black" points="54.6017,-716.029 51.1016,-706.029 47.6017,-716.029 54.6017,-716.029"/>
</g>
<!-- 2007 -->
<g id="node4" class="node"><title>2007</title>
<text text-anchor="middle" x="51.1016" y="-610.2" font-family="Times,serif" font-size="16.00">2007</text>
</g>
<!-- 2004&#45;2006&#45;&gt;2007 -->
<g id="edge3" class="edge"><title>2004&#45;2006&#45;&gt;2007</title>
<path fill="none" stroke="black" d="M51.1016,-669.813C51.1016,-661.789 51.1016,-652.047 51.1016,-643.069"/>
<polygon fill="black" stroke="black" points="54.6017,-643.029 51.1016,-633.029 47.6017,-643.029 54.6017,-643.029"/>
</g>
<!-- 2008 -->
<g id="node5" class="node"><title>2008</title>
<text text-anchor="middle" x="51.1016" y="-537.2" font-family="Times,serif" font-size="16.00">2008</text>
</g>
<!-- 2007&#45;&gt;2008 -->
<g id="edge4" class="edge"><title>2007&#45;&gt;2008</title>
<path fill="none" stroke="black" d="M51.1016,-596.813C51.1016,-588.789 51.1016,-579.047 51.1016,-570.069"/>
<polygon fill="black" stroke="black" points="54.6017,-570.029 51.1016,-560.029 47.6017,-570.029 54.6017,-570.029"/>
</g>
<!-- 2009 -->
<g id="node6" class="node"><title>2009</title>
<text text-anchor="middle" x="51.1016" y="-464.2" font-family="Times,serif" font-size="16.00">2009</text>
</g>
<!-- 2008&#45;&gt;2009 -->
<g id="edge5" class="edge"><title>2008&#45;&gt;2009</title>
<path fill="none" stroke="black" d="M51.1016,-523.813C51.1016,-515.789 51.1016,-506.047 51.1016,-497.069"/>
<polygon fill="black" stroke="black" points="54.6017,-497.029 51.1016,-487.029 47.6017,-497.029 54.6017,-497.029"/>
</g>
<!-- 2010 -->
<g id="node7" class="node"><title>2010</title>
<text text-anchor="middle" x="51.1016" y="-391.2" font-family="Times,serif" font-size="16.00">2010</text>
</g>
<!-- 2009&#45;&gt;2010 -->
<g id="edge6" class="edge"><title>2009&#45;&gt;2010</title>
<path fill="none" stroke="black" d="M51.1016,-450.813C51.1016,-442.789 51.1016,-433.047 51.1016,-424.069"/>
<polygon fill="black" stroke="black" points="54.6017,-424.029 51.1016,-414.029 47.6017,-424.029 54.6017,-424.029"/>
</g>
<!-- 2011 -->
<g id="node8" class="node"><title>2011</title>
<text text-anchor="middle" x="51.1016" y="-305.2" font-family="Times,serif" font-size="16.00">2011</text>
</g>
<!-- 2010&#45;&gt;2011 -->
<g id="edge7" class="edge"><title>2010&#45;&gt;2011</title>
<path fill="none" stroke="black" d="M51.1016,-377.595C51.1016,-366.257 51.1016,-351.227 51.1016,-338.315"/>
<polygon fill="black" stroke="black" points="54.6017,-338.095 51.1016,-328.095 47.6017,-338.095 54.6017,-338.095"/>
</g>
<!-- 2012 -->
<g id="node9" class="node"><title>2012</title>
<text text-anchor="middle" x="51.1016" y="-232.2" font-family="Times,serif" font-size="16.00">2012</text>
</g>
<!-- 2011&#45;&gt;2012 -->
<g id="edge8" class="edge"><title>2011&#45;&gt;2012</title>
<path fill="none" stroke="black" d="M51.1016,-291.813C51.1016,-283.789 51.1016,-274.047 51.1016,-265.069"/>
<polygon fill="black" stroke="black" points="54.6017,-265.029 51.1016,-255.029 47.6017,-265.029 54.6017,-265.029"/>
</g>
<!-- 2013 -->
<g id="node10" class="node"><title>2013</title>
<text text-anchor="middle" x="51.1016" y="-159.2" font-family="Times,serif" font-size="16.00">2013</text>
</g>
<!-- 2012&#45;&gt;2013 -->
<g id="edge9" class="edge"><title>2012&#45;&gt;2013</title>
<path fill="none" stroke="black" d="M51.1016,-218.813C51.1016,-210.789 51.1016,-201.047 51.1016,-192.069"/>
<polygon fill="black" stroke="black" points="54.6017,-192.029 51.1016,-182.029 47.6017,-192.029 54.6017,-192.029"/>
</g>
<!-- 2014 -->
<g id="node11" class="node"><title>2014</title>
<text text-anchor="middle" x="51.1016" y="-86.2" font-family="Times,serif" font-size="16.00">2014</text>
</g>
<!-- 2013&#45;&gt;2014 -->
<g id="edge10" class="edge"><title>2013&#45;&gt;2014</title>
<path fill="none" stroke="black" d="M51.1016,-145.813C51.1016,-137.789 51.1016,-128.047 51.1016,-119.069"/>
<polygon fill="black" stroke="black" points="54.6017,-119.029 51.1016,-109.029 47.6017,-119.029 54.6017,-119.029"/>
</g>
<!-- unknowndate -->
<g id="node12" class="node"><title>unknowndate</title>
<text text-anchor="middle" x="51.1016" y="-13.2" font-family="Times,serif" font-size="16.00">unknowndate</text>
</g>
<!-- 2014&#45;&gt;unknowndate -->
<g id="edge11" class="edge"><title>2014&#45;&gt;unknowndate</title>
<path fill="none" stroke="black" d="M51.1016,-72.8129C51.1016,-64.7895 51.1016,-55.0475 51.1016,-46.0691"/>
<polygon fill="black" stroke="black" points="54.6017,-46.0288 51.1016,-36.0288 47.6017,-46.0289 54.6017,-46.0288"/>
</g>
<!-- livejournal -->
<g id="node13" class="node"><title>livejournal</title>
<polygon fill="none" stroke="black" points="211.251,-852 134.952,-852 134.952,-816 211.251,-816 211.251,-852"/>
<text text-anchor="middle" x="173.102" y="-829.8" font-family="Times,serif" font-size="14.00">livejournal</text>
</g>
<!-- dreamwidth -->
<g id="node33" class="node"><title>dreamwidth</title>
<ellipse fill="none" stroke="black" cx="148.102" cy="-542" rx="52.1934" ry="18"/>
<text text-anchor="middle" x="148.102" y="-537.8" font-family="Times,serif" font-size="14.00">dreamwidth</text>
</g>
<!-- livejournal&#45;&gt;dreamwidth -->
<g id="edge54" class="edge"><title>livejournal&#45;&gt;dreamwidth</title>
<path fill="none" stroke="black" d="M164.275,-815.992C157.789,-801.91 150.102,-781.176 150.102,-762 150.102,-762 150.102,-762 150.102,-614 150.102,-599.646 149.688,-583.665 149.237,-570.506"/>
<polygon fill="black" stroke="black" points="152.724,-570.077 148.858,-560.213 145.728,-570.335 152.724,-570.077"/>
</g>
<!-- otw -->
<g id="node34" class="node"><title>otw</title>
<ellipse fill="none" stroke="black" cx="245.102" cy="-542" rx="27" ry="18"/>
<text text-anchor="middle" x="245.102" y="-537.8" font-family="Times,serif" font-size="14.00">otw</text>
</g>
<!-- livejournal&#45;&gt;otw -->
<g id="edge55" class="edge"><title>livejournal&#45;&gt;otw</title>
<path fill="none" stroke="black" d="M180.393,-815.836C185.751,-801.664 192.102,-780.885 192.102,-762 192.102,-762 192.102,-762 192.102,-614 192.102,-593.812 206.031,-575.663 219.608,-562.768"/>
<polygon fill="black" stroke="black" points="222.296,-565.062 227.453,-555.807 217.65,-559.826 222.296,-565.062"/>
</g>
<!-- wiscon -->
<g id="node14" class="node"><title>wiscon</title>
<ellipse fill="none" stroke="black" cx="529.102" cy="-834" rx="35.3216" ry="18"/>
<text text-anchor="middle" x="529.102" y="-829.8" font-family="Times,serif" font-size="14.00">wiscon</text>
</g>
<!-- racefail -->
<g id="node36" class="node"><title>racefail</title>
<polygon fill="none" stroke="black" points="706.102,-487 654.548,-469 706.102,-451 757.655,-469 706.102,-487"/>
<text text-anchor="middle" x="706.102" y="-464.8" font-family="Times,serif" font-size="14.00">racefail</text>
</g>
<!-- wiscon&#45;&gt;racefail -->
<g id="edge53" class="edge"><title>wiscon&#45;&gt;racefail</title>
<path fill="none" stroke="black" d="M560.924,-826.11C612.848,-812.961 714.288,-778.854 757.102,-706 778.206,-670.086 735.801,-547.689 715.779,-494.741"/>
<polygon fill="black" stroke="black" points="718.942,-493.212 712.099,-485.124 712.404,-495.714 718.942,-493.212"/>
</g>
<!-- adacamp -->
<g id="node48" class="node"><title>adacamp</title>
<ellipse fill="none" stroke="black" cx="514.102" cy="-237" rx="41.5593" ry="18"/>
<text text-anchor="middle" x="514.102" y="-232.8" font-family="Times,serif" font-size="14.00">adacamp</text>
</g>
<!-- wiscon&#45;&gt;adacamp -->
<g id="edge29" class="edge"><title>wiscon&#45;&gt;adacamp</title>
<path fill="none" stroke="black" d="M494.31,-830.862C423.041,-825.528 267.102,-808.538 267.102,-762 267.102,-762 267.102,-762 267.102,-651 267.102,-538.419 396.102,-545.581 396.102,-433 396.102,-433 396.102,-433 396.102,-309 396.102,-274.549 433.486,-256.387 466.17,-247.091"/>
<polygon fill="black" stroke="black" points="467.331,-250.405 476.116,-244.482 465.555,-243.634 467.331,-250.405"/>
<text text-anchor="middle" x="389.975" y="-537.8" font-family="Times,serif" font-size="14.00">a11y policies</text>
</g>
<!-- linuxconfau -->
<g id="node15" class="node"><title>linuxconfau</title>
<polygon fill="none" stroke="black" points="902.471,-852 819.732,-852 819.732,-816 902.471,-816 902.471,-852"/>
<text text-anchor="middle" x="861.102" y="-829.8" font-family="Times,serif" font-size="14.00">linuxconfau</text>
</g>
<!-- haecksen -->
<g id="node28" class="node"><title>haecksen</title>
<ellipse fill="none" stroke="black" cx="819.102" cy="-615" rx="42.5283" ry="18"/>
<text text-anchor="middle" x="819.102" y="-610.8" font-family="Times,serif" font-size="14.00">haecksen</text>
</g>
<!-- linuxconfau&#45;&gt;haecksen -->
<g id="edge46" class="edge"><title>linuxconfau&#45;&gt;haecksen</title>
<path fill="none" stroke="black" d="M857.806,-815.972C850.537,-778.418 833.082,-688.232 824.314,-642.929"/>
<polygon fill="black" stroke="black" points="827.718,-642.101 822.382,-632.949 820.846,-643.431 827.718,-642.101"/>
</g>
<!-- adainitiative -->
<g id="node44" class="node"><title>adainitiative</title>
<ellipse fill="none" stroke="black" cx="906.102" cy="-310" rx="53.6299" ry="18"/>
<text text-anchor="middle" x="906.102" y="-305.8" font-family="Times,serif" font-size="14.00">adainitiative</text>
</g>
<!-- linuxconfau&#45;&gt;adainitiative -->
<g id="edge16" class="edge"><title>linuxconfau&#45;&gt;adainitiative</title>
<path fill="none" stroke="black" d="M872.397,-815.991C880.539,-802.078 890.102,-781.573 890.102,-762 890.102,-762 890.102,-762 890.102,-651 890.102,-529.601 859.539,-497.469 881.102,-378 883.6,-364.159 888.782,-349.449 893.784,-337.348"/>
<polygon fill="black" stroke="black" points="897.125,-338.441 897.881,-327.873 890.699,-335.663 897.125,-338.441"/>
</g>
<!-- linuxchix -->
<g id="node16" class="node"><title>linuxchix</title>
<ellipse fill="none" stroke="black" cx="393.102" cy="-761" rx="43.5233" ry="18"/>
<text text-anchor="middle" x="393.102" y="-756.8" font-family="Times,serif" font-size="14.00">linuxchix</text>
</g>
<!-- debianwomen -->
<g id="node22" class="node"><title>debianwomen</title>
<ellipse fill="none" stroke="black" cx="393.102" cy="-688" rx="59.927" ry="18"/>
<text text-anchor="middle" x="393.102" y="-683.8" font-family="Times,serif" font-size="14.00">debianwomen</text>
</g>
<!-- linuxchix&#45;&gt;debianwomen -->
<g id="edge39" class="edge"><title>linuxchix&#45;&gt;debianwomen</title>
<path fill="none" stroke="black" d="M393.102,-742.813C393.102,-734.789 393.102,-725.047 393.102,-716.069"/>
<polygon fill="black" stroke="black" points="396.602,-716.029 393.102,-706.029 389.602,-716.029 396.602,-716.029"/>
</g>
<!-- linuxchix&#45;&gt;haecksen -->
<g id="edge45" class="edge"><title>linuxchix&#45;&gt;haecksen</title>
<path fill="none" stroke="black" d="M436.25,-757.876C520.712,-753.035 704.242,-738.951 757.102,-706 781.01,-691.096 798.042,-663.204 808.131,-642.404"/>
<polygon fill="black" stroke="black" points="811.396,-643.682 812.402,-633.135 805.038,-640.752 811.396,-643.682"/>
</g>
<!-- geekfeminism -->
<g id="node32" class="node"><title>geekfeminism</title>
<ellipse fill="none" stroke="black" cx="541.102" cy="-542" rx="60.4115" ry="18"/>
<text text-anchor="middle" x="541.102" y="-537.8" font-family="Times,serif" font-size="14.00">geekfeminism</text>
</g>
<!-- linuxchix&#45;&gt;geekfeminism -->
<g id="edge12" class="edge"><title>linuxchix&#45;&gt;geekfeminism</title>
<path fill="none" stroke="black" d="M366.057,-746.762C350.693,-737.634 332.83,-723.914 324.102,-706 317.094,-691.616 316.143,-683.88 324.102,-670 358.882,-609.345 435.092,-574.874 487.271,-557.566"/>
<polygon fill="black" stroke="black" points="488.59,-560.818 497.043,-554.431 486.452,-554.153 488.59,-560.818"/>
</g>
<!-- sfruby -->
<g id="node17" class="node"><title>sfruby</title>
<ellipse fill="none" stroke="black" cx="1652.1" cy="-761" rx="32.9081" ry="18"/>
<text text-anchor="middle" x="1652.1" y="-756.8" font-family="Times,serif" font-size="14.00">sfruby</text>
</g>
<!-- railsbridge -->
<g id="node38" class="node"><title>railsbridge</title>
<ellipse fill="none" stroke="black" cx="1746.1" cy="-469" rx="47.8496" ry="18"/>
<text text-anchor="middle" x="1746.1" y="-464.8" font-family="Times,serif" font-size="14.00">railsbridge</text>
</g>
<!-- sfruby&#45;&gt;railsbridge -->
<g id="edge64" class="edge"><title>sfruby&#45;&gt;railsbridge</title>
<path fill="none" stroke="black" d="M1652.1,-742.784C1652.1,-728.405 1652.1,-707.366 1652.1,-689 1652.1,-689 1652.1,-689 1652.1,-541 1652.1,-514.189 1676.75,-496.218 1700.81,-485.064"/>
<polygon fill="black" stroke="black" points="1702.5,-488.148 1710.3,-480.979 1699.73,-481.719 1702.5,-488.148"/>
</g>
<!-- gsoc -->
<g id="node18" class="node"><title>gsoc</title>
<polygon fill="none" stroke="black" points="1206.1,-706 1152.1,-706 1152.1,-670 1206.1,-670 1206.1,-706"/>
<text text-anchor="middle" x="1179.1" y="-683.8" font-family="Times,serif" font-size="14.00">gsoc</text>
</g>
<!-- opw -->
<g id="node19" class="node"><title>opw</title>
<ellipse fill="none" stroke="black" cx="1269.1" cy="-688" rx="27" ry="18"/>
<text text-anchor="middle" x="1269.1" y="-683.8" font-family="Times,serif" font-size="14.00">opw</text>
</g>
<!-- gsoc&#45;&gt;opw -->
<g id="edge44" class="edge"><title>gsoc&#45;&gt;opw</title>
<path fill="none" stroke="black" d="M1206.17,-688C1214.77,-688 1223.37,-688 1231.97,-688"/>
<polygon fill="black" stroke="black" points="1232.06,-691.5 1242.06,-688 1232.06,-684.5 1232.06,-691.5"/>
</g>
<!-- rgsoc -->
<g id="node58" class="node"><title>rgsoc</title>
<ellipse fill="none" stroke="black" cx="1564.1" cy="-164" rx="29.2133" ry="18"/>
<text text-anchor="middle" x="1564.1" y="-159.8" font-family="Times,serif" font-size="14.00">rgsoc</text>
</g>
<!-- gsoc&#45;&gt;rgsoc -->
<g id="edge52" class="edge"><title>gsoc&#45;&gt;rgsoc</title>
<path fill="none" stroke="black" d="M1206.33,-677.447C1214.82,-674.733 1224.28,-671.981 1233.1,-670 1296.64,-655.737 1521.1,-681.115 1521.1,-616 1521.1,-616 1521.1,-616 1521.1,-236 1521.1,-217.913 1531.44,-200.496 1541.97,-187.438"/>
<polygon fill="black" stroke="black" points="1544.92,-189.377 1548.82,-179.524 1539.63,-184.797 1544.92,-189.377"/>
</g>
<!-- ubuntuwomen -->
<g id="node20" class="node"><title>ubuntuwomen</title>
<ellipse fill="none" stroke="black" cx="687.102" cy="-688" rx="60.9133" ry="18"/>
<text text-anchor="middle" x="687.102" y="-683.8" font-family="Times,serif" font-size="14.00">ubuntuwomen</text>
</g>
<!-- gnomewomen -->
<g id="node21" class="node"><title>gnomewomen</title>
<ellipse fill="none" stroke="black" cx="548.102" cy="-688" rx="60.4202" ry="18"/>
<text text-anchor="middle" x="548.102" y="-683.8" font-family="Times,serif" font-size="14.00">gnomewomen</text>
</g>
<!-- gnomewomen&#45;&gt;opw -->
<g id="edge43" class="edge"><title>gnomewomen&#45;&gt;opw</title>
<path fill="none" stroke="black" d="M575.207,-704.277C589.747,-712.065 608.296,-720.54 626.102,-724.5 689.009,-738.491 1143.87,-741.226 1206.1,-724.5 1218.98,-721.04 1231.94,-714.235 1242.73,-707.43"/>
<polygon fill="black" stroke="black" points="1244.83,-710.232 1251.23,-701.786 1240.96,-704.4 1244.83,-710.232"/>
</g>
<!-- debianwomen&#45;&gt;ubuntuwomen -->
<g id="edge40" class="edge"><title>debianwomen&#45;&gt;ubuntuwomen</title>
<path fill="none" stroke="black" d="M424.352,-703.346C442.486,-711.393 466.039,-720.407 488.102,-724.5 540.54,-734.227 556.012,-735.952 608.102,-724.5 622.588,-721.315 637.581,-715.205 650.563,-708.882"/>
<polygon fill="black" stroke="black" points="652.293,-711.929 659.623,-704.279 649.123,-705.688 652.293,-711.929"/>
</g>
<!-- debianwomen&#45;&gt;gnomewomen -->
<g id="edge41" class="edge"><title>debianwomen&#45;&gt;gnomewomen</title>
<path fill="none" stroke="black" d="M453.043,-688C461.137,-688 469.23,-688 477.324,-688"/>
<polygon fill="black" stroke="black" points="477.576,-691.5 487.576,-688 477.576,-684.5 477.576,-691.5"/>
</g>
<!-- girlgeekdinners -->
<g id="node23" class="node"><title>girlgeekdinners</title>
<polygon fill="none" stroke="black" points="2030.68,-706 1927.52,-706 1927.52,-670 2030.68,-670 2030.68,-706"/>
<text text-anchor="middle" x="1979.1" y="-683.8" font-family="Times,serif" font-size="14.00">girlgeekdinners</text>
</g>
<!-- blogher -->
<g id="node24" class="node"><title>blogher</title>
<ellipse fill="none" stroke="black" cx="2086.1" cy="-688" rx="37.2421" ry="18"/>
<text text-anchor="middle" x="2086.1" y="-683.8" font-family="Times,serif" font-size="14.00">blogher</text>
</g>
<!-- speakerswiki -->
<g id="node25" class="node"><title>speakerswiki</title>
<ellipse fill="none" stroke="black" cx="2215.1" cy="-688" rx="56.0528" ry="18"/>
<text text-anchor="middle" x="2215.1" y="-683.8" font-family="Times,serif" font-size="14.00">speakerswiki</text>
</g>
<!-- blogher&#45;&gt;speakerswiki -->
<g id="edge60" class="edge"><title>blogher&#45;&gt;speakerswiki</title>
<path fill="none" stroke="black" d="M2123.39,-688C2131.71,-688 2140.03,-688 2148.35,-688"/>
<polygon fill="black" stroke="black" points="2148.5,-691.5 2158.5,-688 2148.5,-684.5 2148.5,-691.5"/>
</g>
<!-- railsconf2005 -->
<g id="node26" class="node"><title>railsconf2005</title>
<ellipse fill="none" stroke="black" cx="1739.1" cy="-688" rx="58.9668" ry="18"/>
<text text-anchor="middle" x="1739.1" y="-683.8" font-family="Times,serif" font-size="14.00">railsconf2005</text>
</g>
<!-- devchix -->
<g id="node27" class="node"><title>devchix</title>
<ellipse fill="none" stroke="black" cx="1871.1" cy="-688" rx="38.2024" ry="18"/>
<text text-anchor="middle" x="1871.1" y="-683.8" font-family="Times,serif" font-size="14.00">devchix</text>
</g>
<!-- railsconf2005&#45;&gt;devchix -->
<g id="edge62" class="edge"><title>railsconf2005&#45;&gt;devchix</title>
<path fill="none" stroke="black" d="M1797.88,-688C1806.15,-688 1814.42,-688 1822.69,-688"/>
<polygon fill="black" stroke="black" points="1822.78,-691.5 1832.78,-688 1822.78,-684.5 1822.78,-691.5"/>
</g>
<!-- devchix&#45;&gt;railsbridge -->
<g id="edge63" class="edge"><title>devchix&#45;&gt;railsbridge</title>
<path fill="none" stroke="black" d="M1861.5,-670.333C1839.78,-632.622 1786.74,-540.548 1760.83,-495.571"/>
<polygon fill="black" stroke="black" points="1763.76,-493.642 1755.74,-486.724 1757.69,-497.136 1763.76,-493.642"/>
</g>
<!-- owoot -->
<g id="node46" class="node"><title>owoot</title>
<ellipse fill="none" stroke="black" cx="764.102" cy="-310" rx="32.4324" ry="18"/>
<text text-anchor="middle" x="764.102" y="-305.8" font-family="Times,serif" font-size="14.00">owoot</text>
</g>
<!-- haecksen&#45;&gt;owoot -->
<g id="edge42" class="edge"><title>haecksen&#45;&gt;owoot</title>
<path fill="none" stroke="black" d="M814.426,-596.976C812.943,-591.284 811.362,-584.89 810.102,-579 791.364,-491.449 775.143,-386.53 767.993,-338.029"/>
<polygon fill="black" stroke="black" points="771.44,-337.412 766.53,-328.024 764.514,-338.425 771.44,-337.412"/>
</g>
<!-- haecksen&#45;&gt;adacamp -->
<g id="edge47" class="edge"><title>haecksen&#45;&gt;adacamp</title>
<path fill="none" stroke="black" d="M820.992,-596.807C822.408,-582.443 824.102,-561.412 824.102,-543 824.102,-543 824.102,-543 824.102,-309 824.102,-297.669 815.347,-296.841 805.102,-292 707.52,-245.89 670.002,-280.377 565.102,-255 561.687,-254.174 558.174,-253.223 554.665,-252.203"/>
<polygon fill="black" stroke="black" points="555.461,-248.785 544.874,-249.185 553.4,-255.475 555.461,-248.785"/>
</g>
<!-- shesgeeky -->
<g id="node29" class="node"><title>shesgeeky</title>
<ellipse fill="none" stroke="black" cx="2215.1" cy="-615" rx="46.4046" ry="18"/>
<text text-anchor="middle" x="2215.1" y="-610.8" font-family="Times,serif" font-size="14.00">shesgeeky</text>
</g>
<!-- shesgeeky&#45;&gt;speakerswiki -->
<g id="edge61" class="edge"><title>shesgeeky&#45;&gt;speakerswiki</title>
<path fill="none" stroke="black" d="M2215.1,-633.029C2215.1,-641.029 2215.1,-650.765 2215.1,-659.753"/>
<polygon fill="black" stroke="black" points="2211.6,-659.813 2215.1,-669.813 2218.6,-659.813 2211.6,-659.813"/>
</g>
<!-- noisebridge -->
<g id="node30" class="node"><title>noisebridge</title>
<polygon fill="none" stroke="black" points="1492.92,-633 1411.28,-633 1411.28,-597 1492.92,-597 1492.92,-633"/>
<text text-anchor="middle" x="1452.1" y="-610.8" font-family="Times,serif" font-size="14.00">noisebridge</text>
</g>
<!-- anarchafeminist hacker hive -->
<g id="node55" class="node"><title>anarchafeminist hacker hive</title>
<ellipse fill="none" stroke="black" cx="1371.1" cy="-237" rx="109.581" ry="18"/>
<text text-anchor="middle" x="1371.1" y="-232.8" font-family="Times,serif" font-size="14.00">anarchafeminist hacker hive</text>
</g>
<!-- noisebridge&#45;&gt;anarchafeminist hacker hive -->
<g id="edge33" class="edge"><title>noisebridge&#45;&gt;anarchafeminist hacker hive</title>
<path fill="none" stroke="black" d="M1452.1,-596.784C1452.1,-582.405 1452.1,-561.366 1452.1,-543 1452.1,-543 1452.1,-543 1452.1,-309 1452.1,-287.466 1435.71,-270.938 1417.68,-259.271"/>
<polygon fill="black" stroke="black" points="1419.13,-256.064 1408.76,-253.933 1415.54,-262.071 1419.13,-256.064"/>
</g>
<!-- SFF CAHP -->
<g id="node31" class="node"><title>SFF CAHP</title>
<ellipse fill="none" stroke="black" cx="1214.1" cy="-542" rx="50.8253" ry="18"/>
<text text-anchor="middle" x="1214.1" y="-537.8" font-family="Times,serif" font-size="14.00">SFF CAHP</text>
</g>
<!-- backupproject -->
<g id="node40" class="node"><title>backupproject</title>
<ellipse fill="none" stroke="black" cx="1364.1" cy="-469" rx="60.3942" ry="18"/>
<text text-anchor="middle" x="1364.1" y="-464.8" font-family="Times,serif" font-size="14.00">backupproject</text>
</g>
<!-- SFF CAHP&#45;&gt;backupproject -->
<g id="edge22" class="edge"><title>SFF CAHP&#45;&gt;backupproject</title>
<path fill="none" stroke="black" d="M1243.38,-527.142C1266.36,-516.263 1298.61,-501.001 1323.99,-488.985"/>
<polygon fill="black" stroke="black" points="1325.81,-491.997 1333.35,-484.555 1322.81,-485.67 1325.81,-491.997"/>
</g>
<!-- GF/TAI AHP -->
<g id="node45" class="node"><title>GF/TAI AHP</title>
<ellipse fill="none" stroke="black" cx="1090.1" cy="-310" rx="57.1338" ry="18"/>
<text text-anchor="middle" x="1090.1" y="-305.8" font-family="Times,serif" font-size="14.00">GF/TAI AHP</text>
</g>
<!-- SFF CAHP&#45;&gt;GF/TAI AHP -->
<g id="edge20" class="edge"><title>SFF CAHP&#45;&gt;GF/TAI AHP</title>
<path fill="none" stroke="black" d="M1203.02,-524.005C1196.59,-513.62 1188.68,-499.896 1183.1,-487 1157.07,-426.877 1178.6,-399.014 1140.1,-346 1136.3,-340.767 1131.47,-336.04 1126.32,-331.875"/>
<polygon fill="black" stroke="black" points="1128.19,-328.905 1118.06,-325.801 1124.04,-334.544 1128.19,-328.905"/>
</g>
<!-- geekfeminism&#45;&gt;adainitiative -->
<g id="edge15" class="edge"><title>geekfeminism&#45;&gt;adainitiative</title>
<path fill="none" stroke="black" d="M551.02,-524.152C563.293,-504.484 585.815,-471.982 612.102,-451 688.694,-389.864 796.365,-347.33 857.905,-326.238"/>
<polygon fill="black" stroke="black" points="859.387,-329.432 867.741,-322.916 857.147,-322.8 859.387,-329.432"/>
</g>
<!-- geekfeminism&#45;&gt;GF/TAI AHP -->
<g id="edge18" class="edge"><title>geekfeminism&#45;&gt;GF/TAI AHP</title>
<path fill="none" stroke="black" d="M562.441,-525.058C576.101,-514.61 594.025,-500.445 609.102,-487 625.989,-471.94 624.559,-460.487 645.102,-451 738.606,-407.816 1037.24,-489.68 1107.1,-414 1126.12,-393.4 1115.95,-360.088 1104.92,-336.948"/>
<polygon fill="black" stroke="black" points="1108.03,-335.353 1100.38,-328.022 1101.79,-338.523 1108.03,-335.353"/>
</g>
<!-- seattleattic -->
<g id="node56" class="node"><title>seattleattic</title>
<ellipse fill="none" stroke="black" cx="521.102" cy="-164" rx="47.8323" ry="18"/>
<text text-anchor="middle" x="521.102" y="-159.8" font-family="Times,serif" font-size="14.00">seattleattic</text>
</g>
<!-- geekfeminism&#45;&gt;seattleattic -->
<g id="edge36" class="edge"><title>geekfeminism&#45;&gt;seattleattic</title>
<path fill="none" stroke="black" d="M491.096,-531.747C436.913,-520.257 358.102,-498.626 358.102,-470 358.102,-470 358.102,-470 358.102,-236 358.102,-211.001 423.358,-189.213 471.291,-176.58"/>
<polygon fill="black" stroke="black" points="472.414,-179.906 481.227,-174.026 470.671,-173.126 472.414,-179.906"/>
</g>
<!-- oscon2009 -->
<g id="node35" class="node"><title>oscon2009</title>
<ellipse fill="none" stroke="black" cx="245.102" cy="-469" rx="48.3514" ry="18"/>
<text text-anchor="middle" x="245.102" y="-464.8" font-family="Times,serif" font-size="14.00">oscon2009</text>
</g>
<!-- dreamwidth&#45;&gt;oscon2009 -->
<g id="edge56" class="edge"><title>dreamwidth&#45;&gt;oscon2009</title>
<path fill="none" stroke="black" d="M169.629,-525.243C183.16,-515.339 200.797,-502.429 215.619,-491.58"/>
<polygon fill="black" stroke="black" points="217.966,-494.2 223.968,-485.469 213.831,-488.551 217.966,-494.2"/>
</g>
<!-- otw&#45;&gt;oscon2009 -->
<g id="edge57" class="edge"><title>otw&#45;&gt;oscon2009</title>
<path fill="none" stroke="black" d="M245.102,-523.813C245.102,-515.789 245.102,-506.047 245.102,-497.069"/>
<polygon fill="black" stroke="black" points="248.602,-497.029 245.102,-487.029 241.602,-497.029 248.602,-497.029"/>
</g>
<!-- oscon2009&#45;&gt;geekfeminism -->
<g id="edge58" class="edge"><title>oscon2009&#45;&gt;geekfeminism</title>
<path fill="none" stroke="black" d="M276.846,-482.69C296.77,-490.281 323.139,-499.654 347.102,-506 390.075,-517.381 439.384,-526.223 477.537,-532.173"/>
<polygon fill="black" stroke="black" points="477.07,-535.642 487.485,-533.699 478.131,-528.723 477.07,-535.642"/>
</g>
<!-- racefail&#45;&gt;geekfeminism -->
<g id="edge13" class="edge"><title>racefail&#45;&gt;geekfeminism</title>
<path fill="none" stroke="black" d="M688.008,-480.891C674.964,-488.487 656.789,-498.556 640.102,-506 624.384,-513.011 606.796,-519.611 590.854,-525.149"/>
<polygon fill="black" stroke="black" points="589.504,-521.912 581.172,-528.455 591.766,-528.536 589.504,-521.912"/>
</g>
<!-- couchdb -->
<g id="node37" class="node"><title>couchdb</title>
<polygon fill="none" stroke="black" points="1606.1,-487 1549.28,-469 1606.1,-451 1662.93,-469 1606.1,-487"/>
<text text-anchor="middle" x="1606.1" y="-464.8" font-family="Times,serif" font-size="14.00">couchdb</text>
</g>
<!-- couchdb&#45;&gt;railsbridge -->
<g id="edge48" class="edge"><title>couchdb&#45;&gt;railsbridge</title>
<path fill="none" stroke="black" d="M1662.98,-469C1671.29,-469 1679.6,-469 1687.91,-469"/>
<polygon fill="black" stroke="black" points="1688.04,-472.5 1698.04,-469 1688.04,-465.5 1688.04,-472.5"/>
</g>
<!-- railsgirls -->
<g id="node49" class="node"><title>railsgirls</title>
<ellipse fill="none" stroke="black" cx="1668.1" cy="-237" rx="41.1093" ry="18"/>
<text text-anchor="middle" x="1668.1" y="-232.8" font-family="Times,serif" font-size="14.00">railsgirls</text>
</g>
<!-- railsbridge&#45;&gt;railsgirls -->
<g id="edge50" class="edge"><title>railsbridge&#45;&gt;railsgirls</title>
<path fill="none" stroke="black" d="M1743.48,-450.832C1740.46,-432.535 1734.88,-402.841 1727.1,-378 1714.33,-337.2 1694.08,-291.939 1680.94,-264.224"/>
<polygon fill="black" stroke="black" points="1683.92,-262.354 1676.45,-254.848 1677.61,-265.378 1683.92,-262.354"/>
</g>
<!-- pystar -->
<g id="node67" class="node"><title>pystar</title>
<ellipse fill="none" stroke="black" cx="1686.1" cy="-396" rx="31.9393" ry="18"/>
<text text-anchor="middle" x="1686.1" y="-391.8" font-family="Times,serif" font-size="14.00">pystar</text>
</g>
<!-- railsbridge&#45;&gt;pystar -->
<g id="edge49" class="edge"><title>railsbridge&#45;&gt;pystar</title>
<path fill="none" stroke="black" d="M1732.19,-451.533C1724.43,-442.353 1714.63,-430.762 1706.07,-420.629"/>
<polygon fill="black" stroke="black" points="1708.66,-418.268 1699.53,-412.89 1703.31,-422.787 1708.66,-418.268"/>
</g>
<!-- osbp -->
<g id="node39" class="node"><title>osbp</title>
<polygon fill="none" stroke="black" points="1230.1,-487 1192.26,-469 1230.1,-451 1267.94,-469 1230.1,-487"/>
<text text-anchor="middle" x="1230.1" y="-464.8" font-family="Times,serif" font-size="14.00">osbp</text>
</g>
<!-- osbp&#45;&gt;backupproject -->
<g id="edge21" class="edge"><title>osbp&#45;&gt;backupproject</title>
<path fill="none" stroke="black" d="M1268.05,-469C1276.59,-469 1285.13,-469 1293.67,-469"/>
<polygon fill="black" stroke="black" points="1293.69,-472.5 1303.69,-469 1293.69,-465.5 1293.69,-472.5"/>
</g>
<!-- backupribbons -->
<g id="node43" class="node"><title>backupribbons</title>
<ellipse fill="none" stroke="black" cx="1362.1" cy="-396" rx="62.3494" ry="18"/>
<text text-anchor="middle" x="1362.1" y="-391.8" font-family="Times,serif" font-size="14.00">backupribbons</text>
</g>
<!-- backupproject&#45;&gt;backupribbons -->
<g id="edge23" class="edge"><title>backupproject&#45;&gt;backupribbons</title>
<path fill="none" stroke="black" d="M1363.62,-450.813C1363.39,-442.789 1363.12,-433.047 1362.86,-424.069"/>
<polygon fill="black" stroke="black" points="1366.36,-423.926 1362.58,-414.029 1359.36,-424.123 1366.36,-423.926"/>
</g>
<!-- osbridge -->
<g id="node41" class="node"><title>osbridge</title>
<ellipse fill="none" stroke="black" cx="499.102" cy="-469" rx="40.6248" ry="18"/>
<text text-anchor="middle" x="499.102" y="-464.8" font-family="Times,serif" font-size="14.00">osbridge</text>
</g>
<!-- apachecon assault -->
<g id="node42" class="node"><title>apachecon assault</title>
<polygon fill="none" stroke="black" points="994.102,-414 889.648,-396 994.102,-378 1098.56,-396 994.102,-414"/>
<text text-anchor="middle" x="994.102" y="-391.8" font-family="Times,serif" font-size="14.00">apachecon assault</text>
</g>
<!-- apachecon assault&#45;&gt;adainitiative -->
<g id="edge14" class="edge"><title>apachecon assault&#45;&gt;adainitiative</title>
<path fill="none" stroke="black" d="M978.773,-380.368C965.522,-367.72 946.126,-349.205 930.704,-334.485"/>
<polygon fill="black" stroke="black" points="932.706,-331.557 923.056,-327.184 927.873,-336.62 932.706,-331.557"/>
</g>
<!-- apachecon assault&#45;&gt;GF/TAI AHP -->
<g id="edge17" class="edge"><title>apachecon assault&#45;&gt;GF/TAI AHP</title>
<path fill="none" stroke="black" d="M1010.39,-380.751C1024.91,-368.039 1046.46,-349.19 1063.49,-334.289"/>
<polygon fill="black" stroke="black" points="1066.21,-336.555 1071.43,-327.336 1061.6,-331.287 1066.21,-336.555"/>
</g>
<!-- adainitiative&#45;&gt;GF/TAI AHP -->
<g id="edge19" class="edge"><title>adainitiative&#45;&gt;GF/TAI AHP</title>
<path fill="none" stroke="black" d="M960.008,-310C980.825,-310 1001.64,-310 1022.46,-310"/>
<polygon fill="black" stroke="black" points="1022.68,-313.5 1032.68,-310 1022.68,-306.5 1022.68,-313.5"/>
</g>
<!-- adainitiative&#45;&gt;adacamp -->
<g id="edge28" class="edge"><title>adainitiative&#45;&gt;adacamp</title>
<path fill="none" stroke="black" d="M882.91,-293.576C870.224,-285.969 853.908,-277.483 838.102,-273 721.119,-239.821 684.422,-278.418 565.102,-255 561.453,-254.284 557.704,-253.379 553.975,-252.361"/>
<polygon fill="black" stroke="black" points="554.817,-248.96 544.233,-249.456 552.816,-255.668 554.817,-248.96"/>
</g>
<!-- Skeptic AHPs -->
<g id="node50" class="node"><title>Skeptic AHPs</title>
<ellipse fill="none" stroke="black" cx="1017.1" cy="-237" rx="59.4858" ry="18"/>
<text text-anchor="middle" x="1017.1" y="-232.8" font-family="Times,serif" font-size="14.00">Skeptic AHPs</text>
</g>
<!-- GF/TAI AHP&#45;&gt;Skeptic AHPs -->
<g id="edge25" class="edge"><title>GF/TAI AHP&#45;&gt;Skeptic AHPs</title>
<path fill="none" stroke="black" d="M1073.17,-292.533C1063.68,-283.303 1051.68,-271.636 1041.23,-261.464"/>
<polygon fill="black" stroke="black" points="1043.55,-258.841 1033.94,-254.378 1038.67,-263.859 1043.55,-258.841"/>
</g>
<!-- PyCon AHP -->
<g id="node51" class="node"><title>PyCon AHP</title>
<ellipse fill="none" stroke="black" cx="886.102" cy="-237" rx="53.7149" ry="18"/>
<text text-anchor="middle" x="886.102" y="-232.8" font-family="Times,serif" font-size="14.00">PyCon AHP</text>
</g>
<!-- GF/TAI AHP&#45;&gt;PyCon AHP -->
<g id="edge24" class="edge"><title>GF/TAI AHP&#45;&gt;PyCon AHP</title>
<path fill="none" stroke="black" d="M1053.16,-296.142C1019.01,-284.257 968.162,-266.56 931.54,-253.814"/>
<polygon fill="black" stroke="black" points="932.68,-250.505 922.085,-250.524 930.379,-257.116 932.68,-250.505"/>
</g>
<!-- Scalzi&#39;s AHP pledge -->
<g id="node60" class="node"><title>Scalzi&#39;s AHP pledge</title>
<ellipse fill="none" stroke="black" cx="1214.1" cy="-164" rx="81.7552" ry="18"/>
<text text-anchor="middle" x="1214.1" y="-159.8" font-family="Times,serif" font-size="14.00">Scalzi&#39;s AHP pledge</text>
</g>
<!-- GF/TAI AHP&#45;&gt;Scalzi&#39;s AHP pledge -->
<g id="edge27" class="edge"><title>GF/TAI AHP&#45;&gt;Scalzi&#39;s AHP pledge</title>
<path fill="none" stroke="black" d="M1104.33,-292.481C1126.07,-267.226 1167.72,-218.863 1193,-189.51"/>
<polygon fill="black" stroke="black" points="1195.79,-191.631 1199.66,-181.77 1190.48,-187.063 1195.79,-191.631"/>
<text text-anchor="middle" x="1170.21" y="-232.8" font-family="Times,serif" font-size="14.00">?</text>
</g>
<!-- #CoCPledge -->
<g id="node65" class="node"><title>#CoCPledge</title>
<ellipse fill="none" stroke="black" cx="1104.1" cy="-91" rx="54.6334" ry="18"/>
<text text-anchor="middle" x="1104.1" y="-86.8" font-family="Times,serif" font-size="14.00">#CoCPledge</text>
</g>
<!-- GF/TAI AHP&#45;&gt;#CoCPledge -->
<g id="edge26" class="edge"><title>GF/TAI AHP&#45;&gt;#CoCPledge</title>
<path fill="none" stroke="black" d="M1091.2,-291.972C1093.62,-254.511 1099.41,-164.676 1102.34,-119.264"/>
<polygon fill="black" stroke="black" points="1105.84,-119.453 1102.99,-109.249 1098.85,-119.003 1105.84,-119.453"/>
</g>
<!-- blackgirlscode -->
<g id="node47" class="node"><title>blackgirlscode</title>
<ellipse fill="none" stroke="black" cx="1836.1" cy="-310" rx="61.8476" ry="18"/>
<text text-anchor="middle" x="1836.1" y="-305.8" font-family="Times,serif" font-size="14.00">blackgirlscode</text>
</g>
<!-- adacamp&#45;&gt;osbridge -->
<g id="edge30" class="edge"><title>adacamp&#45;&gt;osbridge</title>
<path fill="none" stroke="black" d="M511.293,-255.148C507.956,-276.399 502.566,-313.755 500.355,-346 498.135,-378.398 498.124,-415.747 498.473,-440.497"/>
<polygon fill="black" stroke="black" points="494.975,-440.662 498.646,-450.6 501.974,-440.542 494.975,-440.662"/>
<text text-anchor="middle" x="537.975" y="-348.8" font-family="Times,serif" font-size="14.00">a11y policies</text>
</g>
<!-- doubleunion -->
<g id="node57" class="node"><title>doubleunion</title>
<ellipse fill="none" stroke="black" cx="659.102" cy="-164" rx="54.1403" ry="18"/>
<text text-anchor="middle" x="659.102" y="-159.8" font-family="Times,serif" font-size="14.00">doubleunion</text>
</g>
<!-- adacamp&#45;&gt;doubleunion -->
<g id="edge35" class="edge"><title>adacamp&#45;&gt;doubleunion</title>
<path fill="none" stroke="black" d="M540.697,-222.978C563.098,-212.009 595.433,-196.176 620.654,-183.826"/>
<polygon fill="black" stroke="black" points="622.494,-186.822 629.936,-179.281 619.415,-180.535 622.494,-186.822"/>
</g>
<!-- railsgirls&#45;&gt;rgsoc -->
<g id="edge51" class="edge"><title>railsgirls&#45;&gt;rgsoc</title>
<path fill="none" stroke="black" d="M1646.8,-221.461C1630.81,-210.544 1608.79,-195.506 1591.49,-183.695"/>
<polygon fill="black" stroke="black" points="1593.16,-180.599 1582.93,-177.851 1589.21,-186.38 1593.16,-180.599"/>
</g>
<!-- Feminist Frequency vids -->
<g id="node52" class="node"><title>Feminist Frequency vids</title>
<ellipse fill="none" stroke="black" cx="1825.1" cy="-237" rx="97.6053" ry="18"/>
<text text-anchor="middle" x="1825.1" y="-232.8" font-family="Times,serif" font-size="14.00">Feminist Frequency vids</text>
</g>
<!-- transcodesf -->
<g id="node53" class="node"><title>transcodesf</title>
<ellipse fill="none" stroke="black" cx="1991.1" cy="-237" rx="50.2551" ry="18"/>
<text text-anchor="middle" x="1991.1" y="-232.8" font-family="Times,serif" font-size="14.00">transcodesf</text>
</g>
<!-- libtechwomen -->
<g id="node54" class="node"><title>libtechwomen</title>
<ellipse fill="none" stroke="black" cx="2120.1" cy="-237" rx="60.4115" ry="18"/>
<text text-anchor="middle" x="2120.1" y="-232.8" font-family="Times,serif" font-size="14.00">libtechwomen</text>
</g>
<!-- anarchafeminist hacker hive&#45;&gt;doubleunion -->
<g id="edge34" class="edge"><title>anarchafeminist hacker hive&#45;&gt;doubleunion</title>
<path fill="none" stroke="black" d="M1285.24,-225.78C1265.19,-223.474 1243.9,-221.091 1224.1,-219 1041.31,-199.697 824.917,-179.853 720.945,-170.506"/>
<polygon fill="black" stroke="black" points="721.211,-167.016 710.938,-169.608 720.585,-173.988 721.211,-167.016"/>
</g>
<!-- seattleattic&#45;&gt;doubleunion -->
<g id="edge38" class="edge"><title>seattleattic&#45;&gt;doubleunion</title>
<path fill="none" stroke="black" d="M569.078,-164C577.495,-164 585.912,-164 594.329,-164"/>
<polygon fill="black" stroke="black" points="594.595,-167.5 604.595,-164 594.595,-160.5 594.595,-167.5"/>
</g>
<!-- callbackwomen -->
<g id="node59" class="node"><title>callbackwomen</title>
<ellipse fill="none" stroke="black" cx="1677.1" cy="-164" rx="65.6976" ry="18"/>
<text text-anchor="middle" x="1677.1" y="-159.8" font-family="Times,serif" font-size="14.00">callbackwomen</text>
</g>
<!-- transh4ck -->
<g id="node61" class="node"><title>transh4ck</title>
<ellipse fill="none" stroke="black" cx="1805.1" cy="-164" rx="44.475" ry="18"/>
<text text-anchor="middle" x="1805.1" y="-159.8" font-family="Times,serif" font-size="14.00">transh4ck</text>
</g>
<!-- transtech -->
<g id="node62" class="node"><title>transtech</title>
<ellipse fill="none" stroke="black" cx="1927.1" cy="-164" rx="42.0524" ry="18"/>
<text text-anchor="middle" x="1927.1" y="-159.8" font-family="Times,serif" font-size="14.00">transtech</text>
</g>
<!-- transh4ck&#45;&gt;transtech -->
<g id="edge59" class="edge"><title>transh4ck&#45;&gt;transtech</title>
<path fill="none" stroke="black" d="M1849.9,-164C1858.19,-164 1866.48,-164 1874.77,-164"/>
<polygon fill="black" stroke="black" points="1874.88,-167.5 1884.88,-164 1874.88,-160.5 1874.88,-167.5"/>
</g>
<!-- females in hackerspaces email -->
<g id="node63" class="node"><title>females in hackerspaces email</title>
<polygon fill="none" stroke="black" points="272.102,-182 106.036,-164 272.102,-146 438.167,-164 272.102,-182"/>
<text text-anchor="middle" x="272.102" y="-159.8" font-family="Times,serif" font-size="14.00">females in hackerspaces email</text>
</g>
<!-- females in hackerspaces email&#45;&gt;seattleattic -->
<g id="edge31" class="edge"><title>females in hackerspaces email&#45;&gt;seattleattic</title>
<path fill="none" stroke="black" d="M438.426,-164C446.525,-164 454.624,-164 462.723,-164"/>
<polygon fill="black" stroke="black" points="462.982,-167.5 472.982,-164 462.982,-160.5 462.982,-167.5"/>
</g>
<!-- females in hackerspaces email&#45;&gt;doubleunion -->
<g id="edge32" class="edge"><title>females in hackerspaces email&#45;&gt;doubleunion</title>
<path fill="none" stroke="black" d="M314.202,-177.453C372.028,-194.053 479.105,-218.055 569.102,-200.5 586.507,-197.105 604.801,-190.339 620.316,-183.545"/>
<polygon fill="black" stroke="black" points="621.923,-186.659 629.585,-179.341 619.032,-180.284 621.923,-186.659"/>
</g>
<!-- mvc -->
<g id="node64" class="node"><title>mvc</title>
<ellipse fill="none" stroke="black" cx="1204.1" cy="-91" rx="27" ry="18"/>
<text text-anchor="middle" x="1204.1" y="-86.8" font-family="Times,serif" font-size="14.00">mvc</text>
</g>
<!-- mothershiphackermoms -->
<g id="node66" class="node"><title>mothershiphackermoms</title>
<ellipse fill="none" stroke="black" cx="669.102" cy="-237" rx="95.1654" ry="18"/>
<text text-anchor="middle" x="669.102" y="-232.8" font-family="Times,serif" font-size="14.00">mothershiphackermoms</text>
</g>
<!-- mothershiphackermoms&#45;&gt;doubleunion -->
<g id="edge37" class="edge"><title>mothershiphackermoms&#45;&gt;doubleunion</title>
<path fill="none" stroke="black" d="M666.681,-218.813C665.551,-210.789 664.179,-201.047 662.914,-192.069"/>
<polygon fill="black" stroke="black" points="666.361,-191.443 661.5,-182.029 659.429,-192.419 666.361,-191.443"/>
</g>
</g>
</svg>
