<!--?xml version="1.0" encoding="UTF-8" standalone="no"?-->

<!-- Generated by graphviz version 2.28.0 (20110507.0327)
 -->
<!-- Title: G Pages: 1 -->
<svg width="764pt" height="504pt" viewBox="0.00 0.00 764.00 504.00" xmlns="http://www.w3.org/2000/svg" xmlns:xlink="http://www.w3.org/1999/xlink">
<g id="graph1" class="graph" transform="scale(1 1) rotate(0) translate(4 500)">
<title>G</title>
<polygon fill="white" stroke="white" points="-4,5 -4,-500 761,-500 761,5 -4,5"></polygon>
<!-- linuxchix -->
<g id="node1" class="node"><title>linuxchix</title>
<ellipse fill="none" stroke="black" cx="471" cy="-330" rx="47.2748" ry="18"></ellipse>
<text text-anchor="middle" x="471" y="-325.8" font-family="Times,serif" font-size="14.00">linuxchix</text>
</g>
<!-- geekfeminism -->
<g id="node3" class="node"><title>geekfeminism</title>
<ellipse fill="none" stroke="black" cx="322" cy="-256" rx="65.6156" ry="18"></ellipse>
<text text-anchor="middle" x="322" y="-251.8" font-family="Times,serif" font-size="14.00">geekfeminism</text>
</g>
<!-- linuxchix&#45;&gt;geekfeminism -->
<g id="edge2" class="edge"><title>linuxchix-&gt;geekfeminism</title>
<path fill="none" stroke="black" d="M442.974,-315.457C420.15,-304.428 387.636,-288.717 362.063,-276.359"></path>
<polygon fill="black" stroke="black" points="363.513,-273.173 352.986,-271.973 360.467,-279.475 363.513,-273.173"></polygon>
</g>
<!-- debianwomen -->
<g id="node21" class="node"><title>debianwomen</title>
<ellipse fill="none" stroke="black" cx="471" cy="-256" rx="65.3096" ry="18"></ellipse>
<text text-anchor="middle" x="471" y="-251.8" font-family="Times,serif" font-size="14.00">debianwomen</text>
</g>
<!-- linuxchix&#45;&gt;debianwomen -->
<g id="edge20" class="edge"><title>linuxchix-&gt;debianwomen</title>
<path fill="none" stroke="black" d="M471,-311.937C471,-303.807 471,-293.876 471,-284.705"></path>
<polygon fill="black" stroke="black" points="474.5,-284.441 471,-274.441 467.5,-284.441 474.5,-284.441"></polygon>
</g>
<!-- haecksen -->
<g id="node25" class="node"><title>haecksen</title>
<ellipse fill="none" stroke="black" cx="601" cy="-256" rx="46.137" ry="18"></ellipse>
<text text-anchor="middle" x="601" y="-251.8" font-family="Times,serif" font-size="14.00">haecksen</text>
</g>
<!-- linuxchix&#45;&gt;haecksen -->
<g id="edge24" class="edge"><title>linuxchix-&gt;haecksen</title>
<path fill="none" stroke="black" d="M496.684,-314.775C516.626,-303.73 544.476,-288.305 566.384,-276.172"></path>
<polygon fill="black" stroke="black" points="568.317,-279.102 575.37,-271.195 564.926,-272.979 568.317,-279.102"></polygon>
</g>
<!-- adainitiative -->
<g id="node8" class="node"><title>adainitiative</title>
<ellipse fill="none" stroke="black" cx="165" cy="-182" rx="58.1586" ry="18"></ellipse>
<text text-anchor="middle" x="165" y="-177.8" font-family="Times,serif" font-size="14.00">adainitiative</text>
</g>
<!-- geekfeminism&#45;&gt;adainitiative -->
<g id="edge8" class="edge"><title>geekfeminism-&gt;adainitiative</title>
<path fill="none" stroke="black" d="M289.85,-240.256C265.48,-229.08 231.826,-213.647 205.599,-201.619"></path>
<polygon fill="black" stroke="black" points="206.852,-198.343 196.304,-197.356 203.934,-204.706 206.852,-198.343"></polygon>
</g>
<!-- racefail -->
<g id="node4" class="node"><title>racefail</title>
<polygon fill="none" stroke="black" points="171,-348 114.689,-330 171,-312 227.311,-330 171,-348"></polygon>
<text text-anchor="middle" x="171" y="-325.8" font-family="Times,serif" font-size="14.00">racefail</text>
</g>
<!-- racefail&#45;&gt;geekfeminism -->
<g id="edge4" class="edge"><title>racefail-&gt;geekfeminism</title>
<path fill="none" stroke="black" d="M192.635,-318.684C215.713,-307.68 252.804,-289.994 281.365,-276.376"></path>
<polygon fill="black" stroke="black" points="283.171,-279.392 290.691,-271.929 280.158,-273.073 283.171,-279.392"></polygon>
</g>
<!-- apachecon -->
<g id="node6" class="node"><title>apachecon</title>
<polygon fill="none" stroke="black" points="165,-274 91.6492,-256 165,-238 238.351,-256 165,-274"></polygon>
<text text-anchor="middle" x="165" y="-251.8" font-family="Times,serif" font-size="14.00">apachecon</text>
</g>
<!-- apachecon&#45;&gt;adainitiative -->
<g id="edge6" class="edge"><title>apachecon-&gt;adainitiative</title>
<path fill="none" stroke="black" d="M165,-237.937C165,-229.807 165,-219.876 165,-210.705"></path>
<polygon fill="black" stroke="black" points="168.5,-210.441 165,-200.441 161.5,-210.441 168.5,-210.441"></polygon>
</g>
<!-- adacamp -->
<g id="node11" class="node"><title>adacamp</title>
<ellipse fill="none" stroke="black" cx="47" cy="-108" rx="45.0297" ry="18"></ellipse>
<text text-anchor="middle" x="47" y="-103.8" font-family="Times,serif" font-size="14.00">adacamp</text>
</g>
<!-- adainitiative&#45;&gt;adacamp -->
<g id="edge10" class="edge"><title>adainitiative-&gt;adacamp</title>
<path fill="none" stroke="black" d="M139.975,-165.731C122.338,-154.969 98.555,-140.457 79.4587,-128.805"></path>
<polygon fill="black" stroke="black" points="81.1409,-125.732 70.7814,-123.511 77.4948,-131.707 81.1409,-125.732"></polygon>
</g>
<!-- osbridge -->
<g id="node15" class="node"><title>osbridge</title>
<ellipse fill="none" stroke="black" cx="47" cy="-18" rx="43.9384" ry="18"></ellipse>
<text text-anchor="middle" x="47" y="-13.8" font-family="Times,serif" font-size="14.00">osbridge</text>
</g>
<!-- adacamp&#45;&gt;osbridge -->
<g id="edge14" class="edge"><title>adacamp-&gt;osbridge</title>
<path fill="none" stroke="black" d="M47,-89.614C47,-77.2403 47,-60.3686 47,-46.2198"></path>
<polygon fill="black" stroke="black" points="50.5001,-46.0504 47,-36.0504 43.5001,-46.0504 50.5001,-46.0504"></polygon>
<text text-anchor="middle" x="84.1301" y="-58.8" font-family="Times,serif" font-size="14.00">a11y policies</text>
</g>
<!-- doubleunion -->
<g id="node17" class="node"><title>doubleunion</title>
<ellipse fill="none" stroke="black" cx="187" cy="-18" rx="58.9785" ry="18"></ellipse>
<text text-anchor="middle" x="187" y="-13.8" font-family="Times,serif" font-size="14.00">doubleunion</text>
</g>
<!-- adacamp&#45;&gt;doubleunion -->
<g id="edge16" class="edge"><title>adacamp-&gt;doubleunion</title>
<path fill="none" stroke="black" d="M78.7973,-95.1543C93.3749,-89.1227 110.58,-81.1323 125,-72 138.381,-63.5257 151.905,-52.3389 162.893,-42.4277"></path>
<polygon fill="black" stroke="black" points="165.432,-44.8473 170.407,-35.4932 160.684,-39.7032 165.432,-44.8473"></polygon>
</g>
<!-- wiscon -->
<g id="node12" class="node"><title>wiscon</title>
<ellipse fill="none" stroke="black" cx="97" cy="-404" rx="38.087" ry="18"></ellipse>
<text text-anchor="middle" x="97" y="-399.8" font-family="Times,serif" font-size="14.00">wiscon</text>
</g>
<!-- wiscon&#45;&gt;racefail -->
<g id="edge34" class="edge"><title>wiscon-&gt;racefail</title>
<path fill="none" stroke="black" d="M113.057,-387.377C123.936,-376.792 138.418,-362.702 150.181,-351.256"></path>
<polygon fill="black" stroke="black" points="152.728,-353.662 157.454,-344.18 147.846,-348.645 152.728,-353.662"></polygon>
</g>
<!-- wiscon&#45;&gt;adacamp -->
<g id="edge12" class="edge"><title>wiscon-&gt;adacamp</title>
<path fill="none" stroke="black" d="M65.2386,-393.993C36.9493,-383.796 0,-364.137 0,-331 0,-331 0,-331 0,-181 0,-162.581 10.919,-145.191 22.2312,-132.117"></path>
<polygon fill="black" stroke="black" points="25.001,-134.277 29.2313,-124.563 19.8668,-129.519 25.001,-134.277"></polygon>
<text text-anchor="middle" x="37.1301" y="-251.8" font-family="Times,serif" font-size="14.00">a11y policies</text>
</g>
<!-- mothershiphackermoms -->
<g id="node18" class="node"><title>mothershiphackermoms</title>
<ellipse fill="none" stroke="black" cx="214" cy="-108" rx="103.242" ry="18"></ellipse>
<text text-anchor="middle" x="214" y="-103.8" font-family="Times,serif" font-size="14.00">mothershiphackermoms</text>
</g>
<!-- mothershiphackermoms&#45;&gt;doubleunion -->
<g id="edge18" class="edge"><title>mothershiphackermoms-&gt;doubleunion</title>
<path fill="none" stroke="black" d="M208.666,-89.614C204.832,-77.119 199.591,-60.0374 195.224,-45.8044"></path>
<polygon fill="black" stroke="black" points="198.511,-44.5839 192.231,-36.0504 191.819,-46.6372 198.511,-44.5839"></polygon>
</g>
<!-- ubuntuwomen -->
<g id="node23" class="node"><title>ubuntuwomen</title>
<ellipse fill="none" stroke="black" cx="471" cy="-182" rx="65.9356" ry="18"></ellipse>
<text text-anchor="middle" x="471" y="-177.8" font-family="Times,serif" font-size="14.00">ubuntuwomen</text>
</g>
<!-- debianwomen&#45;&gt;ubuntuwomen -->
<g id="edge22" class="edge"><title>debianwomen-&gt;ubuntuwomen</title>
<path fill="none" stroke="black" d="M471,-237.937C471,-229.807 471,-219.876 471,-210.705"></path>
<polygon fill="black" stroke="black" points="474.5,-210.441 471,-200.441 467.5,-210.441 474.5,-210.441"></polygon>
</g>
<!-- couchdb -->
<g id="node26" class="node"><title>couchdb</title>
<polygon fill="none" stroke="black" points="619,-496 557.686,-478 619,-460 680.314,-478 619,-496"></polygon>
<text text-anchor="middle" x="619" y="-473.8" font-family="Times,serif" font-size="14.00">couchdb</text>
</g>
<!-- railsbridge -->
<g id="node28" class="node"><title>railsbridge</title>
<ellipse fill="none" stroke="black" cx="619" cy="-404" rx="51.9984" ry="18"></ellipse>
<text text-anchor="middle" x="619" y="-399.8" font-family="Times,serif" font-size="14.00">railsbridge</text>
</g>
<!-- couchdb&#45;&gt;railsbridge -->
<g id="edge26" class="edge"><title>couchdb-&gt;railsbridge</title>
<path fill="none" stroke="black" d="M619,-459.937C619,-451.807 619,-441.876 619,-432.705"></path>
<polygon fill="black" stroke="black" points="622.5,-432.441 619,-422.441 615.5,-432.441 622.5,-432.441"></polygon>
</g>
<!-- pystar -->
<g id="node30" class="node"><title>pystar</title>
<ellipse fill="none" stroke="black" cx="571" cy="-330" rx="34.4506" ry="18"></ellipse>
<text text-anchor="middle" x="571" y="-325.8" font-family="Times,serif" font-size="14.00">pystar</text>
</g>
<!-- railsbridge&#45;&gt;pystar -->
<g id="edge28" class="edge"><title>railsbridge-&gt;pystar</title>
<path fill="none" stroke="black" d="M607.867,-386.301C601.784,-377.176 594.135,-365.702 587.383,-355.574"></path>
<polygon fill="black" stroke="black" points="590.201,-353.492 581.742,-347.113 584.377,-357.375 590.201,-353.492"></polygon>
</g>
<!-- railsgirls -->
<g id="node32" class="node"><title>railsgirls</title>
<ellipse fill="none" stroke="black" cx="668" cy="-330" rx="44.2429" ry="18"></ellipse>
<text text-anchor="middle" x="668" y="-325.8" font-family="Times,serif" font-size="14.00">railsgirls</text>
</g>
<!-- railsbridge&#45;&gt;railsgirls -->
<g id="edge30" class="edge"><title>railsbridge-&gt;railsgirls</title>
<path fill="none" stroke="black" d="M630.365,-386.301C636.487,-377.304 644.164,-366.025 650.984,-356.003"></path>
<polygon fill="black" stroke="black" points="653.964,-357.845 656.697,-347.609 648.177,-353.907 653.964,-357.845"></polygon>
</g>
<!-- gsoc -->
<g id="node33" class="node"><title>gsoc</title>
<ellipse fill="none" stroke="black" cx="728" cy="-478" rx="28.6025" ry="18"></ellipse>
<text text-anchor="middle" x="728" y="-473.8" font-family="Times,serif" font-size="14.00">gsoc</text>
</g>
<!-- opw -->
<g id="node35" class="node"><title>opw</title>
<ellipse fill="none" stroke="black" cx="728" cy="-404" rx="27.4962" ry="18"></ellipse>
<text text-anchor="middle" x="728" y="-399.8" font-family="Times,serif" font-size="14.00">opw</text>
</g>
<!-- gsoc&#45;&gt;opw -->
<g id="edge32" class="edge"><title>gsoc-&gt;opw</title>
<path fill="none" stroke="black" d="M728,-459.937C728,-451.807 728,-441.876 728,-432.705"></path>
<polygon fill="black" stroke="black" points="731.5,-432.441 728,-422.441 724.5,-432.441 731.5,-432.441"></polygon>
</g>
<!-- livejournal -->
<g id="node37" class="node"><title>livejournal</title>
<ellipse fill="none" stroke="black" cx="298" cy="-478" rx="52.3113" ry="18"></ellipse>
<text text-anchor="middle" x="298" y="-473.8" font-family="Times,serif" font-size="14.00">livejournal</text>
</g>
<!-- dreamwidth -->
<g id="node39" class="node"><title>dreamwidth</title>
<ellipse fill="none" stroke="black" cx="246" cy="-404" rx="57.2417" ry="18"></ellipse>
<text text-anchor="middle" x="246" y="-399.8" font-family="Times,serif" font-size="14.00">dreamwidth</text>
</g>
<!-- livejournal&#45;&gt;dreamwidth -->
<g id="edge36" class="edge"><title>livejournal-&gt;dreamwidth</title>
<path fill="none" stroke="black" d="M285.939,-460.301C279.442,-451.304 271.296,-440.025 264.058,-430.003"></path>
<polygon fill="black" stroke="black" points="266.687,-427.666 257.995,-421.609 261.013,-431.765 266.687,-427.666"></polygon>
</g>
<!-- otw -->
<g id="node41" class="node"><title>otw</title>
<ellipse fill="none" stroke="black" cx="348" cy="-404" rx="27" ry="18"></ellipse>
<text text-anchor="middle" x="348" y="-399.8" font-family="Times,serif" font-size="14.00">otw</text>
</g>
<!-- livejournal&#45;&gt;otw -->
<g id="edge38" class="edge"><title>livejournal-&gt;otw</title>
<path fill="none" stroke="black" d="M309.597,-460.301C316.088,-450.954 324.29,-439.142 331.446,-428.837"></path>
<polygon fill="black" stroke="black" points="334.322,-430.833 337.151,-420.623 328.572,-426.84 334.322,-430.833"></polygon>
</g>
<!-- oscon2009 -->
<g id="node43" class="node"><title>oscon2009</title>
<ellipse fill="none" stroke="black" cx="322" cy="-330" rx="52.3185" ry="18"></ellipse>
<text text-anchor="middle" x="322" y="-325.8" font-family="Times,serif" font-size="14.00">oscon2009</text>
</g>
<!-- dreamwidth&#45;&gt;oscon2009 -->
<g id="edge40" class="edge"><title>dreamwidth-&gt;oscon2009</title>
<path fill="none" stroke="black" d="M263.246,-386.662C273.351,-377.088 286.282,-364.838 297.439,-354.269"></path>
<polygon fill="black" stroke="black" points="299.97,-356.692 304.823,-347.273 295.156,-351.61 299.97,-356.692"></polygon>
</g>
<!-- otw&#45;&gt;oscon2009 -->
<g id="edge42" class="edge"><title>otw-&gt;oscon2009</title>
<path fill="none" stroke="black" d="M341.97,-386.301C338.897,-377.791 335.086,-367.239 331.62,-357.64"></path>
<polygon fill="black" stroke="black" points="334.867,-356.325 328.178,-348.109 328.283,-358.703 334.867,-356.325"></polygon>
</g>
<!-- oscon2009&#45;&gt;geekfeminism -->
<g id="edge44" class="edge"><title>oscon2009-&gt;geekfeminism</title>
<path fill="none" stroke="black" d="M322,-311.937C322,-303.807 322,-293.876 322,-284.705"></path>
<polygon fill="black" stroke="black" points="325.5,-284.441 322,-274.441 318.5,-284.441 325.5,-284.441"></polygon>
</g>
</g>
</svg>

