<?xml version="1.0" encoding="UTF-8" standalone="no"?>
<!DOCTYPE svg PUBLIC "-//W3C//DTD SVG 1.1//EN"
 "http://www.w3.org/Graphics/SVG/1.1/DTD/svg11.dtd">
<!-- Generated by graphviz version 2.26.3 (20100126.1600)
 -->
<!-- Title: GeekFeminismFamilyTree Pages: 1 -->
<svg width="2838pt" height="924pt"
 viewBox="0.00 0.00 2838.00 924.00" xmlns="http://www.w3.org/2000/svg" xmlns:xlink="http://www.w3.org/1999/xlink">
<g id="graph1" class="graph" transform="scale(1 1) rotate(0) translate(4 920)">
<title>GeekFeminismFamilyTree</title>
<polygon fill="white" stroke="white" points="-4,5 -4,-920 2835,-920 2835,5 -4,5"/>
<!-- past -->
<g id="node2" class="node"><title>past</title>
<text text-anchor="middle" x="62" y="-892.6" font-family="Times Roman,serif" font-size="16.00">past</text>
</g>
<!-- 2000&#45;2003 -->
<g id="node4" class="node"><title>2000&#45;2003</title>
<text text-anchor="middle" x="62" y="-816.6" font-family="Times Roman,serif" font-size="16.00">2000&#45;2003</text>
</g>
<!-- past&#45;&gt;2000&#45;2003 -->
<g id="edge3" class="edge"><title>past&#45;&gt;2000&#45;2003</title>
<path fill="none" stroke="black" d="M62,-878.989C62,-870.157 62,-859.31 62,-849.396"/>
<polygon fill="black" stroke="black" points="65.5001,-849.145 62,-839.145 58.5001,-849.145 65.5001,-849.145"/>
</g>
<!-- 2004&#45;2006 -->
<g id="node5" class="node"><title>2004&#45;2006</title>
<text text-anchor="middle" x="62" y="-740.6" font-family="Times Roman,serif" font-size="16.00">2004&#45;2006</text>
</g>
<!-- 2000&#45;2003&#45;&gt;2004&#45;2006 -->
<g id="edge4" class="edge"><title>2000&#45;2003&#45;&gt;2004&#45;2006</title>
<path fill="none" stroke="black" d="M62,-802.989C62,-794.157 62,-783.31 62,-773.396"/>
<polygon fill="black" stroke="black" points="65.5001,-773.145 62,-763.145 58.5001,-773.145 65.5001,-773.145"/>
</g>
<!-- 2007 -->
<g id="node6" class="node"><title>2007</title>
<text text-anchor="middle" x="62" y="-664.6" font-family="Times Roman,serif" font-size="16.00">2007</text>
</g>
<!-- 2004&#45;2006&#45;&gt;2007 -->
<g id="edge5" class="edge"><title>2004&#45;2006&#45;&gt;2007</title>
<path fill="none" stroke="black" d="M62,-726.989C62,-718.157 62,-707.31 62,-697.396"/>
<polygon fill="black" stroke="black" points="65.5001,-697.145 62,-687.145 58.5001,-697.145 65.5001,-697.145"/>
</g>
<!-- 2008 -->
<g id="node7" class="node"><title>2008</title>
<text text-anchor="middle" x="62" y="-588.6" font-family="Times Roman,serif" font-size="16.00">2008</text>
</g>
<!-- 2007&#45;&gt;2008 -->
<g id="edge6" class="edge"><title>2007&#45;&gt;2008</title>
<path fill="none" stroke="black" d="M62,-650.989C62,-642.157 62,-631.31 62,-621.396"/>
<polygon fill="black" stroke="black" points="65.5001,-621.145 62,-611.145 58.5001,-621.145 65.5001,-621.145"/>
</g>
<!-- 2009 -->
<g id="node8" class="node"><title>2009</title>
<text text-anchor="middle" x="62" y="-505.6" font-family="Times Roman,serif" font-size="16.00">2009</text>
</g>
<!-- 2008&#45;&gt;2009 -->
<g id="edge7" class="edge"><title>2008&#45;&gt;2009</title>
<path fill="none" stroke="black" d="M62,-574.99C62,-564.296 62,-550.499 62,-538.371"/>
<polygon fill="black" stroke="black" points="65.5001,-538.261 62,-528.261 58.5001,-538.261 65.5001,-538.261"/>
</g>
<!-- 2010 -->
<g id="node9" class="node"><title>2010</title>
<text text-anchor="middle" x="62" y="-415.6" font-family="Times Roman,serif" font-size="16.00">2010</text>
</g>
<!-- 2009&#45;&gt;2010 -->
<g id="edge8" class="edge"><title>2009&#45;&gt;2010</title>
<path fill="none" stroke="black" d="M62,-491.787C62,-479.344 62,-462.605 62,-448.421"/>
<polygon fill="black" stroke="black" points="65.5001,-448.186 62,-438.186 58.5001,-448.186 65.5001,-448.186"/>
</g>
<!-- 2011 -->
<g id="node10" class="node"><title>2011</title>
<text text-anchor="middle" x="62" y="-316.6" font-family="Times Roman,serif" font-size="16.00">2011</text>
</g>
<!-- 2010&#45;&gt;2011 -->
<g id="edge9" class="edge"><title>2010&#45;&gt;2011</title>
<path fill="none" stroke="black" d="M62,-401.842C62,-387.189 62,-366.311 62,-349.443"/>
<polygon fill="black" stroke="black" points="65.5001,-349.043 62,-339.043 58.5001,-349.043 65.5001,-349.043"/>
</g>
<!-- 2012 -->
<g id="node11" class="node"><title>2012</title>
<text text-anchor="middle" x="62" y="-240.6" font-family="Times Roman,serif" font-size="16.00">2012</text>
</g>
<!-- 2011&#45;&gt;2012 -->
<g id="edge10" class="edge"><title>2011&#45;&gt;2012</title>
<path fill="none" stroke="black" d="M62,-302.989C62,-294.157 62,-283.31 62,-273.396"/>
<polygon fill="black" stroke="black" points="65.5001,-273.145 62,-263.145 58.5001,-273.145 65.5001,-273.145"/>
</g>
<!-- 2013 -->
<g id="node12" class="node"><title>2013</title>
<text text-anchor="middle" x="62" y="-164.6" font-family="Times Roman,serif" font-size="16.00">2013</text>
</g>
<!-- 2012&#45;&gt;2013 -->
<g id="edge11" class="edge"><title>2012&#45;&gt;2013</title>
<path fill="none" stroke="black" d="M62,-226.989C62,-218.157 62,-207.31 62,-197.396"/>
<polygon fill="black" stroke="black" points="65.5001,-197.145 62,-187.145 58.5001,-197.145 65.5001,-197.145"/>
</g>
<!-- 2014 -->
<g id="node13" class="node"><title>2014</title>
<text text-anchor="middle" x="62" y="-88.6" font-family="Times Roman,serif" font-size="16.00">2014</text>
</g>
<!-- 2013&#45;&gt;2014 -->
<g id="edge12" class="edge"><title>2013&#45;&gt;2014</title>
<path fill="none" stroke="black" d="M62,-150.989C62,-142.157 62,-131.31 62,-121.396"/>
<polygon fill="black" stroke="black" points="65.5001,-121.145 62,-111.145 58.5001,-121.145 65.5001,-121.145"/>
</g>
<!-- unknowndate -->
<g id="node14" class="node"><title>unknowndate</title>
<text text-anchor="middle" x="62" y="-13.6" font-family="Times Roman,serif" font-size="16.00">unknowndate</text>
</g>
<!-- 2014&#45;&gt;unknowndate -->
<g id="edge13" class="edge"><title>2014&#45;&gt;unknowndate</title>
<path fill="none" stroke="black" d="M62,-74.8446C62,-66.3401 62,-56.0076 62,-46.4964"/>
<polygon fill="black" stroke="black" points="65.5001,-46.2481 62,-36.2482 58.5001,-46.2482 65.5001,-46.2481"/>
</g>
<!-- livejournal -->
<g id="node16" class="node"><title>livejournal</title>
<polygon fill="none" stroke="black" points="281,-915 193,-915 193,-879 281,-879 281,-915"/>
<text text-anchor="middle" x="237" y="-893.4" font-family="Times Roman,serif" font-size="14.00">livejournal</text>
</g>
<!-- dreamwidth -->
<g id="node38" class="node"><title>dreamwidth</title>
<ellipse fill="none" stroke="black" cx="187" cy="-593" rx="70.0036" ry="18.3848"/>
<text text-anchor="middle" x="187" y="-589.4" font-family="Times Roman,serif" font-size="14.00">dreamwidth</text>
</g>
<!-- livejournal&#45;&gt;dreamwidth -->
<g id="edge102" class="edge"><title>livejournal&#45;&gt;dreamwidth</title>
<path fill="none" stroke="black" d="M225.315,-878.74C216.892,-863.816 207,-841.852 207,-821 207,-821 207,-821 207,-669 207,-652.861 202.73,-635.41 198.136,-621.306"/>
<polygon fill="black" stroke="black" points="201.383,-619.987 194.79,-611.693 194.772,-622.288 201.383,-619.987"/>
</g>
<!-- otw -->
<g id="node39" class="node"><title>otw</title>
<ellipse fill="none" stroke="black" cx="306" cy="-593" rx="31.1127" ry="18.3848"/>
<text text-anchor="middle" x="306" y="-589.4" font-family="Times Roman,serif" font-size="14.00">otw</text>
</g>
<!-- livejournal&#45;&gt;otw -->
<g id="edge104" class="edge"><title>livejournal&#45;&gt;otw</title>
<path fill="none" stroke="black" d="M248.129,-878.994C256.307,-864.037 266,-841.901 266,-821 266,-821 266,-821 266,-669 266,-650.355 275.544,-631.792 285.308,-617.678"/>
<polygon fill="black" stroke="black" points="288.216,-619.631 291.333,-609.505 282.582,-615.478 288.216,-619.631"/>
</g>
<!-- wiscon -->
<g id="node17" class="node"><title>wiscon</title>
<ellipse fill="none" stroke="black" cx="655" cy="-897" rx="44.7575" ry="18.3848"/>
<text text-anchor="middle" x="655" y="-893.4" font-family="Times Roman,serif" font-size="14.00">wiscon</text>
</g>
<!-- racefail -->
<g id="node42" class="node"><title>racefail</title>
<polygon fill="none" stroke="black" points="1275,-536 1209,-510 1275,-484 1341,-510 1275,-536"/>
<text text-anchor="middle" x="1275" y="-506.4" font-family="Times Roman,serif" font-size="14.00">racefail</text>
</g>
<!-- wiscon&#45;&gt;racefail -->
<g id="edge100" class="edge"><title>wiscon&#45;&gt;racefail</title>
<path fill="none" stroke="black" d="M699.683,-894.572C855.438,-885.817 1365,-854.607 1365,-821 1365,-821 1365,-821 1365,-593 1365,-564.069 1339.56,-542.44 1315.73,-528.525"/>
<polygon fill="black" stroke="black" points="1317.18,-525.329 1306.73,-523.571 1313.8,-531.461 1317.18,-525.329"/>
</g>
<!-- adacamp -->
<g id="node57" class="node"><title>adacamp</title>
<ellipse fill="none" stroke="black" cx="504" cy="-245" rx="53.9477" ry="18.3848"/>
<text text-anchor="middle" x="504" y="-241.4" font-family="Times Roman,serif" font-size="14.00">adacamp</text>
</g>
<!-- wiscon&#45;&gt;adacamp -->
<g id="edge62" class="edge"><title>wiscon&#45;&gt;adacamp</title>
<path fill="none" stroke="black" d="M641.459,-879.237C618.169,-846.857 573,-775.261 573,-707 573,-707 573,-707 573,-321 573,-298.793 556.652,-280.198 539.87,-266.96"/>
<polygon fill="black" stroke="black" points="541.79,-264.027 531.667,-260.9 537.631,-269.657 541.79,-264.027"/>
<text text-anchor="middle" x="617.5" y="-589.4" font-family="Times Roman,serif" font-size="14.00">a11y policies</text>
</g>
<!-- linuxconfau -->
<g id="node18" class="node"><title>linuxconfau</title>
<polygon fill="none" stroke="black" points="591,-915 495,-915 495,-879 591,-879 591,-915"/>
<text text-anchor="middle" x="543" y="-893.4" font-family="Times Roman,serif" font-size="14.00">linuxconfau</text>
</g>
<!-- haecksen -->
<g id="node33" class="node"><title>haecksen</title>
<ellipse fill="none" stroke="black" cx="488" cy="-669" rx="56.7776" ry="18.3848"/>
<text text-anchor="middle" x="488" y="-665.4" font-family="Times Roman,serif" font-size="14.00">haecksen</text>
</g>
<!-- linuxconfau&#45;&gt;haecksen -->
<g id="edge86" class="edge"><title>linuxconfau&#45;&gt;haecksen</title>
<path fill="none" stroke="black" d="M538.592,-878.727C529.042,-839.136 506.377,-745.183 494.906,-697.628"/>
<polygon fill="black" stroke="black" points="498.253,-696.579 492.506,-687.679 491.448,-698.221 498.253,-696.579"/>
</g>
<!-- adainitiative -->
<g id="node52" class="node"><title>adainitiative</title>
<ellipse fill="none" stroke="black" cx="775" cy="-321" rx="72.1249" ry="18.3848"/>
<text text-anchor="middle" x="775" y="-317.4" font-family="Times Roman,serif" font-size="14.00">adainitiative</text>
</g>
<!-- linuxconfau&#45;&gt;adainitiative -->
<g id="edge36" class="edge"><title>linuxconfau&#45;&gt;adainitiative</title>
<path fill="none" stroke="black" d="M557.095,-878.911C593.888,-829.82 690,-688.779 690,-555 690,-555 690,-555 690,-420 690,-388.526 715.037,-362.055 737.934,-344.427"/>
<polygon fill="black" stroke="black" points="740.235,-347.08 746.223,-338.34 736.091,-341.438 740.235,-347.08"/>
</g>
<!-- linuxchix -->
<g id="node20" class="node"><title>linuxchix</title>
<ellipse fill="none" stroke="black" cx="757" cy="-821" rx="55.1543" ry="18.3848"/>
<text text-anchor="middle" x="757" y="-817.4" font-family="Times Roman,serif" font-size="14.00">linuxchix</text>
</g>
<!-- debianwomen -->
<g id="node26" class="node"><title>debianwomen</title>
<ellipse fill="none" stroke="black" cx="757" cy="-745" rx="79.9031" ry="18.3848"/>
<text text-anchor="middle" x="757" y="-741.4" font-family="Times Roman,serif" font-size="14.00">debianwomen</text>
</g>
<!-- linuxchix&#45;&gt;debianwomen -->
<g id="edge72" class="edge"><title>linuxchix&#45;&gt;debianwomen</title>
<path fill="none" stroke="black" d="M757,-802.213C757,-793.654 757,-783.33 757,-773.822"/>
<polygon fill="black" stroke="black" points="760.5,-773.57 757,-763.57 753.5,-773.57 760.5,-773.57"/>
</g>
<!-- linuxchix&#45;&gt;haecksen -->
<g id="edge84" class="edge"><title>linuxchix&#45;&gt;haecksen</title>
<path fill="none" stroke="black" d="M728.721,-805.021C680.01,-777.496 580.267,-721.136 525.707,-690.306"/>
<polygon fill="black" stroke="black" points="527.138,-687.095 516.71,-685.223 523.694,-693.19 527.138,-687.095"/>
</g>
<!-- geekfeminism -->
<g id="node37" class="node"><title>geekfeminism</title>
<ellipse fill="none" stroke="black" cx="1139" cy="-593" rx="77.9889" ry="18.3848"/>
<text text-anchor="middle" x="1139" y="-589.4" font-family="Times Roman,serif" font-size="14.00">geekfeminism</text>
</g>
<!-- linuxchix&#45;&gt;geekfeminism -->
<g id="edge28" class="edge"><title>linuxchix&#45;&gt;geekfeminism</title>
<path fill="none" stroke="black" d="M811.901,-819.408C944.765,-814.992 1275.15,-800.422 1308,-764 1358.76,-707.721 1252.5,-645.253 1186.42,-613.687"/>
<polygon fill="black" stroke="black" points="1187.53,-610.34 1176.99,-609.258 1184.55,-616.676 1187.53,-610.34"/>
</g>
<!-- gsoc -->
<g id="node22" class="node"><title>gsoc</title>
<polygon fill="none" stroke="black" points="1788,-763 1734,-763 1734,-727 1788,-727 1788,-763"/>
<text text-anchor="middle" x="1761" y="-741.4" font-family="Times Roman,serif" font-size="14.00">gsoc</text>
</g>
<!-- opw -->
<g id="node23" class="node"><title>opw</title>
<ellipse fill="none" stroke="black" cx="1267" cy="-745" rx="32.0265" ry="18.3848"/>
<text text-anchor="middle" x="1267" y="-741.4" font-family="Times Roman,serif" font-size="14.00">opw</text>
</g>
<!-- gsoc&#45;&gt;opw -->
<g id="edge82" class="edge"><title>gsoc&#45;&gt;opw</title>
<path fill="none" stroke="black" d="M1733.95,-745C1592.47,-745 1450.99,-745 1309.51,-745"/>
<polygon fill="black" stroke="black" points="1309.32,-741.5 1299.32,-745 1309.32,-748.5 1309.32,-741.5"/>
</g>
<!-- rgsoc -->
<g id="node66" class="node"><title>rgsoc</title>
<ellipse fill="none" stroke="black" cx="2009" cy="-169" rx="36.7696" ry="18.3848"/>
<text text-anchor="middle" x="2009" y="-165.4" font-family="Times Roman,serif" font-size="14.00">rgsoc</text>
</g>
<!-- gsoc&#45;&gt;rgsoc -->
<g id="edge98" class="edge"><title>gsoc&#45;&gt;rgsoc</title>
<path fill="none" stroke="black" d="M1788.06,-743.888C1861.66,-740.134 2060,-724.837 2060,-669 2060,-669 2060,-669 2060,-245 2060,-225.076 2047.76,-206.436 2035.28,-192.603"/>
<polygon fill="black" stroke="black" points="2037.45,-189.812 2027.99,-185.04 2032.41,-194.669 2037.45,-189.812"/>
</g>
<!-- ubuntuwomen -->
<g id="node24" class="node"><title>ubuntuwomen</title>
<ellipse fill="none" stroke="black" cx="1134" cy="-745" rx="82.939" ry="18.3848"/>
<text text-anchor="middle" x="1134" y="-741.4" font-family="Times Roman,serif" font-size="14.00">ubuntuwomen</text>
</g>
<!-- gnomewomen -->
<g id="node25" class="node"><title>gnomewomen</title>
<ellipse fill="none" stroke="black" cx="953" cy="-745" rx="80.1095" ry="18.3848"/>
<text text-anchor="middle" x="953" y="-741.4" font-family="Times Roman,serif" font-size="14.00">gnomewomen</text>
</g>
<!-- gnomewomen&#45;&gt;opw -->
<g id="edge80" class="edge"><title>gnomewomen&#45;&gt;opw</title>
<path fill="none" stroke="black" d="M987.005,-761.77C1005.45,-769.939 1028.94,-778.872 1051,-783 1123.52,-796.568 1147.08,-806.553 1217,-783 1226.41,-779.83 1235.45,-774.107 1243.2,-768.049"/>
<polygon fill="black" stroke="black" points="1245.65,-770.562 1251.05,-761.448 1241.14,-765.204 1245.65,-770.562"/>
</g>
<!-- debianwomen&#45;&gt;ubuntuwomen -->
<g id="edge74" class="edge"><title>debianwomen&#45;&gt;ubuntuwomen</title>
<path fill="none" stroke="black" d="M795.96,-761.189C818.119,-769.52 846.632,-778.791 873,-783 943.222,-794.209 963.037,-795.726 1033,-783 1052.13,-779.52 1072.35,-772.617 1089.63,-765.638"/>
<polygon fill="black" stroke="black" points="1091.02,-768.851 1098.9,-761.773 1088.32,-762.389 1091.02,-768.851"/>
</g>
<!-- debianwomen&#45;&gt;gnomewomen -->
<g id="edge76" class="edge"><title>debianwomen&#45;&gt;gnomewomen</title>
<path fill="none" stroke="black" d="M837.008,-745C845.584,-745 854.159,-745 862.735,-745"/>
<polygon fill="black" stroke="black" points="862.802,-748.5 872.802,-745 862.802,-741.5 862.802,-748.5"/>
</g>
<!-- girlgeekdinners -->
<g id="node27" class="node"><title>girlgeekdinners</title>
<polygon fill="none" stroke="black" points="2097,-763 1975,-763 1975,-727 2097,-727 2097,-763"/>
<text text-anchor="middle" x="2036" y="-741.4" font-family="Times Roman,serif" font-size="14.00">girlgeekdinners</text>
</g>
<!-- blogher -->
<g id="node28" class="node"><title>blogher</title>
<ellipse fill="none" stroke="black" cx="2248" cy="-745" rx="48.0833" ry="18.3848"/>
<text text-anchor="middle" x="2248" y="-741.4" font-family="Times Roman,serif" font-size="14.00">blogher</text>
</g>
<!-- speakerswiki -->
<g id="node29" class="node"><title>speakerswiki</title>
<ellipse fill="none" stroke="black" cx="2448" cy="-745" rx="74.2462" ry="18.3848"/>
<text text-anchor="middle" x="2448" y="-741.4" font-family="Times Roman,serif" font-size="14.00">speakerswiki</text>
</g>
<!-- blogher&#45;&gt;speakerswiki -->
<g id="edge114" class="edge"><title>blogher&#45;&gt;speakerswiki</title>
<path fill="none" stroke="black" d="M2296.05,-745C2318.62,-745 2341.2,-745 2363.78,-745"/>
<polygon fill="black" stroke="black" points="2363.8,-748.5 2373.8,-745 2363.8,-741.5 2363.8,-748.5"/>
</g>
<!-- railsconf2005 -->
<g id="node30" class="node"><title>railsconf2005</title>
<ellipse fill="none" stroke="black" cx="2618" cy="-745" rx="77.7817" ry="18.3848"/>
<text text-anchor="middle" x="2618" y="-741.4" font-family="Times Roman,serif" font-size="14.00">railsconf2005</text>
</g>
<!-- devchix -->
<g id="node31" class="node"><title>devchix</title>
<ellipse fill="none" stroke="black" cx="2781" cy="-745" rx="48.7904" ry="18.3848"/>
<text text-anchor="middle" x="2781" y="-741.4" font-family="Times Roman,serif" font-size="14.00">devchix</text>
</g>
<!-- railsconf2005&#45;&gt;devchix -->
<g id="edge118" class="edge"><title>railsconf2005&#45;&gt;devchix</title>
<path fill="none" stroke="black" d="M2696.32,-745C2704.7,-745 2713.09,-745 2721.48,-745"/>
<polygon fill="black" stroke="black" points="2721.71,-748.5 2731.71,-745 2721.71,-741.5 2721.71,-748.5"/>
</g>
<!-- owoot -->
<g id="node54" class="node"><title>owoot</title>
<ellipse fill="none" stroke="black" cx="503" cy="-321" rx="41.9273" ry="18.3848"/>
<text text-anchor="middle" x="503" y="-317.4" font-family="Times Roman,serif" font-size="14.00">owoot</text>
</g>
<!-- haecksen&#45;&gt;owoot -->
<g id="edge78" class="edge"><title>haecksen&#45;&gt;owoot</title>
<path fill="none" stroke="black" d="M493.756,-650.461C497.987,-635.196 503,-612.904 503,-593 503,-593 503,-593 503,-420 503,-396.362 503,-369.549 503,-349.795"/>
<polygon fill="black" stroke="black" points="506.5,-349.611 503,-339.611 499.5,-349.611 506.5,-349.611"/>
</g>
<!-- haecksen&#45;&gt;adacamp -->
<g id="edge88" class="edge"><title>haecksen&#45;&gt;adacamp</title>
<path fill="none" stroke="black" d="M465.946,-651.846C450.645,-637.862 433,-616.616 433,-593 433,-593 433,-593 433,-321 433,-298.655 449.591,-280.154 466.733,-267.002"/>
<polygon fill="black" stroke="black" points="469.038,-269.656 475.122,-260.982 464.956,-263.969 469.038,-269.656"/>
</g>
<!-- shesgeeky -->
<g id="node34" class="node"><title>shesgeeky</title>
<ellipse fill="none" stroke="black" cx="2448" cy="-669" rx="62.2254" ry="18.3848"/>
<text text-anchor="middle" x="2448" y="-665.4" font-family="Times Roman,serif" font-size="14.00">shesgeeky</text>
</g>
<!-- shesgeeky&#45;&gt;speakerswiki -->
<g id="edge116" class="edge"><title>shesgeeky&#45;&gt;speakerswiki</title>
<path fill="none" stroke="black" d="M2448,-687.57C2448,-696.1 2448,-706.415 2448,-715.938"/>
<polygon fill="black" stroke="black" points="2444.5,-716.213 2448,-726.213 2451.5,-716.214 2444.5,-716.213"/>
</g>
<!-- SFF CAHP -->
<g id="node36" class="node"><title>SFF CAHP</title>
<ellipse fill="none" stroke="black" cx="1703" cy="-593" rx="60.8112" ry="18.3848"/>
<text text-anchor="middle" x="1703" y="-589.4" font-family="Times Roman,serif" font-size="14.00">SFF CAHP</text>
</g>
<!-- backupproject -->
<g id="node46" class="node"><title>backupproject</title>
<ellipse fill="none" stroke="black" cx="1953" cy="-510" rx="79.196" ry="18.3848"/>
<text text-anchor="middle" x="1953" y="-506.4" font-family="Times Roman,serif" font-size="14.00">backupproject</text>
</g>
<!-- SFF CAHP&#45;&gt;backupproject -->
<g id="edge48" class="edge"><title>SFF CAHP&#45;&gt;backupproject</title>
<path fill="none" stroke="black" d="M1744.28,-579.294C1786.23,-565.367 1851.46,-543.71 1897.83,-528.317"/>
<polygon fill="black" stroke="black" points="1899.03,-531.606 1907.42,-525.133 1896.83,-524.962 1899.03,-531.606"/>
</g>
<!-- GF/TAI AHP -->
<g id="node53" class="node"><title>GF/TAI AHP</title>
<ellipse fill="none" stroke="black" cx="1139" cy="-321" rx="67.8823" ry="18.3848"/>
<text text-anchor="middle" x="1139" y="-317.4" font-family="Times Roman,serif" font-size="14.00">GF/TAI AHP</text>
</g>
<!-- SFF CAHP&#45;&gt;GF/TAI AHP -->
<g id="edge44" class="edge"><title>SFF CAHP&#45;&gt;GF/TAI AHP</title>
<path fill="none" stroke="black" d="M1646.84,-585.694C1573.62,-575.558 1450.06,-556.187 1409,-536 1377.63,-520.578 1376.96,-506.251 1350,-484 1287.71,-432.584 1212.32,-375.537 1170.61,-344.418"/>
<polygon fill="black" stroke="black" points="1172.6,-341.534 1162.49,-338.366 1168.42,-347.147 1172.6,-341.534"/>
</g>
<!-- geekfeminism&#45;&gt;adainitiative -->
<g id="edge34" class="edge"><title>geekfeminism&#45;&gt;adainitiative</title>
<path fill="none" stroke="black" d="M1077.02,-581.647C1003.08,-564.872 880.749,-526.342 811,-446 787.605,-419.051 779.375,-377.743 776.503,-350.072"/>
<polygon fill="black" stroke="black" points="779.966,-349.5 775.619,-339.838 772.992,-350.102 779.966,-349.5"/>
</g>
<!-- geekfeminism&#45;&gt;GF/TAI AHP -->
<g id="edge40" class="edge"><title>geekfeminism&#45;&gt;GF/TAI AHP</title>
<path fill="none" stroke="black" d="M1139,-574.304C1139,-527.72 1139,-406.201 1139,-350.127"/>
<polygon fill="black" stroke="black" points="1142.5,-349.826 1139,-339.826 1135.5,-349.827 1142.5,-349.826"/>
</g>
<!-- oscon2009 -->
<g id="node41" class="node"><title>oscon2009</title>
<ellipse fill="none" stroke="black" cx="194" cy="-510" rx="65.0538" ry="18.3848"/>
<text text-anchor="middle" x="194" y="-506.4" font-family="Times Roman,serif" font-size="14.00">oscon2009</text>
</g>
<!-- dreamwidth&#45;&gt;oscon2009 -->
<g id="edge106" class="edge"><title>dreamwidth&#45;&gt;oscon2009</title>
<path fill="none" stroke="black" d="M188.588,-574.166C189.466,-563.766 190.574,-550.627 191.558,-538.951"/>
<polygon fill="black" stroke="black" points="195.065,-539.018 192.418,-528.759 188.09,-538.43 195.065,-539.018"/>
</g>
<!-- otw&#45;&gt;oscon2009 -->
<g id="edge108" class="edge"><title>otw&#45;&gt;oscon2009</title>
<path fill="none" stroke="black" d="M286.491,-578.543C269.71,-566.107 245.186,-547.933 225.607,-533.423"/>
<polygon fill="black" stroke="black" points="227.674,-530.598 217.556,-527.456 223.506,-536.222 227.674,-530.598"/>
</g>
<!-- oscon2009&#45;&gt;geekfeminism -->
<g id="edge110" class="edge"><title>oscon2009&#45;&gt;geekfeminism</title>
<path fill="none" stroke="black" d="M231.086,-525.251C242.717,-529.428 255.726,-533.491 268,-536 415.883,-566.226 861.035,-583.926 1051.26,-590.292"/>
<polygon fill="black" stroke="black" points="1051.39,-593.798 1061.5,-590.632 1051.62,-586.802 1051.39,-593.798"/>
</g>
<!-- racefail&#45;&gt;geekfeminism -->
<g id="edge30" class="edge"><title>racefail&#45;&gt;geekfeminism</title>
<path fill="none" stroke="black" d="M1248.83,-525.971C1228.26,-538.527 1199.33,-556.182 1176.32,-570.221"/>
<polygon fill="black" stroke="black" points="1174.22,-567.403 1167.51,-575.6 1177.87,-573.379 1174.22,-567.403"/>
</g>
<!-- couchdb -->
<g id="node43" class="node"><title>couchdb</title>
<polygon fill="none" stroke="black" points="1491,-536 1418,-510 1491,-484 1564,-510 1491,-536"/>
<text text-anchor="middle" x="1491" y="-506.4" font-family="Times Roman,serif" font-size="14.00">couchdb</text>
</g>
<!-- railsbridge -->
<g id="node44" class="node"><title>railsbridge</title>
<ellipse fill="none" stroke="black" cx="1662" cy="-510" rx="62.2254" ry="18.3848"/>
<text text-anchor="middle" x="1662" y="-506.4" font-family="Times Roman,serif" font-size="14.00">railsbridge</text>
</g>
<!-- couchdb&#45;&gt;railsbridge -->
<g id="edge90" class="edge"><title>couchdb&#45;&gt;railsbridge</title>
<path fill="none" stroke="black" d="M1564.14,-510C1572.57,-510 1580.99,-510 1589.42,-510"/>
<polygon fill="black" stroke="black" points="1589.69,-513.5 1599.69,-510 1589.69,-506.5 1589.69,-513.5"/>
</g>
<!-- railsgirls -->
<g id="node58" class="node"><title>railsgirls</title>
<ellipse fill="none" stroke="black" cx="1856" cy="-245" rx="51.8276" ry="18.3848"/>
<text text-anchor="middle" x="1856" y="-241.4" font-family="Times Roman,serif" font-size="14.00">railsgirls</text>
</g>
<!-- railsbridge&#45;&gt;railsgirls -->
<g id="edge94" class="edge"><title>railsbridge&#45;&gt;railsgirls</title>
<path fill="none" stroke="black" d="M1676.78,-491.999C1687.1,-479.286 1701.12,-461.774 1713,-446 1759.28,-384.564 1811.01,-310.399 1837.76,-271.605"/>
<polygon fill="black" stroke="black" points="1840.91,-273.203 1843.7,-262.981 1835.14,-269.233 1840.91,-273.203"/>
</g>
<!-- pystar -->
<g id="node110" class="node"><title>pystar</title>
<ellipse fill="none" stroke="black" cx="1662" cy="-420" rx="41.9273" ry="18.3848"/>
<text text-anchor="middle" x="1662" y="-416.4" font-family="Times Roman,serif" font-size="14.00">pystar</text>
</g>
<!-- railsbridge&#45;&gt;pystar -->
<g id="edge92" class="edge"><title>railsbridge&#45;&gt;pystar</title>
<path fill="none" stroke="black" d="M1662,-491.352C1662,-479.043 1662,-462.673 1662,-448.718"/>
<polygon fill="black" stroke="black" points="1665.5,-448.624 1662,-438.624 1658.5,-448.624 1665.5,-448.624"/>
</g>
<!-- osbp -->
<g id="node45" class="node"><title>osbp</title>
<polygon fill="none" stroke="black" points="1790,-536 1742,-510 1790,-484 1838,-510 1790,-536"/>
<text text-anchor="middle" x="1790" y="-506.4" font-family="Times Roman,serif" font-size="14.00">osbp</text>
</g>
<!-- osbp&#45;&gt;backupproject -->
<g id="edge46" class="edge"><title>osbp&#45;&gt;backupproject</title>
<path fill="none" stroke="black" d="M1838.07,-510C1846.68,-510 1855.28,-510 1863.89,-510"/>
<polygon fill="black" stroke="black" points="1863.99,-513.5 1873.99,-510 1863.99,-506.5 1863.99,-513.5"/>
</g>
<!-- backupribbons -->
<g id="node50" class="node"><title>backupribbons</title>
<ellipse fill="none" stroke="black" cx="1951" cy="-420" rx="80.8184" ry="18.3848"/>
<text text-anchor="middle" x="1951" y="-416.4" font-family="Times Roman,serif" font-size="14.00">backupribbons</text>
</g>
<!-- backupproject&#45;&gt;backupribbons -->
<g id="edge50" class="edge"><title>backupproject&#45;&gt;backupribbons</title>
<path fill="none" stroke="black" d="M1952.59,-491.352C1952.31,-479.043 1951.95,-462.673 1951.64,-448.718"/>
<polygon fill="black" stroke="black" points="1955.14,-448.544 1951.41,-438.624 1948.14,-448.699 1955.14,-448.544"/>
</g>
<!-- osbridge -->
<g id="node47" class="node"><title>osbridge</title>
<ellipse fill="none" stroke="black" cx="329" cy="-510" rx="51.8276" ry="18.3848"/>
<text text-anchor="middle" x="329" y="-506.4" font-family="Times Roman,serif" font-size="14.00">osbridge</text>
</g>
<!-- apachecon assault -->
<g id="node49" class="node"><title>apachecon assault</title>
<polygon fill="none" stroke="black" points="963,-446 820,-420 963,-394 1106,-420 963,-446"/>
<text text-anchor="middle" x="963" y="-416.4" font-family="Times Roman,serif" font-size="14.00">apachecon assault</text>
</g>
<!-- apachecon assault&#45;&gt;adainitiative -->
<g id="edge32" class="edge"><title>apachecon assault&#45;&gt;adainitiative</title>
<path fill="none" stroke="black" d="M925.857,-400.441C894.068,-383.701 848.382,-359.643 815.627,-342.394"/>
<polygon fill="black" stroke="black" points="817.233,-339.284 806.754,-337.721 813.971,-345.478 817.233,-339.284"/>
</g>
<!-- apachecon assault&#45;&gt;GF/TAI AHP -->
<g id="edge38" class="edge"><title>apachecon assault&#45;&gt;GF/TAI AHP</title>
<path fill="none" stroke="black" d="M998.193,-400.204C1027.65,-383.635 1069.63,-360.021 1100.08,-342.892"/>
<polygon fill="black" stroke="black" points="1102.13,-345.752 1109.13,-337.799 1098.7,-339.651 1102.13,-345.752"/>
</g>
<!-- adainitiative&#45;&gt;GF/TAI AHP -->
<g id="edge42" class="edge"><title>adainitiative&#45;&gt;GF/TAI AHP</title>
<path fill="none" stroke="black" d="M847.16,-321C918.385,-321 989.61,-321 1060.83,-321"/>
<polygon fill="black" stroke="black" points="1060.89,-324.5 1070.89,-321 1060.89,-317.5 1060.89,-324.5"/>
</g>
<!-- adainitiative&#45;&gt;adacamp -->
<g id="edge60" class="edge"><title>adainitiative&#45;&gt;adacamp</title>
<path fill="none" stroke="black" d="M726.238,-307.325C678.193,-293.851 605.049,-273.338 555.935,-259.565"/>
<polygon fill="black" stroke="black" points="556.716,-256.149 546.142,-256.818 554.826,-262.889 556.716,-256.149"/>
</g>
<!-- Skeptic AHPs -->
<g id="node59" class="node"><title>Skeptic AHPs</title>
<ellipse fill="none" stroke="black" cx="1190" cy="-245" rx="75.1594" ry="18.3848"/>
<text text-anchor="middle" x="1190" y="-241.4" font-family="Times Roman,serif" font-size="14.00">Skeptic AHPs</text>
</g>
<!-- GF/TAI AHP&#45;&gt;Skeptic AHPs -->
<g id="edge54" class="edge"><title>GF/TAI AHP&#45;&gt;Skeptic AHPs</title>
<path fill="none" stroke="black" d="M1151.35,-302.603C1157.5,-293.429 1165.07,-282.156 1171.87,-272.022"/>
<polygon fill="black" stroke="black" points="1174.93,-273.745 1177.59,-263.491 1169.11,-269.845 1174.93,-273.745"/>
</g>
<!-- PyCon AHP -->
<g id="node60" class="node"><title>PyCon AHP</title>
<ellipse fill="none" stroke="black" cx="1350" cy="-245" rx="67.1751" ry="18.3848"/>
<text text-anchor="middle" x="1350" y="-241.4" font-family="Times Roman,serif" font-size="14.00">PyCon AHP</text>
</g>
<!-- GF/TAI AHP&#45;&gt;PyCon AHP -->
<g id="edge52" class="edge"><title>GF/TAI AHP&#45;&gt;PyCon AHP</title>
<path fill="none" stroke="black" d="M1180.18,-306.166C1214.31,-293.873 1262.96,-276.35 1299.45,-263.208"/>
<polygon fill="black" stroke="black" points="1300.7,-266.478 1308.92,-259.797 1298.33,-259.892 1300.7,-266.478"/>
</g>
<!-- Scalzi&#39;s AHP pledge -->
<g id="node68" class="node"><title>Scalzi&#39;s AHP pledge</title>
<ellipse fill="none" stroke="black" cx="954" cy="-169" rx="104.86" ry="18.3848"/>
<text text-anchor="middle" x="954" y="-165.4" font-family="Times Roman,serif" font-size="14.00">Scalzi&#39;s AHP pledge</text>
</g>
<!-- GF/TAI AHP&#45;&gt;Scalzi&#39;s AHP pledge -->
<g id="edge58" class="edge"><title>GF/TAI AHP&#45;&gt;Scalzi&#39;s AHP pledge</title>
<path fill="none" stroke="black" d="M1106.08,-304.713C1095.17,-298.76 1083.22,-291.606 1073,-284 1036.81,-257.075 1000.25,-219.919 977.385,-195.21"/>
<polygon fill="black" stroke="black" points="979.797,-192.662 970.461,-187.654 974.636,-197.391 979.797,-192.662"/>
<text text-anchor="middle" x="1052" y="-241.4" font-family="Times Roman,serif" font-size="14.00">?</text>
</g>
<!-- #CoCPledge -->
<g id="node73" class="node"><title>#CoCPledge</title>
<ellipse fill="none" stroke="black" cx="1087" cy="-93" rx="72.1249" ry="18.3848"/>
<text text-anchor="middle" x="1087" y="-89.4" font-family="Times Roman,serif" font-size="14.00">#CoCPledge</text>
</g>
<!-- GF/TAI AHP&#45;&gt;#CoCPledge -->
<g id="edge56" class="edge"><title>GF/TAI AHP&#45;&gt;#CoCPledge</title>
<path fill="none" stroke="black" d="M1125.76,-302.675C1118.69,-291.931 1110.54,-277.795 1106,-264 1090.21,-215.992 1086.99,-156.751 1086.63,-122.093"/>
<polygon fill="black" stroke="black" points="1090.13,-121.739 1086.59,-111.75 1083.13,-121.761 1090.13,-121.739"/>
</g>
<!-- blackgirlscode -->
<g id="node55" class="node"><title>blackgirlscode</title>
<ellipse fill="none" stroke="black" cx="2167" cy="-321" rx="79.196" ry="18.3848"/>
<text text-anchor="middle" x="2167" y="-317.4" font-family="Times Roman,serif" font-size="14.00">blackgirlscode</text>
</g>
<!-- adacamp&#45;&gt;osbridge -->
<g id="edge64" class="edge"><title>adacamp&#45;&gt;osbridge</title>
<path fill="none" stroke="black" d="M463.172,-257.256C420.1,-272.745 355.062,-304.11 330,-358 311.604,-397.557 316.55,-449.409 322.362,-481.182"/>
<polygon fill="black" stroke="black" points="318.958,-482.011 324.334,-491.141 325.825,-480.652 318.958,-482.011"/>
<text text-anchor="middle" x="374.5" y="-363.4" font-family="Times Roman,serif" font-size="14.00">a11y policies</text>
</g>
<!-- doubleunion -->
<g id="node65" class="node"><title>doubleunion</title>
<ellipse fill="none" stroke="black" cx="405" cy="-169" rx="70.9184" ry="18.3848"/>
<text text-anchor="middle" x="405" y="-165.4" font-family="Times Roman,serif" font-size="14.00">doubleunion</text>
</g>
<!-- adacamp&#45;&gt;doubleunion -->
<g id="edge66" class="edge"><title>adacamp&#45;&gt;doubleunion</title>
<path fill="none" stroke="black" d="M481.535,-227.754C468.182,-217.504 451.043,-204.346 436.37,-193.082"/>
<polygon fill="black" stroke="black" points="438.126,-190.018 428.063,-186.705 433.864,-195.57 438.126,-190.018"/>
</g>
<!-- railsgirls&#45;&gt;rgsoc -->
<g id="edge96" class="edge"><title>railsgirls&#45;&gt;rgsoc</title>
<path fill="none" stroke="black" d="M1886.59,-229.803C1911.6,-217.38 1947,-199.798 1973.3,-186.734"/>
<polygon fill="black" stroke="black" points="1975.14,-189.726 1982.54,-182.143 1972.03,-183.457 1975.14,-189.726"/>
</g>
<!-- Feminist Frequency vids -->
<g id="node61" class="node"><title>Feminist Frequency vids</title>
<ellipse fill="none" stroke="black" cx="2216" cy="-245" rx="127.986" ry="18.3848"/>
<text text-anchor="middle" x="2216" y="-241.4" font-family="Times Roman,serif" font-size="14.00">Feminist Frequency vids</text>
</g>
<!-- transcodesf -->
<g id="node62" class="node"><title>transcodesf</title>
<ellipse fill="none" stroke="black" cx="2429" cy="-245" rx="67.1751" ry="18.3848"/>
<text text-anchor="middle" x="2429" y="-241.4" font-family="Times Roman,serif" font-size="14.00">transcodesf</text>
</g>
<!-- seattleattic -->
<g id="node64" class="node"><title>seattleattic</title>
<ellipse fill="none" stroke="black" cx="203" cy="-169" rx="67.1751" ry="18.3848"/>
<text text-anchor="middle" x="203" y="-165.4" font-family="Times Roman,serif" font-size="14.00">seattleattic</text>
</g>
<!-- seattleattic&#45;&gt;doubleunion -->
<g id="edge70" class="edge"><title>seattleattic&#45;&gt;doubleunion</title>
<path fill="none" stroke="black" d="M270.07,-169C287.841,-169 305.612,-169 323.383,-169"/>
<polygon fill="black" stroke="black" points="323.846,-172.5 333.846,-169 323.846,-165.5 323.846,-172.5"/>
</g>
<!-- callbackwomen -->
<g id="node67" class="node"><title>callbackwomen</title>
<ellipse fill="none" stroke="black" cx="2150" cy="-169" rx="85.7684" ry="18.3848"/>
<text text-anchor="middle" x="2150" y="-165.4" font-family="Times Roman,serif" font-size="14.00">callbackwomen</text>
</g>
<!-- transh4ck -->
<g id="node69" class="node"><title>transh4ck</title>
<ellipse fill="none" stroke="black" cx="2315" cy="-169" rx="60.8112" ry="18.3848"/>
<text text-anchor="middle" x="2315" y="-165.4" font-family="Times Roman,serif" font-size="14.00">transh4ck</text>
</g>
<!-- transtech -->
<g id="node70" class="node"><title>transtech</title>
<ellipse fill="none" stroke="black" cx="2470" cy="-169" rx="58.1882" ry="18.3848"/>
<text text-anchor="middle" x="2470" y="-165.4" font-family="Times Roman,serif" font-size="14.00">transtech</text>
</g>
<!-- transh4ck&#45;&gt;transtech -->
<g id="edge112" class="edge"><title>transh4ck&#45;&gt;transtech</title>
<path fill="none" stroke="black" d="M2376.15,-169C2384.67,-169 2393.19,-169 2401.71,-169"/>
<polygon fill="black" stroke="black" points="2401.71,-172.5 2411.71,-169 2401.71,-165.5 2401.71,-172.5"/>
</g>
<!-- mvc -->
<g id="node72" class="node"><title>mvc</title>
<ellipse fill="none" stroke="black" cx="1208" cy="-93" rx="31.1127" ry="18.3848"/>
<text text-anchor="middle" x="1208" y="-89.4" font-family="Times Roman,serif" font-size="14.00">mvc</text>
</g>
<!-- mothershiphackermoms -->
<g id="node96" class="node"><title>mothershiphackermoms</title>
<ellipse fill="none" stroke="black" cx="304" cy="-245" rx="127.986" ry="18.3848"/>
<text text-anchor="middle" x="304" y="-241.4" font-family="Times Roman,serif" font-size="14.00">mothershiphackermoms</text>
</g>
<!-- mothershiphackermoms&#45;&gt;doubleunion -->
<g id="edge68" class="edge"><title>mothershiphackermoms&#45;&gt;doubleunion</title>
<path fill="none" stroke="black" d="M328.192,-226.796C341.754,-216.591 358.828,-203.743 373.433,-192.754"/>
<polygon fill="black" stroke="black" points="375.815,-195.341 381.701,-186.532 371.606,-189.748 375.815,-195.341"/>
</g>
</g>
</svg>
