<?xml version="1.0" encoding="UTF-8" standalone="no"?>
<!DOCTYPE svg PUBLIC "-//W3C//DTD SVG 1.1//EN"
 "http://www.w3.org/Graphics/SVG/1.1/DTD/svg11.dtd">
<!-- Generated by graphviz version 2.34.0 (20140110.0949)
 -->
<!-- Title: GeekFeminismFamilyTree Pages: 1 -->
<svg width="2083pt" height="872pt"
 viewBox="0.00 0.00 2083.00 872.00" xmlns="http://www.w3.org/2000/svg" xmlns:xlink="http://www.w3.org/1999/xlink">
<g id="graph0" class="graph" transform="scale(1 1) rotate(0) translate(4 868)">
<title>GeekFeminismFamilyTree</title>
<polygon fill="white" stroke="white" points="-4,4 -4,-868 2079,-868 2079,4 -4,4"/>
<!-- past -->
<g id="node1" class="node"><title>past</title>
<text text-anchor="middle" x="52" y="-842.2" font-family="Times,serif" font-size="16.00">past</text>
</g>
<!-- 2000&#45;2003 -->
<g id="node2" class="node"><title>2000&#45;2003</title>
<text text-anchor="middle" x="52" y="-768.2" font-family="Times,serif" font-size="16.00">2000&#45;2003</text>
</g>
<!-- past&#45;&gt;2000&#45;2003 -->
<g id="edge1" class="edge"><title>past&#45;&gt;2000&#45;2003</title>
<path fill="none" stroke="black" d="M52,-827.937C52,-819.807 52,-809.876 52,-800.705"/>
<polygon fill="black" stroke="black" points="55.5001,-800.441 52,-790.441 48.5001,-800.441 55.5001,-800.441"/>
</g>
<!-- 2004&#45;2006 -->
<g id="node3" class="node"><title>2004&#45;2006</title>
<text text-anchor="middle" x="52" y="-694.2" font-family="Times,serif" font-size="16.00">2004&#45;2006</text>
</g>
<!-- 2000&#45;2003&#45;&gt;2004&#45;2006 -->
<g id="edge2" class="edge"><title>2000&#45;2003&#45;&gt;2004&#45;2006</title>
<path fill="none" stroke="black" d="M52,-753.937C52,-745.807 52,-735.876 52,-726.705"/>
<polygon fill="black" stroke="black" points="55.5001,-726.441 52,-716.441 48.5001,-726.441 55.5001,-726.441"/>
</g>
<!-- 2007 -->
<g id="node4" class="node"><title>2007</title>
<text text-anchor="middle" x="52" y="-620.2" font-family="Times,serif" font-size="16.00">2007</text>
</g>
<!-- 2004&#45;2006&#45;&gt;2007 -->
<g id="edge3" class="edge"><title>2004&#45;2006&#45;&gt;2007</title>
<path fill="none" stroke="black" d="M52,-679.937C52,-671.807 52,-661.876 52,-652.705"/>
<polygon fill="black" stroke="black" points="55.5001,-652.441 52,-642.441 48.5001,-652.441 55.5001,-652.441"/>
</g>
<!-- 2008 -->
<g id="node5" class="node"><title>2008</title>
<text text-anchor="middle" x="52" y="-546.2" font-family="Times,serif" font-size="16.00">2008</text>
</g>
<!-- 2007&#45;&gt;2008 -->
<g id="edge4" class="edge"><title>2007&#45;&gt;2008</title>
<path fill="none" stroke="black" d="M52,-605.937C52,-597.807 52,-587.876 52,-578.705"/>
<polygon fill="black" stroke="black" points="55.5001,-578.441 52,-568.441 48.5001,-578.441 55.5001,-578.441"/>
</g>
<!-- 2009 -->
<g id="node6" class="node"><title>2009</title>
<text text-anchor="middle" x="52" y="-472.2" font-family="Times,serif" font-size="16.00">2009</text>
</g>
<!-- 2008&#45;&gt;2009 -->
<g id="edge5" class="edge"><title>2008&#45;&gt;2009</title>
<path fill="none" stroke="black" d="M52,-531.937C52,-523.807 52,-513.876 52,-504.705"/>
<polygon fill="black" stroke="black" points="55.5001,-504.441 52,-494.441 48.5001,-504.441 55.5001,-504.441"/>
</g>
<!-- 2010 -->
<g id="node7" class="node"><title>2010</title>
<text text-anchor="middle" x="52" y="-398.2" font-family="Times,serif" font-size="16.00">2010</text>
</g>
<!-- 2009&#45;&gt;2010 -->
<g id="edge6" class="edge"><title>2009&#45;&gt;2010</title>
<path fill="none" stroke="black" d="M52,-457.937C52,-449.807 52,-439.876 52,-430.705"/>
<polygon fill="black" stroke="black" points="55.5001,-430.441 52,-420.441 48.5001,-430.441 55.5001,-430.441"/>
</g>
<!-- 2011 -->
<g id="node8" class="node"><title>2011</title>
<text text-anchor="middle" x="52" y="-310.2" font-family="Times,serif" font-size="16.00">2011</text>
</g>
<!-- 2010&#45;&gt;2011 -->
<g id="edge7" class="edge"><title>2010&#45;&gt;2011</title>
<path fill="none" stroke="black" d="M52,-383.597C52,-371.746 52,-355.817 52,-342.292"/>
<polygon fill="black" stroke="black" points="55.5001,-342.084 52,-332.084 48.5001,-342.084 55.5001,-342.084"/>
</g>
<!-- 2012 -->
<g id="node9" class="node"><title>2012</title>
<text text-anchor="middle" x="52" y="-236.2" font-family="Times,serif" font-size="16.00">2012</text>
</g>
<!-- 2011&#45;&gt;2012 -->
<g id="edge8" class="edge"><title>2011&#45;&gt;2012</title>
<path fill="none" stroke="black" d="M52,-295.937C52,-287.807 52,-277.876 52,-268.705"/>
<polygon fill="black" stroke="black" points="55.5001,-268.441 52,-258.441 48.5001,-268.441 55.5001,-268.441"/>
</g>
<!-- 2013 -->
<g id="node10" class="node"><title>2013</title>
<text text-anchor="middle" x="52" y="-162.2" font-family="Times,serif" font-size="16.00">2013</text>
</g>
<!-- 2012&#45;&gt;2013 -->
<g id="edge9" class="edge"><title>2012&#45;&gt;2013</title>
<path fill="none" stroke="black" d="M52,-221.937C52,-213.807 52,-203.876 52,-194.705"/>
<polygon fill="black" stroke="black" points="55.5001,-194.441 52,-184.441 48.5001,-194.441 55.5001,-194.441"/>
</g>
<!-- 2014 -->
<g id="node11" class="node"><title>2014</title>
<text text-anchor="middle" x="52" y="-88.2" font-family="Times,serif" font-size="16.00">2014</text>
</g>
<!-- 2013&#45;&gt;2014 -->
<g id="edge10" class="edge"><title>2013&#45;&gt;2014</title>
<path fill="none" stroke="black" d="M52,-147.937C52,-139.807 52,-129.876 52,-120.705"/>
<polygon fill="black" stroke="black" points="55.5001,-120.441 52,-110.441 48.5001,-120.441 55.5001,-120.441"/>
</g>
<!-- unknowndate -->
<g id="node12" class="node"><title>unknowndate</title>
<text text-anchor="middle" x="52" y="-14.2" font-family="Times,serif" font-size="16.00">unknowndate</text>
</g>
<!-- 2014&#45;&gt;unknowndate -->
<g id="edge11" class="edge"><title>2014&#45;&gt;unknowndate</title>
<path fill="none" stroke="black" d="M52,-73.937C52,-65.8072 52,-55.8761 52,-46.7047"/>
<polygon fill="black" stroke="black" points="55.5001,-46.4406 52,-36.4407 48.5001,-46.4407 55.5001,-46.4406"/>
</g>
<!-- livejournal -->
<g id="node13" class="node"><title>livejournal</title>
<polygon fill="none" stroke="black" points="219.25,-864 144.75,-864 144.75,-828 219.25,-828 219.25,-864"/>
<text text-anchor="middle" x="182" y="-842.3" font-family="Times,serif" font-size="14.00">livejournal</text>
</g>
<!-- dreamwidth -->
<g id="node32" class="node"><title>dreamwidth</title>
<ellipse fill="none" stroke="black" cx="150" cy="-550" rx="52.9443" ry="18"/>
<text text-anchor="middle" x="150" y="-546.3" font-family="Times,serif" font-size="14.00">dreamwidth</text>
</g>
<!-- livejournal&#45;&gt;dreamwidth -->
<g id="edge49" class="edge"><title>livejournal&#45;&gt;dreamwidth</title>
<path fill="none" stroke="black" d="M173.683,-827.987C167.453,-813.671 160,-792.475 160,-773 160,-773 160,-773 160,-623 160,-608.063 157.862,-591.547 155.564,-578.106"/>
<polygon fill="black" stroke="black" points="158.97,-577.278 153.724,-568.074 152.085,-578.541 158.97,-577.278"/>
</g>
<!-- otw -->
<g id="node33" class="node"><title>otw</title>
<ellipse fill="none" stroke="black" cx="248" cy="-550" rx="27" ry="18"/>
<text text-anchor="middle" x="248" y="-546.3" font-family="Times,serif" font-size="14.00">otw</text>
</g>
<!-- livejournal&#45;&gt;otw -->
<g id="edge50" class="edge"><title>livejournal&#45;&gt;otw</title>
<path fill="none" stroke="black" d="M198.44,-827.894C209.847,-814.186 223,-793.858 223,-773 223,-773 223,-773 223,-623 223,-606.816 228.707,-589.66 234.667,-576.157"/>
<polygon fill="black" stroke="black" points="237.869,-577.573 238.974,-567.035 231.54,-574.584 237.869,-577.573"/>
</g>
<!-- wiscon -->
<g id="node14" class="node"><title>wiscon</title>
<ellipse fill="none" stroke="black" cx="928" cy="-846" rx="35.6194" ry="18"/>
<text text-anchor="middle" x="928" y="-842.3" font-family="Times,serif" font-size="14.00">wiscon</text>
</g>
<!-- racefail -->
<g id="node35" class="node"><title>racefail</title>
<polygon fill="none" stroke="black" points="643,-494 590.911,-476 643,-458 695.089,-476 643,-494"/>
<text text-anchor="middle" x="643" y="-472.3" font-family="Times,serif" font-size="14.00">racefail</text>
</g>
<!-- wiscon&#45;&gt;racefail -->
<g id="edge48" class="edge"><title>wiscon&#45;&gt;racefail</title>
<path fill="none" stroke="black" d="M917.574,-828.537C909.613,-814.379 900,-793.118 900,-773 900,-773 900,-773 900,-549 900,-506.626 768.82,-488.049 693.901,-480.894"/>
<polygon fill="black" stroke="black" points="694.001,-477.389 683.722,-479.959 693.36,-484.36 694.001,-477.389"/>
</g>
<!-- adacamp -->
<g id="node47" class="node"><title>adacamp</title>
<ellipse fill="none" stroke="black" cx="684" cy="-240" rx="42.3701" ry="18"/>
<text text-anchor="middle" x="684" y="-236.3" font-family="Times,serif" font-size="14.00">adacamp</text>
</g>
<!-- wiscon&#45;&gt;adacamp -->
<g id="edge29" class="edge"><title>wiscon&#45;&gt;adacamp</title>
<path fill="none" stroke="black" d="M944.134,-829.763C956.692,-816.196 972,-795.12 972,-773 972,-773 972,-773 972,-438 972,-338.87 889.358,-338.918 800,-296 773.455,-283.251 743.411,-269.011 720.551,-258.215"/>
<polygon fill="black" stroke="black" points="721.762,-254.917 711.225,-253.814 718.775,-261.247 721.762,-254.917"/>
<text text-anchor="middle" x="1008.5" y="-546.3" font-family="Times,serif" font-size="14.00">a11y policies</text>
</g>
<!-- linuxconfau -->
<g id="node15" class="node"><title>linuxconfau</title>
<polygon fill="none" stroke="black" points="612.25,-864 531.75,-864 531.75,-828 612.25,-828 612.25,-864"/>
<text text-anchor="middle" x="572" y="-842.3" font-family="Times,serif" font-size="14.00">linuxconfau</text>
</g>
<!-- haecksen -->
<g id="node28" class="node"><title>haecksen</title>
<ellipse fill="none" stroke="black" cx="314" cy="-624" rx="42.3456" ry="18"/>
<text text-anchor="middle" x="314" y="-620.3" font-family="Times,serif" font-size="14.00">haecksen</text>
</g>
<!-- linuxconfau&#45;&gt;haecksen -->
<g id="edge41" class="edge"><title>linuxconfau&#45;&gt;haecksen</title>
<path fill="none" stroke="black" d="M531.679,-841.342C470.383,-834.898 358.105,-819.342 332,-790 298.325,-752.15 302.414,-688.466 308.28,-652.284"/>
<polygon fill="black" stroke="black" points="311.804,-652.457 310.117,-641.997 304.913,-651.226 311.804,-652.457"/>
</g>
<!-- adainitiative -->
<g id="node43" class="node"><title>adainitiative</title>
<ellipse fill="none" stroke="black" cx="684" cy="-314" rx="53.4184" ry="18"/>
<text text-anchor="middle" x="684" y="-310.3" font-family="Times,serif" font-size="14.00">adainitiative</text>
</g>
<!-- linuxconfau&#45;&gt;adainitiative -->
<g id="edge16" class="edge"><title>linuxconfau&#45;&gt;adainitiative</title>
<path fill="none" stroke="black" d="M612.466,-839.224C674.477,-827.954 791.157,-796.639 842,-716 871.419,-669.339 821.39,-560.445 704,-458 672.822,-430.791 641.511,-454.722 619,-420 600.688,-391.755 629.288,-358.66 654.144,-337.289"/>
<polygon fill="black" stroke="black" points="656.539,-339.85 662.019,-330.783 652.08,-334.454 656.539,-339.85"/>
</g>
<!-- linuxchix -->
<g id="node16" class="node"><title>linuxchix</title>
<ellipse fill="none" stroke="black" cx="385" cy="-772" rx="44.2946" ry="18"/>
<text text-anchor="middle" x="385" y="-768.3" font-family="Times,serif" font-size="14.00">linuxchix</text>
</g>
<!-- debianwomen -->
<g id="node22" class="node"><title>debianwomen</title>
<ellipse fill="none" stroke="black" cx="473" cy="-698" rx="60.1672" ry="18"/>
<text text-anchor="middle" x="473" y="-694.3" font-family="Times,serif" font-size="14.00">debianwomen</text>
</g>
<!-- linuxchix&#45;&gt;debianwomen -->
<g id="edge34" class="edge"><title>linuxchix&#45;&gt;debianwomen</title>
<path fill="none" stroke="black" d="M404.095,-755.377C416.151,-745.513 431.927,-732.605 445.341,-721.63"/>
<polygon fill="black" stroke="black" points="447.81,-724.132 453.333,-715.091 443.377,-718.715 447.81,-724.132"/>
</g>
<!-- linuxchix&#45;&gt;haecksen -->
<g id="edge40" class="edge"><title>linuxchix&#45;&gt;haecksen</title>
<path fill="none" stroke="black" d="M376.855,-754.252C364.563,-728.975 341.167,-680.865 326.646,-651.004"/>
<polygon fill="black" stroke="black" points="329.789,-649.465 322.268,-642.002 323.494,-652.526 329.789,-649.465"/>
</g>
<!-- geekfeminism -->
<g id="node31" class="node"><title>geekfeminism</title>
<ellipse fill="none" stroke="black" cx="562" cy="-550" rx="61.6163" ry="18"/>
<text text-anchor="middle" x="562" y="-546.3" font-family="Times,serif" font-size="14.00">geekfeminism</text>
</g>
<!-- linuxchix&#45;&gt;geekfeminism -->
<g id="edge12" class="edge"><title>linuxchix&#45;&gt;geekfeminism</title>
<path fill="none" stroke="black" d="M385.236,-753.656C386.23,-734.362 390.089,-702.896 404,-680 433.495,-631.455 488.06,-593.098 524.698,-571.222"/>
<polygon fill="black" stroke="black" points="526.733,-574.086 533.6,-566.019 523.201,-568.043 526.733,-574.086"/>
</g>
<!-- sfruby -->
<g id="node17" class="node"><title>sfruby</title>
<ellipse fill="none" stroke="black" cx="1455" cy="-772" rx="33.2209" ry="18"/>
<text text-anchor="middle" x="1455" y="-768.3" font-family="Times,serif" font-size="14.00">sfruby</text>
</g>
<!-- railsbridge -->
<g id="node37" class="node"><title>railsbridge</title>
<ellipse fill="none" stroke="black" cx="1549" cy="-476" rx="48.1437" ry="18"/>
<text text-anchor="middle" x="1549" y="-472.3" font-family="Times,serif" font-size="14.00">railsbridge</text>
</g>
<!-- sfruby&#45;&gt;railsbridge -->
<g id="edge59" class="edge"><title>sfruby&#45;&gt;railsbridge</title>
<path fill="none" stroke="black" d="M1455,-753.834C1455,-739.247 1455,-717.75 1455,-699 1455,-699 1455,-699 1455,-549 1455,-521.84 1480.04,-503.537 1504.27,-492.183"/>
<polygon fill="black" stroke="black" points="1505.7,-495.377 1513.46,-488.167 1502.9,-488.963 1505.7,-495.377"/>
</g>
<!-- gsoc -->
<g id="node18" class="node"><title>gsoc</title>
<polygon fill="none" stroke="black" points="1253,-716 1199,-716 1199,-680 1253,-680 1253,-716"/>
<text text-anchor="middle" x="1226" y="-694.3" font-family="Times,serif" font-size="14.00">gsoc</text>
</g>
<!-- opw -->
<g id="node19" class="node"><title>opw</title>
<ellipse fill="none" stroke="black" cx="1316" cy="-698" rx="27" ry="18"/>
<text text-anchor="middle" x="1316" y="-694.3" font-family="Times,serif" font-size="14.00">opw</text>
</g>
<!-- gsoc&#45;&gt;opw -->
<g id="edge39" class="edge"><title>gsoc&#45;&gt;opw</title>
<path fill="none" stroke="black" d="M1253.07,-698C1261.67,-698 1270.27,-698 1278.87,-698"/>
<polygon fill="black" stroke="black" points="1278.96,-701.5 1288.96,-698 1278.96,-694.5 1278.96,-701.5"/>
</g>
<!-- rgsoc -->
<g id="node56" class="node"><title>rgsoc</title>
<ellipse fill="none" stroke="black" cx="1366" cy="-166" rx="29.3479" ry="18"/>
<text text-anchor="middle" x="1366" y="-162.3" font-family="Times,serif" font-size="14.00">rgsoc</text>
</g>
<!-- gsoc&#45;&gt;rgsoc -->
<g id="edge47" class="edge"><title>gsoc&#45;&gt;rgsoc</title>
<path fill="none" stroke="black" d="M1253.02,-689.644C1281.72,-679.992 1323,-660.024 1323,-625 1323,-625 1323,-625 1323,-239 1323,-220.432 1333.67,-202.496 1344.38,-189.17"/>
<polygon fill="black" stroke="black" points="1347.1,-191.372 1350.96,-181.504 1341.79,-186.813 1347.1,-191.372"/>
</g>
<!-- ubuntuwomen -->
<g id="node20" class="node"><title>ubuntuwomen</title>
<ellipse fill="none" stroke="black" cx="631" cy="-698" rx="61.6163" ry="18"/>
<text text-anchor="middle" x="631" y="-694.3" font-family="Times,serif" font-size="14.00">ubuntuwomen</text>
</g>
<!-- gnomewomen -->
<g id="node21" class="node"><title>gnomewomen</title>
<ellipse fill="none" stroke="black" cx="772" cy="-698" rx="61.6163" ry="18"/>
<text text-anchor="middle" x="772" y="-694.3" font-family="Times,serif" font-size="14.00">gnomewomen</text>
</g>
<!-- gnomewomen&#45;&gt;opw -->
<g id="edge38" class="edge"><title>gnomewomen&#45;&gt;opw</title>
<path fill="none" stroke="black" d="M829.223,-704.542C911.057,-713.537 1066.3,-729.262 1199,-735 1222.98,-736.037 1229.84,-741.298 1253,-735 1266,-731.464 1279.07,-724.489 1289.9,-717.54"/>
<polygon fill="black" stroke="black" points="1292.09,-720.281 1298.42,-711.784 1288.18,-714.48 1292.09,-720.281"/>
</g>
<!-- debianwomen&#45;&gt;ubuntuwomen -->
<g id="edge35" class="edge"><title>debianwomen&#45;&gt;ubuntuwomen</title>
<path fill="none" stroke="black" d="M533.484,-698C542.063,-698 550.642,-698 559.22,-698"/>
<polygon fill="black" stroke="black" points="559.291,-701.5 569.291,-698 559.291,-694.5 559.291,-701.5"/>
</g>
<!-- debianwomen&#45;&gt;gnomewomen -->
<g id="edge36" class="edge"><title>debianwomen&#45;&gt;gnomewomen</title>
<path fill="none" stroke="black" d="M504.574,-713.556C522.898,-721.713 546.698,-730.851 569,-735 622.745,-744.999 638.611,-746.748 692,-735 706.792,-731.745 722.104,-725.476 735.324,-719.011"/>
<polygon fill="black" stroke="black" points="737.225,-721.97 744.542,-714.308 734.044,-715.734 737.225,-721.97"/>
</g>
<!-- girlgeekdinners -->
<g id="node23" class="node"><title>girlgeekdinners</title>
<polygon fill="none" stroke="black" points="1832.25,-716 1731.75,-716 1731.75,-680 1832.25,-680 1832.25,-716"/>
<text text-anchor="middle" x="1782" y="-694.3" font-family="Times,serif" font-size="14.00">girlgeekdinners</text>
</g>
<!-- blogher -->
<g id="node24" class="node"><title>blogher</title>
<ellipse fill="none" stroke="black" cx="1888" cy="-698" rx="37.5442" ry="18"/>
<text text-anchor="middle" x="1888" y="-694.3" font-family="Times,serif" font-size="14.00">blogher</text>
</g>
<!-- speakerswiki -->
<g id="node25" class="node"><title>speakerswiki</title>
<ellipse fill="none" stroke="black" cx="2018" cy="-698" rx="56.3173" ry="18"/>
<text text-anchor="middle" x="2018" y="-694.3" font-family="Times,serif" font-size="14.00">speakerswiki</text>
</g>
<!-- blogher&#45;&gt;speakerswiki -->
<g id="edge55" class="edge"><title>blogher&#45;&gt;speakerswiki</title>
<path fill="none" stroke="black" d="M1925.58,-698C1934.23,-698 1942.88,-698 1951.53,-698"/>
<polygon fill="black" stroke="black" points="1951.68,-701.5 1961.68,-698 1951.68,-694.5 1951.68,-701.5"/>
</g>
<!-- railsconf2005 -->
<g id="node26" class="node"><title>railsconf2005</title>
<ellipse fill="none" stroke="black" cx="1542" cy="-698" rx="59.2173" ry="18"/>
<text text-anchor="middle" x="1542" y="-694.3" font-family="Times,serif" font-size="14.00">railsconf2005</text>
</g>
<!-- devchix -->
<g id="node27" class="node"><title>devchix</title>
<ellipse fill="none" stroke="black" cx="1675" cy="-698" rx="38.0212" ry="18"/>
<text text-anchor="middle" x="1675" y="-694.3" font-family="Times,serif" font-size="14.00">devchix</text>
</g>
<!-- railsconf2005&#45;&gt;devchix -->
<g id="edge57" class="edge"><title>railsconf2005&#45;&gt;devchix</title>
<path fill="none" stroke="black" d="M1601.23,-698C1609.63,-698 1618.03,-698 1626.43,-698"/>
<polygon fill="black" stroke="black" points="1626.67,-701.5 1636.67,-698 1626.67,-694.5 1626.67,-701.5"/>
</g>
<!-- devchix&#45;&gt;railsbridge -->
<g id="edge58" class="edge"><title>devchix&#45;&gt;railsbridge</title>
<path fill="none" stroke="black" d="M1665.53,-680.464C1643.68,-642.321 1589.64,-547.967 1563.55,-502.413"/>
<polygon fill="black" stroke="black" points="1566.59,-500.666 1558.58,-493.728 1560.51,-504.145 1566.59,-500.666"/>
</g>
<!-- owoot -->
<g id="node45" class="node"><title>owoot</title>
<ellipse fill="none" stroke="black" cx="374" cy="-314" rx="32.2457" ry="18"/>
<text text-anchor="middle" x="374" y="-310.3" font-family="Times,serif" font-size="14.00">owoot</text>
</g>
<!-- haecksen&#45;&gt;owoot -->
<g id="edge37" class="edge"><title>haecksen&#45;&gt;owoot</title>
<path fill="none" stroke="black" d="M331.391,-607.363C344.417,-593.866 360,-573.102 360,-551 360,-551 360,-551 360,-401 360,-381.146 363.68,-359.044 367.267,-342.218"/>
<polygon fill="black" stroke="black" points="370.785,-342.525 369.57,-332 363.957,-340.986 370.785,-342.525"/>
</g>
<!-- haecksen&#45;&gt;adacamp -->
<g id="edge42" class="edge"><title>haecksen&#45;&gt;adacamp</title>
<path fill="none" stroke="black" d="M314,-605.834C314,-591.247 314,-569.75 314,-551 314,-551 314,-551 314,-313 314,-249.099 529.325,-240.792 631.448,-240.446"/>
<polygon fill="black" stroke="black" points="631.56,-243.946 641.556,-240.437 631.553,-236.946 631.56,-243.946"/>
</g>
<!-- shesgeeky -->
<g id="node29" class="node"><title>shesgeeky</title>
<ellipse fill="none" stroke="black" cx="2018" cy="-624" rx="46.1964" ry="18"/>
<text text-anchor="middle" x="2018" y="-620.3" font-family="Times,serif" font-size="14.00">shesgeeky</text>
</g>
<!-- shesgeeky&#45;&gt;speakerswiki -->
<g id="edge56" class="edge"><title>shesgeeky&#45;&gt;speakerswiki</title>
<path fill="none" stroke="black" d="M2018,-642.441C2018,-650.625 2018,-660.572 2018,-669.719"/>
<polygon fill="black" stroke="black" points="2014.5,-669.937 2018,-679.937 2021.5,-669.937 2014.5,-669.937"/>
</g>
<!-- SFF CAHP -->
<g id="node30" class="node"><title>SFF CAHP</title>
<ellipse fill="none" stroke="black" cx="1154" cy="-550" rx="51.0191" ry="18"/>
<text text-anchor="middle" x="1154" y="-546.3" font-family="Times,serif" font-size="14.00">SFF CAHP</text>
</g>
<!-- backupproject -->
<g id="node39" class="node"><title>backupproject</title>
<ellipse fill="none" stroke="black" cx="1227" cy="-476" rx="60.1672" ry="18"/>
<text text-anchor="middle" x="1227" y="-472.3" font-family="Times,serif" font-size="14.00">backupproject</text>
</g>
<!-- SFF CAHP&#45;&gt;backupproject -->
<g id="edge22" class="edge"><title>SFF CAHP&#45;&gt;backupproject</title>
<path fill="none" stroke="black" d="M1170.56,-532.662C1180.11,-523.247 1192.28,-511.244 1202.87,-500.796"/>
<polygon fill="black" stroke="black" points="1205.59,-503.037 1210.25,-493.522 1200.67,-498.053 1205.59,-503.037"/>
</g>
<!-- GF/TAI AHP -->
<g id="node44" class="node"><title>GF/TAI AHP</title>
<ellipse fill="none" stroke="black" cx="1025" cy="-314" rx="59.2173" ry="18"/>
<text text-anchor="middle" x="1025" y="-310.3" font-family="Times,serif" font-size="14.00">GF/TAI AHP</text>
</g>
<!-- SFF CAHP&#45;&gt;GF/TAI AHP -->
<g id="edge20" class="edge"><title>SFF CAHP&#45;&gt;GF/TAI AHP</title>
<path fill="none" stroke="black" d="M1112.88,-539.089C1088.81,-531.057 1060.06,-517.158 1044,-494 1012.39,-448.426 1015.48,-380.009 1020.34,-342.326"/>
<polygon fill="black" stroke="black" points="1023.85,-342.512 1021.81,-332.117 1016.92,-341.52 1023.85,-342.512"/>
</g>
<!-- geekfeminism&#45;&gt;adainitiative -->
<g id="edge15" class="edge"><title>geekfeminism&#45;&gt;adainitiative</title>
<path fill="none" stroke="black" d="M558.612,-531.844C552.254,-494.345 542.786,-404.112 586,-350 595.849,-337.667 610.389,-329.675 625.272,-324.498"/>
<polygon fill="black" stroke="black" points="626.528,-327.774 635.055,-321.486 624.468,-321.084 626.528,-327.774"/>
</g>
<!-- geekfeminism&#45;&gt;GF/TAI AHP -->
<g id="edge18" class="edge"><title>geekfeminism&#45;&gt;GF/TAI AHP</title>
<path fill="none" stroke="black" d="M621.833,-545.641C709.399,-539.737 867.149,-525.055 914,-494 928.68,-484.269 984.13,-387.808 1010.67,-340.667"/>
<polygon fill="black" stroke="black" points="1013.73,-342.37 1015.57,-331.937 1007.63,-338.943 1013.73,-342.37"/>
</g>
<!-- oscon2009 -->
<g id="node34" class="node"><title>oscon2009</title>
<ellipse fill="none" stroke="black" cx="237" cy="-476" rx="48.6179" ry="18"/>
<text text-anchor="middle" x="237" y="-472.3" font-family="Times,serif" font-size="14.00">oscon2009</text>
</g>
<!-- dreamwidth&#45;&gt;oscon2009 -->
<g id="edge51" class="edge"><title>dreamwidth&#45;&gt;oscon2009</title>
<path fill="none" stroke="black" d="M169.308,-533.021C181.33,-523.071 196.968,-510.13 210.183,-499.193"/>
<polygon fill="black" stroke="black" points="212.573,-501.759 218.045,-492.687 208.11,-496.366 212.573,-501.759"/>
</g>
<!-- otw&#45;&gt;oscon2009 -->
<g id="edge52" class="edge"><title>otw&#45;&gt;oscon2009</title>
<path fill="none" stroke="black" d="M245.393,-531.937C244.138,-523.719 242.601,-513.66 241.187,-504.406"/>
<polygon fill="black" stroke="black" points="244.635,-503.797 239.665,-494.441 237.715,-504.855 244.635,-503.797"/>
</g>
<!-- oscon2009&#45;&gt;geekfeminism -->
<g id="edge53" class="edge"><title>oscon2009&#45;&gt;geekfeminism</title>
<path fill="none" stroke="black" d="M277.543,-485.982C334.653,-498.634 439.084,-521.769 504.281,-536.213"/>
<polygon fill="black" stroke="black" points="503.874,-539.708 514.394,-538.453 505.388,-532.873 503.874,-539.708"/>
</g>
<!-- racefail&#45;&gt;geekfeminism -->
<g id="edge13" class="edge"><title>racefail&#45;&gt;geekfeminism</title>
<path fill="none" stroke="black" d="M628.98,-489.462C617.733,-499.459 601.636,-513.768 588.04,-525.853"/>
<polygon fill="black" stroke="black" points="585.529,-523.402 580.38,-532.662 590.18,-528.634 585.529,-523.402"/>
</g>
<!-- couchdb -->
<g id="node36" class="node"><title>couchdb</title>
<polygon fill="none" stroke="black" points="1408,-494 1351.52,-476 1408,-458 1464.48,-476 1408,-494"/>
<text text-anchor="middle" x="1408" y="-472.3" font-family="Times,serif" font-size="14.00">couchdb</text>
</g>
<!-- couchdb&#45;&gt;railsbridge -->
<g id="edge43" class="edge"><title>couchdb&#45;&gt;railsbridge</title>
<path fill="none" stroke="black" d="M1464.73,-476C1473.41,-476 1482.08,-476 1490.76,-476"/>
<polygon fill="black" stroke="black" points="1490.94,-479.5 1500.94,-476 1490.94,-472.5 1490.94,-479.5"/>
</g>
<!-- railsgirls -->
<g id="node48" class="node"><title>railsgirls</title>
<ellipse fill="none" stroke="black" cx="1471" cy="-240" rx="41.394" ry="18"/>
<text text-anchor="middle" x="1471" y="-236.3" font-family="Times,serif" font-size="14.00">railsgirls</text>
</g>
<!-- railsbridge&#45;&gt;railsgirls -->
<g id="edge45" class="edge"><title>railsbridge&#45;&gt;railsgirls</title>
<path fill="none" stroke="black" d="M1546.42,-457.991C1543.39,-439.529 1537.79,-409.297 1530,-384 1517.07,-341.981 1496.55,-295.228 1483.44,-266.977"/>
<polygon fill="black" stroke="black" points="1486.54,-265.362 1479.13,-257.794 1480.21,-268.334 1486.54,-265.362"/>
</g>
<!-- pystar -->
<g id="node64" class="node"><title>pystar</title>
<ellipse fill="none" stroke="black" cx="1489" cy="-402" rx="32.2457" ry="18"/>
<text text-anchor="middle" x="1489" y="-398.3" font-family="Times,serif" font-size="14.00">pystar</text>
</g>
<!-- railsbridge&#45;&gt;pystar -->
<g id="edge44" class="edge"><title>railsbridge&#45;&gt;pystar</title>
<path fill="none" stroke="black" d="M1535.39,-458.662C1527.53,-449.233 1517.51,-437.209 1508.79,-426.751"/>
<polygon fill="black" stroke="black" points="1511.24,-424.22 1502.15,-418.778 1505.86,-428.701 1511.24,-424.22"/>
</g>
<!-- osbp -->
<g id="node38" class="node"><title>osbp</title>
<polygon fill="none" stroke="black" points="1092,-494 1053.59,-476 1092,-458 1130.41,-476 1092,-494"/>
<text text-anchor="middle" x="1092" y="-472.3" font-family="Times,serif" font-size="14.00">osbp</text>
</g>
<!-- osbp&#45;&gt;backupproject -->
<g id="edge21" class="edge"><title>osbp&#45;&gt;backupproject</title>
<path fill="none" stroke="black" d="M1130.5,-476C1139.17,-476 1147.84,-476 1156.51,-476"/>
<polygon fill="black" stroke="black" points="1156.69,-479.5 1166.69,-476 1156.69,-472.5 1156.69,-479.5"/>
</g>
<!-- backupribbons -->
<g id="node42" class="node"><title>backupribbons</title>
<ellipse fill="none" stroke="black" cx="1227" cy="-402" rx="62.0922" ry="18"/>
<text text-anchor="middle" x="1227" y="-398.3" font-family="Times,serif" font-size="14.00">backupribbons</text>
</g>
<!-- backupproject&#45;&gt;backupribbons -->
<g id="edge23" class="edge"><title>backupproject&#45;&gt;backupribbons</title>
<path fill="none" stroke="black" d="M1227,-457.937C1227,-449.807 1227,-439.876 1227,-430.705"/>
<polygon fill="black" stroke="black" points="1230.5,-430.441 1227,-420.441 1223.5,-430.441 1230.5,-430.441"/>
</g>
<!-- osbridge -->
<g id="node40" class="node"><title>osbridge</title>
<ellipse fill="none" stroke="black" cx="865" cy="-476" rx="40.4202" ry="18"/>
<text text-anchor="middle" x="865" y="-472.3" font-family="Times,serif" font-size="14.00">osbridge</text>
</g>
<!-- apachecon assault -->
<g id="node41" class="node"><title>apachecon assault</title>
<polygon fill="none" stroke="black" points="733,-420 628.823,-402 733,-384 837.177,-402 733,-420"/>
<text text-anchor="middle" x="733" y="-398.3" font-family="Times,serif" font-size="14.00">apachecon assault</text>
</g>
<!-- apachecon assault&#45;&gt;adainitiative -->
<g id="edge14" class="edge"><title>apachecon assault&#45;&gt;adainitiative</title>
<path fill="none" stroke="black" d="M724.013,-385.226C716.941,-372.816 706.941,-355.265 698.708,-340.813"/>
<polygon fill="black" stroke="black" points="701.592,-338.806 693.6,-331.85 695.51,-342.271 701.592,-338.806"/>
</g>
<!-- apachecon assault&#45;&gt;GF/TAI AHP -->
<g id="edge17" class="edge"><title>apachecon assault&#45;&gt;GF/TAI AHP</title>
<path fill="none" stroke="black" d="M788.85,-393.574C821.402,-388.166 862.838,-379.399 898,-366 911.393,-360.896 912.969,-355.968 926,-350 941.647,-342.834 959.217,-336.193 975.164,-330.665"/>
<polygon fill="black" stroke="black" points="976.51,-333.904 984.852,-327.372 974.257,-327.277 976.51,-333.904"/>
</g>
<!-- adainitiative&#45;&gt;GF/TAI AHP -->
<g id="edge19" class="edge"><title>adainitiative&#45;&gt;GF/TAI AHP</title>
<path fill="none" stroke="black" d="M737.614,-314C810.254,-314 882.893,-314 955.533,-314"/>
<polygon fill="black" stroke="black" points="955.783,-317.5 965.783,-314 955.783,-310.5 955.783,-317.5"/>
</g>
<!-- adainitiative&#45;&gt;adacamp -->
<g id="edge28" class="edge"><title>adainitiative&#45;&gt;adacamp</title>
<path fill="none" stroke="black" d="M684,-295.937C684,-287.807 684,-277.876 684,-268.705"/>
<polygon fill="black" stroke="black" points="687.5,-268.441 684,-258.441 680.5,-268.441 687.5,-268.441"/>
</g>
<!-- Skeptic AHPs -->
<g id="node49" class="node"><title>Skeptic AHPs</title>
<ellipse fill="none" stroke="black" cx="1107" cy="-240" rx="60.1672" ry="18"/>
<text text-anchor="middle" x="1107" y="-236.3" font-family="Times,serif" font-size="14.00">Skeptic AHPs</text>
</g>
<!-- GF/TAI AHP&#45;&gt;Skeptic AHPs -->
<g id="edge25" class="edge"><title>GF/TAI AHP&#45;&gt;Skeptic AHPs</title>
<path fill="none" stroke="black" d="M1043.61,-296.662C1054.62,-286.996 1068.73,-274.602 1080.85,-263.964"/>
<polygon fill="black" stroke="black" points="1083.26,-266.501 1088.47,-257.273 1078.64,-261.241 1083.26,-266.501"/>
</g>
<!-- PyCon AHP -->
<g id="node50" class="node"><title>PyCon AHP</title>
<ellipse fill="none" stroke="black" cx="1240" cy="-240" rx="54.3924" ry="18"/>
<text text-anchor="middle" x="1240" y="-236.3" font-family="Times,serif" font-size="14.00">PyCon AHP</text>
</g>
<!-- GF/TAI AHP&#45;&gt;PyCon AHP -->
<g id="edge24" class="edge"><title>GF/TAI AHP&#45;&gt;PyCon AHP</title>
<path fill="none" stroke="black" d="M1063.44,-300.128C1099.96,-287.897 1154.93,-269.49 1193.81,-256.468"/>
<polygon fill="black" stroke="black" points="1194.96,-259.775 1203.33,-253.28 1192.74,-253.137 1194.96,-259.775"/>
</g>
<!-- Scalzi&#39;s AHP pledge -->
<g id="node58" class="node"><title>Scalzi&#39;s AHP pledge</title>
<ellipse fill="none" stroke="black" cx="908" cy="-166" rx="83.2892" ry="18"/>
<text text-anchor="middle" x="908" y="-162.3" font-family="Times,serif" font-size="14.00">Scalzi&#39;s AHP pledge</text>
</g>
<!-- GF/TAI AHP&#45;&gt;Scalzi&#39;s AHP pledge -->
<g id="edge27" class="edge"><title>GF/TAI AHP&#45;&gt;Scalzi&#39;s AHP pledge</title>
<path fill="none" stroke="black" d="M1011.58,-296.252C991.059,-270.646 951.764,-221.612 927.914,-191.85"/>
<polygon fill="black" stroke="black" points="930.61,-189.617 921.625,-184.002 925.148,-193.995 930.61,-189.617"/>
<text text-anchor="middle" x="984.5" y="-236.3" font-family="Times,serif" font-size="14.00">?</text>
</g>
<!-- #CoCPledge -->
<g id="node62" class="node"><title>#CoCPledge</title>
<ellipse fill="none" stroke="black" cx="1019" cy="-92" rx="55.3682" ry="18"/>
<text text-anchor="middle" x="1019" y="-88.3" font-family="Times,serif" font-size="14.00">#CoCPledge</text>
</g>
<!-- GF/TAI AHP&#45;&gt;#CoCPledge -->
<g id="edge26" class="edge"><title>GF/TAI AHP&#45;&gt;#CoCPledge</title>
<path fill="none" stroke="black" d="M1024.53,-295.737C1023.49,-257.664 1021,-166.231 1019.74,-120.301"/>
<polygon fill="black" stroke="black" points="1023.24,-120.084 1019.47,-110.183 1016.24,-120.275 1023.24,-120.084"/>
</g>
<!-- blackgirlscode -->
<g id="node46" class="node"><title>blackgirlscode</title>
<ellipse fill="none" stroke="black" cx="1639" cy="-314" rx="61.6163" ry="18"/>
<text text-anchor="middle" x="1639" y="-310.3" font-family="Times,serif" font-size="14.00">blackgirlscode</text>
</g>
<!-- adacamp&#45;&gt;osbridge -->
<g id="edge30" class="edge"><title>adacamp&#45;&gt;osbridge</title>
<path fill="none" stroke="black" d="M707.882,-254.958C743.906,-277.34 811.583,-324.815 846,-384 857.311,-403.451 861.937,-428.704 863.805,-447.672"/>
<polygon fill="black" stroke="black" points="860.325,-448.06 864.6,-457.754 867.303,-447.51 860.325,-448.06"/>
<text text-anchor="middle" x="870.5" y="-354.3" font-family="Times,serif" font-size="14.00">a11y policies</text>
</g>
<!-- doubleunion -->
<g id="node55" class="node"><title>doubleunion</title>
<ellipse fill="none" stroke="black" cx="733" cy="-166" rx="54.3924" ry="18"/>
<text text-anchor="middle" x="733" y="-162.3" font-family="Times,serif" font-size="14.00">doubleunion</text>
</g>
<!-- adacamp&#45;&gt;doubleunion -->
<g id="edge31" class="edge"><title>adacamp&#45;&gt;doubleunion</title>
<path fill="none" stroke="black" d="M695.365,-222.301C701.487,-213.304 709.164,-202.025 715.984,-192.003"/>
<polygon fill="black" stroke="black" points="718.964,-193.845 721.697,-183.609 713.177,-189.907 718.964,-193.845"/>
</g>
<!-- railsgirls&#45;&gt;rgsoc -->
<g id="edge46" class="edge"><title>railsgirls&#45;&gt;rgsoc</title>
<path fill="none" stroke="black" d="M1449.75,-224.43C1433.63,-213.372 1411.32,-198.074 1393.78,-186.047"/>
<polygon fill="black" stroke="black" points="1395.33,-182.865 1385.1,-180.096 1391.37,-188.638 1395.33,-182.865"/>
</g>
<!-- Feminist Frequency vids -->
<g id="node51" class="node"><title>Feminist Frequency vids</title>
<ellipse fill="none" stroke="black" cx="1629" cy="-240" rx="98.1881" ry="18"/>
<text text-anchor="middle" x="1629" y="-236.3" font-family="Times,serif" font-size="14.00">Feminist Frequency vids</text>
</g>
<!-- transcodesf -->
<g id="node52" class="node"><title>transcodesf</title>
<ellipse fill="none" stroke="black" cx="1796" cy="-240" rx="50.5427" ry="18"/>
<text text-anchor="middle" x="1796" y="-236.3" font-family="Times,serif" font-size="14.00">transcodesf</text>
</g>
<!-- libtechwomen -->
<g id="node53" class="node"><title>libtechwomen</title>
<ellipse fill="none" stroke="black" cx="1926" cy="-240" rx="61.1419" ry="18"/>
<text text-anchor="middle" x="1926" y="-236.3" font-family="Times,serif" font-size="14.00">libtechwomen</text>
</g>
<!-- seattleattic -->
<g id="node54" class="node"><title>seattleattic</title>
<ellipse fill="none" stroke="black" cx="361" cy="-166" rx="48.1437" ry="18"/>
<text text-anchor="middle" x="361" y="-162.3" font-family="Times,serif" font-size="14.00">seattleattic</text>
</g>
<!-- seattleattic&#45;&gt;doubleunion -->
<g id="edge33" class="edge"><title>seattleattic&#45;&gt;doubleunion</title>
<path fill="none" stroke="black" d="M409.316,-166C495.669,-166 582.022,-166 668.374,-166"/>
<polygon fill="black" stroke="black" points="668.631,-169.5 678.631,-166 668.631,-162.5 668.631,-169.5"/>
</g>
<!-- callbackwomen -->
<g id="node57" class="node"><title>callbackwomen</title>
<ellipse fill="none" stroke="black" cx="1480" cy="-166" rx="65.9423" ry="18"/>
<text text-anchor="middle" x="1480" y="-162.3" font-family="Times,serif" font-size="14.00">callbackwomen</text>
</g>
<!-- transh4ck -->
<g id="node59" class="node"><title>transh4ck</title>
<ellipse fill="none" stroke="black" cx="1609" cy="-166" rx="44.271" ry="18"/>
<text text-anchor="middle" x="1609" y="-162.3" font-family="Times,serif" font-size="14.00">transh4ck</text>
</g>
<!-- transtech -->
<g id="node60" class="node"><title>transtech</title>
<ellipse fill="none" stroke="black" cx="1732" cy="-166" rx="42.3701" ry="18"/>
<text text-anchor="middle" x="1732" y="-162.3" font-family="Times,serif" font-size="14.00">transtech</text>
</g>
<!-- transh4ck&#45;&gt;transtech -->
<g id="edge54" class="edge"><title>transh4ck&#45;&gt;transtech</title>
<path fill="none" stroke="black" d="M1653.68,-166C1662.33,-166 1670.98,-166 1679.63,-166"/>
<polygon fill="black" stroke="black" points="1679.78,-169.5 1689.78,-166 1679.78,-162.5 1679.78,-169.5"/>
</g>
<!-- mvc -->
<g id="node61" class="node"><title>mvc</title>
<ellipse fill="none" stroke="black" cx="1119" cy="-92" rx="27" ry="18"/>
<text text-anchor="middle" x="1119" y="-88.3" font-family="Times,serif" font-size="14.00">mvc</text>
</g>
<!-- mothershiphackermoms -->
<g id="node63" class="node"><title>mothershiphackermoms</title>
<ellipse fill="none" stroke="black" cx="841" cy="-240" rx="96.2631" ry="18"/>
<text text-anchor="middle" x="841" y="-236.3" font-family="Times,serif" font-size="14.00">mothershiphackermoms</text>
</g>
<!-- mothershiphackermoms&#45;&gt;doubleunion -->
<g id="edge32" class="edge"><title>mothershiphackermoms&#45;&gt;doubleunion</title>
<path fill="none" stroke="black" d="M816.223,-222.482C800.984,-212.323 781.304,-199.202 764.907,-188.271"/>
<polygon fill="black" stroke="black" points="766.446,-185.091 756.184,-182.456 762.563,-190.915 766.446,-185.091"/>
</g>
</g>
</svg>
