<?xml version="1.0" encoding="UTF-8" standalone="no"?>
<!DOCTYPE svg PUBLIC "-//W3C//DTD SVG 1.1//EN"
 "http://www.w3.org/Graphics/SVG/1.1/DTD/svg11.dtd">
<!-- Generated by graphviz version 2.34.0 (20140110.0949)
 -->
<!-- Title: G Pages: 1 -->
<svg width="1776pt" height="872pt"
 viewBox="0.00 0.00 1776.00 872.00" xmlns="http://www.w3.org/2000/svg" xmlns:xlink="http://www.w3.org/1999/xlink">
<g id="graph0" class="graph" transform="scale(1 1) rotate(0) translate(4 868)">
<title>G</title>
<polygon fill="white" stroke="white" points="-4,4 -4,-868 1772,-868 1772,4 -4,4"/>
<!-- past -->
<g id="node1" class="node"><title>past</title>
<text text-anchor="middle" x="52" y="-842.2" font-family="Times,serif" font-size="16.00">past</text>
</g>
<!-- 2000&#45;2003 -->
<g id="node2" class="node"><title>2000&#45;2003</title>
<text text-anchor="middle" x="52" y="-768.2" font-family="Times,serif" font-size="16.00">2000&#45;2003</text>
</g>
<!-- past&#45;&gt;2000&#45;2003 -->
<g id="edge1" class="edge"><title>past&#45;&gt;2000&#45;2003</title>
<path fill="none" stroke="black" d="M52,-827.937C52,-819.807 52,-809.876 52,-800.705"/>
<polygon fill="black" stroke="black" points="55.5001,-800.441 52,-790.441 48.5001,-800.441 55.5001,-800.441"/>
</g>
<!-- 2004&#45;2006 -->
<g id="node3" class="node"><title>2004&#45;2006</title>
<text text-anchor="middle" x="52" y="-694.2" font-family="Times,serif" font-size="16.00">2004&#45;2006</text>
</g>
<!-- 2000&#45;2003&#45;&gt;2004&#45;2006 -->
<g id="edge2" class="edge"><title>2000&#45;2003&#45;&gt;2004&#45;2006</title>
<path fill="none" stroke="black" d="M52,-753.937C52,-745.807 52,-735.876 52,-726.705"/>
<polygon fill="black" stroke="black" points="55.5001,-726.441 52,-716.441 48.5001,-726.441 55.5001,-726.441"/>
</g>
<!-- 2007 -->
<g id="node4" class="node"><title>2007</title>
<text text-anchor="middle" x="52" y="-620.2" font-family="Times,serif" font-size="16.00">2007</text>
</g>
<!-- 2004&#45;2006&#45;&gt;2007 -->
<g id="edge3" class="edge"><title>2004&#45;2006&#45;&gt;2007</title>
<path fill="none" stroke="black" d="M52,-679.937C52,-671.807 52,-661.876 52,-652.705"/>
<polygon fill="black" stroke="black" points="55.5001,-652.441 52,-642.441 48.5001,-652.441 55.5001,-652.441"/>
</g>
<!-- 2008 -->
<g id="node5" class="node"><title>2008</title>
<text text-anchor="middle" x="52" y="-546.2" font-family="Times,serif" font-size="16.00">2008</text>
</g>
<!-- 2007&#45;&gt;2008 -->
<g id="edge4" class="edge"><title>2007&#45;&gt;2008</title>
<path fill="none" stroke="black" d="M52,-605.937C52,-597.807 52,-587.876 52,-578.705"/>
<polygon fill="black" stroke="black" points="55.5001,-578.441 52,-568.441 48.5001,-578.441 55.5001,-578.441"/>
</g>
<!-- 2009 -->
<g id="node6" class="node"><title>2009</title>
<text text-anchor="middle" x="52" y="-472.2" font-family="Times,serif" font-size="16.00">2009</text>
</g>
<!-- 2008&#45;&gt;2009 -->
<g id="edge5" class="edge"><title>2008&#45;&gt;2009</title>
<path fill="none" stroke="black" d="M52,-531.937C52,-523.807 52,-513.876 52,-504.705"/>
<polygon fill="black" stroke="black" points="55.5001,-504.441 52,-494.441 48.5001,-504.441 55.5001,-504.441"/>
</g>
<!-- 2010 -->
<g id="node7" class="node"><title>2010</title>
<text text-anchor="middle" x="52" y="-398.2" font-family="Times,serif" font-size="16.00">2010</text>
</g>
<!-- 2009&#45;&gt;2010 -->
<g id="edge6" class="edge"><title>2009&#45;&gt;2010</title>
<path fill="none" stroke="black" d="M52,-457.937C52,-449.807 52,-439.876 52,-430.705"/>
<polygon fill="black" stroke="black" points="55.5001,-430.441 52,-420.441 48.5001,-430.441 55.5001,-430.441"/>
</g>
<!-- 2011 -->
<g id="node8" class="node"><title>2011</title>
<text text-anchor="middle" x="52" y="-310.2" font-family="Times,serif" font-size="16.00">2011</text>
</g>
<!-- 2010&#45;&gt;2011 -->
<g id="edge7" class="edge"><title>2010&#45;&gt;2011</title>
<path fill="none" stroke="black" d="M52,-383.597C52,-371.746 52,-355.817 52,-342.292"/>
<polygon fill="black" stroke="black" points="55.5001,-342.084 52,-332.084 48.5001,-342.084 55.5001,-342.084"/>
</g>
<!-- 2012 -->
<g id="node9" class="node"><title>2012</title>
<text text-anchor="middle" x="52" y="-236.2" font-family="Times,serif" font-size="16.00">2012</text>
</g>
<!-- 2011&#45;&gt;2012 -->
<g id="edge8" class="edge"><title>2011&#45;&gt;2012</title>
<path fill="none" stroke="black" d="M52,-295.937C52,-287.807 52,-277.876 52,-268.705"/>
<polygon fill="black" stroke="black" points="55.5001,-268.441 52,-258.441 48.5001,-268.441 55.5001,-268.441"/>
</g>
<!-- 2013 -->
<g id="node10" class="node"><title>2013</title>
<text text-anchor="middle" x="52" y="-162.2" font-family="Times,serif" font-size="16.00">2013</text>
</g>
<!-- 2012&#45;&gt;2013 -->
<g id="edge9" class="edge"><title>2012&#45;&gt;2013</title>
<path fill="none" stroke="black" d="M52,-221.937C52,-213.807 52,-203.876 52,-194.705"/>
<polygon fill="black" stroke="black" points="55.5001,-194.441 52,-184.441 48.5001,-194.441 55.5001,-194.441"/>
</g>
<!-- 2014 -->
<g id="node11" class="node"><title>2014</title>
<text text-anchor="middle" x="52" y="-88.2" font-family="Times,serif" font-size="16.00">2014</text>
</g>
<!-- 2013&#45;&gt;2014 -->
<g id="edge10" class="edge"><title>2013&#45;&gt;2014</title>
<path fill="none" stroke="black" d="M52,-147.937C52,-139.807 52,-129.876 52,-120.705"/>
<polygon fill="black" stroke="black" points="55.5001,-120.441 52,-110.441 48.5001,-120.441 55.5001,-120.441"/>
</g>
<!-- unknowndate -->
<g id="node12" class="node"><title>unknowndate</title>
<text text-anchor="middle" x="52" y="-14.2" font-family="Times,serif" font-size="16.00">unknowndate</text>
</g>
<!-- 2014&#45;&gt;unknowndate -->
<g id="edge11" class="edge"><title>2014&#45;&gt;unknowndate</title>
<path fill="none" stroke="black" d="M52,-73.937C52,-65.8072 52,-55.8761 52,-46.7047"/>
<polygon fill="black" stroke="black" points="55.5001,-46.4406 52,-36.4407 48.5001,-46.4407 55.5001,-46.4406"/>
</g>
<!-- livejournal -->
<g id="node13" class="node"><title>livejournal</title>
<polygon fill="none" stroke="black" points="218.25,-864 143.75,-864 143.75,-828 218.25,-828 218.25,-864"/>
<text text-anchor="middle" x="181" y="-842.3" font-family="Times,serif" font-size="14.00">livejournal</text>
</g>
<!-- dreamwidth -->
<g id="node25" class="node"><title>dreamwidth</title>
<ellipse fill="none" stroke="black" cx="222" cy="-550" rx="52.9443" ry="18"/>
<text text-anchor="middle" x="222" y="-546.3" font-family="Times,serif" font-size="14.00">dreamwidth</text>
</g>
<!-- livejournal&#45;&gt;dreamwidth -->
<g id="edge47" class="edge"><title>livejournal&#45;&gt;dreamwidth</title>
<path fill="none" stroke="black" d="M190.978,-827.871C198.31,-813.66 207,-792.669 207,-773 207,-773 207,-773 207,-623 207,-607.887 210.206,-591.358 213.654,-577.953"/>
<polygon fill="black" stroke="black" points="217.126,-578.53 216.415,-567.959 210.379,-576.666 217.126,-578.53"/>
</g>
<!-- otw -->
<g id="node26" class="node"><title>otw</title>
<ellipse fill="none" stroke="black" cx="124" cy="-550" rx="27" ry="18"/>
<text text-anchor="middle" x="124" y="-546.3" font-family="Times,serif" font-size="14.00">otw</text>
</g>
<!-- livejournal&#45;&gt;otw -->
<g id="edge48" class="edge"><title>livejournal&#45;&gt;otw</title>
<path fill="none" stroke="black" d="M170.638,-827.918C163.024,-813.735 154,-792.758 154,-773 154,-773 154,-773 154,-623 154,-606.437 147.152,-589.265 139.999,-575.847"/>
<polygon fill="black" stroke="black" points="142.831,-573.748 134.831,-566.802 136.753,-577.221 142.831,-573.748"/>
</g>
<!-- wiscon -->
<g id="node14" class="node"><title>wiscon</title>
<ellipse fill="none" stroke="black" cx="368" cy="-846" rx="35.6194" ry="18"/>
<text text-anchor="middle" x="368" y="-842.3" font-family="Times,serif" font-size="14.00">wiscon</text>
</g>
<!-- racefail -->
<g id="node28" class="node"><title>racefail</title>
<polygon fill="none" stroke="black" points="567,-494 514.911,-476 567,-458 619.089,-476 567,-494"/>
<text text-anchor="middle" x="567" y="-472.3" font-family="Times,serif" font-size="14.00">racefail</text>
</g>
<!-- wiscon&#45;&gt;racefail -->
<g id="edge46" class="edge"><title>wiscon&#45;&gt;racefail</title>
<path fill="none" stroke="black" d="M383.631,-829.42C406.304,-806.223 448.692,-760.542 477,-716 522.023,-645.155 549.676,-548.382 561.027,-502.777"/>
<polygon fill="black" stroke="black" points="564.482,-503.378 563.443,-492.835 557.68,-501.725 564.482,-503.378"/>
</g>
<!-- adacamp -->
<g id="node39" class="node"><title>adacamp</title>
<ellipse fill="none" stroke="black" cx="486" cy="-240" rx="42.3701" ry="18"/>
<text text-anchor="middle" x="486" y="-236.3" font-family="Times,serif" font-size="14.00">adacamp</text>
</g>
<!-- wiscon&#45;&gt;adacamp -->
<g id="edge28" class="edge"><title>wiscon&#45;&gt;adacamp</title>
<path fill="none" stroke="black" d="M347.422,-831.005C331.095,-818.072 311,-797.233 311,-773 311,-773 311,-773 311,-313 311,-259.409 382.056,-244.881 433.613,-241.393"/>
<polygon fill="black" stroke="black" points="433.848,-244.885 443.637,-240.834 433.458,-237.896 433.848,-244.885"/>
<text text-anchor="middle" x="347.5" y="-546.3" font-family="Times,serif" font-size="14.00">a11y policies</text>
</g>
<!-- linuxconfau -->
<g id="node15" class="node"><title>linuxconfau</title>
<polygon fill="none" stroke="black" points="558.25,-864 477.75,-864 477.75,-828 558.25,-828 558.25,-864"/>
<text text-anchor="middle" x="518" y="-842.3" font-family="Times,serif" font-size="14.00">linuxconfau</text>
</g>
<!-- haecksen -->
<g id="node22" class="node"><title>haecksen</title>
<ellipse fill="none" stroke="black" cx="460" cy="-624" rx="42.3456" ry="18"/>
<text text-anchor="middle" x="460" y="-620.3" font-family="Times,serif" font-size="14.00">haecksen</text>
</g>
<!-- linuxconfau&#45;&gt;haecksen -->
<g id="edge39" class="edge"><title>linuxconfau&#45;&gt;haecksen</title>
<path fill="none" stroke="black" d="M511.74,-827.669C503.034,-803.088 487.195,-756.568 477,-716 471.663,-694.761 467.191,-670.351 464.175,-652.163"/>
<polygon fill="black" stroke="black" points="467.623,-651.557 462.573,-642.244 460.713,-652.674 467.623,-651.557"/>
</g>
<!-- adainitiative -->
<g id="node36" class="node"><title>adainitiative</title>
<ellipse fill="none" stroke="black" cx="666" cy="-314" rx="53.4184" ry="18"/>
<text text-anchor="middle" x="666" y="-310.3" font-family="Times,serif" font-size="14.00">adainitiative</text>
</g>
<!-- linuxconfau&#45;&gt;adainitiative -->
<g id="edge16" class="edge"><title>linuxconfau&#45;&gt;adainitiative</title>
<path fill="none" stroke="black" d="M558.347,-842.509C665.839,-835.337 951,-812.579 951,-773 951,-773 951,-773 951,-512 951,-394.855 786.448,-503.219 704,-420 692.869,-408.765 680.491,-369.201 672.977,-341.981"/>
<polygon fill="black" stroke="black" points="676.332,-340.981 670.348,-332.238 669.574,-342.805 676.332,-340.981"/>
</g>
<!-- linuxchix -->
<g id="node16" class="node"><title>linuxchix</title>
<ellipse fill="none" stroke="black" cx="563" cy="-772" rx="44.2946" ry="18"/>
<text text-anchor="middle" x="563" y="-768.3" font-family="Times,serif" font-size="14.00">linuxchix</text>
</g>
<!-- debianwomen -->
<g id="node18" class="node"><title>debianwomen</title>
<ellipse fill="none" stroke="black" cx="703" cy="-772" rx="60.1672" ry="18"/>
<text text-anchor="middle" x="703" y="-768.3" font-family="Times,serif" font-size="14.00">debianwomen</text>
</g>
<!-- linuxchix&#45;&gt;debianwomen -->
<g id="edge32" class="edge"><title>linuxchix&#45;&gt;debianwomen</title>
<path fill="none" stroke="black" d="M607.297,-772C615.625,-772 623.952,-772 632.28,-772"/>
<polygon fill="black" stroke="black" points="632.438,-775.5 642.438,-772 632.438,-768.5 632.438,-775.5"/>
</g>
<!-- linuxchix&#45;&gt;haecksen -->
<g id="edge38" class="edge"><title>linuxchix&#45;&gt;haecksen</title>
<path fill="none" stroke="black" d="M551.385,-754.536C533.38,-729.015 498.618,-679.739 477.542,-649.866"/>
<polygon fill="black" stroke="black" points="480.355,-647.782 471.731,-641.628 474.636,-651.817 480.355,-647.782"/>
</g>
<!-- geekfeminism -->
<g id="node24" class="node"><title>geekfeminism</title>
<ellipse fill="none" stroke="black" cx="627" cy="-550" rx="61.6163" ry="18"/>
<text text-anchor="middle" x="627" y="-546.3" font-family="Times,serif" font-size="14.00">geekfeminism</text>
</g>
<!-- linuxchix&#45;&gt;geekfeminism -->
<g id="edge12" class="edge"><title>linuxchix&#45;&gt;geekfeminism</title>
<path fill="none" stroke="black" d="M567.916,-754.102C578.968,-716.111 605.853,-623.693 619.207,-577.788"/>
<polygon fill="black" stroke="black" points="622.635,-578.535 622.068,-567.955 615.913,-576.58 622.635,-578.535"/>
</g>
<!-- gnomewomen -->
<g id="node17" class="node"><title>gnomewomen</title>
<ellipse fill="none" stroke="black" cx="861" cy="-772" rx="61.6163" ry="18"/>
<text text-anchor="middle" x="861" y="-768.3" font-family="Times,serif" font-size="14.00">gnomewomen</text>
</g>
<!-- opw -->
<g id="node20" class="node"><title>opw</title>
<ellipse fill="none" stroke="black" cx="887" cy="-698" rx="27" ry="18"/>
<text text-anchor="middle" x="887" y="-694.3" font-family="Times,serif" font-size="14.00">opw</text>
</g>
<!-- gnomewomen&#45;&gt;opw -->
<g id="edge36" class="edge"><title>gnomewomen&#45;&gt;opw</title>
<path fill="none" stroke="black" d="M867.162,-753.937C870.238,-745.419 874.028,-734.923 877.468,-725.395"/>
<polygon fill="black" stroke="black" points="880.778,-726.535 880.883,-715.941 874.194,-724.157 880.778,-726.535"/>
</g>
<!-- debianwomen&#45;&gt;gnomewomen -->
<g id="edge34" class="edge"><title>debianwomen&#45;&gt;gnomewomen</title>
<path fill="none" stroke="black" d="M763.484,-772C772.063,-772 780.642,-772 789.22,-772"/>
<polygon fill="black" stroke="black" points="789.291,-775.5 799.291,-772 789.291,-768.5 789.291,-775.5"/>
</g>
<!-- ubuntuwomen -->
<g id="node21" class="node"><title>ubuntuwomen</title>
<ellipse fill="none" stroke="black" cx="703" cy="-698" rx="61.6163" ry="18"/>
<text text-anchor="middle" x="703" y="-694.3" font-family="Times,serif" font-size="14.00">ubuntuwomen</text>
</g>
<!-- debianwomen&#45;&gt;ubuntuwomen -->
<g id="edge33" class="edge"><title>debianwomen&#45;&gt;ubuntuwomen</title>
<path fill="none" stroke="black" d="M703,-753.937C703,-745.807 703,-735.876 703,-726.705"/>
<polygon fill="black" stroke="black" points="706.5,-726.441 703,-716.441 699.5,-726.441 706.5,-726.441"/>
</g>
<!-- gsoc -->
<g id="node19" class="node"><title>gsoc</title>
<polygon fill="none" stroke="black" points="1301,-716 1247,-716 1247,-680 1301,-680 1301,-716"/>
<text text-anchor="middle" x="1274" y="-694.3" font-family="Times,serif" font-size="14.00">gsoc</text>
</g>
<!-- gsoc&#45;&gt;opw -->
<g id="edge37" class="edge"><title>gsoc&#45;&gt;opw</title>
<path fill="none" stroke="black" d="M1246.95,-698C1139.39,-698 1031.84,-698 924.284,-698"/>
<polygon fill="black" stroke="black" points="924.211,-694.5 914.211,-698 924.211,-701.5 924.211,-694.5"/>
</g>
<!-- rgsoc -->
<g id="node45" class="node"><title>rgsoc</title>
<ellipse fill="none" stroke="black" cx="1508" cy="-166" rx="29.3479" ry="18"/>
<text text-anchor="middle" x="1508" y="-162.3" font-family="Times,serif" font-size="14.00">rgsoc</text>
</g>
<!-- gsoc&#45;&gt;rgsoc -->
<g id="edge45" class="edge"><title>gsoc&#45;&gt;rgsoc</title>
<path fill="none" stroke="black" d="M1301.02,-695.516C1369.24,-691.033 1543,-674.735 1543,-625 1543,-625 1543,-625 1543,-239 1543,-221.835 1534.85,-204.475 1526.42,-191.103"/>
<polygon fill="black" stroke="black" points="1529.13,-188.862 1520.64,-182.534 1523.33,-192.78 1529.13,-188.862"/>
</g>
<!-- owoot -->
<g id="node38" class="node"><title>owoot</title>
<ellipse fill="none" stroke="black" cx="427" cy="-314" rx="32.2457" ry="18"/>
<text text-anchor="middle" x="427" y="-310.3" font-family="Times,serif" font-size="14.00">owoot</text>
</g>
<!-- haecksen&#45;&gt;owoot -->
<g id="edge35" class="edge"><title>haecksen&#45;&gt;owoot</title>
<path fill="none" stroke="black" d="M455.904,-605.946C452.777,-591.427 449,-569.968 449,-551 449,-551 449,-551 449,-401 449,-380.58 443.106,-358.26 437.42,-341.476"/>
<polygon fill="black" stroke="black" points="440.625,-340.045 433.961,-331.808 434.034,-342.403 440.625,-340.045"/>
</g>
<!-- haecksen&#45;&gt;adacamp -->
<g id="edge40" class="edge"><title>haecksen&#45;&gt;adacamp</title>
<path fill="none" stroke="black" d="M470.054,-606.49C477.73,-592.302 487,-571.025 487,-551 487,-551 487,-551 487,-313 487,-298.204 486.786,-281.699 486.556,-268.228"/>
<polygon fill="black" stroke="black" points="490.055,-268.1 486.372,-258.165 483.056,-268.228 490.055,-268.1"/>
</g>
<!-- SFF CAHP -->
<g id="node23" class="node"><title>SFF CAHP</title>
<ellipse fill="none" stroke="black" cx="1071" cy="-550" rx="51.0191" ry="18"/>
<text text-anchor="middle" x="1071" y="-546.3" font-family="Times,serif" font-size="14.00">SFF CAHP</text>
</g>
<!-- backupproject -->
<g id="node32" class="node"><title>backupproject</title>
<ellipse fill="none" stroke="black" cx="1191" cy="-476" rx="60.1672" ry="18"/>
<text text-anchor="middle" x="1191" y="-472.3" font-family="Times,serif" font-size="14.00">backupproject</text>
</g>
<!-- SFF CAHP&#45;&gt;backupproject -->
<g id="edge22" class="edge"><title>SFF CAHP&#45;&gt;backupproject</title>
<path fill="none" stroke="black" d="M1095.86,-534.082C1113.41,-523.556 1137.14,-509.319 1156.51,-497.696"/>
<polygon fill="black" stroke="black" points="1158.57,-500.542 1165.34,-492.396 1154.96,-494.54 1158.57,-500.542"/>
</g>
<!-- GF/TAI AHP -->
<g id="node37" class="node"><title>GF/TAI AHP</title>
<ellipse fill="none" stroke="black" cx="951" cy="-314" rx="59.2173" ry="18"/>
<text text-anchor="middle" x="951" y="-310.3" font-family="Times,serif" font-size="14.00">GF/TAI AHP</text>
</g>
<!-- SFF CAHP&#45;&gt;GF/TAI AHP -->
<g id="edge20" class="edge"><title>SFF CAHP&#45;&gt;GF/TAI AHP</title>
<path fill="none" stroke="black" d="M1047.97,-533.908C1034.55,-524.023 1018.29,-509.996 1008,-494 971.865,-437.826 986.981,-413.072 965,-350 964.031,-347.219 962.97,-344.334 961.879,-341.468"/>
<polygon fill="black" stroke="black" points="965.063,-340 958.147,-331.973 958.548,-342.561 965.063,-340"/>
</g>
<!-- geekfeminism&#45;&gt;adainitiative -->
<g id="edge15" class="edge"><title>geekfeminism&#45;&gt;adainitiative</title>
<path fill="none" stroke="black" d="M629.868,-531.793C636.573,-491.562 653.321,-391.077 661.442,-342.351"/>
<polygon fill="black" stroke="black" points="664.936,-342.671 663.128,-332.232 658.032,-341.52 664.936,-342.671"/>
</g>
<!-- geekfeminism&#45;&gt;GF/TAI AHP -->
<g id="edge18" class="edge"><title>geekfeminism&#45;&gt;GF/TAI AHP</title>
<path fill="none" stroke="black" d="M681.608,-541.618C750.77,-529.243 868.451,-497.531 931,-420 948.603,-398.181 952.395,-365.547 952.546,-342.461"/>
<polygon fill="black" stroke="black" points="956.043,-342.236 952.384,-332.293 949.044,-342.347 956.043,-342.236"/>
</g>
<!-- oscon2009 -->
<g id="node27" class="node"><title>oscon2009</title>
<ellipse fill="none" stroke="black" cx="222" cy="-476" rx="48.6179" ry="18"/>
<text text-anchor="middle" x="222" y="-472.3" font-family="Times,serif" font-size="14.00">oscon2009</text>
</g>
<!-- dreamwidth&#45;&gt;oscon2009 -->
<g id="edge49" class="edge"><title>dreamwidth&#45;&gt;oscon2009</title>
<path fill="none" stroke="black" d="M222,-531.937C222,-523.807 222,-513.876 222,-504.705"/>
<polygon fill="black" stroke="black" points="225.5,-504.441 222,-494.441 218.5,-504.441 225.5,-504.441"/>
</g>
<!-- otw&#45;&gt;oscon2009 -->
<g id="edge50" class="edge"><title>otw&#45;&gt;oscon2009</title>
<path fill="none" stroke="black" d="M141.52,-536.128C155.773,-525.657 176.187,-510.658 192.889,-498.388"/>
<polygon fill="black" stroke="black" points="195.245,-501 201.232,-492.258 191.101,-495.359 195.245,-501"/>
</g>
<!-- oscon2009&#45;&gt;geekfeminism -->
<g id="edge51" class="edge"><title>oscon2009&#45;&gt;geekfeminism</title>
<path fill="none" stroke="black" d="M264.575,-484.569C336.571,-497.368 482.618,-523.332 565.655,-538.094"/>
<polygon fill="black" stroke="black" points="565.248,-541.577 575.706,-539.881 566.473,-534.685 565.248,-541.577"/>
</g>
<!-- racefail&#45;&gt;geekfeminism -->
<g id="edge13" class="edge"><title>racefail&#45;&gt;geekfeminism</title>
<path fill="none" stroke="black" d="M578.04,-490.248C585.983,-499.779 596.93,-512.916 606.459,-524.351"/>
<polygon fill="black" stroke="black" points="603.993,-526.859 613.084,-532.301 609.371,-522.378 603.993,-526.859"/>
</g>
<!-- couchdb -->
<g id="node29" class="node"><title>couchdb</title>
<polygon fill="none" stroke="black" points="1326,-494 1269.52,-476 1326,-458 1382.48,-476 1326,-494"/>
<text text-anchor="middle" x="1326" y="-472.3" font-family="Times,serif" font-size="14.00">couchdb</text>
</g>
<!-- railsbridge -->
<g id="node30" class="node"><title>railsbridge</title>
<ellipse fill="none" stroke="black" cx="1467" cy="-476" rx="48.1437" ry="18"/>
<text text-anchor="middle" x="1467" y="-472.3" font-family="Times,serif" font-size="14.00">railsbridge</text>
</g>
<!-- couchdb&#45;&gt;railsbridge -->
<g id="edge41" class="edge"><title>couchdb&#45;&gt;railsbridge</title>
<path fill="none" stroke="black" d="M1382.73,-476C1391.41,-476 1400.08,-476 1408.76,-476"/>
<polygon fill="black" stroke="black" points="1408.94,-479.5 1418.94,-476 1408.94,-472.5 1408.94,-479.5"/>
</g>
<!-- railsgirls -->
<g id="node40" class="node"><title>railsgirls</title>
<ellipse fill="none" stroke="black" cx="1473" cy="-240" rx="41.394" ry="18"/>
<text text-anchor="middle" x="1473" y="-236.3" font-family="Times,serif" font-size="14.00">railsgirls</text>
</g>
<!-- railsbridge&#45;&gt;railsgirls -->
<g id="edge43" class="edge"><title>railsbridge&#45;&gt;railsgirls</title>
<path fill="none" stroke="black" d="M1467.44,-457.793C1468.47,-417.562 1471.05,-317.077 1472.3,-268.351"/>
<polygon fill="black" stroke="black" points="1475.8,-268.318 1472.56,-258.232 1468.8,-268.139 1475.8,-268.318"/>
</g>
<!-- pystar -->
<g id="node49" class="node"><title>pystar</title>
<ellipse fill="none" stroke="black" cx="1413" cy="-402" rx="32.2457" ry="18"/>
<text text-anchor="middle" x="1413" y="-398.3" font-family="Times,serif" font-size="14.00">pystar</text>
</g>
<!-- railsbridge&#45;&gt;pystar -->
<g id="edge42" class="edge"><title>railsbridge&#45;&gt;pystar</title>
<path fill="none" stroke="black" d="M1454.48,-458.301C1447.56,-449.084 1438.85,-437.47 1431.2,-427.268"/>
<polygon fill="black" stroke="black" points="1433.89,-425.013 1425.09,-419.113 1428.29,-429.213 1433.89,-425.013"/>
</g>
<!-- osbp -->
<g id="node31" class="node"><title>osbp</title>
<polygon fill="none" stroke="black" points="1056,-494 1017.59,-476 1056,-458 1094.41,-476 1056,-494"/>
<text text-anchor="middle" x="1056" y="-472.3" font-family="Times,serif" font-size="14.00">osbp</text>
</g>
<!-- osbp&#45;&gt;backupproject -->
<g id="edge21" class="edge"><title>osbp&#45;&gt;backupproject</title>
<path fill="none" stroke="black" d="M1094.5,-476C1103.17,-476 1111.84,-476 1120.51,-476"/>
<polygon fill="black" stroke="black" points="1120.69,-479.5 1130.69,-476 1120.69,-472.5 1120.69,-479.5"/>
</g>
<!-- backupribbons -->
<g id="node35" class="node"><title>backupribbons</title>
<ellipse fill="none" stroke="black" cx="1191" cy="-402" rx="62.0922" ry="18"/>
<text text-anchor="middle" x="1191" y="-398.3" font-family="Times,serif" font-size="14.00">backupribbons</text>
</g>
<!-- backupproject&#45;&gt;backupribbons -->
<g id="edge23" class="edge"><title>backupproject&#45;&gt;backupribbons</title>
<path fill="none" stroke="black" d="M1191,-457.937C1191,-449.807 1191,-439.876 1191,-430.705"/>
<polygon fill="black" stroke="black" points="1194.5,-430.441 1191,-420.441 1187.5,-430.441 1194.5,-430.441"/>
</g>
<!-- osbridge -->
<g id="node33" class="node"><title>osbridge</title>
<ellipse fill="none" stroke="black" cx="380" cy="-476" rx="40.4202" ry="18"/>
<text text-anchor="middle" x="380" y="-472.3" font-family="Times,serif" font-size="14.00">osbridge</text>
</g>
<!-- apachecon assault -->
<g id="node34" class="node"><title>apachecon assault</title>
<polygon fill="none" stroke="black" points="818,-420 713.823,-402 818,-384 922.177,-402 818,-420"/>
<text text-anchor="middle" x="818" y="-398.3" font-family="Times,serif" font-size="14.00">apachecon assault</text>
</g>
<!-- apachecon assault&#45;&gt;adainitiative -->
<g id="edge14" class="edge"><title>apachecon assault&#45;&gt;adainitiative</title>
<path fill="none" stroke="black" d="M794.914,-387.938C769.96,-373.819 729.894,-351.151 701.05,-334.831"/>
<polygon fill="black" stroke="black" points="702.539,-331.652 692.112,-329.774 699.092,-337.745 702.539,-331.652"/>
</g>
<!-- apachecon assault&#45;&gt;GF/TAI AHP -->
<g id="edge17" class="edge"><title>apachecon assault&#45;&gt;GF/TAI AHP</title>
<path fill="none" stroke="black" d="M838.781,-387.562C859.993,-373.846 893.235,-352.352 918.041,-336.312"/>
<polygon fill="black" stroke="black" points="920.263,-339.043 926.76,-330.674 916.463,-333.165 920.263,-339.043"/>
</g>
<!-- adainitiative&#45;&gt;GF/TAI AHP -->
<g id="edge19" class="edge"><title>adainitiative&#45;&gt;GF/TAI AHP</title>
<path fill="none" stroke="black" d="M719.716,-314C773.724,-314 827.731,-314 881.739,-314"/>
<polygon fill="black" stroke="black" points="881.824,-317.5 891.824,-314 881.824,-310.5 881.824,-317.5"/>
</g>
<!-- adainitiative&#45;&gt;adacamp -->
<g id="edge27" class="edge"><title>adainitiative&#45;&gt;adacamp</title>
<path fill="none" stroke="black" d="M632.985,-299.794C602.632,-287.653 557.59,-269.636 525.374,-256.75"/>
<polygon fill="black" stroke="black" points="526.403,-253.391 515.818,-252.927 523.803,-259.891 526.403,-253.391"/>
</g>
<!-- Skeptic AHPs -->
<g id="node41" class="node"><title>Skeptic AHPs</title>
<ellipse fill="none" stroke="black" cx="607" cy="-240" rx="60.1672" ry="18"/>
<text text-anchor="middle" x="607" y="-236.3" font-family="Times,serif" font-size="14.00">Skeptic AHPs</text>
</g>
<!-- GF/TAI AHP&#45;&gt;Skeptic AHPs -->
<g id="edge25" class="edge"><title>GF/TAI AHP&#45;&gt;Skeptic AHPs</title>
<path fill="none" stroke="black" d="M901.932,-303.864C846.817,-293.445 754.765,-275.571 676,-258 671.281,-256.947 666.39,-255.819 661.491,-254.662"/>
<polygon fill="black" stroke="black" points="662.013,-251.188 651.473,-252.263 660.383,-257.996 662.013,-251.188"/>
</g>
<!-- PyCon AHP -->
<g id="node42" class="node"><title>PyCon AHP</title>
<ellipse fill="none" stroke="black" cx="951" cy="-240" rx="54.3924" ry="18"/>
<text text-anchor="middle" x="951" y="-236.3" font-family="Times,serif" font-size="14.00">PyCon AHP</text>
</g>
<!-- GF/TAI AHP&#45;&gt;PyCon AHP -->
<g id="edge24" class="edge"><title>GF/TAI AHP&#45;&gt;PyCon AHP</title>
<path fill="none" stroke="black" d="M951,-295.937C951,-287.807 951,-277.876 951,-268.705"/>
<polygon fill="black" stroke="black" points="954.5,-268.441 951,-258.441 947.5,-268.441 954.5,-268.441"/>
</g>
<!-- Scalzi&#39;s AHP pledge -->
<g id="node46" class="node"><title>Scalzi&#39;s AHP pledge</title>
<ellipse fill="none" stroke="black" cx="1042" cy="-166" rx="83.2892" ry="18"/>
<text text-anchor="middle" x="1042" y="-162.3" font-family="Times,serif" font-size="14.00">Scalzi&#39;s AHP pledge</text>
</g>
<!-- GF/TAI AHP&#45;&gt;Scalzi&#39;s AHP pledge -->
<g id="edge26" class="edge"><title>GF/TAI AHP&#45;&gt;Scalzi&#39;s AHP pledge</title>
<path fill="none" stroke="black" d="M974.601,-297.421C987.884,-287.553 1003.8,-273.71 1014,-258 1026.61,-238.581 1033.8,-213.171 1037.73,-194.139"/>
<polygon fill="black" stroke="black" points="1041.17,-194.776 1039.59,-184.3 1034.29,-193.475 1041.17,-194.776"/>
<text text-anchor="middle" x="1034.5" y="-236.3" font-family="Times,serif" font-size="14.00">?</text>
</g>
<!-- adacamp&#45;&gt;osbridge -->
<g id="edge29" class="edge"><title>adacamp&#45;&gt;osbridge</title>
<path fill="none" stroke="black" d="M454.571,-252.062C432.915,-261.039 404.767,-275.573 386,-296 368.231,-315.34 367.452,-324.309 362,-350 354.879,-383.554 363.184,-422.78 370.72,-448.214"/>
<polygon fill="black" stroke="black" points="367.422,-449.393 373.749,-457.891 374.102,-447.302 367.422,-449.393"/>
<text text-anchor="middle" x="398.5" y="-354.3" font-family="Times,serif" font-size="14.00">a11y policies</text>
</g>
<!-- doubleunion -->
<g id="node44" class="node"><title>doubleunion</title>
<ellipse fill="none" stroke="black" cx="708" cy="-166" rx="54.3924" ry="18"/>
<text text-anchor="middle" x="708" y="-162.3" font-family="Times,serif" font-size="14.00">doubleunion</text>
</g>
<!-- adacamp&#45;&gt;doubleunion -->
<g id="edge30" class="edge"><title>adacamp&#45;&gt;doubleunion</title>
<path fill="none" stroke="black" d="M518.449,-228.375C524.925,-226.259 531.677,-224.056 538,-222 579.482,-208.509 626.685,-193.244 660.808,-182.225"/>
<polygon fill="black" stroke="black" points="662.072,-185.495 670.513,-179.092 659.921,-178.834 662.072,-185.495"/>
</g>
<!-- railsgirls&#45;&gt;rgsoc -->
<g id="edge44" class="edge"><title>railsgirls&#45;&gt;rgsoc</title>
<path fill="none" stroke="black" d="M1481.12,-222.301C1485.4,-213.486 1490.75,-202.48 1495.55,-192.612"/>
<polygon fill="black" stroke="black" points="1498.7,-194.133 1499.93,-183.609 1492.41,-191.072 1498.7,-194.133"/>
</g>
<!-- Feminist Frequency vids -->
<g id="node43" class="node"><title>Feminist Frequency vids</title>
<ellipse fill="none" stroke="black" cx="1670" cy="-240" rx="98.1881" ry="18"/>
<text text-anchor="middle" x="1670" y="-236.3" font-family="Times,serif" font-size="14.00">Feminist Frequency vids</text>
</g>
<!-- mvc -->
<g id="node47" class="node"><title>mvc</title>
<ellipse fill="none" stroke="black" cx="124" cy="-92" rx="27" ry="18"/>
<text text-anchor="middle" x="124" y="-88.3" font-family="Times,serif" font-size="14.00">mvc</text>
</g>
<!-- mothershiphackermoms -->
<g id="node48" class="node"><title>mothershiphackermoms</title>
<ellipse fill="none" stroke="black" cx="782" cy="-240" rx="96.2631" ry="18"/>
<text text-anchor="middle" x="782" y="-236.3" font-family="Times,serif" font-size="14.00">mothershiphackermoms</text>
</g>
<!-- mothershiphackermoms&#45;&gt;doubleunion -->
<g id="edge31" class="edge"><title>mothershiphackermoms&#45;&gt;doubleunion</title>
<path fill="none" stroke="black" d="M764.463,-221.937C754.764,-212.501 742.572,-200.637 732.001,-190.352"/>
<polygon fill="black" stroke="black" points="734.257,-187.664 724.649,-183.199 729.375,-192.681 734.257,-187.664"/>
</g>
</g>
</svg>
