<?xml version="1.0" encoding="UTF-8" standalone="no"?>
<!DOCTYPE svg PUBLIC "-//W3C//DTD SVG 1.1//EN"
 "http://www.w3.org/Graphics/SVG/1.1/DTD/svg11.dtd">
<!-- Generated by graphviz version 2.34.0 (20140110.0949)
 -->
<!-- Title: G Pages: 1 -->
<svg width="1372pt" height="872pt"
 viewBox="0.00 0.00 1372.00 872.00" xmlns="http://www.w3.org/2000/svg" xmlns:xlink="http://www.w3.org/1999/xlink">
<g id="graph0" class="graph" transform="scale(1 1) rotate(0) translate(4 868)">
<title>G</title>
<polygon fill="white" stroke="white" points="-4,4 -4,-868 1368,-868 1368,4 -4,4"/>
<!-- past -->
<g id="node1" class="node"><title>past</title>
<text text-anchor="middle" x="52" y="-842.2" font-family="Times,serif" font-size="16.00">past</text>
</g>
<!-- 2000&#45;2003 -->
<g id="node2" class="node"><title>2000&#45;2003</title>
<text text-anchor="middle" x="52" y="-768.2" font-family="Times,serif" font-size="16.00">2000&#45;2003</text>
</g>
<!-- past&#45;&gt;2000&#45;2003 -->
<g id="edge1" class="edge"><title>past&#45;&gt;2000&#45;2003</title>
<path fill="none" stroke="black" d="M52,-827.937C52,-819.807 52,-809.876 52,-800.705"/>
<polygon fill="black" stroke="black" points="55.5001,-800.441 52,-790.441 48.5001,-800.441 55.5001,-800.441"/>
</g>
<!-- 2004&#45;2006 -->
<g id="node3" class="node"><title>2004&#45;2006</title>
<text text-anchor="middle" x="52" y="-694.2" font-family="Times,serif" font-size="16.00">2004&#45;2006</text>
</g>
<!-- 2000&#45;2003&#45;&gt;2004&#45;2006 -->
<g id="edge2" class="edge"><title>2000&#45;2003&#45;&gt;2004&#45;2006</title>
<path fill="none" stroke="black" d="M52,-753.937C52,-745.807 52,-735.876 52,-726.705"/>
<polygon fill="black" stroke="black" points="55.5001,-726.441 52,-716.441 48.5001,-726.441 55.5001,-726.441"/>
</g>
<!-- 2007 -->
<g id="node4" class="node"><title>2007</title>
<text text-anchor="middle" x="52" y="-620.2" font-family="Times,serif" font-size="16.00">2007</text>
</g>
<!-- 2004&#45;2006&#45;&gt;2007 -->
<g id="edge3" class="edge"><title>2004&#45;2006&#45;&gt;2007</title>
<path fill="none" stroke="black" d="M52,-679.937C52,-671.807 52,-661.876 52,-652.705"/>
<polygon fill="black" stroke="black" points="55.5001,-652.441 52,-642.441 48.5001,-652.441 55.5001,-652.441"/>
</g>
<!-- 2008 -->
<g id="node5" class="node"><title>2008</title>
<text text-anchor="middle" x="52" y="-546.2" font-family="Times,serif" font-size="16.00">2008</text>
</g>
<!-- 2007&#45;&gt;2008 -->
<g id="edge4" class="edge"><title>2007&#45;&gt;2008</title>
<path fill="none" stroke="black" d="M52,-605.937C52,-597.807 52,-587.876 52,-578.705"/>
<polygon fill="black" stroke="black" points="55.5001,-578.441 52,-568.441 48.5001,-578.441 55.5001,-578.441"/>
</g>
<!-- 2009 -->
<g id="node6" class="node"><title>2009</title>
<text text-anchor="middle" x="52" y="-472.2" font-family="Times,serif" font-size="16.00">2009</text>
</g>
<!-- 2008&#45;&gt;2009 -->
<g id="edge5" class="edge"><title>2008&#45;&gt;2009</title>
<path fill="none" stroke="black" d="M52,-531.937C52,-523.807 52,-513.876 52,-504.705"/>
<polygon fill="black" stroke="black" points="55.5001,-504.441 52,-494.441 48.5001,-504.441 55.5001,-504.441"/>
</g>
<!-- 2010 -->
<g id="node7" class="node"><title>2010</title>
<text text-anchor="middle" x="52" y="-398.2" font-family="Times,serif" font-size="16.00">2010</text>
</g>
<!-- 2009&#45;&gt;2010 -->
<g id="edge6" class="edge"><title>2009&#45;&gt;2010</title>
<path fill="none" stroke="black" d="M52,-457.937C52,-449.807 52,-439.876 52,-430.705"/>
<polygon fill="black" stroke="black" points="55.5001,-430.441 52,-420.441 48.5001,-430.441 55.5001,-430.441"/>
</g>
<!-- 2011 -->
<g id="node8" class="node"><title>2011</title>
<text text-anchor="middle" x="52" y="-310.2" font-family="Times,serif" font-size="16.00">2011</text>
</g>
<!-- 2010&#45;&gt;2011 -->
<g id="edge7" class="edge"><title>2010&#45;&gt;2011</title>
<path fill="none" stroke="black" d="M52,-383.597C52,-371.746 52,-355.817 52,-342.292"/>
<polygon fill="black" stroke="black" points="55.5001,-342.084 52,-332.084 48.5001,-342.084 55.5001,-342.084"/>
</g>
<!-- 2012 -->
<g id="node9" class="node"><title>2012</title>
<text text-anchor="middle" x="52" y="-236.2" font-family="Times,serif" font-size="16.00">2012</text>
</g>
<!-- 2011&#45;&gt;2012 -->
<g id="edge8" class="edge"><title>2011&#45;&gt;2012</title>
<path fill="none" stroke="black" d="M52,-295.937C52,-287.807 52,-277.876 52,-268.705"/>
<polygon fill="black" stroke="black" points="55.5001,-268.441 52,-258.441 48.5001,-268.441 55.5001,-268.441"/>
</g>
<!-- 2013 -->
<g id="node10" class="node"><title>2013</title>
<text text-anchor="middle" x="52" y="-162.2" font-family="Times,serif" font-size="16.00">2013</text>
</g>
<!-- 2012&#45;&gt;2013 -->
<g id="edge9" class="edge"><title>2012&#45;&gt;2013</title>
<path fill="none" stroke="black" d="M52,-221.937C52,-213.807 52,-203.876 52,-194.705"/>
<polygon fill="black" stroke="black" points="55.5001,-194.441 52,-184.441 48.5001,-194.441 55.5001,-194.441"/>
</g>
<!-- 2014 -->
<g id="node11" class="node"><title>2014</title>
<text text-anchor="middle" x="52" y="-88.2" font-family="Times,serif" font-size="16.00">2014</text>
</g>
<!-- 2013&#45;&gt;2014 -->
<g id="edge10" class="edge"><title>2013&#45;&gt;2014</title>
<path fill="none" stroke="black" d="M52,-147.937C52,-139.807 52,-129.876 52,-120.705"/>
<polygon fill="black" stroke="black" points="55.5001,-120.441 52,-110.441 48.5001,-120.441 55.5001,-120.441"/>
</g>
<!-- unknowndate -->
<g id="node12" class="node"><title>unknowndate</title>
<text text-anchor="middle" x="52" y="-14.2" font-family="Times,serif" font-size="16.00">unknowndate</text>
</g>
<!-- 2014&#45;&gt;unknowndate -->
<g id="edge11" class="edge"><title>2014&#45;&gt;unknowndate</title>
<path fill="none" stroke="black" d="M52,-73.937C52,-65.8072 52,-55.8761 52,-46.7047"/>
<polygon fill="black" stroke="black" points="55.5001,-46.4406 52,-36.4407 48.5001,-46.4407 55.5001,-46.4406"/>
</g>
<!-- livejournal -->
<g id="node13" class="node"><title>livejournal</title>
<polygon fill="none" stroke="black" points="243.25,-864 168.75,-864 168.75,-828 243.25,-828 243.25,-864"/>
<text text-anchor="middle" x="206" y="-842.3" font-family="Times,serif" font-size="14.00">livejournal</text>
</g>
<!-- dreamwidth -->
<g id="node25" class="node"><title>dreamwidth</title>
<ellipse fill="none" stroke="black" cx="222" cy="-550" rx="52.9443" ry="18"/>
<text text-anchor="middle" x="222" y="-546.3" font-family="Times,serif" font-size="14.00">dreamwidth</text>
</g>
<!-- livejournal&#45;&gt;dreamwidth -->
<g id="edge44" class="edge"><title>livejournal&#45;&gt;dreamwidth</title>
<path fill="none" stroke="black" d="M206,-827.834C206,-813.247 206,-791.75 206,-773 206,-773 206,-773 206,-623 206,-607.844 209.42,-591.312 213.098,-577.916"/>
<polygon fill="black" stroke="black" points="216.571,-578.513 216.042,-567.931 209.857,-576.533 216.571,-578.513"/>
</g>
<!-- otw -->
<g id="node26" class="node"><title>otw</title>
<ellipse fill="none" stroke="black" cx="124" cy="-550" rx="27" ry="18"/>
<text text-anchor="middle" x="124" y="-546.3" font-family="Times,serif" font-size="14.00">otw</text>
</g>
<!-- livejournal&#45;&gt;otw -->
<g id="edge45" class="edge"><title>livejournal&#45;&gt;otw</title>
<path fill="none" stroke="black" d="M183.83,-827.995C169.307,-814.783 153,-795.04 153,-773 153,-773 153,-773 153,-623 153,-606.517 146.38,-589.349 139.466,-575.913"/>
<polygon fill="black" stroke="black" points="142.363,-573.919 134.47,-566.852 136.233,-577.299 142.363,-573.919"/>
</g>
<!-- wiscon -->
<g id="node14" class="node"><title>wiscon</title>
<ellipse fill="none" stroke="black" cx="312" cy="-846" rx="35.6194" ry="18"/>
<text text-anchor="middle" x="312" y="-842.3" font-family="Times,serif" font-size="14.00">wiscon</text>
</g>
<!-- racefail -->
<g id="node28" class="node"><title>racefail</title>
<polygon fill="none" stroke="black" points="566,-494 513.911,-476 566,-458 618.089,-476 566,-494"/>
<text text-anchor="middle" x="566" y="-472.3" font-family="Times,serif" font-size="14.00">racefail</text>
</g>
<!-- wiscon&#45;&gt;racefail -->
<g id="edge43" class="edge"><title>wiscon&#45;&gt;racefail</title>
<path fill="none" stroke="black" d="M346.467,-841.895C387.342,-836.1 450,-819.615 450,-773 450,-773 450,-773 450,-549 450,-529.23 499.256,-504.653 533.574,-489.928"/>
<polygon fill="black" stroke="black" points="534.942,-493.15 542.804,-486.049 532.229,-486.697 534.942,-493.15"/>
</g>
<!-- adacamp -->
<g id="node38" class="node"><title>adacamp</title>
<ellipse fill="none" stroke="black" cx="766" cy="-240" rx="42.3701" ry="18"/>
<text text-anchor="middle" x="766" y="-236.3" font-family="Times,serif" font-size="14.00">adacamp</text>
</g>
<!-- wiscon&#45;&gt;adacamp -->
<g id="edge25" class="edge"><title>wiscon&#45;&gt;adacamp</title>
<path fill="none" stroke="black" d="M311.628,-827.835C311.343,-813.248 311,-791.752 311,-773 311,-773 311,-773 311,-313 311,-287.415 340.946,-301.19 366,-296 518.351,-264.439 561.909,-290.794 714,-258 717.65,-257.213 721.405,-256.267 725.147,-255.229"/>
<polygon fill="black" stroke="black" points="726.355,-258.521 734.941,-252.314 724.358,-251.812 726.355,-258.521"/>
<text text-anchor="middle" x="347.5" y="-546.3" font-family="Times,serif" font-size="14.00">a11y policies</text>
</g>
<!-- linuxconfau -->
<g id="node15" class="node"><title>linuxconfau</title>
<polygon fill="none" stroke="black" points="701.25,-864 620.75,-864 620.75,-828 701.25,-828 701.25,-864"/>
<text text-anchor="middle" x="661" y="-842.3" font-family="Times,serif" font-size="14.00">linuxconfau</text>
</g>
<!-- haecksen -->
<g id="node22" class="node"><title>haecksen</title>
<ellipse fill="none" stroke="black" cx="895" cy="-624" rx="42.3456" ry="18"/>
<text text-anchor="middle" x="895" y="-620.3" font-family="Times,serif" font-size="14.00">haecksen</text>
</g>
<!-- linuxconfau&#45;&gt;haecksen -->
<g id="edge36" class="edge"><title>linuxconfau&#45;&gt;haecksen</title>
<path fill="none" stroke="black" d="M701.254,-841.391C761.425,-835.071 870.309,-819.749 894,-790 925.429,-750.535 914.088,-687.279 903.95,-651.645"/>
<polygon fill="black" stroke="black" points="907.264,-650.512 901.025,-641.949 900.562,-652.533 907.264,-650.512"/>
</g>
<!-- adainitiative -->
<g id="node35" class="node"><title>adainitiative</title>
<ellipse fill="none" stroke="black" cx="429" cy="-314" rx="53.4184" ry="18"/>
<text text-anchor="middle" x="429" y="-310.3" font-family="Times,serif" font-size="14.00">adainitiative</text>
</g>
<!-- linuxconfau&#45;&gt;adainitiative -->
<g id="edge16" class="edge"><title>linuxconfau&#45;&gt;adainitiative</title>
<path fill="none" stroke="black" d="M620.717,-841.717C550.245,-834.853 412,-815.919 412,-773 412,-773 412,-773 412,-586 412,-544.156 397.239,-535.515 392,-494 388.882,-469.291 389.769,-462.904 390,-438 390.222,-413.997 386.423,-407.564 391,-384 394.085,-368.119 396.347,-364.254 404,-350 405.801,-346.645 407.877,-343.237 410.047,-339.931"/>
<polygon fill="black" stroke="black" points="413.056,-341.735 415.884,-331.524 407.306,-337.742 413.056,-341.735"/>
</g>
<!-- linuxchix -->
<g id="node16" class="node"><title>linuxchix</title>
<ellipse fill="none" stroke="black" cx="526" cy="-772" rx="44.2946" ry="18"/>
<text text-anchor="middle" x="526" y="-768.3" font-family="Times,serif" font-size="14.00">linuxchix</text>
</g>
<!-- debianwomen -->
<g id="node19" class="node"><title>debianwomen</title>
<ellipse fill="none" stroke="black" cx="666" cy="-772" rx="60.1672" ry="18"/>
<text text-anchor="middle" x="666" y="-768.3" font-family="Times,serif" font-size="14.00">debianwomen</text>
</g>
<!-- linuxchix&#45;&gt;debianwomen -->
<g id="edge29" class="edge"><title>linuxchix&#45;&gt;debianwomen</title>
<path fill="none" stroke="black" d="M570.297,-772C578.625,-772 586.952,-772 595.28,-772"/>
<polygon fill="black" stroke="black" points="595.438,-775.5 605.438,-772 595.438,-768.5 595.438,-775.5"/>
</g>
<!-- linuxchix&#45;&gt;haecksen -->
<g id="edge35" class="edge"><title>linuxchix&#45;&gt;haecksen</title>
<path fill="none" stroke="black" d="M556.511,-758.928C623.107,-732.578 781.444,-669.93 855.518,-640.622"/>
<polygon fill="black" stroke="black" points="856.959,-643.815 864.97,-636.882 854.384,-637.306 856.959,-643.815"/>
</g>
<!-- geekfeminism -->
<g id="node24" class="node"><title>geekfeminism</title>
<ellipse fill="none" stroke="black" cx="540" cy="-550" rx="61.6163" ry="18"/>
<text text-anchor="middle" x="540" y="-546.3" font-family="Times,serif" font-size="14.00">geekfeminism</text>
</g>
<!-- linuxchix&#45;&gt;geekfeminism -->
<g id="edge12" class="edge"><title>linuxchix&#45;&gt;geekfeminism</title>
<path fill="none" stroke="black" d="M527.099,-753.737C529.521,-715.664 535.34,-624.231 538.263,-578.301"/>
<polygon fill="black" stroke="black" points="541.764,-578.385 538.907,-568.183 534.778,-577.94 541.764,-578.385"/>
</g>
<!-- gnomewomen -->
<g id="node17" class="node"><title>gnomewomen</title>
<ellipse fill="none" stroke="black" cx="1004" cy="-772" rx="61.6163" ry="18"/>
<text text-anchor="middle" x="1004" y="-768.3" font-family="Times,serif" font-size="14.00">gnomewomen</text>
</g>
<!-- opw -->
<g id="node21" class="node"><title>opw</title>
<ellipse fill="none" stroke="black" cx="1004" cy="-698" rx="27" ry="18"/>
<text text-anchor="middle" x="1004" y="-694.3" font-family="Times,serif" font-size="14.00">opw</text>
</g>
<!-- gnomewomen&#45;&gt;opw -->
<g id="edge33" class="edge"><title>gnomewomen&#45;&gt;opw</title>
<path fill="none" stroke="black" d="M1004,-753.937C1004,-745.807 1004,-735.876 1004,-726.705"/>
<polygon fill="black" stroke="black" points="1007.5,-726.441 1004,-716.441 1000.5,-726.441 1007.5,-726.441"/>
</g>
<!-- ubuntuwomen -->
<g id="node18" class="node"><title>ubuntuwomen</title>
<ellipse fill="none" stroke="black" cx="824" cy="-772" rx="61.6163" ry="18"/>
<text text-anchor="middle" x="824" y="-768.3" font-family="Times,serif" font-size="14.00">ubuntuwomen</text>
</g>
<!-- debianwomen&#45;&gt;gnomewomen -->
<g id="edge31" class="edge"><title>debianwomen&#45;&gt;gnomewomen</title>
<path fill="none" stroke="black" d="M697.574,-787.556C715.898,-795.713 739.698,-804.851 762,-809 830.601,-821.762 850.687,-823.224 919,-809 935.027,-805.663 951.738,-799.136 966.058,-792.482"/>
<polygon fill="black" stroke="black" points="967.607,-795.62 975.092,-788.122 964.565,-789.316 967.607,-795.62"/>
</g>
<!-- debianwomen&#45;&gt;ubuntuwomen -->
<g id="edge30" class="edge"><title>debianwomen&#45;&gt;ubuntuwomen</title>
<path fill="none" stroke="black" d="M726.484,-772C735.063,-772 743.642,-772 752.22,-772"/>
<polygon fill="black" stroke="black" points="752.291,-775.5 762.291,-772 752.291,-768.5 752.291,-775.5"/>
</g>
<!-- gsoc -->
<g id="node20" class="node"><title>gsoc</title>
<polygon fill="none" stroke="black" points="1364,-716 1310,-716 1310,-680 1364,-680 1364,-716"/>
<text text-anchor="middle" x="1337" y="-694.3" font-family="Times,serif" font-size="14.00">gsoc</text>
</g>
<!-- gsoc&#45;&gt;opw -->
<g id="edge34" class="edge"><title>gsoc&#45;&gt;opw</title>
<path fill="none" stroke="black" d="M1309.83,-698C1220.35,-698 1130.86,-698 1041.38,-698"/>
<polygon fill="black" stroke="black" points="1041.32,-694.5 1031.32,-698 1041.32,-701.5 1041.32,-694.5"/>
</g>
<!-- rgsoc -->
<g id="node41" class="node"><title>rgsoc</title>
<ellipse fill="none" stroke="black" cx="1319" cy="-166" rx="29.3479" ry="18"/>
<text text-anchor="middle" x="1319" y="-162.3" font-family="Times,serif" font-size="14.00">rgsoc</text>
</g>
<!-- gsoc&#45;&gt;rgsoc -->
<g id="edge42" class="edge"><title>gsoc&#45;&gt;rgsoc</title>
<path fill="none" stroke="black" d="M1337,-679.834C1337,-665.247 1337,-643.75 1337,-625 1337,-625 1337,-625 1337,-239 1337,-223.496 1333.02,-206.66 1328.81,-193.169"/>
<polygon fill="black" stroke="black" points="1332.09,-191.955 1325.6,-183.582 1325.45,-194.176 1332.09,-191.955"/>
</g>
<!-- owoot -->
<g id="node37" class="node"><title>owoot</title>
<ellipse fill="none" stroke="black" cx="860" cy="-314" rx="32.2457" ry="18"/>
<text text-anchor="middle" x="860" y="-310.3" font-family="Times,serif" font-size="14.00">owoot</text>
</g>
<!-- haecksen&#45;&gt;owoot -->
<g id="edge32" class="edge"><title>haecksen&#45;&gt;owoot</title>
<path fill="none" stroke="black" d="M881.768,-606.633C871.857,-592.702 860,-571.709 860,-551 860,-551 860,-551 860,-401 860,-381.404 860,-359.296 860,-342.402"/>
<polygon fill="black" stroke="black" points="863.5,-342.133 860,-332.133 856.5,-342.133 863.5,-342.133"/>
</g>
<!-- haecksen&#45;&gt;adacamp -->
<g id="edge37" class="edge"><title>haecksen&#45;&gt;adacamp</title>
<path fill="none" stroke="black" d="M932.627,-615.41C965.499,-606.327 1008,-587.521 1008,-551 1008,-551 1008,-551 1008,-313 1008,-273.466 887.855,-253.898 816.874,-245.787"/>
<polygon fill="black" stroke="black" points="817.102,-242.291 806.778,-244.673 816.334,-249.249 817.102,-242.291"/>
</g>
<!-- SFF CAHP -->
<g id="node23" class="node"><title>SFF CAHP</title>
<ellipse fill="none" stroke="black" cx="769" cy="-550" rx="51.0191" ry="18"/>
<text text-anchor="middle" x="769" y="-546.3" font-family="Times,serif" font-size="14.00">SFF CAHP</text>
</g>
<!-- backupproject -->
<g id="node32" class="node"><title>backupproject</title>
<ellipse fill="none" stroke="black" cx="734" cy="-476" rx="60.1672" ry="18"/>
<text text-anchor="middle" x="734" y="-472.3" font-family="Times,serif" font-size="14.00">backupproject</text>
</g>
<!-- SFF CAHP&#45;&gt;backupproject -->
<g id="edge22" class="edge"><title>SFF CAHP&#45;&gt;backupproject</title>
<path fill="none" stroke="black" d="M760.705,-531.937C756.521,-523.329 751.355,-512.702 746.685,-503.095"/>
<polygon fill="black" stroke="black" points="749.755,-501.404 742.235,-493.941 743.459,-504.464 749.755,-501.404"/>
</g>
<!-- GF/TAI AHP -->
<g id="node36" class="node"><title>GF/TAI AHP</title>
<ellipse fill="none" stroke="black" cx="617" cy="-314" rx="59.2173" ry="18"/>
<text text-anchor="middle" x="617" y="-310.3" font-family="Times,serif" font-size="14.00">GF/TAI AHP</text>
</g>
<!-- SFF CAHP&#45;&gt;GF/TAI AHP -->
<g id="edge20" class="edge"><title>SFF CAHP&#45;&gt;GF/TAI AHP</title>
<path fill="none" stroke="black" d="M783.239,-532.479C797.402,-513.922 815.371,-483.115 803,-458 773.259,-397.619 704.414,-355.607 659.34,-333.408"/>
<polygon fill="black" stroke="black" points="660.635,-330.147 650.105,-328.972 657.604,-336.456 660.635,-330.147"/>
</g>
<!-- geekfeminism&#45;&gt;adainitiative -->
<g id="edge15" class="edge"><title>geekfeminism&#45;&gt;adainitiative</title>
<path fill="none" stroke="black" d="M486.609,-540.965C458.462,-533.72 426.273,-519.986 409,-494 378.014,-447.385 400.14,-378.441 416.252,-341.186"/>
<polygon fill="black" stroke="black" points="419.475,-342.552 420.385,-331.997 413.091,-339.681 419.475,-342.552"/>
</g>
<!-- geekfeminism&#45;&gt;GF/TAI AHP -->
<g id="edge18" class="edge"><title>geekfeminism&#45;&gt;GF/TAI AHP</title>
<path fill="none" stroke="black" d="M576.09,-535.147C594.372,-526.215 615.154,-512.726 627,-494 656.658,-447.116 640.169,-378.744 627.416,-341.534"/>
<polygon fill="black" stroke="black" points="630.634,-340.138 623.96,-331.91 624.046,-342.504 630.634,-340.138"/>
</g>
<!-- oscon2009 -->
<g id="node27" class="node"><title>oscon2009</title>
<ellipse fill="none" stroke="black" cx="222" cy="-476" rx="48.6179" ry="18"/>
<text text-anchor="middle" x="222" y="-472.3" font-family="Times,serif" font-size="14.00">oscon2009</text>
</g>
<!-- dreamwidth&#45;&gt;oscon2009 -->
<g id="edge46" class="edge"><title>dreamwidth&#45;&gt;oscon2009</title>
<path fill="none" stroke="black" d="M222,-531.937C222,-523.807 222,-513.876 222,-504.705"/>
<polygon fill="black" stroke="black" points="225.5,-504.441 222,-494.441 218.5,-504.441 225.5,-504.441"/>
</g>
<!-- otw&#45;&gt;oscon2009 -->
<g id="edge47" class="edge"><title>otw&#45;&gt;oscon2009</title>
<path fill="none" stroke="black" d="M141.52,-536.128C155.773,-525.657 176.187,-510.658 192.889,-498.388"/>
<polygon fill="black" stroke="black" points="195.245,-501 201.232,-492.258 191.101,-495.359 195.245,-501"/>
</g>
<!-- oscon2009&#45;&gt;geekfeminism -->
<g id="edge48" class="edge"><title>oscon2009&#45;&gt;geekfeminism</title>
<path fill="none" stroke="black" d="M261.179,-486.705C292.265,-494.335 336.849,-505.121 376,-514 410.843,-521.902 449.967,-530.271 481.261,-536.843"/>
<polygon fill="black" stroke="black" points="480.626,-540.286 491.131,-538.911 482.061,-533.435 480.626,-540.286"/>
</g>
<!-- racefail&#45;&gt;geekfeminism -->
<g id="edge13" class="edge"><title>racefail&#45;&gt;geekfeminism</title>
<path fill="none" stroke="black" d="M560.414,-492.468C557.271,-501.173 553.258,-512.285 549.624,-522.35"/>
<polygon fill="black" stroke="black" points="546.266,-521.343 546.162,-531.937 552.85,-523.72 546.266,-521.343"/>
</g>
<!-- couchdb -->
<g id="node29" class="node"><title>couchdb</title>
<polygon fill="none" stroke="black" points="1093,-494 1036.52,-476 1093,-458 1149.48,-476 1093,-494"/>
<text text-anchor="middle" x="1093" y="-472.3" font-family="Times,serif" font-size="14.00">couchdb</text>
</g>
<!-- railsbridge -->
<g id="node30" class="node"><title>railsbridge</title>
<ellipse fill="none" stroke="black" cx="1234" cy="-476" rx="48.1437" ry="18"/>
<text text-anchor="middle" x="1234" y="-472.3" font-family="Times,serif" font-size="14.00">railsbridge</text>
</g>
<!-- couchdb&#45;&gt;railsbridge -->
<g id="edge38" class="edge"><title>couchdb&#45;&gt;railsbridge</title>
<path fill="none" stroke="black" d="M1149.73,-476C1158.41,-476 1167.08,-476 1175.76,-476"/>
<polygon fill="black" stroke="black" points="1175.94,-479.5 1185.94,-476 1175.94,-472.5 1175.94,-479.5"/>
</g>
<!-- railsgirls -->
<g id="node39" class="node"><title>railsgirls</title>
<ellipse fill="none" stroke="black" cx="1267" cy="-240" rx="41.394" ry="18"/>
<text text-anchor="middle" x="1267" y="-236.3" font-family="Times,serif" font-size="14.00">railsgirls</text>
</g>
<!-- railsbridge&#45;&gt;railsgirls -->
<g id="edge40" class="edge"><title>railsbridge&#45;&gt;railsgirls</title>
<path fill="none" stroke="black" d="M1239.06,-457.799C1242.05,-447.024 1245.7,-432.802 1248,-420 1257.58,-366.617 1262.9,-303.349 1265.34,-268.132"/>
<polygon fill="black" stroke="black" points="1268.83,-268.356 1266,-258.145 1261.85,-267.89 1268.83,-268.356"/>
</g>
<!-- pystar -->
<g id="node45" class="node"><title>pystar</title>
<ellipse fill="none" stroke="black" cx="1207" cy="-402" rx="32.2457" ry="18"/>
<text text-anchor="middle" x="1207" y="-398.3" font-family="Times,serif" font-size="14.00">pystar</text>
</g>
<!-- railsbridge&#45;&gt;pystar -->
<g id="edge39" class="edge"><title>railsbridge&#45;&gt;pystar</title>
<path fill="none" stroke="black" d="M1227.6,-457.937C1224.41,-449.419 1220.47,-438.923 1216.9,-429.395"/>
<polygon fill="black" stroke="black" points="1220.14,-428.075 1213.35,-419.941 1213.59,-430.533 1220.14,-428.075"/>
</g>
<!-- osbp -->
<g id="node31" class="node"><title>osbp</title>
<polygon fill="none" stroke="black" points="457,-494 418.594,-476 457,-458 495.406,-476 457,-494"/>
<text text-anchor="middle" x="457" y="-472.3" font-family="Times,serif" font-size="14.00">osbp</text>
</g>
<!-- osbp&#45;&gt;backupproject -->
<g id="edge21" class="edge"><title>osbp&#45;&gt;backupproject</title>
<path fill="none" stroke="black" d="M470.38,-487.915C481.267,-496.763 497.484,-508.11 514,-513 572.383,-530.288 591.445,-525.673 651,-513 666.547,-509.692 682.712,-503.257 696.601,-496.668"/>
<polygon fill="black" stroke="black" points="698.399,-499.684 705.817,-492.119 695.301,-493.407 698.399,-499.684"/>
</g>
<!-- osbridge -->
<g id="node33" class="node"><title>osbridge</title>
<ellipse fill="none" stroke="black" cx="929" cy="-476" rx="40.4202" ry="18"/>
<text text-anchor="middle" x="929" y="-472.3" font-family="Times,serif" font-size="14.00">osbridge</text>
</g>
<!-- apachecon assault -->
<g id="node34" class="node"><title>apachecon assault</title>
<polygon fill="none" stroke="black" points="523,-420 418.823,-402 523,-384 627.177,-402 523,-420"/>
<text text-anchor="middle" x="523" y="-398.3" font-family="Times,serif" font-size="14.00">apachecon assault</text>
</g>
<!-- apachecon assault&#45;&gt;adainitiative -->
<g id="edge14" class="edge"><title>apachecon assault&#45;&gt;adainitiative</title>
<path fill="none" stroke="black" d="M507.054,-386.411C492.65,-373.233 471.201,-353.61 454.431,-338.267"/>
<polygon fill="black" stroke="black" points="456.366,-335.293 446.626,-331.125 451.641,-340.458 456.366,-335.293"/>
</g>
<!-- apachecon assault&#45;&gt;GF/TAI AHP -->
<g id="edge17" class="edge"><title>apachecon assault&#45;&gt;GF/TAI AHP</title>
<path fill="none" stroke="black" d="M538.946,-386.411C553.26,-373.315 574.531,-353.855 591.254,-338.555"/>
<polygon fill="black" stroke="black" points="594.032,-340.757 599.048,-331.424 589.307,-335.592 594.032,-340.757"/>
</g>
<!-- adainitiative&#45;&gt;GF/TAI AHP -->
<g id="edge19" class="edge"><title>adainitiative&#45;&gt;GF/TAI AHP</title>
<path fill="none" stroke="black" d="M482.609,-314C504.211,-314 525.814,-314 547.416,-314"/>
<polygon fill="black" stroke="black" points="547.679,-317.5 557.679,-314 547.679,-310.5 547.679,-317.5"/>
</g>
<!-- adainitiative&#45;&gt;adacamp -->
<g id="edge24" class="edge"><title>adainitiative&#45;&gt;adacamp</title>
<path fill="none" stroke="black" d="M476.557,-305.696C533.469,-296.526 631.433,-279.374 714,-258 717.414,-257.116 720.931,-256.131 724.45,-255.093"/>
<polygon fill="black" stroke="black" points="725.758,-258.353 734.286,-252.066 723.699,-251.662 725.758,-258.353"/>
</g>
<!-- PyCon AHP -->
<g id="node43" class="node"><title>PyCon AHP</title>
<ellipse fill="none" stroke="black" cx="286" cy="-240" rx="54.3924" ry="18"/>
<text text-anchor="middle" x="286" y="-236.3" font-family="Times,serif" font-size="14.00">PyCon AHP</text>
</g>
<!-- GF/TAI AHP&#45;&gt;PyCon AHP -->
<g id="edge23" class="edge"><title>GF/TAI AHP&#45;&gt;PyCon AHP</title>
<path fill="none" stroke="black" d="M570.278,-302.837C509.636,-289.646 404.026,-266.673 340.011,-252.749"/>
<polygon fill="black" stroke="black" points="340.623,-249.3 330.107,-250.594 339.135,-256.14 340.623,-249.3"/>
</g>
<!-- adacamp&#45;&gt;osbridge -->
<g id="edge26" class="edge"><title>adacamp&#45;&gt;osbridge</title>
<path fill="none" stroke="black" d="M805.397,-246.426C836.265,-252.837 877.754,-266.631 901,-296 919.215,-319.013 925.753,-403.592 927.958,-447.75"/>
<polygon fill="black" stroke="black" points="924.464,-447.963 928.42,-457.792 931.457,-447.641 924.464,-447.963"/>
<text text-anchor="middle" x="956.5" y="-354.3" font-family="Times,serif" font-size="14.00">a11y policies</text>
</g>
<!-- doubleunion -->
<g id="node40" class="node"><title>doubleunion</title>
<ellipse fill="none" stroke="black" cx="649" cy="-166" rx="54.3924" ry="18"/>
<text text-anchor="middle" x="649" y="-162.3" font-family="Times,serif" font-size="14.00">doubleunion</text>
</g>
<!-- adacamp&#45;&gt;doubleunion -->
<g id="edge27" class="edge"><title>adacamp&#45;&gt;doubleunion</title>
<path fill="none" stroke="black" d="M742.885,-224.775C725.559,-214.113 701.601,-199.37 682.224,-187.445"/>
<polygon fill="black" stroke="black" points="684.034,-184.45 673.683,-182.19 680.365,-190.411 684.034,-184.45"/>
</g>
<!-- railsgirls&#45;&gt;rgsoc -->
<g id="edge41" class="edge"><title>railsgirls&#45;&gt;rgsoc</title>
<path fill="none" stroke="black" d="M1278.8,-222.662C1285.54,-213.327 1294.12,-201.447 1301.62,-191.062"/>
<polygon fill="black" stroke="black" points="1304.59,-192.934 1307.6,-182.778 1298.91,-188.836 1304.59,-192.934"/>
</g>
<!-- mvc -->
<g id="node42" class="node"><title>mvc</title>
<ellipse fill="none" stroke="black" cx="124" cy="-92" rx="27" ry="18"/>
<text text-anchor="middle" x="124" y="-88.3" font-family="Times,serif" font-size="14.00">mvc</text>
</g>
<!-- mothershiphackermoms -->
<g id="node44" class="node"><title>mothershiphackermoms</title>
<ellipse fill="none" stroke="black" cx="609" cy="-240" rx="96.2631" ry="18"/>
<text text-anchor="middle" x="609" y="-236.3" font-family="Times,serif" font-size="14.00">mothershiphackermoms</text>
</g>
<!-- mothershiphackermoms&#45;&gt;doubleunion -->
<g id="edge28" class="edge"><title>mothershiphackermoms&#45;&gt;doubleunion</title>
<path fill="none" stroke="black" d="M618.479,-221.937C623.311,-213.239 629.289,-202.48 634.67,-192.795"/>
<polygon fill="black" stroke="black" points="637.792,-194.382 639.589,-183.941 631.673,-190.982 637.792,-194.382"/>
</g>
</g>
</svg>
