<?xml version="1.0" encoding="UTF-8" standalone="no"?>
<!DOCTYPE svg PUBLIC "-//W3C//DTD SVG 1.1//EN"
 "http://www.w3.org/Graphics/SVG/1.1/DTD/svg11.dtd">
<!-- Generated by graphviz version 2.34.0 (20140110.0949)
 -->
<!-- Title: G Pages: 1 -->
<svg width="1409pt" height="872pt"
 viewBox="0.00 0.00 1409.00 872.00" xmlns="http://www.w3.org/2000/svg" xmlns:xlink="http://www.w3.org/1999/xlink">
<g id="graph0" class="graph" transform="scale(1 1) rotate(0) translate(4 868)">
<title>G</title>
<polygon fill="white" stroke="white" points="-4,4 -4,-868 1405,-868 1405,4 -4,4"/>
<!-- past -->
<g id="node1" class="node"><title>past</title>
<text text-anchor="middle" x="52" y="-842.2" font-family="Times,serif" font-size="16.00">past</text>
</g>
<!-- 2000&#45;2003 -->
<g id="node2" class="node"><title>2000&#45;2003</title>
<text text-anchor="middle" x="52" y="-768.2" font-family="Times,serif" font-size="16.00">2000&#45;2003</text>
</g>
<!-- past&#45;&gt;2000&#45;2003 -->
<g id="edge1" class="edge"><title>past&#45;&gt;2000&#45;2003</title>
<path fill="none" stroke="black" d="M52,-827.937C52,-819.807 52,-809.876 52,-800.705"/>
<polygon fill="black" stroke="black" points="55.5001,-800.441 52,-790.441 48.5001,-800.441 55.5001,-800.441"/>
</g>
<!-- 2004&#45;2006 -->
<g id="node3" class="node"><title>2004&#45;2006</title>
<text text-anchor="middle" x="52" y="-694.2" font-family="Times,serif" font-size="16.00">2004&#45;2006</text>
</g>
<!-- 2000&#45;2003&#45;&gt;2004&#45;2006 -->
<g id="edge2" class="edge"><title>2000&#45;2003&#45;&gt;2004&#45;2006</title>
<path fill="none" stroke="black" d="M52,-753.937C52,-745.807 52,-735.876 52,-726.705"/>
<polygon fill="black" stroke="black" points="55.5001,-726.441 52,-716.441 48.5001,-726.441 55.5001,-726.441"/>
</g>
<!-- 2007 -->
<g id="node4" class="node"><title>2007</title>
<text text-anchor="middle" x="52" y="-620.2" font-family="Times,serif" font-size="16.00">2007</text>
</g>
<!-- 2004&#45;2006&#45;&gt;2007 -->
<g id="edge3" class="edge"><title>2004&#45;2006&#45;&gt;2007</title>
<path fill="none" stroke="black" d="M52,-679.937C52,-671.807 52,-661.876 52,-652.705"/>
<polygon fill="black" stroke="black" points="55.5001,-652.441 52,-642.441 48.5001,-652.441 55.5001,-652.441"/>
</g>
<!-- 2008 -->
<g id="node5" class="node"><title>2008</title>
<text text-anchor="middle" x="52" y="-546.2" font-family="Times,serif" font-size="16.00">2008</text>
</g>
<!-- 2007&#45;&gt;2008 -->
<g id="edge4" class="edge"><title>2007&#45;&gt;2008</title>
<path fill="none" stroke="black" d="M52,-605.937C52,-597.807 52,-587.876 52,-578.705"/>
<polygon fill="black" stroke="black" points="55.5001,-578.441 52,-568.441 48.5001,-578.441 55.5001,-578.441"/>
</g>
<!-- 2009 -->
<g id="node6" class="node"><title>2009</title>
<text text-anchor="middle" x="52" y="-472.2" font-family="Times,serif" font-size="16.00">2009</text>
</g>
<!-- 2008&#45;&gt;2009 -->
<g id="edge5" class="edge"><title>2008&#45;&gt;2009</title>
<path fill="none" stroke="black" d="M52,-531.937C52,-523.807 52,-513.876 52,-504.705"/>
<polygon fill="black" stroke="black" points="55.5001,-504.441 52,-494.441 48.5001,-504.441 55.5001,-504.441"/>
</g>
<!-- 2010 -->
<g id="node7" class="node"><title>2010</title>
<text text-anchor="middle" x="52" y="-398.2" font-family="Times,serif" font-size="16.00">2010</text>
</g>
<!-- 2009&#45;&gt;2010 -->
<g id="edge6" class="edge"><title>2009&#45;&gt;2010</title>
<path fill="none" stroke="black" d="M52,-457.937C52,-449.807 52,-439.876 52,-430.705"/>
<polygon fill="black" stroke="black" points="55.5001,-430.441 52,-420.441 48.5001,-430.441 55.5001,-430.441"/>
</g>
<!-- 2011 -->
<g id="node8" class="node"><title>2011</title>
<text text-anchor="middle" x="52" y="-310.2" font-family="Times,serif" font-size="16.00">2011</text>
</g>
<!-- 2010&#45;&gt;2011 -->
<g id="edge7" class="edge"><title>2010&#45;&gt;2011</title>
<path fill="none" stroke="black" d="M52,-383.597C52,-371.746 52,-355.817 52,-342.292"/>
<polygon fill="black" stroke="black" points="55.5001,-342.084 52,-332.084 48.5001,-342.084 55.5001,-342.084"/>
</g>
<!-- 2012 -->
<g id="node9" class="node"><title>2012</title>
<text text-anchor="middle" x="52" y="-236.2" font-family="Times,serif" font-size="16.00">2012</text>
</g>
<!-- 2011&#45;&gt;2012 -->
<g id="edge8" class="edge"><title>2011&#45;&gt;2012</title>
<path fill="none" stroke="black" d="M52,-295.937C52,-287.807 52,-277.876 52,-268.705"/>
<polygon fill="black" stroke="black" points="55.5001,-268.441 52,-258.441 48.5001,-268.441 55.5001,-268.441"/>
</g>
<!-- 2013 -->
<g id="node10" class="node"><title>2013</title>
<text text-anchor="middle" x="52" y="-162.2" font-family="Times,serif" font-size="16.00">2013</text>
</g>
<!-- 2012&#45;&gt;2013 -->
<g id="edge9" class="edge"><title>2012&#45;&gt;2013</title>
<path fill="none" stroke="black" d="M52,-221.937C52,-213.807 52,-203.876 52,-194.705"/>
<polygon fill="black" stroke="black" points="55.5001,-194.441 52,-184.441 48.5001,-194.441 55.5001,-194.441"/>
</g>
<!-- 2014 -->
<g id="node11" class="node"><title>2014</title>
<text text-anchor="middle" x="52" y="-88.2" font-family="Times,serif" font-size="16.00">2014</text>
</g>
<!-- 2013&#45;&gt;2014 -->
<g id="edge10" class="edge"><title>2013&#45;&gt;2014</title>
<path fill="none" stroke="black" d="M52,-147.937C52,-139.807 52,-129.876 52,-120.705"/>
<polygon fill="black" stroke="black" points="55.5001,-120.441 52,-110.441 48.5001,-120.441 55.5001,-120.441"/>
</g>
<!-- unknowndate -->
<g id="node12" class="node"><title>unknowndate</title>
<text text-anchor="middle" x="52" y="-14.2" font-family="Times,serif" font-size="16.00">unknowndate</text>
</g>
<!-- 2014&#45;&gt;unknowndate -->
<g id="edge11" class="edge"><title>2014&#45;&gt;unknowndate</title>
<path fill="none" stroke="black" d="M52,-73.937C52,-65.8072 52,-55.8761 52,-46.7047"/>
<polygon fill="black" stroke="black" points="55.5001,-46.4406 52,-36.4407 48.5001,-46.4407 55.5001,-46.4406"/>
</g>
<!-- livejournal -->
<g id="node13" class="node"><title>livejournal</title>
<polygon fill="none" stroke="black" points="182.25,-864 107.75,-864 107.75,-828 182.25,-828 182.25,-864"/>
<text text-anchor="middle" x="145" y="-842.3" font-family="Times,serif" font-size="14.00">livejournal</text>
</g>
<!-- dreamwidth -->
<g id="node25" class="node"><title>dreamwidth</title>
<ellipse fill="none" stroke="black" cx="227" cy="-550" rx="52.9443" ry="18"/>
<text text-anchor="middle" x="227" y="-546.3" font-family="Times,serif" font-size="14.00">dreamwidth</text>
</g>
<!-- livejournal&#45;&gt;dreamwidth -->
<g id="edge46" class="edge"><title>livejournal&#45;&gt;dreamwidth</title>
<path fill="none" stroke="black" d="M158.438,-827.723C167.941,-813.763 179,-793.183 179,-773 179,-773 179,-773 179,-623 179,-604.712 189.854,-587.536 201.239,-574.549"/>
<polygon fill="black" stroke="black" points="204.006,-576.716 208.305,-567.032 198.905,-571.922 204.006,-576.716"/>
</g>
<!-- otw -->
<g id="node26" class="node"><title>otw</title>
<ellipse fill="none" stroke="black" cx="129" cy="-550" rx="27" ry="18"/>
<text text-anchor="middle" x="129" y="-546.3" font-family="Times,serif" font-size="14.00">otw</text>
</g>
<!-- livejournal&#45;&gt;otw -->
<g id="edge47" class="edge"><title>livejournal&#45;&gt;otw</title>
<path fill="none" stroke="black" d="M142.021,-827.893C139.747,-813.342 137,-791.865 137,-773 137,-773 137,-773 137,-623 137,-608.114 135.29,-591.602 133.451,-578.15"/>
<polygon fill="black" stroke="black" points="136.892,-577.493 131.979,-568.107 129.966,-578.509 136.892,-577.493"/>
</g>
<!-- wiscon -->
<g id="node14" class="node"><title>wiscon</title>
<ellipse fill="none" stroke="black" cx="743" cy="-846" rx="35.6194" ry="18"/>
<text text-anchor="middle" x="743" y="-842.3" font-family="Times,serif" font-size="14.00">wiscon</text>
</g>
<!-- racefail -->
<g id="node28" class="node"><title>racefail</title>
<polygon fill="none" stroke="black" points="585,-494 532.911,-476 585,-458 637.089,-476 585,-494"/>
<text text-anchor="middle" x="585" y="-472.3" font-family="Times,serif" font-size="14.00">racefail</text>
</g>
<!-- wiscon&#45;&gt;racefail -->
<g id="edge45" class="edge"><title>wiscon&#45;&gt;racefail</title>
<path fill="none" stroke="black" d="M734.436,-828.314C727.896,-814.02 720,-792.683 720,-773 720,-773 720,-773 720,-586 720,-534.934 660.802,-503.703 620.807,-488.429"/>
<polygon fill="black" stroke="black" points="621.944,-485.118 611.35,-484.975 619.542,-491.694 621.944,-485.118"/>
</g>
<!-- adacamp -->
<g id="node39" class="node"><title>adacamp</title>
<ellipse fill="none" stroke="black" cx="489" cy="-240" rx="42.3701" ry="18"/>
<text text-anchor="middle" x="489" y="-236.3" font-family="Times,serif" font-size="14.00">adacamp</text>
</g>
<!-- wiscon&#45;&gt;adacamp -->
<g id="edge27" class="edge"><title>wiscon&#45;&gt;adacamp</title>
<path fill="none" stroke="black" d="M751.564,-828.314C758.104,-814.02 766,-792.683 766,-773 766,-773 766,-773 766,-586 766,-508.417 735.639,-493.894 712,-420 694.397,-364.974 714.142,-336.559 673,-296 637.869,-261.367 581.882,-248.395 540.883,-243.614"/>
<polygon fill="black" stroke="black" points="541.112,-240.119 530.804,-242.567 540.389,-247.082 541.112,-240.119"/>
<text text-anchor="middle" x="802.5" y="-546.3" font-family="Times,serif" font-size="14.00">a11y policies</text>
</g>
<!-- linuxconfau -->
<g id="node15" class="node"><title>linuxconfau</title>
<polygon fill="none" stroke="black" points="485.25,-864 404.75,-864 404.75,-828 485.25,-828 485.25,-864"/>
<text text-anchor="middle" x="445" y="-842.3" font-family="Times,serif" font-size="14.00">linuxconfau</text>
</g>
<!-- haecksen -->
<g id="node22" class="node"><title>haecksen</title>
<ellipse fill="none" stroke="black" cx="301" cy="-624" rx="42.3456" ry="18"/>
<text text-anchor="middle" x="301" y="-620.3" font-family="Times,serif" font-size="14.00">haecksen</text>
</g>
<!-- linuxconfau&#45;&gt;haecksen -->
<g id="edge38" class="edge"><title>linuxconfau&#45;&gt;haecksen</title>
<path fill="none" stroke="black" d="M404.349,-839.882C350.705,-832.197 260.742,-815.77 241,-790 207.707,-746.543 250.661,-682.849 279.263,-648.703"/>
<polygon fill="black" stroke="black" points="281.948,-650.949 285.819,-641.086 276.643,-646.383 281.948,-650.949"/>
</g>
<!-- adainitiative -->
<g id="node36" class="node"><title>adainitiative</title>
<ellipse fill="none" stroke="black" cx="611" cy="-314" rx="53.4184" ry="18"/>
<text text-anchor="middle" x="611" y="-310.3" font-family="Times,serif" font-size="14.00">adainitiative</text>
</g>
<!-- linuxconfau&#45;&gt;adainitiative -->
<g id="edge16" class="edge"><title>linuxconfau&#45;&gt;adainitiative</title>
<path fill="none" stroke="black" d="M485.472,-841.106C553.162,-833.463 682,-813.584 682,-773 682,-773 682,-773 682,-586 682,-553.108 688.733,-544.388 683,-512 671.697,-448.144 641.277,-377.797 623.807,-340.892"/>
<polygon fill="black" stroke="black" points="626.939,-339.329 619.457,-331.828 620.629,-342.357 626.939,-339.329"/>
</g>
<!-- linuxchix -->
<g id="node16" class="node"><title>linuxchix</title>
<ellipse fill="none" stroke="black" cx="294" cy="-772" rx="44.2946" ry="18"/>
<text text-anchor="middle" x="294" y="-768.3" font-family="Times,serif" font-size="14.00">linuxchix</text>
</g>
<!-- debianwomen -->
<g id="node19" class="node"><title>debianwomen</title>
<ellipse fill="none" stroke="black" cx="434" cy="-772" rx="60.1672" ry="18"/>
<text text-anchor="middle" x="434" y="-768.3" font-family="Times,serif" font-size="14.00">debianwomen</text>
</g>
<!-- linuxchix&#45;&gt;debianwomen -->
<g id="edge31" class="edge"><title>linuxchix&#45;&gt;debianwomen</title>
<path fill="none" stroke="black" d="M338.297,-772C346.625,-772 354.952,-772 363.28,-772"/>
<polygon fill="black" stroke="black" points="363.438,-775.5 373.438,-772 363.438,-768.5 363.438,-775.5"/>
</g>
<!-- linuxchix&#45;&gt;haecksen -->
<g id="edge37" class="edge"><title>linuxchix&#45;&gt;haecksen</title>
<path fill="none" stroke="black" d="M294.817,-753.966C296.012,-729.045 298.249,-682.374 299.68,-652.537"/>
<polygon fill="black" stroke="black" points="303.184,-652.534 300.167,-642.378 296.192,-652.199 303.184,-652.534"/>
</g>
<!-- geekfeminism -->
<g id="node24" class="node"><title>geekfeminism</title>
<ellipse fill="none" stroke="black" cx="555" cy="-550" rx="61.6163" ry="18"/>
<text text-anchor="middle" x="555" y="-546.3" font-family="Times,serif" font-size="14.00">geekfeminism</text>
</g>
<!-- linuxchix&#45;&gt;geekfeminism -->
<g id="edge12" class="edge"><title>linuxchix&#45;&gt;geekfeminism</title>
<path fill="none" stroke="black" d="M312.353,-755.53C357.604,-717.388 474.695,-618.69 527.935,-573.814"/>
<polygon fill="black" stroke="black" points="530.22,-576.465 535.611,-567.343 525.709,-571.112 530.22,-576.465"/>
</g>
<!-- gnomewomen -->
<g id="node17" class="node"><title>gnomewomen</title>
<ellipse fill="none" stroke="black" cx="936" cy="-772" rx="61.6163" ry="18"/>
<text text-anchor="middle" x="936" y="-768.3" font-family="Times,serif" font-size="14.00">gnomewomen</text>
</g>
<!-- opw -->
<g id="node21" class="node"><title>opw</title>
<ellipse fill="none" stroke="black" cx="1177" cy="-698" rx="27" ry="18"/>
<text text-anchor="middle" x="1177" y="-694.3" font-family="Times,serif" font-size="14.00">opw</text>
</g>
<!-- gnomewomen&#45;&gt;opw -->
<g id="edge35" class="edge"><title>gnomewomen&#45;&gt;opw</title>
<path fill="none" stroke="black" d="M978.401,-758.777C1016.35,-747.78 1073.47,-731.079 1123,-716 1129.63,-713.981 1136.71,-711.783 1143.49,-709.659"/>
<polygon fill="black" stroke="black" points="1144.62,-712.972 1153.11,-706.629 1142.52,-706.295 1144.62,-712.972"/>
</g>
<!-- ubuntuwomen -->
<g id="node18" class="node"><title>ubuntuwomen</title>
<ellipse fill="none" stroke="black" cx="592" cy="-772" rx="61.6163" ry="18"/>
<text text-anchor="middle" x="592" y="-768.3" font-family="Times,serif" font-size="14.00">ubuntuwomen</text>
</g>
<!-- debianwomen&#45;&gt;gnomewomen -->
<g id="edge33" class="edge"><title>debianwomen&#45;&gt;gnomewomen</title>
<path fill="none" stroke="black" d="M465.574,-787.556C483.898,-795.713 507.698,-804.851 530,-809 635.304,-828.591 664.54,-820.79 771,-809 808.519,-804.845 849.975,-795.529 881.948,-787.285"/>
<polygon fill="black" stroke="black" points="883.194,-790.577 891.978,-784.654 881.418,-783.806 883.194,-790.577"/>
</g>
<!-- debianwomen&#45;&gt;ubuntuwomen -->
<g id="edge32" class="edge"><title>debianwomen&#45;&gt;ubuntuwomen</title>
<path fill="none" stroke="black" d="M494.484,-772C503.063,-772 511.642,-772 520.22,-772"/>
<polygon fill="black" stroke="black" points="520.291,-775.5 530.291,-772 520.291,-768.5 520.291,-775.5"/>
</g>
<!-- gsoc -->
<g id="node20" class="node"><title>gsoc</title>
<polygon fill="none" stroke="black" points="1114,-716 1060,-716 1060,-680 1114,-680 1114,-716"/>
<text text-anchor="middle" x="1087" y="-694.3" font-family="Times,serif" font-size="14.00">gsoc</text>
</g>
<!-- gsoc&#45;&gt;opw -->
<g id="edge36" class="edge"><title>gsoc&#45;&gt;opw</title>
<path fill="none" stroke="black" d="M1114.07,-698C1122.67,-698 1131.27,-698 1139.87,-698"/>
<polygon fill="black" stroke="black" points="1139.96,-701.5 1149.96,-698 1139.96,-694.5 1139.96,-701.5"/>
</g>
<!-- rgsoc -->
<g id="node44" class="node"><title>rgsoc</title>
<ellipse fill="none" stroke="black" cx="1364" cy="-166" rx="29.3479" ry="18"/>
<text text-anchor="middle" x="1364" y="-162.3" font-family="Times,serif" font-size="14.00">rgsoc</text>
</g>
<!-- gsoc&#45;&gt;rgsoc -->
<g id="edge44" class="edge"><title>gsoc&#45;&gt;rgsoc</title>
<path fill="none" stroke="black" d="M1114.05,-687.923C1122.61,-685.199 1132.16,-682.321 1141,-680 1198.12,-665.005 1401,-684.056 1401,-625 1401,-625 1401,-625 1401,-239 1401,-221.361 1392.11,-203.712 1383.04,-190.302"/>
<polygon fill="black" stroke="black" points="1385.84,-188.202 1377.15,-182.145 1380.17,-192.301 1385.84,-188.202"/>
</g>
<!-- owoot -->
<g id="node38" class="node"><title>owoot</title>
<ellipse fill="none" stroke="black" cx="465" cy="-314" rx="32.2457" ry="18"/>
<text text-anchor="middle" x="465" y="-310.3" font-family="Times,serif" font-size="14.00">owoot</text>
</g>
<!-- haecksen&#45;&gt;owoot -->
<g id="edge34" class="edge"><title>haecksen&#45;&gt;owoot</title>
<path fill="none" stroke="black" d="M343.234,-622.044C391.826,-618.435 465,-604.173 465,-551 465,-551 465,-551 465,-401 465,-381.404 465,-359.296 465,-342.402"/>
<polygon fill="black" stroke="black" points="468.5,-342.133 465,-332.133 461.5,-342.133 468.5,-342.133"/>
</g>
<!-- haecksen&#45;&gt;adacamp -->
<g id="edge39" class="edge"><title>haecksen&#45;&gt;adacamp</title>
<path fill="none" stroke="black" d="M303.607,-605.879C305.597,-591.32 308,-569.838 308,-551 308,-551 308,-551 308,-313 308,-305.538 394.051,-274.136 447.487,-255.355"/>
<polygon fill="black" stroke="black" points="448.776,-258.612 457.057,-252.004 446.463,-252.006 448.776,-258.612"/>
</g>
<!-- SFF CAHP -->
<g id="node23" class="node"><title>SFF CAHP</title>
<ellipse fill="none" stroke="black" cx="1076" cy="-550" rx="51.0191" ry="18"/>
<text text-anchor="middle" x="1076" y="-546.3" font-family="Times,serif" font-size="14.00">SFF CAHP</text>
</g>
<!-- backupproject -->
<g id="node32" class="node"><title>backupproject</title>
<ellipse fill="none" stroke="black" cx="1313" cy="-476" rx="60.1672" ry="18"/>
<text text-anchor="middle" x="1313" y="-472.3" font-family="Times,serif" font-size="14.00">backupproject</text>
</g>
<!-- SFF CAHP&#45;&gt;backupproject -->
<g id="edge22" class="edge"><title>SFF CAHP&#45;&gt;backupproject</title>
<path fill="none" stroke="black" d="M1113.29,-537.671C1153.53,-525.447 1217.83,-505.913 1262.56,-492.324"/>
<polygon fill="black" stroke="black" points="1263.8,-495.604 1272.35,-489.348 1261.77,-488.906 1263.8,-495.604"/>
</g>
<!-- GF/TAI AHP -->
<g id="node37" class="node"><title>GF/TAI AHP</title>
<ellipse fill="none" stroke="black" cx="848" cy="-314" rx="59.2173" ry="18"/>
<text text-anchor="middle" x="848" y="-310.3" font-family="Times,serif" font-size="14.00">GF/TAI AHP</text>
</g>
<!-- SFF CAHP&#45;&gt;GF/TAI AHP -->
<g id="edge20" class="edge"><title>SFF CAHP&#45;&gt;GF/TAI AHP</title>
<path fill="none" stroke="black" d="M1054.08,-533.688C1041.31,-523.723 1025.83,-509.689 1016,-494 980.548,-437.393 1020.63,-396.822 973,-350 957.461,-334.725 935.829,-325.996 914.923,-321.047"/>
<polygon fill="black" stroke="black" points="915.579,-317.608 905.072,-318.969 914.134,-324.458 915.579,-317.608"/>
</g>
<!-- geekfeminism&#45;&gt;adainitiative -->
<g id="edge15" class="edge"><title>geekfeminism&#45;&gt;adainitiative</title>
<path fill="none" stroke="black" d="M542.492,-532.161C535.554,-521.75 527.617,-507.783 524,-494 519.939,-478.524 519.682,-473.406 524,-458 536.81,-412.299 568.686,-366.707 590.086,-339.686"/>
<polygon fill="black" stroke="black" points="593.066,-341.566 596.629,-331.589 587.622,-337.167 593.066,-341.566"/>
</g>
<!-- geekfeminism&#45;&gt;GF/TAI AHP -->
<g id="edge18" class="edge"><title>geekfeminism&#45;&gt;GF/TAI AHP</title>
<path fill="none" stroke="black" d="M596.222,-536.565C693.227,-507.115 928.582,-434.489 939,-420 961.557,-388.626 920.256,-355.405 886.18,-334.931"/>
<polygon fill="black" stroke="black" points="887.674,-331.752 877.268,-329.758 884.16,-337.806 887.674,-331.752"/>
</g>
<!-- oscon2009 -->
<g id="node27" class="node"><title>oscon2009</title>
<ellipse fill="none" stroke="black" cx="227" cy="-476" rx="48.6179" ry="18"/>
<text text-anchor="middle" x="227" y="-472.3" font-family="Times,serif" font-size="14.00">oscon2009</text>
</g>
<!-- dreamwidth&#45;&gt;oscon2009 -->
<g id="edge48" class="edge"><title>dreamwidth&#45;&gt;oscon2009</title>
<path fill="none" stroke="black" d="M227,-531.937C227,-523.807 227,-513.876 227,-504.705"/>
<polygon fill="black" stroke="black" points="230.5,-504.441 227,-494.441 223.5,-504.441 230.5,-504.441"/>
</g>
<!-- otw&#45;&gt;oscon2009 -->
<g id="edge49" class="edge"><title>otw&#45;&gt;oscon2009</title>
<path fill="none" stroke="black" d="M146.52,-536.128C160.773,-525.657 181.187,-510.658 197.889,-498.388"/>
<polygon fill="black" stroke="black" points="200.245,-501 206.232,-492.258 196.101,-495.359 200.245,-501"/>
</g>
<!-- oscon2009&#45;&gt;geekfeminism -->
<g id="edge50" class="edge"><title>oscon2009&#45;&gt;geekfeminism</title>
<path fill="none" stroke="black" d="M267.512,-485.893C325.275,-498.573 431.589,-521.91 497.489,-536.376"/>
<polygon fill="black" stroke="black" points="496.788,-539.805 507.306,-538.531 498.289,-532.968 496.788,-539.805"/>
</g>
<!-- racefail&#45;&gt;geekfeminism -->
<g id="edge13" class="edge"><title>racefail&#45;&gt;geekfeminism</title>
<path fill="none" stroke="black" d="M578.756,-491.987C575.078,-500.813 570.32,-512.231 566.03,-522.529"/>
<polygon fill="black" stroke="black" points="562.725,-521.36 562.11,-531.937 569.187,-524.052 562.725,-521.36"/>
</g>
<!-- couchdb -->
<g id="node29" class="node"><title>couchdb</title>
<polygon fill="none" stroke="black" points="912,-494 855.518,-476 912,-458 968.482,-476 912,-494"/>
<text text-anchor="middle" x="912" y="-472.3" font-family="Times,serif" font-size="14.00">couchdb</text>
</g>
<!-- railsbridge -->
<g id="node30" class="node"><title>railsbridge</title>
<ellipse fill="none" stroke="black" cx="1073" cy="-476" rx="48.1437" ry="18"/>
<text text-anchor="middle" x="1073" y="-472.3" font-family="Times,serif" font-size="14.00">railsbridge</text>
</g>
<!-- couchdb&#45;&gt;railsbridge -->
<g id="edge40" class="edge"><title>couchdb&#45;&gt;railsbridge</title>
<path fill="none" stroke="black" d="M968.602,-476C983.99,-476 999.378,-476 1014.77,-476"/>
<polygon fill="black" stroke="black" points="1014.88,-479.5 1024.88,-476 1014.88,-472.5 1014.88,-479.5"/>
</g>
<!-- railsgirls -->
<g id="node40" class="node"><title>railsgirls</title>
<ellipse fill="none" stroke="black" cx="1254" cy="-240" rx="41.394" ry="18"/>
<text text-anchor="middle" x="1254" y="-236.3" font-family="Times,serif" font-size="14.00">railsgirls</text>
</g>
<!-- railsbridge&#45;&gt;railsgirls -->
<g id="edge42" class="edge"><title>railsbridge&#45;&gt;railsgirls</title>
<path fill="none" stroke="black" d="M1085.73,-458.546C1117.08,-418.015 1198.15,-313.199 1235.12,-265.403"/>
<polygon fill="black" stroke="black" points="1237.94,-267.488 1241.29,-257.436 1232.4,-263.205 1237.94,-267.488"/>
</g>
<!-- pystar -->
<g id="node47" class="node"><title>pystar</title>
<ellipse fill="none" stroke="black" cx="1073" cy="-402" rx="32.2457" ry="18"/>
<text text-anchor="middle" x="1073" y="-398.3" font-family="Times,serif" font-size="14.00">pystar</text>
</g>
<!-- railsbridge&#45;&gt;pystar -->
<g id="edge41" class="edge"><title>railsbridge&#45;&gt;pystar</title>
<path fill="none" stroke="black" d="M1073,-457.937C1073,-449.807 1073,-439.876 1073,-430.705"/>
<polygon fill="black" stroke="black" points="1076.5,-430.441 1073,-420.441 1069.5,-430.441 1076.5,-430.441"/>
</g>
<!-- osbp -->
<g id="node31" class="node"><title>osbp</title>
<polygon fill="none" stroke="black" points="1178,-494 1139.59,-476 1178,-458 1216.41,-476 1178,-494"/>
<text text-anchor="middle" x="1178" y="-472.3" font-family="Times,serif" font-size="14.00">osbp</text>
</g>
<!-- osbp&#45;&gt;backupproject -->
<g id="edge21" class="edge"><title>osbp&#45;&gt;backupproject</title>
<path fill="none" stroke="black" d="M1216.5,-476C1225.17,-476 1233.84,-476 1242.51,-476"/>
<polygon fill="black" stroke="black" points="1242.69,-479.5 1252.69,-476 1242.69,-472.5 1242.69,-479.5"/>
</g>
<!-- backupribbons -->
<g id="node35" class="node"><title>backupribbons</title>
<ellipse fill="none" stroke="black" cx="1311" cy="-402" rx="62.0922" ry="18"/>
<text text-anchor="middle" x="1311" y="-398.3" font-family="Times,serif" font-size="14.00">backupribbons</text>
</g>
<!-- backupproject&#45;&gt;backupribbons -->
<g id="edge23" class="edge"><title>backupproject&#45;&gt;backupribbons</title>
<path fill="none" stroke="black" d="M1312.53,-457.937C1312.3,-449.807 1312.02,-439.876 1311.77,-430.705"/>
<polygon fill="black" stroke="black" points="1315.26,-430.34 1311.48,-420.441 1308.26,-430.534 1315.26,-430.34"/>
</g>
<!-- osbridge -->
<g id="node33" class="node"><title>osbridge</title>
<ellipse fill="none" stroke="black" cx="377" cy="-476" rx="40.4202" ry="18"/>
<text text-anchor="middle" x="377" y="-472.3" font-family="Times,serif" font-size="14.00">osbridge</text>
</g>
<!-- apachecon assault -->
<g id="node34" class="node"><title>apachecon assault</title>
<polygon fill="none" stroke="black" points="826,-420 721.823,-402 826,-384 930.177,-402 826,-420"/>
<text text-anchor="middle" x="826" y="-398.3" font-family="Times,serif" font-size="14.00">apachecon assault</text>
</g>
<!-- apachecon assault&#45;&gt;adainitiative -->
<g id="edge14" class="edge"><title>apachecon assault&#45;&gt;adainitiative</title>
<path fill="none" stroke="black" d="M796.105,-389.042C759.068,-374.227 695.714,-348.885 653.599,-332.04"/>
<polygon fill="black" stroke="black" points="654.751,-328.731 644.167,-328.267 652.152,-335.23 654.751,-328.731"/>
</g>
<!-- apachecon assault&#45;&gt;GF/TAI AHP -->
<g id="edge17" class="edge"><title>apachecon assault&#45;&gt;GF/TAI AHP</title>
<path fill="none" stroke="black" d="M830.242,-384.418C833.306,-372.439 837.514,-355.992 841.064,-342.115"/>
<polygon fill="black" stroke="black" points="844.533,-342.675 843.621,-332.119 837.751,-340.94 844.533,-342.675"/>
</g>
<!-- adainitiative&#45;&gt;GF/TAI AHP -->
<g id="edge19" class="edge"><title>adainitiative&#45;&gt;GF/TAI AHP</title>
<path fill="none" stroke="black" d="M664.695,-314C702.709,-314 740.723,-314 778.736,-314"/>
<polygon fill="black" stroke="black" points="778.927,-317.5 788.927,-314 778.927,-310.5 778.927,-317.5"/>
</g>
<!-- adainitiative&#45;&gt;adacamp -->
<g id="edge26" class="edge"><title>adainitiative&#45;&gt;adacamp</title>
<path fill="none" stroke="black" d="M585.722,-298.082C567.08,-287.08 541.566,-272.023 521.423,-260.135"/>
<polygon fill="black" stroke="black" points="522.982,-256.991 512.591,-254.922 519.424,-263.019 522.982,-256.991"/>
</g>
<!-- Skeptic AHPs -->
<g id="node41" class="node"><title>Skeptic AHPs</title>
<ellipse fill="none" stroke="black" cx="721" cy="-240" rx="60.1672" ry="18"/>
<text text-anchor="middle" x="721" y="-236.3" font-family="Times,serif" font-size="14.00">Skeptic AHPs</text>
</g>
<!-- GF/TAI AHP&#45;&gt;Skeptic AHPs -->
<g id="edge25" class="edge"><title>GF/TAI AHP&#45;&gt;Skeptic AHPs</title>
<path fill="none" stroke="black" d="M821.377,-297.906C802.622,-287.274 777.3,-272.918 756.782,-261.286"/>
<polygon fill="black" stroke="black" points="758.451,-258.209 748.026,-256.322 754.999,-264.298 758.451,-258.209"/>
</g>
<!-- PyCon AHP -->
<g id="node42" class="node"><title>PyCon AHP</title>
<ellipse fill="none" stroke="black" cx="854" cy="-240" rx="54.3924" ry="18"/>
<text text-anchor="middle" x="854" y="-236.3" font-family="Times,serif" font-size="14.00">PyCon AHP</text>
</g>
<!-- GF/TAI AHP&#45;&gt;PyCon AHP -->
<g id="edge24" class="edge"><title>GF/TAI AHP&#45;&gt;PyCon AHP</title>
<path fill="none" stroke="black" d="M849.422,-295.937C850.099,-287.807 850.927,-277.876 851.691,-268.705"/>
<polygon fill="black" stroke="black" points="855.204,-268.697 852.547,-258.441 848.228,-268.115 855.204,-268.697"/>
</g>
<!-- adacamp&#45;&gt;osbridge -->
<g id="edge28" class="edge"><title>adacamp&#45;&gt;osbridge</title>
<path fill="none" stroke="black" d="M465.265,-255.072C437.723,-273.027 394.036,-306.977 378,-350 366.075,-381.992 368.429,-421.872 372.016,-447.862"/>
<polygon fill="black" stroke="black" points="368.558,-448.403 373.535,-457.756 375.477,-447.341 368.558,-448.403"/>
<text text-anchor="middle" x="414.5" y="-354.3" font-family="Times,serif" font-size="14.00">a11y policies</text>
</g>
<!-- doubleunion -->
<g id="node43" class="node"><title>doubleunion</title>
<ellipse fill="none" stroke="black" cx="372" cy="-166" rx="54.3924" ry="18"/>
<text text-anchor="middle" x="372" y="-162.3" font-family="Times,serif" font-size="14.00">doubleunion</text>
</g>
<!-- adacamp&#45;&gt;doubleunion -->
<g id="edge29" class="edge"><title>adacamp&#45;&gt;doubleunion</title>
<path fill="none" stroke="black" d="M465.885,-224.775C448.559,-214.113 424.601,-199.37 405.224,-187.445"/>
<polygon fill="black" stroke="black" points="407.034,-184.45 396.683,-182.19 403.365,-190.411 407.034,-184.45"/>
</g>
<!-- railsgirls&#45;&gt;rgsoc -->
<g id="edge43" class="edge"><title>railsgirls&#45;&gt;rgsoc</title>
<path fill="none" stroke="black" d="M1276,-224.603C1293.32,-213.266 1317.57,-197.394 1336.22,-185.181"/>
<polygon fill="black" stroke="black" points="1338.17,-188.091 1344.62,-179.686 1334.34,-182.234 1338.17,-188.091"/>
</g>
<!-- mvc -->
<g id="node45" class="node"><title>mvc</title>
<ellipse fill="none" stroke="black" cx="124" cy="-92" rx="27" ry="18"/>
<text text-anchor="middle" x="124" y="-88.3" font-family="Times,serif" font-size="14.00">mvc</text>
</g>
<!-- mothershiphackermoms -->
<g id="node46" class="node"><title>mothershiphackermoms</title>
<ellipse fill="none" stroke="black" cx="332" cy="-240" rx="96.2631" ry="18"/>
<text text-anchor="middle" x="332" y="-236.3" font-family="Times,serif" font-size="14.00">mothershiphackermoms</text>
</g>
<!-- mothershiphackermoms&#45;&gt;doubleunion -->
<g id="edge30" class="edge"><title>mothershiphackermoms&#45;&gt;doubleunion</title>
<path fill="none" stroke="black" d="M341.479,-221.937C346.311,-213.239 352.289,-202.48 357.67,-192.795"/>
<polygon fill="black" stroke="black" points="360.792,-194.382 362.589,-183.941 354.673,-190.982 360.792,-194.382"/>
</g>
</g>
</svg>
