<?xml version="1.0" encoding="UTF-8" standalone="no"?>
<!DOCTYPE svg PUBLIC "-//W3C//DTD SVG 1.1//EN"
 "http://www.w3.org/Graphics/SVG/1.1/DTD/svg11.dtd">
<!-- Generated by graphviz version 2.34.0 (20140110.0949)
 -->
<!-- Title: G Pages: 1 -->
<svg width="1810pt" height="872pt"
 viewBox="0.00 0.00 1810.00 872.00" xmlns="http://www.w3.org/2000/svg" xmlns:xlink="http://www.w3.org/1999/xlink">
<g id="graph0" class="graph" transform="scale(1 1) rotate(0) translate(4 868)">
<title>G</title>
<polygon fill="white" stroke="white" points="-4,4 -4,-868 1806,-868 1806,4 -4,4"/>
<!-- past -->
<g id="node1" class="node"><title>past</title>
<text text-anchor="middle" x="52" y="-842.2" font-family="Times,serif" font-size="16.00">past</text>
</g>
<!-- 2000&#45;2003 -->
<g id="node2" class="node"><title>2000&#45;2003</title>
<text text-anchor="middle" x="52" y="-768.2" font-family="Times,serif" font-size="16.00">2000&#45;2003</text>
</g>
<!-- past&#45;&gt;2000&#45;2003 -->
<g id="edge1" class="edge"><title>past&#45;&gt;2000&#45;2003</title>
<path fill="none" stroke="black" d="M52,-827.937C52,-819.807 52,-809.876 52,-800.705"/>
<polygon fill="black" stroke="black" points="55.5001,-800.441 52,-790.441 48.5001,-800.441 55.5001,-800.441"/>
</g>
<!-- 2004&#45;2006 -->
<g id="node3" class="node"><title>2004&#45;2006</title>
<text text-anchor="middle" x="52" y="-694.2" font-family="Times,serif" font-size="16.00">2004&#45;2006</text>
</g>
<!-- 2000&#45;2003&#45;&gt;2004&#45;2006 -->
<g id="edge2" class="edge"><title>2000&#45;2003&#45;&gt;2004&#45;2006</title>
<path fill="none" stroke="black" d="M52,-753.937C52,-745.807 52,-735.876 52,-726.705"/>
<polygon fill="black" stroke="black" points="55.5001,-726.441 52,-716.441 48.5001,-726.441 55.5001,-726.441"/>
</g>
<!-- 2007 -->
<g id="node4" class="node"><title>2007</title>
<text text-anchor="middle" x="52" y="-620.2" font-family="Times,serif" font-size="16.00">2007</text>
</g>
<!-- 2004&#45;2006&#45;&gt;2007 -->
<g id="edge3" class="edge"><title>2004&#45;2006&#45;&gt;2007</title>
<path fill="none" stroke="black" d="M52,-679.937C52,-671.807 52,-661.876 52,-652.705"/>
<polygon fill="black" stroke="black" points="55.5001,-652.441 52,-642.441 48.5001,-652.441 55.5001,-652.441"/>
</g>
<!-- 2008 -->
<g id="node5" class="node"><title>2008</title>
<text text-anchor="middle" x="52" y="-546.2" font-family="Times,serif" font-size="16.00">2008</text>
</g>
<!-- 2007&#45;&gt;2008 -->
<g id="edge4" class="edge"><title>2007&#45;&gt;2008</title>
<path fill="none" stroke="black" d="M52,-605.937C52,-597.807 52,-587.876 52,-578.705"/>
<polygon fill="black" stroke="black" points="55.5001,-578.441 52,-568.441 48.5001,-578.441 55.5001,-578.441"/>
</g>
<!-- 2009 -->
<g id="node6" class="node"><title>2009</title>
<text text-anchor="middle" x="52" y="-472.2" font-family="Times,serif" font-size="16.00">2009</text>
</g>
<!-- 2008&#45;&gt;2009 -->
<g id="edge5" class="edge"><title>2008&#45;&gt;2009</title>
<path fill="none" stroke="black" d="M52,-531.937C52,-523.807 52,-513.876 52,-504.705"/>
<polygon fill="black" stroke="black" points="55.5001,-504.441 52,-494.441 48.5001,-504.441 55.5001,-504.441"/>
</g>
<!-- 2010 -->
<g id="node7" class="node"><title>2010</title>
<text text-anchor="middle" x="52" y="-398.2" font-family="Times,serif" font-size="16.00">2010</text>
</g>
<!-- 2009&#45;&gt;2010 -->
<g id="edge6" class="edge"><title>2009&#45;&gt;2010</title>
<path fill="none" stroke="black" d="M52,-457.937C52,-449.807 52,-439.876 52,-430.705"/>
<polygon fill="black" stroke="black" points="55.5001,-430.441 52,-420.441 48.5001,-430.441 55.5001,-430.441"/>
</g>
<!-- 2011 -->
<g id="node8" class="node"><title>2011</title>
<text text-anchor="middle" x="52" y="-310.2" font-family="Times,serif" font-size="16.00">2011</text>
</g>
<!-- 2010&#45;&gt;2011 -->
<g id="edge7" class="edge"><title>2010&#45;&gt;2011</title>
<path fill="none" stroke="black" d="M52,-383.597C52,-371.746 52,-355.817 52,-342.292"/>
<polygon fill="black" stroke="black" points="55.5001,-342.084 52,-332.084 48.5001,-342.084 55.5001,-342.084"/>
</g>
<!-- 2012 -->
<g id="node9" class="node"><title>2012</title>
<text text-anchor="middle" x="52" y="-236.2" font-family="Times,serif" font-size="16.00">2012</text>
</g>
<!-- 2011&#45;&gt;2012 -->
<g id="edge8" class="edge"><title>2011&#45;&gt;2012</title>
<path fill="none" stroke="black" d="M52,-295.937C52,-287.807 52,-277.876 52,-268.705"/>
<polygon fill="black" stroke="black" points="55.5001,-268.441 52,-258.441 48.5001,-268.441 55.5001,-268.441"/>
</g>
<!-- 2013 -->
<g id="node10" class="node"><title>2013</title>
<text text-anchor="middle" x="52" y="-162.2" font-family="Times,serif" font-size="16.00">2013</text>
</g>
<!-- 2012&#45;&gt;2013 -->
<g id="edge9" class="edge"><title>2012&#45;&gt;2013</title>
<path fill="none" stroke="black" d="M52,-221.937C52,-213.807 52,-203.876 52,-194.705"/>
<polygon fill="black" stroke="black" points="55.5001,-194.441 52,-184.441 48.5001,-194.441 55.5001,-194.441"/>
</g>
<!-- 2014 -->
<g id="node11" class="node"><title>2014</title>
<text text-anchor="middle" x="52" y="-88.2" font-family="Times,serif" font-size="16.00">2014</text>
</g>
<!-- 2013&#45;&gt;2014 -->
<g id="edge10" class="edge"><title>2013&#45;&gt;2014</title>
<path fill="none" stroke="black" d="M52,-147.937C52,-139.807 52,-129.876 52,-120.705"/>
<polygon fill="black" stroke="black" points="55.5001,-120.441 52,-110.441 48.5001,-120.441 55.5001,-120.441"/>
</g>
<!-- unknowndate -->
<g id="node12" class="node"><title>unknowndate</title>
<text text-anchor="middle" x="52" y="-14.2" font-family="Times,serif" font-size="16.00">unknowndate</text>
</g>
<!-- 2014&#45;&gt;unknowndate -->
<g id="edge11" class="edge"><title>2014&#45;&gt;unknowndate</title>
<path fill="none" stroke="black" d="M52,-73.937C52,-65.8072 52,-55.8761 52,-46.7047"/>
<polygon fill="black" stroke="black" points="55.5001,-46.4406 52,-36.4407 48.5001,-46.4407 55.5001,-46.4406"/>
</g>
<!-- livejournal -->
<g id="node13" class="node"><title>livejournal</title>
<polygon fill="none" stroke="black" points="244.25,-864 169.75,-864 169.75,-828 244.25,-828 244.25,-864"/>
<text text-anchor="middle" x="207" y="-842.3" font-family="Times,serif" font-size="14.00">livejournal</text>
</g>
<!-- dreamwidth -->
<g id="node25" class="node"><title>dreamwidth</title>
<ellipse fill="none" stroke="black" cx="150" cy="-550" rx="52.9443" ry="18"/>
<text text-anchor="middle" x="150" y="-546.3" font-family="Times,serif" font-size="14.00">dreamwidth</text>
</g>
<!-- livejournal&#45;&gt;dreamwidth -->
<g id="edge48" class="edge"><title>livejournal&#45;&gt;dreamwidth</title>
<path fill="none" stroke="black" d="M196.638,-827.918C189.024,-813.735 180,-792.758 180,-773 180,-773 180,-773 180,-623 180,-606.764 173.419,-589.943 166.422,-576.646"/>
<polygon fill="black" stroke="black" points="169.305,-574.633 161.342,-567.645 163.209,-578.074 169.305,-574.633"/>
</g>
<!-- otw -->
<g id="node26" class="node"><title>otw</title>
<ellipse fill="none" stroke="black" cx="248" cy="-550" rx="27" ry="18"/>
<text text-anchor="middle" x="248" y="-546.3" font-family="Times,serif" font-size="14.00">otw</text>
</g>
<!-- livejournal&#45;&gt;otw -->
<g id="edge49" class="edge"><title>livejournal&#45;&gt;otw</title>
<path fill="none" stroke="black" d="M216.978,-827.871C224.31,-813.66 233,-792.669 233,-773 233,-773 233,-773 233,-623 233,-607.787 236.249,-591.138 239.723,-577.686"/>
<polygon fill="black" stroke="black" points="243.201,-578.242 242.5,-567.671 236.455,-576.372 243.201,-578.242"/>
</g>
<!-- wiscon -->
<g id="node14" class="node"><title>wiscon</title>
<ellipse fill="none" stroke="black" cx="928" cy="-846" rx="35.6194" ry="18"/>
<text text-anchor="middle" x="928" y="-842.3" font-family="Times,serif" font-size="14.00">wiscon</text>
</g>
<!-- racefail -->
<g id="node28" class="node"><title>racefail</title>
<polygon fill="none" stroke="black" points="543,-494 490.911,-476 543,-458 595.089,-476 543,-494"/>
<text text-anchor="middle" x="543" y="-472.3" font-family="Times,serif" font-size="14.00">racefail</text>
</g>
<!-- wiscon&#45;&gt;racefail -->
<g id="edge47" class="edge"><title>wiscon&#45;&gt;racefail</title>
<path fill="none" stroke="black" d="M920.925,-828.164C915.523,-813.778 909,-792.392 909,-773 909,-773 909,-773 909,-660 909,-587.16 674.159,-513.593 580.704,-487.201"/>
<polygon fill="black" stroke="black" points="581.383,-483.756 570.81,-484.434 579.498,-490.498 581.383,-483.756"/>
</g>
<!-- adacamp -->
<g id="node39" class="node"><title>adacamp</title>
<ellipse fill="none" stroke="black" cx="599" cy="-240" rx="42.3701" ry="18"/>
<text text-anchor="middle" x="599" y="-236.3" font-family="Times,serif" font-size="14.00">adacamp</text>
</g>
<!-- wiscon&#45;&gt;adacamp -->
<g id="edge29" class="edge"><title>wiscon&#45;&gt;adacamp</title>
<path fill="none" stroke="black" d="M935.075,-828.164C940.477,-813.778 947,-792.392 947,-773 947,-773 947,-773 947,-438 947,-412.407 944.579,-402.6 927,-384 885.774,-340.379 719.903,-281.135 641.046,-254.706"/>
<polygon fill="black" stroke="black" points="642.016,-251.34 631.423,-251.499 639.803,-257.981 642.016,-251.34"/>
<text text-anchor="middle" x="983.5" y="-546.3" font-family="Times,serif" font-size="14.00">a11y policies</text>
</g>
<!-- linuxconfau -->
<g id="node15" class="node"><title>linuxconfau</title>
<polygon fill="none" stroke="black" points="616.25,-864 535.75,-864 535.75,-828 616.25,-828 616.25,-864"/>
<text text-anchor="middle" x="576" y="-842.3" font-family="Times,serif" font-size="14.00">linuxconfau</text>
</g>
<!-- haecksen -->
<g id="node22" class="node"><title>haecksen</title>
<ellipse fill="none" stroke="black" cx="321" cy="-624" rx="42.3456" ry="18"/>
<text text-anchor="middle" x="321" y="-620.3" font-family="Times,serif" font-size="14.00">haecksen</text>
</g>
<!-- linuxconfau&#45;&gt;haecksen -->
<g id="edge40" class="edge"><title>linuxconfau&#45;&gt;haecksen</title>
<path fill="none" stroke="black" d="M535.32,-841.043C475.084,-834.301 366.519,-818.472 341,-790 307.14,-752.222 310.355,-688.511 315.691,-652.305"/>
<polygon fill="black" stroke="black" points="319.215,-652.445 317.377,-642.011 312.307,-651.314 319.215,-652.445"/>
</g>
<!-- adainitiative -->
<g id="node36" class="node"><title>adainitiative</title>
<ellipse fill="none" stroke="black" cx="599" cy="-314" rx="53.4184" ry="18"/>
<text text-anchor="middle" x="599" y="-310.3" font-family="Times,serif" font-size="14.00">adainitiative</text>
</g>
<!-- linuxconfau&#45;&gt;adainitiative -->
<g id="edge16" class="edge"><title>linuxconfau&#45;&gt;adainitiative</title>
<path fill="none" stroke="black" d="M616.4,-843.534C697.193,-839.498 871,-824.796 871,-773 871,-773 871,-773 871,-586 871,-476.316 713.685,-577.018 642,-494 604.738,-450.847 598.527,-380.916 598.186,-342.481"/>
<polygon fill="black" stroke="black" points="601.688,-342.091 598.232,-332.076 594.688,-342.06 601.688,-342.091"/>
</g>
<!-- linuxchix -->
<g id="node16" class="node"><title>linuxchix</title>
<ellipse fill="none" stroke="black" cx="394" cy="-772" rx="44.2946" ry="18"/>
<text text-anchor="middle" x="394" y="-768.3" font-family="Times,serif" font-size="14.00">linuxchix</text>
</g>
<!-- debianwomen -->
<g id="node21" class="node"><title>debianwomen</title>
<ellipse fill="none" stroke="black" cx="482" cy="-698" rx="60.1672" ry="18"/>
<text text-anchor="middle" x="482" y="-694.3" font-family="Times,serif" font-size="14.00">debianwomen</text>
</g>
<!-- linuxchix&#45;&gt;debianwomen -->
<g id="edge33" class="edge"><title>linuxchix&#45;&gt;debianwomen</title>
<path fill="none" stroke="black" d="M413.095,-755.377C425.151,-745.513 440.927,-732.605 454.341,-721.63"/>
<polygon fill="black" stroke="black" points="456.81,-724.132 462.333,-715.091 452.377,-718.715 456.81,-724.132"/>
</g>
<!-- linuxchix&#45;&gt;haecksen -->
<g id="edge39" class="edge"><title>linuxchix&#45;&gt;haecksen</title>
<path fill="none" stroke="black" d="M385.626,-754.252C372.987,-728.975 348.933,-680.865 334.002,-651.004"/>
<polygon fill="black" stroke="black" points="337.104,-649.381 329.501,-642.002 330.843,-652.512 337.104,-649.381"/>
</g>
<!-- geekfeminism -->
<g id="node24" class="node"><title>geekfeminism</title>
<ellipse fill="none" stroke="black" cx="463" cy="-550" rx="61.6163" ry="18"/>
<text text-anchor="middle" x="463" y="-546.3" font-family="Times,serif" font-size="14.00">geekfeminism</text>
</g>
<!-- linuxchix&#45;&gt;geekfeminism -->
<g id="edge12" class="edge"><title>linuxchix&#45;&gt;geekfeminism</title>
<path fill="none" stroke="black" d="M396.687,-754.023C399.802,-735.588 405.487,-705.38 413,-680 423.713,-643.808 440.114,-603.442 451.183,-577.663"/>
<polygon fill="black" stroke="black" points="454.514,-578.779 455.283,-568.212 448.092,-575.993 454.514,-578.779"/>
</g>
<!-- gsoc -->
<g id="node17" class="node"><title>gsoc</title>
<polygon fill="none" stroke="black" points="1316,-716 1262,-716 1262,-680 1316,-680 1316,-716"/>
<text text-anchor="middle" x="1289" y="-694.3" font-family="Times,serif" font-size="14.00">gsoc</text>
</g>
<!-- opw -->
<g id="node18" class="node"><title>opw</title>
<ellipse fill="none" stroke="black" cx="1379" cy="-698" rx="27" ry="18"/>
<text text-anchor="middle" x="1379" y="-694.3" font-family="Times,serif" font-size="14.00">opw</text>
</g>
<!-- gsoc&#45;&gt;opw -->
<g id="edge38" class="edge"><title>gsoc&#45;&gt;opw</title>
<path fill="none" stroke="black" d="M1316.07,-698C1324.67,-698 1333.27,-698 1341.87,-698"/>
<polygon fill="black" stroke="black" points="1341.96,-701.5 1351.96,-698 1341.96,-694.5 1341.96,-701.5"/>
</g>
<!-- rgsoc -->
<g id="node45" class="node"><title>rgsoc</title>
<ellipse fill="none" stroke="black" cx="1540" cy="-166" rx="29.3479" ry="18"/>
<text text-anchor="middle" x="1540" y="-162.3" font-family="Times,serif" font-size="14.00">rgsoc</text>
</g>
<!-- gsoc&#45;&gt;rgsoc -->
<g id="edge46" class="edge"><title>gsoc&#45;&gt;rgsoc</title>
<path fill="none" stroke="black" d="M1316.08,-688.044C1324.65,-685.325 1334.19,-682.42 1343,-680 1394.51,-665.859 1577,-678.417 1577,-625 1577,-625 1577,-625 1577,-239 1577,-221.361 1568.11,-203.712 1559.04,-190.302"/>
<polygon fill="black" stroke="black" points="1561.84,-188.202 1553.15,-182.145 1556.17,-192.301 1561.84,-188.202"/>
</g>
<!-- ubuntuwomen -->
<g id="node19" class="node"><title>ubuntuwomen</title>
<ellipse fill="none" stroke="black" cx="781" cy="-698" rx="61.6163" ry="18"/>
<text text-anchor="middle" x="781" y="-694.3" font-family="Times,serif" font-size="14.00">ubuntuwomen</text>
</g>
<!-- gnomewomen -->
<g id="node20" class="node"><title>gnomewomen</title>
<ellipse fill="none" stroke="black" cx="640" cy="-698" rx="61.6163" ry="18"/>
<text text-anchor="middle" x="640" y="-694.3" font-family="Times,serif" font-size="14.00">gnomewomen</text>
</g>
<!-- gnomewomen&#45;&gt;opw -->
<g id="edge37" class="edge"><title>gnomewomen&#45;&gt;opw</title>
<path fill="none" stroke="black" d="M667.089,-714.306C681.869,-722.253 700.817,-730.953 719,-735 783.749,-749.412 1251.99,-752.406 1316,-735 1329,-731.464 1342.07,-724.489 1352.9,-717.54"/>
<polygon fill="black" stroke="black" points="1355.09,-720.281 1361.42,-711.784 1351.18,-714.48 1355.09,-720.281"/>
</g>
<!-- debianwomen&#45;&gt;ubuntuwomen -->
<g id="edge34" class="edge"><title>debianwomen&#45;&gt;ubuntuwomen</title>
<path fill="none" stroke="black" d="M513.574,-713.556C531.898,-721.713 555.698,-730.851 578,-735 631.745,-744.999 647.611,-746.748 701,-735 715.792,-731.745 731.104,-725.476 744.324,-719.011"/>
<polygon fill="black" stroke="black" points="746.225,-721.97 753.542,-714.308 743.044,-715.734 746.225,-721.97"/>
</g>
<!-- debianwomen&#45;&gt;gnomewomen -->
<g id="edge35" class="edge"><title>debianwomen&#45;&gt;gnomewomen</title>
<path fill="none" stroke="black" d="M542.484,-698C551.063,-698 559.642,-698 568.22,-698"/>
<polygon fill="black" stroke="black" points="568.291,-701.5 578.291,-698 568.291,-694.5 568.291,-701.5"/>
</g>
<!-- owoot -->
<g id="node38" class="node"><title>owoot</title>
<ellipse fill="none" stroke="black" cx="309" cy="-314" rx="32.2457" ry="18"/>
<text text-anchor="middle" x="309" y="-310.3" font-family="Times,serif" font-size="14.00">owoot</text>
</g>
<!-- haecksen&#45;&gt;owoot -->
<g id="edge36" class="edge"><title>haecksen&#45;&gt;owoot</title>
<path fill="none" stroke="black" d="M318.393,-605.879C316.403,-591.32 314,-569.838 314,-551 314,-551 314,-551 314,-401 314,-381.371 312.686,-359.263 311.405,-342.379"/>
<polygon fill="black" stroke="black" points="314.87,-341.804 310.582,-332.116 307.892,-342.364 314.87,-341.804"/>
</g>
<!-- haecksen&#45;&gt;adacamp -->
<g id="edge41" class="edge"><title>haecksen&#45;&gt;adacamp</title>
<path fill="none" stroke="black" d="M339.147,-607.511C352.74,-594.103 369,-573.384 369,-551 369,-551 369,-551 369,-313 369,-275.639 480.925,-255.366 548.619,-246.521"/>
<polygon fill="black" stroke="black" points="549.193,-249.977 558.674,-245.248 548.313,-243.032 549.193,-249.977"/>
</g>
<!-- SFF CAHP -->
<g id="node23" class="node"><title>SFF CAHP</title>
<ellipse fill="none" stroke="black" cx="1189" cy="-550" rx="51.0191" ry="18"/>
<text text-anchor="middle" x="1189" y="-546.3" font-family="Times,serif" font-size="14.00">SFF CAHP</text>
</g>
<!-- backupproject -->
<g id="node32" class="node"><title>backupproject</title>
<ellipse fill="none" stroke="black" cx="1489" cy="-476" rx="60.1672" ry="18"/>
<text text-anchor="middle" x="1489" y="-472.3" font-family="Times,serif" font-size="14.00">backupproject</text>
</g>
<!-- SFF CAHP&#45;&gt;backupproject -->
<g id="edge22" class="edge"><title>SFF CAHP&#45;&gt;backupproject</title>
<path fill="none" stroke="black" d="M1230.08,-539.14C1282.88,-526.47 1374.72,-504.428 1433.63,-490.288"/>
<polygon fill="black" stroke="black" points="1434.61,-493.654 1443.51,-487.917 1432.97,-486.847 1434.61,-493.654"/>
</g>
<!-- GF/TAI AHP -->
<g id="node37" class="node"><title>GF/TAI AHP</title>
<ellipse fill="none" stroke="black" cx="1023" cy="-314" rx="59.2173" ry="18"/>
<text text-anchor="middle" x="1023" y="-310.3" font-family="Times,serif" font-size="14.00">GF/TAI AHP</text>
</g>
<!-- SFF CAHP&#45;&gt;GF/TAI AHP -->
<g id="edge20" class="edge"><title>SFF CAHP&#45;&gt;GF/TAI AHP</title>
<path fill="none" stroke="black" d="M1140.55,-543.995C1107.44,-537.873 1065.45,-524.262 1042,-494 1007.94,-450.046 1012.05,-380.717 1017.72,-342.522"/>
<polygon fill="black" stroke="black" points="1021.25,-342.609 1019.41,-332.175 1014.34,-341.48 1021.25,-342.609"/>
</g>
<!-- geekfeminism&#45;&gt;adainitiative -->
<g id="edge15" class="edge"><title>geekfeminism&#45;&gt;adainitiative</title>
<path fill="none" stroke="black" d="M464.143,-531.787C465.944,-512.885 470.518,-482.027 482,-458 504.784,-410.321 546.695,-364.789 573.681,-338.385"/>
<polygon fill="black" stroke="black" points="576.428,-340.598 581.203,-331.141 571.572,-335.556 576.428,-340.598"/>
</g>
<!-- geekfeminism&#45;&gt;GF/TAI AHP -->
<g id="edge18" class="edge"><title>geekfeminism&#45;&gt;GF/TAI AHP</title>
<path fill="none" stroke="black" d="M522.042,-544.911C615.589,-535.895 800.238,-507.543 927,-420 959.039,-397.873 988.022,-363.182 1005.56,-339.791"/>
<polygon fill="black" stroke="black" points="1008.39,-341.858 1011.49,-331.728 1002.75,-337.711 1008.39,-341.858"/>
</g>
<!-- oscon2009 -->
<g id="node27" class="node"><title>oscon2009</title>
<ellipse fill="none" stroke="black" cx="237" cy="-476" rx="48.6179" ry="18"/>
<text text-anchor="middle" x="237" y="-472.3" font-family="Times,serif" font-size="14.00">oscon2009</text>
</g>
<!-- dreamwidth&#45;&gt;oscon2009 -->
<g id="edge50" class="edge"><title>dreamwidth&#45;&gt;oscon2009</title>
<path fill="none" stroke="black" d="M169.308,-533.021C181.33,-523.071 196.968,-510.13 210.183,-499.193"/>
<polygon fill="black" stroke="black" points="212.573,-501.759 218.045,-492.687 208.11,-496.366 212.573,-501.759"/>
</g>
<!-- otw&#45;&gt;oscon2009 -->
<g id="edge51" class="edge"><title>otw&#45;&gt;oscon2009</title>
<path fill="none" stroke="black" d="M245.393,-531.937C244.138,-523.719 242.601,-513.66 241.187,-504.406"/>
<polygon fill="black" stroke="black" points="244.635,-503.797 239.665,-494.441 237.715,-504.855 244.635,-503.797"/>
</g>
<!-- oscon2009&#45;&gt;geekfeminism -->
<g id="edge52" class="edge"><title>oscon2009&#45;&gt;geekfeminism</title>
<path fill="none" stroke="black" d="M272.399,-488.278C310.337,-500.364 370.848,-519.642 413.494,-533.228"/>
<polygon fill="black" stroke="black" points="412.525,-536.593 423.116,-536.294 414.65,-529.923 412.525,-536.593"/>
</g>
<!-- racefail&#45;&gt;geekfeminism -->
<g id="edge13" class="edge"><title>racefail&#45;&gt;geekfeminism</title>
<path fill="none" stroke="black" d="M529.154,-489.462C518.045,-499.459 502.146,-513.768 488.719,-525.853"/>
<polygon fill="black" stroke="black" points="486.245,-523.371 481.153,-532.662 490.928,-528.574 486.245,-523.371"/>
</g>
<!-- couchdb -->
<g id="node29" class="node"><title>couchdb</title>
<polygon fill="none" stroke="black" points="1108,-494 1051.52,-476 1108,-458 1164.48,-476 1108,-494"/>
<text text-anchor="middle" x="1108" y="-472.3" font-family="Times,serif" font-size="14.00">couchdb</text>
</g>
<!-- railsbridge -->
<g id="node30" class="node"><title>railsbridge</title>
<ellipse fill="none" stroke="black" cx="1249" cy="-476" rx="48.1437" ry="18"/>
<text text-anchor="middle" x="1249" y="-472.3" font-family="Times,serif" font-size="14.00">railsbridge</text>
</g>
<!-- couchdb&#45;&gt;railsbridge -->
<g id="edge42" class="edge"><title>couchdb&#45;&gt;railsbridge</title>
<path fill="none" stroke="black" d="M1164.73,-476C1173.41,-476 1182.08,-476 1190.76,-476"/>
<polygon fill="black" stroke="black" points="1190.94,-479.5 1200.94,-476 1190.94,-472.5 1190.94,-479.5"/>
</g>
<!-- railsgirls -->
<g id="node40" class="node"><title>railsgirls</title>
<ellipse fill="none" stroke="black" cx="1430" cy="-240" rx="41.394" ry="18"/>
<text text-anchor="middle" x="1430" y="-236.3" font-family="Times,serif" font-size="14.00">railsgirls</text>
</g>
<!-- railsbridge&#45;&gt;railsgirls -->
<g id="edge44" class="edge"><title>railsbridge&#45;&gt;railsgirls</title>
<path fill="none" stroke="black" d="M1261.73,-458.546C1293.08,-418.015 1374.15,-313.199 1411.12,-265.403"/>
<polygon fill="black" stroke="black" points="1413.94,-267.488 1417.29,-257.436 1408.4,-263.205 1413.94,-267.488"/>
</g>
<!-- pystar -->
<g id="node50" class="node"><title>pystar</title>
<ellipse fill="none" stroke="black" cx="1249" cy="-402" rx="32.2457" ry="18"/>
<text text-anchor="middle" x="1249" y="-398.3" font-family="Times,serif" font-size="14.00">pystar</text>
</g>
<!-- railsbridge&#45;&gt;pystar -->
<g id="edge43" class="edge"><title>railsbridge&#45;&gt;pystar</title>
<path fill="none" stroke="black" d="M1249,-457.937C1249,-449.807 1249,-439.876 1249,-430.705"/>
<polygon fill="black" stroke="black" points="1252.5,-430.441 1249,-420.441 1245.5,-430.441 1252.5,-430.441"/>
</g>
<!-- osbp -->
<g id="node31" class="node"><title>osbp</title>
<polygon fill="none" stroke="black" points="1354,-494 1315.59,-476 1354,-458 1392.41,-476 1354,-494"/>
<text text-anchor="middle" x="1354" y="-472.3" font-family="Times,serif" font-size="14.00">osbp</text>
</g>
<!-- osbp&#45;&gt;backupproject -->
<g id="edge21" class="edge"><title>osbp&#45;&gt;backupproject</title>
<path fill="none" stroke="black" d="M1392.5,-476C1401.17,-476 1409.84,-476 1418.51,-476"/>
<polygon fill="black" stroke="black" points="1418.69,-479.5 1428.69,-476 1418.69,-472.5 1418.69,-479.5"/>
</g>
<!-- backupribbons -->
<g id="node35" class="node"><title>backupribbons</title>
<ellipse fill="none" stroke="black" cx="1487" cy="-402" rx="62.0922" ry="18"/>
<text text-anchor="middle" x="1487" y="-398.3" font-family="Times,serif" font-size="14.00">backupribbons</text>
</g>
<!-- backupproject&#45;&gt;backupribbons -->
<g id="edge23" class="edge"><title>backupproject&#45;&gt;backupribbons</title>
<path fill="none" stroke="black" d="M1488.53,-457.937C1488.3,-449.807 1488.02,-439.876 1487.77,-430.705"/>
<polygon fill="black" stroke="black" points="1491.26,-430.34 1487.48,-420.441 1484.26,-430.534 1491.26,-430.34"/>
</g>
<!-- osbridge -->
<g id="node33" class="node"><title>osbridge</title>
<ellipse fill="none" stroke="black" cx="692" cy="-476" rx="40.4202" ry="18"/>
<text text-anchor="middle" x="692" y="-472.3" font-family="Times,serif" font-size="14.00">osbridge</text>
</g>
<!-- apachecon assault -->
<g id="node34" class="node"><title>apachecon assault</title>
<polygon fill="none" stroke="black" points="814,-420 709.823,-402 814,-384 918.177,-402 814,-420"/>
<text text-anchor="middle" x="814" y="-398.3" font-family="Times,serif" font-size="14.00">apachecon assault</text>
</g>
<!-- apachecon assault&#45;&gt;adainitiative -->
<g id="edge14" class="edge"><title>apachecon assault&#45;&gt;adainitiative</title>
<path fill="none" stroke="black" d="M755.982,-393.977C726.73,-388.886 691.334,-380.294 662,-366 647.647,-359.006 633.641,-348.194 622.495,-338.321"/>
<polygon fill="black" stroke="black" points="624.653,-335.551 614.919,-331.367 619.919,-340.708 624.653,-335.551"/>
</g>
<!-- apachecon assault&#45;&gt;GF/TAI AHP -->
<g id="edge17" class="edge"><title>apachecon assault&#45;&gt;GF/TAI AHP</title>
<path fill="none" stroke="black" d="M843.501,-388.861C879.023,-374.244 938.982,-349.572 979.738,-332.802"/>
<polygon fill="black" stroke="black" points="981.232,-335.972 989.147,-328.93 978.568,-329.498 981.232,-335.972"/>
</g>
<!-- adainitiative&#45;&gt;GF/TAI AHP -->
<g id="edge19" class="edge"><title>adainitiative&#45;&gt;GF/TAI AHP</title>
<path fill="none" stroke="black" d="M652.828,-314C753.117,-314 853.407,-314 953.696,-314"/>
<polygon fill="black" stroke="black" points="953.715,-317.5 963.715,-314 953.715,-310.5 953.715,-317.5"/>
</g>
<!-- adainitiative&#45;&gt;adacamp -->
<g id="edge28" class="edge"><title>adainitiative&#45;&gt;adacamp</title>
<path fill="none" stroke="black" d="M599,-295.937C599,-287.807 599,-277.876 599,-268.705"/>
<polygon fill="black" stroke="black" points="602.5,-268.441 599,-258.441 595.5,-268.441 602.5,-268.441"/>
</g>
<!-- Skeptic AHPs -->
<g id="node41" class="node"><title>Skeptic AHPs</title>
<ellipse fill="none" stroke="black" cx="720" cy="-240" rx="60.1672" ry="18"/>
<text text-anchor="middle" x="720" y="-236.3" font-family="Times,serif" font-size="14.00">Skeptic AHPs</text>
</g>
<!-- GF/TAI AHP&#45;&gt;Skeptic AHPs -->
<g id="edge25" class="edge"><title>GF/TAI AHP&#45;&gt;Skeptic AHPs</title>
<path fill="none" stroke="black" d="M996.789,-297.702C982.287,-289.941 963.669,-281.101 946,-276 878.521,-256.52 858.127,-270.426 789,-258 783.894,-257.082 778.604,-256.007 773.329,-254.852"/>
<polygon fill="black" stroke="black" points="773.781,-251.365 763.252,-252.55 772.222,-258.189 773.781,-251.365"/>
</g>
<!-- PyCon AHP -->
<g id="node42" class="node"><title>PyCon AHP</title>
<ellipse fill="none" stroke="black" cx="1064" cy="-240" rx="54.3924" ry="18"/>
<text text-anchor="middle" x="1064" y="-236.3" font-family="Times,serif" font-size="14.00">PyCon AHP</text>
</g>
<!-- GF/TAI AHP&#45;&gt;PyCon AHP -->
<g id="edge24" class="edge"><title>GF/TAI AHP&#45;&gt;PyCon AHP</title>
<path fill="none" stroke="black" d="M1032.72,-295.937C1037.67,-287.239 1043.8,-276.48 1049.31,-266.795"/>
<polygon fill="black" stroke="black" points="1052.45,-268.362 1054.35,-257.941 1046.36,-264.898 1052.45,-268.362"/>
</g>
<!-- Scalzi&#39;s AHP pledge -->
<g id="node46" class="node"><title>Scalzi&#39;s AHP pledge</title>
<ellipse fill="none" stroke="black" cx="1155" cy="-166" rx="83.2892" ry="18"/>
<text text-anchor="middle" x="1155" y="-162.3" font-family="Times,serif" font-size="14.00">Scalzi&#39;s AHP pledge</text>
</g>
<!-- GF/TAI AHP&#45;&gt;Scalzi&#39;s AHP pledge -->
<g id="edge27" class="edge"><title>GF/TAI AHP&#45;&gt;Scalzi&#39;s AHP pledge</title>
<path fill="none" stroke="black" d="M1062.5,-300.605C1084.33,-291.89 1110.33,-278.14 1127,-258 1141.94,-239.95 1148.92,-213.989 1152.17,-194.412"/>
<polygon fill="black" stroke="black" points="1155.67,-194.678 1153.63,-184.283 1148.74,-193.685 1155.67,-194.678"/>
<text text-anchor="middle" x="1148.5" y="-236.3" font-family="Times,serif" font-size="14.00">?</text>
</g>
<!-- #CoCPledge -->
<g id="node48" class="node"><title>#CoCPledge</title>
<ellipse fill="none" stroke="black" cx="1266" cy="-92" rx="55.3682" ry="18"/>
<text text-anchor="middle" x="1266" y="-88.3" font-family="Times,serif" font-size="14.00">#CoCPledge</text>
</g>
<!-- GF/TAI AHP&#45;&gt;#CoCPledge -->
<g id="edge26" class="edge"><title>GF/TAI AHP&#45;&gt;#CoCPledge</title>
<path fill="none" stroke="black" d="M1066.56,-301.742C1119.54,-285.497 1206.86,-249.927 1247,-184 1258.77,-164.666 1263.35,-139.203 1265.08,-120.129"/>
<polygon fill="black" stroke="black" points="1268.58,-120.222 1265.79,-110.001 1261.6,-119.732 1268.58,-120.222"/>
</g>
<!-- adacamp&#45;&gt;osbridge -->
<g id="edge30" class="edge"><title>adacamp&#45;&gt;osbridge</title>
<path fill="none" stroke="black" d="M621.734,-255.312C635.315,-265.09 651.686,-279.283 661,-296 687.988,-344.439 692.528,-410.77 692.724,-447.572"/>
<polygon fill="black" stroke="black" points="689.222,-447.974 692.666,-457.993 696.222,-448.013 689.222,-447.974"/>
<text text-anchor="middle" x="722.5" y="-354.3" font-family="Times,serif" font-size="14.00">a11y policies</text>
</g>
<!-- doubleunion -->
<g id="node44" class="node"><title>doubleunion</title>
<ellipse fill="none" stroke="black" cx="814" cy="-166" rx="54.3924" ry="18"/>
<text text-anchor="middle" x="814" y="-162.3" font-family="Times,serif" font-size="14.00">doubleunion</text>
</g>
<!-- adacamp&#45;&gt;doubleunion -->
<g id="edge31" class="edge"><title>adacamp&#45;&gt;doubleunion</title>
<path fill="none" stroke="black" d="M631.188,-228.221C667.41,-216.091 726.558,-196.283 767.729,-182.495"/>
<polygon fill="black" stroke="black" points="768.893,-185.797 777.264,-179.302 766.67,-179.159 768.893,-185.797"/>
</g>
<!-- railsgirls&#45;&gt;rgsoc -->
<g id="edge45" class="edge"><title>railsgirls&#45;&gt;rgsoc</title>
<path fill="none" stroke="black" d="M1452,-224.603C1469.32,-213.266 1493.57,-197.394 1512.22,-185.181"/>
<polygon fill="black" stroke="black" points="1514.17,-188.091 1520.62,-179.686 1510.34,-182.234 1514.17,-188.091"/>
</g>
<!-- Feminist Frequency vids -->
<g id="node43" class="node"><title>Feminist Frequency vids</title>
<ellipse fill="none" stroke="black" cx="1704" cy="-240" rx="98.1881" ry="18"/>
<text text-anchor="middle" x="1704" y="-236.3" font-family="Times,serif" font-size="14.00">Feminist Frequency vids</text>
</g>
<!-- mvc -->
<g id="node47" class="node"><title>mvc</title>
<ellipse fill="none" stroke="black" cx="1366" cy="-92" rx="27" ry="18"/>
<text text-anchor="middle" x="1366" y="-88.3" font-family="Times,serif" font-size="14.00">mvc</text>
</g>
<!-- mothershiphackermoms -->
<g id="node49" class="node"><title>mothershiphackermoms</title>
<ellipse fill="none" stroke="black" cx="895" cy="-240" rx="96.2631" ry="18"/>
<text text-anchor="middle" x="895" y="-236.3" font-family="Times,serif" font-size="14.00">mothershiphackermoms</text>
</g>
<!-- mothershiphackermoms&#45;&gt;doubleunion -->
<g id="edge32" class="edge"><title>mothershiphackermoms&#45;&gt;doubleunion</title>
<path fill="none" stroke="black" d="M876.213,-222.301C865.429,-212.715 851.729,-200.537 839.932,-190.05"/>
<polygon fill="black" stroke="black" points="841.927,-187.141 832.128,-183.113 837.276,-192.373 841.927,-187.141"/>
</g>
</g>
</svg>
