<?xml version="1.0" encoding="UTF-8" standalone="no"?>
<!DOCTYPE svg PUBLIC "-//W3C//DTD SVG 1.1//EN"
 "http://www.w3.org/Graphics/SVG/1.1/DTD/svg11.dtd">
<!-- Generated by graphviz version 2.38.0 (20140413.2041)
 -->
<!-- Title: GeekFeminismFamilyTree Pages: 1 -->
<svg width="2700pt" height="933pt"
 viewBox="0.00 0.00 2699.86 933.00" xmlns="http://www.w3.org/2000/svg" xmlns:xlink="http://www.w3.org/1999/xlink">
<g id="graph0" class="graph" transform="scale(1 1) rotate(0) translate(4 929)">
<title>GeekFeminismFamilyTree</title>
<polygon fill="white" stroke="none" points="-4,4 -4,-929 2695.86,-929 2695.86,4 -4,4"/>
<!-- past -->
<g id="node1" class="node"><title>past</title>
<text text-anchor="middle" x="51.1016" y="-829.2" font-family="Times,serif" font-size="16.00">past</text>
</g>
<!-- 2000&#45;2003 -->
<g id="node2" class="node"><title>2000&#45;2003</title>
<text text-anchor="middle" x="51.1016" y="-756.2" font-family="Times,serif" font-size="16.00">2000&#45;2003</text>
</g>
<!-- past&#45;&gt;2000&#45;2003 -->
<g id="edge1" class="edge"><title>past&#45;&gt;2000&#45;2003</title>
<path fill="none" stroke="black" d="M51.1016,-815.813C51.1016,-807.789 51.1016,-798.047 51.1016,-789.069"/>
<polygon fill="black" stroke="black" points="54.6017,-789.029 51.1016,-779.029 47.6017,-789.029 54.6017,-789.029"/>
</g>
<!-- 2004&#45;2006 -->
<g id="node3" class="node"><title>2004&#45;2006</title>
<text text-anchor="middle" x="51.1016" y="-683.2" font-family="Times,serif" font-size="16.00">2004&#45;2006</text>
</g>
<!-- 2000&#45;2003&#45;&gt;2004&#45;2006 -->
<g id="edge2" class="edge"><title>2000&#45;2003&#45;&gt;2004&#45;2006</title>
<path fill="none" stroke="black" d="M51.1016,-742.813C51.1016,-734.789 51.1016,-725.047 51.1016,-716.069"/>
<polygon fill="black" stroke="black" points="54.6017,-716.029 51.1016,-706.029 47.6017,-716.029 54.6017,-716.029"/>
</g>
<!-- 2007 -->
<g id="node4" class="node"><title>2007</title>
<text text-anchor="middle" x="51.1016" y="-610.2" font-family="Times,serif" font-size="16.00">2007</text>
</g>
<!-- 2004&#45;2006&#45;&gt;2007 -->
<g id="edge3" class="edge"><title>2004&#45;2006&#45;&gt;2007</title>
<path fill="none" stroke="black" d="M51.1016,-669.813C51.1016,-661.789 51.1016,-652.047 51.1016,-643.069"/>
<polygon fill="black" stroke="black" points="54.6017,-643.029 51.1016,-633.029 47.6017,-643.029 54.6017,-643.029"/>
</g>
<!-- 2008 -->
<g id="node5" class="node"><title>2008</title>
<text text-anchor="middle" x="51.1016" y="-537.2" font-family="Times,serif" font-size="16.00">2008</text>
</g>
<!-- 2007&#45;&gt;2008 -->
<g id="edge4" class="edge"><title>2007&#45;&gt;2008</title>
<path fill="none" stroke="black" d="M51.1016,-596.813C51.1016,-588.789 51.1016,-579.047 51.1016,-570.069"/>
<polygon fill="black" stroke="black" points="54.6017,-570.029 51.1016,-560.029 47.6017,-570.029 54.6017,-570.029"/>
</g>
<!-- 2009 -->
<g id="node6" class="node"><title>2009</title>
<text text-anchor="middle" x="51.1016" y="-464.2" font-family="Times,serif" font-size="16.00">2009</text>
</g>
<!-- 2008&#45;&gt;2009 -->
<g id="edge5" class="edge"><title>2008&#45;&gt;2009</title>
<path fill="none" stroke="black" d="M51.1016,-523.813C51.1016,-515.789 51.1016,-506.047 51.1016,-497.069"/>
<polygon fill="black" stroke="black" points="54.6017,-497.029 51.1016,-487.029 47.6017,-497.029 54.6017,-497.029"/>
</g>
<!-- 2010 -->
<g id="node7" class="node"><title>2010</title>
<text text-anchor="middle" x="51.1016" y="-391.2" font-family="Times,serif" font-size="16.00">2010</text>
</g>
<!-- 2009&#45;&gt;2010 -->
<g id="edge6" class="edge"><title>2009&#45;&gt;2010</title>
<path fill="none" stroke="black" d="M51.1016,-450.813C51.1016,-442.789 51.1016,-433.047 51.1016,-424.069"/>
<polygon fill="black" stroke="black" points="54.6017,-424.029 51.1016,-414.029 47.6017,-424.029 54.6017,-424.029"/>
</g>
<!-- 2011 -->
<g id="node8" class="node"><title>2011</title>
<text text-anchor="middle" x="51.1016" y="-305.2" font-family="Times,serif" font-size="16.00">2011</text>
</g>
<!-- 2010&#45;&gt;2011 -->
<g id="edge7" class="edge"><title>2010&#45;&gt;2011</title>
<path fill="none" stroke="black" d="M51.1016,-377.595C51.1016,-366.257 51.1016,-351.227 51.1016,-338.315"/>
<polygon fill="black" stroke="black" points="54.6017,-338.095 51.1016,-328.095 47.6017,-338.095 54.6017,-338.095"/>
</g>
<!-- 2012 -->
<g id="node9" class="node"><title>2012</title>
<text text-anchor="middle" x="51.1016" y="-232.2" font-family="Times,serif" font-size="16.00">2012</text>
</g>
<!-- 2011&#45;&gt;2012 -->
<g id="edge8" class="edge"><title>2011&#45;&gt;2012</title>
<path fill="none" stroke="black" d="M51.1016,-291.813C51.1016,-283.789 51.1016,-274.047 51.1016,-265.069"/>
<polygon fill="black" stroke="black" points="54.6017,-265.029 51.1016,-255.029 47.6017,-265.029 54.6017,-265.029"/>
</g>
<!-- 2013 -->
<g id="node10" class="node"><title>2013</title>
<text text-anchor="middle" x="51.1016" y="-159.2" font-family="Times,serif" font-size="16.00">2013</text>
</g>
<!-- 2012&#45;&gt;2013 -->
<g id="edge9" class="edge"><title>2012&#45;&gt;2013</title>
<path fill="none" stroke="black" d="M51.1016,-218.813C51.1016,-210.789 51.1016,-201.047 51.1016,-192.069"/>
<polygon fill="black" stroke="black" points="54.6017,-192.029 51.1016,-182.029 47.6017,-192.029 54.6017,-192.029"/>
</g>
<!-- 2014 -->
<g id="node11" class="node"><title>2014</title>
<text text-anchor="middle" x="51.1016" y="-86.2" font-family="Times,serif" font-size="16.00">2014</text>
</g>
<!-- 2013&#45;&gt;2014 -->
<g id="edge10" class="edge"><title>2013&#45;&gt;2014</title>
<path fill="none" stroke="black" d="M51.1016,-145.813C51.1016,-137.789 51.1016,-128.047 51.1016,-119.069"/>
<polygon fill="black" stroke="black" points="54.6017,-119.029 51.1016,-109.029 47.6017,-119.029 54.6017,-119.029"/>
</g>
<!-- unknowndate -->
<g id="node12" class="node"><title>unknowndate</title>
<text text-anchor="middle" x="51.1016" y="-13.2" font-family="Times,serif" font-size="16.00">unknowndate</text>
</g>
<!-- 2014&#45;&gt;unknowndate -->
<g id="edge11" class="edge"><title>2014&#45;&gt;unknowndate</title>
<path fill="none" stroke="black" d="M51.1016,-72.8129C51.1016,-64.7895 51.1016,-55.0475 51.1016,-46.0691"/>
<polygon fill="black" stroke="black" points="54.6017,-46.0288 51.1016,-36.0288 47.6017,-46.0289 54.6017,-46.0288"/>
</g>
<!-- livejournal -->
<g id="node13" class="node"><title>livejournal</title>
<polygon fill="none" stroke="black" points="189.251,-852 112.952,-852 112.952,-816 189.251,-816 189.251,-852"/>
<text text-anchor="middle" x="151.102" y="-829.8" font-family="Times,serif" font-size="14.00">livejournal</text>
</g>
<!-- dreamwidth -->
<g id="node36" class="node"><title>dreamwidth</title>
<ellipse fill="none" stroke="black" cx="223.102" cy="-542" rx="52.1934" ry="18"/>
<text text-anchor="middle" x="223.102" y="-537.8" font-family="Times,serif" font-size="14.00">dreamwidth</text>
</g>
<!-- livejournal&#45;&gt;dreamwidth -->
<g id="edge62" class="edge"><title>livejournal&#45;&gt;dreamwidth</title>
<path fill="none" stroke="black" d="M156.016,-815.944C159.698,-801.66 164.102,-780.672 164.102,-762 164.102,-762 164.102,-762 164.102,-614 164.102,-594.392 177.577,-577.31 191.647,-564.817"/>
<polygon fill="black" stroke="black" points="193.973,-567.436 199.444,-558.362 189.509,-562.044 193.973,-567.436"/>
</g>
<!-- otw -->
<g id="node37" class="node"><title>otw</title>
<ellipse fill="none" stroke="black" cx="126.102" cy="-542" rx="27" ry="18"/>
<text text-anchor="middle" x="126.102" y="-537.8" font-family="Times,serif" font-size="14.00">otw</text>
</g>
<!-- livejournal&#45;&gt;otw -->
<g id="edge63" class="edge"><title>livejournal&#45;&gt;otw</title>
<path fill="none" stroke="black" d="M141.364,-815.794C134.345,-801.769 126.102,-781.21 126.102,-762 126.102,-762 126.102,-762 126.102,-614 126.102,-599.651 126.102,-583.671 126.102,-570.511"/>
<polygon fill="black" stroke="black" points="129.602,-570.216 126.102,-560.216 122.602,-570.216 129.602,-570.216"/>
</g>
<!-- wiscon -->
<g id="node14" class="node"><title>wiscon</title>
<ellipse fill="none" stroke="black" cx="1214.1" cy="-834" rx="35.3216" ry="18"/>
<text text-anchor="middle" x="1214.1" y="-829.8" font-family="Times,serif" font-size="14.00">wiscon</text>
</g>
<!-- racefail -->
<g id="node39" class="node"><title>racefail</title>
<polygon fill="none" stroke="black" points="619.102,-487 567.548,-469 619.102,-451 670.655,-469 619.102,-487"/>
<text text-anchor="middle" x="619.102" y="-464.8" font-family="Times,serif" font-size="14.00">racefail</text>
</g>
<!-- wiscon&#45;&gt;racefail -->
<g id="edge61" class="edge"><title>wiscon&#45;&gt;racefail</title>
<path fill="none" stroke="black" d="M1214.1,-815.784C1214.1,-801.405 1214.1,-780.366 1214.1,-762 1214.1,-762 1214.1,-762 1214.1,-541 1214.1,-489.759 806.972,-493.155 756.102,-487 725.854,-483.34 691.864,-479.123 665.307,-475.805"/>
<polygon fill="black" stroke="black" points="665.508,-472.303 655.15,-474.534 664.639,-479.248 665.508,-472.303"/>
</g>
<!-- adacamp -->
<g id="node51" class="node"><title>adacamp</title>
<ellipse fill="none" stroke="black" cx="1137.1" cy="-237" rx="41.5593" ry="18"/>
<text text-anchor="middle" x="1137.1" y="-232.8" font-family="Times,serif" font-size="14.00">adacamp</text>
</g>
<!-- wiscon&#45;&gt;adacamp -->
<g id="edge33" class="edge"><title>wiscon&#45;&gt;adacamp</title>
<path fill="none" stroke="black" d="M1236.49,-820.013C1254.6,-807.65 1277.1,-787.213 1277.1,-762 1277.1,-762 1277.1,-762 1277.1,-309 1277.1,-295.928 1264.06,-299.12 1253.1,-292 1239.23,-282.99 1235.88,-280.421 1221.1,-273 1206.99,-265.916 1191.1,-259.029 1176.96,-253.264"/>
<polygon fill="black" stroke="black" points="1178.08,-249.944 1167.5,-249.465 1175.47,-256.439 1178.08,-249.944"/>
<text text-anchor="middle" x="1313.97" y="-537.8" font-family="Times,serif" font-size="14.00">a11y policies</text>
</g>
<!-- linuxconfau -->
<g id="node15" class="node"><title>linuxconfau</title>
<polygon fill="none" stroke="black" points="777.471,-852 694.732,-852 694.732,-816 777.471,-816 777.471,-852"/>
<text text-anchor="middle" x="736.102" y="-829.8" font-family="Times,serif" font-size="14.00">linuxconfau</text>
</g>
<!-- haecksen -->
<g id="node31" class="node"><title>haecksen</title>
<ellipse fill="none" stroke="black" cx="725.102" cy="-615" rx="42.5283" ry="18"/>
<text text-anchor="middle" x="725.102" y="-610.8" font-family="Times,serif" font-size="14.00">haecksen</text>
</g>
<!-- linuxconfau&#45;&gt;haecksen -->
<g id="edge54" class="edge"><title>linuxconfau&#45;&gt;haecksen</title>
<path fill="none" stroke="black" d="M735.238,-815.972C733.339,-778.511 728.786,-688.676 726.484,-643.264"/>
<polygon fill="black" stroke="black" points="729.978,-643.059 725.976,-633.249 722.987,-643.413 729.978,-643.059"/>
</g>
<!-- adainitiative -->
<g id="node47" class="node"><title>adainitiative</title>
<ellipse fill="none" stroke="black" cx="514.102" cy="-310" rx="53.6299" ry="18"/>
<text text-anchor="middle" x="514.102" y="-305.8" font-family="Times,serif" font-size="14.00">adainitiative</text>
</g>
<!-- linuxconfau&#45;&gt;adainitiative -->
<g id="edge20" class="edge"><title>linuxconfau&#45;&gt;adainitiative</title>
<path fill="none" stroke="black" d="M729.412,-815.938C716.986,-785.268 688.46,-719.417 654.102,-670 565.419,-542.447 472.929,-558.586 416.102,-414 410.249,-399.109 408.634,-392.151 416.102,-378 427.832,-355.771 450.626,-339.516 471.281,-328.588"/>
<polygon fill="black" stroke="black" points="472.895,-331.694 480.267,-324.084 469.758,-325.436 472.895,-331.694"/>
</g>
<!-- Anita Borg Institute -->
<g id="node16" class="node"><title>Anita Borg Institute</title>
<ellipse fill="none" stroke="black" cx="1348.1" cy="-834" rx="80.8814" ry="18"/>
<text text-anchor="middle" x="1348.1" y="-829.8" font-family="Times,serif" font-size="14.00">Anita Borg Institute</text>
</g>
<!-- GHC -->
<g id="node18" class="node"><title>GHC</title>
<ellipse fill="none" stroke="black" cx="1493.1" cy="-834" rx="28.5583" ry="18"/>
<text text-anchor="middle" x="1493.1" y="-829.8" font-family="Times,serif" font-size="14.00">GHC</text>
</g>
<!-- Anita Borg Institute&#45;&gt;GHC -->
<g id="edge14" class="edge"><title>Anita Borg Institute&#45;&gt;GHC</title>
<path fill="none" stroke="black" d="M1428.81,-834C1437.21,-834 1445.6,-834 1453.99,-834"/>
<polygon fill="black" stroke="black" points="1454.22,-837.5 1464.22,-834 1454.22,-830.5 1454.22,-837.5"/>
</g>
<!-- systers -->
<g id="node17" class="node"><title>systers</title>
<ellipse fill="none" stroke="black" cx="616.102" cy="-834" rx="34.3614" ry="18"/>
<text text-anchor="middle" x="616.102" y="-829.8" font-family="Times,serif" font-size="14.00">systers</text>
</g>
<!-- linuxchix -->
<g id="node19" class="node"><title>linuxchix</title>
<ellipse fill="none" stroke="black" cx="552.102" cy="-761" rx="43.5233" ry="18"/>
<text text-anchor="middle" x="552.102" y="-756.8" font-family="Times,serif" font-size="14.00">linuxchix</text>
</g>
<!-- systers&#45;&gt;linuxchix -->
<g id="edge15" class="edge"><title>systers&#45;&gt;linuxchix</title>
<path fill="none" stroke="black" d="M601.898,-817.243C593.564,-807.997 582.868,-796.132 573.527,-785.769"/>
<polygon fill="black" stroke="black" points="576.004,-783.29 566.709,-778.205 570.805,-787.977 576.004,-783.29"/>
</g>
<!-- debianwomen -->
<g id="node25" class="node"><title>debianwomen</title>
<ellipse fill="none" stroke="black" cx="290.102" cy="-688" rx="59.927" ry="18"/>
<text text-anchor="middle" x="290.102" y="-683.8" font-family="Times,serif" font-size="14.00">debianwomen</text>
</g>
<!-- linuxchix&#45;&gt;debianwomen -->
<g id="edge47" class="edge"><title>linuxchix&#45;&gt;debianwomen</title>
<path fill="none" stroke="black" d="M516.767,-750.425C472.021,-738.299 394.532,-717.3 342.792,-703.279"/>
<polygon fill="black" stroke="black" points="343.692,-699.896 333.125,-700.659 341.861,-706.653 343.692,-699.896"/>
</g>
<!-- linuxchix&#45;&gt;haecksen -->
<g id="edge53" class="edge"><title>linuxchix&#45;&gt;haecksen</title>
<path fill="none" stroke="black" d="M582.678,-747.849C604.069,-738.427 632.554,-723.961 654.102,-706 676.506,-687.325 696.527,-660.536 709.551,-641.044"/>
<polygon fill="black" stroke="black" points="712.491,-642.944 715.026,-632.657 706.629,-639.117 712.491,-642.944"/>
</g>
<!-- geekfeminism -->
<g id="node35" class="node"><title>geekfeminism</title>
<ellipse fill="none" stroke="black" cx="358.102" cy="-542" rx="60.4115" ry="18"/>
<text text-anchor="middle" x="358.102" y="-537.8" font-family="Times,serif" font-size="14.00">geekfeminism</text>
</g>
<!-- linuxchix&#45;&gt;geekfeminism -->
<g id="edge16" class="edge"><title>linuxchix&#45;&gt;geekfeminism</title>
<path fill="none" stroke="black" d="M508.442,-759.576C427.145,-757.763 257.493,-748.81 221.102,-706 177.419,-654.614 265.583,-593.682 319.852,-562.91"/>
<polygon fill="black" stroke="black" points="321.86,-565.799 328.899,-557.88 318.458,-559.681 321.86,-565.799"/>
</g>
<!-- sfruby -->
<g id="node20" class="node"><title>sfruby</title>
<ellipse fill="none" stroke="black" cx="1822.1" cy="-761" rx="32.9081" ry="18"/>
<text text-anchor="middle" x="1822.1" y="-756.8" font-family="Times,serif" font-size="14.00">sfruby</text>
</g>
<!-- railsbridge -->
<g id="node41" class="node"><title>railsbridge</title>
<ellipse fill="none" stroke="black" cx="1916.1" cy="-469" rx="47.8496" ry="18"/>
<text text-anchor="middle" x="1916.1" y="-464.8" font-family="Times,serif" font-size="14.00">railsbridge</text>
</g>
<!-- sfruby&#45;&gt;railsbridge -->
<g id="edge72" class="edge"><title>sfruby&#45;&gt;railsbridge</title>
<path fill="none" stroke="black" d="M1822.1,-742.784C1822.1,-728.405 1822.1,-707.366 1822.1,-689 1822.1,-689 1822.1,-689 1822.1,-541 1822.1,-514.189 1846.75,-496.218 1870.81,-485.064"/>
<polygon fill="black" stroke="black" points="1872.5,-488.148 1880.3,-480.979 1869.73,-481.719 1872.5,-488.148"/>
</g>
<!-- gsoc -->
<g id="node21" class="node"><title>gsoc</title>
<polygon fill="none" stroke="black" points="1578.1,-706 1524.1,-706 1524.1,-670 1578.1,-670 1578.1,-706"/>
<text text-anchor="middle" x="1551.1" y="-683.8" font-family="Times,serif" font-size="14.00">gsoc</text>
</g>
<!-- opw -->
<g id="node22" class="node"><title>opw</title>
<ellipse fill="none" stroke="black" cx="1641.1" cy="-688" rx="27" ry="18"/>
<text text-anchor="middle" x="1641.1" y="-683.8" font-family="Times,serif" font-size="14.00">opw</text>
</g>
<!-- gsoc&#45;&gt;opw -->
<g id="edge52" class="edge"><title>gsoc&#45;&gt;opw</title>
<path fill="none" stroke="black" d="M1578.17,-688C1586.77,-688 1595.37,-688 1603.97,-688"/>
<polygon fill="black" stroke="black" points="1604.06,-691.5 1614.06,-688 1604.06,-684.5 1604.06,-691.5"/>
</g>
<!-- rgsoc -->
<g id="node65" class="node"><title>rgsoc</title>
<ellipse fill="none" stroke="black" cx="1720.1" cy="-164" rx="29.2133" ry="18"/>
<text text-anchor="middle" x="1720.1" y="-159.8" font-family="Times,serif" font-size="14.00">rgsoc</text>
</g>
<!-- gsoc&#45;&gt;rgsoc -->
<g id="edge60" class="edge"><title>gsoc&#45;&gt;rgsoc</title>
<path fill="none" stroke="black" d="M1578.43,-676.15C1619.17,-659.561 1691.1,-628.502 1691.1,-616 1691.1,-616 1691.1,-616 1691.1,-236 1691.1,-219.821 1697.63,-203.006 1704.5,-189.802"/>
<polygon fill="black" stroke="black" points="1707.66,-191.327 1709.47,-180.888 1701.54,-187.919 1707.66,-191.327"/>
</g>
<!-- ubuntuwomen -->
<g id="node23" class="node"><title>ubuntuwomen</title>
<ellipse fill="none" stroke="black" cx="584.102" cy="-688" rx="60.9133" ry="18"/>
<text text-anchor="middle" x="584.102" y="-683.8" font-family="Times,serif" font-size="14.00">ubuntuwomen</text>
</g>
<!-- gnomewomen -->
<g id="node24" class="node"><title>gnomewomen</title>
<ellipse fill="none" stroke="black" cx="445.102" cy="-688" rx="60.4202" ry="18"/>
<text text-anchor="middle" x="445.102" y="-683.8" font-family="Times,serif" font-size="14.00">gnomewomen</text>
</g>
<!-- gnomewomen&#45;&gt;opw -->
<g id="edge51" class="edge"><title>gnomewomen&#45;&gt;opw</title>
<path fill="none" stroke="black" d="M472.207,-704.277C486.747,-712.065 505.296,-720.54 523.102,-724.5 580.315,-737.224 1521.5,-739.712 1578.1,-724.5 1590.98,-721.04 1603.94,-714.235 1614.73,-707.43"/>
<polygon fill="black" stroke="black" points="1616.83,-710.232 1623.23,-701.786 1612.96,-704.4 1616.83,-710.232"/>
</g>
<!-- debianwomen&#45;&gt;ubuntuwomen -->
<g id="edge48" class="edge"><title>debianwomen&#45;&gt;ubuntuwomen</title>
<path fill="none" stroke="black" d="M321.352,-703.346C339.486,-711.393 363.039,-720.407 385.102,-724.5 437.54,-734.227 453.012,-735.952 505.102,-724.5 519.588,-721.315 534.581,-715.205 547.563,-708.882"/>
<polygon fill="black" stroke="black" points="549.293,-711.929 556.623,-704.279 546.123,-705.688 549.293,-711.929"/>
</g>
<!-- debianwomen&#45;&gt;gnomewomen -->
<g id="edge49" class="edge"><title>debianwomen&#45;&gt;gnomewomen</title>
<path fill="none" stroke="black" d="M350.043,-688C358.137,-688 366.23,-688 374.324,-688"/>
<polygon fill="black" stroke="black" points="374.576,-691.5 384.576,-688 374.576,-684.5 374.576,-691.5"/>
</g>
<!-- girlgeekdinners -->
<g id="node26" class="node"><title>girlgeekdinners</title>
<polygon fill="none" stroke="black" points="2200.68,-706 2097.52,-706 2097.52,-670 2200.68,-670 2200.68,-706"/>
<text text-anchor="middle" x="2149.1" y="-683.8" font-family="Times,serif" font-size="14.00">girlgeekdinners</text>
</g>
<!-- blogher -->
<g id="node27" class="node"><title>blogher</title>
<ellipse fill="none" stroke="black" cx="2256.1" cy="-688" rx="37.2421" ry="18"/>
<text text-anchor="middle" x="2256.1" y="-683.8" font-family="Times,serif" font-size="14.00">blogher</text>
</g>
<!-- speakerswiki -->
<g id="node28" class="node"><title>speakerswiki</title>
<ellipse fill="none" stroke="black" cx="2385.1" cy="-688" rx="56.0528" ry="18"/>
<text text-anchor="middle" x="2385.1" y="-683.8" font-family="Times,serif" font-size="14.00">speakerswiki</text>
</g>
<!-- blogher&#45;&gt;speakerswiki -->
<g id="edge68" class="edge"><title>blogher&#45;&gt;speakerswiki</title>
<path fill="none" stroke="black" d="M2293.39,-688C2301.71,-688 2310.03,-688 2318.35,-688"/>
<polygon fill="black" stroke="black" points="2318.5,-691.5 2328.5,-688 2318.5,-684.5 2318.5,-691.5"/>
</g>
<!-- railsconf2005 -->
<g id="node29" class="node"><title>railsconf2005</title>
<ellipse fill="none" stroke="black" cx="1909.1" cy="-688" rx="58.9668" ry="18"/>
<text text-anchor="middle" x="1909.1" y="-683.8" font-family="Times,serif" font-size="14.00">railsconf2005</text>
</g>
<!-- devchix -->
<g id="node30" class="node"><title>devchix</title>
<ellipse fill="none" stroke="black" cx="2041.1" cy="-688" rx="38.2024" ry="18"/>
<text text-anchor="middle" x="2041.1" y="-683.8" font-family="Times,serif" font-size="14.00">devchix</text>
</g>
<!-- railsconf2005&#45;&gt;devchix -->
<g id="edge70" class="edge"><title>railsconf2005&#45;&gt;devchix</title>
<path fill="none" stroke="black" d="M1967.88,-688C1976.15,-688 1984.42,-688 1992.69,-688"/>
<polygon fill="black" stroke="black" points="1992.78,-691.5 2002.78,-688 1992.78,-684.5 1992.78,-691.5"/>
</g>
<!-- devchix&#45;&gt;railsbridge -->
<g id="edge71" class="edge"><title>devchix&#45;&gt;railsbridge</title>
<path fill="none" stroke="black" d="M2031.5,-670.333C2009.78,-632.622 1956.74,-540.548 1930.83,-495.571"/>
<polygon fill="black" stroke="black" points="1933.76,-493.642 1925.74,-486.724 1927.69,-497.136 1933.76,-493.642"/>
</g>
<!-- owoot -->
<g id="node49" class="node"><title>owoot</title>
<ellipse fill="none" stroke="black" cx="769.102" cy="-310" rx="32.4324" ry="18"/>
<text text-anchor="middle" x="769.102" y="-305.8" font-family="Times,serif" font-size="14.00">owoot</text>
</g>
<!-- haecksen&#45;&gt;owoot -->
<g id="edge50" class="edge"><title>haecksen&#45;&gt;owoot</title>
<path fill="none" stroke="black" d="M715.272,-597.409C707.909,-583.402 699.102,-562.559 699.102,-543 699.102,-543 699.102,-543 699.102,-395 699.102,-368.046 720.635,-345.151 739.816,-330.104"/>
<polygon fill="black" stroke="black" points="742.158,-332.724 748.099,-323.952 737.984,-327.105 742.158,-332.724"/>
</g>
<!-- haecksen&#45;&gt;adacamp -->
<g id="edge55" class="edge"><title>haecksen&#45;&gt;adacamp</title>
<path fill="none" stroke="black" d="M766.729,-611.311C889.095,-602.278 1239.1,-567.885 1239.1,-470 1239.1,-470 1239.1,-470 1239.1,-309 1239.1,-292.549 1202.91,-270.503 1173.64,-255.366"/>
<polygon fill="black" stroke="black" points="1174.94,-252.101 1164.44,-250.71 1171.78,-258.347 1174.94,-252.101"/>
</g>
<!-- shesgeeky -->
<g id="node32" class="node"><title>shesgeeky</title>
<ellipse fill="none" stroke="black" cx="2385.1" cy="-615" rx="46.4046" ry="18"/>
<text text-anchor="middle" x="2385.1" y="-610.8" font-family="Times,serif" font-size="14.00">shesgeeky</text>
</g>
<!-- shesgeeky&#45;&gt;speakerswiki -->
<g id="edge69" class="edge"><title>shesgeeky&#45;&gt;speakerswiki</title>
<path fill="none" stroke="black" d="M2385.1,-633.029C2385.1,-641.029 2385.1,-650.765 2385.1,-659.753"/>
<polygon fill="black" stroke="black" points="2381.6,-659.813 2385.1,-669.813 2388.6,-659.813 2381.6,-659.813"/>
</g>
<!-- noisebridge -->
<g id="node33" class="node"><title>noisebridge</title>
<polygon fill="none" stroke="black" points="1524.92,-633 1443.28,-633 1443.28,-597 1524.92,-597 1524.92,-633"/>
<text text-anchor="middle" x="1484.1" y="-610.8" font-family="Times,serif" font-size="14.00">noisebridge</text>
</g>
<!-- anarchafeminist hacker hive -->
<g id="node58" class="node"><title>anarchafeminist hacker hive</title>
<ellipse fill="none" stroke="black" cx="1553.1" cy="-237" rx="109.581" ry="18"/>
<text text-anchor="middle" x="1553.1" y="-232.8" font-family="Times,serif" font-size="14.00">anarchafeminist hacker hive</text>
</g>
<!-- noisebridge&#45;&gt;anarchafeminist hacker hive -->
<g id="edge37" class="edge"><title>noisebridge&#45;&gt;anarchafeminist hacker hive</title>
<path fill="none" stroke="black" d="M1498.14,-596.77C1507.87,-583.058 1519.1,-562.927 1519.1,-543 1519.1,-543 1519.1,-543 1519.1,-309 1519.1,-292.944 1526.26,-276.671 1534.01,-263.763"/>
<polygon fill="black" stroke="black" points="1537.18,-265.308 1539.66,-255.009 1531.3,-261.511 1537.18,-265.308"/>
</g>
<!-- doubleunion -->
<g id="node64" class="node"><title>doubleunion</title>
<ellipse fill="none" stroke="black" cx="1205.1" cy="-164" rx="54.1403" ry="18"/>
<text text-anchor="middle" x="1205.1" y="-159.8" font-family="Times,serif" font-size="14.00">doubleunion</text>
</g>
<!-- noisebridge&#45;&gt;doubleunion -->
<g id="edge38" class="edge"><title>noisebridge&#45;&gt;doubleunion</title>
<path fill="none" stroke="black" d="M1452.43,-596.961C1434.29,-584.68 1415.1,-566.204 1415.1,-543 1415.1,-543 1415.1,-543 1415.1,-236 1415.1,-204.01 1326.54,-183.626 1264.44,-173.266"/>
<polygon fill="black" stroke="black" points="1264.77,-169.773 1254.34,-171.628 1263.65,-176.683 1264.77,-169.773"/>
</g>
<!-- SFF CAHP -->
<g id="node34" class="node"><title>SFF CAHP</title>
<ellipse fill="none" stroke="black" cx="937.102" cy="-542" rx="50.8253" ry="18"/>
<text text-anchor="middle" x="937.102" y="-537.8" font-family="Times,serif" font-size="14.00">SFF CAHP</text>
</g>
<!-- backupproject -->
<g id="node43" class="node"><title>backupproject</title>
<ellipse fill="none" stroke="black" cx="1151.1" cy="-469" rx="60.3942" ry="18"/>
<text text-anchor="middle" x="1151.1" y="-464.8" font-family="Times,serif" font-size="14.00">backupproject</text>
</g>
<!-- SFF CAHP&#45;&gt;backupproject -->
<g id="edge26" class="edge"><title>SFF CAHP&#45;&gt;backupproject</title>
<path fill="none" stroke="black" d="M972.92,-529.116C1008.46,-517.325 1063.17,-499.172 1102.59,-486.093"/>
<polygon fill="black" stroke="black" points="1103.88,-489.356 1112.27,-482.885 1101.67,-482.712 1103.88,-489.356"/>
</g>
<!-- GF/TAI AHP -->
<g id="node48" class="node"><title>GF/TAI AHP</title>
<ellipse fill="none" stroke="black" cx="661.102" cy="-310" rx="57.1338" ry="18"/>
<text text-anchor="middle" x="661.102" y="-305.8" font-family="Times,serif" font-size="14.00">GF/TAI AHP</text>
</g>
<!-- SFF CAHP&#45;&gt;GF/TAI AHP -->
<g id="edge24" class="edge"><title>SFF CAHP&#45;&gt;GF/TAI AHP</title>
<path fill="none" stroke="black" d="M888.538,-536.744C849.102,-531.067 794.005,-517.833 756.102,-487 730.8,-466.418 691.472,-381.261 672.331,-337.391"/>
<polygon fill="black" stroke="black" points="675.425,-335.728 668.241,-327.941 669.001,-338.508 675.425,-335.728"/>
</g>
<!-- geekfeminism&#45;&gt;adainitiative -->
<g id="edge19" class="edge"><title>geekfeminism&#45;&gt;adainitiative</title>
<path fill="none" stroke="black" d="M354.617,-523.907C348.083,-486.598 338.386,-397.126 383.102,-346 392.988,-334.697 425.555,-325.967 455.741,-320.053"/>
<polygon fill="black" stroke="black" points="456.668,-323.44 465.851,-318.156 455.377,-316.561 456.668,-323.44"/>
</g>
<!-- geekfeminism&#45;&gt;GF/TAI AHP -->
<g id="edge22" class="edge"><title>geekfeminism&#45;&gt;GF/TAI AHP</title>
<path fill="none" stroke="black" d="M389.934,-526.581C429.366,-508.742 498.621,-477.483 558.102,-451 595.369,-434.407 616.796,-445.997 642.102,-414 658.968,-392.673 662.613,-361.119 662.728,-338.562"/>
<polygon fill="black" stroke="black" points="666.223,-338.23 662.543,-328.295 659.224,-338.356 666.223,-338.23"/>
</g>
<!-- seattleattic -->
<g id="node62" class="node"><title>seattleattic</title>
<ellipse fill="none" stroke="black" cx="513.102" cy="-164" rx="47.8323" ry="18"/>
<text text-anchor="middle" x="513.102" y="-159.8" font-family="Times,serif" font-size="14.00">seattleattic</text>
</g>
<!-- geekfeminism&#45;&gt;seattleattic -->
<g id="edge43" class="edge"><title>geekfeminism&#45;&gt;seattleattic</title>
<path fill="none" stroke="black" d="M343.69,-524.459C333.301,-510.81 321.102,-490.433 321.102,-470 321.102,-470 321.102,-470 321.102,-236 321.102,-220.662 408.414,-193.723 465.28,-177.804"/>
<polygon fill="black" stroke="black" points="466.468,-181.107 475.169,-175.061 464.597,-174.362 466.468,-181.107"/>
</g>
<!-- oscon2009 -->
<g id="node38" class="node"><title>oscon2009</title>
<ellipse fill="none" stroke="black" cx="223.102" cy="-469" rx="48.3514" ry="18"/>
<text text-anchor="middle" x="223.102" y="-464.8" font-family="Times,serif" font-size="14.00">oscon2009</text>
</g>
<!-- dreamwidth&#45;&gt;oscon2009 -->
<g id="edge64" class="edge"><title>dreamwidth&#45;&gt;oscon2009</title>
<path fill="none" stroke="black" d="M223.102,-523.813C223.102,-515.789 223.102,-506.047 223.102,-497.069"/>
<polygon fill="black" stroke="black" points="226.602,-497.029 223.102,-487.029 219.602,-497.029 226.602,-497.029"/>
</g>
<!-- otw&#45;&gt;oscon2009 -->
<g id="edge65" class="edge"><title>otw&#45;&gt;oscon2009</title>
<path fill="none" stroke="black" d="M143.893,-527.978C157.865,-517.75 177.614,-503.295 193.897,-491.377"/>
<polygon fill="black" stroke="black" points="196.044,-494.142 202.047,-485.411 191.91,-488.494 196.044,-494.142"/>
</g>
<!-- oscon2009&#45;&gt;geekfeminism -->
<g id="edge66" class="edge"><title>oscon2009&#45;&gt;geekfeminism</title>
<path fill="none" stroke="black" d="M249.854,-484.07C270.069,-494.702 298.077,-509.431 320.538,-521.244"/>
<polygon fill="black" stroke="black" points="318.992,-524.386 329.472,-525.943 322.25,-518.19 318.992,-524.386"/>
</g>
<!-- racefail&#45;&gt;geekfeminism -->
<g id="edge17" class="edge"><title>racefail&#45;&gt;geekfeminism</title>
<path fill="none" stroke="black" d="M595.801,-478.921C574.881,-486.724 543.226,-498.025 515.102,-506 483.137,-515.063 446.974,-523.262 417.418,-529.442"/>
<polygon fill="black" stroke="black" points="416.342,-526.09 407.257,-531.542 417.759,-532.945 416.342,-526.09"/>
</g>
<!-- couchdb -->
<g id="node40" class="node"><title>couchdb</title>
<polygon fill="none" stroke="black" points="1776.1,-487 1719.28,-469 1776.1,-451 1832.93,-469 1776.1,-487"/>
<text text-anchor="middle" x="1776.1" y="-464.8" font-family="Times,serif" font-size="14.00">couchdb</text>
</g>
<!-- couchdb&#45;&gt;railsbridge -->
<g id="edge56" class="edge"><title>couchdb&#45;&gt;railsbridge</title>
<path fill="none" stroke="black" d="M1832.98,-469C1841.29,-469 1849.6,-469 1857.91,-469"/>
<polygon fill="black" stroke="black" points="1858.04,-472.5 1868.04,-469 1858.04,-465.5 1858.04,-472.5"/>
</g>
<!-- railsgirls -->
<g id="node52" class="node"><title>railsgirls</title>
<ellipse fill="none" stroke="black" cx="1784.1" cy="-237" rx="41.1093" ry="18"/>
<text text-anchor="middle" x="1784.1" y="-232.8" font-family="Times,serif" font-size="14.00">railsgirls</text>
</g>
<!-- railsbridge&#45;&gt;railsgirls -->
<g id="edge58" class="edge"><title>railsbridge&#45;&gt;railsgirls</title>
<path fill="none" stroke="black" d="M1902.4,-451.512C1894.04,-441.084 1883.4,-427.137 1875.1,-414 1842.87,-362.958 1812.06,-299.184 1795.87,-264.123"/>
<polygon fill="black" stroke="black" points="1799.06,-262.663 1791.71,-255.03 1792.69,-265.579 1799.06,-262.663"/>
</g>
<!-- pystar -->
<g id="node76" class="node"><title>pystar</title>
<ellipse fill="none" stroke="black" cx="1916.1" cy="-396" rx="31.9393" ry="18"/>
<text text-anchor="middle" x="1916.1" y="-391.8" font-family="Times,serif" font-size="14.00">pystar</text>
</g>
<!-- railsbridge&#45;&gt;pystar -->
<g id="edge57" class="edge"><title>railsbridge&#45;&gt;pystar</title>
<path fill="none" stroke="black" d="M1916.1,-450.813C1916.1,-442.789 1916.1,-433.047 1916.1,-424.069"/>
<polygon fill="black" stroke="black" points="1919.6,-424.029 1916.1,-414.029 1912.6,-424.029 1919.6,-424.029"/>
</g>
<!-- open source boobs project -->
<g id="node42" class="node"><title>open source boobs project</title>
<polygon fill="none" stroke="black" points="910.102,-487 764.647,-469 910.102,-451 1055.56,-469 910.102,-487"/>
<text text-anchor="middle" x="910.102" y="-464.8" font-family="Times,serif" font-size="14.00">open source boobs project</text>
</g>
<!-- open source boobs project&#45;&gt;backupproject -->
<g id="edge25" class="edge"><title>open source boobs project&#45;&gt;backupproject</title>
<path fill="none" stroke="black" d="M1055.55,-469C1063.86,-469 1072.18,-469 1080.49,-469"/>
<polygon fill="black" stroke="black" points="1080.63,-472.5 1090.63,-469 1080.63,-465.5 1080.63,-472.5"/>
</g>
<!-- backupribbons -->
<g id="node46" class="node"><title>backupribbons</title>
<ellipse fill="none" stroke="black" cx="1149.1" cy="-396" rx="62.3494" ry="18"/>
<text text-anchor="middle" x="1149.1" y="-391.8" font-family="Times,serif" font-size="14.00">backupribbons</text>
</g>
<!-- backupproject&#45;&gt;backupribbons -->
<g id="edge27" class="edge"><title>backupproject&#45;&gt;backupribbons</title>
<path fill="none" stroke="black" d="M1150.62,-450.813C1150.39,-442.789 1150.12,-433.047 1149.86,-424.069"/>
<polygon fill="black" stroke="black" points="1153.36,-423.926 1149.58,-414.029 1146.36,-424.123 1153.36,-423.926"/>
</g>
<!-- osbridge -->
<g id="node44" class="node"><title>osbridge</title>
<ellipse fill="none" stroke="black" cx="1346.1" cy="-469" rx="40.6248" ry="18"/>
<text text-anchor="middle" x="1346.1" y="-464.8" font-family="Times,serif" font-size="14.00">osbridge</text>
</g>
<!-- apachecon assault -->
<g id="node45" class="node"><title>apachecon assault</title>
<polygon fill="none" stroke="black" points="529.102,-414 424.648,-396 529.102,-378 633.556,-396 529.102,-414"/>
<text text-anchor="middle" x="529.102" y="-391.8" font-family="Times,serif" font-size="14.00">apachecon assault</text>
</g>
<!-- apachecon assault&#45;&gt;adainitiative -->
<g id="edge18" class="edge"><title>apachecon assault&#45;&gt;adainitiative</title>
<path fill="none" stroke="black" d="M526.138,-378.404C524.09,-366.935 521.319,-351.418 518.952,-338.163"/>
<polygon fill="black" stroke="black" points="522.365,-337.367 517.162,-328.138 515.474,-338.597 522.365,-337.367"/>
</g>
<!-- apachecon assault&#45;&gt;GF/TAI AHP -->
<g id="edge21" class="edge"><title>apachecon assault&#45;&gt;GF/TAI AHP</title>
<path fill="none" stroke="black" d="M550.31,-381.504C571.339,-368.121 603.857,-347.428 628.233,-331.916"/>
<polygon fill="black" stroke="black" points="630.251,-334.78 636.809,-326.459 626.493,-328.875 630.251,-334.78"/>
</g>
<!-- adainitiative&#45;&gt;GF/TAI AHP -->
<g id="edge23" class="edge"><title>adainitiative&#45;&gt;GF/TAI AHP</title>
<path fill="none" stroke="black" d="M568.078,-310C576.61,-310 585.142,-310 593.673,-310"/>
<polygon fill="black" stroke="black" points="593.689,-313.5 603.689,-310 593.689,-306.5 593.689,-313.5"/>
</g>
<!-- adainitiative&#45;&gt;adacamp -->
<g id="edge32" class="edge"><title>adainitiative&#45;&gt;adacamp</title>
<path fill="none" stroke="black" d="M557.242,-299.048C569.434,-296.48 582.747,-293.906 595.102,-292 689.223,-277.477 970.762,-252.379 1086.53,-242.337"/>
<polygon fill="black" stroke="black" points="1086.89,-245.819 1096.55,-241.469 1086.29,-238.845 1086.89,-245.819"/>
</g>
<!-- Skeptic AHPs -->
<g id="node53" class="node"><title>Skeptic AHPs</title>
<ellipse fill="none" stroke="black" cx="743.102" cy="-237" rx="59.4858" ry="18"/>
<text text-anchor="middle" x="743.102" y="-232.8" font-family="Times,serif" font-size="14.00">Skeptic AHPs</text>
</g>
<!-- GF/TAI AHP&#45;&gt;Skeptic AHPs -->
<g id="edge29" class="edge"><title>GF/TAI AHP&#45;&gt;Skeptic AHPs</title>
<path fill="none" stroke="black" d="M679.709,-292.889C690.64,-283.424 704.634,-271.308 716.692,-260.867"/>
<polygon fill="black" stroke="black" points="719.015,-263.485 724.284,-254.293 714.433,-258.193 719.015,-263.485"/>
</g>
<!-- PyCon AHP -->
<g id="node54" class="node"><title>PyCon AHP</title>
<ellipse fill="none" stroke="black" cx="874.102" cy="-237" rx="53.7149" ry="18"/>
<text text-anchor="middle" x="874.102" y="-232.8" font-family="Times,serif" font-size="14.00">PyCon AHP</text>
</g>
<!-- GF/TAI AHP&#45;&gt;PyCon AHP -->
<g id="edge28" class="edge"><title>GF/TAI AHP&#45;&gt;PyCon AHP</title>
<path fill="none" stroke="black" d="M699.182,-296.307C735.101,-284.334 789.027,-266.358 827.499,-253.534"/>
<polygon fill="black" stroke="black" points="829.039,-256.71 837.419,-250.227 826.826,-250.069 829.039,-256.71"/>
</g>
<!-- Scalzi&#39;s AHP pledge -->
<g id="node67" class="node"><title>Scalzi&#39;s AHP pledge</title>
<ellipse fill="none" stroke="black" cx="661.102" cy="-164" rx="81.7552" ry="18"/>
<text text-anchor="middle" x="661.102" y="-159.8" font-family="Times,serif" font-size="14.00">Scalzi&#39;s AHP pledge</text>
</g>
<!-- GF/TAI AHP&#45;&gt;Scalzi&#39;s AHP pledge -->
<g id="edge31" class="edge"><title>GF/TAI AHP&#45;&gt;Scalzi&#39;s AHP pledge</title>
<path fill="none" stroke="black" d="M661.102,-291.916C661.102,-267.341 661.102,-221.753 661.102,-192.427"/>
<polygon fill="black" stroke="black" points="664.602,-192.062 661.102,-182.062 657.602,-192.062 664.602,-192.062"/>
<text text-anchor="middle" x="664.208" y="-232.8" font-family="Times,serif" font-size="14.00">?</text>
</g>
<!-- #CoCPledge -->
<g id="node73" class="node"><title>#CoCPledge</title>
<ellipse fill="none" stroke="black" cx="956.102" cy="-91" rx="54.6334" ry="18"/>
<text text-anchor="middle" x="956.102" y="-86.8" font-family="Times,serif" font-size="14.00">#CoCPledge</text>
</g>
<!-- GF/TAI AHP&#45;&gt;#CoCPledge -->
<g id="edge30" class="edge"><title>GF/TAI AHP&#45;&gt;#CoCPledge</title>
<path fill="none" stroke="black" d="M703.523,-297.737C711.657,-295.72 720.124,-293.716 728.102,-292 774.214,-282.082 904.751,-289.324 937.102,-255 971.457,-218.549 967.585,-155.286 961.789,-119.23"/>
<polygon fill="black" stroke="black" points="965.162,-118.208 959.969,-108.974 958.27,-119.431 965.162,-118.208"/>
</g>
<!-- blackgirlscode -->
<g id="node50" class="node"><title>blackgirlscode</title>
<ellipse fill="none" stroke="black" cx="1922.1" cy="-310" rx="61.8476" ry="18"/>
<text text-anchor="middle" x="1922.1" y="-305.8" font-family="Times,serif" font-size="14.00">blackgirlscode</text>
</g>
<!-- adacamp&#45;&gt;osbridge -->
<g id="edge34" class="edge"><title>adacamp&#45;&gt;osbridge</title>
<path fill="none" stroke="black" d="M1167.9,-249.084C1174.51,-251.233 1181.5,-253.332 1188.1,-255 1233.16,-266.379 1256.61,-241.856 1291.1,-273 1315.98,-295.464 1334.3,-392.558 1342.04,-440.711"/>
<polygon fill="black" stroke="black" points="1338.6,-441.406 1343.61,-450.743 1345.52,-440.322 1338.6,-441.406"/>
<text text-anchor="middle" x="1363.97" y="-348.8" font-family="Times,serif" font-size="14.00">a11y policies</text>
</g>
<!-- flux -->
<g id="node63" class="node"><title>flux</title>
<ellipse fill="none" stroke="black" cx="1059.1" cy="-164" rx="27" ry="18"/>
<text text-anchor="middle" x="1059.1" y="-159.8" font-family="Times,serif" font-size="14.00">flux</text>
</g>
<!-- adacamp&#45;&gt;flux -->
<g id="edge40" class="edge"><title>adacamp&#45;&gt;flux</title>
<path fill="none" stroke="black" d="M1119.79,-220.243C1108.67,-210.122 1094.1,-196.862 1082.03,-185.87"/>
<polygon fill="black" stroke="black" points="1084.27,-183.173 1074.51,-179.03 1079.55,-188.35 1084.27,-183.173"/>
</g>
<!-- adacamp&#45;&gt;doubleunion -->
<g id="edge42" class="edge"><title>adacamp&#45;&gt;doubleunion</title>
<path fill="none" stroke="black" d="M1152.53,-219.889C1161.28,-210.76 1172.38,-199.164 1182.13,-188.984"/>
<polygon fill="black" stroke="black" points="1184.87,-191.183 1189.26,-181.54 1179.82,-186.341 1184.87,-191.183"/>
</g>
<!-- railsgirls&#45;&gt;rgsoc -->
<g id="edge59" class="edge"><title>railsgirls&#45;&gt;rgsoc</title>
<path fill="none" stroke="black" d="M1769.58,-219.889C1761,-210.369 1750,-198.165 1740.55,-187.683"/>
<polygon fill="black" stroke="black" points="1742.99,-185.161 1733.69,-180.076 1737.79,-189.847 1742.99,-185.161"/>
</g>
<!-- Feminist Frequency vids -->
<g id="node55" class="node"><title>Feminist Frequency vids</title>
<ellipse fill="none" stroke="black" cx="1941.1" cy="-237" rx="97.6053" ry="18"/>
<text text-anchor="middle" x="1941.1" y="-232.8" font-family="Times,serif" font-size="14.00">Feminist Frequency vids</text>
</g>
<!-- transcodesf -->
<g id="node56" class="node"><title>transcodesf</title>
<ellipse fill="none" stroke="black" cx="2107.1" cy="-237" rx="50.2551" ry="18"/>
<text text-anchor="middle" x="2107.1" y="-232.8" font-family="Times,serif" font-size="14.00">transcodesf</text>
</g>
<!-- libtechwomen -->
<g id="node57" class="node"><title>libtechwomen</title>
<ellipse fill="none" stroke="black" cx="2236.1" cy="-237" rx="60.4115" ry="18"/>
<text text-anchor="middle" x="2236.1" y="-232.8" font-family="Times,serif" font-size="14.00">libtechwomen</text>
</g>
<!-- anarchafeminist hacker hive&#45;&gt;doubleunion -->
<g id="edge39" class="edge"><title>anarchafeminist hacker hive&#45;&gt;doubleunion</title>
<path fill="none" stroke="black" d="M1505.77,-220.72C1482.8,-213.701 1454.7,-205.692 1429.1,-200 1374.09,-187.769 1310.55,-178.272 1265.22,-172.276"/>
<polygon fill="black" stroke="black" points="1265.63,-168.8 1255.27,-170.976 1264.73,-175.741 1265.63,-168.8"/>
</g>
<!-- Ashe Dryden -->
<g id="node59" class="node"><title>Ashe Dryden</title>
<polygon fill="none" stroke="black" points="2445.77,-237 2412.94,-255 2347.27,-255 2314.43,-237 2347.27,-219 2412.94,-219 2445.77,-237"/>
<text text-anchor="middle" x="2380.1" y="-232.8" font-family="Times,serif" font-size="14.00">Ashe Dryden</text>
</g>
<!-- hackbright -->
<g id="node60" class="node"><title>hackbright</title>
<ellipse fill="none" stroke="black" cx="2512.1" cy="-237" rx="47.8496" ry="18"/>
<text text-anchor="middle" x="2512.1" y="-232.8" font-family="Times,serif" font-size="14.00">hackbright</text>
</g>
<!-- hackerschool -->
<g id="node61" class="node"><title>hackerschool</title>
<ellipse fill="none" stroke="black" cx="2635.1" cy="-237" rx="56.5201" ry="18"/>
<text text-anchor="middle" x="2635.1" y="-232.8" font-family="Times,serif" font-size="14.00">hackerschool</text>
</g>
<!-- seattleattic&#45;&gt;flux -->
<g id="edge41" class="edge"><title>seattleattic&#45;&gt;flux</title>
<path fill="none" stroke="black" d="M535.407,-180.06C547.662,-187.892 563.507,-196.475 579.102,-200.5 661.297,-221.714 877.558,-215.553 961.102,-200.5 984.229,-196.333 1009.02,-187.049 1027.89,-178.887"/>
<polygon fill="black" stroke="black" points="1029.46,-182.019 1037.17,-174.754 1026.61,-175.624 1029.46,-182.019"/>
</g>
<!-- seattleattic&#45;&gt;doubleunion -->
<g id="edge45" class="edge"><title>seattleattic&#45;&gt;doubleunion</title>
<path fill="none" stroke="black" d="M535.407,-180.06C547.662,-187.892 563.507,-196.475 579.102,-200.5 688.193,-228.656 974.68,-217.204 1086.1,-200.5 1111.21,-196.735 1138.34,-188.737 1160.35,-181.184"/>
<polygon fill="black" stroke="black" points="1161.8,-184.383 1170.07,-177.762 1159.48,-177.78 1161.8,-184.383"/>
</g>
<!-- mvc -->
<g id="node72" class="node"><title>mvc</title>
<ellipse fill="none" stroke="black" cx="1205.1" cy="-91" rx="27" ry="18"/>
<text text-anchor="middle" x="1205.1" y="-86.8" font-family="Times,serif" font-size="14.00">mvc</text>
</g>
<!-- doubleunion&#45;&gt;mvc -->
<g id="edge46" class="edge"><title>doubleunion&#45;&gt;mvc</title>
<path fill="none" stroke="black" d="M1205.1,-145.813C1205.1,-137.789 1205.1,-128.047 1205.1,-119.069"/>
<polygon fill="black" stroke="black" points="1208.6,-119.029 1205.1,-109.029 1201.6,-119.029 1208.6,-119.029"/>
</g>
<!-- callbackwomen -->
<g id="node66" class="node"><title>callbackwomen</title>
<ellipse fill="none" stroke="black" cx="1833.1" cy="-164" rx="65.6976" ry="18"/>
<text text-anchor="middle" x="1833.1" y="-159.8" font-family="Times,serif" font-size="14.00">callbackwomen</text>
</g>
<!-- transh4ck -->
<g id="node68" class="node"><title>transh4ck</title>
<ellipse fill="none" stroke="black" cx="1961.1" cy="-164" rx="44.475" ry="18"/>
<text text-anchor="middle" x="1961.1" y="-159.8" font-family="Times,serif" font-size="14.00">transh4ck</text>
</g>
<!-- transtech -->
<g id="node69" class="node"><title>transtech</title>
<ellipse fill="none" stroke="black" cx="2083.1" cy="-164" rx="42.0524" ry="18"/>
<text text-anchor="middle" x="2083.1" y="-159.8" font-family="Times,serif" font-size="14.00">transtech</text>
</g>
<!-- transh4ck&#45;&gt;transtech -->
<g id="edge67" class="edge"><title>transh4ck&#45;&gt;transtech</title>
<path fill="none" stroke="black" d="M2005.9,-164C2014.19,-164 2022.48,-164 2030.77,-164"/>
<polygon fill="black" stroke="black" points="2030.88,-167.5 2040.88,-164 2030.88,-160.5 2030.88,-167.5"/>
</g>
<!-- females in hackerspaces email -->
<g id="node70" class="node"><title>females in hackerspaces email</title>
<polygon fill="none" stroke="black" points="264.102,-182 98.0359,-164 264.102,-146 430.167,-164 264.102,-182"/>
<text text-anchor="middle" x="264.102" y="-159.8" font-family="Times,serif" font-size="14.00">females in hackerspaces email</text>
</g>
<!-- females in hackerspaces email&#45;&gt;seattleattic -->
<g id="edge35" class="edge"><title>females in hackerspaces email&#45;&gt;seattleattic</title>
<path fill="none" stroke="black" d="M430.426,-164C438.525,-164 446.624,-164 454.723,-164"/>
<polygon fill="black" stroke="black" points="454.982,-167.5 464.982,-164 454.982,-160.5 454.982,-167.5"/>
</g>
<!-- females in hackerspaces email&#45;&gt;doubleunion -->
<g id="edge36" class="edge"><title>females in hackerspaces email&#45;&gt;doubleunion</title>
<path fill="none" stroke="black" d="M317.069,-176.306C357.394,-185.019 414.412,-195.935 465.102,-200.5 602.545,-212.878 949.627,-220.96 1086.1,-200.5 1111.21,-196.735 1138.34,-188.737 1160.35,-181.184"/>
<polygon fill="black" stroke="black" points="1161.8,-184.383 1170.07,-177.762 1159.48,-177.78 1161.8,-184.383"/>
</g>
<!-- ada developers academy -->
<g id="node71" class="node"><title>ada developers academy</title>
<ellipse fill="none" stroke="black" cx="2240.1" cy="-164" rx="96.5585" ry="18"/>
<text text-anchor="middle" x="2240.1" y="-159.8" font-family="Times,serif" font-size="14.00">ada developers academy</text>
</g>
<!-- Anita Borg -->
<g id="node74" class="node"><title>Anita Borg</title>
<polygon fill="none" stroke="black" points="1119.41,-907 1090.76,-925 1033.45,-925 1004.79,-907 1033.45,-889 1090.76,-889 1119.41,-907"/>
<text text-anchor="middle" x="1062.1" y="-902.8" font-family="Times,serif" font-size="14.00">Anita Borg</text>
</g>
<!-- Anita Borg&#45;&gt;Anita Borg Institute -->
<g id="edge13" class="edge"><title>Anita Borg&#45;&gt;Anita Borg Institute</title>
<path fill="none" stroke="black" d="M1102.17,-896.053C1150.03,-884.172 1230.61,-864.168 1286.43,-850.311"/>
<polygon fill="black" stroke="black" points="1287.34,-853.691 1296.2,-847.885 1285.65,-846.897 1287.34,-853.691"/>
</g>
<!-- Anita Borg&#45;&gt;systers -->
<g id="edge12" class="edge"><title>Anita Borg&#45;&gt;systers</title>
<path fill="none" stroke="black" d="M1014.67,-900.664C943.123,-892.282 803.47,-874.626 686.102,-852 676.258,-850.102 665.717,-847.727 655.879,-845.358"/>
<polygon fill="black" stroke="black" points="656.487,-841.903 645.94,-842.912 654.814,-848.7 656.487,-841.903"/>
</g>
<!-- mothershiphackermoms -->
<g id="node75" class="node"><title>mothershiphackermoms</title>
<ellipse fill="none" stroke="black" cx="1292.1" cy="-237" rx="95.1654" ry="18"/>
<text text-anchor="middle" x="1292.1" y="-232.8" font-family="Times,serif" font-size="14.00">mothershiphackermoms</text>
</g>
<!-- mothershiphackermoms&#45;&gt;doubleunion -->
<g id="edge44" class="edge"><title>mothershiphackermoms&#45;&gt;doubleunion</title>
<path fill="none" stroke="black" d="M1271.48,-219.174C1259.86,-209.688 1245.19,-197.715 1232.6,-187.439"/>
<polygon fill="black" stroke="black" points="1234.64,-184.585 1224.68,-180.974 1230.21,-190.008 1234.64,-184.585"/>
</g>
</g>
</svg>
