<?xml version="1.0" encoding="UTF-8" standalone="no"?>
<!DOCTYPE svg PUBLIC "-//W3C//DTD SVG 1.1//EN"
 "http://www.w3.org/Graphics/SVG/1.1/DTD/svg11.dtd">
<!-- Generated by graphviz version 2.34.0 (20140110.0949)
 -->
<!-- Title: G Pages: 1 -->
<svg width="1586pt" height="872pt"
 viewBox="0.00 0.00 1586.00 872.00" xmlns="http://www.w3.org/2000/svg" xmlns:xlink="http://www.w3.org/1999/xlink">
<g id="graph0" class="graph" transform="scale(1 1) rotate(0) translate(4 868)">
<title>G</title>
<polygon fill="white" stroke="white" points="-4,4 -4,-868 1582,-868 1582,4 -4,4"/>
<!-- past -->
<g id="node1" class="node"><title>past</title>
<text text-anchor="middle" x="52" y="-842.2" font-family="Times,serif" font-size="16.00">past</text>
</g>
<!-- 2000&#45;2003 -->
<g id="node2" class="node"><title>2000&#45;2003</title>
<text text-anchor="middle" x="52" y="-768.2" font-family="Times,serif" font-size="16.00">2000&#45;2003</text>
</g>
<!-- past&#45;&gt;2000&#45;2003 -->
<g id="edge1" class="edge"><title>past&#45;&gt;2000&#45;2003</title>
<path fill="none" stroke="black" d="M52,-827.937C52,-819.807 52,-809.876 52,-800.705"/>
<polygon fill="black" stroke="black" points="55.5001,-800.441 52,-790.441 48.5001,-800.441 55.5001,-800.441"/>
</g>
<!-- 2004&#45;2006 -->
<g id="node3" class="node"><title>2004&#45;2006</title>
<text text-anchor="middle" x="52" y="-694.2" font-family="Times,serif" font-size="16.00">2004&#45;2006</text>
</g>
<!-- 2000&#45;2003&#45;&gt;2004&#45;2006 -->
<g id="edge2" class="edge"><title>2000&#45;2003&#45;&gt;2004&#45;2006</title>
<path fill="none" stroke="black" d="M52,-753.937C52,-745.807 52,-735.876 52,-726.705"/>
<polygon fill="black" stroke="black" points="55.5001,-726.441 52,-716.441 48.5001,-726.441 55.5001,-726.441"/>
</g>
<!-- 2007 -->
<g id="node4" class="node"><title>2007</title>
<text text-anchor="middle" x="52" y="-620.2" font-family="Times,serif" font-size="16.00">2007</text>
</g>
<!-- 2004&#45;2006&#45;&gt;2007 -->
<g id="edge3" class="edge"><title>2004&#45;2006&#45;&gt;2007</title>
<path fill="none" stroke="black" d="M52,-679.937C52,-671.807 52,-661.876 52,-652.705"/>
<polygon fill="black" stroke="black" points="55.5001,-652.441 52,-642.441 48.5001,-652.441 55.5001,-652.441"/>
</g>
<!-- 2008 -->
<g id="node5" class="node"><title>2008</title>
<text text-anchor="middle" x="52" y="-546.2" font-family="Times,serif" font-size="16.00">2008</text>
</g>
<!-- 2007&#45;&gt;2008 -->
<g id="edge4" class="edge"><title>2007&#45;&gt;2008</title>
<path fill="none" stroke="black" d="M52,-605.937C52,-597.807 52,-587.876 52,-578.705"/>
<polygon fill="black" stroke="black" points="55.5001,-578.441 52,-568.441 48.5001,-578.441 55.5001,-578.441"/>
</g>
<!-- 2009 -->
<g id="node6" class="node"><title>2009</title>
<text text-anchor="middle" x="52" y="-472.2" font-family="Times,serif" font-size="16.00">2009</text>
</g>
<!-- 2008&#45;&gt;2009 -->
<g id="edge5" class="edge"><title>2008&#45;&gt;2009</title>
<path fill="none" stroke="black" d="M52,-531.937C52,-523.807 52,-513.876 52,-504.705"/>
<polygon fill="black" stroke="black" points="55.5001,-504.441 52,-494.441 48.5001,-504.441 55.5001,-504.441"/>
</g>
<!-- 2010 -->
<g id="node7" class="node"><title>2010</title>
<text text-anchor="middle" x="52" y="-398.2" font-family="Times,serif" font-size="16.00">2010</text>
</g>
<!-- 2009&#45;&gt;2010 -->
<g id="edge6" class="edge"><title>2009&#45;&gt;2010</title>
<path fill="none" stroke="black" d="M52,-457.937C52,-449.807 52,-439.876 52,-430.705"/>
<polygon fill="black" stroke="black" points="55.5001,-430.441 52,-420.441 48.5001,-430.441 55.5001,-430.441"/>
</g>
<!-- 2011 -->
<g id="node8" class="node"><title>2011</title>
<text text-anchor="middle" x="52" y="-310.2" font-family="Times,serif" font-size="16.00">2011</text>
</g>
<!-- 2010&#45;&gt;2011 -->
<g id="edge7" class="edge"><title>2010&#45;&gt;2011</title>
<path fill="none" stroke="black" d="M52,-383.597C52,-371.746 52,-355.817 52,-342.292"/>
<polygon fill="black" stroke="black" points="55.5001,-342.084 52,-332.084 48.5001,-342.084 55.5001,-342.084"/>
</g>
<!-- 2012 -->
<g id="node9" class="node"><title>2012</title>
<text text-anchor="middle" x="52" y="-236.2" font-family="Times,serif" font-size="16.00">2012</text>
</g>
<!-- 2011&#45;&gt;2012 -->
<g id="edge8" class="edge"><title>2011&#45;&gt;2012</title>
<path fill="none" stroke="black" d="M52,-295.937C52,-287.807 52,-277.876 52,-268.705"/>
<polygon fill="black" stroke="black" points="55.5001,-268.441 52,-258.441 48.5001,-268.441 55.5001,-268.441"/>
</g>
<!-- 2013 -->
<g id="node10" class="node"><title>2013</title>
<text text-anchor="middle" x="52" y="-162.2" font-family="Times,serif" font-size="16.00">2013</text>
</g>
<!-- 2012&#45;&gt;2013 -->
<g id="edge9" class="edge"><title>2012&#45;&gt;2013</title>
<path fill="none" stroke="black" d="M52,-221.937C52,-213.807 52,-203.876 52,-194.705"/>
<polygon fill="black" stroke="black" points="55.5001,-194.441 52,-184.441 48.5001,-194.441 55.5001,-194.441"/>
</g>
<!-- 2014 -->
<g id="node11" class="node"><title>2014</title>
<text text-anchor="middle" x="52" y="-88.2" font-family="Times,serif" font-size="16.00">2014</text>
</g>
<!-- 2013&#45;&gt;2014 -->
<g id="edge10" class="edge"><title>2013&#45;&gt;2014</title>
<path fill="none" stroke="black" d="M52,-147.937C52,-139.807 52,-129.876 52,-120.705"/>
<polygon fill="black" stroke="black" points="55.5001,-120.441 52,-110.441 48.5001,-120.441 55.5001,-120.441"/>
</g>
<!-- unknowndate -->
<g id="node12" class="node"><title>unknowndate</title>
<text text-anchor="middle" x="52" y="-14.2" font-family="Times,serif" font-size="16.00">unknowndate</text>
</g>
<!-- 2014&#45;&gt;unknowndate -->
<g id="edge11" class="edge"><title>2014&#45;&gt;unknowndate</title>
<path fill="none" stroke="black" d="M52,-73.937C52,-65.8072 52,-55.8761 52,-46.7047"/>
<polygon fill="black" stroke="black" points="55.5001,-46.4406 52,-36.4407 48.5001,-46.4407 55.5001,-46.4406"/>
</g>
<!-- livejournal -->
<g id="node13" class="node"><title>livejournal</title>
<polygon fill="none" stroke="black" points="187.25,-864 112.75,-864 112.75,-828 187.25,-828 187.25,-864"/>
<text text-anchor="middle" x="150" y="-842.3" font-family="Times,serif" font-size="14.00">livejournal</text>
</g>
<!-- dreamwidth -->
<g id="node25" class="node"><title>dreamwidth</title>
<ellipse fill="none" stroke="black" cx="225" cy="-550" rx="52.9443" ry="18"/>
<text text-anchor="middle" x="225" y="-546.3" font-family="Times,serif" font-size="14.00">dreamwidth</text>
</g>
<!-- livejournal&#45;&gt;dreamwidth -->
<g id="edge46" class="edge"><title>livejournal&#45;&gt;dreamwidth</title>
<path fill="none" stroke="black" d="M169.801,-827.856C183.023,-814.431 198,-794.483 198,-773 198,-773 198,-773 198,-623 198,-606.994 203.923,-590.187 210.22,-576.841"/>
<polygon fill="black" stroke="black" points="213.405,-578.299 214.792,-567.795 207.158,-575.141 213.405,-578.299"/>
</g>
<!-- otw -->
<g id="node26" class="node"><title>otw</title>
<ellipse fill="none" stroke="black" cx="127" cy="-550" rx="27" ry="18"/>
<text text-anchor="middle" x="127" y="-546.3" font-family="Times,serif" font-size="14.00">otw</text>
</g>
<!-- livejournal&#45;&gt;otw -->
<g id="edge47" class="edge"><title>livejournal&#45;&gt;otw</title>
<path fill="none" stroke="black" d="M148.138,-827.857C146.717,-813.284 145,-791.795 145,-773 145,-773 145,-773 145,-623 145,-607.496 141.023,-590.66 136.808,-577.169"/>
<polygon fill="black" stroke="black" points="140.093,-575.955 133.6,-567.582 133.454,-578.176 140.093,-575.955"/>
</g>
<!-- wiscon -->
<g id="node14" class="node"><title>wiscon</title>
<ellipse fill="none" stroke="black" cx="694" cy="-846" rx="35.6194" ry="18"/>
<text text-anchor="middle" x="694" y="-842.3" font-family="Times,serif" font-size="14.00">wiscon</text>
</g>
<!-- racefail -->
<g id="node28" class="node"><title>racefail</title>
<polygon fill="none" stroke="black" points="562,-494 509.911,-476 562,-458 614.089,-476 562,-494"/>
<text text-anchor="middle" x="562" y="-472.3" font-family="Times,serif" font-size="14.00">racefail</text>
</g>
<!-- wiscon&#45;&gt;racefail -->
<g id="edge45" class="edge"><title>wiscon&#45;&gt;racefail</title>
<path fill="none" stroke="black" d="M685.063,-828.355C678.24,-814.086 670,-792.764 670,-773 670,-773 670,-773 670,-586 670,-541.63 624.283,-508.855 592.338,-491.37"/>
<polygon fill="black" stroke="black" points="593.818,-488.194 583.337,-486.643 590.563,-494.391 593.818,-488.194"/>
</g>
<!-- adacamp -->
<g id="node39" class="node"><title>adacamp</title>
<ellipse fill="none" stroke="black" cx="432" cy="-240" rx="42.3701" ry="18"/>
<text text-anchor="middle" x="432" y="-236.3" font-family="Times,serif" font-size="14.00">adacamp</text>
</g>
<!-- wiscon&#45;&gt;adacamp -->
<g id="edge27" class="edge"><title>wiscon&#45;&gt;adacamp</title>
<path fill="none" stroke="black" d="M702.937,-828.355C709.76,-814.086 718,-792.764 718,-773 718,-773 718,-773 718,-313 718,-265.31 566.563,-248.901 484.081,-243.5"/>
<polygon fill="black" stroke="black" points="484.091,-239.994 473.893,-242.866 483.656,-246.981 484.091,-239.994"/>
<text text-anchor="middle" x="754.5" y="-546.3" font-family="Times,serif" font-size="14.00">a11y policies</text>
</g>
<!-- linuxconfau -->
<g id="node15" class="node"><title>linuxconfau</title>
<polygon fill="none" stroke="black" points="568.25,-864 487.75,-864 487.75,-828 568.25,-828 568.25,-864"/>
<text text-anchor="middle" x="528" y="-842.3" font-family="Times,serif" font-size="14.00">linuxconfau</text>
</g>
<!-- haecksen -->
<g id="node22" class="node"><title>haecksen</title>
<ellipse fill="none" stroke="black" cx="453" cy="-624" rx="42.3456" ry="18"/>
<text text-anchor="middle" x="453" y="-620.3" font-family="Times,serif" font-size="14.00">haecksen</text>
</g>
<!-- linuxconfau&#45;&gt;haecksen -->
<g id="edge38" class="edge"><title>linuxconfau&#45;&gt;haecksen</title>
<path fill="none" stroke="black" d="M511.334,-827.526C502.511,-817.332 492.239,-803.793 486,-790 465.359,-744.367 457.564,-685.851 454.667,-652.175"/>
<polygon fill="black" stroke="black" points="458.153,-651.861 453.888,-642.162 451.174,-652.404 458.153,-651.861"/>
</g>
<!-- adainitiative -->
<g id="node36" class="node"><title>adainitiative</title>
<ellipse fill="none" stroke="black" cx="636" cy="-314" rx="53.4184" ry="18"/>
<text text-anchor="middle" x="636" y="-310.3" font-family="Times,serif" font-size="14.00">adainitiative</text>
</g>
<!-- linuxconfau&#45;&gt;adainitiative -->
<g id="edge16" class="edge"><title>linuxconfau&#45;&gt;adainitiative</title>
<path fill="none" stroke="black" d="M568.507,-834.514C597.708,-824.23 632,-805.282 632,-773 632,-773 632,-773 632,-586 632,-551.665 653.669,-547.746 660,-514 671.437,-453.037 655.313,-380.496 644.463,-342.052"/>
<polygon fill="black" stroke="black" points="647.734,-340.768 641.57,-332.152 641.015,-342.732 647.734,-340.768"/>
</g>
<!-- linuxchix -->
<g id="node16" class="node"><title>linuxchix</title>
<ellipse fill="none" stroke="black" cx="539" cy="-772" rx="44.2946" ry="18"/>
<text text-anchor="middle" x="539" y="-768.3" font-family="Times,serif" font-size="14.00">linuxchix</text>
</g>
<!-- debianwomen -->
<g id="node18" class="node"><title>debianwomen</title>
<ellipse fill="none" stroke="black" cx="807" cy="-772" rx="60.1672" ry="18"/>
<text text-anchor="middle" x="807" y="-768.3" font-family="Times,serif" font-size="14.00">debianwomen</text>
</g>
<!-- linuxchix&#45;&gt;debianwomen -->
<g id="edge31" class="edge"><title>linuxchix&#45;&gt;debianwomen</title>
<path fill="none" stroke="black" d="M583.23,-772C634.311,-772 685.391,-772 736.471,-772"/>
<polygon fill="black" stroke="black" points="736.687,-775.5 746.687,-772 736.687,-768.5 736.687,-775.5"/>
</g>
<!-- linuxchix&#45;&gt;haecksen -->
<g id="edge37" class="edge"><title>linuxchix&#45;&gt;haecksen</title>
<path fill="none" stroke="black" d="M529.135,-754.252C514.166,-728.839 485.603,-680.35 468.036,-650.527"/>
<polygon fill="black" stroke="black" points="470.841,-648.393 462.75,-641.553 464.81,-651.945 470.841,-648.393"/>
</g>
<!-- geekfeminism -->
<g id="node24" class="node"><title>geekfeminism</title>
<ellipse fill="none" stroke="black" cx="539" cy="-550" rx="61.6163" ry="18"/>
<text text-anchor="middle" x="539" y="-546.3" font-family="Times,serif" font-size="14.00">geekfeminism</text>
</g>
<!-- linuxchix&#45;&gt;geekfeminism -->
<g id="edge12" class="edge"><title>linuxchix&#45;&gt;geekfeminism</title>
<path fill="none" stroke="black" d="M539,-753.737C539,-715.664 539,-624.231 539,-578.301"/>
<polygon fill="black" stroke="black" points="542.5,-578.183 539,-568.183 535.5,-578.183 542.5,-578.183"/>
</g>
<!-- gnomewomen -->
<g id="node17" class="node"><title>gnomewomen</title>
<ellipse fill="none" stroke="black" cx="1517" cy="-772" rx="61.6163" ry="18"/>
<text text-anchor="middle" x="1517" y="-768.3" font-family="Times,serif" font-size="14.00">gnomewomen</text>
</g>
<!-- opw -->
<g id="node20" class="node"><title>opw</title>
<ellipse fill="none" stroke="black" cx="1517" cy="-698" rx="27" ry="18"/>
<text text-anchor="middle" x="1517" y="-694.3" font-family="Times,serif" font-size="14.00">opw</text>
</g>
<!-- gnomewomen&#45;&gt;opw -->
<g id="edge35" class="edge"><title>gnomewomen&#45;&gt;opw</title>
<path fill="none" stroke="black" d="M1517,-753.937C1517,-745.807 1517,-735.876 1517,-726.705"/>
<polygon fill="black" stroke="black" points="1520.5,-726.441 1517,-716.441 1513.5,-726.441 1520.5,-726.441"/>
</g>
<!-- debianwomen&#45;&gt;gnomewomen -->
<g id="edge33" class="edge"><title>debianwomen&#45;&gt;gnomewomen</title>
<path fill="none" stroke="black" d="M867.322,-772C1060.02,-772 1252.71,-772 1445.41,-772"/>
<polygon fill="black" stroke="black" points="1445.46,-775.5 1455.46,-772 1445.46,-768.5 1445.46,-775.5"/>
</g>
<!-- ubuntuwomen -->
<g id="node21" class="node"><title>ubuntuwomen</title>
<ellipse fill="none" stroke="black" cx="808" cy="-698" rx="61.6163" ry="18"/>
<text text-anchor="middle" x="808" y="-694.3" font-family="Times,serif" font-size="14.00">ubuntuwomen</text>
</g>
<!-- debianwomen&#45;&gt;ubuntuwomen -->
<g id="edge32" class="edge"><title>debianwomen&#45;&gt;ubuntuwomen</title>
<path fill="none" stroke="black" d="M807.237,-753.937C807.35,-745.807 807.488,-735.876 807.615,-726.705"/>
<polygon fill="black" stroke="black" points="811.118,-726.488 807.758,-716.441 804.119,-726.391 811.118,-726.488"/>
</g>
<!-- gsoc -->
<g id="node19" class="node"><title>gsoc</title>
<polygon fill="none" stroke="black" points="1454,-716 1400,-716 1400,-680 1454,-680 1454,-716"/>
<text text-anchor="middle" x="1427" y="-694.3" font-family="Times,serif" font-size="14.00">gsoc</text>
</g>
<!-- gsoc&#45;&gt;opw -->
<g id="edge36" class="edge"><title>gsoc&#45;&gt;opw</title>
<path fill="none" stroke="black" d="M1454.07,-698C1462.67,-698 1471.27,-698 1479.87,-698"/>
<polygon fill="black" stroke="black" points="1479.96,-701.5 1489.96,-698 1479.96,-694.5 1479.96,-701.5"/>
</g>
<!-- rgsoc -->
<g id="node44" class="node"><title>rgsoc</title>
<ellipse fill="none" stroke="black" cx="1390" cy="-166" rx="29.3479" ry="18"/>
<text text-anchor="middle" x="1390" y="-162.3" font-family="Times,serif" font-size="14.00">rgsoc</text>
</g>
<!-- gsoc&#45;&gt;rgsoc -->
<g id="edge44" class="edge"><title>gsoc&#45;&gt;rgsoc</title>
<path fill="none" stroke="black" d="M1427,-679.834C1427,-665.247 1427,-643.75 1427,-625 1427,-625 1427,-625 1427,-239 1427,-221.361 1418.11,-203.712 1409.04,-190.302"/>
<polygon fill="black" stroke="black" points="1411.84,-188.202 1403.15,-182.145 1406.17,-192.301 1411.84,-188.202"/>
</g>
<!-- owoot -->
<g id="node38" class="node"><title>owoot</title>
<ellipse fill="none" stroke="black" cx="444" cy="-314" rx="32.2457" ry="18"/>
<text text-anchor="middle" x="444" y="-310.3" font-family="Times,serif" font-size="14.00">owoot</text>
</g>
<!-- haecksen&#45;&gt;owoot -->
<g id="edge34" class="edge"><title>haecksen&#45;&gt;owoot</title>
<path fill="none" stroke="black" d="M449.649,-605.909C447.09,-591.367 444,-569.896 444,-551 444,-551 444,-551 444,-401 444,-381.404 444,-359.296 444,-342.402"/>
<polygon fill="black" stroke="black" points="447.5,-342.133 444,-332.133 440.5,-342.133 447.5,-342.133"/>
</g>
<!-- haecksen&#45;&gt;adacamp -->
<g id="edge39" class="edge"><title>haecksen&#45;&gt;adacamp</title>
<path fill="none" stroke="black" d="M411.269,-620.052C367.809,-614.443 306,-598.173 306,-551 306,-551 306,-551 306,-313 306,-293.052 354.209,-270.234 390.987,-255.729"/>
<polygon fill="black" stroke="black" points="392.46,-258.912 400.53,-252.047 389.94,-252.381 392.46,-258.912"/>
</g>
<!-- SFF CAHP -->
<g id="node23" class="node"><title>SFF CAHP</title>
<ellipse fill="none" stroke="black" cx="1101" cy="-550" rx="51.0191" ry="18"/>
<text text-anchor="middle" x="1101" y="-546.3" font-family="Times,serif" font-size="14.00">SFF CAHP</text>
</g>
<!-- backupproject -->
<g id="node32" class="node"><title>backupproject</title>
<ellipse fill="none" stroke="black" cx="1338" cy="-476" rx="60.1672" ry="18"/>
<text text-anchor="middle" x="1338" y="-472.3" font-family="Times,serif" font-size="14.00">backupproject</text>
</g>
<!-- SFF CAHP&#45;&gt;backupproject -->
<g id="edge22" class="edge"><title>SFF CAHP&#45;&gt;backupproject</title>
<path fill="none" stroke="black" d="M1138.29,-537.671C1178.53,-525.447 1242.83,-505.913 1287.56,-492.324"/>
<polygon fill="black" stroke="black" points="1288.8,-495.604 1297.35,-489.348 1286.77,-488.906 1288.8,-495.604"/>
</g>
<!-- GF/TAI AHP -->
<g id="node37" class="node"><title>GF/TAI AHP</title>
<ellipse fill="none" stroke="black" cx="945" cy="-314" rx="59.2173" ry="18"/>
<text text-anchor="middle" x="945" y="-310.3" font-family="Times,serif" font-size="14.00">GF/TAI AHP</text>
</g>
<!-- SFF CAHP&#45;&gt;GF/TAI AHP -->
<g id="edge20" class="edge"><title>SFF CAHP&#45;&gt;GF/TAI AHP</title>
<path fill="none" stroke="black" d="M1079.08,-533.688C1066.31,-523.723 1050.83,-509.689 1041,-494 1005.55,-437.393 1037.82,-403.627 998,-350 993.937,-344.528 988.746,-339.657 983.209,-335.418"/>
<polygon fill="black" stroke="black" points="985.146,-332.502 974.939,-329.66 981.146,-338.246 985.146,-332.502"/>
</g>
<!-- geekfeminism&#45;&gt;adainitiative -->
<g id="edge15" class="edge"><title>geekfeminism&#45;&gt;adainitiative</title>
<path fill="none" stroke="black" d="M523.317,-532.137C514.923,-521.932 505.423,-508.182 501,-494 496.237,-478.726 495.09,-472.869 501,-458 521.779,-405.721 571.738,-361.497 604.705,-336.618"/>
<polygon fill="black" stroke="black" points="607.136,-339.175 613.103,-330.42 602.979,-333.543 607.136,-339.175"/>
</g>
<!-- geekfeminism&#45;&gt;GF/TAI AHP -->
<g id="edge18" class="edge"><title>geekfeminism&#45;&gt;GF/TAI AHP</title>
<path fill="none" stroke="black" d="M579.877,-536.468C603.322,-529.289 633.309,-520.119 660,-512 693.763,-501.729 942.968,-448.339 964,-420 980.905,-397.221 970.789,-364.126 959.929,-341.205"/>
<polygon fill="black" stroke="black" points="962.942,-339.408 955.305,-332.065 956.696,-342.568 962.942,-339.408"/>
</g>
<!-- oscon2009 -->
<g id="node27" class="node"><title>oscon2009</title>
<ellipse fill="none" stroke="black" cx="225" cy="-476" rx="48.6179" ry="18"/>
<text text-anchor="middle" x="225" y="-472.3" font-family="Times,serif" font-size="14.00">oscon2009</text>
</g>
<!-- dreamwidth&#45;&gt;oscon2009 -->
<g id="edge48" class="edge"><title>dreamwidth&#45;&gt;oscon2009</title>
<path fill="none" stroke="black" d="M225,-531.937C225,-523.807 225,-513.876 225,-504.705"/>
<polygon fill="black" stroke="black" points="228.5,-504.441 225,-494.441 221.5,-504.441 228.5,-504.441"/>
</g>
<!-- otw&#45;&gt;oscon2009 -->
<g id="edge49" class="edge"><title>otw&#45;&gt;oscon2009</title>
<path fill="none" stroke="black" d="M144.52,-536.128C158.773,-525.657 179.187,-510.658 195.889,-498.388"/>
<polygon fill="black" stroke="black" points="198.245,-501 204.232,-492.258 194.101,-495.359 198.245,-501"/>
</g>
<!-- oscon2009&#45;&gt;geekfeminism -->
<g id="edge50" class="edge"><title>oscon2009&#45;&gt;geekfeminism</title>
<path fill="none" stroke="black" d="M264.948,-486.16C319.989,-498.781 419.445,-521.586 482.204,-535.977"/>
<polygon fill="black" stroke="black" points="481.801,-539.475 492.33,-538.299 483.365,-532.652 481.801,-539.475"/>
</g>
<!-- racefail&#45;&gt;geekfeminism -->
<g id="edge13" class="edge"><title>racefail&#45;&gt;geekfeminism</title>
<path fill="none" stroke="black" d="M557.059,-492.468C554.278,-501.173 550.728,-512.285 547.513,-522.35"/>
<polygon fill="black" stroke="black" points="544.16,-521.346 544.451,-531.937 550.828,-523.476 544.16,-521.346"/>
</g>
<!-- couchdb -->
<g id="node29" class="node"><title>couchdb</title>
<polygon fill="none" stroke="black" points="937,-494 880.518,-476 937,-458 993.482,-476 937,-494"/>
<text text-anchor="middle" x="937" y="-472.3" font-family="Times,serif" font-size="14.00">couchdb</text>
</g>
<!-- railsbridge -->
<g id="node30" class="node"><title>railsbridge</title>
<ellipse fill="none" stroke="black" cx="1098" cy="-476" rx="48.1437" ry="18"/>
<text text-anchor="middle" x="1098" y="-472.3" font-family="Times,serif" font-size="14.00">railsbridge</text>
</g>
<!-- couchdb&#45;&gt;railsbridge -->
<g id="edge40" class="edge"><title>couchdb&#45;&gt;railsbridge</title>
<path fill="none" stroke="black" d="M993.602,-476C1008.99,-476 1024.38,-476 1039.77,-476"/>
<polygon fill="black" stroke="black" points="1039.88,-479.5 1049.88,-476 1039.88,-472.5 1039.88,-479.5"/>
</g>
<!-- railsgirls -->
<g id="node40" class="node"><title>railsgirls</title>
<ellipse fill="none" stroke="black" cx="1280" cy="-240" rx="41.394" ry="18"/>
<text text-anchor="middle" x="1280" y="-236.3" font-family="Times,serif" font-size="14.00">railsgirls</text>
</g>
<!-- railsbridge&#45;&gt;railsgirls -->
<g id="edge42" class="edge"><title>railsbridge&#45;&gt;railsgirls</title>
<path fill="none" stroke="black" d="M1110.8,-458.546C1142.32,-418.015 1223.85,-313.199 1261.02,-265.403"/>
<polygon fill="black" stroke="black" points="1263.84,-267.479 1267.22,-257.436 1258.31,-263.181 1263.84,-267.479"/>
</g>
<!-- pystar -->
<g id="node47" class="node"><title>pystar</title>
<ellipse fill="none" stroke="black" cx="1098" cy="-402" rx="32.2457" ry="18"/>
<text text-anchor="middle" x="1098" y="-398.3" font-family="Times,serif" font-size="14.00">pystar</text>
</g>
<!-- railsbridge&#45;&gt;pystar -->
<g id="edge41" class="edge"><title>railsbridge&#45;&gt;pystar</title>
<path fill="none" stroke="black" d="M1098,-457.937C1098,-449.807 1098,-439.876 1098,-430.705"/>
<polygon fill="black" stroke="black" points="1101.5,-430.441 1098,-420.441 1094.5,-430.441 1101.5,-430.441"/>
</g>
<!-- osbp -->
<g id="node31" class="node"><title>osbp</title>
<polygon fill="none" stroke="black" points="1203,-494 1164.59,-476 1203,-458 1241.41,-476 1203,-494"/>
<text text-anchor="middle" x="1203" y="-472.3" font-family="Times,serif" font-size="14.00">osbp</text>
</g>
<!-- osbp&#45;&gt;backupproject -->
<g id="edge21" class="edge"><title>osbp&#45;&gt;backupproject</title>
<path fill="none" stroke="black" d="M1241.5,-476C1250.17,-476 1258.84,-476 1267.51,-476"/>
<polygon fill="black" stroke="black" points="1267.69,-479.5 1277.69,-476 1267.69,-472.5 1267.69,-479.5"/>
</g>
<!-- backupribbons -->
<g id="node35" class="node"><title>backupribbons</title>
<ellipse fill="none" stroke="black" cx="1337" cy="-402" rx="62.0922" ry="18"/>
<text text-anchor="middle" x="1337" y="-398.3" font-family="Times,serif" font-size="14.00">backupribbons</text>
</g>
<!-- backupproject&#45;&gt;backupribbons -->
<g id="edge23" class="edge"><title>backupproject&#45;&gt;backupribbons</title>
<path fill="none" stroke="black" d="M1337.76,-457.937C1337.65,-449.807 1337.51,-439.876 1337.38,-430.705"/>
<polygon fill="black" stroke="black" points="1340.88,-430.391 1337.24,-420.441 1333.88,-430.488 1340.88,-430.391"/>
</g>
<!-- osbridge -->
<g id="node33" class="node"><title>osbridge</title>
<ellipse fill="none" stroke="black" cx="375" cy="-476" rx="40.4202" ry="18"/>
<text text-anchor="middle" x="375" y="-472.3" font-family="Times,serif" font-size="14.00">osbridge</text>
</g>
<!-- apachecon assault -->
<g id="node34" class="node"><title>apachecon assault</title>
<polygon fill="none" stroke="black" points="851,-420 746.823,-402 851,-384 955.177,-402 851,-420"/>
<text text-anchor="middle" x="851" y="-398.3" font-family="Times,serif" font-size="14.00">apachecon assault</text>
</g>
<!-- apachecon assault&#45;&gt;adainitiative -->
<g id="edge14" class="edge"><title>apachecon assault&#45;&gt;adainitiative</title>
<path fill="none" stroke="black" d="M821.105,-389.042C784.068,-374.227 720.714,-348.885 678.599,-332.04"/>
<polygon fill="black" stroke="black" points="679.751,-328.731 669.167,-328.267 677.152,-335.23 679.751,-328.731"/>
</g>
<!-- apachecon assault&#45;&gt;GF/TAI AHP -->
<g id="edge17" class="edge"><title>apachecon assault&#45;&gt;GF/TAI AHP</title>
<path fill="none" stroke="black" d="M866.946,-386.411C881.26,-373.315 902.531,-353.855 919.254,-338.555"/>
<polygon fill="black" stroke="black" points="922.032,-340.757 927.048,-331.424 917.307,-335.592 922.032,-340.757"/>
</g>
<!-- adainitiative&#45;&gt;GF/TAI AHP -->
<g id="edge19" class="edge"><title>adainitiative&#45;&gt;GF/TAI AHP</title>
<path fill="none" stroke="black" d="M689.713,-314C751.586,-314 813.459,-314 875.332,-314"/>
<polygon fill="black" stroke="black" points="875.666,-317.5 885.666,-314 875.666,-310.5 875.666,-317.5"/>
</g>
<!-- adainitiative&#45;&gt;adacamp -->
<g id="edge26" class="edge"><title>adainitiative&#45;&gt;adacamp</title>
<path fill="none" stroke="black" d="M600.466,-300.459C564.942,-287.921 510.367,-268.659 473.022,-255.478"/>
<polygon fill="black" stroke="black" points="474.044,-252.127 463.449,-252.1 471.714,-258.728 474.044,-252.127"/>
</g>
<!-- Skeptic AHPs -->
<g id="node41" class="node"><title>Skeptic AHPs</title>
<ellipse fill="none" stroke="black" cx="879" cy="-240" rx="60.1672" ry="18"/>
<text text-anchor="middle" x="879" y="-236.3" font-family="Times,serif" font-size="14.00">Skeptic AHPs</text>
</g>
<!-- GF/TAI AHP&#45;&gt;Skeptic AHPs -->
<g id="edge25" class="edge"><title>GF/TAI AHP&#45;&gt;Skeptic AHPs</title>
<path fill="none" stroke="black" d="M929.692,-296.301C921.196,-287.032 910.477,-275.339 901.087,-265.095"/>
<polygon fill="black" stroke="black" points="903.562,-262.615 894.225,-257.609 898.402,-267.345 903.562,-262.615"/>
</g>
<!-- PyCon AHP -->
<g id="node42" class="node"><title>PyCon AHP</title>
<ellipse fill="none" stroke="black" cx="1012" cy="-240" rx="54.3924" ry="18"/>
<text text-anchor="middle" x="1012" y="-236.3" font-family="Times,serif" font-size="14.00">PyCon AHP</text>
</g>
<!-- GF/TAI AHP&#45;&gt;PyCon AHP -->
<g id="edge24" class="edge"><title>GF/TAI AHP&#45;&gt;PyCon AHP</title>
<path fill="none" stroke="black" d="M960.54,-296.301C969.165,-287.032 980.046,-275.339 989.578,-265.095"/>
<polygon fill="black" stroke="black" points="992.295,-267.314 996.545,-257.609 987.17,-262.545 992.295,-267.314"/>
</g>
<!-- adacamp&#45;&gt;osbridge -->
<g id="edge28" class="edge"><title>adacamp&#45;&gt;osbridge</title>
<path fill="none" stroke="black" d="M416.219,-257.013C397.86,-276.879 368.59,-312.71 357,-350 346.762,-382.939 355.906,-422.602 364.476,-448.284"/>
<polygon fill="black" stroke="black" points="361.296,-449.79 367.933,-458.049 367.895,-447.454 361.296,-449.79"/>
<text text-anchor="middle" x="393.5" y="-354.3" font-family="Times,serif" font-size="14.00">a11y policies</text>
</g>
<!-- doubleunion -->
<g id="node43" class="node"><title>doubleunion</title>
<ellipse fill="none" stroke="black" cx="315" cy="-166" rx="54.3924" ry="18"/>
<text text-anchor="middle" x="315" y="-162.3" font-family="Times,serif" font-size="14.00">doubleunion</text>
</g>
<!-- adacamp&#45;&gt;doubleunion -->
<g id="edge29" class="edge"><title>adacamp&#45;&gt;doubleunion</title>
<path fill="none" stroke="black" d="M408.885,-224.775C391.559,-214.113 367.601,-199.37 348.224,-187.445"/>
<polygon fill="black" stroke="black" points="350.034,-184.45 339.683,-182.19 346.365,-190.411 350.034,-184.45"/>
</g>
<!-- railsgirls&#45;&gt;rgsoc -->
<g id="edge43" class="edge"><title>railsgirls&#45;&gt;rgsoc</title>
<path fill="none" stroke="black" d="M1302,-224.603C1319.32,-213.266 1343.57,-197.394 1362.22,-185.181"/>
<polygon fill="black" stroke="black" points="1364.17,-188.091 1370.62,-179.686 1360.34,-182.234 1364.17,-188.091"/>
</g>
<!-- mvc -->
<g id="node45" class="node"><title>mvc</title>
<ellipse fill="none" stroke="black" cx="124" cy="-92" rx="27" ry="18"/>
<text text-anchor="middle" x="124" y="-88.3" font-family="Times,serif" font-size="14.00">mvc</text>
</g>
<!-- mothershiphackermoms -->
<g id="node46" class="node"><title>mothershiphackermoms</title>
<ellipse fill="none" stroke="black" cx="275" cy="-240" rx="96.2631" ry="18"/>
<text text-anchor="middle" x="275" y="-236.3" font-family="Times,serif" font-size="14.00">mothershiphackermoms</text>
</g>
<!-- mothershiphackermoms&#45;&gt;doubleunion -->
<g id="edge30" class="edge"><title>mothershiphackermoms&#45;&gt;doubleunion</title>
<path fill="none" stroke="black" d="M284.479,-221.937C289.311,-213.239 295.289,-202.48 300.67,-192.795"/>
<polygon fill="black" stroke="black" points="303.792,-194.382 305.589,-183.941 297.673,-190.982 303.792,-194.382"/>
</g>
</g>
</svg>
