<?xml version="1.0" encoding="UTF-8" standalone="no"?>
<!DOCTYPE svg PUBLIC "-//W3C//DTD SVG 1.1//EN"
 "http://www.w3.org/Graphics/SVG/1.1/DTD/svg11.dtd">
<!-- Generated by graphviz version 2.38.0 (20140413.2041)
 -->
<!-- Title: GeekFeminismFamilyTree Pages: 1 -->
<svg width="2804pt" height="933pt"
 viewBox="0.00 0.00 2803.86 933.00" xmlns="http://www.w3.org/2000/svg" xmlns:xlink="http://www.w3.org/1999/xlink">
<g id="graph0" class="graph" transform="scale(1 1) rotate(0) translate(4 929)">
<title>GeekFeminismFamilyTree</title>
<polygon fill="white" stroke="none" points="-4,4 -4,-929 2799.86,-929 2799.86,4 -4,4"/>
<!-- past -->
<g id="node1" class="node"><title>past</title>
<text text-anchor="middle" x="51.1016" y="-829.2" font-family="Times,serif" font-size="16.00">past</text>
</g>
<!-- 2000&#45;2003 -->
<g id="node2" class="node"><title>2000&#45;2003</title>
<text text-anchor="middle" x="51.1016" y="-756.2" font-family="Times,serif" font-size="16.00">2000&#45;2003</text>
</g>
<!-- past&#45;&gt;2000&#45;2003 -->
<g id="edge1" class="edge"><title>past&#45;&gt;2000&#45;2003</title>
<path fill="none" stroke="black" d="M51.1016,-815.813C51.1016,-807.789 51.1016,-798.047 51.1016,-789.069"/>
<polygon fill="black" stroke="black" points="54.6017,-789.029 51.1016,-779.029 47.6017,-789.029 54.6017,-789.029"/>
</g>
<!-- 2004&#45;2006 -->
<g id="node3" class="node"><title>2004&#45;2006</title>
<text text-anchor="middle" x="51.1016" y="-683.2" font-family="Times,serif" font-size="16.00">2004&#45;2006</text>
</g>
<!-- 2000&#45;2003&#45;&gt;2004&#45;2006 -->
<g id="edge2" class="edge"><title>2000&#45;2003&#45;&gt;2004&#45;2006</title>
<path fill="none" stroke="black" d="M51.1016,-742.813C51.1016,-734.789 51.1016,-725.047 51.1016,-716.069"/>
<polygon fill="black" stroke="black" points="54.6017,-716.029 51.1016,-706.029 47.6017,-716.029 54.6017,-716.029"/>
</g>
<!-- 2007 -->
<g id="node4" class="node"><title>2007</title>
<text text-anchor="middle" x="51.1016" y="-610.2" font-family="Times,serif" font-size="16.00">2007</text>
</g>
<!-- 2004&#45;2006&#45;&gt;2007 -->
<g id="edge3" class="edge"><title>2004&#45;2006&#45;&gt;2007</title>
<path fill="none" stroke="black" d="M51.1016,-669.813C51.1016,-661.789 51.1016,-652.047 51.1016,-643.069"/>
<polygon fill="black" stroke="black" points="54.6017,-643.029 51.1016,-633.029 47.6017,-643.029 54.6017,-643.029"/>
</g>
<!-- 2008 -->
<g id="node5" class="node"><title>2008</title>
<text text-anchor="middle" x="51.1016" y="-537.2" font-family="Times,serif" font-size="16.00">2008</text>
</g>
<!-- 2007&#45;&gt;2008 -->
<g id="edge4" class="edge"><title>2007&#45;&gt;2008</title>
<path fill="none" stroke="black" d="M51.1016,-596.813C51.1016,-588.789 51.1016,-579.047 51.1016,-570.069"/>
<polygon fill="black" stroke="black" points="54.6017,-570.029 51.1016,-560.029 47.6017,-570.029 54.6017,-570.029"/>
</g>
<!-- 2009 -->
<g id="node6" class="node"><title>2009</title>
<text text-anchor="middle" x="51.1016" y="-464.2" font-family="Times,serif" font-size="16.00">2009</text>
</g>
<!-- 2008&#45;&gt;2009 -->
<g id="edge5" class="edge"><title>2008&#45;&gt;2009</title>
<path fill="none" stroke="black" d="M51.1016,-523.813C51.1016,-515.789 51.1016,-506.047 51.1016,-497.069"/>
<polygon fill="black" stroke="black" points="54.6017,-497.029 51.1016,-487.029 47.6017,-497.029 54.6017,-497.029"/>
</g>
<!-- 2010 -->
<g id="node7" class="node"><title>2010</title>
<text text-anchor="middle" x="51.1016" y="-391.2" font-family="Times,serif" font-size="16.00">2010</text>
</g>
<!-- 2009&#45;&gt;2010 -->
<g id="edge6" class="edge"><title>2009&#45;&gt;2010</title>
<path fill="none" stroke="black" d="M51.1016,-450.813C51.1016,-442.789 51.1016,-433.047 51.1016,-424.069"/>
<polygon fill="black" stroke="black" points="54.6017,-424.029 51.1016,-414.029 47.6017,-424.029 54.6017,-424.029"/>
</g>
<!-- 2011 -->
<g id="node8" class="node"><title>2011</title>
<text text-anchor="middle" x="51.1016" y="-305.2" font-family="Times,serif" font-size="16.00">2011</text>
</g>
<!-- 2010&#45;&gt;2011 -->
<g id="edge7" class="edge"><title>2010&#45;&gt;2011</title>
<path fill="none" stroke="black" d="M51.1016,-377.595C51.1016,-366.257 51.1016,-351.227 51.1016,-338.315"/>
<polygon fill="black" stroke="black" points="54.6017,-338.095 51.1016,-328.095 47.6017,-338.095 54.6017,-338.095"/>
</g>
<!-- 2012 -->
<g id="node9" class="node"><title>2012</title>
<text text-anchor="middle" x="51.1016" y="-232.2" font-family="Times,serif" font-size="16.00">2012</text>
</g>
<!-- 2011&#45;&gt;2012 -->
<g id="edge8" class="edge"><title>2011&#45;&gt;2012</title>
<path fill="none" stroke="black" d="M51.1016,-291.813C51.1016,-283.789 51.1016,-274.047 51.1016,-265.069"/>
<polygon fill="black" stroke="black" points="54.6017,-265.029 51.1016,-255.029 47.6017,-265.029 54.6017,-265.029"/>
</g>
<!-- 2013 -->
<g id="node10" class="node"><title>2013</title>
<text text-anchor="middle" x="51.1016" y="-159.2" font-family="Times,serif" font-size="16.00">2013</text>
</g>
<!-- 2012&#45;&gt;2013 -->
<g id="edge9" class="edge"><title>2012&#45;&gt;2013</title>
<path fill="none" stroke="black" d="M51.1016,-218.813C51.1016,-210.789 51.1016,-201.047 51.1016,-192.069"/>
<polygon fill="black" stroke="black" points="54.6017,-192.029 51.1016,-182.029 47.6017,-192.029 54.6017,-192.029"/>
</g>
<!-- 2014 -->
<g id="node11" class="node"><title>2014</title>
<text text-anchor="middle" x="51.1016" y="-86.2" font-family="Times,serif" font-size="16.00">2014</text>
</g>
<!-- 2013&#45;&gt;2014 -->
<g id="edge10" class="edge"><title>2013&#45;&gt;2014</title>
<path fill="none" stroke="black" d="M51.1016,-145.813C51.1016,-137.789 51.1016,-128.047 51.1016,-119.069"/>
<polygon fill="black" stroke="black" points="54.6017,-119.029 51.1016,-109.029 47.6017,-119.029 54.6017,-119.029"/>
</g>
<!-- unknowndate -->
<g id="node12" class="node"><title>unknowndate</title>
<text text-anchor="middle" x="51.1016" y="-13.2" font-family="Times,serif" font-size="16.00">unknowndate</text>
</g>
<!-- 2014&#45;&gt;unknowndate -->
<g id="edge11" class="edge"><title>2014&#45;&gt;unknowndate</title>
<path fill="none" stroke="black" d="M51.1016,-72.8129C51.1016,-64.7895 51.1016,-55.0475 51.1016,-46.0691"/>
<polygon fill="black" stroke="black" points="54.6017,-46.0288 51.1016,-36.0288 47.6017,-46.0289 54.6017,-46.0288"/>
</g>
<!-- livejournal -->
<g id="node13" class="node"><title>livejournal</title>
<polygon fill="none" stroke="black" points="353.251,-852 276.952,-852 276.952,-816 353.251,-816 353.251,-852"/>
<text text-anchor="middle" x="315.102" y="-829.8" font-family="Times,serif" font-size="14.00">livejournal</text>
</g>
<!-- dreamwidth -->
<g id="node36" class="node"><title>dreamwidth</title>
<ellipse fill="none" stroke="black" cx="364.102" cy="-542" rx="52.1934" ry="18"/>
<text text-anchor="middle" x="364.102" y="-537.8" font-family="Times,serif" font-size="14.00">dreamwidth</text>
</g>
<!-- livejournal&#45;&gt;dreamwidth -->
<g id="edge63" class="edge"><title>livejournal&#45;&gt;dreamwidth</title>
<path fill="none" stroke="black" d="M326.397,-815.991C334.539,-802.078 344.102,-781.573 344.102,-762 344.102,-762 344.102,-762 344.102,-614 344.102,-598.795 348.404,-582.421 353.018,-569.233"/>
<polygon fill="black" stroke="black" points="356.305,-570.434 356.54,-559.842 349.751,-567.975 356.305,-570.434"/>
</g>
<!-- otw -->
<g id="node37" class="node"><title>otw</title>
<ellipse fill="none" stroke="black" cx="267.102" cy="-542" rx="27" ry="18"/>
<text text-anchor="middle" x="267.102" y="-537.8" font-family="Times,serif" font-size="14.00">otw</text>
</g>
<!-- livejournal&#45;&gt;otw -->
<g id="edge64" class="edge"><title>livejournal&#45;&gt;otw</title>
<path fill="none" stroke="black" d="M303.806,-815.991C295.664,-802.078 286.102,-781.573 286.102,-762 286.102,-762 286.102,-762 286.102,-614 286.102,-598.748 281.959,-582.26 277.543,-569.015"/>
<polygon fill="black" stroke="black" points="280.837,-567.832 274.176,-559.593 274.245,-570.188 280.837,-567.832"/>
</g>
<!-- wiscon -->
<g id="node14" class="node"><title>wiscon</title>
<ellipse fill="#e066ff" stroke="black" cx="737.102" cy="-834" rx="35.3216" ry="18"/>
<text text-anchor="middle" x="737.102" y="-829.8" font-family="Times,serif" font-size="14.00">wiscon</text>
</g>
<!-- racefail -->
<g id="node39" class="node"><title>racefail</title>
<polygon fill="#e066ff" stroke="black" points="737.102,-487 685.548,-469 737.102,-451 788.655,-469 737.102,-487"/>
<text text-anchor="middle" x="737.102" y="-464.8" font-family="Times,serif" font-size="14.00">racefail</text>
</g>
<!-- wiscon&#45;&gt;racefail -->
<g id="edge62" class="edge"><title>wiscon&#45;&gt;racefail</title>
<path fill="none" stroke="black" d="M737.102,-815.784C737.102,-801.405 737.102,-780.366 737.102,-762 737.102,-762 737.102,-762 737.102,-541 737.102,-526.651 737.102,-510.671 737.102,-497.511"/>
<polygon fill="black" stroke="black" points="740.602,-497.216 737.102,-487.216 733.602,-497.216 740.602,-497.216"/>
</g>
<!-- adacamp -->
<g id="node51" class="node"><title>adacamp</title>
<ellipse fill="none" stroke="black" cx="962.102" cy="-237" rx="41.5593" ry="18"/>
<text text-anchor="middle" x="962.102" y="-232.8" font-family="Times,serif" font-size="14.00">adacamp</text>
</g>
<!-- wiscon&#45;&gt;adacamp -->
<g id="edge34" class="edge"><title>wiscon&#45;&gt;adacamp</title>
<path fill="none" stroke="black" d="M762.77,-821.657C768.69,-819.443 775.033,-817.383 781.102,-816 854.784,-799.207 1459.1,-837.572 1459.1,-762 1459.1,-762 1459.1,-762 1459.1,-578 1459.1,-511.599 1495.1,-499.401 1495.1,-433 1495.1,-433 1495.1,-433 1495.1,-309 1495.1,-255.109 1065.73,-266.585 1013.1,-255 1009.52,-254.211 1005.83,-253.264 1002.16,-252.225"/>
<polygon fill="black" stroke="black" points="1003.14,-248.864 992.553,-249.309 1001.11,-255.563 1003.14,-248.864"/>
<text text-anchor="middle" x="1505.97" y="-537.8" font-family="Times,serif" font-size="14.00">a11y policies</text>
</g>
<!-- linuxconfau -->
<g id="node15" class="node"><title>linuxconfau</title>
<polygon fill="#a2cd5a" stroke="black" points="533.471,-852 450.732,-852 450.732,-816 533.471,-816 533.471,-852"/>
<text text-anchor="middle" x="492.102" y="-829.8" font-family="Times,serif" font-size="14.00">linuxconfau</text>
</g>
<!-- haecksen -->
<g id="node31" class="node"><title>haecksen</title>
<ellipse fill="#a2cd5a" stroke="black" cx="836.102" cy="-615" rx="42.5283" ry="18"/>
<text text-anchor="middle" x="836.102" y="-610.8" font-family="Times,serif" font-size="14.00">haecksen</text>
</g>
<!-- linuxconfau&#45;&gt;haecksen -->
<g id="edge55" class="edge"><title>linuxconfau&#45;&gt;haecksen</title>
<path fill="none" stroke="black" d="M496.223,-815.782C505.231,-782.082 529.999,-707.446 580.102,-670 612.004,-646.157 720.331,-629.64 785.405,-621.6"/>
<polygon fill="black" stroke="black" points="785.953,-625.06 795.459,-620.383 785.111,-618.111 785.953,-625.06"/>
</g>
<!-- Ada Initiative -->
<g id="node47" class="node"><title>Ada Initiative</title>
<ellipse fill="none" stroke="black" cx="526.102" cy="-310" rx="58.9495" ry="18"/>
<text text-anchor="middle" x="526.102" y="-305.8" font-family="Times,serif" font-size="14.00">Ada Initiative</text>
</g>
<!-- linuxconfau&#45;&gt;Ada Initiative -->
<g id="edge20" class="edge"><title>linuxconfau&#45;&gt;Ada Initiative</title>
<path fill="none" stroke="black" d="M472.023,-815.87C458.87,-802.662 444.102,-783.128 444.102,-762 444.102,-762 444.102,-762 444.102,-505 444.102,-439.942 483.71,-371.607 507.871,-335.975"/>
<polygon fill="black" stroke="black" points="510.827,-337.855 513.648,-327.643 505.074,-333.867 510.827,-337.855"/>
</g>
<!-- Anita Borg Institute -->
<g id="node16" class="node"><title>Anita Borg Institute</title>
<ellipse fill="#ffd39b" stroke="black" cx="871.102" cy="-834" rx="80.8814" ry="18"/>
<text text-anchor="middle" x="871.102" y="-829.8" font-family="Times,serif" font-size="14.00">Anita Borg Institute</text>
</g>
<!-- GHC -->
<g id="node18" class="node"><title>GHC</title>
<ellipse fill="#ffd39b" stroke="black" cx="1016.1" cy="-834" rx="28.5583" ry="18"/>
<text text-anchor="middle" x="1016.1" y="-829.8" font-family="Times,serif" font-size="14.00">GHC</text>
</g>
<!-- Anita Borg Institute&#45;&gt;GHC -->
<g id="edge14" class="edge"><title>Anita Borg Institute&#45;&gt;GHC</title>
<path fill="none" stroke="black" d="M951.814,-834C960.205,-834 968.596,-834 976.987,-834"/>
<polygon fill="black" stroke="black" points="977.223,-837.5 987.223,-834 977.223,-830.5 977.223,-837.5"/>
</g>
<!-- systers -->
<g id="node17" class="node"><title>systers</title>
<ellipse fill="#ffd39b" stroke="black" cx="650.102" cy="-834" rx="34.3614" ry="18"/>
<text text-anchor="middle" x="650.102" y="-829.8" font-family="Times,serif" font-size="14.00">systers</text>
</g>
<!-- linuxchix -->
<g id="node19" class="node"><title>linuxchix</title>
<ellipse fill="#a2cd5a" stroke="black" cx="649.102" cy="-761" rx="43.5233" ry="18"/>
<text text-anchor="middle" x="649.102" y="-756.8" font-family="Times,serif" font-size="14.00">linuxchix</text>
</g>
<!-- systers&#45;&gt;linuxchix -->
<g id="edge15" class="edge"><title>systers&#45;&gt;linuxchix</title>
<path fill="none" stroke="black" d="M649.859,-815.813C649.746,-807.789 649.609,-798.047 649.483,-789.069"/>
<polygon fill="black" stroke="black" points="652.982,-788.979 649.341,-779.029 645.983,-789.077 652.982,-788.979"/>
</g>
<!-- debianwomen -->
<g id="node25" class="node"><title>debianwomen</title>
<ellipse fill="#a2cd5a" stroke="black" cx="649.102" cy="-688" rx="59.927" ry="18"/>
<text text-anchor="middle" x="649.102" y="-683.8" font-family="Times,serif" font-size="14.00">debianwomen</text>
</g>
<!-- linuxchix&#45;&gt;debianwomen -->
<g id="edge48" class="edge"><title>linuxchix&#45;&gt;debianwomen</title>
<path fill="none" stroke="black" d="M649.102,-742.813C649.102,-734.789 649.102,-725.047 649.102,-716.069"/>
<polygon fill="black" stroke="black" points="652.602,-716.029 649.102,-706.029 645.602,-716.029 652.602,-716.029"/>
</g>
<!-- linuxchix&#45;&gt;haecksen -->
<g id="edge54" class="edge"><title>linuxchix&#45;&gt;haecksen</title>
<path fill="none" stroke="black" d="M692.682,-760.705C783.925,-761.151 990.257,-756.423 1034.1,-706 1079.21,-654.127 960.034,-630.518 887.417,-621.206"/>
<polygon fill="black" stroke="black" points="887.418,-617.68 877.066,-619.934 886.565,-624.628 887.418,-617.68"/>
</g>
<!-- geekfeminism -->
<g id="node35" class="node"><title>geekfeminism</title>
<ellipse fill="none" stroke="black" cx="538.102" cy="-542" rx="60.4115" ry="18"/>
<text text-anchor="middle" x="538.102" y="-537.8" font-family="Times,serif" font-size="14.00">geekfeminism</text>
</g>
<!-- linuxchix&#45;&gt;geekfeminism -->
<g id="edge16" class="edge"><title>linuxchix&#45;&gt;geekfeminism</title>
<path fill="none" stroke="black" d="M623.957,-746.091C609.098,-736.633 591.097,-722.801 580.102,-706 552.523,-663.857 543.042,-604.579 539.79,-570.34"/>
<polygon fill="black" stroke="black" points="543.26,-569.829 538.938,-560.156 536.284,-570.413 543.26,-569.829"/>
</g>
<!-- sfruby -->
<g id="node20" class="node"><title>sfruby</title>
<ellipse fill="lightpink" stroke="black" cx="1915.1" cy="-761" rx="32.9081" ry="18"/>
<text text-anchor="middle" x="1915.1" y="-756.8" font-family="Times,serif" font-size="14.00">sfruby</text>
</g>
<!-- railsbridge -->
<g id="node41" class="node"><title>railsbridge</title>
<ellipse fill="lightpink" stroke="black" cx="2020.1" cy="-469" rx="47.8496" ry="18"/>
<text text-anchor="middle" x="2020.1" y="-464.8" font-family="Times,serif" font-size="14.00">railsbridge</text>
</g>
<!-- sfruby&#45;&gt;railsbridge -->
<g id="edge73" class="edge"><title>sfruby&#45;&gt;railsbridge</title>
<path fill="none" stroke="black" d="M1915.1,-742.784C1915.1,-728.405 1915.1,-707.366 1915.1,-689 1915.1,-689 1915.1,-689 1915.1,-541 1915.1,-511.473 1943.95,-493.393 1971.4,-482.873"/>
<polygon fill="black" stroke="black" points="1972.75,-486.107 1981,-479.46 1970.41,-479.511 1972.75,-486.107"/>
</g>
<!-- gsoc -->
<g id="node21" class="node"><title>gsoc</title>
<polygon fill="#a2cd5a" stroke="black" points="1739.1,-706 1685.1,-706 1685.1,-670 1739.1,-670 1739.1,-706"/>
<text text-anchor="middle" x="1712.1" y="-683.8" font-family="Times,serif" font-size="14.00">gsoc</text>
</g>
<!-- opw -->
<g id="node22" class="node"><title>opw</title>
<ellipse fill="#a2cd5a" stroke="black" cx="1802.1" cy="-688" rx="27" ry="18"/>
<text text-anchor="middle" x="1802.1" y="-683.8" font-family="Times,serif" font-size="14.00">opw</text>
</g>
<!-- gsoc&#45;&gt;opw -->
<g id="edge53" class="edge"><title>gsoc&#45;&gt;opw</title>
<path fill="none" stroke="black" d="M1739.17,-688C1747.77,-688 1756.37,-688 1764.97,-688"/>
<polygon fill="black" stroke="black" points="1765.06,-691.5 1775.06,-688 1765.06,-684.5 1765.06,-691.5"/>
</g>
<!-- rgsoc -->
<g id="node66" class="node"><title>rgsoc</title>
<ellipse fill="lightpink" stroke="black" cx="1824.1" cy="-164" rx="29.2133" ry="18"/>
<text text-anchor="middle" x="1824.1" y="-159.8" font-family="Times,serif" font-size="14.00">rgsoc</text>
</g>
<!-- gsoc&#45;&gt;rgsoc -->
<g id="edge61" class="edge"><title>gsoc&#45;&gt;rgsoc</title>
<path fill="none" stroke="black" d="M1739.28,-676.924C1763.49,-665.984 1795.1,-645.961 1795.1,-616 1795.1,-616 1795.1,-616 1795.1,-236 1795.1,-219.821 1801.63,-203.006 1808.5,-189.802"/>
<polygon fill="black" stroke="black" points="1811.66,-191.327 1813.47,-180.888 1805.54,-187.919 1811.66,-191.327"/>
</g>
<!-- ubuntuwomen -->
<g id="node23" class="node"><title>ubuntuwomen</title>
<ellipse fill="#a2cd5a" stroke="black" cx="964.102" cy="-688" rx="60.9133" ry="18"/>
<text text-anchor="middle" x="964.102" y="-683.8" font-family="Times,serif" font-size="14.00">ubuntuwomen</text>
</g>
<!-- gnomewomen -->
<g id="node24" class="node"><title>gnomewomen</title>
<ellipse fill="#a2cd5a" stroke="black" cx="825.102" cy="-688" rx="60.4202" ry="18"/>
<text text-anchor="middle" x="825.102" y="-683.8" font-family="Times,serif" font-size="14.00">gnomewomen</text>
</g>
<!-- gnomewomen&#45;&gt;opw -->
<g id="edge52" class="edge"><title>gnomewomen&#45;&gt;opw</title>
<path fill="none" stroke="black" d="M852.207,-704.277C866.747,-712.065 885.296,-720.54 903.102,-724.5 993.775,-744.666 1649.4,-748.609 1739.1,-724.5 1751.98,-721.04 1764.94,-714.235 1775.73,-707.43"/>
<polygon fill="black" stroke="black" points="1777.83,-710.232 1784.23,-701.786 1773.96,-704.4 1777.83,-710.232"/>
</g>
<!-- debianwomen&#45;&gt;ubuntuwomen -->
<g id="edge49" class="edge"><title>debianwomen&#45;&gt;ubuntuwomen</title>
<path fill="none" stroke="black" d="M684.996,-702.417C707.576,-710.697 737.556,-720.269 765.102,-724.5 817.817,-732.598 833.012,-735.952 885.102,-724.5 899.588,-721.315 914.581,-715.205 927.563,-708.882"/>
<polygon fill="black" stroke="black" points="929.293,-711.929 936.623,-704.279 926.123,-705.688 929.293,-711.929"/>
</g>
<!-- debianwomen&#45;&gt;gnomewomen -->
<g id="edge50" class="edge"><title>debianwomen&#45;&gt;gnomewomen</title>
<path fill="none" stroke="black" d="M708.914,-688C724.179,-688 739.443,-688 754.708,-688"/>
<polygon fill="black" stroke="black" points="754.739,-691.5 764.739,-688 754.738,-684.5 754.739,-691.5"/>
</g>
<!-- girlgeekdinners -->
<g id="node26" class="node"><title>girlgeekdinners</title>
<polygon fill="#ffd39b" stroke="black" points="2293.68,-706 2190.52,-706 2190.52,-670 2293.68,-670 2293.68,-706"/>
<text text-anchor="middle" x="2242.1" y="-683.8" font-family="Times,serif" font-size="14.00">girlgeekdinners</text>
</g>
<!-- blogher -->
<g id="node27" class="node"><title>blogher</title>
<ellipse fill="none" stroke="black" cx="2349.1" cy="-688" rx="37.2421" ry="18"/>
<text text-anchor="middle" x="2349.1" y="-683.8" font-family="Times,serif" font-size="14.00">blogher</text>
</g>
<!-- speakerswiki -->
<g id="node28" class="node"><title>speakerswiki</title>
<ellipse fill="none" stroke="black" cx="2478.1" cy="-688" rx="56.0528" ry="18"/>
<text text-anchor="middle" x="2478.1" y="-683.8" font-family="Times,serif" font-size="14.00">speakerswiki</text>
</g>
<!-- blogher&#45;&gt;speakerswiki -->
<g id="edge69" class="edge"><title>blogher&#45;&gt;speakerswiki</title>
<path fill="none" stroke="black" d="M2386.39,-688C2394.71,-688 2403.03,-688 2411.35,-688"/>
<polygon fill="black" stroke="black" points="2411.5,-691.5 2421.5,-688 2411.5,-684.5 2411.5,-691.5"/>
</g>
<!-- railsconf2005 -->
<g id="node29" class="node"><title>railsconf2005</title>
<ellipse fill="lightpink" stroke="black" cx="2002.1" cy="-688" rx="58.9668" ry="18"/>
<text text-anchor="middle" x="2002.1" y="-683.8" font-family="Times,serif" font-size="14.00">railsconf2005</text>
</g>
<!-- devchix -->
<g id="node30" class="node"><title>devchix</title>
<ellipse fill="lightpink" stroke="black" cx="2134.1" cy="-688" rx="38.2024" ry="18"/>
<text text-anchor="middle" x="2134.1" y="-683.8" font-family="Times,serif" font-size="14.00">devchix</text>
</g>
<!-- railsconf2005&#45;&gt;devchix -->
<g id="edge71" class="edge"><title>railsconf2005&#45;&gt;devchix</title>
<path fill="none" stroke="black" d="M2060.88,-688C2069.15,-688 2077.42,-688 2085.69,-688"/>
<polygon fill="black" stroke="black" points="2085.78,-691.5 2095.78,-688 2085.78,-684.5 2085.78,-691.5"/>
</g>
<!-- devchix&#45;&gt;railsbridge -->
<g id="edge72" class="edge"><title>devchix&#45;&gt;railsbridge</title>
<path fill="none" stroke="black" d="M2125.35,-670.333C2105.58,-632.701 2057.37,-540.933 2033.68,-495.853"/>
<polygon fill="black" stroke="black" points="2036.64,-493.949 2028.89,-486.724 2030.44,-497.205 2036.64,-493.949"/>
</g>
<!-- owoot -->
<g id="node49" class="node"><title>owoot</title>
<ellipse fill="#a2cd5a" stroke="black" cx="804.102" cy="-310" rx="32.4324" ry="18"/>
<text text-anchor="middle" x="804.102" y="-305.8" font-family="Times,serif" font-size="14.00">owoot</text>
</g>
<!-- haecksen&#45;&gt;owoot -->
<g id="edge51" class="edge"><title>haecksen&#45;&gt;owoot</title>
<path fill="none" stroke="black" d="M828.918,-597.122C823.538,-582.945 817.102,-562.013 817.102,-543 817.102,-543 817.102,-543 817.102,-395 817.102,-375.753 813.727,-354.313 810.417,-337.912"/>
<polygon fill="black" stroke="black" points="813.797,-336.983 808.286,-327.935 806.952,-338.445 813.797,-336.983"/>
</g>
<!-- haecksen&#45;&gt;adacamp -->
<g id="edge56" class="edge"><title>haecksen&#45;&gt;adacamp</title>
<path fill="none" stroke="black" d="M843.285,-597.122C848.665,-582.945 855.102,-562.013 855.102,-543 855.102,-543 855.102,-543 855.102,-432 855.102,-363.275 907.225,-295.979 938.713,-261.595"/>
<polygon fill="black" stroke="black" points="941.568,-263.668 945.851,-253.977 936.459,-258.882 941.568,-263.668"/>
</g>
<!-- shesgeeky -->
<g id="node32" class="node"><title>shesgeeky</title>
<ellipse fill="none" stroke="black" cx="2478.1" cy="-615" rx="46.4046" ry="18"/>
<text text-anchor="middle" x="2478.1" y="-610.8" font-family="Times,serif" font-size="14.00">shesgeeky</text>
</g>
<!-- shesgeeky&#45;&gt;speakerswiki -->
<g id="edge70" class="edge"><title>shesgeeky&#45;&gt;speakerswiki</title>
<path fill="none" stroke="black" d="M2478.1,-633.029C2478.1,-641.029 2478.1,-650.765 2478.1,-659.753"/>
<polygon fill="black" stroke="black" points="2474.6,-659.813 2478.1,-669.813 2481.6,-659.813 2474.6,-659.813"/>
</g>
<!-- noisebridge -->
<g id="node33" class="node"><title>noisebridge</title>
<polygon fill="cornflowerblue" stroke="black" points="1620.92,-633 1539.28,-633 1539.28,-597 1620.92,-597 1620.92,-633"/>
<text text-anchor="middle" x="1580.1" y="-610.8" font-family="Times,serif" font-size="14.00">noisebridge</text>
</g>
<!-- anarchafeminist hacker hive -->
<g id="node58" class="node"><title>anarchafeminist hacker hive</title>
<ellipse fill="cornflowerblue" stroke="black" cx="1657.1" cy="-237" rx="109.581" ry="18"/>
<text text-anchor="middle" x="1657.1" y="-232.8" font-family="Times,serif" font-size="14.00">anarchafeminist hacker hive</text>
</g>
<!-- noisebridge&#45;&gt;anarchafeminist hacker hive -->
<g id="edge38" class="edge"><title>noisebridge&#45;&gt;anarchafeminist hacker hive</title>
<path fill="none" stroke="black" d="M1611.77,-596.961C1629.91,-584.68 1649.1,-566.204 1649.1,-543 1649.1,-543 1649.1,-543 1649.1,-309 1649.1,-294.561 1650.76,-278.572 1652.56,-265.43"/>
<polygon fill="black" stroke="black" points="1656.08,-265.56 1654.08,-255.155 1649.15,-264.537 1656.08,-265.56"/>
</g>
<!-- doubleunion -->
<g id="node65" class="node"><title>doubleunion</title>
<ellipse fill="cornflowerblue" stroke="black" cx="1038.1" cy="-164" rx="54.1403" ry="18"/>
<text text-anchor="middle" x="1038.1" y="-159.8" font-family="Times,serif" font-size="14.00">doubleunion</text>
</g>
<!-- noisebridge&#45;&gt;doubleunion -->
<g id="edge39" class="edge"><title>noisebridge&#45;&gt;doubleunion</title>
<path fill="none" stroke="black" d="M1582.31,-596.939C1588.44,-541.614 1599.68,-365.421 1509.1,-273 1452.46,-215.204 1213.69,-183.182 1099.47,-170.912"/>
<polygon fill="black" stroke="black" points="1099.79,-167.426 1089.48,-169.855 1099.05,-174.388 1099.79,-167.426"/>
</g>
<!-- SFF CAHP -->
<g id="node34" class="node"><title>SFF CAHP</title>
<ellipse fill="#e066ff" stroke="black" cx="1167.1" cy="-542" rx="50.8253" ry="18"/>
<text text-anchor="middle" x="1167.1" y="-537.8" font-family="Times,serif" font-size="14.00">SFF CAHP</text>
</g>
<!-- backupproject -->
<g id="node43" class="node"><title>backupproject</title>
<ellipse fill="#e066ff" stroke="black" cx="1407.1" cy="-469" rx="60.3942" ry="18"/>
<text text-anchor="middle" x="1407.1" y="-464.8" font-family="Times,serif" font-size="14.00">backupproject</text>
</g>
<!-- SFF CAHP&#45;&gt;backupproject -->
<g id="edge26" class="edge"><title>SFF CAHP&#45;&gt;backupproject</title>
<path fill="none" stroke="black" d="M1204.87,-529.828C1245.7,-517.749 1311,-498.43 1356.31,-485.027"/>
<polygon fill="black" stroke="black" points="1357.34,-488.37 1365.94,-482.177 1355.36,-481.658 1357.34,-488.37"/>
</g>
<!-- GF/TAI AHP -->
<g id="node48" class="node"><title>GF/TAI AHP</title>
<ellipse fill="none" stroke="black" cx="688.102" cy="-310" rx="57.1338" ry="18"/>
<text text-anchor="middle" x="688.102" y="-305.8" font-family="Times,serif" font-size="14.00">GF/TAI AHP</text>
</g>
<!-- SFF CAHP&#45;&gt;GF/TAI AHP -->
<g id="edge24" class="edge"><title>SFF CAHP&#45;&gt;GF/TAI AHP</title>
<path fill="none" stroke="black" d="M1117.73,-537.879C1064.53,-532.886 978.571,-520.008 912.102,-487 906.74,-484.337 753.984,-349.464 749.102,-346 741.649,-340.713 733.341,-335.526 725.315,-330.833"/>
<polygon fill="black" stroke="black" points="726.852,-327.681 716.432,-325.764 723.383,-333.76 726.852,-327.681"/>
</g>
<!-- geekfeminism&#45;&gt;Ada Initiative -->
<g id="edge19" class="edge"><title>geekfeminism&#45;&gt;Ada Initiative</title>
<path fill="none" stroke="black" d="M535.241,-523.81C531.346,-499.457 524.579,-453.479 522.102,-414 521.1,-398.031 521.625,-393.993 522.102,-378 522.494,-364.847 523.318,-350.262 524.117,-338.067"/>
<polygon fill="black" stroke="black" points="527.611,-338.277 524.802,-328.061 520.627,-337.799 527.611,-338.277"/>
</g>
<!-- geekfeminism&#45;&gt;GF/TAI AHP -->
<g id="edge22" class="edge"><title>geekfeminism&#45;&gt;GF/TAI AHP</title>
<path fill="none" stroke="black" d="M560.601,-525.295C587.551,-506.727 634.304,-475.283 676.102,-451 707.211,-432.927 729.356,-444.709 748.102,-414 764.861,-386.545 739.152,-354.46 716.365,-333.488"/>
<polygon fill="black" stroke="black" points="718.629,-330.817 708.816,-326.824 713.997,-336.065 718.629,-330.817"/>
</g>
<!-- seattleattic -->
<g id="node63" class="node"><title>seattleattic</title>
<ellipse fill="cornflowerblue" stroke="black" cx="511.102" cy="-164" rx="47.8323" ry="18"/>
<text text-anchor="middle" x="511.102" y="-159.8" font-family="Times,serif" font-size="14.00">seattleattic</text>
</g>
<!-- geekfeminism&#45;&gt;seattleattic -->
<g id="edge44" class="edge"><title>geekfeminism&#45;&gt;seattleattic</title>
<path fill="none" stroke="black" d="M519.772,-524.424C488.245,-493.995 427.102,-425.732 427.102,-354 427.102,-354 427.102,-354 427.102,-236 427.102,-211.439 448.307,-193.635 469.409,-181.999"/>
<polygon fill="black" stroke="black" points="471.089,-185.071 478.384,-177.388 467.89,-178.844 471.089,-185.071"/>
</g>
<!-- oscon2009 -->
<g id="node38" class="node"><title>oscon2009</title>
<ellipse fill="#a2cd5a" stroke="black" cx="364.102" cy="-469" rx="48.3514" ry="18"/>
<text text-anchor="middle" x="364.102" y="-464.8" font-family="Times,serif" font-size="14.00">oscon2009</text>
</g>
<!-- dreamwidth&#45;&gt;oscon2009 -->
<g id="edge65" class="edge"><title>dreamwidth&#45;&gt;oscon2009</title>
<path fill="none" stroke="black" d="M364.102,-523.813C364.102,-515.789 364.102,-506.047 364.102,-497.069"/>
<polygon fill="black" stroke="black" points="367.602,-497.029 364.102,-487.029 360.602,-497.029 367.602,-497.029"/>
</g>
<!-- otw&#45;&gt;oscon2009 -->
<g id="edge66" class="edge"><title>otw&#45;&gt;oscon2009</title>
<path fill="none" stroke="black" d="M284.893,-527.978C298.865,-517.75 318.614,-503.295 334.897,-491.377"/>
<polygon fill="black" stroke="black" points="337.044,-494.142 343.047,-485.411 332.91,-488.494 337.044,-494.142"/>
</g>
<!-- oscon2009&#45;&gt;geekfeminism -->
<g id="edge67" class="edge"><title>oscon2009&#45;&gt;geekfeminism</title>
<path fill="none" stroke="black" d="M395.483,-482.805C423.017,-494.04 463.35,-510.498 494.104,-523.047"/>
<polygon fill="black" stroke="black" points="493.144,-526.435 503.725,-526.973 495.788,-519.954 493.144,-526.435"/>
</g>
<!-- racefail&#45;&gt;geekfeminism -->
<g id="edge17" class="edge"><title>racefail&#45;&gt;geekfeminism</title>
<path fill="none" stroke="black" d="M719.74,-480.986C706.748,-488.826 688.325,-499.154 671.102,-506 647.319,-515.453 620.136,-523.126 596.569,-528.852"/>
<polygon fill="black" stroke="black" points="595.635,-525.477 586.71,-531.187 597.248,-532.288 595.635,-525.477"/>
</g>
<!-- couchdb -->
<g id="node40" class="node"><title>couchdb</title>
<polygon fill="lightpink" stroke="black" points="1880.1,-487 1823.28,-469 1880.1,-451 1936.93,-469 1880.1,-487"/>
<text text-anchor="middle" x="1880.1" y="-464.8" font-family="Times,serif" font-size="14.00">couchdb</text>
</g>
<!-- couchdb&#45;&gt;railsbridge -->
<g id="edge57" class="edge"><title>couchdb&#45;&gt;railsbridge</title>
<path fill="none" stroke="black" d="M1936.98,-469C1945.29,-469 1953.6,-469 1961.91,-469"/>
<polygon fill="black" stroke="black" points="1962.04,-472.5 1972.04,-469 1962.04,-465.5 1962.04,-472.5"/>
</g>
<!-- railsgirls -->
<g id="node52" class="node"><title>railsgirls</title>
<ellipse fill="lightpink" stroke="black" cx="1888.1" cy="-237" rx="41.1093" ry="18"/>
<text text-anchor="middle" x="1888.1" y="-232.8" font-family="Times,serif" font-size="14.00">railsgirls</text>
</g>
<!-- railsbridge&#45;&gt;railsgirls -->
<g id="edge59" class="edge"><title>railsbridge&#45;&gt;railsgirls</title>
<path fill="none" stroke="black" d="M2006.4,-451.512C1998.04,-441.084 1987.4,-427.137 1979.1,-414 1946.87,-362.958 1916.06,-299.184 1899.87,-264.123"/>
<polygon fill="black" stroke="black" points="1903.06,-262.663 1895.71,-255.03 1896.69,-265.579 1903.06,-262.663"/>
</g>
<!-- pystar -->
<g id="node75" class="node"><title>pystar</title>
<ellipse fill="lightpink" stroke="black" cx="2020.1" cy="-396" rx="31.9393" ry="18"/>
<text text-anchor="middle" x="2020.1" y="-391.8" font-family="Times,serif" font-size="14.00">pystar</text>
</g>
<!-- railsbridge&#45;&gt;pystar -->
<g id="edge58" class="edge"><title>railsbridge&#45;&gt;pystar</title>
<path fill="none" stroke="black" d="M2020.1,-450.813C2020.1,-442.789 2020.1,-433.047 2020.1,-424.069"/>
<polygon fill="black" stroke="black" points="2023.6,-424.029 2020.1,-414.029 2016.6,-424.029 2023.6,-424.029"/>
</g>
<!-- open source boobs project -->
<g id="node42" class="node"><title>open source boobs project</title>
<polygon fill="#e066ff" stroke="black" points="1166.1,-487 1020.65,-469 1166.1,-451 1311.56,-469 1166.1,-487"/>
<text text-anchor="middle" x="1166.1" y="-464.8" font-family="Times,serif" font-size="14.00">open source boobs project</text>
</g>
<!-- open source boobs project&#45;&gt;backupproject -->
<g id="edge25" class="edge"><title>open source boobs project&#45;&gt;backupproject</title>
<path fill="none" stroke="black" d="M1311.55,-469C1319.86,-469 1328.18,-469 1336.49,-469"/>
<polygon fill="black" stroke="black" points="1336.63,-472.5 1346.63,-469 1336.63,-465.5 1336.63,-472.5"/>
</g>
<!-- backupribbons -->
<g id="node46" class="node"><title>backupribbons</title>
<ellipse fill="#e066ff" stroke="black" cx="1405.1" cy="-396" rx="62.3494" ry="18"/>
<text text-anchor="middle" x="1405.1" y="-391.8" font-family="Times,serif" font-size="14.00">backupribbons</text>
</g>
<!-- backupproject&#45;&gt;backupribbons -->
<g id="edge27" class="edge"><title>backupproject&#45;&gt;backupribbons</title>
<path fill="none" stroke="black" d="M1406.62,-450.813C1406.39,-442.789 1406.12,-433.047 1405.86,-424.069"/>
<polygon fill="black" stroke="black" points="1409.36,-423.926 1405.58,-414.029 1402.36,-424.123 1409.36,-423.926"/>
</g>
<!-- osbridge -->
<g id="node44" class="node"><title>osbridge</title>
<ellipse fill="#a2cd5a" stroke="black" cx="962.102" cy="-469" rx="40.6248" ry="18"/>
<text text-anchor="middle" x="962.102" y="-464.8" font-family="Times,serif" font-size="14.00">osbridge</text>
</g>
<!-- apachecon assault -->
<g id="node45" class="node"><title>apachecon assault</title>
<polygon fill="#a2cd5a" stroke="black" points="635.102,-414 530.648,-396 635.102,-378 739.556,-396 635.102,-414"/>
<text text-anchor="middle" x="635.102" y="-391.8" font-family="Times,serif" font-size="14.00">apachecon assault</text>
</g>
<!-- apachecon assault&#45;&gt;Ada Initiative -->
<g id="edge18" class="edge"><title>apachecon assault&#45;&gt;Ada Initiative</title>
<path fill="none" stroke="black" d="M616.611,-380.751C599.711,-367.726 574.448,-348.258 554.904,-333.196"/>
<polygon fill="black" stroke="black" points="556.976,-330.374 546.918,-327.042 552.703,-335.919 556.976,-330.374"/>
</g>
<!-- apachecon assault&#45;&gt;GF/TAI AHP -->
<g id="edge21" class="edge"><title>apachecon assault&#45;&gt;GF/TAI AHP</title>
<path fill="none" stroke="black" d="M644.823,-379.593C652.422,-367.549 663.149,-350.548 672.022,-336.485"/>
<polygon fill="black" stroke="black" points="675.157,-338.075 677.533,-327.75 669.237,-334.339 675.157,-338.075"/>
</g>
<!-- Ada Initiative&#45;&gt;GF/TAI AHP -->
<g id="edge23" class="edge"><title>Ada Initiative&#45;&gt;GF/TAI AHP</title>
<path fill="none" stroke="black" d="M585.27,-310C596.972,-310 608.674,-310 620.376,-310"/>
<polygon fill="black" stroke="black" points="620.66,-313.5 630.66,-310 620.66,-306.5 620.66,-313.5"/>
</g>
<!-- Ada Initiative&#45;&gt;adacamp -->
<g id="edge32" class="edge"><title>Ada Initiative&#45;&gt;adacamp</title>
<path fill="none" stroke="black" d="M575.358,-299.81C590.343,-297.141 606.875,-294.322 622.102,-292 750.115,-272.482 784.86,-283.833 911.102,-255 914.526,-254.218 918.047,-253.298 921.56,-252.298"/>
<polygon fill="black" stroke="black" points="922.812,-255.576 931.36,-249.316 920.774,-248.879 922.812,-255.576"/>
</g>
<!-- WoMoz -->
<g id="node77" class="node"><title>WoMoz</title>
<ellipse fill="none" stroke="black" cx="521.102" cy="-237" rx="38.2638" ry="18"/>
<text text-anchor="middle" x="521.102" y="-232.8" font-family="Times,serif" font-size="14.00">WoMoz</text>
</g>
<!-- Ada Initiative&#45;&gt;WoMoz -->
<g id="edge33" class="edge"><title>Ada Initiative&#45;&gt;WoMoz</title>
<path fill="none" stroke="black" d="M524.891,-291.813C524.326,-283.789 523.64,-274.047 523.008,-265.069"/>
<polygon fill="black" stroke="black" points="526.495,-264.758 522.301,-255.029 519.512,-265.25 526.495,-264.758"/>
</g>
<!-- Skeptic AHPs -->
<g id="node53" class="node"><title>Skeptic AHPs</title>
<ellipse fill="none" stroke="black" cx="843.102" cy="-237" rx="59.4858" ry="18"/>
<text text-anchor="middle" x="843.102" y="-232.8" font-family="Times,serif" font-size="14.00">Skeptic AHPs</text>
</g>
<!-- GF/TAI AHP&#45;&gt;Skeptic AHPs -->
<g id="edge29" class="edge"><title>GF/TAI AHP&#45;&gt;Skeptic AHPs</title>
<path fill="none" stroke="black" d="M722.714,-295.518C738.251,-289.269 756.731,-281.564 773.102,-274 783.944,-268.991 795.542,-263.206 806.116,-257.759"/>
<polygon fill="black" stroke="black" points="807.842,-260.806 815.1,-253.087 804.613,-254.595 807.842,-260.806"/>
</g>
<!-- PyCon AHP -->
<g id="node54" class="node"><title>PyCon AHP</title>
<ellipse fill="none" stroke="black" cx="669.102" cy="-237" rx="53.7149" ry="18"/>
<text text-anchor="middle" x="669.102" y="-232.8" font-family="Times,serif" font-size="14.00">PyCon AHP</text>
</g>
<!-- GF/TAI AHP&#45;&gt;PyCon AHP -->
<g id="edge28" class="edge"><title>GF/TAI AHP&#45;&gt;PyCon AHP</title>
<path fill="none" stroke="black" d="M683.502,-291.813C681.332,-283.702 678.691,-273.836 676.267,-264.777"/>
<polygon fill="black" stroke="black" points="679.625,-263.784 673.659,-255.029 672.863,-265.594 679.625,-263.784"/>
</g>
<!-- Scalzi&#39;s AHP pledge -->
<g id="node68" class="node"><title>Scalzi&#39;s AHP pledge</title>
<ellipse fill="none" stroke="black" cx="759.102" cy="-164" rx="81.7552" ry="18"/>
<text text-anchor="middle" x="759.102" y="-159.8" font-family="Times,serif" font-size="14.00">Scalzi&#39;s AHP pledge</text>
</g>
<!-- GF/TAI AHP&#45;&gt;Scalzi&#39;s AHP pledge -->
<g id="edge31" class="edge"><title>GF/TAI AHP&#45;&gt;Scalzi&#39;s AHP pledge</title>
<path fill="none" stroke="black" d="M704.233,-292.727C713.505,-282.597 724.736,-268.889 732.102,-255 742.692,-235.029 749.729,-210.307 753.955,-191.831"/>
<polygon fill="black" stroke="black" points="757.385,-192.531 756.072,-182.017 750.542,-191.055 757.385,-192.531"/>
<text text-anchor="middle" x="750.208" y="-232.8" font-family="Times,serif" font-size="14.00">?</text>
</g>
<!-- #CoCPledge -->
<g id="node74" class="node"><title>#CoCPledge</title>
<ellipse fill="none" stroke="black" cx="587.102" cy="-91" rx="54.6334" ry="18"/>
<text text-anchor="middle" x="587.102" y="-86.8" font-family="Times,serif" font-size="14.00">#CoCPledge</text>
</g>
<!-- GF/TAI AHP&#45;&gt;#CoCPledge -->
<g id="edge30" class="edge"><title>GF/TAI AHP&#45;&gt;#CoCPledge</title>
<path fill="none" stroke="black" d="M654.441,-295.301C637.092,-286.44 617.279,-273.14 606.102,-255 580.343,-213.197 580.656,-153.802 583.611,-119.448"/>
<polygon fill="black" stroke="black" points="587.12,-119.528 584.633,-109.229 580.155,-118.831 587.12,-119.528"/>
</g>
<!-- blackgirlscode -->
<g id="node50" class="node"><title>blackgirlscode</title>
<ellipse fill="none" stroke="black" cx="2026.1" cy="-310" rx="61.8476" ry="18"/>
<text text-anchor="middle" x="2026.1" y="-305.8" font-family="Times,serif" font-size="14.00">blackgirlscode</text>
</g>
<!-- adacamp&#45;&gt;osbridge -->
<g id="edge35" class="edge"><title>adacamp&#45;&gt;osbridge</title>
<path fill="none" stroke="black" d="M962.102,-255.174C962.102,-294.704 962.102,-392.41 962.102,-440.443"/>
<polygon fill="black" stroke="black" points="958.602,-440.713 962.102,-450.713 965.602,-440.713 958.602,-440.713"/>
<text text-anchor="middle" x="998.975" y="-348.8" font-family="Times,serif" font-size="14.00">a11y policies</text>
</g>
<!-- flux -->
<g id="node64" class="node"><title>flux</title>
<ellipse fill="cornflowerblue" stroke="black" cx="901.102" cy="-164" rx="27" ry="18"/>
<text text-anchor="middle" x="901.102" y="-159.8" font-family="Times,serif" font-size="14.00">flux</text>
</g>
<!-- adacamp&#45;&gt;flux -->
<g id="edge41" class="edge"><title>adacamp&#45;&gt;flux</title>
<path fill="none" stroke="black" d="M948.26,-219.889C940.08,-210.369 929.595,-198.165 920.59,-187.683"/>
<polygon fill="black" stroke="black" points="923.226,-185.38 914.054,-180.076 917.916,-189.942 923.226,-185.38"/>
</g>
<!-- adacamp&#45;&gt;doubleunion -->
<g id="edge43" class="edge"><title>adacamp&#45;&gt;doubleunion</title>
<path fill="none" stroke="black" d="M978.968,-220.243C989.059,-210.816 1002.07,-198.665 1013.31,-188.161"/>
<polygon fill="black" stroke="black" points="1015.84,-190.59 1020.75,-181.205 1011.06,-185.474 1015.84,-190.59"/>
</g>
<!-- railsgirls&#45;&gt;rgsoc -->
<g id="edge60" class="edge"><title>railsgirls&#45;&gt;rgsoc</title>
<path fill="none" stroke="black" d="M1873.58,-219.889C1865,-210.369 1854,-198.165 1844.55,-187.683"/>
<polygon fill="black" stroke="black" points="1846.99,-185.161 1837.69,-180.076 1841.79,-189.847 1846.99,-185.161"/>
</g>
<!-- Feminist Frequency vids -->
<g id="node55" class="node"><title>Feminist Frequency vids</title>
<ellipse fill="none" stroke="black" cx="2045.1" cy="-237" rx="97.6053" ry="18"/>
<text text-anchor="middle" x="2045.1" y="-232.8" font-family="Times,serif" font-size="14.00">Feminist Frequency vids</text>
</g>
<!-- transcodesf -->
<g id="node56" class="node"><title>transcodesf</title>
<ellipse fill="none" stroke="black" cx="2211.1" cy="-237" rx="50.2551" ry="18"/>
<text text-anchor="middle" x="2211.1" y="-232.8" font-family="Times,serif" font-size="14.00">transcodesf</text>
</g>
<!-- libtechwomen -->
<g id="node57" class="node"><title>libtechwomen</title>
<ellipse fill="none" stroke="black" cx="2340.1" cy="-237" rx="60.4115" ry="18"/>
<text text-anchor="middle" x="2340.1" y="-232.8" font-family="Times,serif" font-size="14.00">libtechwomen</text>
</g>
<!-- anarchafeminist hacker hive&#45;&gt;doubleunion -->
<g id="edge40" class="edge"><title>anarchafeminist hacker hive&#45;&gt;doubleunion</title>
<path fill="none" stroke="black" d="M1612.3,-220.5C1588.97,-213.068 1559.8,-204.765 1533.1,-200 1380.28,-172.732 1197.36,-166.51 1102.42,-165.216"/>
<polygon fill="black" stroke="black" points="1102.44,-161.716 1092.4,-165.094 1102.36,-168.716 1102.44,-161.716"/>
</g>
<!-- Ashe Dryden -->
<g id="node59" class="node"><title>Ashe Dryden</title>
<polygon fill="none" stroke="black" points="2549.77,-237 2516.94,-255 2451.27,-255 2418.43,-237 2451.27,-219 2516.94,-219 2549.77,-237"/>
<text text-anchor="middle" x="2484.1" y="-232.8" font-family="Times,serif" font-size="14.00">Ashe Dryden</text>
</g>
<!-- hackbright -->
<g id="node60" class="node"><title>hackbright</title>
<ellipse fill="palegoldenrod" stroke="black" cx="2616.1" cy="-237" rx="47.8496" ry="18"/>
<text text-anchor="middle" x="2616.1" y="-232.8" font-family="Times,serif" font-size="14.00">hackbright</text>
</g>
<!-- hackerschool -->
<g id="node61" class="node"><title>hackerschool</title>
<ellipse fill="palegoldenrod" stroke="black" cx="2739.1" cy="-237" rx="56.5201" ry="18"/>
<text text-anchor="middle" x="2739.1" y="-232.8" font-family="Times,serif" font-size="14.00">hackerschool</text>
</g>
<!-- hackermoms -->
<g id="node62" class="node"><title>hackermoms</title>
<ellipse fill="cornflowerblue" stroke="black" cx="1077.1" cy="-237" rx="55.0836" ry="18"/>
<text text-anchor="middle" x="1077.1" y="-232.8" font-family="Times,serif" font-size="14.00">hackermoms</text>
</g>
<!-- hackermoms&#45;&gt;doubleunion -->
<g id="edge45" class="edge"><title>hackermoms&#45;&gt;doubleunion</title>
<path fill="none" stroke="black" d="M1067.86,-219.174C1063.26,-210.809 1057.61,-200.509 1052.46,-191.145"/>
<polygon fill="black" stroke="black" points="1055.43,-189.278 1047.55,-182.198 1049.3,-192.648 1055.43,-189.278"/>
</g>
<!-- seattleattic&#45;&gt;flux -->
<g id="edge42" class="edge"><title>seattleattic&#45;&gt;flux</title>
<path fill="none" stroke="black" d="M546.01,-176.39C607.011,-196.174 736.48,-229.823 841.102,-200.5 853.269,-197.09 865.419,-190.458 875.571,-183.773"/>
<polygon fill="black" stroke="black" points="877.715,-186.545 883.928,-177.964 873.719,-180.797 877.715,-186.545"/>
</g>
<!-- seattleattic&#45;&gt;doubleunion -->
<g id="edge46" class="edge"><title>seattleattic&#45;&gt;doubleunion</title>
<path fill="none" stroke="black" d="M549.616,-174.955C583.011,-183.853 632.805,-195.688 677.102,-200.5 788.005,-212.549 817.974,-218.294 928.102,-200.5 950.805,-196.832 975.163,-189.163 995.172,-181.798"/>
<polygon fill="black" stroke="black" points="996.503,-185.036 1004.62,-178.225 994.027,-178.489 996.503,-185.036"/>
</g>
<!-- mvc -->
<g id="node73" class="node"><title>mvc</title>
<ellipse fill="none" stroke="black" cx="1038.1" cy="-91" rx="27" ry="18"/>
<text text-anchor="middle" x="1038.1" y="-86.8" font-family="Times,serif" font-size="14.00">mvc</text>
</g>
<!-- doubleunion&#45;&gt;mvc -->
<g id="edge47" class="edge"><title>doubleunion&#45;&gt;mvc</title>
<path fill="none" stroke="black" d="M1038.1,-145.813C1038.1,-137.789 1038.1,-128.047 1038.1,-119.069"/>
<polygon fill="black" stroke="black" points="1041.6,-119.029 1038.1,-109.029 1034.6,-119.029 1041.6,-119.029"/>
</g>
<!-- callbackwomen -->
<g id="node67" class="node"><title>callbackwomen</title>
<ellipse fill="none" stroke="black" cx="1937.1" cy="-164" rx="65.6976" ry="18"/>
<text text-anchor="middle" x="1937.1" y="-159.8" font-family="Times,serif" font-size="14.00">callbackwomen</text>
</g>
<!-- transh4ck -->
<g id="node69" class="node"><title>transh4ck</title>
<ellipse fill="none" stroke="black" cx="2065.1" cy="-164" rx="44.475" ry="18"/>
<text text-anchor="middle" x="2065.1" y="-159.8" font-family="Times,serif" font-size="14.00">transh4ck</text>
</g>
<!-- transtech -->
<g id="node70" class="node"><title>transtech</title>
<ellipse fill="none" stroke="black" cx="2187.1" cy="-164" rx="42.0524" ry="18"/>
<text text-anchor="middle" x="2187.1" y="-159.8" font-family="Times,serif" font-size="14.00">transtech</text>
</g>
<!-- transh4ck&#45;&gt;transtech -->
<g id="edge68" class="edge"><title>transh4ck&#45;&gt;transtech</title>
<path fill="none" stroke="black" d="M2109.9,-164C2118.19,-164 2126.48,-164 2134.77,-164"/>
<polygon fill="black" stroke="black" points="2134.88,-167.5 2144.88,-164 2134.88,-160.5 2134.88,-167.5"/>
</g>
<!-- females in hackerspaces email -->
<g id="node71" class="node"><title>females in hackerspaces email</title>
<polygon fill="cornflowerblue" stroke="black" points="262.102,-182 96.0359,-164 262.102,-146 428.167,-164 262.102,-182"/>
<text text-anchor="middle" x="262.102" y="-159.8" font-family="Times,serif" font-size="14.00">females in hackerspaces email</text>
</g>
<!-- females in hackerspaces email&#45;&gt;seattleattic -->
<g id="edge36" class="edge"><title>females in hackerspaces email&#45;&gt;seattleattic</title>
<path fill="none" stroke="black" d="M428.426,-164C436.525,-164 444.624,-164 452.723,-164"/>
<polygon fill="black" stroke="black" points="452.982,-167.5 462.982,-164 452.982,-160.5 452.982,-167.5"/>
</g>
<!-- females in hackerspaces email&#45;&gt;doubleunion -->
<g id="edge37" class="edge"><title>females in hackerspaces email&#45;&gt;doubleunion</title>
<path fill="none" stroke="black" d="M315.069,-176.306C355.394,-185.019 412.412,-195.935 463.102,-200.5 566.018,-209.769 826.091,-216.983 928.102,-200.5 950.805,-196.832 975.163,-189.163 995.172,-181.798"/>
<polygon fill="black" stroke="black" points="996.503,-185.036 1004.62,-178.225 994.027,-178.489 996.503,-185.036"/>
</g>
<!-- Ada Developers Academy -->
<g id="node72" class="node"><title>Ada Developers Academy</title>
<ellipse fill="palegoldenrod" stroke="black" cx="2350.1" cy="-164" rx="102.866" ry="18"/>
<text text-anchor="middle" x="2350.1" y="-159.8" font-family="Times,serif" font-size="14.00">Ada Developers Academy</text>
</g>
<!-- Anita Borg -->
<g id="node76" class="node"><title>Anita Borg</title>
<polygon fill="none" stroke="black" points="842.409,-907 813.755,-925 756.448,-925 727.794,-907 756.448,-889 813.755,-889 842.409,-907"/>
<text text-anchor="middle" x="785.102" y="-902.8" font-family="Times,serif" font-size="14.00">Anita Borg</text>
</g>
<!-- Anita Borg&#45;&gt;Anita Borg Institute -->
<g id="edge13" class="edge"><title>Anita Borg&#45;&gt;Anita Borg Institute</title>
<path fill="none" stroke="black" d="M805.92,-888.813C817.067,-879.61 830.954,-868.145 843.042,-858.166"/>
<polygon fill="black" stroke="black" points="845.584,-860.606 851.067,-851.54 841.127,-855.207 845.584,-860.606"/>
</g>
<!-- Anita Borg&#45;&gt;systers -->
<g id="edge12" class="edge"><title>Anita Borg&#45;&gt;systers</title>
<path fill="none" stroke="black" d="M754.468,-889.889C732.958,-878.576 704.243,-863.474 682.378,-851.975"/>
<polygon fill="black" stroke="black" points="683.947,-848.846 673.467,-847.289 680.689,-855.041 683.947,-848.846"/>
</g>
</g>
</svg>
