<?xml version="1.0" encoding="UTF-8" standalone="no"?>
<!DOCTYPE svg PUBLIC "-//W3C//DTD SVG 1.1//EN"
 "http://www.w3.org/Graphics/SVG/1.1/DTD/svg11.dtd">
<!-- Generated by graphviz version 2.26.3 (20100126.1600)
 -->
<!-- Title: GeekFeminismFamilyTree Pages: 1 -->
<svg width="2744pt" height="924pt"
 viewBox="0.00 0.00 2744.00 924.00" xmlns="http://www.w3.org/2000/svg" xmlns:xlink="http://www.w3.org/1999/xlink">
<g id="graph1" class="graph" transform="scale(1 1) rotate(0) translate(4 920)">
<title>GeekFeminismFamilyTree</title>
<polygon fill="white" stroke="white" points="-4,5 -4,-920 2741,-920 2741,5 -4,5"/>
<!-- past -->
<g id="node2" class="node"><title>past</title>
<text text-anchor="middle" x="62" y="-892.6" font-family="Times Roman,serif" font-size="16.00">past</text>
</g>
<!-- 2000&#45;2003 -->
<g id="node4" class="node"><title>2000&#45;2003</title>
<text text-anchor="middle" x="62" y="-816.6" font-family="Times Roman,serif" font-size="16.00">2000&#45;2003</text>
</g>
<!-- past&#45;&gt;2000&#45;2003 -->
<g id="edge3" class="edge"><title>past&#45;&gt;2000&#45;2003</title>
<path fill="none" stroke="black" d="M62,-878.989C62,-870.157 62,-859.31 62,-849.396"/>
<polygon fill="black" stroke="black" points="65.5001,-849.145 62,-839.145 58.5001,-849.145 65.5001,-849.145"/>
</g>
<!-- 2004&#45;2006 -->
<g id="node5" class="node"><title>2004&#45;2006</title>
<text text-anchor="middle" x="62" y="-740.6" font-family="Times Roman,serif" font-size="16.00">2004&#45;2006</text>
</g>
<!-- 2000&#45;2003&#45;&gt;2004&#45;2006 -->
<g id="edge4" class="edge"><title>2000&#45;2003&#45;&gt;2004&#45;2006</title>
<path fill="none" stroke="black" d="M62,-802.989C62,-794.157 62,-783.31 62,-773.396"/>
<polygon fill="black" stroke="black" points="65.5001,-773.145 62,-763.145 58.5001,-773.145 65.5001,-773.145"/>
</g>
<!-- 2007 -->
<g id="node6" class="node"><title>2007</title>
<text text-anchor="middle" x="62" y="-664.6" font-family="Times Roman,serif" font-size="16.00">2007</text>
</g>
<!-- 2004&#45;2006&#45;&gt;2007 -->
<g id="edge5" class="edge"><title>2004&#45;2006&#45;&gt;2007</title>
<path fill="none" stroke="black" d="M62,-726.989C62,-718.157 62,-707.31 62,-697.396"/>
<polygon fill="black" stroke="black" points="65.5001,-697.145 62,-687.145 58.5001,-697.145 65.5001,-697.145"/>
</g>
<!-- 2008 -->
<g id="node7" class="node"><title>2008</title>
<text text-anchor="middle" x="62" y="-588.6" font-family="Times Roman,serif" font-size="16.00">2008</text>
</g>
<!-- 2007&#45;&gt;2008 -->
<g id="edge6" class="edge"><title>2007&#45;&gt;2008</title>
<path fill="none" stroke="black" d="M62,-650.989C62,-642.157 62,-631.31 62,-621.396"/>
<polygon fill="black" stroke="black" points="65.5001,-621.145 62,-611.145 58.5001,-621.145 65.5001,-621.145"/>
</g>
<!-- 2009 -->
<g id="node8" class="node"><title>2009</title>
<text text-anchor="middle" x="62" y="-505.6" font-family="Times Roman,serif" font-size="16.00">2009</text>
</g>
<!-- 2008&#45;&gt;2009 -->
<g id="edge7" class="edge"><title>2008&#45;&gt;2009</title>
<path fill="none" stroke="black" d="M62,-574.99C62,-564.296 62,-550.499 62,-538.371"/>
<polygon fill="black" stroke="black" points="65.5001,-538.261 62,-528.261 58.5001,-538.261 65.5001,-538.261"/>
</g>
<!-- 2010 -->
<g id="node9" class="node"><title>2010</title>
<text text-anchor="middle" x="62" y="-415.6" font-family="Times Roman,serif" font-size="16.00">2010</text>
</g>
<!-- 2009&#45;&gt;2010 -->
<g id="edge8" class="edge"><title>2009&#45;&gt;2010</title>
<path fill="none" stroke="black" d="M62,-491.787C62,-479.344 62,-462.605 62,-448.421"/>
<polygon fill="black" stroke="black" points="65.5001,-448.186 62,-438.186 58.5001,-448.186 65.5001,-448.186"/>
</g>
<!-- 2011 -->
<g id="node10" class="node"><title>2011</title>
<text text-anchor="middle" x="62" y="-316.6" font-family="Times Roman,serif" font-size="16.00">2011</text>
</g>
<!-- 2010&#45;&gt;2011 -->
<g id="edge9" class="edge"><title>2010&#45;&gt;2011</title>
<path fill="none" stroke="black" d="M62,-401.842C62,-387.189 62,-366.311 62,-349.443"/>
<polygon fill="black" stroke="black" points="65.5001,-349.043 62,-339.043 58.5001,-349.043 65.5001,-349.043"/>
</g>
<!-- 2012 -->
<g id="node11" class="node"><title>2012</title>
<text text-anchor="middle" x="62" y="-240.6" font-family="Times Roman,serif" font-size="16.00">2012</text>
</g>
<!-- 2011&#45;&gt;2012 -->
<g id="edge10" class="edge"><title>2011&#45;&gt;2012</title>
<path fill="none" stroke="black" d="M62,-302.989C62,-294.157 62,-283.31 62,-273.396"/>
<polygon fill="black" stroke="black" points="65.5001,-273.145 62,-263.145 58.5001,-273.145 65.5001,-273.145"/>
</g>
<!-- 2013 -->
<g id="node12" class="node"><title>2013</title>
<text text-anchor="middle" x="62" y="-164.6" font-family="Times Roman,serif" font-size="16.00">2013</text>
</g>
<!-- 2012&#45;&gt;2013 -->
<g id="edge11" class="edge"><title>2012&#45;&gt;2013</title>
<path fill="none" stroke="black" d="M62,-226.989C62,-218.157 62,-207.31 62,-197.396"/>
<polygon fill="black" stroke="black" points="65.5001,-197.145 62,-187.145 58.5001,-197.145 65.5001,-197.145"/>
</g>
<!-- 2014 -->
<g id="node13" class="node"><title>2014</title>
<text text-anchor="middle" x="62" y="-88.6" font-family="Times Roman,serif" font-size="16.00">2014</text>
</g>
<!-- 2013&#45;&gt;2014 -->
<g id="edge12" class="edge"><title>2013&#45;&gt;2014</title>
<path fill="none" stroke="black" d="M62,-150.989C62,-142.157 62,-131.31 62,-121.396"/>
<polygon fill="black" stroke="black" points="65.5001,-121.145 62,-111.145 58.5001,-121.145 65.5001,-121.145"/>
</g>
<!-- unknowndate -->
<g id="node14" class="node"><title>unknowndate</title>
<text text-anchor="middle" x="62" y="-13.6" font-family="Times Roman,serif" font-size="16.00">unknowndate</text>
</g>
<!-- 2014&#45;&gt;unknowndate -->
<g id="edge13" class="edge"><title>2014&#45;&gt;unknowndate</title>
<path fill="none" stroke="black" d="M62,-74.8446C62,-66.3401 62,-56.0076 62,-46.4964"/>
<polygon fill="black" stroke="black" points="65.5001,-46.2481 62,-36.2482 58.5001,-46.2482 65.5001,-46.2481"/>
</g>
<!-- livejournal -->
<g id="node16" class="node"><title>livejournal</title>
<polygon fill="none" stroke="black" points="281,-915 193,-915 193,-879 281,-879 281,-915"/>
<text text-anchor="middle" x="237" y="-893.4" font-family="Times Roman,serif" font-size="14.00">livejournal</text>
</g>
<!-- dreamwidth -->
<g id="node39" class="node"><title>dreamwidth</title>
<ellipse fill="none" stroke="black" cx="178" cy="-593" rx="70.0036" ry="18.3848"/>
<text text-anchor="middle" x="178" y="-589.4" font-family="Times Roman,serif" font-size="14.00">dreamwidth</text>
</g>
<!-- livejournal&#45;&gt;dreamwidth -->
<g id="edge102" class="edge"><title>livejournal&#45;&gt;dreamwidth</title>
<path fill="none" stroke="black" d="M221.586,-878.956C210.685,-864.327 198,-842.652 198,-821 198,-821 198,-821 198,-669 198,-652.861 193.73,-635.41 189.136,-621.306"/>
<polygon fill="black" stroke="black" points="192.383,-619.987 185.79,-611.693 185.772,-622.288 192.383,-619.987"/>
</g>
<!-- otw -->
<g id="node40" class="node"><title>otw</title>
<ellipse fill="none" stroke="black" cx="297" cy="-593" rx="31.1127" ry="18.3848"/>
<text text-anchor="middle" x="297" y="-589.4" font-family="Times Roman,serif" font-size="14.00">otw</text>
</g>
<!-- livejournal&#45;&gt;otw -->
<g id="edge104" class="edge"><title>livejournal&#45;&gt;otw</title>
<path fill="none" stroke="black" d="M252.414,-878.956C263.315,-864.327 276,-842.652 276,-821 276,-821 276,-821 276,-669 276,-652.587 280.606,-634.877 285.504,-620.686"/>
<polygon fill="black" stroke="black" points="288.884,-621.636 289.061,-611.043 282.317,-619.214 288.884,-621.636"/>
</g>
<!-- wiscon -->
<g id="node17" class="node"><title>wiscon</title>
<ellipse fill="none" stroke="black" cx="415" cy="-897" rx="44.7575" ry="18.3848"/>
<text text-anchor="middle" x="415" y="-893.4" font-family="Times Roman,serif" font-size="14.00">wiscon</text>
</g>
<!-- racefail -->
<g id="node43" class="node"><title>racefail</title>
<polygon fill="none" stroke="black" points="1043,-536 977,-510 1043,-484 1109,-510 1043,-536"/>
<text text-anchor="middle" x="1043" y="-506.4" font-family="Times Roman,serif" font-size="14.00">racefail</text>
</g>
<!-- wiscon&#45;&gt;racefail -->
<g id="edge100" class="edge"><title>wiscon&#45;&gt;racefail</title>
<path fill="none" stroke="black" d="M460.015,-896.124C606.613,-892.234 1066.06,-871.52 1156,-764 1200.6,-710.679 1099.35,-691.994 1062,-612 1052.33,-591.291 1047.58,-566.053 1045.24,-545.864"/>
<polygon fill="black" stroke="black" points="1048.72,-545.415 1044.23,-535.817 1041.75,-546.117 1048.72,-545.415"/>
</g>
<!-- adacamp -->
<g id="node58" class="node"><title>adacamp</title>
<ellipse fill="none" stroke="black" cx="528" cy="-245" rx="53.9477" ry="18.3848"/>
<text text-anchor="middle" x="528" y="-241.4" font-family="Times Roman,serif" font-size="14.00">adacamp</text>
</g>
<!-- wiscon&#45;&gt;adacamp -->
<g id="edge62" class="edge"><title>wiscon&#45;&gt;adacamp</title>
<path fill="none" stroke="black" d="M400.417,-879.491C389.701,-864.823 377,-842.833 377,-821 377,-821 377,-821 377,-321 377,-279.022 424.138,-260.227 465.74,-251.814"/>
<polygon fill="black" stroke="black" points="466.417,-255.248 475.611,-249.984 465.141,-248.365 466.417,-255.248"/>
<text text-anchor="middle" x="421.5" y="-589.4" font-family="Times Roman,serif" font-size="14.00">a11y policies</text>
</g>
<!-- linuxconfau -->
<g id="node18" class="node"><title>linuxconfau</title>
<polygon fill="none" stroke="black" points="938,-915 842,-915 842,-879 938,-879 938,-915"/>
<text text-anchor="middle" x="890" y="-893.4" font-family="Times Roman,serif" font-size="14.00">linuxconfau</text>
</g>
<!-- haecksen -->
<g id="node34" class="node"><title>haecksen</title>
<ellipse fill="none" stroke="black" cx="478" cy="-669" rx="56.7776" ry="18.3848"/>
<text text-anchor="middle" x="478" y="-665.4" font-family="Times Roman,serif" font-size="14.00">haecksen</text>
</g>
<!-- linuxconfau&#45;&gt;haecksen -->
<g id="edge86" class="edge"><title>linuxconfau&#45;&gt;haecksen</title>
<path fill="none" stroke="black" d="M841.835,-895.595C749.257,-892.012 550.86,-879.786 497,-840 454.263,-808.43 458.353,-779.067 461,-726 461.445,-717.078 460.856,-714.672 463,-706 463.741,-703.002 464.679,-699.926 465.723,-696.891"/>
<polygon fill="black" stroke="black" points="469.019,-698.068 469.304,-687.477 462.477,-695.579 469.019,-698.068"/>
</g>
<!-- adainitiative -->
<g id="node53" class="node"><title>adainitiative</title>
<ellipse fill="none" stroke="black" cx="1156" cy="-321" rx="72.1249" ry="18.3848"/>
<text text-anchor="middle" x="1156" y="-317.4" font-family="Times Roman,serif" font-size="14.00">adainitiative</text>
</g>
<!-- linuxconfau&#45;&gt;adainitiative -->
<g id="edge36" class="edge"><title>linuxconfau&#45;&gt;adainitiative</title>
<path fill="none" stroke="black" d="M938.093,-891.956C1037.21,-880.911 1255,-852.999 1255,-821 1255,-821 1255,-821 1255,-593 1255,-522.265 1217.87,-512.585 1194,-446 1182.29,-413.347 1171.01,-375.099 1163.83,-349.593"/>
<polygon fill="black" stroke="black" points="1167.16,-348.514 1161.1,-339.824 1160.42,-350.397 1167.16,-348.514"/>
</g>
<!-- linuxchix -->
<g id="node20" class="node"><title>linuxchix</title>
<ellipse fill="none" stroke="black" cx="561" cy="-821" rx="55.1543" ry="18.3848"/>
<text text-anchor="middle" x="561" y="-817.4" font-family="Times Roman,serif" font-size="14.00">linuxchix</text>
</g>
<!-- debianwomen -->
<g id="node27" class="node"><title>debianwomen</title>
<ellipse fill="none" stroke="black" cx="561" cy="-745" rx="79.9031" ry="18.3848"/>
<text text-anchor="middle" x="561" y="-741.4" font-family="Times Roman,serif" font-size="14.00">debianwomen</text>
</g>
<!-- linuxchix&#45;&gt;debianwomen -->
<g id="edge72" class="edge"><title>linuxchix&#45;&gt;debianwomen</title>
<path fill="none" stroke="black" d="M561,-802.213C561,-793.654 561,-783.33 561,-773.822"/>
<polygon fill="black" stroke="black" points="564.5,-773.57 561,-763.57 557.5,-773.57 564.5,-773.57"/>
</g>
<!-- linuxchix&#45;&gt;haecksen -->
<g id="edge84" class="edge"><title>linuxchix&#45;&gt;haecksen</title>
<path fill="none" stroke="black" d="M523.583,-807.305C504.485,-798.183 483.008,-784.122 472,-764 460.856,-743.629 463.752,-717.001 468.634,-697.121"/>
<polygon fill="black" stroke="black" points="472.028,-697.98 471.304,-687.41 465.278,-696.124 472.028,-697.98"/>
</g>
<!-- geekfeminism -->
<g id="node38" class="node"><title>geekfeminism</title>
<ellipse fill="none" stroke="black" cx="1149" cy="-593" rx="77.9889" ry="18.3848"/>
<text text-anchor="middle" x="1149" y="-589.4" font-family="Times Roman,serif" font-size="14.00">geekfeminism</text>
</g>
<!-- linuxchix&#45;&gt;geekfeminism -->
<g id="edge28" class="edge"><title>linuxchix&#45;&gt;geekfeminism</title>
<path fill="none" stroke="black" d="M615.053,-817.418C753.593,-807.995 1111.8,-782.001 1130,-764 1167.46,-726.941 1162.32,-659.753 1155.49,-621.56"/>
<polygon fill="black" stroke="black" points="1158.9,-620.754 1153.56,-611.605 1152.03,-622.089 1158.9,-620.754"/>
</g>
<!-- sfruby -->
<g id="node21" class="node"><title>sfruby</title>
<ellipse fill="none" stroke="black" cx="1980" cy="-821" rx="41.2167" ry="18.3848"/>
<text text-anchor="middle" x="1980" y="-817.4" font-family="Times Roman,serif" font-size="14.00">sfruby</text>
</g>
<!-- railsbridge -->
<g id="node45" class="node"><title>railsbridge</title>
<ellipse fill="none" stroke="black" cx="2173" cy="-510" rx="62.2254" ry="18.3848"/>
<text text-anchor="middle" x="2173" y="-506.4" font-family="Times Roman,serif" font-size="14.00">railsbridge</text>
</g>
<!-- sfruby&#45;&gt;railsbridge -->
<g id="edge122" class="edge"><title>sfruby&#45;&gt;railsbridge</title>
<path fill="none" stroke="black" d="M1980,-802.26C1980,-786.878 1980,-764.528 1980,-745 1980,-745 1980,-745 1980,-593 1980,-577.614 2063.85,-546.451 2121.01,-526.994"/>
<polygon fill="black" stroke="black" points="2122.29,-530.256 2130.65,-523.74 2120.05,-523.624 2122.29,-530.256"/>
</g>
<!-- gsoc -->
<g id="node23" class="node"><title>gsoc</title>
<polygon fill="none" stroke="black" points="1460,-763 1406,-763 1406,-727 1460,-727 1460,-763"/>
<text text-anchor="middle" x="1433" y="-741.4" font-family="Times Roman,serif" font-size="14.00">gsoc</text>
</g>
<!-- opw -->
<g id="node24" class="node"><title>opw</title>
<ellipse fill="none" stroke="black" cx="1089" cy="-745" rx="32.0265" ry="18.3848"/>
<text text-anchor="middle" x="1089" y="-741.4" font-family="Times Roman,serif" font-size="14.00">opw</text>
</g>
<!-- gsoc&#45;&gt;opw -->
<g id="edge82" class="edge"><title>gsoc&#45;&gt;opw</title>
<path fill="none" stroke="black" d="M1405.9,-745C1314.36,-745 1222.81,-745 1131.26,-745"/>
<polygon fill="black" stroke="black" points="1131.25,-741.5 1121.25,-745 1131.25,-748.5 1131.25,-741.5"/>
</g>
<!-- rgsoc -->
<g id="node67" class="node"><title>rgsoc</title>
<ellipse fill="none" stroke="black" cx="1741" cy="-169" rx="36.7696" ry="18.3848"/>
<text text-anchor="middle" x="1741" y="-165.4" font-family="Times Roman,serif" font-size="14.00">rgsoc</text>
</g>
<!-- gsoc&#45;&gt;rgsoc -->
<g id="edge98" class="edge"><title>gsoc&#45;&gt;rgsoc</title>
<path fill="none" stroke="black" d="M1460.08,-740.504C1496.02,-732.81 1555,-713.418 1555,-669 1555,-669 1555,-669 1555,-245 1555,-214.541 1641.55,-190.272 1696.57,-177.922"/>
<polygon fill="black" stroke="black" points="1697.43,-181.316 1706.45,-175.756 1695.93,-174.479 1697.43,-181.316"/>
</g>
<!-- ubuntuwomen -->
<g id="node25" class="node"><title>ubuntuwomen</title>
<ellipse fill="none" stroke="black" cx="760" cy="-745" rx="82.939" ry="18.3848"/>
<text text-anchor="middle" x="760" y="-741.4" font-family="Times Roman,serif" font-size="14.00">ubuntuwomen</text>
</g>
<!-- gnomewomen -->
<g id="node26" class="node"><title>gnomewomen</title>
<ellipse fill="none" stroke="black" cx="941" cy="-745" rx="80.1095" ry="18.3848"/>
<text text-anchor="middle" x="941" y="-741.4" font-family="Times Roman,serif" font-size="14.00">gnomewomen</text>
</g>
<!-- gnomewomen&#45;&gt;opw -->
<g id="edge80" class="edge"><title>gnomewomen&#45;&gt;opw</title>
<path fill="none" stroke="black" d="M1021.07,-745C1029.65,-745 1038.24,-745 1046.82,-745"/>
<polygon fill="black" stroke="black" points="1046.89,-748.5 1056.89,-745 1046.89,-741.5 1046.89,-748.5"/>
</g>
<!-- debianwomen&#45;&gt;ubuntuwomen -->
<g id="edge74" class="edge"><title>debianwomen&#45;&gt;ubuntuwomen</title>
<path fill="none" stroke="black" d="M641.066,-745C649.637,-745 658.208,-745 666.778,-745"/>
<polygon fill="black" stroke="black" points="666.839,-748.5 676.839,-745 666.839,-741.5 666.839,-748.5"/>
</g>
<!-- debianwomen&#45;&gt;gnomewomen -->
<g id="edge76" class="edge"><title>debianwomen&#45;&gt;gnomewomen</title>
<path fill="none" stroke="black" d="M599.96,-761.189C622.119,-769.52 650.632,-778.791 677,-783 749.855,-794.629 770.481,-796.568 843,-783 861.443,-779.55 880.88,-772.741 897.537,-765.828"/>
<polygon fill="black" stroke="black" points="899.185,-768.93 906.995,-761.77 896.425,-762.497 899.185,-768.93"/>
</g>
<!-- girlgeekdinners -->
<g id="node28" class="node"><title>girlgeekdinners</title>
<polygon fill="none" stroke="black" points="2438,-763 2316,-763 2316,-727 2438,-727 2438,-763"/>
<text text-anchor="middle" x="2377" y="-741.4" font-family="Times Roman,serif" font-size="14.00">girlgeekdinners</text>
</g>
<!-- blogher -->
<g id="node29" class="node"><title>blogher</title>
<ellipse fill="none" stroke="black" cx="2504" cy="-745" rx="48.0833" ry="18.3848"/>
<text text-anchor="middle" x="2504" y="-741.4" font-family="Times Roman,serif" font-size="14.00">blogher</text>
</g>
<!-- speakerswiki -->
<g id="node30" class="node"><title>speakerswiki</title>
<ellipse fill="none" stroke="black" cx="2662" cy="-745" rx="74.2462" ry="18.3848"/>
<text text-anchor="middle" x="2662" y="-741.4" font-family="Times Roman,serif" font-size="14.00">speakerswiki</text>
</g>
<!-- blogher&#45;&gt;speakerswiki -->
<g id="edge114" class="edge"><title>blogher&#45;&gt;speakerswiki</title>
<path fill="none" stroke="black" d="M2552.14,-745C2560.67,-745 2569.21,-745 2577.74,-745"/>
<polygon fill="black" stroke="black" points="2577.76,-748.5 2587.76,-745 2577.76,-741.5 2577.76,-748.5"/>
</g>
<!-- railsconf2005 -->
<g id="node31" class="node"><title>railsconf2005</title>
<ellipse fill="none" stroke="black" cx="2086" cy="-745" rx="77.7817" ry="18.3848"/>
<text text-anchor="middle" x="2086" y="-741.4" font-family="Times Roman,serif" font-size="14.00">railsconf2005</text>
</g>
<!-- devchix -->
<g id="node32" class="node"><title>devchix</title>
<ellipse fill="none" stroke="black" cx="2249" cy="-745" rx="48.7904" ry="18.3848"/>
<text text-anchor="middle" x="2249" y="-741.4" font-family="Times Roman,serif" font-size="14.00">devchix</text>
</g>
<!-- railsconf2005&#45;&gt;devchix -->
<g id="edge118" class="edge"><title>railsconf2005&#45;&gt;devchix</title>
<path fill="none" stroke="black" d="M2164.32,-745C2172.7,-745 2181.09,-745 2189.48,-745"/>
<polygon fill="black" stroke="black" points="2189.71,-748.5 2199.71,-745 2189.71,-741.5 2189.71,-748.5"/>
</g>
<!-- devchix&#45;&gt;railsbridge -->
<g id="edge120" class="edge"><title>devchix&#45;&gt;railsbridge</title>
<path fill="none" stroke="black" d="M2243.04,-726.56C2229.81,-685.648 2197.92,-587.058 2182.15,-538.291"/>
<polygon fill="black" stroke="black" points="2185.45,-537.117 2179.04,-528.68 2178.79,-539.271 2185.45,-537.117"/>
</g>
<!-- owoot -->
<g id="node55" class="node"><title>owoot</title>
<ellipse fill="none" stroke="black" cx="666" cy="-321" rx="41.9273" ry="18.3848"/>
<text text-anchor="middle" x="666" y="-317.4" font-family="Times Roman,serif" font-size="14.00">owoot</text>
</g>
<!-- haecksen&#45;&gt;owoot -->
<g id="edge78" class="edge"><title>haecksen&#45;&gt;owoot</title>
<path fill="none" stroke="black" d="M526.904,-659.273C582.608,-646.759 666,-623.012 666,-593 666,-593 666,-593 666,-420 666,-396.362 666,-369.549 666,-349.795"/>
<polygon fill="black" stroke="black" points="669.5,-349.611 666,-339.611 662.5,-349.611 669.5,-349.611"/>
</g>
<!-- haecksen&#45;&gt;adacamp -->
<g id="edge88" class="edge"><title>haecksen&#45;&gt;adacamp</title>
<path fill="none" stroke="black" d="M484.14,-650.489C488.652,-635.239 494,-612.956 494,-593 494,-593 494,-593 494,-321 494,-303.57 501.544,-285.697 509.525,-271.667"/>
<polygon fill="black" stroke="black" points="512.561,-273.41 514.757,-263.045 506.577,-269.778 512.561,-273.41"/>
</g>
<!-- shesgeeky -->
<g id="node35" class="node"><title>shesgeeky</title>
<ellipse fill="none" stroke="black" cx="2662" cy="-669" rx="62.2254" ry="18.3848"/>
<text text-anchor="middle" x="2662" y="-665.4" font-family="Times Roman,serif" font-size="14.00">shesgeeky</text>
</g>
<!-- shesgeeky&#45;&gt;speakerswiki -->
<g id="edge116" class="edge"><title>shesgeeky&#45;&gt;speakerswiki</title>
<path fill="none" stroke="black" d="M2662,-687.57C2662,-696.1 2662,-706.415 2662,-715.938"/>
<polygon fill="black" stroke="black" points="2658.5,-716.213 2662,-726.213 2665.5,-716.214 2658.5,-716.213"/>
</g>
<!-- SFF CAHP -->
<g id="node37" class="node"><title>SFF CAHP</title>
<ellipse fill="none" stroke="black" cx="1806" cy="-593" rx="60.8112" ry="18.3848"/>
<text text-anchor="middle" x="1806" y="-589.4" font-family="Times Roman,serif" font-size="14.00">SFF CAHP</text>
</g>
<!-- backupproject -->
<g id="node47" class="node"><title>backupproject</title>
<ellipse fill="none" stroke="black" cx="1832" cy="-510" rx="79.196" ry="18.3848"/>
<text text-anchor="middle" x="1832" y="-506.4" font-family="Times Roman,serif" font-size="14.00">backupproject</text>
</g>
<!-- SFF CAHP&#45;&gt;backupproject -->
<g id="edge48" class="edge"><title>SFF CAHP&#45;&gt;backupproject</title>
<path fill="none" stroke="black" d="M1811.77,-574.58C1815.11,-563.909 1819.39,-550.252 1823.15,-538.249"/>
<polygon fill="black" stroke="black" points="1826.51,-539.245 1826.16,-528.656 1819.83,-537.152 1826.51,-539.245"/>
</g>
<!-- GF/TAI AHP -->
<g id="node54" class="node"><title>GF/TAI AHP</title>
<ellipse fill="none" stroke="black" cx="1416" cy="-321" rx="67.8823" ry="18.3848"/>
<text text-anchor="middle" x="1416" y="-317.4" font-family="Times Roman,serif" font-size="14.00">GF/TAI AHP</text>
</g>
<!-- SFF CAHP&#45;&gt;GF/TAI AHP -->
<g id="edge44" class="edge"><title>SFF CAHP&#45;&gt;GF/TAI AHP</title>
<path fill="none" stroke="black" d="M1747.86,-587.248C1706.4,-580.626 1651.27,-566.42 1612,-536 1582.53,-513.174 1589.33,-495.237 1569,-464 1537.51,-415.635 1538.18,-395.133 1494,-358 1485.83,-351.13 1476.16,-345.219 1466.47,-340.264"/>
<polygon fill="black" stroke="black" points="1467.75,-336.993 1457.22,-335.807 1464.71,-343.3 1467.75,-336.993"/>
</g>
<!-- geekfeminism&#45;&gt;adainitiative -->
<g id="edge34" class="edge"><title>geekfeminism&#45;&gt;adainitiative</title>
<path fill="none" stroke="black" d="M1149.48,-574.304C1150.68,-527.72 1153.81,-406.201 1155.25,-350.127"/>
<polygon fill="black" stroke="black" points="1158.76,-349.913 1155.52,-339.826 1151.76,-349.733 1158.76,-349.913"/>
</g>
<!-- geekfeminism&#45;&gt;GF/TAI AHP -->
<g id="edge40" class="edge"><title>geekfeminism&#45;&gt;GF/TAI AHP</title>
<path fill="none" stroke="black" d="M1220.87,-585.736C1303.74,-573.083 1436.45,-538.705 1498,-446 1510.78,-426.746 1507.46,-415.086 1498,-394 1488.83,-373.564 1470.8,-356.507 1453.98,-344.034"/>
<polygon fill="black" stroke="black" points="1455.53,-340.845 1445.34,-337.935 1451.49,-346.563 1455.53,-340.845"/>
</g>
<!-- oscon2009 -->
<g id="node42" class="node"><title>oscon2009</title>
<ellipse fill="none" stroke="black" cx="284" cy="-510" rx="65.0538" ry="18.3848"/>
<text text-anchor="middle" x="284" y="-506.4" font-family="Times Roman,serif" font-size="14.00">oscon2009</text>
</g>
<!-- dreamwidth&#45;&gt;oscon2009 -->
<g id="edge106" class="edge"><title>dreamwidth&#45;&gt;oscon2009</title>
<path fill="none" stroke="black" d="M200.48,-575.398C215.939,-563.293 236.653,-547.074 253.584,-533.816"/>
<polygon fill="black" stroke="black" points="255.837,-536.498 261.553,-527.577 251.521,-530.986 255.837,-536.498"/>
</g>
<!-- otw&#45;&gt;oscon2009 -->
<g id="edge108" class="edge"><title>otw&#45;&gt;oscon2009</title>
<path fill="none" stroke="black" d="M294.115,-574.58C292.46,-564.015 290.347,-550.525 288.481,-538.609"/>
<polygon fill="black" stroke="black" points="291.927,-537.994 286.922,-528.656 285.012,-539.077 291.927,-537.994"/>
</g>
<!-- oscon2009&#45;&gt;geekfeminism -->
<g id="edge110" class="edge"><title>oscon2009&#45;&gt;geekfeminism</title>
<path fill="none" stroke="black" d="M344.227,-517.232C390.385,-522.679 455.677,-530.178 513,-536 710.656,-556.075 943.257,-575.977 1065.01,-586.11"/>
<polygon fill="black" stroke="black" points="1064.76,-589.601 1075.01,-586.941 1065.34,-582.625 1064.76,-589.601"/>
</g>
<!-- racefail&#45;&gt;geekfeminism -->
<g id="edge30" class="edge"><title>racefail&#45;&gt;geekfeminism</title>
<path fill="none" stroke="black" d="M1065.34,-527.491C1080.72,-539.537 1101.36,-555.696 1118.29,-568.951"/>
<polygon fill="black" stroke="black" points="1116.23,-571.785 1126.26,-575.194 1120.54,-566.274 1116.23,-571.785"/>
</g>
<!-- couchdb -->
<g id="node44" class="node"><title>couchdb</title>
<polygon fill="none" stroke="black" points="2002,-536 1929,-510 2002,-484 2075,-510 2002,-536"/>
<text text-anchor="middle" x="2002" y="-506.4" font-family="Times Roman,serif" font-size="14.00">couchdb</text>
</g>
<!-- couchdb&#45;&gt;railsbridge -->
<g id="edge90" class="edge"><title>couchdb&#45;&gt;railsbridge</title>
<path fill="none" stroke="black" d="M2075.14,-510C2083.57,-510 2091.99,-510 2100.42,-510"/>
<polygon fill="black" stroke="black" points="2100.69,-513.5 2110.69,-510 2100.69,-506.5 2100.69,-513.5"/>
</g>
<!-- railsgirls -->
<g id="node59" class="node"><title>railsgirls</title>
<ellipse fill="none" stroke="black" cx="2111" cy="-245" rx="51.8276" ry="18.3848"/>
<text text-anchor="middle" x="2111" y="-241.4" font-family="Times Roman,serif" font-size="14.00">railsgirls</text>
</g>
<!-- railsbridge&#45;&gt;railsgirls -->
<g id="edge94" class="edge"><title>railsbridge&#45;&gt;railsgirls</title>
<path fill="none" stroke="black" d="M2170.64,-491.386C2167.57,-468.364 2161.67,-428.043 2154,-394 2144.42,-351.474 2129.76,-303.139 2120.27,-273.354"/>
<polygon fill="black" stroke="black" points="2123.54,-272.083 2117.15,-263.632 2116.88,-274.223 2123.54,-272.083"/>
</g>
<!-- pystar -->
<g id="node111" class="node"><title>pystar</title>
<ellipse fill="none" stroke="black" cx="2103" cy="-420" rx="41.9273" ry="18.3848"/>
<text text-anchor="middle" x="2103" y="-416.4" font-family="Times Roman,serif" font-size="14.00">pystar</text>
</g>
<!-- railsbridge&#45;&gt;pystar -->
<g id="edge92" class="edge"><title>railsbridge&#45;&gt;pystar</title>
<path fill="none" stroke="black" d="M2158.83,-491.787C2148.55,-478.563 2134.49,-460.485 2123.05,-445.78"/>
<polygon fill="black" stroke="black" points="2125.57,-443.318 2116.67,-437.573 2120.04,-447.616 2125.57,-443.318"/>
</g>
<!-- osbp -->
<g id="node46" class="node"><title>osbp</title>
<polygon fill="none" stroke="black" points="1669,-536 1621,-510 1669,-484 1717,-510 1669,-536"/>
<text text-anchor="middle" x="1669" y="-506.4" font-family="Times Roman,serif" font-size="14.00">osbp</text>
</g>
<!-- osbp&#45;&gt;backupproject -->
<g id="edge46" class="edge"><title>osbp&#45;&gt;backupproject</title>
<path fill="none" stroke="black" d="M1717.07,-510C1725.68,-510 1734.28,-510 1742.89,-510"/>
<polygon fill="black" stroke="black" points="1742.99,-513.5 1752.99,-510 1742.99,-506.5 1742.99,-513.5"/>
</g>
<!-- backupribbons -->
<g id="node51" class="node"><title>backupribbons</title>
<ellipse fill="none" stroke="black" cx="1832" cy="-420" rx="80.8184" ry="18.3848"/>
<text text-anchor="middle" x="1832" y="-416.4" font-family="Times Roman,serif" font-size="14.00">backupribbons</text>
</g>
<!-- backupproject&#45;&gt;backupribbons -->
<g id="edge50" class="edge"><title>backupproject&#45;&gt;backupribbons</title>
<path fill="none" stroke="black" d="M1832,-491.352C1832,-479.043 1832,-462.673 1832,-448.718"/>
<polygon fill="black" stroke="black" points="1835.5,-448.624 1832,-438.624 1828.5,-448.624 1835.5,-448.624"/>
</g>
<!-- osbridge -->
<g id="node48" class="node"><title>osbridge</title>
<ellipse fill="none" stroke="black" cx="574" cy="-510" rx="51.8276" ry="18.3848"/>
<text text-anchor="middle" x="574" y="-506.4" font-family="Times Roman,serif" font-size="14.00">osbridge</text>
</g>
<!-- apachecon assault -->
<g id="node50" class="node"><title>apachecon assault</title>
<polygon fill="none" stroke="black" points="1346,-446 1203,-420 1346,-394 1489,-420 1346,-446"/>
<text text-anchor="middle" x="1346" y="-416.4" font-family="Times Roman,serif" font-size="14.00">apachecon assault</text>
</g>
<!-- apachecon assault&#45;&gt;adainitiative -->
<g id="edge32" class="edge"><title>apachecon assault&#45;&gt;adainitiative</title>
<path fill="none" stroke="black" d="M1308.92,-400.677C1276.73,-383.909 1230.22,-359.67 1196.95,-342.337"/>
<polygon fill="black" stroke="black" points="1198.43,-339.16 1187.94,-337.643 1195.19,-345.368 1198.43,-339.16"/>
</g>
<!-- apachecon assault&#45;&gt;GF/TAI AHP -->
<g id="edge38" class="edge"><title>apachecon assault&#45;&gt;GF/TAI AHP</title>
<path fill="none" stroke="black" d="M1362.41,-396.789C1372.75,-382.17 1386.13,-363.241 1396.94,-347.958"/>
<polygon fill="black" stroke="black" points="1400.05,-349.626 1402.96,-339.441 1394.33,-345.585 1400.05,-349.626"/>
</g>
<!-- adainitiative&#45;&gt;GF/TAI AHP -->
<g id="edge42" class="edge"><title>adainitiative&#45;&gt;GF/TAI AHP</title>
<path fill="none" stroke="black" d="M1228.11,-321C1264.56,-321 1301.01,-321 1337.46,-321"/>
<polygon fill="black" stroke="black" points="1337.74,-324.5 1347.74,-321 1337.74,-317.5 1337.74,-324.5"/>
</g>
<!-- adainitiative&#45;&gt;adacamp -->
<g id="edge60" class="edge"><title>adainitiative&#45;&gt;adacamp</title>
<path fill="none" stroke="black" d="M1084.44,-318.192C976.56,-312.97 766.244,-298.927 591,-264 586.277,-263.059 581.401,-261.912 576.551,-260.653"/>
<polygon fill="black" stroke="black" points="577.258,-257.218 566.688,-257.942 575.402,-263.968 577.258,-257.218"/>
</g>
<!-- Skeptic AHPs -->
<g id="node60" class="node"><title>Skeptic AHPs</title>
<ellipse fill="none" stroke="black" cx="1256" cy="-245" rx="75.1594" ry="18.3848"/>
<text text-anchor="middle" x="1256" y="-241.4" font-family="Times Roman,serif" font-size="14.00">Skeptic AHPs</text>
</g>
<!-- GF/TAI AHP&#45;&gt;Skeptic AHPs -->
<g id="edge54" class="edge"><title>GF/TAI AHP&#45;&gt;Skeptic AHPs</title>
<path fill="none" stroke="black" d="M1382.07,-304.882C1358.13,-293.512 1325.85,-278.176 1299.94,-265.871"/>
<polygon fill="black" stroke="black" points="1301.25,-262.617 1290.71,-261.488 1298.24,-268.94 1301.25,-262.617"/>
</g>
<!-- PyCon AHP -->
<g id="node61" class="node"><title>PyCon AHP</title>
<ellipse fill="none" stroke="black" cx="1416" cy="-245" rx="67.1751" ry="18.3848"/>
<text text-anchor="middle" x="1416" y="-241.4" font-family="Times Roman,serif" font-size="14.00">PyCon AHP</text>
</g>
<!-- GF/TAI AHP&#45;&gt;PyCon AHP -->
<g id="edge52" class="edge"><title>GF/TAI AHP&#45;&gt;PyCon AHP</title>
<path fill="none" stroke="black" d="M1416,-302.213C1416,-293.654 1416,-283.33 1416,-273.822"/>
<polygon fill="black" stroke="black" points="1419.5,-273.57 1416,-263.57 1412.5,-273.57 1419.5,-273.57"/>
</g>
<!-- Scalzi&#39;s AHP pledge -->
<g id="node69" class="node"><title>Scalzi&#39;s AHP pledge</title>
<ellipse fill="none" stroke="black" cx="1519" cy="-169" rx="104.86" ry="18.3848"/>
<text text-anchor="middle" x="1519" y="-165.4" font-family="Times Roman,serif" font-size="14.00">Scalzi&#39;s AHP pledge</text>
</g>
<!-- GF/TAI AHP&#45;&gt;Scalzi&#39;s AHP pledge -->
<g id="edge58" class="edge"><title>GF/TAI AHP&#45;&gt;Scalzi&#39;s AHP pledge</title>
<path fill="none" stroke="black" d="M1446.92,-304.369C1462.52,-294.531 1480.51,-280.719 1492,-264 1505.58,-244.236 1512.38,-217.711 1515.76,-197.713"/>
<polygon fill="black" stroke="black" points="1519.25,-198.047 1517.26,-187.639 1512.32,-197.011 1519.25,-198.047"/>
<text text-anchor="middle" x="1514" y="-241.4" font-family="Times Roman,serif" font-size="14.00">?</text>
</g>
<!-- #CoCPledge -->
<g id="node74" class="node"><title>#CoCPledge</title>
<ellipse fill="none" stroke="black" cx="1153" cy="-93" rx="72.1249" ry="18.3848"/>
<text text-anchor="middle" x="1153" y="-89.4" font-family="Times Roman,serif" font-size="14.00">#CoCPledge</text>
</g>
<!-- GF/TAI AHP&#45;&gt;#CoCPledge -->
<g id="edge56" class="edge"><title>GF/TAI AHP&#45;&gt;#CoCPledge</title>
<path fill="none" stroke="black" d="M1352.41,-314.432C1288.3,-306.421 1195.57,-290.555 1172,-264 1137.35,-224.964 1141.15,-159.541 1147.05,-121.945"/>
<polygon fill="black" stroke="black" points="1150.58,-122.127 1148.83,-111.677 1143.68,-120.935 1150.58,-122.127"/>
</g>
<!-- blackgirlscode -->
<g id="node56" class="node"><title>blackgirlscode</title>
<ellipse fill="none" stroke="black" cx="2280" cy="-321" rx="79.196" ry="18.3848"/>
<text text-anchor="middle" x="2280" y="-317.4" font-family="Times Roman,serif" font-size="14.00">blackgirlscode</text>
</g>
<!-- adacamp&#45;&gt;osbridge -->
<g id="edge64" class="edge"><title>adacamp&#45;&gt;osbridge</title>
<path fill="none" stroke="black" d="M531.231,-263.614C539.145,-309.207 559.544,-426.721 569.022,-481.324"/>
<polygon fill="black" stroke="black" points="565.607,-482.112 570.765,-491.366 572.503,-480.914 565.607,-482.112"/>
<text text-anchor="middle" x="595.5" y="-363.4" font-family="Times Roman,serif" font-size="14.00">a11y policies</text>
</g>
<!-- doubleunion -->
<g id="node66" class="node"><title>doubleunion</title>
<ellipse fill="none" stroke="black" cx="678" cy="-169" rx="70.9184" ry="18.3848"/>
<text text-anchor="middle" x="678" y="-165.4" font-family="Times Roman,serif" font-size="14.00">doubleunion</text>
</g>
<!-- adacamp&#45;&gt;doubleunion -->
<g id="edge66" class="edge"><title>adacamp&#45;&gt;doubleunion</title>
<path fill="none" stroke="black" d="M558.355,-229.62C580.748,-218.274 611.489,-202.699 636.204,-190.177"/>
<polygon fill="black" stroke="black" points="638.013,-193.184 645.351,-185.542 634.849,-186.94 638.013,-193.184"/>
</g>
<!-- railsgirls&#45;&gt;rgsoc -->
<g id="edge96" class="edge"><title>railsgirls&#45;&gt;rgsoc</title>
<path fill="none" stroke="black" d="M2061.11,-239.642C1996.82,-231.964 1882.02,-215.623 1787,-188 1784.03,-187.135 1780.98,-186.14 1777.95,-185.069"/>
<polygon fill="black" stroke="black" points="1778.97,-181.714 1768.38,-181.449 1776.5,-188.261 1778.97,-181.714"/>
</g>
<!-- Feminist Frequency vids -->
<g id="node62" class="node"><title>Feminist Frequency vids</title>
<ellipse fill="none" stroke="black" cx="2309" cy="-245" rx="127.986" ry="18.3848"/>
<text text-anchor="middle" x="2309" y="-241.4" font-family="Times Roman,serif" font-size="14.00">Feminist Frequency vids</text>
</g>
<!-- transcodesf -->
<g id="node63" class="node"><title>transcodesf</title>
<ellipse fill="none" stroke="black" cx="2522" cy="-245" rx="67.1751" ry="18.3848"/>
<text text-anchor="middle" x="2522" y="-241.4" font-family="Times Roman,serif" font-size="14.00">transcodesf</text>
</g>
<!-- seattleattic -->
<g id="node65" class="node"><title>seattleattic</title>
<ellipse fill="none" stroke="black" cx="323" cy="-169" rx="67.1751" ry="18.3848"/>
<text text-anchor="middle" x="323" y="-165.4" font-family="Times Roman,serif" font-size="14.00">seattleattic</text>
</g>
<!-- seattleattic&#45;&gt;doubleunion -->
<g id="edge70" class="edge"><title>seattleattic&#45;&gt;doubleunion</title>
<path fill="none" stroke="black" d="M390.256,-169C459.088,-169 527.92,-169 596.751,-169"/>
<polygon fill="black" stroke="black" points="596.907,-172.5 606.907,-169 596.907,-165.5 596.907,-172.5"/>
</g>
<!-- callbackwomen -->
<g id="node68" class="node"><title>callbackwomen</title>
<ellipse fill="none" stroke="black" cx="1882" cy="-169" rx="85.7684" ry="18.3848"/>
<text text-anchor="middle" x="1882" y="-165.4" font-family="Times Roman,serif" font-size="14.00">callbackwomen</text>
</g>
<!-- transh4ck -->
<g id="node70" class="node"><title>transh4ck</title>
<ellipse fill="none" stroke="black" cx="2047" cy="-169" rx="60.8112" ry="18.3848"/>
<text text-anchor="middle" x="2047" y="-165.4" font-family="Times Roman,serif" font-size="14.00">transh4ck</text>
</g>
<!-- transtech -->
<g id="node71" class="node"><title>transtech</title>
<ellipse fill="none" stroke="black" cx="2202" cy="-169" rx="58.1882" ry="18.3848"/>
<text text-anchor="middle" x="2202" y="-165.4" font-family="Times Roman,serif" font-size="14.00">transtech</text>
</g>
<!-- transh4ck&#45;&gt;transtech -->
<g id="edge112" class="edge"><title>transh4ck&#45;&gt;transtech</title>
<path fill="none" stroke="black" d="M2108.15,-169C2116.67,-169 2125.19,-169 2133.71,-169"/>
<polygon fill="black" stroke="black" points="2133.71,-172.5 2143.71,-169 2133.71,-165.5 2133.71,-172.5"/>
</g>
<!-- mvc -->
<g id="node73" class="node"><title>mvc</title>
<ellipse fill="none" stroke="black" cx="1274" cy="-93" rx="31.1127" ry="18.3848"/>
<text text-anchor="middle" x="1274" y="-89.4" font-family="Times Roman,serif" font-size="14.00">mvc</text>
</g>
<!-- mothershiphackermoms -->
<g id="node97" class="node"><title>mothershiphackermoms</title>
<ellipse fill="none" stroke="black" cx="728" cy="-245" rx="127.986" ry="18.3848"/>
<text text-anchor="middle" x="728" y="-241.4" font-family="Times Roman,serif" font-size="14.00">mothershiphackermoms</text>
</g>
<!-- mothershiphackermoms&#45;&gt;doubleunion -->
<g id="edge68" class="edge"><title>mothershiphackermoms&#45;&gt;doubleunion</title>
<path fill="none" stroke="black" d="M715.64,-226.213C709.601,-217.034 702.227,-205.825 695.611,-195.769"/>
<polygon fill="black" stroke="black" points="698.465,-193.739 690.045,-187.308 692.617,-197.586 698.465,-193.739"/>
</g>
</g>
</svg>
