<?xml version="1.0" encoding="UTF-8" standalone="no"?>
<!DOCTYPE svg PUBLIC "-//W3C//DTD SVG 1.1//EN"
 "http://www.w3.org/Graphics/SVG/1.1/DTD/svg11.dtd">
<!-- Generated by graphviz version 2.34.0 (20140110.0949)
 -->
<!-- Title: G Pages: 1 -->
<svg width="754pt" height="536pt"
 viewBox="0.00 0.00 754.00 536.00" xmlns="http://www.w3.org/2000/svg" xmlns:xlink="http://www.w3.org/1999/xlink">
<g id="graph0" class="graph" transform="scale(1 1) rotate(0) translate(4 532)">
<title>G</title>
<polygon fill="white" stroke="white" points="-4,4 -4,-532 750,-532 750,4 -4,4"/>
<!-- linuxchix -->
<g id="node1" class="node"><title>linuxchix</title>
<ellipse fill="none" stroke="black" cx="406" cy="-362" rx="44.2946" ry="18"/>
<text text-anchor="middle" x="406" y="-358.3" font-family="Times,serif" font-size="14.00">linuxchix</text>
</g>
<!-- geekfeminism -->
<g id="node2" class="node"><title>geekfeminism</title>
<ellipse fill="none" stroke="black" cx="162" cy="-288" rx="61.6163" ry="18"/>
<text text-anchor="middle" x="162" y="-284.3" font-family="Times,serif" font-size="14.00">geekfeminism</text>
</g>
<!-- linuxchix&#45;&gt;geekfeminism -->
<g id="edge1" class="edge"><title>linuxchix&#45;&gt;geekfeminism</title>
<path fill="none" stroke="black" d="M371.3,-350.761C330.151,-338.618 261.176,-318.265 213.725,-304.263"/>
<polygon fill="black" stroke="black" points="214.525,-300.85 203.943,-301.377 212.544,-307.564 214.525,-300.85"/>
</g>
<!-- debianwomen -->
<g id="node11" class="node"><title>debianwomen</title>
<ellipse fill="none" stroke="black" cx="494" cy="-288" rx="60.1672" ry="18"/>
<text text-anchor="middle" x="494" y="-284.3" font-family="Times,serif" font-size="14.00">debianwomen</text>
</g>
<!-- linuxchix&#45;&gt;debianwomen -->
<g id="edge10" class="edge"><title>linuxchix&#45;&gt;debianwomen</title>
<path fill="none" stroke="black" d="M425.095,-345.377C437.151,-335.513 452.927,-322.605 466.341,-311.63"/>
<polygon fill="black" stroke="black" points="468.81,-314.132 474.333,-305.091 464.377,-308.715 468.81,-314.132"/>
</g>
<!-- haecksen -->
<g id="node14" class="node"><title>haecksen</title>
<ellipse fill="none" stroke="black" cx="393" cy="-234" rx="42.3456" ry="18"/>
<text text-anchor="middle" x="393" y="-230.3" font-family="Times,serif" font-size="14.00">haecksen</text>
</g>
<!-- linuxchix&#45;&gt;haecksen -->
<g id="edge13" class="edge"><title>linuxchix&#45;&gt;haecksen</title>
<path fill="none" stroke="black" d="M404.247,-344.007C402.085,-323.059 398.385,-287.189 395.821,-262.346"/>
<polygon fill="black" stroke="black" points="399.275,-261.714 394.767,-252.126 392.312,-262.433 399.275,-261.714"/>
</g>
<!-- adainitiative -->
<g id="node5" class="node"><title>adainitiative</title>
<ellipse fill="none" stroke="black" cx="249" cy="-180" rx="53.4184" ry="18"/>
<text text-anchor="middle" x="249" y="-176.3" font-family="Times,serif" font-size="14.00">adainitiative</text>
</g>
<!-- geekfeminism&#45;&gt;adainitiative -->
<g id="edge4" class="edge"><title>geekfeminism&#45;&gt;adainitiative</title>
<path fill="none" stroke="black" d="M175.594,-270.438C189.959,-252.935 212.758,-225.157 229.136,-205.202"/>
<polygon fill="black" stroke="black" points="231.863,-207.397 235.502,-197.446 226.452,-202.956 231.863,-207.397"/>
</g>
<!-- racefail -->
<g id="node3" class="node"><title>racefail</title>
<polygon fill="none" stroke="black" points="89,-380 36.9114,-362 89,-344 141.089,-362 89,-380"/>
<text text-anchor="middle" x="89" y="-358.3" font-family="Times,serif" font-size="14.00">racefail</text>
</g>
<!-- racefail&#45;&gt;geekfeminism -->
<g id="edge2" class="edge"><title>racefail&#45;&gt;geekfeminism</title>
<path fill="none" stroke="black" d="M102.051,-348.128C112.036,-338.28 126.08,-324.428 138.066,-312.606"/>
<polygon fill="black" stroke="black" points="140.546,-315.076 145.208,-305.562 135.63,-310.092 140.546,-315.076"/>
</g>
<!-- apachecon -->
<g id="node4" class="node"><title>apachecon</title>
<polygon fill="none" stroke="black" points="310,-306 241.974,-288 310,-270 378.026,-288 310,-306"/>
<text text-anchor="middle" x="310" y="-284.3" font-family="Times,serif" font-size="14.00">apachecon</text>
</g>
<!-- apachecon&#45;&gt;adainitiative -->
<g id="edge3" class="edge"><title>apachecon&#45;&gt;adainitiative</title>
<path fill="none" stroke="black" d="M301.26,-271.813C291.49,-254.835 275.503,-227.055 263.781,-206.684"/>
<polygon fill="black" stroke="black" points="266.753,-204.833 258.732,-197.911 260.686,-208.324 266.753,-204.833"/>
</g>
<!-- adacamp -->
<g id="node6" class="node"><title>adacamp</title>
<ellipse fill="none" stroke="black" cx="249" cy="-106" rx="42.3701" ry="18"/>
<text text-anchor="middle" x="249" y="-102.3" font-family="Times,serif" font-size="14.00">adacamp</text>
</g>
<!-- adainitiative&#45;&gt;adacamp -->
<g id="edge5" class="edge"><title>adainitiative&#45;&gt;adacamp</title>
<path fill="none" stroke="black" d="M249,-161.937C249,-153.807 249,-143.876 249,-134.705"/>
<polygon fill="black" stroke="black" points="252.5,-134.441 249,-124.441 245.5,-134.441 252.5,-134.441"/>
</g>
<!-- osbridge -->
<g id="node8" class="node"><title>osbridge</title>
<ellipse fill="none" stroke="black" cx="249" cy="-18" rx="40.4202" ry="18"/>
<text text-anchor="middle" x="249" y="-14.3" font-family="Times,serif" font-size="14.00">osbridge</text>
</g>
<!-- adacamp&#45;&gt;osbridge -->
<g id="edge7" class="edge"><title>adacamp&#45;&gt;osbridge</title>
<path fill="none" stroke="black" d="M249,-87.5966C249,-75.7459 249,-59.8169 249,-46.2917"/>
<polygon fill="black" stroke="black" points="252.5,-46.084 249,-36.084 245.5,-46.084 252.5,-46.084"/>
<text text-anchor="middle" x="285.5" y="-58.3" font-family="Times,serif" font-size="14.00">a11y policies</text>
</g>
<!-- doubleunion -->
<g id="node9" class="node"><title>doubleunion</title>
<ellipse fill="none" stroke="black" cx="378" cy="-18" rx="54.3924" ry="18"/>
<text text-anchor="middle" x="378" y="-14.3" font-family="Times,serif" font-size="14.00">doubleunion</text>
</g>
<!-- adacamp&#45;&gt;doubleunion -->
<g id="edge8" class="edge"><title>adacamp&#45;&gt;doubleunion</title>
<path fill="none" stroke="black" d="M280.295,-93.6903C294.826,-87.7237 311.953,-79.6343 326,-70 337.08,-62.401 347.92,-52.3246 356.811,-43.1363"/>
<polygon fill="black" stroke="black" points="359.496,-45.3896 363.783,-35.7008 354.39,-40.6014 359.496,-45.3896"/>
</g>
<!-- wiscon -->
<g id="node7" class="node"><title>wiscon</title>
<ellipse fill="none" stroke="black" cx="35" cy="-436" rx="35.6194" ry="18"/>
<text text-anchor="middle" x="35" y="-432.3" font-family="Times,serif" font-size="14.00">wiscon</text>
</g>
<!-- wiscon&#45;&gt;racefail -->
<g id="edge20" class="edge"><title>wiscon&#45;&gt;racefail</title>
<path fill="none" stroke="black" d="M46.9844,-419.021C54.5358,-408.952 64.385,-395.82 72.6491,-384.801"/>
<polygon fill="black" stroke="black" points="75.6628,-386.616 78.8628,-376.516 70.0628,-382.416 75.6628,-386.616"/>
</g>
<!-- wiscon&#45;&gt;adacamp -->
<g id="edge6" class="edge"><title>wiscon&#45;&gt;adacamp</title>
<path fill="none" stroke="black" d="M25.3186,-418.443C17.9264,-404.228 9,-382.935 9,-363 9,-363 9,-363 9,-179 9,-139.818 127.838,-120.128 198.267,-111.898"/>
<polygon fill="black" stroke="black" points="198.743,-115.367 208.287,-110.766 197.958,-108.411 198.743,-115.367"/>
<text text-anchor="middle" x="45.5" y="-284.3" font-family="Times,serif" font-size="14.00">a11y policies</text>
</g>
<!-- mothershiphackermoms -->
<g id="node10" class="node"><title>mothershiphackermoms</title>
<ellipse fill="none" stroke="black" cx="406" cy="-106" rx="96.2631" ry="18"/>
<text text-anchor="middle" x="406" y="-102.3" font-family="Times,serif" font-size="14.00">mothershiphackermoms</text>
</g>
<!-- mothershiphackermoms&#45;&gt;doubleunion -->
<g id="edge9" class="edge"><title>mothershiphackermoms&#45;&gt;doubleunion</title>
<path fill="none" stroke="black" d="M400.468,-88.0092C396.518,-75.8769 391.127,-59.3199 386.616,-45.4648"/>
<polygon fill="black" stroke="black" points="389.944,-44.3807 383.52,-35.9555 383.288,-46.5478 389.944,-44.3807"/>
</g>
<!-- ubuntuwomen -->
<g id="node12" class="node"><title>ubuntuwomen</title>
<ellipse fill="none" stroke="black" cx="471" cy="-180" rx="61.6163" ry="18"/>
<text text-anchor="middle" x="471" y="-176.3" font-family="Times,serif" font-size="14.00">ubuntuwomen</text>
</g>
<!-- debianwomen&#45;&gt;ubuntuwomen -->
<g id="edge11" class="edge"><title>debianwomen&#45;&gt;ubuntuwomen</title>
<path fill="none" stroke="black" d="M490.305,-269.969C486.666,-253.202 481.055,-227.341 476.818,-207.814"/>
<polygon fill="black" stroke="black" points="480.227,-207.019 474.686,-197.988 473.386,-208.503 480.227,-207.019"/>
</g>
<!-- gnomewomen -->
<g id="node13" class="node"><title>gnomewomen</title>
<ellipse fill="none" stroke="black" cx="685" cy="-180" rx="61.6163" ry="18"/>
<text text-anchor="middle" x="685" y="-176.3" font-family="Times,serif" font-size="14.00">gnomewomen</text>
</g>
<!-- debianwomen&#45;&gt;gnomewomen -->
<g id="edge12" class="edge"><title>debianwomen&#45;&gt;gnomewomen</title>
<path fill="none" stroke="black" d="M521.366,-271.813C554.838,-253.236 611.612,-221.729 648.705,-201.143"/>
<polygon fill="black" stroke="black" points="650.64,-204.072 657.685,-196.159 647.243,-197.951 650.64,-204.072"/>
</g>
<!-- opw -->
<g id="node19" class="node"><title>opw</title>
<ellipse fill="none" stroke="black" cx="611" cy="-106" rx="27" ry="18"/>
<text text-anchor="middle" x="611" y="-102.3" font-family="Times,serif" font-size="14.00">opw</text>
</g>
<!-- gnomewomen&#45;&gt;opw -->
<g id="edge18" class="edge"><title>gnomewomen&#45;&gt;opw</title>
<path fill="none" stroke="black" d="M668.208,-162.662C657.814,-152.549 644.351,-139.449 633.096,-128.499"/>
<polygon fill="black" stroke="black" points="635.33,-125.789 625.722,-121.324 630.449,-130.807 635.33,-125.789"/>
</g>
<!-- haecksen&#45;&gt;adacamp -->
<g id="edge14" class="edge"><title>haecksen&#45;&gt;adacamp</title>
<path fill="none" stroke="black" d="M375.343,-217.55C350.08,-195.445 303.479,-154.669 274.481,-129.296"/>
<polygon fill="black" stroke="black" points="276.632,-126.527 266.802,-122.576 272.023,-131.796 276.632,-126.527"/>
</g>
<!-- couchdb -->
<g id="node15" class="node"><title>couchdb</title>
<polygon fill="none" stroke="black" points="547,-528 490.518,-510 547,-492 603.482,-510 547,-528"/>
<text text-anchor="middle" x="547" y="-506.3" font-family="Times,serif" font-size="14.00">couchdb</text>
</g>
<!-- railsbridge -->
<g id="node16" class="node"><title>railsbridge</title>
<ellipse fill="none" stroke="black" cx="547" cy="-436" rx="48.1437" ry="18"/>
<text text-anchor="middle" x="547" y="-432.3" font-family="Times,serif" font-size="14.00">railsbridge</text>
</g>
<!-- couchdb&#45;&gt;railsbridge -->
<g id="edge15" class="edge"><title>couchdb&#45;&gt;railsbridge</title>
<path fill="none" stroke="black" d="M547,-491.937C547,-483.807 547,-473.876 547,-464.705"/>
<polygon fill="black" stroke="black" points="550.5,-464.441 547,-454.441 543.5,-464.441 550.5,-464.441"/>
</g>
<!-- pystar -->
<g id="node17" class="node"><title>pystar</title>
<ellipse fill="none" stroke="black" cx="501" cy="-362" rx="32.2457" ry="18"/>
<text text-anchor="middle" x="501" y="-358.3" font-family="Times,serif" font-size="14.00">pystar</text>
</g>
<!-- railsbridge&#45;&gt;pystar -->
<g id="edge16" class="edge"><title>railsbridge&#45;&gt;pystar</title>
<path fill="none" stroke="black" d="M536.331,-418.301C530.501,-409.176 523.171,-397.702 516.7,-387.574"/>
<polygon fill="black" stroke="black" points="519.628,-385.656 511.295,-379.113 513.729,-389.425 519.628,-385.656"/>
</g>
<!-- railsgirls -->
<g id="node18" class="node"><title>railsgirls</title>
<ellipse fill="none" stroke="black" cx="593" cy="-362" rx="41.394" ry="18"/>
<text text-anchor="middle" x="593" y="-358.3" font-family="Times,serif" font-size="14.00">railsgirls</text>
</g>
<!-- railsbridge&#45;&gt;railsgirls -->
<g id="edge17" class="edge"><title>railsbridge&#45;&gt;railsgirls</title>
<path fill="none" stroke="black" d="M557.669,-418.301C563.359,-409.395 570.478,-398.252 576.832,-388.307"/>
<polygon fill="black" stroke="black" points="579.954,-389.92 582.389,-379.609 574.056,-386.151 579.954,-389.92"/>
</g>
<!-- gsoc -->
<g id="node20" class="node"><title>gsoc</title>
<ellipse fill="none" stroke="black" cx="578" cy="-180" rx="27" ry="18"/>
<text text-anchor="middle" x="578" y="-176.3" font-family="Times,serif" font-size="14.00">gsoc</text>
</g>
<!-- gsoc&#45;&gt;opw -->
<g id="edge19" class="edge"><title>gsoc&#45;&gt;opw</title>
<path fill="none" stroke="black" d="M585.488,-162.662C589.482,-153.949 594.491,-143.02 599.011,-133.158"/>
<polygon fill="black" stroke="black" points="602.328,-134.322 603.312,-123.773 595.964,-131.405 602.328,-134.322"/>
</g>
<!-- livejournal -->
<g id="node21" class="node"><title>livejournal</title>
<ellipse fill="none" stroke="black" cx="246" cy="-510" rx="48.6179" ry="18"/>
<text text-anchor="middle" x="246" y="-506.3" font-family="Times,serif" font-size="14.00">livejournal</text>
</g>
<!-- dreamwidth -->
<g id="node22" class="node"><title>dreamwidth</title>
<ellipse fill="none" stroke="black" cx="178" cy="-436" rx="52.9443" ry="18"/>
<text text-anchor="middle" x="178" y="-432.3" font-family="Times,serif" font-size="14.00">dreamwidth</text>
</g>
<!-- livejournal&#45;&gt;dreamwidth -->
<g id="edge21" class="edge"><title>livejournal&#45;&gt;dreamwidth</title>
<path fill="none" stroke="black" d="M230.57,-492.662C221.615,-483.18 210.18,-471.073 200.264,-460.574"/>
<polygon fill="black" stroke="black" points="202.78,-458.14 193.369,-453.273 197.691,-462.947 202.78,-458.14"/>
</g>
<!-- otw -->
<g id="node23" class="node"><title>otw</title>
<ellipse fill="none" stroke="black" cx="276" cy="-436" rx="27" ry="18"/>
<text text-anchor="middle" x="276" y="-432.3" font-family="Times,serif" font-size="14.00">otw</text>
</g>
<!-- livejournal&#45;&gt;otw -->
<g id="edge22" class="edge"><title>livejournal&#45;&gt;otw</title>
<path fill="none" stroke="black" d="M253.11,-491.937C256.748,-483.204 261.253,-472.393 265.301,-462.678"/>
<polygon fill="black" stroke="black" points="268.533,-464.022 269.148,-453.445 262.071,-461.33 268.533,-464.022"/>
</g>
<!-- oscon2009 -->
<g id="node24" class="node"><title>oscon2009</title>
<ellipse fill="none" stroke="black" cx="208" cy="-362" rx="48.6179" ry="18"/>
<text text-anchor="middle" x="208" y="-358.3" font-family="Times,serif" font-size="14.00">oscon2009</text>
</g>
<!-- dreamwidth&#45;&gt;oscon2009 -->
<g id="edge23" class="edge"><title>dreamwidth&#45;&gt;oscon2009</title>
<path fill="none" stroke="black" d="M185.11,-417.937C188.659,-409.419 193.032,-398.923 197.002,-389.395"/>
<polygon fill="black" stroke="black" points="200.326,-390.517 200.941,-379.941 193.864,-387.825 200.326,-390.517"/>
</g>
<!-- otw&#45;&gt;oscon2009 -->
<g id="edge24" class="edge"><title>otw&#45;&gt;oscon2009</title>
<path fill="none" stroke="black" d="M262.239,-420.43C253.095,-410.748 240.88,-397.814 230.357,-386.672"/>
<polygon fill="black" stroke="black" points="232.812,-384.174 223.401,-379.307 227.723,-388.98 232.812,-384.174"/>
</g>
<!-- oscon2009&#45;&gt;geekfeminism -->
<g id="edge25" class="edge"><title>oscon2009&#45;&gt;geekfeminism</title>
<path fill="none" stroke="black" d="M197.331,-344.301C191.723,-335.522 184.725,-324.57 178.441,-314.734"/>
<polygon fill="black" stroke="black" points="181.264,-312.651 172.931,-306.109 175.365,-316.42 181.264,-312.651"/>
</g>
</g>
</svg>
