<?xml version="1.0" encoding="UTF-8" standalone="no"?>
<!DOCTYPE svg PUBLIC "-//W3C//DTD SVG 1.1//EN"
 "http://www.w3.org/Graphics/SVG/1.1/DTD/svg11.dtd">
<!-- Generated by graphviz version 2.38.0 (20140413.2041)
 -->
<!-- Title: GeekFeminismFamilyTree Pages: 1 -->
<svg width="1994pt" height="860pt"
 viewBox="0.00 0.00 1994.31 860.00" xmlns="http://www.w3.org/2000/svg" xmlns:xlink="http://www.w3.org/1999/xlink">
<g id="graph0" class="graph" transform="scale(1 1) rotate(0) translate(4 856)">
<title>GeekFeminismFamilyTree</title>
<polygon fill="white" stroke="none" points="-4,4 -4,-856 1990.31,-856 1990.31,4 -4,4"/>
<!-- past -->
<g id="node1" class="node"><title>past</title>
<text text-anchor="middle" x="51.1016" y="-829.2" font-family="Times,serif" font-size="16.00">past</text>
</g>
<!-- 2000&#45;2003 -->
<g id="node2" class="node"><title>2000&#45;2003</title>
<text text-anchor="middle" x="51.1016" y="-756.2" font-family="Times,serif" font-size="16.00">2000&#45;2003</text>
</g>
<!-- past&#45;&gt;2000&#45;2003 -->
<g id="edge1" class="edge"><title>past&#45;&gt;2000&#45;2003</title>
<path fill="none" stroke="black" d="M51.1016,-815.813C51.1016,-807.789 51.1016,-798.047 51.1016,-789.069"/>
<polygon fill="black" stroke="black" points="54.6017,-789.029 51.1016,-779.029 47.6017,-789.029 54.6017,-789.029"/>
</g>
<!-- 2004&#45;2006 -->
<g id="node3" class="node"><title>2004&#45;2006</title>
<text text-anchor="middle" x="51.1016" y="-683.2" font-family="Times,serif" font-size="16.00">2004&#45;2006</text>
</g>
<!-- 2000&#45;2003&#45;&gt;2004&#45;2006 -->
<g id="edge2" class="edge"><title>2000&#45;2003&#45;&gt;2004&#45;2006</title>
<path fill="none" stroke="black" d="M51.1016,-742.813C51.1016,-734.789 51.1016,-725.047 51.1016,-716.069"/>
<polygon fill="black" stroke="black" points="54.6017,-716.029 51.1016,-706.029 47.6017,-716.029 54.6017,-716.029"/>
</g>
<!-- 2007 -->
<g id="node4" class="node"><title>2007</title>
<text text-anchor="middle" x="51.1016" y="-610.2" font-family="Times,serif" font-size="16.00">2007</text>
</g>
<!-- 2004&#45;2006&#45;&gt;2007 -->
<g id="edge3" class="edge"><title>2004&#45;2006&#45;&gt;2007</title>
<path fill="none" stroke="black" d="M51.1016,-669.813C51.1016,-661.789 51.1016,-652.047 51.1016,-643.069"/>
<polygon fill="black" stroke="black" points="54.6017,-643.029 51.1016,-633.029 47.6017,-643.029 54.6017,-643.029"/>
</g>
<!-- 2008 -->
<g id="node5" class="node"><title>2008</title>
<text text-anchor="middle" x="51.1016" y="-537.2" font-family="Times,serif" font-size="16.00">2008</text>
</g>
<!-- 2007&#45;&gt;2008 -->
<g id="edge4" class="edge"><title>2007&#45;&gt;2008</title>
<path fill="none" stroke="black" d="M51.1016,-596.813C51.1016,-588.789 51.1016,-579.047 51.1016,-570.069"/>
<polygon fill="black" stroke="black" points="54.6017,-570.029 51.1016,-560.029 47.6017,-570.029 54.6017,-570.029"/>
</g>
<!-- 2009 -->
<g id="node6" class="node"><title>2009</title>
<text text-anchor="middle" x="51.1016" y="-464.2" font-family="Times,serif" font-size="16.00">2009</text>
</g>
<!-- 2008&#45;&gt;2009 -->
<g id="edge5" class="edge"><title>2008&#45;&gt;2009</title>
<path fill="none" stroke="black" d="M51.1016,-523.813C51.1016,-515.789 51.1016,-506.047 51.1016,-497.069"/>
<polygon fill="black" stroke="black" points="54.6017,-497.029 51.1016,-487.029 47.6017,-497.029 54.6017,-497.029"/>
</g>
<!-- 2010 -->
<g id="node7" class="node"><title>2010</title>
<text text-anchor="middle" x="51.1016" y="-391.2" font-family="Times,serif" font-size="16.00">2010</text>
</g>
<!-- 2009&#45;&gt;2010 -->
<g id="edge6" class="edge"><title>2009&#45;&gt;2010</title>
<path fill="none" stroke="black" d="M51.1016,-450.813C51.1016,-442.789 51.1016,-433.047 51.1016,-424.069"/>
<polygon fill="black" stroke="black" points="54.6017,-424.029 51.1016,-414.029 47.6017,-424.029 54.6017,-424.029"/>
</g>
<!-- 2011 -->
<g id="node8" class="node"><title>2011</title>
<text text-anchor="middle" x="51.1016" y="-305.2" font-family="Times,serif" font-size="16.00">2011</text>
</g>
<!-- 2010&#45;&gt;2011 -->
<g id="edge7" class="edge"><title>2010&#45;&gt;2011</title>
<path fill="none" stroke="black" d="M51.1016,-377.595C51.1016,-366.257 51.1016,-351.227 51.1016,-338.315"/>
<polygon fill="black" stroke="black" points="54.6017,-338.095 51.1016,-328.095 47.6017,-338.095 54.6017,-338.095"/>
</g>
<!-- 2012 -->
<g id="node9" class="node"><title>2012</title>
<text text-anchor="middle" x="51.1016" y="-232.2" font-family="Times,serif" font-size="16.00">2012</text>
</g>
<!-- 2011&#45;&gt;2012 -->
<g id="edge8" class="edge"><title>2011&#45;&gt;2012</title>
<path fill="none" stroke="black" d="M51.1016,-291.813C51.1016,-283.789 51.1016,-274.047 51.1016,-265.069"/>
<polygon fill="black" stroke="black" points="54.6017,-265.029 51.1016,-255.029 47.6017,-265.029 54.6017,-265.029"/>
</g>
<!-- 2013 -->
<g id="node10" class="node"><title>2013</title>
<text text-anchor="middle" x="51.1016" y="-159.2" font-family="Times,serif" font-size="16.00">2013</text>
</g>
<!-- 2012&#45;&gt;2013 -->
<g id="edge9" class="edge"><title>2012&#45;&gt;2013</title>
<path fill="none" stroke="black" d="M51.1016,-218.813C51.1016,-210.789 51.1016,-201.047 51.1016,-192.069"/>
<polygon fill="black" stroke="black" points="54.6017,-192.029 51.1016,-182.029 47.6017,-192.029 54.6017,-192.029"/>
</g>
<!-- 2014 -->
<g id="node11" class="node"><title>2014</title>
<text text-anchor="middle" x="51.1016" y="-86.2" font-family="Times,serif" font-size="16.00">2014</text>
</g>
<!-- 2013&#45;&gt;2014 -->
<g id="edge10" class="edge"><title>2013&#45;&gt;2014</title>
<path fill="none" stroke="black" d="M51.1016,-145.813C51.1016,-137.789 51.1016,-128.047 51.1016,-119.069"/>
<polygon fill="black" stroke="black" points="54.6017,-119.029 51.1016,-109.029 47.6017,-119.029 54.6017,-119.029"/>
</g>
<!-- unknowndate -->
<g id="node12" class="node"><title>unknowndate</title>
<text text-anchor="middle" x="51.1016" y="-13.2" font-family="Times,serif" font-size="16.00">unknowndate</text>
</g>
<!-- 2014&#45;&gt;unknowndate -->
<g id="edge11" class="edge"><title>2014&#45;&gt;unknowndate</title>
<path fill="none" stroke="black" d="M51.1016,-72.8129C51.1016,-64.7895 51.1016,-55.0475 51.1016,-46.0691"/>
<polygon fill="black" stroke="black" points="54.6017,-46.0288 51.1016,-36.0288 47.6017,-46.0289 54.6017,-46.0288"/>
</g>
<!-- livejournal -->
<g id="node13" class="node"><title>livejournal</title>
<polygon fill="none" stroke="black" points="234.251,-852 157.952,-852 157.952,-816 234.251,-816 234.251,-852"/>
<text text-anchor="middle" x="196.102" y="-829.8" font-family="Times,serif" font-size="14.00">livejournal</text>
</g>
<!-- dreamwidth -->
<g id="node32" class="node"><title>dreamwidth</title>
<ellipse fill="none" stroke="black" cx="148.102" cy="-542" rx="52.1934" ry="18"/>
<text text-anchor="middle" x="148.102" y="-537.8" font-family="Times,serif" font-size="14.00">dreamwidth</text>
</g>
<!-- livejournal&#45;&gt;dreamwidth -->
<g id="edge52" class="edge"><title>livejournal&#45;&gt;dreamwidth</title>
<path fill="none" stroke="black" d="M188.81,-815.836C183.452,-801.664 177.102,-780.885 177.102,-762 177.102,-762 177.102,-762 177.102,-614 177.102,-598.143 170.825,-581.674 164.112,-568.594"/>
<polygon fill="black" stroke="black" points="167.119,-566.798 159.231,-559.726 160.987,-570.174 167.119,-566.798"/>
</g>
<!-- otw -->
<g id="node33" class="node"><title>otw</title>
<ellipse fill="none" stroke="black" cx="245.102" cy="-542" rx="27" ry="18"/>
<text text-anchor="middle" x="245.102" y="-537.8" font-family="Times,serif" font-size="14.00">otw</text>
</g>
<!-- livejournal&#45;&gt;otw -->
<g id="edge53" class="edge"><title>livejournal&#45;&gt;otw</title>
<path fill="none" stroke="black" d="M209.539,-815.991C219.043,-802.241 230.102,-781.954 230.102,-762 230.102,-762 230.102,-762 230.102,-614 230.102,-599.089 233.308,-582.789 236.756,-569.571"/>
<polygon fill="black" stroke="black" points="240.189,-570.291 239.516,-559.718 233.448,-568.403 240.189,-570.291"/>
</g>
<!-- wiscon -->
<g id="node14" class="node"><title>wiscon</title>
<ellipse fill="none" stroke="black" cx="630.102" cy="-834" rx="35.3216" ry="18"/>
<text text-anchor="middle" x="630.102" y="-829.8" font-family="Times,serif" font-size="14.00">wiscon</text>
</g>
<!-- racefail -->
<g id="node35" class="node"><title>racefail</title>
<polygon fill="none" stroke="black" points="297.102,-487 245.548,-469 297.102,-451 348.655,-469 297.102,-487"/>
<text text-anchor="middle" x="297.102" y="-464.8" font-family="Times,serif" font-size="14.00">racefail</text>
</g>
<!-- wiscon&#45;&gt;racefail -->
<g id="edge51" class="edge"><title>wiscon&#45;&gt;racefail</title>
<path fill="none" stroke="black" d="M594.941,-832.565C511.813,-830.588 310.102,-819.831 310.102,-762 310.102,-762 310.102,-762 310.102,-541 310.102,-525.773 307.173,-509.004 304.095,-495.588"/>
<polygon fill="black" stroke="black" points="307.436,-494.516 301.648,-485.641 300.638,-496.188 307.436,-494.516"/>
</g>
<!-- adacamp -->
<g id="node47" class="node"><title>adacamp</title>
<ellipse fill="none" stroke="black" cx="1052.1" cy="-237" rx="41.5593" ry="18"/>
<text text-anchor="middle" x="1052.1" y="-232.8" font-family="Times,serif" font-size="14.00">adacamp</text>
</g>
<!-- wiscon&#45;&gt;adacamp -->
<g id="edge29" class="edge"><title>wiscon&#45;&gt;adacamp</title>
<path fill="none" stroke="black" d="M665.204,-832.208C745.58,-829.444 936.102,-817.082 936.102,-762 936.102,-762 936.102,-762 936.102,-651 936.102,-601.347 985.102,-482.653 985.102,-433 985.102,-433 985.102,-433 985.102,-309 985.102,-287.496 1001.56,-269.866 1018.16,-257.554"/>
<polygon fill="black" stroke="black" points="1020.53,-260.17 1026.77,-251.607 1016.55,-254.411 1020.53,-260.17"/>
<text text-anchor="middle" x="1002.97" y="-537.8" font-family="Times,serif" font-size="14.00">a11y policies</text>
</g>
<!-- linuxconfau -->
<g id="node15" class="node"><title>linuxconfau</title>
<polygon fill="none" stroke="black" points="1042.47,-852 959.732,-852 959.732,-816 1042.47,-816 1042.47,-852"/>
<text text-anchor="middle" x="1001.1" y="-829.8" font-family="Times,serif" font-size="14.00">linuxconfau</text>
</g>
<!-- haecksen -->
<g id="node28" class="node"><title>haecksen</title>
<ellipse fill="none" stroke="black" cx="1045.1" cy="-615" rx="42.5283" ry="18"/>
<text text-anchor="middle" x="1045.1" y="-610.8" font-family="Times,serif" font-size="14.00">haecksen</text>
</g>
<!-- linuxconfau&#45;&gt;haecksen -->
<g id="edge44" class="edge"><title>linuxconfau&#45;&gt;haecksen</title>
<path fill="none" stroke="black" d="M1004.55,-815.972C1012.17,-778.418 1030.46,-688.232 1039.64,-642.929"/>
<polygon fill="black" stroke="black" points="1043.11,-643.445 1041.66,-632.949 1036.25,-642.054 1043.11,-643.445"/>
</g>
<!-- adainitiative -->
<g id="node43" class="node"><title>adainitiative</title>
<ellipse fill="none" stroke="black" cx="574.102" cy="-310" rx="53.6299" ry="18"/>
<text text-anchor="middle" x="574.102" y="-305.8" font-family="Times,serif" font-size="14.00">adainitiative</text>
</g>
<!-- linuxconfau&#45;&gt;adainitiative -->
<g id="edge16" class="edge"><title>linuxconfau&#45;&gt;adainitiative</title>
<path fill="none" stroke="black" d="M990.585,-815.89C983.004,-801.919 974.102,-781.386 974.102,-762 974.102,-762 974.102,-762 974.102,-651 974.102,-549.28 856.293,-602.984 764.102,-560 632.597,-498.687 548.383,-537.426 472.102,-414 450.94,-379.759 496.038,-348.098 532.86,-329.159"/>
<polygon fill="black" stroke="black" points="534.596,-332.205 541.997,-324.624 531.484,-325.934 534.596,-332.205"/>
</g>
<!-- linuxchix -->
<g id="node16" class="node"><title>linuxchix</title>
<ellipse fill="none" stroke="black" cx="860.102" cy="-761" rx="43.5233" ry="18"/>
<text text-anchor="middle" x="860.102" y="-756.8" font-family="Times,serif" font-size="14.00">linuxchix</text>
</g>
<!-- debianwomen -->
<g id="node22" class="node"><title>debianwomen</title>
<ellipse fill="none" stroke="black" cx="477.102" cy="-688" rx="59.927" ry="18"/>
<text text-anchor="middle" x="477.102" y="-683.8" font-family="Times,serif" font-size="14.00">debianwomen</text>
</g>
<!-- linuxchix&#45;&gt;debianwomen -->
<g id="edge37" class="edge"><title>linuxchix&#45;&gt;debianwomen</title>
<path fill="none" stroke="black" d="M820.672,-753.029C763.75,-742.921 655.267,-723.487 563.102,-706 554.097,-704.292 544.57,-702.446 535.265,-700.623"/>
<polygon fill="black" stroke="black" points="535.778,-697.157 525.29,-698.661 534.427,-704.025 535.778,-697.157"/>
</g>
<!-- linuxchix&#45;&gt;haecksen -->
<g id="edge43" class="edge"><title>linuxchix&#45;&gt;haecksen</title>
<path fill="none" stroke="black" d="M879.55,-744.862C912.583,-719.15 979.739,-666.877 1017.58,-637.422"/>
<polygon fill="black" stroke="black" points="1019.89,-640.056 1025.64,-631.152 1015.59,-634.532 1019.89,-640.056"/>
</g>
<!-- geekfeminism -->
<g id="node31" class="node"><title>geekfeminism</title>
<ellipse fill="none" stroke="black" cx="403.102" cy="-542" rx="60.4115" ry="18"/>
<text text-anchor="middle" x="403.102" y="-537.8" font-family="Times,serif" font-size="14.00">geekfeminism</text>
</g>
<!-- linuxchix&#45;&gt;geekfeminism -->
<g id="edge12" class="edge"><title>linuxchix&#45;&gt;geekfeminism</title>
<path fill="none" stroke="black" d="M861.372,-742.734C861.863,-722.665 859.465,-689.778 841.102,-670 789.893,-614.846 573.177,-571.568 465.023,-552.946"/>
<polygon fill="black" stroke="black" points="465.351,-549.451 454.905,-551.221 464.175,-556.352 465.351,-549.451"/>
</g>
<!-- sfruby -->
<g id="node17" class="node"><title>sfruby</title>
<ellipse fill="none" stroke="black" cx="1434.1" cy="-761" rx="32.9081" ry="18"/>
<text text-anchor="middle" x="1434.1" y="-756.8" font-family="Times,serif" font-size="14.00">sfruby</text>
</g>
<!-- railsbridge -->
<g id="node37" class="node"><title>railsbridge</title>
<ellipse fill="none" stroke="black" cx="1429.1" cy="-469" rx="47.8496" ry="18"/>
<text text-anchor="middle" x="1429.1" y="-464.8" font-family="Times,serif" font-size="14.00">railsbridge</text>
</g>
<!-- sfruby&#45;&gt;railsbridge -->
<g id="edge62" class="edge"><title>sfruby&#45;&gt;railsbridge</title>
<path fill="none" stroke="black" d="M1434.1,-742.784C1434.1,-728.405 1434.1,-707.366 1434.1,-689 1434.1,-689 1434.1,-689 1434.1,-541 1434.1,-526.616 1433.07,-510.633 1431.94,-497.479"/>
<polygon fill="black" stroke="black" points="1435.4,-496.829 1430.99,-487.193 1428.42,-497.472 1435.4,-496.829"/>
</g>
<!-- gsoc -->
<g id="node18" class="node"><title>gsoc</title>
<polygon fill="none" stroke="black" points="1526.1,-706 1472.1,-706 1472.1,-670 1526.1,-670 1526.1,-706"/>
<text text-anchor="middle" x="1499.1" y="-683.8" font-family="Times,serif" font-size="14.00">gsoc</text>
</g>
<!-- opw -->
<g id="node19" class="node"><title>opw</title>
<ellipse fill="none" stroke="black" cx="1589.1" cy="-688" rx="27" ry="18"/>
<text text-anchor="middle" x="1589.1" y="-683.8" font-family="Times,serif" font-size="14.00">opw</text>
</g>
<!-- gsoc&#45;&gt;opw -->
<g id="edge42" class="edge"><title>gsoc&#45;&gt;opw</title>
<path fill="none" stroke="black" d="M1526.17,-688C1534.77,-688 1543.37,-688 1551.97,-688"/>
<polygon fill="black" stroke="black" points="1552.06,-691.5 1562.06,-688 1552.06,-684.5 1552.06,-691.5"/>
</g>
<!-- rgsoc -->
<g id="node56" class="node"><title>rgsoc</title>
<ellipse fill="none" stroke="black" cx="1487.1" cy="-164" rx="29.2133" ry="18"/>
<text text-anchor="middle" x="1487.1" y="-159.8" font-family="Times,serif" font-size="14.00">rgsoc</text>
</g>
<!-- gsoc&#45;&gt;rgsoc -->
<g id="edge50" class="edge"><title>gsoc&#45;&gt;rgsoc</title>
<path fill="none" stroke="black" d="M1501.37,-669.818C1503.07,-655.46 1505.1,-634.432 1505.1,-616 1505.1,-616 1505.1,-616 1505.1,-236 1505.1,-220.949 1501.25,-204.638 1497.12,-191.45"/>
<polygon fill="black" stroke="black" points="1500.32,-189.984 1493.8,-181.627 1493.68,-192.221 1500.32,-189.984"/>
</g>
<!-- ubuntuwomen -->
<g id="node20" class="node"><title>ubuntuwomen</title>
<ellipse fill="none" stroke="black" cx="633.102" cy="-688" rx="60.9133" ry="18"/>
<text text-anchor="middle" x="633.102" y="-683.8" font-family="Times,serif" font-size="14.00">ubuntuwomen</text>
</g>
<!-- gnomewomen -->
<g id="node21" class="node"><title>gnomewomen</title>
<ellipse fill="none" stroke="black" cx="772.102" cy="-688" rx="60.4202" ry="18"/>
<text text-anchor="middle" x="772.102" y="-683.8" font-family="Times,serif" font-size="14.00">gnomewomen</text>
</g>
<!-- gnomewomen&#45;&gt;opw -->
<g id="edge41" class="edge"><title>gnomewomen&#45;&gt;opw</title>
<path fill="none" stroke="black" d="M827.53,-695.066C978.484,-713.615 1394.4,-759.897 1526.1,-724.5 1538.98,-721.04 1551.94,-714.235 1562.73,-707.43"/>
<polygon fill="black" stroke="black" points="1564.83,-710.232 1571.23,-701.786 1560.96,-704.4 1564.83,-710.232"/>
</g>
<!-- debianwomen&#45;&gt;ubuntuwomen -->
<g id="edge38" class="edge"><title>debianwomen&#45;&gt;ubuntuwomen</title>
<path fill="none" stroke="black" d="M536.82,-688C545.198,-688 553.576,-688 561.954,-688"/>
<polygon fill="black" stroke="black" points="562.174,-691.5 572.174,-688 562.174,-684.5 562.174,-691.5"/>
</g>
<!-- debianwomen&#45;&gt;gnomewomen -->
<g id="edge39" class="edge"><title>debianwomen&#45;&gt;gnomewomen</title>
<path fill="none" stroke="black" d="M508.352,-703.346C526.486,-711.393 550.039,-720.407 572.102,-724.5 625.414,-734.389 641.173,-736.271 694.102,-724.5 708.429,-721.314 723.239,-715.203 736.053,-708.88"/>
<polygon fill="black" stroke="black" points="737.707,-711.966 744.997,-704.277 734.503,-705.742 737.707,-711.966"/>
</g>
<!-- girlgeekdinners -->
<g id="node23" class="node"><title>girlgeekdinners</title>
<polygon fill="none" stroke="black" points="1737.68,-706 1634.52,-706 1634.52,-670 1737.68,-670 1737.68,-706"/>
<text text-anchor="middle" x="1686.1" y="-683.8" font-family="Times,serif" font-size="14.00">girlgeekdinners</text>
</g>
<!-- blogher -->
<g id="node24" class="node"><title>blogher</title>
<ellipse fill="none" stroke="black" cx="1793.1" cy="-688" rx="37.2421" ry="18"/>
<text text-anchor="middle" x="1793.1" y="-683.8" font-family="Times,serif" font-size="14.00">blogher</text>
</g>
<!-- speakerswiki -->
<g id="node25" class="node"><title>speakerswiki</title>
<ellipse fill="none" stroke="black" cx="1922.1" cy="-688" rx="56.0528" ry="18"/>
<text text-anchor="middle" x="1922.1" y="-683.8" font-family="Times,serif" font-size="14.00">speakerswiki</text>
</g>
<!-- blogher&#45;&gt;speakerswiki -->
<g id="edge58" class="edge"><title>blogher&#45;&gt;speakerswiki</title>
<path fill="none" stroke="black" d="M1830.39,-688C1838.71,-688 1847.03,-688 1855.35,-688"/>
<polygon fill="black" stroke="black" points="1855.5,-691.5 1865.5,-688 1855.5,-684.5 1855.5,-691.5"/>
</g>
<!-- railsconf2005 -->
<g id="node26" class="node"><title>railsconf2005</title>
<ellipse fill="none" stroke="black" cx="1236.1" cy="-688" rx="58.9668" ry="18"/>
<text text-anchor="middle" x="1236.1" y="-683.8" font-family="Times,serif" font-size="14.00">railsconf2005</text>
</g>
<!-- devchix -->
<g id="node27" class="node"><title>devchix</title>
<ellipse fill="none" stroke="black" cx="1368.1" cy="-688" rx="38.2024" ry="18"/>
<text text-anchor="middle" x="1368.1" y="-683.8" font-family="Times,serif" font-size="14.00">devchix</text>
</g>
<!-- railsconf2005&#45;&gt;devchix -->
<g id="edge60" class="edge"><title>railsconf2005&#45;&gt;devchix</title>
<path fill="none" stroke="black" d="M1294.88,-688C1303.15,-688 1311.42,-688 1319.69,-688"/>
<polygon fill="black" stroke="black" points="1319.78,-691.5 1329.78,-688 1319.78,-684.5 1319.78,-691.5"/>
</g>
<!-- devchix&#45;&gt;railsbridge -->
<g id="edge61" class="edge"><title>devchix&#45;&gt;railsbridge</title>
<path fill="none" stroke="black" d="M1372.89,-669.972C1383.47,-632.339 1408.9,-541.851 1421.61,-496.642"/>
<polygon fill="black" stroke="black" points="1425,-497.523 1424.34,-486.949 1418.26,-495.628 1425,-497.523"/>
</g>
<!-- owoot -->
<g id="node45" class="node"><title>owoot</title>
<ellipse fill="none" stroke="black" cx="1045.1" cy="-310" rx="32.4324" ry="18"/>
<text text-anchor="middle" x="1045.1" y="-305.8" font-family="Times,serif" font-size="14.00">owoot</text>
</g>
<!-- haecksen&#45;&gt;owoot -->
<g id="edge40" class="edge"><title>haecksen&#45;&gt;owoot</title>
<path fill="none" stroke="black" d="M1045.1,-596.784C1045.1,-582.405 1045.1,-561.366 1045.1,-543 1045.1,-543 1045.1,-543 1045.1,-395 1045.1,-375.979 1045.1,-354.535 1045.1,-338.075"/>
<polygon fill="black" stroke="black" points="1048.6,-338.053 1045.1,-328.053 1041.6,-338.053 1048.6,-338.053"/>
</g>
<!-- haecksen&#45;&gt;adacamp -->
<g id="edge45" class="edge"><title>haecksen&#45;&gt;adacamp</title>
<path fill="none" stroke="black" d="M1067.78,-599.76C1084.78,-587.153 1105.1,-567.046 1105.1,-543 1105.1,-543 1105.1,-543 1105.1,-309 1105.1,-289.841 1092.56,-272.518 1079.67,-259.78"/>
<polygon fill="black" stroke="black" points="1081.86,-257.039 1072.14,-252.83 1077.12,-262.184 1081.86,-257.039"/>
</g>
<!-- shesgeeky -->
<g id="node29" class="node"><title>shesgeeky</title>
<ellipse fill="none" stroke="black" cx="1922.1" cy="-615" rx="46.4046" ry="18"/>
<text text-anchor="middle" x="1922.1" y="-610.8" font-family="Times,serif" font-size="14.00">shesgeeky</text>
</g>
<!-- shesgeeky&#45;&gt;speakerswiki -->
<g id="edge59" class="edge"><title>shesgeeky&#45;&gt;speakerswiki</title>
<path fill="none" stroke="black" d="M1922.1,-633.029C1922.1,-641.029 1922.1,-650.765 1922.1,-659.753"/>
<polygon fill="black" stroke="black" points="1918.6,-659.813 1922.1,-669.813 1925.6,-659.813 1918.6,-659.813"/>
</g>
<!-- SFF CAHP -->
<g id="node30" class="node"><title>SFF CAHP</title>
<ellipse fill="none" stroke="black" cx="824.102" cy="-542" rx="50.8253" ry="18"/>
<text text-anchor="middle" x="824.102" y="-537.8" font-family="Times,serif" font-size="14.00">SFF CAHP</text>
</g>
<!-- backupproject -->
<g id="node39" class="node"><title>backupproject</title>
<ellipse fill="none" stroke="black" cx="897.102" cy="-469" rx="60.3942" ry="18"/>
<text text-anchor="middle" x="897.102" y="-464.8" font-family="Times,serif" font-size="14.00">backupproject</text>
</g>
<!-- SFF CAHP&#45;&gt;backupproject -->
<g id="edge22" class="edge"><title>SFF CAHP&#45;&gt;backupproject</title>
<path fill="none" stroke="black" d="M840.666,-524.889C850.212,-515.605 862.382,-503.768 872.975,-493.465"/>
<polygon fill="black" stroke="black" points="875.621,-495.774 880.35,-486.293 870.741,-490.756 875.621,-495.774"/>
</g>
<!-- GF/TAI AHP -->
<g id="node44" class="node"><title>GF/TAI AHP</title>
<ellipse fill="none" stroke="black" cx="721.102" cy="-310" rx="57.1338" ry="18"/>
<text text-anchor="middle" x="721.102" y="-305.8" font-family="Times,serif" font-size="14.00">GF/TAI AHP</text>
</g>
<!-- SFF CAHP&#45;&gt;GF/TAI AHP -->
<g id="edge20" class="edge"><title>SFF CAHP&#45;&gt;GF/TAI AHP</title>
<path fill="none" stroke="black" d="M782.326,-531.658C758.481,-523.953 730.539,-510.36 716.102,-487 707.69,-473.39 713.039,-466.704 716.102,-451 719.498,-433.584 727.705,-431.416 731.102,-414 736.886,-384.336 735.293,-375.93 731.102,-346 730.741,-343.426 730.238,-340.776 729.648,-338.141"/>
<polygon fill="black" stroke="black" points="732.975,-337.029 727.057,-328.241 726.204,-338.802 732.975,-337.029"/>
</g>
<!-- geekfeminism&#45;&gt;adainitiative -->
<g id="edge15" class="edge"><title>geekfeminism&#45;&gt;adainitiative</title>
<path fill="none" stroke="black" d="M400.717,-523.759C396.556,-486.157 392.412,-396.134 439.102,-346 449.785,-334.528 484.199,-325.707 515.605,-319.79"/>
<polygon fill="black" stroke="black" points="516.444,-323.195 525.662,-317.971 515.199,-316.307 516.444,-323.195"/>
</g>
<!-- geekfeminism&#45;&gt;GF/TAI AHP -->
<g id="edge18" class="edge"><title>geekfeminism&#45;&gt;GF/TAI AHP</title>
<path fill="none" stroke="black" d="M455.746,-533.196C522.488,-520.437 636.284,-488.598 698.102,-414 715.583,-392.904 720.49,-361.311 721.547,-338.682"/>
<polygon fill="black" stroke="black" points="725.053,-338.459 721.795,-328.378 718.055,-338.29 725.053,-338.459"/>
</g>
<!-- seattleattic -->
<g id="node54" class="node"><title>seattleattic</title>
<ellipse fill="none" stroke="black" cx="318.102" cy="-164" rx="47.8323" ry="18"/>
<text text-anchor="middle" x="318.102" y="-159.8" font-family="Times,serif" font-size="14.00">seattleattic</text>
</g>
<!-- geekfeminism&#45;&gt;seattleattic -->
<g id="edge34" class="edge"><title>geekfeminism&#45;&gt;seattleattic</title>
<path fill="none" stroke="black" d="M393.124,-524.126C385.792,-510.122 377.102,-489.428 377.102,-470 377.102,-470 377.102,-470 377.102,-236 377.102,-216.122 363.252,-198.839 348.973,-186.303"/>
<polygon fill="black" stroke="black" points="351.036,-183.468 341.081,-179.84 346.601,-188.884 351.036,-183.468"/>
</g>
<!-- oscon2009 -->
<g id="node34" class="node"><title>oscon2009</title>
<ellipse fill="none" stroke="black" cx="179.102" cy="-469" rx="48.3514" ry="18"/>
<text text-anchor="middle" x="179.102" y="-464.8" font-family="Times,serif" font-size="14.00">oscon2009</text>
</g>
<!-- dreamwidth&#45;&gt;oscon2009 -->
<g id="edge54" class="edge"><title>dreamwidth&#45;&gt;oscon2009</title>
<path fill="none" stroke="black" d="M155.448,-524.174C159.063,-515.896 163.504,-505.723 167.558,-496.438"/>
<polygon fill="black" stroke="black" points="170.798,-497.764 171.592,-487.198 164.383,-494.962 170.798,-497.764"/>
</g>
<!-- otw&#45;&gt;oscon2009 -->
<g id="edge55" class="edge"><title>otw&#45;&gt;oscon2009</title>
<path fill="none" stroke="black" d="M231.426,-526.289C222.676,-516.876 211.127,-504.451 201.105,-493.671"/>
<polygon fill="black" stroke="black" points="203.512,-491.119 194.14,-486.178 198.385,-495.885 203.512,-491.119"/>
</g>
<!-- oscon2009&#45;&gt;geekfeminism -->
<g id="edge56" class="edge"><title>oscon2009&#45;&gt;geekfeminism</title>
<path fill="none" stroke="black" d="M214.826,-481.323C252.326,-493.209 311.56,-511.984 353.563,-525.298"/>
<polygon fill="black" stroke="black" points="352.723,-528.703 363.313,-528.388 354.838,-522.03 352.723,-528.703"/>
</g>
<!-- racefail&#45;&gt;geekfeminism -->
<g id="edge13" class="edge"><title>racefail&#45;&gt;geekfeminism</title>
<path fill="none" stroke="black" d="M313.974,-481.302C329.34,-491.594 352.437,-507.064 371.268,-519.677"/>
<polygon fill="black" stroke="black" points="369.32,-522.586 379.577,-525.243 373.216,-516.77 369.32,-522.586"/>
</g>
<!-- couchdb -->
<g id="node36" class="node"><title>couchdb</title>
<polygon fill="none" stroke="black" points="1289.1,-487 1232.28,-469 1289.1,-451 1345.93,-469 1289.1,-487"/>
<text text-anchor="middle" x="1289.1" y="-464.8" font-family="Times,serif" font-size="14.00">couchdb</text>
</g>
<!-- couchdb&#45;&gt;railsbridge -->
<g id="edge46" class="edge"><title>couchdb&#45;&gt;railsbridge</title>
<path fill="none" stroke="black" d="M1345.98,-469C1354.29,-469 1362.6,-469 1370.91,-469"/>
<polygon fill="black" stroke="black" points="1371.04,-472.5 1381.04,-469 1371.04,-465.5 1371.04,-472.5"/>
</g>
<!-- railsgirls -->
<g id="node48" class="node"><title>railsgirls</title>
<ellipse fill="none" stroke="black" cx="1436.1" cy="-237" rx="41.1093" ry="18"/>
<text text-anchor="middle" x="1436.1" y="-232.8" font-family="Times,serif" font-size="14.00">railsgirls</text>
</g>
<!-- railsbridge&#45;&gt;railsgirls -->
<g id="edge48" class="edge"><title>railsbridge&#45;&gt;railsgirls</title>
<path fill="none" stroke="black" d="M1429.63,-450.713C1430.83,-411.072 1433.81,-313.359 1435.27,-265.42"/>
<polygon fill="black" stroke="black" points="1438.77,-265.276 1435.58,-255.174 1431.78,-265.063 1438.77,-265.276"/>
</g>
<!-- pystar -->
<g id="node65" class="node"><title>pystar</title>
<ellipse fill="none" stroke="black" cx="1376.1" cy="-396" rx="31.9393" ry="18"/>
<text text-anchor="middle" x="1376.1" y="-391.8" font-family="Times,serif" font-size="14.00">pystar</text>
</g>
<!-- railsbridge&#45;&gt;pystar -->
<g id="edge47" class="edge"><title>railsbridge&#45;&gt;pystar</title>
<path fill="none" stroke="black" d="M1416.81,-451.533C1410.02,-442.444 1401.48,-430.991 1393.97,-420.931"/>
<polygon fill="black" stroke="black" points="1396.75,-418.809 1387.96,-412.89 1391.14,-422.997 1396.75,-418.809"/>
</g>
<!-- osbp -->
<g id="node38" class="node"><title>osbp</title>
<polygon fill="none" stroke="black" points="763.102,-487 725.261,-469 763.102,-451 800.942,-469 763.102,-487"/>
<text text-anchor="middle" x="763.102" y="-464.8" font-family="Times,serif" font-size="14.00">osbp</text>
</g>
<!-- osbp&#45;&gt;backupproject -->
<g id="edge21" class="edge"><title>osbp&#45;&gt;backupproject</title>
<path fill="none" stroke="black" d="M801.051,-469C809.59,-469 818.13,-469 826.67,-469"/>
<polygon fill="black" stroke="black" points="826.695,-472.5 836.695,-469 826.695,-465.5 826.695,-472.5"/>
</g>
<!-- backupribbons -->
<g id="node42" class="node"><title>backupribbons</title>
<ellipse fill="none" stroke="black" cx="895.102" cy="-396" rx="62.3494" ry="18"/>
<text text-anchor="middle" x="895.102" y="-391.8" font-family="Times,serif" font-size="14.00">backupribbons</text>
</g>
<!-- backupproject&#45;&gt;backupribbons -->
<g id="edge23" class="edge"><title>backupproject&#45;&gt;backupribbons</title>
<path fill="none" stroke="black" d="M896.617,-450.813C896.391,-442.789 896.117,-433.047 895.864,-424.069"/>
<polygon fill="black" stroke="black" points="899.362,-423.926 895.581,-414.029 892.364,-424.123 899.362,-423.926"/>
</g>
<!-- osbridge -->
<g id="node40" class="node"><title>osbridge</title>
<ellipse fill="none" stroke="black" cx="1174.1" cy="-469" rx="40.6248" ry="18"/>
<text text-anchor="middle" x="1174.1" y="-464.8" font-family="Times,serif" font-size="14.00">osbridge</text>
</g>
<!-- apachecon assault -->
<g id="node41" class="node"><title>apachecon assault</title>
<polygon fill="none" stroke="black" points="585.102,-414 480.648,-396 585.102,-378 689.556,-396 585.102,-414"/>
<text text-anchor="middle" x="585.102" y="-391.8" font-family="Times,serif" font-size="14.00">apachecon assault</text>
</g>
<!-- apachecon assault&#45;&gt;adainitiative -->
<g id="edge14" class="edge"><title>apachecon assault&#45;&gt;adainitiative</title>
<path fill="none" stroke="black" d="M582.876,-378.001C581.394,-366.691 579.415,-351.576 577.711,-338.566"/>
<polygon fill="black" stroke="black" points="581.131,-337.723 576.362,-328.262 574.19,-338.632 581.131,-337.723"/>
</g>
<!-- apachecon assault&#45;&gt;GF/TAI AHP -->
<g id="edge17" class="edge"><title>apachecon assault&#45;&gt;GF/TAI AHP</title>
<path fill="none" stroke="black" d="M606.651,-381.69C628.359,-368.282 662.165,-347.402 687.415,-331.806"/>
<polygon fill="black" stroke="black" points="689.288,-334.764 695.956,-326.531 685.609,-328.808 689.288,-334.764"/>
</g>
<!-- adainitiative&#45;&gt;GF/TAI AHP -->
<g id="edge19" class="edge"><title>adainitiative&#45;&gt;GF/TAI AHP</title>
<path fill="none" stroke="black" d="M628.078,-310C636.61,-310 645.142,-310 653.673,-310"/>
<polygon fill="black" stroke="black" points="653.689,-313.5 663.689,-310 653.689,-306.5 653.689,-313.5"/>
</g>
<!-- adainitiative&#45;&gt;adacamp -->
<g id="edge28" class="edge"><title>adainitiative&#45;&gt;adacamp</title>
<path fill="none" stroke="black" d="M617.251,-299.104C629.443,-296.537 642.754,-293.949 655.102,-292 808.301,-267.819 850.642,-288.39 1002.1,-255 1005.47,-254.257 1008.93,-253.365 1012.38,-252.384"/>
<polygon fill="black" stroke="black" points="1013.47,-255.712 1022,-249.432 1011.41,-249.02 1013.47,-255.712"/>
</g>
<!-- Skeptic AHPs -->
<g id="node49" class="node"><title>Skeptic AHPs</title>
<ellipse fill="none" stroke="black" cx="808.102" cy="-237" rx="59.4858" ry="18"/>
<text text-anchor="middle" x="808.102" y="-232.8" font-family="Times,serif" font-size="14.00">Skeptic AHPs</text>
</g>
<!-- GF/TAI AHP&#45;&gt;Skeptic AHPs -->
<g id="edge25" class="edge"><title>GF/TAI AHP&#45;&gt;Skeptic AHPs</title>
<path fill="none" stroke="black" d="M740.843,-292.889C752.523,-283.357 767.499,-271.136 780.353,-260.645"/>
<polygon fill="black" stroke="black" points="782.903,-263.082 788.438,-254.047 778.478,-257.658 782.903,-263.082"/>
</g>
<!-- PyCon AHP -->
<g id="node50" class="node"><title>PyCon AHP</title>
<ellipse fill="none" stroke="black" cx="939.102" cy="-237" rx="53.7149" ry="18"/>
<text text-anchor="middle" x="939.102" y="-232.8" font-family="Times,serif" font-size="14.00">PyCon AHP</text>
</g>
<!-- GF/TAI AHP&#45;&gt;PyCon AHP -->
<g id="edge24" class="edge"><title>GF/TAI AHP&#45;&gt;PyCon AHP</title>
<path fill="none" stroke="black" d="M759.324,-296.551C796.36,-284.489 852.603,-266.171 892.302,-253.242"/>
<polygon fill="black" stroke="black" points="893.592,-256.503 902.016,-250.078 891.424,-249.847 893.592,-256.503"/>
</g>
<!-- Scalzi&#39;s AHP pledge -->
<g id="node58" class="node"><title>Scalzi&#39;s AHP pledge</title>
<ellipse fill="none" stroke="black" cx="466.102" cy="-164" rx="81.7552" ry="18"/>
<text text-anchor="middle" x="466.102" y="-159.8" font-family="Times,serif" font-size="14.00">Scalzi&#39;s AHP pledge</text>
</g>
<!-- GF/TAI AHP&#45;&gt;Scalzi&#39;s AHP pledge -->
<g id="edge27" class="edge"><title>GF/TAI AHP&#45;&gt;Scalzi&#39;s AHP pledge</title>
<path fill="none" stroke="black" d="M694.294,-293.862C648.576,-268.044 555.434,-215.447 503.395,-186.06"/>
<polygon fill="black" stroke="black" points="504.914,-182.898 494.485,-181.028 501.472,-188.993 504.914,-182.898"/>
<text text-anchor="middle" x="627.208" y="-232.8" font-family="Times,serif" font-size="14.00">?</text>
</g>
<!-- #CoCPledge -->
<g id="node63" class="node"><title>#CoCPledge</title>
<ellipse fill="none" stroke="black" cx="926.102" cy="-91" rx="54.6334" ry="18"/>
<text text-anchor="middle" x="926.102" y="-86.8" font-family="Times,serif" font-size="14.00">#CoCPledge</text>
</g>
<!-- GF/TAI AHP&#45;&gt;#CoCPledge -->
<g id="edge26" class="edge"><title>GF/TAI AHP&#45;&gt;#CoCPledge</title>
<path fill="none" stroke="black" d="M719.627,-291.885C718.89,-271.65 721.001,-238.292 740.102,-219 793.588,-164.977 853.615,-236.023 907.102,-182 923.292,-165.647 927.276,-139.187 927.665,-119.181"/>
<polygon fill="black" stroke="black" points="931.164,-119.084 927.576,-109.115 924.164,-119.145 931.164,-119.084"/>
</g>
<!-- blackgirlscode -->
<g id="node46" class="node"><title>blackgirlscode</title>
<ellipse fill="none" stroke="black" cx="1595.1" cy="-310" rx="61.8476" ry="18"/>
<text text-anchor="middle" x="1595.1" y="-305.8" font-family="Times,serif" font-size="14.00">blackgirlscode</text>
</g>
<!-- adacamp&#45;&gt;osbridge -->
<g id="edge30" class="edge"><title>adacamp&#45;&gt;osbridge</title>
<path fill="none" stroke="black" d="M1084.43,-248.537C1096.84,-254.05 1110.17,-261.998 1119.1,-273 1159.41,-322.626 1170.21,-400.081 1173.08,-440.833"/>
<polygon fill="black" stroke="black" points="1169.58,-441.058 1173.67,-450.832 1176.57,-440.642 1169.58,-441.058"/>
<text text-anchor="middle" x="1196.97" y="-348.8" font-family="Times,serif" font-size="14.00">a11y policies</text>
</g>
<!-- doubleunion -->
<g id="node55" class="node"><title>doubleunion</title>
<ellipse fill="none" stroke="black" cx="1019.1" cy="-164" rx="54.1403" ry="18"/>
<text text-anchor="middle" x="1019.1" y="-159.8" font-family="Times,serif" font-size="14.00">doubleunion</text>
</g>
<!-- adacamp&#45;&gt;doubleunion -->
<g id="edge33" class="edge"><title>adacamp&#45;&gt;doubleunion</title>
<path fill="none" stroke="black" d="M1044.28,-219.174C1040.43,-210.896 1035.71,-200.723 1031.39,-191.438"/>
<polygon fill="black" stroke="black" points="1034.48,-189.792 1027.1,-182.198 1028.14,-192.742 1034.48,-189.792"/>
</g>
<!-- railsgirls&#45;&gt;rgsoc -->
<g id="edge49" class="edge"><title>railsgirls&#45;&gt;rgsoc</title>
<path fill="none" stroke="black" d="M1447.93,-219.533C1454.39,-210.534 1462.52,-199.22 1469.69,-189.233"/>
<polygon fill="black" stroke="black" points="1472.7,-191.053 1475.69,-180.89 1467.01,-186.97 1472.7,-191.053"/>
</g>
<!-- Feminist Frequency vids -->
<g id="node51" class="node"><title>Feminist Frequency vids</title>
<ellipse fill="none" stroke="black" cx="1631.1" cy="-237" rx="97.6053" ry="18"/>
<text text-anchor="middle" x="1631.1" y="-232.8" font-family="Times,serif" font-size="14.00">Feminist Frequency vids</text>
</g>
<!-- transcodesf -->
<g id="node52" class="node"><title>transcodesf</title>
<ellipse fill="none" stroke="black" cx="1797.1" cy="-237" rx="50.2551" ry="18"/>
<text text-anchor="middle" x="1797.1" y="-232.8" font-family="Times,serif" font-size="14.00">transcodesf</text>
</g>
<!-- libtechwomen -->
<g id="node53" class="node"><title>libtechwomen</title>
<ellipse fill="none" stroke="black" cx="1926.1" cy="-237" rx="60.4115" ry="18"/>
<text text-anchor="middle" x="1926.1" y="-232.8" font-family="Times,serif" font-size="14.00">libtechwomen</text>
</g>
<!-- seattleattic&#45;&gt;doubleunion -->
<g id="edge36" class="edge"><title>seattleattic&#45;&gt;doubleunion</title>
<path fill="none" stroke="black" d="M340.407,-180.06C352.662,-187.892 368.507,-196.475 384.102,-200.5 442.951,-215.689 871.494,-212.371 931.102,-200.5 948.001,-197.134 965.719,-190.463 980.792,-183.734"/>
<polygon fill="black" stroke="black" points="982.677,-186.718 990.279,-179.338 979.734,-180.367 982.677,-186.718"/>
</g>
<!-- callbackwomen -->
<g id="node57" class="node"><title>callbackwomen</title>
<ellipse fill="none" stroke="black" cx="1600.1" cy="-164" rx="65.6976" ry="18"/>
<text text-anchor="middle" x="1600.1" y="-159.8" font-family="Times,serif" font-size="14.00">callbackwomen</text>
</g>
<!-- transh4ck -->
<g id="node59" class="node"><title>transh4ck</title>
<ellipse fill="none" stroke="black" cx="1728.1" cy="-164" rx="44.475" ry="18"/>
<text text-anchor="middle" x="1728.1" y="-159.8" font-family="Times,serif" font-size="14.00">transh4ck</text>
</g>
<!-- transtech -->
<g id="node60" class="node"><title>transtech</title>
<ellipse fill="none" stroke="black" cx="1850.1" cy="-164" rx="42.0524" ry="18"/>
<text text-anchor="middle" x="1850.1" y="-159.8" font-family="Times,serif" font-size="14.00">transtech</text>
</g>
<!-- transh4ck&#45;&gt;transtech -->
<g id="edge57" class="edge"><title>transh4ck&#45;&gt;transtech</title>
<path fill="none" stroke="black" d="M1772.9,-164C1781.19,-164 1789.48,-164 1797.77,-164"/>
<polygon fill="black" stroke="black" points="1797.88,-167.5 1807.88,-164 1797.88,-160.5 1797.88,-167.5"/>
</g>
<!-- females in hackerspaces email -->
<g id="node61" class="node"><title>females in hackerspaces email</title>
<polygon fill="none" stroke="black" points="732.102,-182 566.036,-164 732.102,-146 898.167,-164 732.102,-182"/>
<text text-anchor="middle" x="732.102" y="-159.8" font-family="Times,serif" font-size="14.00">females in hackerspaces email</text>
</g>
<!-- females in hackerspaces email&#45;&gt;seattleattic -->
<g id="edge31" class="edge"><title>females in hackerspaces email&#45;&gt;seattleattic</title>
<path fill="none" stroke="black" d="M690.955,-177.586C625.118,-197.272 492.478,-228.472 384.102,-200.5 372.04,-197.387 359.829,-191.547 349.245,-185.437"/>
<polygon fill="black" stroke="black" points="350.769,-182.268 340.407,-180.06 347.13,-188.248 350.769,-182.268"/>
</g>
<!-- females in hackerspaces email&#45;&gt;doubleunion -->
<g id="edge32" class="edge"><title>females in hackerspaces email&#45;&gt;doubleunion</title>
<path fill="none" stroke="black" d="M898.304,-164C916.969,-164 935.635,-164 954.301,-164"/>
<polygon fill="black" stroke="black" points="954.365,-167.5 964.365,-164 954.365,-160.5 954.365,-167.5"/>
</g>
<!-- mvc -->
<g id="node62" class="node"><title>mvc</title>
<ellipse fill="none" stroke="black" cx="1026.1" cy="-91" rx="27" ry="18"/>
<text text-anchor="middle" x="1026.1" y="-86.8" font-family="Times,serif" font-size="14.00">mvc</text>
</g>
<!-- mothershiphackermoms -->
<g id="node64" class="node"><title>mothershiphackermoms</title>
<ellipse fill="none" stroke="black" cx="1207.1" cy="-237" rx="95.1654" ry="18"/>
<text text-anchor="middle" x="1207.1" y="-232.8" font-family="Times,serif" font-size="14.00">mothershiphackermoms</text>
</g>
<!-- mothershiphackermoms&#45;&gt;doubleunion -->
<g id="edge35" class="edge"><title>mothershiphackermoms&#45;&gt;doubleunion</title>
<path fill="none" stroke="black" d="M1166.31,-220.594C1135.91,-209.112 1094.43,-193.448 1063.25,-181.673"/>
<polygon fill="black" stroke="black" points="1064.11,-178.255 1053.52,-177.997 1061.63,-184.804 1064.11,-178.255"/>
</g>
</g>
</svg>
